<?xml version="1.0" encoding="iso-8859-1"?>
<!-- Uploaded to: SVG Repo, www.svgrepo.com, Generator: SVG Repo Mixer Tools -->
<svg height="800px" width="800px" version="1.1" id="Layer_1" xmlns="http://www.w3.org/2000/svg" xmlns:xlink="http://www.w3.org/1999/xlink" 
	 viewBox="0 0 512 512" xml:space="preserve">
<g>
	<polygon style="fill:#C7E7EB;" points="297.654,0 214.053,0 209.057,53.896 256,81.483 302.635,53.736 	"/>
	<polygon style="fill:#C7E7EB;" points="104.435,45.526 45.319,104.642 79.898,146.285 132.599,132.598 145.954,80.003 	"/>
	<polygon style="fill:#C7E7EB;" points="0,214.346 0,297.947 53.896,302.943 81.483,256 53.736,209.365 	"/>
	<polygon style="fill:#C7E7EB;" points="45.526,407.566 104.642,466.681 146.285,432.102 132.598,379.401 80.003,366.046 	"/>
	<polygon style="fill:#C7E7EB;" points="214.346,512 297.947,512 302.943,458.104 256,430.517 209.365,458.264 	"/>
	<polygon style="fill:#C7E7EB;" points="407.566,466.474 466.681,407.358 432.102,365.715 379.401,379.402 366.046,431.997 	"/>
	<polygon style="fill:#C7E7EB;" points="512,297.654 512,214.053 458.104,209.057 430.517,256 458.264,302.635 	"/>
	<polygon style="fill:#C7E7EB;" points="466.474,104.435 407.358,45.319 365.715,79.898 379.402,132.599 431.997,145.954 	"/>
	<path style="fill:#C7E7EB;" d="M256,70.33C153.621,70.33,70.33,153.621,70.33,256S153.621,441.67,256,441.67
		S441.67,358.379,441.67,256S358.379,70.33,256,70.33z M256,342.084c-47.466,0-86.084-38.617-86.084-86.084
		s38.617-86.084,86.084-86.084c47.467,0,86.084,38.617,86.084,86.085C342.084,303.467,303.467,342.084,256,342.084z"/>
</g>
<path style="fill:#FFEAB5;" d="M299.469,122.222c-13.278-4.332-27.412-6.735-42.085-6.87l51.898,33.826L299.469,122.222z"/>
<path style="fill:#FFFFFF;" d="M298.029,126.672v55.376l-21.166,9.744c-6.572-2.149-13.582-3.308-20.863-3.308
	c-7.281,0-14.291,1.159-20.863,3.308l-22.607-9.744v-59.829c13.695-4.467,28.301-6.879,43.469-6.879c0.461,0,0.923,0,1.384,0.011
	C271.788,115.588,285.527,119.605,298.029,126.672z"/>
<path style="fill:#FFEAB5;" d="M257.384,396.648c14.674-0.135,28.807-2.538,42.085-6.87l9.812-26.956L257.384,396.648z"/>
<g>
	<path style="fill:#FFFFFF;" d="M298.029,385.328v-55.376l-21.166-9.744c-6.572,2.149-13.582,3.308-20.863,3.308
		c-7.281,0-14.291-1.159-20.863-3.308l-22.607,9.744v59.832c13.695,4.467,28.301,6.875,43.469,6.875c0.461,0,0.923,0,1.384-0.011
		C271.788,396.412,285.527,392.395,298.029,385.328z"/>
	<path style="fill:#FFFFFF;" d="M191.792,212.531h-69.57c-4.467,13.695-6.881,28.301-6.881,43.469s2.414,29.775,6.881,43.469h69.57
		v-22.607c-2.149-6.572-3.308-13.582-3.308-20.863c0-7.281,1.159-14.291,3.308-20.863V212.531z"/>
</g>
<path style="fill:#FFEAB5;" d="M389.778,212.531h-41.247v86.939h41.247c4.467-13.695,6.881-28.301,6.881-43.469
	C396.659,240.831,394.246,226.225,389.778,212.531z"/>
<g>
	<path style="fill:#FF4719;" d="M299.469,122.222l-1.44,4.45l61.755,95.603l29.994-9.745
		C375.881,169.871,342.129,136.108,299.469,122.222z"/>
	<path style="fill:#FF4719;" d="M359.784,289.724l-61.755,95.603l1.44,4.45c42.659-13.886,76.412-47.65,90.309-90.309
		L359.784,289.724z"/>
</g>
<path style="fill:#FFFFFF;" d="M359.784,222.276c2.037,10.803,3.117,22.1,3.117,33.724c0,11.624-1.08,22.922-3.117,33.724
	l-39.576,16.768v-29.63c2.149-6.572,3.308-13.582,3.308-20.863c0-7.281-1.159-14.291-3.308-20.863v-28.53L359.784,222.276z"/>
<g>
	<path style="fill:#FF754F;" d="M359.784,222.276l-39.576,12.862c-6.662-20.48-22.866-36.684-43.346-43.346l21.166-65.12
		C328.501,143.878,351.705,179.2,359.784,222.276z"/>
	<path style="fill:#FF754F;" d="M320.208,276.863l39.576,12.862c-8.079,43.076-31.283,78.398-61.755,95.603l-21.166-65.12
		C297.343,313.547,313.547,297.343,320.208,276.863z"/>
	<path style="fill:#FF754F;" d="M191.792,276.863l-69.57,22.607c13.886,42.659,47.65,76.429,90.309,90.315l22.607-69.576
		C214.657,313.547,198.453,297.343,191.792,276.863z"/>
	<path style="fill:#FF754F;" d="M212.531,122.219c-42.659,13.886-76.423,47.652-90.309,90.311l69.57,22.607
		c6.662-20.48,22.866-36.684,43.346-43.346L212.531,122.219z"/>
</g>
<path style="fill:#A7CBCF;" d="M256,47.825c114.789,0,208.176,93.387,208.176,208.176S370.789,464.177,256,464.177l-22.505-16.879
	L256,430.419c96.177,0,174.418-78.24,174.418-174.418S352.177,81.584,256,81.584l-22.505-16.879L256,47.825z"/>
<path style="fill:#B7D9DD;" d="M256,47.825v33.758c-96.177,0-174.418,78.24-174.418,174.418S159.823,430.419,256,430.419v33.758
	c-114.789,0-208.176-93.387-208.176-208.176S141.211,47.825,256,47.825z"/>
</svg>