<svg version="1.1" viewBox="0.0 0.0 600.0 371.0" fill="none" stroke="none" stroke-linecap="square" stroke-miterlimit="10" width="600" height="371" xmlns:xlink="http://www.w3.org/1999/xlink" xmlns="http://www.w3.org/2000/svg"><path fill="#ffffff" d="M0 0L600.0 0L600.0 371.0L0 371.0L0 0Z" fill-rule="nonzero"/><path stroke="#333333" stroke-width="1.0" stroke-linecap="butt" d="M104.5 310.5L594.5 310.5" fill-rule="nonzero"/><path stroke="#cccccc" stroke-width="1.0" stroke-linecap="butt" d="M104.5 209.5L594.5 209.5" fill-rule="nonzero"/><path stroke="#cccccc" stroke-width="1.0" stroke-linecap="butt" d="M104.5 109.5L594.5 109.5" fill-rule="nonzero"/><path stroke="#cccccc" stroke-width="1.0" stroke-linecap="butt" d="M104.5 8.5L594.5 8.5" fill-rule="nonzero"/><clipPath id="id_0"><path d="M104.5 8.5L594.5 8.5L594.5 310.5L104.5 310.5L104.5 8.5Z" clip-rule="nonzero"/></clipPath><path stroke="#4285f4" stroke-width="2.0" stroke-linecap="butt" clip-path="url(#id_0)" d="M129.0 56.01215L178.0 166.22504L227.0 241.75725L276.0 263.9915L325.0 270.94153L374.0 274.8031L423.0 276.47113L472.0 277.73804L521.0 278.72003L570.0 279.83542" fill-rule="nonzero"/><path fill="#000000" fill-opacity="0.0" clip-path="url(#id_0)" d="M132.0 56.01215C132.0 57.669003 130.65686 59.01215 129.0 59.01215C127.34315 59.01215 126.0 57.669003 126.0 56.01215C126.0 54.355297 127.34315 53.01215 129.0 53.01215C130.65686 53.01215 132.0 54.355297 132.0 56.01215Z" fill-rule="nonzero"/><path fill="#000000" fill-opacity="0.0" clip-path="url(#id_0)" d="M181.0 166.22504C181.0 167.8819 179.65686 169.22504 178.0 169.22504C176.34314 169.22504 175.0 167.8819 175.0 166.22504C175.0 164.56818 176.34314 163.22504 178.0 163.22504C179.65686 163.22504 181.0 164.56818 181.0 166.22504Z" fill-rule="nonzero"/><path fill="#000000" fill-opacity="0.0" clip-path="url(#id_0)" d="M230.0 241.75725C230.0 243.41411 228.65686 244.75725 227.0 244.75725C225.34314 244.75725 224.0 243.41411 224.0 241.75725C224.0 240.1004 225.34314 238.75725 227.0 238.75725C228.65686 238.75725 230.0 240.1004 230.0 241.75725Z" fill-rule="nonzero"/><path fill="#000000" fill-opacity="0.0" clip-path="url(#id_0)" d="M279.0 263.9915C279.0 265.64835 277.65686 266.9915 276.0 266.9915C274.34314 266.9915 273.0 265.64835 273.0 263.9915C273.0 262.33466 274.34314 260.9915 276.0 260.9915C277.65686 260.9915 279.0 262.33466 279.0 263.9915Z" fill-rule="nonzero"/><path fill="#000000" fill-opacity="0.0" clip-path="url(#id_0)" d="M328.0 270.94153C328.0 272.5984 326.65686 273.94153 325.0 273.94153C323.34314 273.94153 322.0 272.5984 322.0 270.94153C322.0 269.28467 323.34314 267.94153 325.0 267.94153C326.65686 267.94153 328.0 269.28467 328.0 270.94153Z" fill-rule="nonzero"/><path fill="#000000" fill-opacity="0.0" clip-path="url(#id_0)" d="M377.0 274.8031C377.0 276.45996 375.65686 277.8031 374.0 277.8031C372.34314 277.8031 371.0 276.45996 371.0 274.8031C371.0 273.14624 372.34314 271.8031 374.0 271.8031C375.65686 271.8031 377.0 273.14624 377.0 274.8031Z" fill-rule="nonzero"/><path fill="#000000" fill-opacity="0.0" clip-path="url(#id_0)" d="M426.0 276.47113C426.0 278.128 424.65686 279.47113 423.0 279.47113C421.34314 279.47113 420.0 278.128 420.0 276.47113C420.0 274.8143 421.34314 273.47113 423.0 273.47113C424.65686 273.47113 426.0 274.8143 426.0 276.47113Z" fill-rule="nonzero"/><path fill="#000000" fill-opacity="0.0" clip-path="url(#id_0)" d="M475.0 277.73804C475.0 279.3949 473.65686 280.73804 472.0 280.73804C470.34314 280.73804 469.0 279.3949 469.0 277.73804C469.0 276.08118 470.34314 274.73804 472.0 274.73804C473.65686 274.73804 475.0 276.08118 475.0 277.73804Z" fill-rule="nonzero"/><path fill="#000000" fill-opacity="0.0" clip-path="url(#id_0)" d="M524.0 278.72003C524.0 280.3769 522.65686 281.72003 521.0 281.72003C519.34314 281.72003 518.0 280.3769 518.0 278.72003C518.0 277.06317 519.34314 275.72003 521.0 275.72003C522.65686 275.72003 524.0 277.06317 524.0 278.72003Z" fill-rule="nonzero"/><path fill="#000000" fill-opacity="0.0" clip-path="url(#id_0)" d="M573.0 279.83542C573.0 281.49228 571.65686 282.83542 570.0 282.83542C568.34314 282.83542 567.0 281.49228 567.0 279.83542C567.0 278.17856 568.34314 276.83542 570.0 276.83542C571.65686 276.83542 573.0 278.17856 573.0 279.83542Z" fill-rule="nonzero"/><path fill="#000000" d="M263.09375 369.52722L260.82812 369.52722L252.25 356.37097L252.25 369.52722L249.98438 369.52722L249.98438 352.46472L252.25 352.46472L260.85938 365.66785L260.85938 352.46472L263.09375 352.46472L263.09375 369.52722ZM274.46875 368.27722Q273.20312 369.7616 270.75 369.7616Q268.73438 369.7616 267.67188 368.58972Q266.60938 367.40222 266.59375 365.08972L266.59375 356.83972L268.76562 356.83972L268.76562 365.04285Q268.76562 367.91785 271.10938 367.91785Q273.59375 367.91785 274.40625 366.0741L274.40625 356.83972L276.57812 356.83972L276.57812 369.52722L274.51562 369.52722L274.46875 368.27722ZM281.6875 356.83972L281.73438 358.24597Q283.14062 356.60535 285.5 356.60535Q288.15625 356.60535 289.125 358.65222Q289.75 357.73035 290.76562 357.16785Q291.78125 356.60535 293.17188 356.60535Q297.34375 356.60535 297.40625 361.02722L297.40625 369.52722L295.23438 369.52722L295.23438 361.15222Q295.23438 359.79285 294.60938 359.12097Q294.0 358.4491 292.53125 358.4491Q291.32812 358.4491 290.53125 359.16785Q289.73438 359.8866 289.60938 361.10535L289.60938 369.52722L287.42188 369.52722L287.42188 361.21472Q287.42188 358.4491 284.71875 358.4491Q282.57812 358.4491 281.79688 360.2616L281.79688 369.52722L279.625 369.52722L279.625 356.83972L281.6875 356.83972ZM311.375 363.3241Q311.375 366.23035 310.03125 367.99597Q308.70312 369.7616 306.45312 369.7616Q304.04688 369.7616 302.73438 368.05847L302.64062 369.52722L300.64062 369.52722L300.64062 351.52722L302.8125 351.52722L302.8125 358.24597Q304.125 356.60535 306.42188 356.60535Q308.73438 356.60535 310.04688 358.35535Q311.375 360.10535 311.375 363.1366L311.375 363.3241ZM309.20312 363.0741Q309.20312 360.87097 308.34375 359.66785Q307.5 358.4491 305.89062 358.4491Q303.75 358.4491 302.8125 360.4491L302.8125 365.93347Q303.8125 367.91785 305.92188 367.91785Q307.46875 367.91785 308.32812 366.71472Q309.20312 365.5116 309.20312 363.0741ZM318.90625 369.7616Q316.32812 369.7616 314.70312 368.0741Q313.09375 366.37097 313.09375 363.54285L313.09375 363.1366Q313.09375 361.24597 313.8125 359.77722Q314.53125 358.29285 315.82812 357.4491Q317.125 356.60535 318.64062 356.60535Q321.10938 356.60535 322.46875 358.24597Q323.84375 359.87097 323.84375 362.90222L323.84375 363.80847L315.26562 363.80847Q315.3125 365.68347 316.35938 366.83972Q317.40625 367.99597 319.01562 367.99597Q320.17188 367.99597 320.96875 367.52722Q321.76562 367.05847 322.35938 366.27722L323.6875 367.30847Q322.09375 369.7616 318.90625 369.7616ZM318.64062 358.3866Q317.32812 358.3866 316.4375 359.35535Q315.54688 360.30847 315.32812 362.02722L321.6875 362.02722L321.6875 361.85535Q321.59375 360.21472 320.79688 359.30847Q320.0 358.3866 318.64062 358.3866ZM332.76562 358.79285Q332.28125 358.71472 331.70312 358.71472Q329.57812 358.71472 328.8125 360.52722L328.8125 369.52722L326.64062 369.52722L326.64062 356.83972L328.75 356.83972L328.78125 358.30847Q329.85938 356.60535 331.8125 356.60535Q332.4375 356.60535 332.76562 356.77722L332.76562 358.79285ZM343.23438 362.83972L343.23438 369.52722L340.98438 369.52722L340.98438 352.46472L347.28125 352.46472Q350.07812 352.46472 351.65625 353.90222Q353.25 355.3241 353.25 357.68347Q353.25 360.16785 351.6875 361.5116Q350.14062 362.83972 347.25 362.83972L343.23438 362.83972ZM343.23438 361.0116L347.28125 361.0116Q349.07812 361.0116 350.03125 360.16785Q351.0 359.30847 351.0 357.6991Q351.0 356.18347 350.03125 355.27722Q349.07812 354.35535 347.40625 354.30847L343.23438 354.30847L343.23438 361.0116ZM361.76562 358.79285Q361.28125 358.71472 360.70312 358.71472Q358.57812 358.71472 357.8125 360.52722L357.8125 369.52722L355.64062 369.52722L355.64062 356.83972L357.75 356.83972L357.78125 358.30847Q358.85938 356.60535 360.8125 356.60535Q361.4375 356.60535 361.76562 356.77722L361.76562 358.79285ZM363.0625 363.0741Q363.0625 361.1991 363.79688 359.71472Q364.53125 358.23035 365.82812 357.41785Q367.14062 356.60535 368.82812 356.60535Q371.40625 356.60535 373.0 358.40222Q374.60938 360.1991 374.60938 363.16785L374.60938 363.3241Q374.60938 365.18347 373.89062 366.65222Q373.1875 368.12097 371.875 368.9491Q370.5625 369.7616 368.84375 369.7616Q366.26562 369.7616 364.65625 367.96472Q363.0625 366.16785 363.0625 363.21472L363.0625 363.0741ZM365.25 363.3241Q365.25 365.43347 366.21875 366.71472Q367.20312 367.99597 368.84375 367.99597Q370.5 367.99597 371.46875 366.6991Q372.4375 365.40222 372.4375 363.0741Q372.4375 360.98035 371.45312 359.68347Q370.46875 358.3866 368.82812 358.3866Q367.21875 358.3866 366.23438 359.66785Q365.25 360.9491 365.25 363.3241ZM382.73438 367.99597Q383.89062 367.99597 384.75 367.29285Q385.625 366.58972 385.71875 365.52722L387.76562 365.52722Q387.70312 366.62097 387.01562 367.60535Q386.32812 368.58972 385.17188 369.18347Q384.01562 369.7616 382.73438 369.7616Q380.14062 369.7616 378.60938 368.04285Q377.07812 366.30847 377.07812 363.30847L377.07812 362.93347Q377.07812 361.08972 377.75 359.65222Q378.4375 358.1991 379.70312 357.40222Q380.98438 356.60535 382.71875 356.60535Q384.84375 356.60535 386.25 357.8866Q387.67188 359.16785 387.76562 361.1991L385.71875 361.1991Q385.625 359.98035 384.78125 359.18347Q383.95312 358.3866 382.71875 358.3866Q381.0625 358.3866 380.15625 359.58972Q379.25 360.77722 379.25 363.02722L379.25 363.43347Q379.25 365.62097 380.14062 366.80847Q381.04688 367.99597 382.73438 367.99597ZM395.90625 369.7616Q393.32812 369.7616 391.70312 368.0741Q390.09375 366.37097 390.09375 363.54285L390.09375 363.1366Q390.09375 361.24597 390.8125 359.77722Q391.53125 358.29285 392.82812 357.4491Q394.125 356.60535 395.64062 356.60535Q398.10938 356.60535 399.46875 358.24597Q400.84375 359.87097 400.84375 362.90222L400.84375 363.80847L392.26562 363.80847Q392.3125 365.68347 393.35938 366.83972Q394.40625 367.99597 396.01562 367.99597Q397.17188 367.99597 397.96875 367.52722Q398.76562 367.05847 399.35938 366.27722L400.6875 367.30847Q399.09375 369.7616 395.90625 369.7616ZM395.64062 358.3866Q394.32812 358.3866 393.4375 359.35535Q392.54688 360.30847 392.32812 362.02722L398.6875 362.02722L398.6875 361.85535Q398.59375 360.21472 397.79688 359.30847Q397.0 358.3866 395.64062 358.3866ZM411.03125 366.16785Q411.03125 365.27722 410.35938 364.79285Q409.70312 364.30847 408.04688 363.96472Q406.40625 363.60535 405.4375 363.12097Q404.46875 362.62097 404.0 361.9491Q403.54688 361.2616 403.54688 360.3241Q403.54688 358.7616 404.85938 357.68347Q406.1875 356.60535 408.23438 356.60535Q410.39062 356.60535 411.73438 357.73035Q413.07812 358.83972 413.07812 360.5741L410.89062 360.5741Q410.89062 359.68347 410.14062 359.04285Q409.39062 358.3866 408.23438 358.3866Q407.04688 358.3866 406.375 358.90222Q405.71875 359.41785 405.71875 360.2616Q405.71875 361.04285 406.32812 361.4491Q406.95312 361.83972 408.57812 362.1991Q410.20312 362.55847 411.20312 363.0741Q412.21875 363.5741 412.70312 364.29285Q413.1875 364.99597 413.1875 366.0116Q413.1875 367.71472 411.82812 368.74597Q410.46875 369.7616 408.3125 369.7616Q406.78125 369.7616 405.60938 369.23035Q404.4375 368.68347 403.76562 367.71472Q403.10938 366.74597 403.10938 365.62097L405.28125 365.62097Q405.34375 366.71472 406.15625 367.35535Q406.96875 367.99597 408.3125 367.99597Q409.53125 367.99597 410.28125 367.49597Q411.03125 366.99597 411.03125 366.16785ZM423.03125 366.16785Q423.03125 365.27722 422.35938 364.79285Q421.70312 364.30847 420.04688 363.96472Q418.40625 363.60535 417.4375 363.12097Q416.46875 362.62097 416.0 361.9491Q415.54688 361.2616 415.54688 360.3241Q415.54688 358.7616 416.85938 357.68347Q418.1875 356.60535 420.23438 356.60535Q422.39062 356.60535 423.73438 357.73035Q425.07812 358.83972 425.07812 360.5741L422.89062 360.5741Q422.89062 359.68347 422.14062 359.04285Q421.39062 358.3866 420.23438 358.3866Q419.04688 358.3866 418.375 358.90222Q417.71875 359.41785 417.71875 360.2616Q417.71875 361.04285 418.32812 361.4491Q418.95312 361.83972 420.57812 362.1991Q422.20312 362.55847 423.20312 363.0741Q424.21875 363.5741 424.70312 364.29285Q425.1875 364.99597 425.1875 366.0116Q425.1875 367.71472 423.82812 368.74597Q422.46875 369.7616 420.3125 369.7616Q418.78125 369.7616 417.60938 369.23035Q416.4375 368.68347 415.76562 367.71472Q415.10938 366.74597 415.10938 365.62097L417.28125 365.62097Q417.34375 366.71472 418.15625 367.35535Q418.96875 367.99597 420.3125 367.99597Q421.53125 367.99597 422.28125 367.49597Q423.03125 366.99597 423.03125 366.16785ZM432.90625 369.7616Q430.32812 369.7616 428.70312 368.0741Q427.09375 366.37097 427.09375 363.54285L427.09375 363.1366Q427.09375 361.24597 427.8125 359.77722Q428.53125 358.29285 429.82812 357.4491Q431.125 356.60535 432.64062 356.60535Q435.10938 356.60535 436.46875 358.24597Q437.84375 359.87097 437.84375 362.90222L437.84375 363.80847L429.26562 363.80847Q429.3125 365.68347 430.35938 366.83972Q431.40625 367.99597 433.01562 367.99597Q434.17188 367.99597 434.96875 367.52722Q435.76562 367.05847 436.35938 366.27722L437.6875 367.30847Q436.09375 369.7616 432.90625 369.7616ZM432.64062 358.3866Q431.32812 358.3866 430.4375 359.35535Q429.54688 360.30847 429.32812 362.02722L435.6875 362.02722L435.6875 361.85535Q435.59375 360.21472 434.79688 359.30847Q434.0 358.3866 432.64062 358.3866ZM448.03125 366.16785Q448.03125 365.27722 447.35938 364.79285Q446.70312 364.30847 445.04688 363.96472Q443.40625 363.60535 442.4375 363.12097Q441.46875 362.62097 441.0 361.9491Q440.54688 361.2616 440.54688 360.3241Q440.54688 358.7616 441.85938 357.68347Q443.1875 356.60535 445.23438 356.60535Q447.39062 356.60535 448.73438 357.73035Q450.07812 358.83972 450.07812 360.5741L447.89062 360.5741Q447.89062 359.68347 447.14062 359.04285Q446.39062 358.3866 445.23438 358.3866Q444.04688 358.3866 443.375 358.90222Q442.71875 359.41785 442.71875 360.2616Q442.71875 361.04285 443.32812 361.4491Q443.95312 361.83972 445.57812 362.1991Q447.20312 362.55847 448.20312 363.0741Q449.21875 363.5741 449.70312 364.29285Q450.1875 364.99597 450.1875 366.0116Q450.1875 367.71472 448.82812 368.74597Q447.46875 369.7616 445.3125 369.7616Q443.78125 369.7616 442.60938 369.23035Q441.4375 368.68347 440.76562 367.71472Q440.10938 366.74597 440.10938 365.62097L442.28125 365.62097Q442.34375 366.71472 443.15625 367.35535Q443.96875 367.99597 445.3125 367.99597Q446.53125 367.99597 447.28125 367.49597Q448.03125 366.99597 448.03125 366.16785Z" fill-rule="nonzero"/><path fill="#000000" d="M28.911913 264.96127L11.849414 264.96127L11.849414 259.38315Q11.849414 256.6019 13.005664 255.21127Q14.146289 253.80502 16.396288 253.80502Q17.583788 253.80502 18.505663 254.49252Q19.427538 255.1644 19.927538 256.33627Q20.318163 254.96127 21.411913 254.1644Q22.490038 253.3519 23.990038 253.3519Q26.286913 253.3519 27.599413 254.83627Q28.911913 256.32065 28.911913 259.0394L28.911913 264.96127ZM20.927538 262.71127L27.068163 262.71127L27.068163 258.99252Q27.068163 257.43002 26.255663 256.52377Q25.443163 255.61752 24.005663 255.61752Q20.927538 255.61752 20.927538 258.96127L20.927538 262.71127ZM19.130663 262.71127L19.130663 259.32065Q19.130663 257.83627 18.396288 256.96127Q17.646288 256.07065 16.380663 256.07065Q14.974414 256.07065 14.333789 256.89877Q13.693164 257.71127 13.693164 259.38315L13.693164 262.71127L19.130663 262.71127ZM28.911913 242.4769Q28.536913 242.6644 27.568163 242.77377Q29.146288 244.2894 29.146288 246.38315Q29.146288 248.25815 28.083788 249.46127Q27.021288 250.6644 25.396288 250.6644Q23.411913 250.6644 22.318163 249.1644Q21.224413 247.64877 21.224413 244.93002L21.224413 242.82065L20.224413 242.82065Q19.083788 242.82065 18.411913 243.50815Q17.740038 244.18002 17.740038 245.49252Q17.740038 246.6644 18.333788 247.44565Q18.911913 248.2269 19.740038 248.2269L19.740038 250.4144Q18.802538 250.4144 17.911913 249.74252Q17.021288 249.05502 16.505663 247.9144Q15.990039 246.75815 15.990039 245.36752Q15.990039 243.18002 17.099413 241.94565Q18.193163 240.69565 20.115038 240.64877L25.943163 240.64877Q27.693163 240.64877 28.724413 240.19565L28.911913 240.19565L28.911913 242.4769ZM27.255663 246.07065Q27.255663 245.05502 26.740038 244.14877Q26.208788 243.2269 25.365038 242.82065L22.755663 242.82065L22.755663 244.50815Q22.755663 248.49252 25.083788 248.49252Q26.115038 248.49252 26.693163 247.82065Q27.255663 247.13315 27.255663 246.07065ZM16.224413 235.25815L17.818163 235.18002Q15.990039 233.7269 15.990039 231.38315Q15.990039 227.36752 20.536913 227.33627L28.911913 227.33627L28.911913 229.49252L20.521288 229.49252Q19.146288 229.50815 18.490038 230.13315Q17.833788 230.74252 17.833788 232.0394Q17.833788 233.1019 18.396288 233.89877Q18.958788 234.69565 19.880663 235.13315L28.911913 235.13315L28.911913 237.30502L16.224413 237.30502L16.224413 235.25815ZM22.458788 224.83627Q19.552538 224.83627 17.771288 223.46127Q15.990039 222.07065 15.990039 219.82065Q15.990039 217.6019 17.521288 216.30502L10.911914 216.30502L10.911914 214.13315L28.911913 214.13315L28.911913 216.11752L27.552538 216.2269Q29.146288 217.52377 29.146288 219.8519Q29.146288 222.05502 27.349413 223.44565Q25.536913 224.83627 22.630663 224.83627L22.458788 224.83627ZM22.708788 222.6644Q24.865038 222.6644 26.083788 221.77377Q27.302538 220.88315 27.302538 219.30502Q27.302538 217.24252 25.458788 216.30502L19.630663 216.30502Q17.833788 217.27377 17.833788 219.2894Q17.833788 220.88315 19.068163 221.77377Q20.302538 222.6644 22.708788 222.6644ZM25.927538 199.07065L16.224413 196.63315L16.224413 194.4769L28.911913 198.1644L28.911913 199.9144L19.302538 203.00815L28.911913 206.00815L28.911913 207.75815L16.224413 211.44565L16.224413 209.2894L25.724413 206.7894L16.224413 203.83627L16.224413 202.08627L25.927538 199.07065ZM28.911913 189.94565L28.911913 192.11752L16.224413 192.11752L16.224413 189.94565L28.911913 189.94565ZM12.865039 192.2894Q12.333789 192.2894 11.974414 191.9769Q11.615039 191.64877 11.615039 191.02377Q11.615039 190.38315 11.974414 190.05502Q12.333789 189.7269 12.865039 189.7269Q13.396289 189.7269 13.755664 190.05502Q14.099414 190.38315 14.099414 191.02377Q14.099414 191.64877 13.755664 191.9769Q13.396289 192.2894 12.865039 192.2894ZM22.458788 186.83627Q19.552538 186.83627 17.771288 185.46127Q15.990039 184.07065 15.990039 181.82065Q15.990039 179.6019 17.521288 178.30502L10.911914 178.30502L10.911914 176.13315L28.911913 176.13315L28.911913 178.11752L27.552538 178.2269Q29.146288 179.52377 29.146288 181.8519Q29.146288 184.05502 27.349413 185.44565Q25.536913 186.83627 22.630663 186.83627L22.458788 186.83627ZM22.708788 184.6644Q24.865038 184.6644 26.083788 183.77377Q27.302538 182.88315 27.302538 181.30502Q27.302538 179.24252 25.458788 178.30502L19.630663 178.30502Q17.833788 179.27377 17.833788 181.2894Q17.833788 182.88315 19.068163 183.77377Q20.302538 184.6644 22.708788 184.6644ZM13.161914 169.36752L16.224413 169.36752L16.224413 166.99252L17.911913 166.99252L17.911913 169.36752L25.771288 169.36752Q26.536913 169.36752 26.911913 169.05502Q27.286913 168.7269 27.286913 167.96127Q27.286913 167.58627 27.146288 166.93002L28.911913 166.93002Q29.146288 167.7894 29.146288 168.6019Q29.146288 170.05502 28.271288 170.7894Q27.380663 171.52377 25.771288 171.52377L17.911913 171.52377L17.911913 173.83627L16.224413 173.83627L16.224413 171.52377L13.161914 171.52377L13.161914 169.36752ZM17.771288 162.13315Q15.990039 160.69565 15.990039 158.38315Q15.990039 154.36752 20.536913 154.33627L28.911913 154.33627L28.911913 156.49252L20.521288 156.49252Q19.146288 156.50815 18.490038 157.13315Q17.833788 157.74252 17.833788 159.0394Q17.833788 160.1019 18.396288 160.89877Q18.958788 161.69565 19.880663 162.13315L28.911913 162.13315L28.911913 164.30502L10.911914 164.30502L10.911914 162.13315L17.771288 162.13315ZM21.990038 145.38315Q19.333788 145.38315 16.896288 144.68002Q14.458789 143.96127 12.474414 142.55502Q10.474414 141.14877 9.661914 139.64877L11.083789 139.19565Q12.396289 140.9144 15.099414 142.00815Q17.786913 143.1019 21.130663 143.21127L22.130663 143.21127Q26.646288 143.21127 29.974413 141.57065Q31.974413 140.57065 33.099415 139.19565L34.42754 139.64877Q33.55254 141.19565 31.521288 142.61752Q27.521288 145.38315 21.990038 145.38315ZM11.849414 134.05502L25.771288 128.4769L11.849414 122.89877L11.849414 119.9769L28.911913 119.9769L28.911913 122.2269L22.271288 122.2269L15.099414 122.02377L28.911913 127.61752L28.911913 129.3519L15.130664 134.93002L22.271288 134.71127L28.911913 134.71127L28.911913 136.96127L11.849414 136.96127L11.849414 134.05502ZM28.911913 115.96127L11.849414 115.96127L11.849414 110.38315Q11.849414 107.6019 13.005664 106.21127Q14.146289 104.80502 16.396288 104.80502Q17.583788 104.80502 18.505663 105.49252Q19.427538 106.1644 19.927538 107.33627Q20.318163 105.96127 21.411913 105.1644Q22.490038 104.3519 23.990038 104.3519Q26.286913 104.3519 27.599413 105.83627Q28.911913 107.32065 28.911913 110.0394L28.911913 115.96127ZM20.927538 113.71127L27.068163 113.71127L27.068163 109.99252Q27.068163 108.43002 26.255663 107.52377Q25.443163 106.61752 24.005663 106.61752Q20.927538 106.61752 20.927538 109.96127L20.927538 113.71127ZM19.130663 113.71127L19.130663 110.32065Q19.130663 108.83627 18.396288 107.96127Q17.646288 107.07065 16.380663 107.07065Q14.974414 107.07065 14.333789 107.89877Q13.693164 108.71127 13.693164 110.38315L13.693164 113.71127L19.130663 113.71127ZM30.380663 100.86752L30.380663 102.7269L11.849414 95.6019L11.849414 93.75815L30.380663 100.86752ZM25.552538 83.9144Q24.661913 83.9144 24.177538 84.58627Q23.693163 85.24252 23.349413 86.89877Q22.990038 88.5394 22.505663 89.50815Q22.005663 90.4769 21.333788 90.94565Q20.646288 91.39877 19.708788 91.39877Q18.146288 91.39877 17.068163 90.08627Q15.990039 88.75815 15.990039 86.71127Q15.990039 84.55502 17.115038 83.21127Q18.224413 81.86752 19.958788 81.86752L19.958788 84.05502Q19.068163 84.05502 18.427538 84.80502Q17.771288 85.55502 17.771288 86.71127Q17.771288 87.89877 18.286913 88.57065Q18.802538 89.2269 19.646288 89.2269Q20.427538 89.2269 20.833788 88.61752Q21.224413 87.99252 21.583788 86.36752Q21.943163 84.74252 22.458788 83.74252Q22.958788 82.7269 23.677538 82.24252Q24.380663 81.75815 25.396288 81.75815Q27.099413 81.75815 28.130663 83.11752Q29.146288 84.4769 29.146288 86.63315Q29.146288 88.1644 28.615038 89.33627Q28.068163 90.50815 27.099413 91.18002Q26.130663 91.83627 25.005663 91.83627L25.005663 89.6644Q26.099413 89.6019 26.740038 88.7894Q27.380663 87.9769 27.380663 86.63315Q27.380663 85.4144 26.880663 84.6644Q26.380663 83.9144 25.552538 83.9144ZM22.099413 74.30504Q24.708788 74.30504 27.115038 74.99254Q29.505663 75.66441 31.536913 77.08629Q33.568165 78.49254 34.42754 80.03941L33.099415 80.49252Q31.708788 78.69566 28.802538 77.60191Q25.880663 76.50816 22.333788 76.47691L21.958788 76.47691Q19.505663 76.47691 17.396288 76.99254Q15.271289 77.50816 13.599414 78.43004Q11.911914 79.35191 10.974414 80.49252L9.661914 80.03941Q10.505664 78.49254 12.521289 77.10191Q14.521289 75.69566 16.943163 75.00816Q19.349413 74.30504 22.099413 74.30504Z" fill-rule="nonzero"/><path fill="#000000" d="M93.59375 311.4375Q93.59375 314.60938 92.515625 316.15625Q91.4375 317.70312 89.125 317.70312Q86.84375 317.70312 85.75 316.1875Q84.65625 314.67188 84.625 311.67188L84.625 309.26562Q84.625 306.125 85.703125 304.60938Q86.796875 303.07812 89.109375 303.07812Q91.40625 303.07812 92.484375 304.5625Q93.5625 306.03125 93.59375 309.09375L93.59375 311.4375ZM91.796875 308.96875Q91.796875 306.67188 91.140625 305.625Q90.5 304.5625 89.109375 304.5625Q87.71875 304.5625 87.078125 305.60938Q86.453125 306.65625 86.4375 308.82812L86.4375 311.71875Q86.4375 314.01562 87.09375 315.125Q87.765625 316.21875 89.125 316.21875Q90.46875 316.21875 91.109375 315.1875Q91.765625 314.15625 91.796875 311.92188L91.796875 308.96875Z" fill-rule="nonzero"/><path fill="#000000" d="M61.0 216.83333L51.6875 216.83333L51.6875 215.53645L56.609375 210.0677Q57.703125 208.8177 58.109375 208.05208Q58.53125 207.27083 58.53125 206.4427Q58.53125 205.33333 57.859375 204.61458Q57.1875 203.89583 56.0625 203.89583Q54.703125 203.89583 53.953125 204.67708Q53.21875 205.4427 53.21875 206.80208L51.40625 206.80208Q51.40625 204.83333 52.671875 203.6302Q53.9375 202.41145 56.0625 202.41145Q58.046875 202.41145 59.1875 203.45833Q60.34375 204.5052 60.34375 206.22395Q60.34375 208.33333 57.671875 211.22395L53.859375 215.36458L61.0 215.36458L61.0 216.83333ZM71.59375 210.77083Q71.59375 213.9427 70.515625 215.48958Q69.4375 217.03645 67.125 217.03645Q64.84375 217.03645 63.75 215.52083Q62.65625 214.0052 62.625 211.0052L62.625 208.59895Q62.625 205.45833 63.703125 203.9427Q64.796875 202.41145 67.109375 202.41145Q69.40625 202.41145 70.484375 203.89583Q71.5625 205.36458 71.59375 208.42708L71.59375 210.77083ZM69.796875 208.30208Q69.796875 206.0052 69.140625 204.95833Q68.5 203.89583 67.109375 203.89583Q65.71875 203.89583 65.078125 204.9427Q64.453125 205.98958 64.4375 208.16145L64.4375 211.05208Q64.4375 213.34895 65.09375 214.45833Q65.765625 215.55208 67.125 215.55208Q68.46875 215.55208 69.109375 214.52083Q69.765625 213.48958 69.796875 211.2552L69.796875 208.30208ZM82.59375 210.77083Q82.59375 213.9427 81.515625 215.48958Q80.4375 217.03645 78.125 217.03645Q75.84375 217.03645 74.75 215.52083Q73.65625 214.0052 73.625 211.0052L73.625 208.59895Q73.625 205.45833 74.703125 203.9427Q75.796875 202.41145 78.109375 202.41145Q80.40625 202.41145 81.484375 203.89583Q82.5625 205.36458 82.59375 208.42708L82.59375 210.77083ZM80.796875 208.30208Q80.796875 206.0052 80.140625 204.95833Q79.5 203.89583 78.109375 203.89583Q76.71875 203.89583 76.078125 204.9427Q75.453125 205.98958 75.4375 208.16145L75.4375 211.05208Q75.4375 213.34895 76.09375 214.45833Q76.765625 215.55208 78.125 215.55208Q79.46875 215.55208 80.109375 214.52083Q80.765625 213.48958 80.796875 211.2552L80.796875 208.30208ZM93.59375 210.77083Q93.59375 213.9427 92.515625 215.48958Q91.4375 217.03645 89.125 217.03645Q86.84375 217.03645 85.75 215.52083Q84.65625 214.0052 84.625 211.0052L84.625 208.59895Q84.625 205.45833 85.703125 203.9427Q86.796875 202.41145 89.109375 202.41145Q91.40625 202.41145 92.484375 203.89583Q93.5625 205.36458 93.59375 208.42708L93.59375 210.77083ZM91.796875 208.30208Q91.796875 206.0052 91.140625 204.95833Q90.5 203.89583 89.109375 203.89583Q87.71875 203.89583 87.078125 204.9427Q86.453125 205.98958 86.4375 208.16145L86.4375 211.05208Q86.4375 213.34895 87.09375 214.45833Q87.765625 215.55208 89.125 215.55208Q90.46875 215.55208 91.109375 214.52083Q91.765625 213.48958 91.796875 211.2552L91.796875 208.30208Z" fill-rule="nonzero"/><path fill="#000000" d="M59.3125 111.385414L61.28125 111.385414L61.28125 112.86979L59.3125 112.86979L59.3125 116.166664L57.5 116.166664L57.5 112.86979L51.015625 112.86979L51.015625 111.80729L57.390625 101.947914L59.3125 101.947914L59.3125 111.385414ZM53.0625 111.385414L57.5 111.385414L57.5 104.416664L57.28125 104.80729L53.0625 111.385414ZM71.59375 110.104164Q71.59375 113.27604 70.515625 114.822914Q69.4375 116.36979 67.125 116.36979Q64.84375 116.36979 63.75 114.854164Q62.65625 113.33854 62.625 110.33854L62.625 107.93229Q62.625 104.791664 63.703125 103.27604Q64.796875 101.74479 67.109375 101.74479Q69.40625 101.74479 70.484375 103.229164Q71.5625 104.697914 71.59375 107.760414L71.59375 110.104164ZM69.796875 107.635414Q69.796875 105.33854 69.140625 104.291664Q68.5 103.229164 67.109375 103.229164Q65.71875 103.229164 65.078125 104.27604Q64.453125 105.322914 64.4375 107.49479L64.4375 110.385414Q64.4375 112.68229 65.09375 113.791664Q65.765625 114.885414 67.125 114.885414Q68.46875 114.885414 69.109375 113.854164Q69.765625 112.822914 69.796875 110.58854L69.796875 107.635414ZM82.59375 110.104164Q82.59375 113.27604 81.515625 114.822914Q80.4375 116.36979 78.125 116.36979Q75.84375 116.36979 74.75 114.854164Q73.65625 113.33854 73.625 110.33854L73.625 107.93229Q73.625 104.791664 74.703125 103.27604Q75.796875 101.74479 78.109375 101.74479Q80.40625 101.74479 81.484375 103.229164Q82.5625 104.697914 82.59375 107.760414L82.59375 110.104164ZM80.796875 107.635414Q80.796875 105.33854 80.140625 104.291664Q79.5 103.229164 78.109375 103.229164Q76.71875 103.229164 76.078125 104.27604Q75.453125 105.322914 75.4375 107.49479L75.4375 110.385414Q75.4375 112.68229 76.09375 113.791664Q76.765625 114.885414 78.125 114.885414Q79.46875 114.885414 80.109375 113.854164Q80.765625 112.822914 80.796875 110.58854L80.796875 107.635414ZM93.59375 110.104164Q93.59375 113.27604 92.515625 114.822914Q91.4375 116.36979 89.125 116.36979Q86.84375 116.36979 85.75 114.854164Q84.65625 113.33854 84.625 110.33854L84.625 107.93229Q84.625 104.791664 85.703125 103.27604Q86.796875 101.74479 89.109375 101.74479Q91.40625 101.74479 92.484375 103.229164Q93.5625 104.697914 93.59375 107.760414L93.59375 110.104164ZM91.796875 107.635414Q91.796875 105.33854 91.140625 104.291664Q90.5 103.229164 89.109375 103.229164Q87.71875 103.229164 87.078125 104.27604Q86.453125 105.322914 86.4375 107.49479L86.4375 110.385414Q86.4375 112.68229 87.09375 113.791664Q87.765625 114.885414 89.125 114.885414Q90.46875 114.885414 91.109375 113.854164Q91.765625 112.822914 91.796875 110.58854L91.796875 107.635414Z" fill-rule="nonzero"/><path fill="#000000" d="M58.765625 1.265625L58.765625 2.796875L58.4375 2.796875Q56.328125 2.84375 55.078125 4.0625Q53.828125 5.265625 53.640625 7.46875Q54.765625 6.171875 56.703125 6.171875Q58.5625 6.171875 59.671875 7.484375Q60.78125 8.796875 60.78125 10.859375Q60.78125 13.0625 59.578125 14.390625Q58.375 15.703125 56.375 15.703125Q54.328125 15.703125 53.0625 14.140625Q51.796875 12.5625 51.796875 10.09375L51.796875 9.390625Q51.796875 5.46875 53.46875 3.390625Q55.140625 1.3125 58.453125 1.265625L58.765625 1.265625ZM56.40625 7.671875Q55.46875 7.671875 54.6875 8.234375Q53.90625 8.796875 53.609375 9.625L53.609375 10.296875Q53.609375 12.046875 54.390625 13.125Q55.1875 14.203125 56.375 14.203125Q57.59375 14.203125 58.28125 13.3125Q58.984375 12.40625 58.984375 10.953125Q58.984375 9.484375 58.28125 8.578125Q57.578125 7.671875 56.40625 7.671875ZM71.59375 9.4375Q71.59375 12.609375 70.515625 14.15625Q69.4375 15.703125 67.125 15.703125Q64.84375 15.703125 63.75 14.1875Q62.65625 12.671875 62.625 9.671875L62.625 7.265625Q62.625 4.125 63.703125 2.609375Q64.796875 1.078125 67.109375 1.078125Q69.40625 1.078125 70.484375 2.5625Q71.5625 4.03125 71.59375 7.09375L71.59375 9.4375ZM69.796875 6.96875Q69.796875 4.671875 69.140625 3.625Q68.5 2.5625 67.109375 2.5625Q65.71875 2.5625 65.078125 3.609375Q64.453125 4.65625 64.4375 6.828125L64.4375 9.71875Q64.4375 12.015625 65.09375 13.125Q65.765625 14.21875 67.125 14.21875Q68.46875 14.21875 69.109375 13.1875Q69.765625 12.15625 69.796875 9.921875L69.796875 6.96875ZM82.59375 9.4375Q82.59375 12.609375 81.515625 14.15625Q80.4375 15.703125 78.125 15.703125Q75.84375 15.703125 74.75 14.1875Q73.65625 12.671875 73.625 9.671875L73.625 7.265625Q73.625 4.125 74.703125 2.609375Q75.796875 1.078125 78.109375 1.078125Q80.40625 1.078125 81.484375 2.5625Q82.5625 4.03125 82.59375 7.09375L82.59375 9.4375ZM80.796875 6.96875Q80.796875 4.671875 80.140625 3.625Q79.5 2.5625 78.109375 2.5625Q76.71875 2.5625 76.078125 3.609375Q75.453125 4.65625 75.4375 6.828125L75.4375 9.71875Q75.4375 12.015625 76.09375 13.125Q76.765625 14.21875 78.125 14.21875Q79.46875 14.21875 80.109375 13.1875Q80.765625 12.15625 80.796875 9.921875L80.796875 6.96875ZM93.59375 9.4375Q93.59375 12.609375 92.515625 14.15625Q91.4375 15.703125 89.125 15.703125Q86.84375 15.703125 85.75 14.1875Q84.65625 12.671875 84.625 9.671875L84.625 7.265625Q84.625 4.125 85.703125 2.609375Q86.796875 1.078125 89.109375 1.078125Q91.40625 1.078125 92.484375 2.5625Q93.5625 4.03125 93.59375 7.09375L93.59375 9.4375ZM91.796875 6.96875Q91.796875 4.671875 91.140625 3.625Q90.5 2.5625 89.109375 2.5625Q87.71875 2.5625 87.078125 3.609375Q86.453125 4.65625 86.4375 6.828125L86.4375 9.71875Q86.4375 12.015625 87.09375 13.125Q87.765625 14.21875 89.125 14.21875Q90.46875 14.21875 91.109375 13.1875Q91.765625 12.15625 91.796875 9.921875L91.796875 6.96875Z" fill-rule="nonzero"/><path fill="#000000" d="M132.3125 334.71875L134.28125 334.71875L134.28125 336.20312L132.3125 336.20312L132.3125 339.5L130.5 339.5L130.5 336.20312L124.015625 336.20312L124.015625 335.14062L130.39062 325.28125L132.3125 325.28125L132.3125 334.71875ZM126.0625 334.71875L130.5 334.71875L130.5 327.75L130.28125 328.14062L126.0625 334.71875Z" fill-rule="nonzero"/><path fill="#000000" d="M182.3125 328.98438Q182.3125 330.0625 181.75 330.89062Q181.1875 331.71875 180.21875 332.1875Q181.34375 332.65625 181.98438 333.57812Q182.64062 334.5 182.64062 335.65625Q182.64062 337.5 181.39062 338.60938Q180.14062 339.70312 178.10938 339.70312Q176.0625 339.70312 174.82812 338.60938Q173.59375 337.5 173.59375 335.65625Q173.59375 334.51562 174.21875 333.59375Q174.85938 332.65625 175.96875 332.17188Q175.01562 331.70312 174.46875 330.875Q173.92188 330.04688 173.92188 328.98438Q173.92188 327.1875 175.07812 326.14062Q176.23438 325.07812 178.10938 325.07812Q179.98438 325.07812 181.14062 326.14062Q182.3125 327.1875 182.3125 328.98438ZM180.82812 335.625Q180.82812 334.4375 180.0625 333.6875Q179.3125 332.92188 178.09375 332.92188Q176.875 332.92188 176.14062 333.67188Q175.40625 334.40625 175.40625 335.625Q175.40625 336.82812 176.125 337.53125Q176.84375 338.21875 178.10938 338.21875Q179.39062 338.21875 180.10938 337.53125Q180.82812 336.82812 180.82812 335.625ZM178.10938 326.5625Q177.04688 326.5625 176.39062 327.23438Q175.73438 327.89062 175.73438 329.01562Q175.73438 330.10938 176.375 330.78125Q177.03125 331.4375 178.10938 331.4375Q179.20312 331.4375 179.84375 330.78125Q180.5 330.10938 180.5 329.03125Q180.5 327.9375 179.82812 327.25Q179.15625 326.5625 178.10938 326.5625Z" fill-rule="nonzero"/><path fill="#000000" d="M223.125 339.5L221.29688 339.5L221.29688 327.45312L217.65625 328.79688L217.65625 327.15625L222.84375 325.21875L223.125 325.21875L223.125 339.5ZM237.5 339.5L228.1875 339.5L228.1875 338.20312L233.10938 332.73438Q234.20312 331.48438 234.60938 330.71875Q235.03125 329.9375 235.03125 329.10938Q235.03125 328.0 234.35938 327.28125Q233.6875 326.5625 232.5625 326.5625Q231.20312 326.5625 230.45312 327.34375Q229.71875 328.10938 229.71875 329.46875L227.90625 329.46875Q227.90625 327.5 229.17188 326.29688Q230.4375 325.07812 232.5625 325.07812Q234.54688 325.07812 235.6875 326.125Q236.84375 327.17188 236.84375 328.89062Q236.84375 331.0 234.17188 333.89062L230.35938 338.03125L237.5 338.03125L237.5 339.5Z" fill-rule="nonzero"/><path fill="#000000" d="M272.125 339.5L270.29688 339.5L270.29688 327.45312L266.65625 328.79688L266.65625 327.15625L271.84375 325.21875L272.125 325.21875L272.125 339.5ZM284.26562 325.26562L284.26562 326.79688L283.9375 326.79688Q281.82812 326.84375 280.57812 328.0625Q279.32812 329.26562 279.14062 331.46875Q280.26562 330.17188 282.20312 330.17188Q284.0625 330.17188 285.17188 331.48438Q286.28125 332.79688 286.28125 334.85938Q286.28125 337.0625 285.07812 338.39062Q283.875 339.70312 281.875 339.70312Q279.82812 339.70312 278.5625 338.14062Q277.29688 336.5625 277.29688 334.09375L277.29688 333.39062Q277.29688 329.46875 278.96875 327.39062Q280.64062 325.3125 283.95312 325.26562L284.26562 325.26562ZM281.90625 331.67188Q280.96875 331.67188 280.1875 332.23438Q279.40625 332.79688 279.10938 333.625L279.10938 334.29688Q279.10938 336.04688 279.89062 337.125Q280.6875 338.20312 281.875 338.20312Q283.09375 338.20312 283.78125 337.3125Q284.48438 336.40625 284.48438 334.95312Q284.48438 333.48438 283.78125 332.57812Q283.07812 331.67188 281.90625 331.67188Z" fill-rule="nonzero"/><path fill="#000000" d="M324.5 339.5L315.1875 339.5L315.1875 338.20312L320.10938 332.73438Q321.20312 331.48438 321.60938 330.71875Q322.03125 329.9375 322.03125 329.10938Q322.03125 328.0 321.35938 327.28125Q320.6875 326.5625 319.5625 326.5625Q318.20312 326.5625 317.45312 327.34375Q316.71875 328.10938 316.71875 329.46875L314.90625 329.46875Q314.90625 327.5 316.17188 326.29688Q317.4375 325.07812 319.5625 325.07812Q321.54688 325.07812 322.6875 326.125Q323.84375 327.17188 323.84375 328.89062Q323.84375 331.0 321.17188 333.89062L317.35938 338.03125L324.5 338.03125L324.5 339.5ZM335.09375 333.4375Q335.09375 336.60938 334.01562 338.15625Q332.9375 339.70312 330.625 339.70312Q328.34375 339.70312 327.25 338.1875Q326.15625 336.67188 326.125 333.67188L326.125 331.26562Q326.125 328.125 327.20312 326.60938Q328.29688 325.07812 330.60938 325.07812Q332.90625 325.07812 333.98438 326.5625Q335.0625 328.03125 335.09375 331.09375L335.09375 333.4375ZM333.29688 330.96875Q333.29688 328.67188 332.64062 327.625Q332.0 326.5625 330.60938 326.5625Q329.21875 326.5625 328.57812 327.60938Q327.95312 328.65625 327.9375 330.82812L327.9375 333.71875Q327.9375 336.01562 328.59375 337.125Q329.26562 338.21875 330.625 338.21875Q331.96875 338.21875 332.60938 337.1875Q333.26562 336.15625 333.29688 333.92188L333.29688 330.96875Z" fill-rule="nonzero"/><path fill="#000000" d="M373.5 339.5L364.1875 339.5L364.1875 338.20312L369.10938 332.73438Q370.20312 331.48438 370.60938 330.71875Q371.03125 329.9375 371.03125 329.10938Q371.03125 328.0 370.35938 327.28125Q369.6875 326.5625 368.5625 326.5625Q367.20312 326.5625 366.45312 327.34375Q365.71875 328.10938 365.71875 329.46875L363.90625 329.46875Q363.90625 327.5 365.17188 326.29688Q366.4375 325.07812 368.5625 325.07812Q370.54688 325.07812 371.6875 326.125Q372.84375 327.17188 372.84375 328.89062Q372.84375 331.0 370.17188 333.89062L366.35938 338.03125L373.5 338.03125L373.5 339.5ZM382.8125 334.71875L384.78125 334.71875L384.78125 336.20312L382.8125 336.20312L382.8125 339.5L381.0 339.5L381.0 336.20312L374.51562 336.20312L374.51562 335.14062L380.89062 325.28125L382.8125 325.28125L382.8125 334.71875ZM376.5625 334.71875L381.0 334.71875L381.0 327.75L380.78125 328.14062L376.5625 334.71875Z" fill-rule="nonzero"/><path fill="#000000" d="M422.5 339.5L413.1875 339.5L413.1875 338.20312L418.10938 332.73438Q419.20312 331.48438 419.60938 330.71875Q420.03125 329.9375 420.03125 329.10938Q420.03125 328.0 419.35938 327.28125Q418.6875 326.5625 417.5625 326.5625Q416.20312 326.5625 415.45312 327.34375Q414.71875 328.10938 414.71875 329.46875L412.90625 329.46875Q412.90625 327.5 414.17188 326.29688Q415.4375 325.07812 417.5625 325.07812Q419.54688 325.07812 420.6875 326.125Q421.84375 327.17188 421.84375 328.89062Q421.84375 331.0 419.17188 333.89062L415.35938 338.03125L422.5 338.03125L422.5 339.5ZM432.8125 328.98438Q432.8125 330.0625 432.25 330.89062Q431.6875 331.71875 430.71875 332.1875Q431.84375 332.65625 432.48438 333.57812Q433.14062 334.5 433.14062 335.65625Q433.14062 337.5 431.89062 338.60938Q430.64062 339.70312 428.60938 339.70312Q426.5625 339.70312 425.32812 338.60938Q424.09375 337.5 424.09375 335.65625Q424.09375 334.51562 424.71875 333.59375Q425.35938 332.65625 426.46875 332.17188Q425.51562 331.70312 424.96875 330.875Q424.42188 330.04688 424.42188 328.98438Q424.42188 327.1875 425.57812 326.14062Q426.73438 325.07812 428.60938 325.07812Q430.48438 325.07812 431.64062 326.14062Q432.8125 327.1875 432.8125 328.98438ZM431.32812 335.625Q431.32812 334.4375 430.5625 333.6875Q429.8125 332.92188 428.59375 332.92188Q427.375 332.92188 426.64062 333.67188Q425.90625 334.40625 425.90625 335.625Q425.90625 336.82812 426.625 337.53125Q427.34375 338.21875 428.60938 338.21875Q429.89062 338.21875 430.60938 337.53125Q431.32812 336.82812 431.32812 335.625ZM428.60938 326.5625Q427.54688 326.5625 426.89062 327.23438Q426.23438 327.89062 426.23438 329.01562Q426.23438 330.10938 426.875 330.78125Q427.53125 331.4375 428.60938 331.4375Q429.70312 331.4375 430.34375 330.78125Q431.0 330.10938 431.0 329.03125Q431.0 327.9375 430.32812 327.25Q429.65625 326.5625 428.60938 326.5625Z" fill-rule="nonzero"/><path fill="#000000" d="M464.8125 331.51562L466.17188 331.51562Q467.45312 331.48438 468.17188 330.84375Q468.90625 330.1875 468.90625 329.0625Q468.90625 326.5625 466.42188 326.5625Q465.25 326.5625 464.54688 327.23438Q463.85938 327.90625 463.85938 329.01562L462.04688 329.01562Q462.04688 327.32812 463.28125 326.20312Q464.51562 325.07812 466.42188 325.07812Q468.4375 325.07812 469.57812 326.15625Q470.71875 327.21875 470.71875 329.10938Q470.71875 330.03125 470.10938 330.90625Q469.51562 331.78125 468.48438 332.20312Q469.65625 332.57812 470.29688 333.4375Q470.9375 334.29688 470.9375 335.53125Q470.9375 337.45312 469.6875 338.57812Q468.4375 339.70312 466.42188 339.70312Q464.42188 339.70312 463.17188 338.625Q461.92188 337.53125 461.92188 335.75L463.73438 335.75Q463.73438 336.875 464.46875 337.54688Q465.20312 338.21875 466.4375 338.21875Q467.73438 338.21875 468.42188 337.54688Q469.125 336.85938 469.125 335.57812Q469.125 334.32812 468.35938 333.67188Q467.60938 333.0 466.17188 332.98438L464.8125 332.98438L464.8125 331.51562ZM482.5 339.5L473.1875 339.5L473.1875 338.20312L478.10938 332.73438Q479.20312 331.48438 479.60938 330.71875Q480.03125 329.9375 480.03125 329.10938Q480.03125 328.0 479.35938 327.28125Q478.6875 326.5625 477.5625 326.5625Q476.20312 326.5625 475.45312 327.34375Q474.71875 328.10938 474.71875 329.46875L472.90625 329.46875Q472.90625 327.5 474.17188 326.29688Q475.4375 325.07812 477.5625 325.07812Q479.54688 325.07812 480.6875 326.125Q481.84375 327.17188 481.84375 328.89062Q481.84375 331.0 479.17188 333.89062L475.35938 338.03125L482.5 338.03125L482.5 339.5Z" fill-rule="nonzero"/><path fill="#000000" d="M513.8125 331.51562L515.1719 331.51562Q516.4531 331.48438 517.1719 330.84375Q517.90625 330.1875 517.90625 329.0625Q517.90625 326.5625 515.4219 326.5625Q514.25 326.5625 513.5469 327.23438Q512.8594 327.90625 512.8594 329.01562L511.04688 329.01562Q511.04688 327.32812 512.28125 326.20312Q513.5156 325.07812 515.4219 325.07812Q517.4375 325.07812 518.5781 326.15625Q519.71875 327.21875 519.71875 329.10938Q519.71875 330.03125 519.1094 330.90625Q518.5156 331.78125 517.4844 332.20312Q518.65625 332.57812 519.2969 333.4375Q519.9375 334.29688 519.9375 335.53125Q519.9375 337.45312 518.6875 338.57812Q517.4375 339.70312 515.4219 339.70312Q513.4219 339.70312 512.1719 338.625Q510.92188 337.53125 510.92188 335.75L512.7344 335.75Q512.7344 336.875 513.46875 337.54688Q514.2031 338.21875 515.4375 338.21875Q516.7344 338.21875 517.4219 337.54688Q518.125 336.85938 518.125 335.57812Q518.125 334.32812 517.3594 333.67188Q516.6094 333.0 515.1719 332.98438L513.8125 332.98438L513.8125 331.51562ZM529.2656 325.26562L529.2656 326.79688L528.9375 326.79688Q526.8281 326.84375 525.5781 328.0625Q524.3281 329.26562 524.1406 331.46875Q525.2656 330.17188 527.2031 330.17188Q529.0625 330.17188 530.1719 331.48438Q531.28125 332.79688 531.28125 334.85938Q531.28125 337.0625 530.0781 338.39062Q528.875 339.70312 526.875 339.70312Q524.8281 339.70312 523.5625 338.14062Q522.2969 336.5625 522.2969 334.09375L522.2969 333.39062Q522.2969 329.46875 523.96875 327.39062Q525.6406 325.3125 528.9531 325.26562L529.2656 325.26562ZM526.90625 331.67188Q525.96875 331.67188 525.1875 332.23438Q524.40625 332.79688 524.1094 333.625L524.1094 334.29688Q524.1094 336.04688 524.8906 337.125Q525.6875 338.20312 526.875 338.20312Q528.09375 338.20312 528.78125 337.3125Q529.4844 336.40625 529.4844 334.95312Q529.4844 333.48438 528.78125 332.57812Q528.0781 331.67188 526.90625 331.67188Z" fill-rule="nonzero"/><path fill="#000000" d="M567.8125 334.71875L569.78125 334.71875L569.78125 336.20312L567.8125 336.20312L567.8125 339.5L566.0 339.5L566.0 336.20312L559.5156 336.20312L559.5156 335.14062L565.8906 325.28125L567.8125 325.28125L567.8125 334.71875ZM561.5625 334.71875L566.0 334.71875L566.0 327.75L565.78125 328.14062L561.5625 334.71875ZM580.09375 333.4375Q580.09375 336.60938 579.0156 338.15625Q577.9375 339.70312 575.625 339.70312Q573.34375 339.70312 572.25 338.1875Q571.15625 336.67188 571.125 333.67188L571.125 331.26562Q571.125 328.125 572.2031 326.60938Q573.2969 325.07812 575.6094 325.07812Q577.90625 325.07812 578.9844 326.5625Q580.0625 328.03125 580.09375 331.09375L580.09375 333.4375ZM578.2969 330.96875Q578.2969 328.67188 577.6406 327.625Q577.0 326.5625 575.6094 326.5625Q574.21875 326.5625 573.5781 327.60938Q572.9531 328.65625 572.9375 330.82812L572.9375 333.71875Q572.9375 336.01562 573.59375 337.125Q574.2656 338.21875 575.625 338.21875Q576.96875 338.21875 577.6094 337.1875Q578.2656 336.15625 578.2969 333.92188L578.2969 330.96875Z" fill-rule="nonzero"/></svg>