<svg version="1.1" viewBox="0.0 0.0 479.0 296.0" fill="none" stroke="none" stroke-linecap="square" stroke-miterlimit="10" width="479" height="296" xmlns:xlink="http://www.w3.org/1999/xlink" xmlns="http://www.w3.org/2000/svg"><path fill="#ffffff" d="M0 0L479.0 0L479.0 296.0L0 296.0L0 0Z" fill-rule="nonzero"/><path stroke="#333333" stroke-width="1.0" stroke-linecap="butt" d="M73.5 229.5L464.5 229.5" fill-rule="nonzero"/><path stroke="#cccccc" stroke-width="1.0" stroke-linecap="butt" d="M73.5 187.5L464.5 187.5" fill-rule="nonzero"/><path stroke="#cccccc" stroke-width="1.0" stroke-linecap="butt" d="M73.5 146.5L464.5 146.5" fill-rule="nonzero"/><path stroke="#cccccc" stroke-width="1.0" stroke-linecap="butt" d="M73.5 104.5L464.5 104.5" fill-rule="nonzero"/><path stroke="#cccccc" stroke-width="1.0" stroke-linecap="butt" d="M73.5 63.5L464.5 63.5" fill-rule="nonzero"/><path stroke="#cccccc" stroke-width="1.0" stroke-linecap="butt" d="M73.5 21.5L464.5 21.5" fill-rule="nonzero"/><clipPath id="id_0"><path d="M73.8 21.8L464.2 21.8L464.2 229.2L73.8 229.2L73.8 21.8Z" clip-rule="nonzero"/></clipPath><path stroke="#000000" stroke-width="2.0" stroke-linecap="butt" stroke-opacity="0.0" clip-path="url(#id_0)" d="M128.0 229.0L93.0 229.0L93.0 74.0C93.0 72.89543 93.89543 72.0 95.0 72.0L126.0 72.0C127.10457 72.0 128.0 72.89543 128.0 74.0Z" fill-rule="nonzero"/><path fill="#4285f4" clip-path="url(#id_0)" d="M128.0 229.0L93.0 229.0L93.0 74.0C93.0 72.89543 93.89543 72.0 95.0 72.0L126.0 72.0C127.10457 72.0 128.0 72.89543 128.0 74.0Z" fill-rule="nonzero"/><path stroke="#000000" stroke-width="2.0" stroke-linecap="butt" stroke-opacity="0.0" clip-path="url(#id_0)" d="M181.0 229.0L146.0 229.0L146.0 62.0C146.0 60.89543 146.89543 60.0 148.0 60.0L179.0 60.0C180.10457 60.0 181.0 60.89543 181.0 62.0Z" fill-rule="nonzero"/><path fill="#4285f4" clip-path="url(#id_0)" d="M181.0 229.0L146.0 229.0L146.0 62.0C146.0 60.89543 146.89543 60.0 148.0 60.0L179.0 60.0C180.10457 60.0 181.0 60.89543 181.0 62.0Z" fill-rule="nonzero"/><path stroke="#000000" stroke-width="2.0" stroke-linecap="butt" stroke-opacity="0.0" clip-path="url(#id_0)" d="M234.0 229.0L199.0 229.0L199.0 67.0C199.0 65.89543 199.89543 65.0 201.0 65.0L232.0 65.0C233.10457 65.0 234.0 65.89543 234.0 67.0Z" fill-rule="nonzero"/><path fill="#4285f4" clip-path="url(#id_0)" d="M234.0 229.0L199.0 229.0L199.0 67.0C199.0 65.89543 199.89543 65.0 201.0 65.0L232.0 65.0C233.10457 65.0 234.0 65.89543 234.0 67.0Z" fill-rule="nonzero"/><path stroke="#000000" stroke-width="2.0" stroke-linecap="butt" stroke-opacity="0.0" clip-path="url(#id_0)" d="M287.0 229.0L252.0 229.0L252.0 83.0C252.0 81.89543 252.89543 81.0 254.0 81.0L285.0 81.0C286.10458 81.0 287.0 81.89543 287.0 83.0Z" fill-rule="nonzero"/><path fill="#4285f4" clip-path="url(#id_0)" d="M287.0 229.0L252.0 229.0L252.0 83.0C252.0 81.89543 252.89543 81.0 254.0 81.0L285.0 81.0C286.10458 81.0 287.0 81.89543 287.0 83.0Z" fill-rule="nonzero"/><path stroke="#000000" stroke-width="2.0" stroke-linecap="butt" stroke-opacity="0.0" clip-path="url(#id_0)" d="M340.0 229.0L305.0 229.0L305.0 104.0C305.0 102.89543 305.89542 102.0 307.0 102.0L338.0 102.0C339.10458 102.0 340.0 102.89543 340.0 104.0Z" fill-rule="nonzero"/><path fill="#4285f4" clip-path="url(#id_0)" d="M340.0 229.0L305.0 229.0L305.0 104.0C305.0 102.89543 305.89542 102.0 307.0 102.0L338.0 102.0C339.10458 102.0 340.0 102.89543 340.0 104.0Z" fill-rule="nonzero"/><path stroke="#000000" stroke-width="2.0" stroke-linecap="butt" stroke-opacity="0.0" clip-path="url(#id_0)" d="M393.0 229.0L358.0 229.0L358.0 130.0C358.0 128.89543 358.89542 128.0 360.0 128.0L391.0 128.0C392.10458 128.0 393.0 128.89543 393.0 130.0Z" fill-rule="nonzero"/><path fill="#4285f4" clip-path="url(#id_0)" d="M393.0 229.0L358.0 229.0L358.0 130.0C358.0 128.89543 358.89542 128.0 360.0 128.0L391.0 128.0C392.10458 128.0 393.0 128.89543 393.0 130.0Z" fill-rule="nonzero"/><path stroke="#000000" stroke-width="2.0" stroke-linecap="butt" stroke-opacity="0.0" clip-path="url(#id_0)" d="M446.0 229.0L411.0 229.0L411.0 165.0C411.0 163.89543 411.89542 163.0 413.0 163.0L444.0 163.0C445.10458 163.0 446.0 163.89543 446.0 165.0Z" fill-rule="nonzero"/><path fill="#4285f4" clip-path="url(#id_0)" d="M446.0 229.0L411.0 229.0L411.0 165.0C411.0 163.89543 411.89542 163.0 413.0 163.0L444.0 163.0C445.10458 163.0 446.0 163.89543 446.0 165.0Z" fill-rule="nonzero"/><path fill="#000000" d="M192.5625 275.1844L193.6875 275.48126Q193.32812 276.8719 192.40625 277.60626Q191.48438 278.34064 190.14062 278.34064Q188.75 278.34064 187.875 277.77814Q187.0 277.21564 186.54688 276.15314Q186.09375 275.075 186.09375 273.84064Q186.09375 272.4969 186.60938 271.4969Q187.125 270.4969 188.0625 269.98126Q189.01562 269.46564 190.15625 269.46564Q191.4375 269.46564 192.3125 270.1219Q193.20312 270.77814 193.54688 271.96564L192.42188 272.23126Q192.125 271.29376 191.54688 270.8719Q190.98438 270.4344 190.125 270.4344Q189.14062 270.4344 188.46875 270.91876Q187.8125 271.3875 187.53125 272.1844Q187.26562 272.98126 187.26562 273.84064Q187.26562 274.9344 187.57812 275.7469Q187.90625 276.5594 188.57812 276.96564Q189.25 277.3719 190.04688 277.3719Q191.0 277.3719 191.65625 276.825Q192.32812 276.27814 192.5625 275.1844ZM194.90625 275.09064Q194.90625 273.35626 195.85938 272.52814Q196.65625 271.84064 197.8125 271.84064Q199.09375 271.84064 199.90625 272.6844Q200.73438 273.5125 200.73438 274.9969Q200.73438 276.2 200.375 276.8875Q200.01562 277.575 199.3125 277.96564Q198.625 278.34064 197.8125 278.34064Q196.51562 278.34064 195.70312 277.5125Q194.90625 276.66876 194.90625 275.09064ZM195.98438 275.09064Q195.98438 276.27814 196.5 276.8719Q197.03125 277.46564 197.8125 277.46564Q198.60938 277.46564 199.125 276.8719Q199.64062 276.27814 199.64062 275.0594Q199.64062 273.90314 199.10938 273.3094Q198.59375 272.71564 197.8125 272.71564Q197.03125 272.71564 196.5 273.3094Q195.98438 273.8875 195.98438 275.09064ZM206.375 278.2L206.375 277.27814Q205.64062 278.34064 204.39062 278.34064Q203.84375 278.34064 203.35938 278.1375Q202.89062 277.91876 202.65625 277.60626Q202.42188 277.27814 202.32812 276.8094Q202.26562 276.5125 202.26562 275.825L202.26562 271.98126L203.32812 271.98126L203.32812 275.4344Q203.32812 276.2469 203.39062 276.54376Q203.48438 276.95 203.79688 277.2Q204.125 277.4344 204.60938 277.4344Q205.07812 277.4344 205.48438 277.2Q205.90625 276.95 206.07812 276.52814Q206.26562 276.10626 206.26562 275.3094L206.26562 271.98126L207.3125 271.98126L207.3125 278.2L206.375 278.2ZM209.29688 278.2L209.29688 271.98126L210.23438 271.98126L210.23438 272.85626Q210.92188 271.84064 212.21875 271.84064Q212.78125 271.84064 213.25 272.04376Q213.73438 272.2469 213.96875 272.575Q214.20312 272.90314 214.29688 273.34064Q214.34375 273.6375 214.34375 274.3719L214.34375 278.2L213.29688 278.2L213.29688 274.41876Q213.29688 273.7625 213.17188 273.45Q213.04688 273.1375 212.73438 272.95Q212.42188 272.7469 212.0 272.7469Q211.32812 272.7469 210.82812 273.1844Q210.34375 273.60626 210.34375 274.79376L210.34375 278.2L209.29688 278.2ZM218.59375 277.2625L218.75 278.1844Q218.29688 278.27814 217.95312 278.27814Q217.375 278.27814 217.0625 278.10626Q216.75 277.91876 216.60938 277.6219Q216.48438 277.325 216.48438 276.3719L216.48438 272.79376L215.71875 272.79376L215.71875 271.98126L216.48438 271.98126L216.48438 270.4344L217.53125 269.8094L217.53125 271.98126L218.59375 271.98126L218.59375 272.79376L217.53125 272.79376L217.53125 276.4344Q217.53125 276.8875 217.57812 277.0125Q217.64062 277.1375 217.76562 277.21564Q217.89062 277.29376 218.125 277.29376Q218.3125 277.29376 218.59375 277.2625ZM224.3125 280.73126Q223.4375 279.6219 222.82812 278.15314Q222.23438 276.66876 222.23438 275.09064Q222.23438 273.7 222.67188 272.41876Q223.20312 270.9344 224.3125 269.46564L225.0625 269.46564Q224.35938 270.6844 224.125 271.2Q223.76562 272.0125 223.5625 272.8875Q223.3125 273.98126 223.3125 275.09064Q223.3125 277.91876 225.0625 280.73126L224.3125 280.73126ZM228.60938 278.2L228.60938 270.6219L225.78125 270.6219L225.78125 269.60626L232.59375 269.60626L232.59375 270.6219L229.75 270.6219L229.75 278.2L228.60938 278.2ZM233.29688 278.2L233.29688 269.60626L234.34375 269.60626L234.34375 272.6844Q235.07812 271.84064 236.20312 271.84064Q236.90625 271.84064 237.40625 272.1219Q237.92188 272.3875 238.14062 272.8719Q238.35938 273.34064 238.35938 274.2625L238.35938 278.2L237.3125 278.2L237.3125 274.2625Q237.3125 273.46564 236.96875 273.10626Q236.625 272.7469 236.0 272.7469Q235.53125 272.7469 235.10938 272.9969Q234.70312 273.23126 234.51562 273.65314Q234.34375 274.0594 234.34375 274.79376L234.34375 278.2L233.29688 278.2ZM239.90625 275.09064Q239.90625 273.35626 240.85938 272.52814Q241.65625 271.84064 242.8125 271.84064Q244.09375 271.84064 244.90625 272.6844Q245.73438 273.5125 245.73438 274.9969Q245.73438 276.2 245.375 276.8875Q245.01562 277.575 244.3125 277.96564Q243.625 278.34064 242.8125 278.34064Q241.51562 278.34064 240.70312 277.5125Q239.90625 276.66876 239.90625 275.09064ZM240.98438 275.09064Q240.98438 276.27814 241.5 276.8719Q242.03125 277.46564 242.8125 277.46564Q243.60938 277.46564 244.125 276.8719Q244.64062 276.27814 244.64062 275.0594Q244.64062 273.90314 244.10938 273.3094Q243.59375 272.71564 242.8125 272.71564Q242.03125 272.71564 241.5 273.3094Q240.98438 273.8875 240.98438 275.09064ZM251.375 278.2L251.375 277.27814Q250.64062 278.34064 249.39062 278.34064Q248.84375 278.34064 248.35938 278.1375Q247.89062 277.91876 247.65625 277.60626Q247.42188 277.27814 247.32812 276.8094Q247.26562 276.5125 247.26562 275.825L247.26562 271.98126L248.32812 271.98126L248.32812 275.4344Q248.32812 276.2469 248.39062 276.54376Q248.48438 276.95 248.79688 277.2Q249.125 277.4344 249.60938 277.4344Q250.07812 277.4344 250.48438 277.2Q250.90625 276.95 251.07812 276.52814Q251.26562 276.10626 251.26562 275.3094L251.26562 271.98126L252.3125 271.98126L252.3125 278.2L251.375 278.2ZM253.875 276.34064L254.90625 276.1844Q255.0 276.8094 255.39062 277.1375Q255.79688 277.46564 256.53125 277.46564Q257.25 277.46564 257.59375 277.1844Q257.95312 276.8875 257.95312 276.48126Q257.95312 276.1219 257.64062 275.91876Q257.42188 275.77814 256.5625 275.5594Q255.40625 275.2625 254.95312 275.0594Q254.51562 274.84064 254.28125 274.46564Q254.04688 274.09064 254.04688 273.6219Q254.04688 273.21564 254.23438 272.85626Q254.42188 272.4969 254.75 272.2625Q255.0 272.09064 255.42188 271.96564Q255.84375 271.84064 256.34375 271.84064Q257.0625 271.84064 257.60938 272.0594Q258.17188 272.2625 258.4375 272.6219Q258.70312 272.98126 258.79688 273.575L257.76562 273.71564Q257.70312 273.2469 257.35938 272.98126Q257.03125 272.7 256.40625 272.7Q255.6875 272.7 255.375 272.95Q255.0625 273.1844 255.0625 273.5125Q255.0625 273.71564 255.1875 273.8719Q255.32812 274.04376 255.59375 274.15314Q255.75 274.21564 256.53125 274.41876Q257.65625 274.73126 258.09375 274.91876Q258.53125 275.10626 258.78125 275.46564Q259.03125 275.825 259.03125 276.3719Q259.03125 276.90314 258.71875 277.3719Q258.42188 277.825 257.84375 278.09064Q257.26562 278.34064 256.53125 278.34064Q255.3125 278.34064 254.67188 277.84064Q254.04688 277.325 253.875 276.34064ZM265.35938 277.4344Q264.76562 277.9344 264.21875 278.1375Q263.6875 278.34064 263.0625 278.34064Q262.03125 278.34064 261.48438 277.84064Q260.9375 277.34064 260.9375 276.5594Q260.9375 276.10626 261.14062 275.73126Q261.34375 275.34064 261.6875 275.1219Q262.03125 274.8875 262.45312 274.77814Q262.75 274.6844 263.39062 274.60626Q264.65625 274.46564 265.26562 274.2469Q265.26562 274.02814 265.26562 273.98126Q265.26562 273.325 264.96875 273.0594Q264.5625 272.71564 263.76562 272.71564Q263.03125 272.71564 262.67188 272.98126Q262.3125 273.23126 262.14062 273.8875L261.10938 273.7469Q261.25 273.09064 261.57812 272.6844Q261.90625 272.27814 262.51562 272.0594Q263.125 271.84064 263.92188 271.84064Q264.71875 271.84064 265.21875 272.02814Q265.71875 272.21564 265.95312 272.4969Q266.1875 272.77814 266.28125 273.21564Q266.32812 273.48126 266.32812 274.1844L266.32812 275.59064Q266.32812 277.0594 266.39062 277.45Q266.46875 277.84064 266.67188 278.2L265.5625 278.2Q265.40625 277.8719 265.35938 277.4344ZM265.26562 275.075Q264.6875 275.3094 263.54688 275.48126Q262.89062 275.575 262.625 275.7Q262.35938 275.8094 262.20312 276.02814Q262.0625 276.2469 262.0625 276.52814Q262.0625 276.95 262.375 277.23126Q262.70312 277.5125 263.3125 277.5125Q263.92188 277.5125 264.39062 277.2469Q264.875 276.98126 265.09375 276.5125Q265.26562 276.15314 265.26562 275.46564L265.26562 275.075ZM268.29688 278.2L268.29688 271.98126L269.23438 271.98126L269.23438 272.85626Q269.92188 271.84064 271.21875 271.84064Q271.78125 271.84064 272.25 272.04376Q272.73438 272.2469 272.96875 272.575Q273.20312 272.90314 273.29688 273.34064Q273.34375 273.6375 273.34375 274.3719L273.34375 278.2L272.29688 278.2L272.29688 274.41876Q272.29688 273.7625 272.17188 273.45Q272.04688 273.1375 271.73438 272.95Q271.42188 272.7469 271.0 272.7469Q270.32812 272.7469 269.82812 273.1844Q269.34375 273.60626 269.34375 274.79376L269.34375 278.2L268.29688 278.2ZM279.32812 278.2L279.32812 277.41876Q278.73438 278.34064 277.59375 278.34064Q276.84375 278.34064 276.21875 277.9344Q275.59375 277.5125 275.25 276.77814Q274.90625 276.04376 274.90625 275.09064Q274.90625 274.16876 275.21875 273.40314Q275.53125 272.6375 276.15625 272.2469Q276.78125 271.84064 277.54688 271.84064Q278.10938 271.84064 278.54688 272.075Q278.98438 272.3094 279.26562 272.6844L279.26562 269.60626L280.3125 269.60626L280.3125 278.2L279.32812 278.2ZM276.0 275.09064Q276.0 276.29376 276.5 276.8875Q277.0 277.46564 277.6875 277.46564Q278.375 277.46564 278.85938 276.90314Q279.34375 276.34064 279.34375 275.1844Q279.34375 273.90314 278.84375 273.3094Q278.35938 272.71564 277.64062 272.71564Q276.9375 272.71564 276.46875 273.29376Q276.0 273.85626 276.0 275.09064ZM281.875 276.34064L282.90625 276.1844Q283.0 276.8094 283.39062 277.1375Q283.79688 277.46564 284.53125 277.46564Q285.25 277.46564 285.59375 277.1844Q285.95312 276.8875 285.95312 276.48126Q285.95312 276.1219 285.64062 275.91876Q285.42188 275.77814 284.5625 275.5594Q283.40625 275.2625 282.95312 275.0594Q282.51562 274.84064 282.28125 274.46564Q282.04688 274.09064 282.04688 273.6219Q282.04688 273.21564 282.23438 272.85626Q282.42188 272.4969 282.75 272.2625Q283.0 272.09064 283.42188 271.96564Q283.84375 271.84064 284.34375 271.84064Q285.0625 271.84064 285.60938 272.0594Q286.17188 272.2625 286.4375 272.6219Q286.70312 272.98126 286.79688 273.575L285.76562 273.71564Q285.70312 273.2469 285.35938 272.98126Q285.03125 272.7 284.40625 272.7Q283.6875 272.7 283.375 272.95Q283.0625 273.1844 283.0625 273.5125Q283.0625 273.71564 283.1875 273.8719Q283.32812 274.04376 283.59375 274.15314Q283.75 274.21564 284.53125 274.41876Q285.65625 274.73126 286.09375 274.91876Q286.53125 275.10626 286.78125 275.46564Q287.03125 275.825 287.03125 276.3719Q287.03125 276.90314 286.71875 277.3719Q286.42188 277.825 285.84375 278.09064Q285.26562 278.34064 284.53125 278.34064Q283.3125 278.34064 282.67188 277.84064Q282.04688 277.325 281.875 276.34064ZM291.90625 275.09064Q291.90625 273.35626 292.85938 272.52814Q293.65625 271.84064 294.8125 271.84064Q296.09375 271.84064 296.90625 272.6844Q297.73438 273.5125 297.73438 274.9969Q297.73438 276.2 297.375 276.8875Q297.01562 277.575 296.3125 277.96564Q295.625 278.34064 294.8125 278.34064Q293.51562 278.34064 292.70312 277.5125Q291.90625 276.66876 291.90625 275.09064ZM292.98438 275.09064Q292.98438 276.27814 293.5 276.8719Q294.03125 277.46564 294.8125 277.46564Q295.60938 277.46564 296.125 276.8719Q296.64062 276.27814 296.64062 275.0594Q296.64062 273.90314 296.10938 273.3094Q295.59375 272.71564 294.8125 272.71564Q294.03125 272.71564 293.5 273.3094Q292.98438 273.8875 292.98438 275.09064ZM299.54688 278.2L299.54688 272.79376L298.60938 272.79376L298.60938 271.98126L299.54688 271.98126L299.54688 271.3094Q299.54688 270.6844 299.65625 270.3875Q299.8125 269.96564 300.1875 269.71564Q300.57812 269.46564 301.26562 269.46564Q301.71875 269.46564 302.25 269.575L302.09375 270.48126Q301.76562 270.4344 301.46875 270.4344Q300.98438 270.4344 300.78125 270.6375Q300.59375 270.84064 300.59375 271.40314L300.59375 271.98126L301.8125 271.98126L301.8125 272.79376L300.59375 272.79376L300.59375 278.2L299.54688 278.2ZM311.5625 275.1844L312.6875 275.48126Q312.32812 276.8719 311.40625 277.60626Q310.48438 278.34064 309.14062 278.34064Q307.75 278.34064 306.875 277.77814Q306.0 277.21564 305.54688 276.15314Q305.09375 275.075 305.09375 273.84064Q305.09375 272.4969 305.60938 271.4969Q306.125 270.4969 307.0625 269.98126Q308.01562 269.46564 309.15625 269.46564Q310.4375 269.46564 311.3125 270.1219Q312.20312 270.77814 312.54688 271.96564L311.42188 272.23126Q311.125 271.29376 310.54688 270.8719Q309.98438 270.4344 309.125 270.4344Q308.14062 270.4344 307.46875 270.91876Q306.8125 271.3875 306.53125 272.1844Q306.26562 272.98126 306.26562 273.84064Q306.26562 274.9344 306.57812 275.7469Q306.90625 276.5594 307.57812 276.96564Q308.25 277.3719 309.04688 277.3719Q310.0 277.3719 310.65625 276.825Q311.32812 276.27814 311.5625 275.1844ZM314.28125 278.2L314.28125 271.98126L315.23438 271.98126L315.23438 272.91876Q315.59375 272.2625 315.89062 272.0594Q316.20312 271.84064 316.57812 271.84064Q317.10938 271.84064 317.65625 272.16876L317.29688 273.15314Q316.90625 272.91876 316.53125 272.91876Q316.17188 272.91876 315.89062 273.1375Q315.625 273.34064 315.51562 273.71564Q315.32812 274.27814 315.32812 274.9344L315.32812 278.2L314.28125 278.2ZM322.54688 276.2L323.64062 276.325Q323.39062 277.27814 322.6875 277.8094Q321.98438 278.34064 320.90625 278.34064Q319.54688 278.34064 318.73438 277.4969Q317.9375 276.65314 317.9375 275.1375Q317.9375 273.575 318.75 272.71564Q319.5625 271.84064 320.84375 271.84064Q322.09375 271.84064 322.875 272.6844Q323.67188 273.52814 323.67188 275.075Q323.67188 275.16876 323.67188 275.35626L319.03125 275.35626Q319.09375 276.3875 319.60938 276.9344Q320.125 277.46564 320.90625 277.46564Q321.48438 277.46564 321.89062 277.16876Q322.3125 276.85626 322.54688 276.2ZM319.09375 274.4969L322.5625 274.4969Q322.5 273.7 322.17188 273.3094Q321.65625 272.7 320.85938 272.7Q320.125 272.7 319.625 273.1844Q319.14062 273.66876 319.09375 274.4969ZM329.35938 277.4344Q328.76562 277.9344 328.21875 278.1375Q327.6875 278.34064 327.0625 278.34064Q326.03125 278.34064 325.48438 277.84064Q324.9375 277.34064 324.9375 276.5594Q324.9375 276.10626 325.14062 275.73126Q325.34375 275.34064 325.6875 275.1219Q326.03125 274.8875 326.45312 274.77814Q326.75 274.6844 327.39062 274.60626Q328.65625 274.46564 329.26562 274.2469Q329.26562 274.02814 329.26562 273.98126Q329.26562 273.325 328.96875 273.0594Q328.5625 272.71564 327.76562 272.71564Q327.03125 272.71564 326.67188 272.98126Q326.3125 273.23126 326.14062 273.8875L325.10938 273.7469Q325.25 273.09064 325.57812 272.6844Q325.90625 272.27814 326.51562 272.0594Q327.125 271.84064 327.92188 271.84064Q328.71875 271.84064 329.21875 272.02814Q329.71875 272.21564 329.95312 272.4969Q330.1875 272.77814 330.28125 273.21564Q330.32812 273.48126 330.32812 274.1844L330.32812 275.59064Q330.32812 277.0594 330.39062 277.45Q330.46875 277.84064 330.67188 278.2L329.5625 278.2Q329.40625 277.8719 329.35938 277.4344ZM329.26562 275.075Q328.6875 275.3094 327.54688 275.48126Q326.89062 275.575 326.625 275.7Q326.35938 275.8094 326.20312 276.02814Q326.0625 276.2469 326.0625 276.52814Q326.0625 276.95 326.375 277.23126Q326.70312 277.5125 327.3125 277.5125Q327.92188 277.5125 328.39062 277.2469Q328.875 276.98126 329.09375 276.5125Q329.26562 276.15314 329.26562 275.46564L329.26562 275.075ZM334.59375 277.2625L334.75 278.1844Q334.29688 278.27814 333.95312 278.27814Q333.375 278.27814 333.0625 278.10626Q332.75 277.91876 332.60938 277.6219Q332.48438 277.325 332.48438 276.3719L332.48438 272.79376L331.71875 272.79376L331.71875 271.98126L332.48438 271.98126L332.48438 270.4344L333.53125 269.8094L333.53125 271.98126L334.59375 271.98126L334.59375 272.79376L333.53125 272.79376L333.53125 276.4344Q333.53125 276.8875 333.57812 277.0125Q333.64062 277.1375 333.76562 277.21564Q333.89062 277.29376 334.125 277.29376Q334.3125 277.29376 334.59375 277.2625ZM339.54688 276.2L340.64062 276.325Q340.39062 277.27814 339.6875 277.8094Q338.98438 278.34064 337.90625 278.34064Q336.54688 278.34064 335.73438 277.4969Q334.9375 276.65314 334.9375 275.1375Q334.9375 273.575 335.75 272.71564Q336.5625 271.84064 337.84375 271.84064Q339.09375 271.84064 339.875 272.6844Q340.67188 273.52814 340.67188 275.075Q340.67188 275.16876 340.67188 275.35626L336.03125 275.35626Q336.09375 276.3875 336.60938 276.9344Q337.125 277.46564 337.90625 277.46564Q338.48438 277.46564 338.89062 277.16876Q339.3125 276.85626 339.54688 276.2ZM336.09375 274.4969L339.5625 274.4969Q339.5 273.7 339.17188 273.3094Q338.65625 272.7 337.85938 272.7Q337.125 272.7 336.625 273.1844Q336.14062 273.66876 336.09375 274.4969ZM341.875 276.34064L342.90625 276.1844Q343.0 276.8094 343.39062 277.1375Q343.79688 277.46564 344.53125 277.46564Q345.25 277.46564 345.59375 277.1844Q345.95312 276.8875 345.95312 276.48126Q345.95312 276.1219 345.64062 275.91876Q345.42188 275.77814 344.5625 275.5594Q343.40625 275.2625 342.95312 275.0594Q342.51562 274.84064 342.28125 274.46564Q342.04688 274.09064 342.04688 273.6219Q342.04688 273.21564 342.23438 272.85626Q342.42188 272.4969 342.75 272.2625Q343.0 272.09064 343.42188 271.96564Q343.84375 271.84064 344.34375 271.84064Q345.0625 271.84064 345.60938 272.0594Q346.17188 272.2625 346.4375 272.6219Q346.70312 272.98126 346.79688 273.575L345.76562 273.71564Q345.70312 273.2469 345.35938 272.98126Q345.03125 272.7 344.40625 272.7Q343.6875 272.7 343.375 272.95Q343.0625 273.1844 343.0625 273.5125Q343.0625 273.71564 343.1875 273.8719Q343.32812 274.04376 343.59375 274.15314Q343.75 274.21564 344.53125 274.41876Q345.65625 274.73126 346.09375 274.91876Q346.53125 275.10626 346.78125 275.46564Q347.03125 275.825 347.03125 276.3719Q347.03125 276.90314 346.71875 277.3719Q346.42188 277.825 345.84375 278.09064Q345.26562 278.34064 344.53125 278.34064Q343.3125 278.34064 342.67188 277.84064Q342.04688 277.325 341.875 276.34064ZM349.98438 280.73126L349.23438 280.73126Q350.98438 277.91876 350.98438 275.09064Q350.98438 273.9969 350.73438 272.90314Q350.53125 272.02814 350.17188 271.21564Q349.9375 270.7 349.23438 269.46564L349.98438 269.46564Q351.07812 270.9344 351.60938 272.41876Q352.0625 273.7 352.0625 275.09064Q352.0625 276.66876 351.45312 278.15314Q350.84375 279.6219 349.98438 280.73126Z" fill-rule="nonzero"/><path fill="#000000" d="M25.800013 181.89062L18.221888 181.89062L18.221888 184.71875L17.206263 184.71875L17.206263 177.90625L18.221888 177.90625L18.221888 180.75L25.800013 180.75L25.800013 181.89062ZM25.800013 177.20312L17.206263 177.20312L17.206263 176.15625L20.284388 176.15625Q19.440638 175.42188 19.440638 174.29688Q19.440638 173.59375 19.721888 173.09375Q19.987513 172.57812 20.471888 172.35938Q20.940638 172.14062 21.862513 172.14062L25.800013 172.14062L25.800013 173.1875L21.862513 173.1875Q21.065638 173.1875 20.706263 173.53125Q20.346888 173.875 20.346888 174.5Q20.346888 174.96875 20.596888 175.39062Q20.831263 175.79688 21.253138 175.98438Q21.659388 176.15625 22.393763 176.15625L25.800013 176.15625L25.800013 177.20312ZM25.800013 170.21875L19.581263 170.21875L19.581263 169.26562L20.518763 169.26562Q19.862513 168.90625 19.659388 168.60938Q19.440638 168.29688 19.440638 167.92188Q19.440638 167.39062 19.768763 166.84375L20.753138 167.20312Q20.518763 167.59375 20.518763 167.96875Q20.518763 168.32812 20.737513 168.60938Q20.940638 168.875 21.315638 168.98438Q21.878138 169.17188 22.534388 169.17188L25.800013 169.17188L25.800013 170.21875ZM22.690638 166.59375Q20.956263 166.59375 20.128138 165.64062Q19.440638 164.84375 19.440638 163.6875Q19.440638 162.40625 20.284388 161.59375Q21.112513 160.76562 22.596888 160.76562Q23.800013 160.76562 24.487513 161.125Q25.175013 161.48438 25.565638 162.1875Q25.940638 162.875 25.940638 163.6875Q25.940638 164.98438 25.112513 165.79688Q24.268763 166.59375 22.690638 166.59375ZM22.690638 165.51562Q23.878138 165.51562 24.471888 165.0Q25.065638 164.46875 25.065638 163.6875Q25.065638 162.89062 24.471888 162.375Q23.878138 161.85938 22.659388 161.85938Q21.503138 161.85938 20.909388 162.39062Q20.315638 162.90625 20.315638 163.6875Q20.315638 164.46875 20.909388 165.0Q21.487513 165.51562 22.690638 165.51562ZM25.800013 155.125L24.878138 155.125Q25.940638 155.85938 25.940638 157.10938Q25.940638 157.65625 25.737513 158.14062Q25.518763 158.60938 25.206263 158.84375Q24.878138 159.07812 24.409388 159.17188Q24.112513 159.23438 23.425013 159.23438L19.581263 159.23438L19.581263 158.17188L23.034388 158.17188Q23.846888 158.17188 24.143763 158.10938Q24.550013 158.01562 24.800013 157.70312Q25.034388 157.375 25.034388 156.89062Q25.034388 156.42188 24.800013 156.01562Q24.550013 155.59375 24.128138 155.42188Q23.706263 155.23438 22.909388 155.23438L19.581263 155.23438L19.581263 154.1875L25.800013 154.1875L25.800013 155.125ZM26.315638 152.40625L26.471888 151.375Q26.940638 151.3125 27.159388 151.01562Q27.456263 150.625 27.456263 149.95312Q27.456263 149.21875 27.159388 148.82812Q26.862513 148.42188 26.346888 148.28125Q26.018763 148.1875 24.987513 148.20312Q25.800013 148.89062 25.800013 149.92188Q25.800013 151.20312 24.878138 151.90625Q23.940638 152.60938 22.659388 152.60938Q21.768763 152.60938 21.018763 152.29688Q20.253138 151.96875 19.846888 151.35938Q19.440638 150.75 19.440638 149.92188Q19.440638 148.8125 20.331263 148.09375L19.581263 148.09375L19.581263 147.125L24.956263 147.125Q26.409388 147.125 27.018763 147.42188Q27.628138 147.71875 27.971888 148.35938Q28.331263 149.0 28.331263 149.9375Q28.331263 151.04688 27.831263 151.73438Q27.331263 152.42188 26.315638 152.40625ZM22.581263 151.53125Q23.800013 151.53125 24.362513 151.04688Q24.925013 150.5625 24.925013 149.82812Q24.925013 149.09375 24.362513 148.60938Q23.800013 148.10938 22.612513 148.10938Q21.471888 148.10938 20.893763 148.625Q20.315638 149.125 20.315638 149.84375Q20.315638 150.54688 20.893763 151.04688Q21.456263 151.53125 22.581263 151.53125ZM25.800013 145.20312L17.206263 145.20312L17.206263 144.15625L20.284388 144.15625Q19.440638 143.42188 19.440638 142.29688Q19.440638 141.59375 19.721888 141.09375Q19.987513 140.57812 20.471888 140.35938Q20.940638 140.14062 21.862513 140.14062L25.800013 140.14062L25.800013 141.1875L21.862513 141.1875Q21.065638 141.1875 20.706263 141.53125Q20.346888 141.875 20.346888 142.5Q20.346888 142.96875 20.596888 143.39062Q20.831263 143.79688 21.253138 143.98438Q21.659388 144.15625 22.393763 144.15625L25.800013 144.15625L25.800013 145.20312ZM28.190638 138.20312L19.581263 138.20312L19.581263 137.25L20.378138 137.25Q19.909388 136.90625 19.675013 136.48438Q19.440638 136.04688 19.440638 135.4375Q19.440638 134.64062 19.846888 134.03125Q20.253138 133.42188 21.003138 133.125Q21.753138 132.8125 22.643763 132.8125Q23.596888 132.8125 24.362513 133.15625Q25.128138 133.48438 25.534388 134.14062Q25.940638 134.79688 25.940638 135.51562Q25.940638 136.04688 25.721888 136.46875Q25.487513 136.89062 25.159388 137.15625L28.190638 137.15625L28.190638 138.20312ZM22.721888 137.25Q23.925013 137.25 24.503138 136.76562Q25.065638 136.28125 25.065638 135.59375Q25.065638 134.89062 24.471888 134.39062Q23.878138 133.89062 22.628138 133.89062Q21.440638 133.89062 20.862513 134.375Q20.268763 134.85938 20.268763 135.54688Q20.268763 136.21875 20.893763 136.73438Q21.518763 137.25 22.721888 137.25ZM25.800013 127.125L24.878138 127.125Q25.940638 127.859375 25.940638 129.10938Q25.940638 129.65625 25.737513 130.14062Q25.518763 130.60938 25.206263 130.84375Q24.878138 131.07812 24.409388 131.17188Q24.112513 131.23438 23.425013 131.23438L19.581263 131.23438L19.581263 130.17188L23.034388 130.17188Q23.846888 130.17188 24.143763 130.10938Q24.550013 130.01562 24.800013 129.70312Q25.034388 129.375 25.034388 128.89062Q25.034388 128.42188 24.800013 128.01562Q24.550013 127.59375 24.128138 127.421875Q23.706263 127.234375 22.909388 127.234375L19.581263 127.234375L19.581263 126.1875L25.800013 126.1875L25.800013 127.125ZM24.862513 121.90625L25.784388 121.75Q25.878138 122.203125 25.878138 122.546875Q25.878138 123.125 25.706263 123.4375Q25.518763 123.75 25.221888 123.890625Q24.925013 124.015625 23.971888 124.015625L20.393763 124.015625L20.393763 124.78125L19.581263 124.78125L19.581263 124.015625L18.034388 124.015625L17.409388 122.96875L19.581263 122.96875L19.581263 121.90625L20.393763 121.90625L20.393763 122.96875L24.034388 122.96875Q24.487513 122.96875 24.612513 122.921875Q24.737513 122.859375 24.815638 122.734375Q24.893763 122.609375 24.893763 122.375Q24.893763 122.1875 24.862513 121.90625ZM28.331263 116.1875Q27.221888 117.0625 25.753138 117.671875Q24.268763 118.265625 22.690638 118.265625Q21.300013 118.265625 20.018763 117.828125Q18.534388 117.296875 17.065638 116.1875L17.065638 115.4375Q18.284388 116.140625 18.800013 116.375Q19.612513 116.734375 20.487513 116.9375Q21.581263 117.1875 22.690638 117.1875Q25.518763 117.1875 28.331263 115.4375L28.331263 116.1875ZM25.800013 114.109375L17.206263 114.109375L17.206263 112.390625L23.284388 110.359375Q24.143763 110.078125 24.565638 109.953125Q24.096888 109.8125 23.190638 109.5L17.206263 107.4375L17.206263 105.90625L25.800013 105.90625L25.800013 107.0L18.612513 107.0L25.800013 109.5L25.800013 110.53125L18.487513 113.015625L25.800013 113.015625L25.800013 114.109375ZM21.612513 105.421875Q19.471888 105.421875 18.268763 104.28125Q17.050013 103.125 17.050013 101.3125Q17.050013 100.109375 17.628138 99.15625Q18.190638 98.203125 19.206263 97.703125Q20.221888 97.203125 21.518763 97.203125Q22.815638 97.203125 23.846888 97.734375Q24.878138 98.265625 25.409388 99.234375Q25.940638 100.1875 25.940638 101.3125Q25.940638 102.53125 25.362513 103.484375Q24.768763 104.4375 23.768763 104.9375Q22.753138 105.421875 21.612513 105.421875ZM21.628138 104.25Q23.190638 104.25 24.081263 103.421875Q24.971888 102.578125 24.971888 101.3125Q24.971888 100.03125 24.081263 99.203125Q23.175013 98.375 21.503138 98.375Q20.456263 98.375 19.675013 98.734375Q18.893763 99.078125 18.471888 99.765625Q18.034388 100.453125 18.034388 101.296875Q18.034388 102.5 18.862513 103.375Q19.690638 104.25 21.628138 104.25ZM28.190638 96.203125L19.581263 96.203125L19.581263 95.25L20.378138 95.25Q19.909388 94.90625 19.675013 94.484375Q19.440638 94.046875 19.440638 93.4375Q19.440638 92.640625 19.846888 92.03125Q20.253138 91.421875 21.003138 91.125Q21.753138 90.8125 22.643763 90.8125Q23.596888 90.8125 24.362513 91.15625Q25.128138 91.484375 25.534388 92.140625Q25.940638 92.796875 25.940638 93.515625Q25.940638 94.046875 25.721888 94.46875Q25.487513 94.890625 25.159388 95.15625L28.190638 95.15625L28.190638 96.203125ZM22.721888 95.25Q23.925013 95.25 24.503138 94.765625Q25.065638 94.28125 25.065638 93.59375Q25.065638 92.890625 24.471888 92.390625Q23.878138 91.890625 22.628138 91.890625Q21.440638 91.890625 20.862513 92.375Q20.268763 92.859375 20.268763 93.546875Q20.268763 94.21875 20.893763 94.734375Q21.518763 95.25 22.721888 95.25ZM23.940638 89.625L23.784388 88.59375Q24.409388 88.5 24.737513 88.109375Q25.065638 87.703125 25.065638 86.96875Q25.065638 86.25 24.784388 85.90625Q24.487513 85.546875 24.081263 85.546875Q23.721888 85.546875 23.518763 85.859375Q23.378138 86.078125 23.159388 86.9375Q22.862513 88.09375 22.659388 88.546875Q22.440638 88.984375 22.065638 89.21875Q21.690638 89.453125 21.221888 89.453125Q20.815638 89.453125 20.456263 89.265625Q20.096888 89.078125 19.862513 88.75Q19.690638 88.5 19.565638 88.078125Q19.440638 87.65625 19.440638 87.15625Q19.440638 86.4375 19.659388 85.890625Q19.862513 85.328125 20.221888 85.0625Q20.581263 84.796875 21.175013 84.703125L21.315638 85.734375Q20.846888 85.796875 20.581263 86.140625Q20.300013 86.46875 20.300013 87.09375Q20.300013 87.8125 20.550013 88.125Q20.784388 88.4375 21.112513 88.4375Q21.315638 88.4375 21.471888 88.3125Q21.643763 88.171875 21.753138 87.90625Q21.815638 87.75 22.018763 86.96875Q22.331263 85.84375 22.518763 85.40625Q22.706263 84.96875 23.065638 84.71875Q23.425013 84.46875 23.971888 84.46875Q24.503138 84.46875 24.971888 84.78125Q25.425013 85.078125 25.690638 85.65625Q25.940638 86.234375 25.940638 86.96875Q25.940638 88.1875 25.440638 88.828125Q24.925013 89.453125 23.940638 89.625ZM28.331263 81.515625L28.331263 82.265625Q25.518763 80.515625 22.690638 80.515625Q21.596888 80.515625 20.503138 80.765625Q19.628138 80.96875 18.815638 81.328125Q18.300013 81.5625 17.065638 82.265625L17.065638 81.515625Q18.534388 80.421875 20.018763 79.890625Q21.300013 79.4375 22.690638 79.4375Q24.268763 79.4375 25.753138 80.046875Q27.221888 80.65625 28.331263 81.515625Z" fill-rule="nonzero"/><path fill="#000000" d="M51.3 228.96562Q51.3 227.43437 51.6125 226.5125Q51.925 225.575 52.534374 225.075Q53.159374 224.575 54.096874 224.575Q54.784374 224.575 55.3 224.85625Q55.83125 225.1375 56.175 225.66875Q56.51875 226.18437 56.70625 226.93437Q56.89375 227.68437 56.89375 228.96562Q56.89375 230.48125 56.58125 231.40312Q56.284374 232.325 55.659374 232.84062Q55.05 233.34062 54.096874 233.34062Q52.8625 233.34062 52.14375 232.45Q51.3 231.3875 51.3 228.96562ZM52.378124 228.96562Q52.378124 231.075 52.878124 231.77812Q53.378124 232.48125 54.096874 232.48125Q54.83125 232.48125 55.315624 231.77812Q55.815624 231.075 55.815624 228.96562Q55.815624 226.84062 55.315624 226.15312Q54.83125 225.45 54.08125 225.45Q53.3625 225.45 52.925 226.05937Q52.378124 226.84062 52.378124 228.96562ZM58.89375 233.2L58.89375 231.99687L60.096874 231.99687L60.096874 233.2L58.89375 233.2ZM61.3 228.96562Q61.3 227.43437 61.6125 226.5125Q61.925 225.575 62.534374 225.075Q63.159374 224.575 64.09688 224.575Q64.78438 224.575 65.3 224.85625Q65.83125 225.1375 66.175 225.66875Q66.51875 226.18437 66.70625 226.93437Q66.89375 227.68437 66.89375 228.96562Q66.89375 230.48125 66.58125 231.40312Q66.28438 232.325 65.65938 232.84062Q65.05 233.34062 64.09688 233.34062Q62.8625 233.34062 62.14375 232.45Q61.3 231.3875 61.3 228.96562ZM62.378124 228.96562Q62.378124 231.075 62.878124 231.77812Q63.378124 232.48125 64.09688 232.48125Q64.83125 232.48125 65.31563 231.77812Q65.81563 231.075 65.81563 228.96562Q65.81563 226.84062 65.31563 226.15312Q64.83125 225.45 64.08125 225.45Q63.3625 225.45 62.925 226.05937Q62.378124 226.84062 62.378124 228.96562Z" fill-rule="nonzero"/><path fill="#000000" d="M51.3 187.48563Q51.3 185.95438 51.6125 185.0325Q51.925 184.095 52.534374 183.595Q53.159374 183.095 54.096874 183.095Q54.784374 183.095 55.3 183.37625Q55.83125 183.6575 56.175 184.18875Q56.51875 184.70438 56.70625 185.45438Q56.89375 186.20438 56.89375 187.48563Q56.89375 189.00125 56.58125 189.92313Q56.284374 190.845 55.659374 191.36063Q55.05 191.86063 54.096874 191.86063Q52.8625 191.86063 52.14375 190.97Q51.3 189.9075 51.3 187.48563ZM52.378124 187.48563Q52.378124 189.595 52.878124 190.29813Q53.378124 191.00125 54.096874 191.00125Q54.83125 191.00125 55.315624 190.29813Q55.815624 189.595 55.815624 187.48563Q55.815624 185.36063 55.315624 184.67313Q54.83125 183.97 54.08125 183.97Q53.3625 183.97 52.925 184.57938Q52.378124 185.36063 52.378124 187.48563ZM58.89375 191.72L58.89375 190.51688L60.096874 190.51688L60.096874 191.72L58.89375 191.72ZM61.3 189.47L62.409374 189.37625Q62.534374 190.18875 62.971874 190.595Q63.425 191.00125 64.06563 191.00125Q64.81563 191.00125 65.34688 190.42313Q65.87813 189.845 65.87813 188.9075Q65.87813 188.00125 65.3625 187.48563Q64.8625 186.95438 64.03438 186.95438Q63.534374 186.95438 63.1125 187.18875Q62.70625 187.42313 62.471874 187.7825L61.4875 187.6575L62.315624 183.25125L66.59688 183.25125L66.59688 184.25125L63.159374 184.25125L62.70625 186.56375Q63.471874 186.01688 64.31563 186.01688Q65.44063 186.01688 66.20625 186.79813Q66.9875 187.57938 66.9875 188.81375Q66.9875 189.97 66.31563 190.82938Q65.4875 191.86063 64.06563 191.86063Q62.89375 191.86063 62.14375 191.20438Q61.409374 190.54813 61.3 189.47Z" fill-rule="nonzero"/><path fill="#000000" d="M55.26875 150.24L54.221874 150.24L54.221874 143.52126Q53.83125 143.88063 53.20625 144.25563Q52.596874 144.615 52.1125 144.78688L52.1125 143.77126Q52.9875 143.34938 53.64375 142.77126Q54.315624 142.1775 54.596874 141.615L55.26875 141.615L55.26875 150.24ZM58.89375 150.24L58.89375 149.03688L60.096874 149.03688L60.096874 150.24L58.89375 150.24ZM61.3 146.00563Q61.3 144.47438 61.6125 143.5525Q61.925 142.615 62.534374 142.115Q63.159374 141.615 64.09688 141.615Q64.78438 141.615 65.3 141.89626Q65.83125 142.1775 66.175 142.70876Q66.51875 143.22438 66.70625 143.97438Q66.89375 144.72438 66.89375 146.00563Q66.89375 147.52126 66.58125 148.44313Q66.28438 149.365 65.65938 149.88063Q65.05 150.38063 64.09688 150.38063Q62.8625 150.38063 62.14375 149.49Q61.3 148.4275 61.3 146.00563ZM62.378124 146.00563Q62.378124 148.115 62.878124 148.81813Q63.378124 149.52126 64.09688 149.52126Q64.83125 149.52126 65.31563 148.81813Q65.81563 148.115 65.81563 146.00563Q65.81563 143.88063 65.31563 143.19313Q64.83125 142.49 64.08125 142.49Q63.3625 142.49 62.925 143.09938Q62.378124 143.88063 62.378124 146.00563Z" fill-rule="nonzero"/><path fill="#000000" d="M55.26875 108.76L54.221874 108.76L54.221874 102.04125Q53.83125 102.40063 53.20625 102.77563Q52.596874 103.135 52.1125 103.30688L52.1125 102.29125Q52.9875 101.86938 53.64375 101.29125Q54.315624 100.6975 54.596874 100.135L55.26875 100.135L55.26875 108.76ZM58.89375 108.76L58.89375 107.55688L60.096874 107.55688L60.096874 108.76L58.89375 108.76ZM61.3 106.51L62.409374 106.41625Q62.534374 107.22875 62.971874 107.635Q63.425 108.04125 64.06563 108.04125Q64.81563 108.04125 65.34688 107.46313Q65.87813 106.885 65.87813 105.9475Q65.87813 105.04125 65.3625 104.52563Q64.8625 103.99438 64.03438 103.99438Q63.534374 103.99438 63.1125 104.22875Q62.70625 104.46313 62.471874 104.8225L61.4875 104.6975L62.315624 100.29125L66.59688 100.29125L66.59688 101.29125L63.159374 101.29125L62.70625 103.60375Q63.471874 103.05688 64.31563 103.05688Q65.44063 103.05688 66.20625 103.83813Q66.9875 104.61938 66.9875 105.85375Q66.9875 107.01 66.31563 107.86938Q65.4875 108.90063 64.06563 108.90063Q62.89375 108.90063 62.14375 108.24438Q61.409374 107.58813 61.3 106.51Z" fill-rule="nonzero"/><path fill="#000000" d="M56.846874 66.26437L56.846874 67.28L51.159374 67.28Q51.159374 66.905 51.284374 66.54562Q51.503124 65.9675 51.971874 65.405Q52.45625 64.8425 53.3625 64.10812Q54.76875 62.951874 55.253124 62.28Q55.753124 61.608124 55.753124 61.014374Q55.753124 60.389374 55.3 59.9675Q54.846874 59.53 54.128124 59.53Q53.3625 59.53 52.909374 59.983124Q52.45625 60.43625 52.440624 61.24875L51.3625 61.139374Q51.471874 59.920624 52.190624 59.295624Q52.925 58.655 54.159374 58.655Q55.39375 58.655 56.1125 59.3425Q56.83125 60.03 56.83125 61.045624Q56.83125 61.56125 56.6125 62.06125Q56.409374 62.545624 55.909374 63.108124Q55.425 63.655 54.3 64.60812Q53.346874 65.405 53.065624 65.70187Q52.8 65.98312 52.628124 66.26437L56.846874 66.26437ZM58.89375 67.28L58.89375 66.07687L60.096874 66.07687L60.096874 67.28L58.89375 67.28ZM61.3 63.045624Q61.3 61.514374 61.6125 60.5925Q61.925 59.655 62.534374 59.155Q63.159374 58.655 64.09688 58.655Q64.78438 58.655 65.3 58.93625Q65.83125 59.2175 66.175 59.74875Q66.51875 60.264374 66.70625 61.014374Q66.89375 61.764374 66.89375 63.045624Q66.89375 64.56125 66.58125 65.48312Q66.28438 66.405 65.65938 66.92062Q65.05 67.42062 64.09688 67.42062Q62.8625 67.42062 62.14375 66.53Q61.3 65.4675 61.3 63.045624ZM62.378124 63.045624Q62.378124 65.155 62.878124 65.85812Q63.378124 66.56125 64.09688 66.56125Q64.83125 66.56125 65.31563 65.85812Q65.81563 65.155 65.81563 63.045624Q65.81563 60.920624 65.31563 60.233124Q64.83125 59.53 64.08125 59.53Q63.3625 59.53 62.925 60.139374Q62.378124 60.920624 62.378124 63.045624Z" fill-rule="nonzero"/><path fill="#000000" d="M56.846874 24.784374L56.846874 25.8L51.159374 25.8Q51.159374 25.425 51.284374 25.065624Q51.503124 24.4875 51.971874 23.925Q52.45625 23.3625 53.3625 22.628124Q54.76875 21.471874 55.253124 20.8Q55.753124 20.128124 55.753124 19.534374Q55.753124 18.909374 55.3 18.4875Q54.846874 18.05 54.128124 18.05Q53.3625 18.05 52.909374 18.503124Q52.45625 18.95625 52.440624 19.76875L51.3625 19.659374Q51.471874 18.440624 52.190624 17.815624Q52.925 17.175 54.159374 17.175Q55.39375 17.175 56.1125 17.8625Q56.83125 18.55 56.83125 19.565624Q56.83125 20.08125 56.6125 20.58125Q56.409374 21.065624 55.909374 21.628124Q55.425 22.175 54.3 23.128124Q53.346874 23.925 53.065624 24.221874Q52.8 24.503124 52.628124 24.784374L56.846874 24.784374ZM58.89375 25.8L58.89375 24.596874L60.096874 24.596874L60.096874 25.8L58.89375 25.8ZM61.3 23.55L62.409374 23.45625Q62.534374 24.26875 62.971874 24.675Q63.425 25.08125 64.06563 25.08125Q64.81563 25.08125 65.34688 24.503124Q65.87813 23.925 65.87813 22.9875Q65.87813 22.08125 65.3625 21.565624Q64.8625 21.034374 64.03438 21.034374Q63.534374 21.034374 63.1125 21.26875Q62.70625 21.503124 62.471874 21.8625L61.4875 21.7375L62.315624 17.33125L66.59688 17.33125L66.59688 18.33125L63.159374 18.33125L62.70625 20.64375Q63.471874 20.096874 64.31563 20.096874Q65.44063 20.096874 66.20625 20.878124Q66.9875 21.659374 66.9875 22.89375Q66.9875 24.05 66.31563 24.909374Q65.4875 25.940624 64.06563 25.940624Q62.89375 25.940624 62.14375 25.284374Q61.409374 24.628124 61.3 23.55Z" fill-rule="nonzero"/><path fill="#000000" d="M108.699936 245.18437L108.699936 246.2L103.012436 246.2Q103.012436 245.825 103.137436 245.46562Q103.356186 244.8875 103.824936 244.325Q104.30931 243.7625 105.21556 243.02812Q106.62181 241.87187 107.106186 241.2Q107.606186 240.52812 107.606186 239.93437Q107.606186 239.30937 107.15306 238.8875Q106.699936 238.45 105.981186 238.45Q105.21556 238.45 104.762436 238.90312Q104.30931 239.35625 104.293686 240.16875L103.21556 240.05937Q103.324936 238.84062 104.043686 238.21562Q104.77806 237.575 106.012436 237.575Q107.24681 237.575 107.96556 238.2625Q108.68431 238.95 108.68431 239.96562Q108.68431 240.48125 108.46556 240.98125Q108.262436 241.46562 107.762436 242.02812Q107.27806 242.575 106.15306 243.52812Q105.199936 244.325 104.918686 244.62187Q104.65306 244.90312 104.481186 245.18437L108.699936 245.18437ZM110.15306 241.96562Q110.15306 240.43437 110.46556 239.5125Q110.77806 238.575 111.387436 238.075Q112.012436 237.575 112.949936 237.575Q113.637436 237.575 114.15306 237.85625Q114.68431 238.1375 115.02806 238.66875Q115.37181 239.18437 115.55931 239.93437Q115.74681 240.68437 115.74681 241.96562Q115.74681 243.48125 115.43431 244.40312Q115.137436 245.325 114.512436 245.84062Q113.90306 246.34062 112.949936 246.34062Q111.71556 246.34062 110.99681 245.45Q110.15306 244.3875 110.15306 241.96562ZM111.231186 241.96562Q111.231186 244.075 111.731186 244.77812Q112.231186 245.48125 112.949936 245.48125Q113.68431 245.48125 114.168686 244.77812Q114.668686 244.075 114.668686 241.96562Q114.668686 239.84062 114.168686 239.15312Q113.68431 238.45 112.93431 238.45Q112.21556 238.45 111.77806 239.05937Q111.231186 239.84062 111.231186 241.96562Z" fill-rule="nonzero"/><path fill="#000000" d="M159.6437 246.2L159.6437 244.1375L155.92496 244.1375L155.92496 243.16875L159.84683 237.60625L160.7062 237.60625L160.7062 243.16875L161.86246 243.16875L161.86246 244.1375L160.7062 244.1375L160.7062 246.2L159.6437 246.2ZM159.6437 243.16875L159.6437 239.30937L156.9562 243.16875L159.6437 243.16875ZM163.2687 241.96562Q163.2687 240.43437 163.5812 239.5125Q163.8937 238.575 164.50308 238.075Q165.12808 237.575 166.06558 237.575Q166.75308 237.575 167.2687 237.85625Q167.79996 238.1375 168.1437 238.66875Q168.48746 239.18437 168.67496 239.93437Q168.86246 240.68437 168.86246 241.96562Q168.86246 243.48125 168.54996 244.40312Q168.25308 245.325 167.62808 245.84062Q167.0187 246.34062 166.06558 246.34062Q164.8312 246.34062 164.11246 245.45Q163.2687 244.3875 163.2687 241.96562ZM164.34683 241.96562Q164.34683 244.075 164.84683 244.77812Q165.34683 245.48125 166.06558 245.48125Q166.79996 245.48125 167.28433 244.77812Q167.78433 244.075 167.78433 241.96562Q167.78433 239.84062 167.28433 239.15312Q166.79996 238.45 166.04996 238.45Q165.3312 238.45 164.8937 239.05937Q164.34683 239.84062 164.34683 241.96562Z" fill-rule="nonzero"/><path fill="#000000" d="M211.00935 241.54375Q210.3531 241.29375 210.02498 240.85625Q209.71248 240.40312 209.71248 239.79375Q209.71248 238.85625 210.38435 238.21562Q211.07185 237.575 212.18123 237.575Q213.30623 237.575 213.99373 238.23125Q214.68123 238.8875 214.68123 239.825Q214.68123 240.41875 214.36873 240.85625Q214.05623 241.29375 213.4156 241.54375Q214.21248 241.79375 214.61873 242.37187Q215.02498 242.95 215.02498 243.74687Q215.02498 244.84062 214.24373 245.59062Q213.4781 246.34062 212.19685 246.34062Q210.93123 246.34062 210.14998 245.59062Q209.36873 244.84062 209.36873 243.71562Q209.36873 242.87187 209.7906 242.30937Q210.2281 241.74687 211.00935 241.54375ZM210.7906 239.74687Q210.7906 240.35625 211.18123 240.74687Q211.58748 241.1375 212.21248 241.1375Q212.82185 241.1375 213.21248 240.7625Q213.6031 240.37187 213.6031 239.80937Q213.6031 239.23125 213.19685 238.84062Q212.7906 238.43437 212.19685 238.43437Q211.58748 238.43437 211.18123 238.825Q210.7906 239.21562 210.7906 239.74687ZM210.46248 243.71562Q210.46248 244.16875 210.6656 244.59062Q210.88435 245.0125 211.30623 245.24687Q211.7281 245.48125 212.21248 245.48125Q212.96248 245.48125 213.44685 244.99687Q213.94685 244.5125 213.94685 243.7625Q213.94685 242.99687 213.44685 242.49687Q212.94685 241.99687 212.18123 241.99687Q211.43123 241.99687 210.94685 242.49687Q210.46248 242.98125 210.46248 243.71562ZM216.38435 241.96562Q216.38435 240.43437 216.69685 239.5125Q217.00935 238.575 217.61873 238.075Q218.24373 237.575 219.18123 237.575Q219.86873 237.575 220.38435 237.85625Q220.9156 238.1375 221.25935 238.66875Q221.6031 239.18437 221.7906 239.93437Q221.9781 240.68437 221.9781 241.96562Q221.9781 243.48125 221.6656 244.40312Q221.36873 245.325 220.74373 245.84062Q220.13435 246.34062 219.18123 246.34062Q217.94685 246.34062 217.2281 245.45Q216.38435 244.3875 216.38435 241.96562ZM217.46248 241.96562Q217.46248 244.075 217.96248 244.77812Q218.46248 245.48125 219.18123 245.48125Q219.9156 245.48125 220.39998 244.77812Q220.89998 244.075 220.89998 241.96562Q220.89998 239.84062 220.39998 239.15312Q219.9156 238.45 219.1656 238.45Q218.44685 238.45 218.00935 239.05937Q217.46248 239.84062 217.46248 241.96562Z" fill-rule="nonzero"/><path fill="#000000" d="M262.96875 246.2L261.92188 246.2L261.92188 239.48125Q261.53125 239.84062 260.90625 240.21562Q260.29688 240.575 259.8125 240.74687L259.8125 239.73125Q260.6875 239.30937 261.34375 238.73125Q262.01562 238.1375 262.29688 237.575L262.96875 237.575L262.96875 246.2ZM271.46875 239.71562L270.42188 239.79375Q270.28125 239.16875 270.03125 238.8875Q269.59375 238.43437 268.96875 238.43437Q268.46875 238.43437 268.07812 238.71562Q267.59375 239.09062 267.29688 239.79375Q267.01562 240.48125 267.0 241.7625Q267.375 241.18437 267.92188 240.90312Q268.48438 240.62187 269.09375 240.62187Q270.14062 240.62187 270.875 241.40312Q271.625 242.18437 271.625 243.40312Q271.625 244.21562 271.26562 244.91875Q270.92188 245.60625 270.3125 245.98125Q269.70312 246.34062 268.9375 246.34062Q267.60938 246.34062 266.78125 245.37187Q265.95312 244.40312 265.95312 242.18437Q265.95312 239.68437 266.875 238.55937Q267.67188 237.575 269.03125 237.575Q270.04688 237.575 270.6875 238.15312Q271.34375 238.71562 271.46875 239.71562ZM267.17188 243.41875Q267.17188 243.96562 267.39062 244.46562Q267.625 244.95 268.03125 245.21562Q268.45312 245.48125 268.92188 245.48125Q269.57812 245.48125 270.0625 244.95Q270.54688 244.40312 270.54688 243.48125Q270.54688 242.59062 270.0625 242.075Q269.59375 241.55937 268.875 241.55937Q268.15625 241.55937 267.65625 242.075Q267.17188 242.59062 267.17188 243.41875ZM273.0 241.96562Q273.0 240.43437 273.3125 239.5125Q273.625 238.575 274.23438 238.075Q274.85938 237.575 275.79688 237.575Q276.48438 237.575 277.0 237.85625Q277.53125 238.1375 277.875 238.66875Q278.21875 239.18437 278.40625 239.93437Q278.59375 240.68437 278.59375 241.96562Q278.59375 243.48125 278.28125 244.40312Q277.98438 245.325 277.35938 245.84062Q276.75 246.34062 275.79688 246.34062Q274.5625 246.34062 273.84375 245.45Q273.0 244.3875 273.0 241.96562ZM274.07812 241.96562Q274.07812 244.075 274.57812 244.77812Q275.07812 245.48125 275.79688 245.48125Q276.53125 245.48125 277.01562 244.77812Q277.51562 244.075 277.51562 241.96562Q277.51562 239.84062 277.01562 239.15312Q276.53125 238.45 275.78125 238.45Q275.0625 238.45 274.625 239.05937Q274.07812 239.84062 274.07812 241.96562Z" fill-rule="nonzero"/><path fill="#000000" d="M312.11563 243.93437L313.17813 243.79375Q313.35 244.68437 313.7875 245.09062Q314.225 245.48125 314.85 245.48125Q315.6 245.48125 316.11563 244.96562Q316.63126 244.45 316.63126 243.68437Q316.63126 242.96562 316.14688 242.49687Q315.67813 242.0125 314.94376 242.0125Q314.64688 242.0125 314.19376 242.1375L314.31876 241.2Q314.42813 241.21562 314.49063 241.21562Q315.1625 241.21562 315.69376 240.87187Q316.24063 240.5125 316.24063 239.77812Q316.24063 239.2 315.85 238.825Q315.45938 238.43437 314.83438 238.43437Q314.225 238.43437 313.80313 238.825Q313.39688 239.21562 313.2875 239.98125L312.225 239.79375Q312.4125 238.74687 313.1 238.16875Q313.7875 237.575 314.80313 237.575Q315.50626 237.575 316.1 237.8875Q316.69376 238.18437 317.00626 238.7Q317.31876 239.21562 317.31876 239.80937Q317.31876 240.35625 317.02188 240.825Q316.725 241.27812 316.14688 241.54375Q316.89688 241.71562 317.31876 242.27812Q317.74063 242.825 317.74063 243.66875Q317.74063 244.79375 316.9125 245.575Q316.1 246.35625 314.85 246.35625Q313.725 246.35625 312.975 245.68437Q312.225 244.99687 312.11563 243.93437ZM324.6625 245.18437L324.6625 246.2L318.975 246.2Q318.975 245.825 319.1 245.46562Q319.31876 244.8875 319.7875 244.325Q320.27188 243.7625 321.17813 243.02812Q322.58438 241.87187 323.06876 241.2Q323.56876 240.52812 323.56876 239.93437Q323.56876 239.30937 323.11563 238.8875Q322.6625 238.45 321.94376 238.45Q321.17813 238.45 320.725 238.90312Q320.27188 239.35625 320.25626 240.16875L319.17813 240.05937Q319.2875 238.84062 320.00626 238.21562Q320.74063 237.575 321.975 237.575Q323.20938 237.575 323.92813 238.2625Q324.64688 238.95 324.64688 239.96562Q324.64688 240.48125 324.42813 240.98125Q324.225 241.46562 323.725 242.02812Q323.24063 242.575 322.11563 243.52812Q321.1625 244.325 320.88126 244.62187Q320.61563 244.90312 320.44376 245.18437L324.6625 245.18437ZM326.11563 241.96562Q326.11563 240.43437 326.42813 239.5125Q326.74063 238.575 327.35 238.075Q327.975 237.575 328.9125 237.575Q329.6 237.575 330.11563 237.85625Q330.64688 238.1375 330.99063 238.66875Q331.33438 239.18437 331.52188 239.93437Q331.70938 240.68437 331.70938 241.96562Q331.70938 243.48125 331.39688 244.40312Q331.1 245.325 330.475 245.84062Q329.86563 246.34062 328.9125 246.34062Q327.67813 246.34062 326.95938 245.45Q326.11563 244.3875 326.11563 241.96562ZM327.19376 241.96562Q327.19376 244.075 327.69376 244.77812Q328.19376 245.48125 328.9125 245.48125Q329.64688 245.48125 330.13126 244.77812Q330.63126 244.075 330.63126 241.96562Q330.63126 239.84062 330.13126 239.15312Q329.64688 238.45 328.89688 238.45Q328.17813 238.45 327.74063 239.05937Q327.19376 239.84062 327.19376 241.96562Z" fill-rule="nonzero"/><path fill="#000000" d="M370.70004 239.71562L369.65317 239.79375Q369.51254 239.16875 369.26254 238.8875Q368.82504 238.43437 368.20004 238.43437Q367.70004 238.43437 367.30942 238.71562Q366.82504 239.09062 366.52817 239.79375Q366.24692 240.48125 366.2313 241.7625Q366.6063 241.18437 367.15317 240.90312Q367.71567 240.62187 368.32504 240.62187Q369.37192 240.62187 370.1063 241.40312Q370.8563 242.18437 370.8563 243.40312Q370.8563 244.21562 370.49692 244.91875Q370.15317 245.60625 369.5438 245.98125Q368.93442 246.34062 368.1688 246.34062Q366.84067 246.34062 366.01254 245.37187Q365.18442 244.40312 365.18442 242.18437Q365.18442 239.68437 366.1063 238.55937Q366.90317 237.575 368.26254 237.575Q369.27817 237.575 369.9188 238.15312Q370.57504 238.71562 370.70004 239.71562ZM366.40317 243.41875Q366.40317 243.96562 366.62192 244.46562Q366.8563 244.95 367.26254 245.21562Q367.68442 245.48125 368.15317 245.48125Q368.80942 245.48125 369.2938 244.95Q369.77817 244.40312 369.77817 243.48125Q369.77817 242.59062 369.2938 242.075Q368.82504 241.55937 368.1063 241.55937Q367.38754 241.55937 366.88754 242.075Q366.40317 242.59062 366.40317 243.41875ZM375.6063 246.2L375.6063 244.1375L371.88754 244.1375L371.88754 243.16875L375.80942 237.60625L376.6688 237.60625L376.6688 243.16875L377.82504 243.16875L377.82504 244.1375L376.6688 244.1375L376.6688 246.2L375.6063 246.2ZM375.6063 243.16875L375.6063 239.30937L372.9188 243.16875L375.6063 243.16875ZM379.2313 241.96562Q379.2313 240.43437 379.5438 239.5125Q379.8563 238.575 380.46567 238.075Q381.09067 237.575 382.02817 237.575Q382.71567 237.575 383.2313 237.85625Q383.76254 238.1375 384.1063 238.66875Q384.45004 239.18437 384.63754 239.93437Q384.82504 240.68437 384.82504 241.96562Q384.82504 243.48125 384.51254 244.40312Q384.21567 245.325 383.59067 245.84062Q382.9813 246.34062 382.02817 246.34062Q380.7938 246.34062 380.07504 245.45Q379.2313 244.3875 379.2313 241.96562ZM380.30942 241.96562Q380.30942 244.075 380.80942 244.77812Q381.30942 245.48125 382.02817 245.48125Q382.76254 245.48125 383.24692 244.77812Q383.74692 244.075 383.74692 241.96562Q383.74692 239.84062 383.24692 239.15312Q382.76254 238.45 382.01254 238.45Q381.2938 238.45 380.8563 239.05937Q380.30942 239.84062 380.30942 241.96562Z" fill-rule="nonzero"/><path fill="#000000" d="M418.81567 246.2L417.7688 246.2L417.7688 239.48125Q417.37817 239.84062 416.75317 240.21562Q416.1438 240.575 415.65942 240.74687L415.65942 239.73125Q416.53442 239.30937 417.19067 238.73125Q417.86255 238.1375 418.1438 237.575L418.81567 237.575L418.81567 246.2ZM427.3938 245.18437L427.3938 246.2L421.7063 246.2Q421.7063 245.825 421.8313 245.46562Q422.05005 244.8875 422.5188 244.325Q423.00317 243.7625 423.90942 243.02812Q425.31567 241.87187 425.80005 241.2Q426.30005 240.52812 426.30005 239.93437Q426.30005 239.30937 425.84692 238.8875Q425.3938 238.45 424.67505 238.45Q423.90942 238.45 423.4563 238.90312Q423.00317 239.35625 422.98755 240.16875L421.90942 240.05937Q422.0188 238.84062 422.73755 238.21562Q423.47192 237.575 424.7063 237.575Q425.94067 237.575 426.65942 238.2625Q427.37817 238.95 427.37817 239.96562Q427.37817 240.48125 427.15942 240.98125Q426.9563 241.46562 426.4563 242.02812Q425.97192 242.575 424.84692 243.52812Q423.8938 244.325 423.61255 244.62187Q423.34692 244.90312 423.17505 245.18437L427.3938 245.18437ZM430.47192 241.54375Q429.81567 241.29375 429.48755 240.85625Q429.17505 240.40312 429.17505 239.79375Q429.17505 238.85625 429.84692 238.21562Q430.53442 237.575 431.6438 237.575Q432.7688 237.575 433.4563 238.23125Q434.1438 238.8875 434.1438 239.825Q434.1438 240.41875 433.8313 240.85625Q433.5188 241.29375 432.87817 241.54375Q433.67505 241.79375 434.0813 242.37187Q434.48755 242.95 434.48755 243.74687Q434.48755 244.84062 433.7063 245.59062Q432.94067 246.34062 431.65942 246.34062Q430.3938 246.34062 429.61255 245.59062Q428.8313 244.84062 428.8313 243.71562Q428.8313 242.87187 429.25317 242.30937Q429.69067 241.74687 430.47192 241.54375ZM430.25317 239.74687Q430.25317 240.35625 430.6438 240.74687Q431.05005 241.1375 431.67505 241.1375Q432.28442 241.1375 432.67505 240.7625Q433.06567 240.37187 433.06567 239.80937Q433.06567 239.23125 432.65942 238.84062Q432.25317 238.43437 431.65942 238.43437Q431.05005 238.43437 430.6438 238.825Q430.25317 239.21562 430.25317 239.74687ZM429.92505 243.71562Q429.92505 244.16875 430.12817 244.59062Q430.34692 245.0125 430.7688 245.24687Q431.19067 245.48125 431.67505 245.48125Q432.42505 245.48125 432.90942 244.99687Q433.40942 244.5125 433.40942 243.7625Q433.40942 242.99687 432.90942 242.49687Q432.40942 241.99687 431.6438 241.99687Q430.8938 241.99687 430.40942 242.49687Q429.92505 242.98125 429.92505 243.71562ZM435.84692 241.96562Q435.84692 240.43437 436.15942 239.5125Q436.47192 238.575 437.0813 238.075Q437.7063 237.575 438.6438 237.575Q439.3313 237.575 439.84692 237.85625Q440.37817 238.1375 440.72192 238.66875Q441.06567 239.18437 441.25317 239.93437Q441.44067 240.68437 441.44067 241.96562Q441.44067 243.48125 441.12817 244.40312Q440.8313 245.325 440.2063 245.84062Q439.59692 246.34062 438.6438 246.34062Q437.40942 246.34062 436.69067 245.45Q435.84692 244.3875 435.84692 241.96562ZM436.92505 241.96562Q436.92505 244.075 437.42505 244.77812Q437.92505 245.48125 438.6438 245.48125Q439.37817 245.48125 439.86255 244.77812Q440.36255 244.075 440.36255 241.96562Q440.36255 239.84062 439.86255 239.15312Q439.37817 238.45 438.62817 238.45Q437.90942 238.45 437.47192 239.05937Q436.92505 239.84062 436.92505 241.96562Z" fill-rule="nonzero"/></svg>