<svg version="1.1" viewBox="0.0 0.0 600.0 371.0" fill="none" stroke="none" stroke-linecap="square" stroke-miterlimit="10" width="600" height="371" xmlns:xlink="http://www.w3.org/1999/xlink" xmlns="http://www.w3.org/2000/svg"><path fill="#ffffff" d="M0 0L600.0 0L600.0 371.0L0 371.0L0 0Z" fill-rule="nonzero"/><path stroke="#333333" stroke-width="1.0" stroke-linecap="butt" d="M77.5 300.5L581.5 300.5" fill-rule="nonzero"/><path stroke="#cccccc" stroke-width="1.0" stroke-linecap="butt" d="M77.5 231.5L581.5 231.5" fill-rule="nonzero"/><path stroke="#cccccc" stroke-width="1.0" stroke-linecap="butt" d="M77.5 163.5L581.5 163.5" fill-rule="nonzero"/><path stroke="#cccccc" stroke-width="1.0" stroke-linecap="butt" d="M77.5 94.5L581.5 94.5" fill-rule="nonzero"/><path stroke="#cccccc" stroke-width="1.0" stroke-linecap="butt" d="M77.5 25.5L581.5 25.5" fill-rule="nonzero"/><clipPath id="id_0"><path d="M77.55 25.55L581.45 25.55L581.45 300.45L77.55 300.45L77.55 25.55Z" clip-rule="nonzero"/></clipPath><path stroke="#000000" stroke-width="2.0" stroke-linecap="butt" stroke-opacity="0.0" clip-path="url(#id_0)" d="M228.0 300.0L130.0 300.0L130.0 86.0C130.0 84.89543 130.89543 84.0 132.0 84.0L226.0 84.0C227.10457 84.0 228.0 84.89543 228.0 86.0Z" fill-rule="nonzero"/><path fill="#4285f4" clip-path="url(#id_0)" d="M228.0 300.0L130.0 300.0L130.0 86.0C130.0 84.89543 130.89543 84.0 132.0 84.0L226.0 84.0C227.10457 84.0 228.0 84.89543 228.0 86.0Z" fill-rule="nonzero"/><path stroke="#000000" stroke-width="2.0" stroke-linecap="butt" stroke-opacity="0.0" clip-path="url(#id_0)" d="M379.0 300.0L281.0 300.0L281.0 168.0C281.0 166.89543 281.89542 166.0 283.0 166.0L377.0 166.0C378.10458 166.0 379.0 166.89543 379.0 168.0Z" fill-rule="nonzero"/><path fill="#4285f4" clip-path="url(#id_0)" d="M379.0 300.0L281.0 300.0L281.0 168.0C281.0 166.89543 281.89542 166.0 283.0 166.0L377.0 166.0C378.10458 166.0 379.0 166.89543 379.0 168.0Z" fill-rule="nonzero"/><path stroke="#000000" stroke-width="2.0" stroke-linecap="butt" stroke-opacity="0.0" clip-path="url(#id_0)" d="M529.0 300.0L431.0 300.0L431.0 149.0C431.0 147.89543 431.89542 147.0 433.0 147.0L527.0 147.0C528.10455 147.0 529.0 147.89543 529.0 149.0Z" fill-rule="nonzero"/><path fill="#4285f4" clip-path="url(#id_0)" d="M529.0 300.0L431.0 300.0L431.0 149.0C431.0 147.89543 431.89542 147.0 433.0 147.0L527.0 147.0C528.10455 147.0 529.0 147.89543 529.0 149.0Z" fill-rule="nonzero"/><path fill="#000000" d="M317.92188 349.45L317.92188 340.85626L320.89062 340.85626Q321.89062 340.85626 322.42188 340.98126Q323.15625 341.15314 323.67188 341.59064Q324.35938 342.16876 324.6875 343.075Q325.03125 343.96564 325.03125 345.10626Q325.03125 346.09064 324.79688 346.84064Q324.57812 347.59064 324.21875 348.09064Q323.85938 348.59064 323.42188 348.8719Q323.0 349.15314 322.40625 349.3094Q321.8125 349.45 321.03125 349.45L317.92188 349.45ZM319.0625 348.4344L320.89062 348.4344Q321.75 348.4344 322.23438 348.27814Q322.71875 348.1219 323.0 347.825Q323.40625 347.4344 323.625 346.7469Q323.85938 346.0594 323.85938 345.09064Q323.85938 343.7469 323.40625 343.02814Q322.96875 342.29376 322.34375 342.04376Q321.875 341.8719 320.875 341.8719L319.0625 341.8719L319.0625 348.4344ZM326.92188 349.45L326.92188 340.85626L330.17188 340.85626Q331.01562 340.85626 331.46875 340.9344Q332.10938 341.04376 332.53125 341.34064Q332.96875 341.6375 333.21875 342.16876Q333.48438 342.7 333.48438 343.34064Q333.48438 344.4344 332.78125 345.2Q332.09375 345.95 330.26562 345.95L328.0625 345.95L328.0625 349.45L326.92188 349.45ZM328.0625 344.95L330.28125 344.95Q331.39062 344.95 331.84375 344.54376Q332.3125 344.1219 332.3125 343.3719Q332.3125 342.84064 332.03125 342.46564Q331.76562 342.075 331.32812 341.95Q331.03125 341.8719 330.26562 341.8719L328.0625 341.8719L328.0625 344.95ZM334.95312 349.45L334.95312 340.85626L341.15625 340.85626L341.15625 341.8719L336.09375 341.8719L336.09375 344.4969L340.84375 344.4969L340.84375 345.5125L336.09375 345.5125L336.09375 348.4344L341.35938 348.4344L341.35938 349.45L334.95312 349.45Z" fill-rule="nonzero"/><path fill="#000000" d="M29.550013 219.125L20.956263 219.125L20.956263 215.89062Q20.956263 214.90625 21.221888 214.3125Q21.487513 213.71875 22.034388 213.39062Q22.565638 213.04688 23.159388 213.04688Q23.706263 213.04688 24.190638 213.34375Q24.675013 213.64062 24.971888 214.25Q25.206263 213.46875 25.768763 213.0625Q26.315638 212.64062 27.065638 212.64062Q27.659388 212.64062 28.190638 212.89062Q28.706263 213.14062 28.987513 213.51562Q29.268763 213.89062 29.409388 214.46875Q29.550013 215.03125 29.550013 215.84375L29.550013 219.125ZM24.565638 217.98438L24.565638 216.125Q24.565638 215.375 24.471888 215.04688Q24.346888 214.60938 24.050013 214.39062Q23.737513 214.17188 23.284388 214.17188Q22.862513 214.17188 22.534388 214.375Q22.206263 214.57812 22.096888 214.96875Q21.971888 215.34375 21.971888 216.26562L21.971888 217.98438L24.565638 217.98438ZM28.534388 217.98438L28.534388 215.84375Q28.534388 215.29688 28.487513 215.07812Q28.425013 214.67188 28.268763 214.42188Q28.096888 214.15625 27.784388 213.98438Q27.471888 213.8125 27.065638 213.8125Q26.581263 213.8125 26.221888 214.0625Q25.862513 214.29688 25.721888 214.73438Q25.581263 215.17188 25.581263 216.0L25.581263 217.98438L28.534388 217.98438ZM28.784388 207.14062Q29.284388 207.73438 29.487513 208.28125Q29.690638 208.8125 29.690638 209.4375Q29.690638 210.46875 29.190638 211.01562Q28.690638 211.5625 27.909388 211.5625Q27.456263 211.5625 27.081263 211.35938Q26.690638 211.15625 26.471888 210.8125Q26.237513 210.46875 26.128138 210.04688Q26.034388 209.75 25.956263 209.10938Q25.815638 207.84375 25.596888 207.23438Q25.378138 207.23438 25.331263 207.23438Q24.675013 207.23438 24.409388 207.53125Q24.065638 207.9375 24.065638 208.73438Q24.065638 209.46875 24.331263 209.82812Q24.581263 210.1875 25.237513 210.35938L25.096888 211.39062Q24.440638 211.25 24.034388 210.92188Q23.628138 210.59375 23.409388 209.98438Q23.190638 209.375 23.190638 208.57812Q23.190638 207.78125 23.378138 207.28125Q23.565638 206.78125 23.846888 206.54688Q24.128138 206.3125 24.565638 206.21875Q24.831263 206.17188 25.534388 206.17188L26.940638 206.17188Q28.409388 206.17188 28.800013 206.10938Q29.190638 206.03125 29.550013 205.82812L29.550013 206.9375Q29.221888 207.09375 28.784388 207.14062ZM26.425013 207.23438Q26.659388 207.8125 26.831263 208.95312Q26.925013 209.60938 27.050013 209.875Q27.159388 210.14062 27.378138 210.29688Q27.596888 210.4375 27.878138 210.4375Q28.300013 210.4375 28.581263 210.125Q28.862513 209.79688 28.862513 209.1875Q28.862513 208.57812 28.596888 208.10938Q28.331263 207.625 27.862513 207.40625Q27.503138 207.23438 26.815638 207.23438L26.425013 207.23438ZM29.550013 204.20312L23.331263 204.20312L23.331263 203.26562L24.206263 203.26562Q23.190638 202.57812 23.190638 201.28125Q23.190638 200.71875 23.393763 200.25Q23.596888 199.76562 23.925013 199.53125Q24.253138 199.29688 24.690638 199.20312Q24.987513 199.15625 25.721888 199.15625L29.550013 199.15625L29.550013 200.20312L25.768763 200.20312Q25.112513 200.20312 24.800013 200.32812Q24.487513 200.45312 24.300013 200.76562Q24.096888 201.07812 24.096888 201.5Q24.096888 202.17188 24.534388 202.67188Q24.956263 203.15625 26.143763 203.15625L29.550013 203.15625L29.550013 204.20312ZM29.550013 193.17188L28.768763 193.17188Q29.690638 193.76562 29.690638 194.90625Q29.690638 195.65625 29.284388 196.28125Q28.862513 196.90625 28.128138 197.25Q27.393763 197.59375 26.440638 197.59375Q25.518763 197.59375 24.753138 197.28125Q23.987513 196.96875 23.596888 196.34375Q23.190638 195.71875 23.190638 194.95312Q23.190638 194.39062 23.425013 193.95312Q23.659388 193.51562 24.034388 193.23438L20.956263 193.23438L20.956263 192.1875L29.550013 192.1875L29.550013 193.17188ZM26.440638 196.5Q27.643763 196.5 28.237513 196.0Q28.815638 195.5 28.815638 194.8125Q28.815638 194.125 28.253138 193.64062Q27.690638 193.15625 26.534388 193.15625Q25.253138 193.15625 24.659388 193.65625Q24.065638 194.14062 24.065638 194.85938Q24.065638 195.5625 24.643763 196.03125Q25.206263 196.5 26.440638 196.5ZM29.550013 189.0625L23.331263 190.96875L23.331263 189.875L26.925013 188.89062L28.253138 188.51562Q28.159388 188.48438 26.971888 188.1875L23.331263 187.20312L23.331263 186.125L26.940638 185.1875L28.128138 184.875L26.925013 184.51562L23.331263 183.45312L23.331263 182.42188L29.550013 184.375L29.550013 185.46875L25.815638 186.45312L24.768763 186.70312L29.550013 187.95312L29.550013 189.0625ZM22.175013 181.20312L20.956263 181.20312L20.956263 180.14062L22.175013 180.14062L22.175013 181.20312ZM29.550013 181.20312L23.331263 181.20312L23.331263 180.14062L29.550013 180.14062L29.550013 181.20312ZM29.550013 174.17188L28.768763 174.17188Q29.690638 174.76562 29.690638 175.90625Q29.690638 176.65625 29.284388 177.28125Q28.862513 177.90625 28.128138 178.25Q27.393763 178.59375 26.440638 178.59375Q25.518763 178.59375 24.753138 178.28125Q23.987513 177.96875 23.596888 177.34375Q23.190638 176.71875 23.190638 175.95312Q23.190638 175.39062 23.425013 174.95312Q23.659388 174.51562 24.034388 174.23438L20.956263 174.23438L20.956263 173.1875L29.550013 173.1875L29.550013 174.17188ZM26.440638 177.5Q27.643763 177.5 28.237513 177.0Q28.815638 176.5 28.815638 175.8125Q28.815638 175.125 28.253138 174.64062Q27.690638 174.15625 26.534388 174.15625Q25.253138 174.15625 24.659388 174.65625Q24.065638 175.14062 24.065638 175.85938Q24.065638 176.5625 24.643763 177.03125Q25.206263 177.5 26.440638 177.5ZM28.612513 168.90625L29.534388 168.75Q29.628138 169.20312 29.628138 169.54688Q29.628138 170.125 29.456263 170.4375Q29.268763 170.75 28.971888 170.89062Q28.675013 171.01562 27.721888 171.01562L24.143763 171.01562L24.143763 171.78125L23.331263 171.78125L23.331263 171.01562L21.784388 171.01562L21.159388 169.96875L23.331263 169.96875L23.331263 168.90625L24.143763 168.90625L24.143763 169.96875L27.784388 169.96875Q28.237513 169.96875 28.362513 169.92188Q28.487513 169.85938 28.565638 169.73438Q28.643763 169.60938 28.643763 169.375Q28.643763 169.1875 28.612513 168.90625ZM29.550013 168.20312L20.956263 168.20312L20.956263 167.15625L24.034388 167.15625Q23.190638 166.42188 23.190638 165.29688Q23.190638 164.59375 23.471888 164.09375Q23.737513 163.57812 24.221888 163.35938Q24.690638 163.14062 25.612513 163.14062L29.550013 163.14062L29.550013 164.1875L25.612513 164.1875Q24.815638 164.1875 24.456263 164.53125Q24.096888 164.875 24.096888 165.5Q24.096888 165.96875 24.346888 166.39062Q24.581263 166.79688 25.003138 166.98438Q25.409388 167.15625 26.143763 167.15625L29.550013 167.15625L29.550013 168.20312ZM32.08126 156.1875Q30.971888 157.0625 29.503138 157.67188Q28.018763 158.26562 26.440638 158.26562Q25.050013 158.26562 23.768763 157.82812Q22.284388 157.29688 20.815638 156.1875L20.815638 155.4375Q22.034388 156.14062 22.550013 156.375Q23.362513 156.73438 24.237513 156.9375Q25.331263 157.1875 26.440638 157.1875Q29.268763 157.1875 32.08126 155.4375L32.08126 156.1875ZM26.175013 150.04688L25.175013 150.04688L25.159388 146.42188L28.346888 146.42188Q29.018763 147.25 29.362513 148.14062Q29.690638 149.03125 29.690638 149.96875Q29.690638 151.23438 29.159388 152.28125Q28.612513 153.3125 27.596888 153.84375Q26.565638 154.35938 25.300013 154.35938Q24.034388 154.35938 22.956263 153.84375Q21.862513 153.3125 21.346888 152.32812Q20.815638 151.34375 20.815638 150.0625Q20.815638 149.125 21.112513 148.375Q21.409388 147.625 21.956263 147.20312Q22.487513 146.76562 23.362513 146.54688L23.643763 147.5625Q22.987513 147.76562 22.612513 148.0625Q22.237513 148.34375 22.018763 148.875Q21.784388 149.40625 21.784388 150.04688Q21.784388 150.82812 22.018763 151.40625Q22.253138 151.96875 22.643763 152.32812Q23.034388 152.67188 23.503138 152.85938Q24.300013 153.1875 25.221888 153.1875Q26.378138 153.1875 27.159388 152.79688Q27.925013 152.39062 28.300013 151.64062Q28.675013 150.89062 28.675013 150.03125Q28.675013 149.29688 28.393763 148.59375Q28.096888 147.89062 27.784388 147.53125L26.175013 147.53125L26.175013 150.04688ZM29.550013 145.125L20.956263 145.125L20.956263 141.89062Q20.956263 140.90625 21.221888 140.3125Q21.487513 139.71875 22.034388 139.39062Q22.565638 139.04688 23.159388 139.04688Q23.706263 139.04688 24.190638 139.34375Q24.675013 139.64062 24.971888 140.25Q25.206263 139.46875 25.768763 139.0625Q26.315638 138.64062 27.065638 138.64062Q27.659388 138.64062 28.190638 138.89062Q28.706263 139.14062 28.987513 139.51562Q29.268763 139.89062 29.409388 140.46875Q29.550013 141.03125 29.550013 141.84375L29.550013 145.125ZM24.565638 143.98438L24.565638 142.125Q24.565638 141.375 24.471888 141.04688Q24.346888 140.60938 24.050013 140.39062Q23.737513 140.17188 23.284388 140.17188Q22.862513 140.17188 22.534388 140.375Q22.206263 140.57812 22.096888 140.96875Q21.971888 141.34375 21.971888 142.26562L21.971888 143.98438L24.565638 143.98438ZM28.534388 143.98438L28.534388 141.84375Q28.534388 141.29688 28.487513 141.07812Q28.425013 140.67188 28.268763 140.42188Q28.096888 140.15625 27.784388 139.98438Q27.471888 139.8125 27.065638 139.8125Q26.581263 139.8125 26.221888 140.0625Q25.862513 140.29688 25.721888 140.73438Q25.581263 141.17188 25.581263 142.0L25.581263 143.98438L28.534388 143.98438ZM29.550013 137.07812L20.956263 137.07812L20.956263 133.82812Q20.956263 132.98438 21.034388 132.53125Q21.143763 131.89062 21.440638 131.46875Q21.737513 131.03125 22.268763 130.78125Q22.800013 130.51562 23.440638 130.51562Q24.534388 130.51562 25.300013 131.21875Q26.050013 131.90625 26.050013 133.73438L26.050013 135.9375L29.550013 135.9375L29.550013 137.07812ZM25.050013 135.9375L25.050013 133.71875Q25.050013 132.60938 24.643763 132.15625Q24.221888 131.6875 23.471888 131.6875Q22.940638 131.6875 22.565638 131.96875Q22.175013 132.23438 22.050013 132.67188Q21.971888 132.96875 21.971888 133.73438L21.971888 135.9375L25.050013 135.9375ZM27.690638 129.625L27.534388 128.59375Q28.159388 128.5 28.487513 128.10938Q28.815638 127.703125 28.815638 126.96875Q28.815638 126.25 28.534388 125.90625Q28.237513 125.546875 27.831263 125.546875Q27.471888 125.546875 27.268763 125.859375Q27.128138 126.078125 26.909388 126.9375Q26.612513 128.09375 26.409388 128.54688Q26.190638 128.98438 25.815638 129.21875Q25.440638 129.45312 24.971888 129.45312Q24.565638 129.45312 24.206263 129.26562Q23.846888 129.07812 23.612513 128.75Q23.440638 128.5 23.315638 128.07812Q23.190638 127.65625 23.190638 127.15625Q23.190638 126.4375 23.409388 125.890625Q23.612513 125.328125 23.971888 125.0625Q24.331263 124.796875 24.925013 124.703125L25.065638 125.734375Q24.596888 125.796875 24.331263 126.140625Q24.050013 126.46875 24.050013 127.09375Q24.050013 127.8125 24.300013 128.125Q24.534388 128.4375 24.862513 128.4375Q25.065638 128.4375 25.221888 128.3125Q25.393763 128.17188 25.503138 127.90625Q25.565638 127.75 25.768763 126.96875Q26.081263 125.84375 26.268763 125.40625Q26.456263 124.96875 26.815638 124.71875Q27.175013 124.46875 27.721888 124.46875Q28.253138 124.46875 28.721888 124.78125Q29.175013 125.078125 29.440638 125.65625Q29.690638 126.234375 29.690638 126.96875Q29.690638 128.1875 29.190638 128.82812Q28.675013 129.45312 27.690638 129.625ZM32.08126 121.515625L32.08126 122.265625Q29.268763 120.515625 26.440638 120.515625Q25.346888 120.515625 24.253138 120.765625Q23.378138 120.96875 22.565638 121.328125Q22.050013 121.5625 20.815638 122.265625L20.815638 121.515625Q22.284388 120.421875 23.768763 119.890625Q25.050013 119.4375 26.440638 119.4375Q28.018763 119.4375 29.503138 120.046875Q30.971888 120.65625 32.08126 121.515625Z" fill-rule="nonzero"/><path fill="#000000" d="M65.05 300.21564Q65.05 298.6844 65.3625 297.7625Q65.675 296.825 66.28438 296.325Q66.90938 295.825 67.84688 295.825Q68.53438 295.825 69.05 296.10626Q69.58125 296.3875 69.925 296.91876Q70.26875 297.4344 70.45625 298.1844Q70.64375 298.9344 70.64375 300.21564Q70.64375 301.73126 70.33125 302.65314Q70.03438 303.575 69.40938 304.09064Q68.8 304.59064 67.84688 304.59064Q66.6125 304.59064 65.89375 303.7Q65.05 302.6375 65.05 300.21564ZM66.12813 300.21564Q66.12813 302.325 66.62813 303.02814Q67.12813 303.73126 67.84688 303.73126Q68.58125 303.73126 69.06563 303.02814Q69.56563 302.325 69.56563 300.21564Q69.56563 298.09064 69.06563 297.40314Q68.58125 296.7 67.83125 296.7Q67.1125 296.7 66.675 297.3094Q66.12813 298.09064 66.12813 300.21564Z" fill-rule="nonzero"/><path fill="#000000" d="M65.05 233.475L66.15938 233.38126Q66.28438 234.19376 66.72188 234.6Q67.175 235.00626 67.81563 235.00626Q68.56563 235.00626 69.09688 234.42813Q69.62813 233.85 69.62813 232.9125Q69.62813 232.00626 69.1125 231.49063Q68.6125 230.95938 67.78438 230.95938Q67.28438 230.95938 66.8625 231.19376Q66.45625 231.42813 66.22188 231.7875L65.2375 231.6625L66.06563 227.25626L70.34688 227.25626L70.34688 228.25626L66.90938 228.25626L66.45625 230.56876Q67.22188 230.02188 68.06563 230.02188Q69.19063 230.02188 69.95625 230.80313Q70.7375 231.58438 70.7375 232.81876Q70.7375 233.975 70.06563 234.83438Q69.2375 235.86563 67.81563 235.86563Q66.64375 235.86563 65.89375 235.20938Q65.15938 234.55313 65.05 233.475Z" fill-rule="nonzero"/><path fill="#000000" d="M62.01875 167.0L60.971874 167.0L60.971874 160.28125Q60.58125 160.64062 59.95625 161.01562Q59.346874 161.375 58.8625 161.54688L58.8625 160.53125Q59.7375 160.10938 60.39375 159.53125Q61.065624 158.9375 61.346874 158.375L62.01875 158.375L62.01875 167.0ZM65.05 162.76562Q65.05 161.23438 65.3625 160.3125Q65.675 159.375 66.28438 158.875Q66.90938 158.375 67.84688 158.375Q68.53438 158.375 69.05 158.65625Q69.58125 158.9375 69.925 159.46875Q70.26875 159.98438 70.45625 160.73438Q70.64375 161.48438 70.64375 162.76562Q70.64375 164.28125 70.33125 165.20312Q70.03438 166.125 69.40938 166.64062Q68.8 167.14062 67.84688 167.14062Q66.6125 167.14062 65.89375 166.25Q65.05 165.1875 65.05 162.76562ZM66.12813 162.76562Q66.12813 164.875 66.62813 165.57812Q67.12813 166.28125 67.84688 166.28125Q68.58125 166.28125 69.06563 165.57812Q69.56563 164.875 69.56563 162.76562Q69.56563 160.64062 69.06563 159.95312Q68.58125 159.25 67.83125 159.25Q67.1125 159.25 66.675 159.85938Q66.12813 160.64062 66.12813 162.76562Z" fill-rule="nonzero"/><path fill="#000000" d="M62.01875 98.275L60.971874 98.275L60.971874 91.55625Q60.58125 91.91563 59.95625 92.29063Q59.346874 92.65 58.8625 92.82188L58.8625 91.80625Q59.7375 91.38438 60.39375 90.80625Q61.065624 90.2125 61.346874 89.65L62.01875 89.65L62.01875 98.275ZM65.05 96.025L66.15938 95.93125Q66.28438 96.74375 66.72188 97.15Q67.175 97.55625 67.81563 97.55625Q68.56563 97.55625 69.09688 96.97813Q69.62813 96.4 69.62813 95.4625Q69.62813 94.55625 69.1125 94.04063Q68.6125 93.50938 67.78438 93.50938Q67.28438 93.50938 66.8625 93.74375Q66.45625 93.97813 66.22188 94.3375L65.2375 94.2125L66.06563 89.80625L70.34688 89.80625L70.34688 90.80625L66.90938 90.80625L66.45625 93.11875Q67.22188 92.57188 68.06563 92.57188Q69.19063 92.57188 69.95625 93.35313Q70.7375 94.13438 70.7375 95.36875Q70.7375 96.525 70.06563 97.38438Q69.2375 98.41563 67.81563 98.41563Q66.64375 98.41563 65.89375 97.75938Q65.15938 97.10313 65.05 96.025Z" fill-rule="nonzero"/><path fill="#000000" d="M63.596874 28.534374L63.596874 29.55L57.909374 29.55Q57.909374 29.175 58.034374 28.815624Q58.253124 28.2375 58.721874 27.675Q59.20625 27.1125 60.1125 26.378124Q61.51875 25.221874 62.003124 24.55Q62.503124 23.878124 62.503124 23.284374Q62.503124 22.659374 62.05 22.2375Q61.596874 21.8 60.878124 21.8Q60.1125 21.8 59.659374 22.253124Q59.20625 22.70625 59.190624 23.51875L58.1125 23.409374Q58.221874 22.190624 58.940624 21.565624Q59.675 20.925 60.909374 20.925Q62.14375 20.925 62.8625 21.6125Q63.58125 22.3 63.58125 23.315624Q63.58125 23.83125 63.3625 24.33125Q63.159374 24.815624 62.659374 25.378124Q62.175 25.925 61.05 26.878124Q60.096874 27.675 59.815624 27.971874Q59.55 28.253124 59.378124 28.534374L63.596874 28.534374ZM65.05 25.315624Q65.05 23.784374 65.3625 22.8625Q65.675 21.925 66.28438 21.425Q66.90938 20.925 67.84688 20.925Q68.53438 20.925 69.05 21.20625Q69.58125 21.4875 69.925 22.01875Q70.26875 22.534374 70.45625 23.284374Q70.64375 24.034374 70.64375 25.315624Q70.64375 26.83125 70.33125 27.753124Q70.03438 28.675 69.40938 29.190624Q68.8 29.690624 67.84688 29.690624Q66.6125 29.690624 65.89375 28.8Q65.05 27.7375 65.05 25.315624ZM66.12813 25.315624Q66.12813 27.425 66.62813 28.128124Q67.12813 28.83125 67.84688 28.83125Q68.58125 28.83125 69.06563 28.128124Q69.56563 27.425 69.56563 25.315624Q69.56563 23.190624 69.06563 22.503124Q68.58125 21.8 67.83125 21.8Q67.1125 21.8 66.675 22.409374Q66.12813 23.190624 66.12813 25.315624Z" fill-rule="nonzero"/><path fill="#000000" d="M164.47272 317.45L164.47272 308.85626L166.19147 308.85626L168.22272 314.9344Q168.50397 315.79376 168.62897 316.21564Q168.76959 315.7469 169.08209 314.84064L171.14459 308.85626L172.67584 308.85626L172.67584 317.45L171.58209 317.45L171.58209 310.2625L169.08209 317.45L168.05084 317.45L165.56647 310.1375L165.56647 317.45L164.47272 317.45ZM173.37897 310.075L173.37897 308.85626L174.44147 308.85626L174.44147 310.075L173.37897 310.075ZM173.37897 317.45L173.37897 311.23126L174.44147 311.23126L174.44147 317.45L173.37897 317.45ZM176.37897 317.45L176.37897 311.23126L177.31647 311.23126L177.31647 312.10626Q178.00397 311.09064 179.30084 311.09064Q179.86334 311.09064 180.33209 311.29376Q180.81647 311.4969 181.05084 311.825Q181.28522 312.15314 181.37897 312.59064Q181.42584 312.8875 181.42584 313.6219L181.42584 317.45L180.37897 317.45L180.37897 313.66876Q180.37897 313.0125 180.25397 312.7Q180.12897 312.3875 179.81647 312.2Q179.50397 311.9969 179.08209 311.9969Q178.41022 311.9969 177.91022 312.4344Q177.42584 312.85626 177.42584 314.04376L177.42584 317.45L176.37897 317.45ZM183.70709 317.45L183.70709 308.85626L184.83209 308.85626L184.83209 317.45L183.70709 317.45ZM186.16022 313.2625Q186.16022 311.1219 187.30084 309.91876Q188.45709 308.7 190.26959 308.7Q191.47272 308.7 192.42584 309.27814Q193.37897 309.84064 193.87897 310.85626Q194.37897 311.8719 194.37897 313.16876Q194.37897 314.46564 193.84772 315.4969Q193.31647 316.52814 192.34772 317.0594Q191.39459 317.59064 190.26959 317.59064Q189.05084 317.59064 188.09772 317.0125Q187.14459 316.41876 186.64459 315.41876Q186.16022 314.40314 186.16022 313.2625ZM187.33209 313.27814Q187.33209 314.84064 188.16022 315.73126Q189.00397 316.6219 190.26959 316.6219Q191.55084 316.6219 192.37897 315.73126Q193.20709 314.825 193.20709 313.15314Q193.20709 312.10626 192.84772 311.325Q192.50397 310.54376 191.81647 310.1219Q191.12897 309.6844 190.28522 309.6844Q189.08209 309.6844 188.20709 310.5125Q187.33209 311.34064 187.33209 313.27814Z" fill-rule="nonzero"/><path fill="#000000" d="M321.4375 317.45L321.4375 308.85626L325.25 308.85626Q326.40625 308.85626 327.0 309.09064Q327.59375 309.325 327.95312 309.91876Q328.3125 310.4969 328.3125 311.2Q328.3125 312.1219 327.71875 312.7469Q327.125 313.3719 325.89062 313.54376Q326.34375 313.7625 326.57812 313.96564Q327.07812 314.41876 327.51562 315.10626L329.01562 317.45L327.57812 317.45L326.45312 315.66876Q325.95312 314.8875 325.625 314.48126Q325.3125 314.075 325.04688 313.91876Q324.79688 313.7469 324.53125 313.66876Q324.34375 313.6375 323.90625 313.6375L322.57812 313.6375L322.57812 317.45L321.4375 317.45ZM322.57812 312.65314L325.03125 312.65314Q325.79688 312.65314 326.23438 312.4969Q326.6875 312.325 326.90625 311.98126Q327.14062 311.6219 327.14062 311.2Q327.14062 310.59064 326.6875 310.2Q326.25 309.8094 325.29688 309.8094L322.57812 309.8094L322.57812 312.65314ZM330.4375 317.45L330.4375 308.85626L334.25 308.85626Q335.40625 308.85626 336.0 309.09064Q336.59375 309.325 336.95312 309.91876Q337.3125 310.4969 337.3125 311.2Q337.3125 312.1219 336.71875 312.7469Q336.125 313.3719 334.89062 313.54376Q335.34375 313.7625 335.57812 313.96564Q336.07812 314.41876 336.51562 315.10626L338.01562 317.45L336.57812 317.45L335.45312 315.66876Q334.95312 314.8875 334.625 314.48126Q334.3125 314.075 334.04688 313.91876Q333.79688 313.7469 333.53125 313.66876Q333.34375 313.6375 332.90625 313.6375L331.57812 313.6375L331.57812 317.45L330.4375 317.45ZM331.57812 312.65314L334.03125 312.65314Q334.79688 312.65314 335.23438 312.4969Q335.6875 312.325 335.90625 311.98126Q336.14062 311.6219 336.14062 311.2Q336.14062 310.59064 335.6875 310.2Q335.25 309.8094 334.29688 309.8094L331.57812 309.8094L331.57812 312.65314Z" fill-rule="nonzero"/><path fill="#000000" d="M465.8554 317.45L465.8554 308.85626L469.6679 308.85626Q470.82416 308.85626 471.4179 309.09064Q472.01166 309.325 472.37103 309.91876Q472.7304 310.4969 472.7304 311.2Q472.7304 312.1219 472.13666 312.7469Q471.5429 313.3719 470.30853 313.54376Q470.76166 313.7625 470.99603 313.96564Q471.49603 314.41876 471.93353 315.10626L473.43353 317.45L471.99603 317.45L470.87103 315.66876Q470.37103 314.8875 470.0429 314.48126Q469.7304 314.075 469.46478 313.91876Q469.21478 313.7469 468.94916 313.66876Q468.76166 313.6375 468.32416 313.6375L466.99603 313.6375L466.99603 317.45L465.8554 317.45ZM466.99603 312.65314L469.44916 312.65314Q470.21478 312.65314 470.65228 312.4969Q471.1054 312.325 471.32416 311.98126Q471.55853 311.6219 471.55853 311.2Q471.55853 310.59064 471.1054 310.2Q470.6679 309.8094 469.71478 309.8094L466.99603 309.8094L466.99603 312.65314ZM478.77728 316.6844Q478.18353 317.1844 477.63666 317.3875Q477.1054 317.59064 476.4804 317.59064Q475.44916 317.59064 474.90228 317.09064Q474.3554 316.59064 474.3554 315.8094Q474.3554 315.35626 474.55853 314.98126Q474.76166 314.59064 475.1054 314.3719Q475.44916 314.1375 475.87103 314.02814Q476.1679 313.9344 476.80853 313.85626Q478.07416 313.71564 478.68353 313.4969Q478.68353 313.27814 478.68353 313.23126Q478.68353 312.575 478.38666 312.3094Q477.9804 311.96564 477.18353 311.96564Q476.44916 311.96564 476.08978 312.23126Q475.7304 312.48126 475.55853 313.1375L474.52728 312.9969Q474.6679 312.34064 474.99603 311.9344Q475.32416 311.52814 475.93353 311.3094Q476.5429 311.09064 477.33978 311.09064Q478.13666 311.09064 478.63666 311.27814Q479.13666 311.46564 479.37103 311.7469Q479.6054 312.02814 479.69916 312.46564Q479.74603 312.73126 479.74603 313.4344L479.74603 314.84064Q479.74603 316.3094 479.80853 316.7Q479.88666 317.09064 480.08978 317.45L478.9804 317.45Q478.82416 317.1219 478.77728 316.6844ZM478.68353 314.325Q478.1054 314.5594 476.96478 314.73126Q476.30853 314.825 476.0429 314.95Q475.77728 315.0594 475.62103 315.27814Q475.4804 315.4969 475.4804 315.77814Q475.4804 316.2 475.7929 316.48126Q476.12103 316.7625 476.7304 316.7625Q477.33978 316.7625 477.80853 316.4969Q478.2929 316.23126 478.51166 315.7625Q478.68353 315.40314 478.68353 314.71564L478.68353 314.325ZM481.71478 317.45L481.71478 311.23126L482.65228 311.23126L482.65228 312.10626Q483.33978 311.09064 484.63666 311.09064Q485.19916 311.09064 485.6679 311.29376Q486.15228 311.4969 486.38666 311.825Q486.62103 312.15314 486.71478 312.59064Q486.76166 312.8875 486.76166 313.6219L486.76166 317.45L485.71478 317.45L485.71478 313.66876Q485.71478 313.0125 485.58978 312.7Q485.46478 312.3875 485.15228 312.2Q484.83978 311.9969 484.4179 311.9969Q483.74603 311.9969 483.24603 312.4344Q482.76166 312.85626 482.76166 314.04376L482.76166 317.45L481.71478 317.45ZM492.74603 317.45L492.74603 316.66876Q492.15228 317.59064 491.01166 317.59064Q490.26166 317.59064 489.63666 317.1844Q489.01166 316.7625 488.6679 316.02814Q488.32416 315.29376 488.32416 314.34064Q488.32416 313.41876 488.63666 312.65314Q488.94916 311.8875 489.57416 311.4969Q490.19916 311.09064 490.96478 311.09064Q491.52728 311.09064 491.96478 311.325Q492.40228 311.5594 492.68353 311.9344L492.68353 308.85626L493.7304 308.85626L493.7304 317.45L492.74603 317.45ZM489.4179 314.34064Q489.4179 315.54376 489.9179 316.1375Q490.4179 316.71564 491.1054 316.71564Q491.7929 316.71564 492.27728 316.15314Q492.76166 315.59064 492.76166 314.4344Q492.76166 313.15314 492.26166 312.5594Q491.77728 311.96564 491.05853 311.96564Q490.3554 311.96564 489.88666 312.54376Q489.4179 313.10626 489.4179 314.34064Z" fill-rule="nonzero"/></svg>