<svg version="1.1" viewBox="0.0 0.0 600.0 371.0" fill="none" stroke="none" stroke-linecap="square" stroke-miterlimit="10" width="600" height="371" xmlns:xlink="http://www.w3.org/1999/xlink" xmlns="http://www.w3.org/2000/svg"><path fill="#ffffff" d="M0 0L600.0 0L600.0 371.0L0 371.0L0 0Z" fill-rule="nonzero"/><path stroke="#cccccc" stroke-width="1.0" stroke-linecap="butt" d="M115.5 51.5L115.5 300.5" fill-rule="nonzero"/><path stroke="#cccccc" stroke-width="1.0" stroke-linecap="butt" d="M202.5 51.5L202.5 300.5" fill-rule="nonzero"/><path stroke="#cccccc" stroke-width="1.0" stroke-linecap="butt" d="M289.5 51.5L289.5 300.5" fill-rule="nonzero"/><path stroke="#cccccc" stroke-width="1.0" stroke-linecap="butt" d="M376.5 51.5L376.5 300.5" fill-rule="nonzero"/><path stroke="#cccccc" stroke-width="1.0" stroke-linecap="butt" d="M463.5 51.5L463.5 300.5" fill-rule="nonzero"/><path stroke="#333333" stroke-width="1.0" stroke-linecap="butt" d="M77.5 300.5L522.5 300.5" fill-rule="nonzero"/><path stroke="#cccccc" stroke-width="1.0" stroke-linecap="butt" d="M77.5 217.5L522.5 217.5" fill-rule="nonzero"/><path stroke="#cccccc" stroke-width="1.0" stroke-linecap="butt" d="M77.5 134.5L522.5 134.5" fill-rule="nonzero"/><path stroke="#cccccc" stroke-width="1.0" stroke-linecap="butt" d="M77.5 51.5L522.5 51.5" fill-rule="nonzero"/><clipPath id="id_0"><path d="M77.55 51.916668L522.45 51.916668L522.45 300.45L77.55 300.45L77.55 51.916668Z" clip-rule="nonzero"/></clipPath><path stroke="#4285f4" stroke-width="2.0" stroke-linecap="butt" clip-path="url(#id_0)" d="M77.55 292.3272L188.775 273.10486L300.0 234.17444L522.45 76.77" fill-rule="nonzero"/><path stroke="#ea4335" stroke-width="2.0" stroke-linecap="butt" clip-path="url(#id_0)" d="M77.55 292.0108L188.775 274.79044L300.0 240.2254L522.45 93.61161" fill-rule="nonzero"/><path fill="#000000" fill-opacity="0.0" clip-path="url(#id_0)" d="M80.55 292.3272C80.55 293.98407 79.206856 295.3272 77.55 295.3272C75.89314 295.3272 74.55 293.98407 74.55 292.3272C74.55 290.67035 75.89314 289.3272 77.55 289.3272C79.206856 289.3272 80.55 290.67035 80.55 292.3272Z" fill-rule="nonzero"/><path fill="#000000" fill-opacity="0.0" clip-path="url(#id_0)" d="M191.775 273.10486C191.775 274.76172 190.43185 276.10486 188.775 276.10486C187.11815 276.10486 185.775 274.76172 185.775 273.10486C185.775 271.448 187.11815 270.10486 188.775 270.10486C190.43185 270.10486 191.775 271.448 191.775 273.10486Z" fill-rule="nonzero"/><path fill="#000000" fill-opacity="0.0" clip-path="url(#id_0)" d="M303.0 234.17444C303.0 235.8313 301.65686 237.17444 300.0 237.17444C298.34314 237.17444 297.0 235.8313 297.0 234.17444C297.0 232.5176 298.34314 231.17444 300.0 231.17444C301.65686 231.17444 303.0 232.5176 303.0 234.17444Z" fill-rule="nonzero"/><path fill="#000000" fill-opacity="0.0" clip-path="url(#id_0)" d="M525.45 76.77C525.45 78.42686 524.1069 79.77 522.45 79.77C520.79315 79.77 519.45 78.42686 519.45 76.77C519.45 75.113144 520.79315 73.77 522.45 73.77C524.1069 73.77 525.45 75.113144 525.45 76.77Z" fill-rule="nonzero"/><path fill="#000000" fill-opacity="0.0" clip-path="url(#id_0)" d="M80.55 292.0108C80.55 293.66766 79.206856 295.0108 77.55 295.0108C75.89314 295.0108 74.55 293.66766 74.55 292.0108C74.55 290.35394 75.89314 289.0108 77.55 289.0108C79.206856 289.0108 80.55 290.35394 80.55 292.0108Z" fill-rule="nonzero"/><path fill="#000000" fill-opacity="0.0" clip-path="url(#id_0)" d="M191.775 274.79044C191.775 276.44727 190.43185 277.79044 188.775 277.79044C187.11815 277.79044 185.775 276.44727 185.775 274.79044C185.775 273.13358 187.11815 271.79044 188.775 271.79044C190.43185 271.79044 191.775 273.13358 191.775 274.79044Z" fill-rule="nonzero"/><path fill="#000000" fill-opacity="0.0" clip-path="url(#id_0)" d="M303.0 240.2254C303.0 241.88226 301.65686 243.2254 300.0 243.2254C298.34314 243.2254 297.0 241.88226 297.0 240.2254C297.0 238.56854 298.34314 237.2254 300.0 237.2254C301.65686 237.2254 303.0 238.56854 303.0 240.2254Z" fill-rule="nonzero"/><path fill="#000000" fill-opacity="0.0" clip-path="url(#id_0)" d="M525.45 93.61161C525.45 95.26847 524.1069 96.61161 522.45 96.61161C520.79315 96.61161 519.45 95.26847 519.45 93.61161C519.45 91.95476 520.79315 90.61161 522.45 90.61161C524.1069 90.61161 525.45 91.95476 525.45 93.61161Z" fill-rule="nonzero"/><path fill="#000000" d="M297.375 349.45L297.375 340.85626L298.51562 340.85626L298.51562 348.4344L302.75 348.4344L302.75 349.45L297.375 349.45Z" fill-rule="nonzero"/><path fill="#000000" d="M29.550013 216.05833L20.956263 216.05833L20.956263 214.93333L29.550013 214.93333L29.550013 216.05833ZM29.690638 214.18333L20.815638 211.69896L20.815638 210.85521L29.690638 213.33958L29.690638 214.18333ZM25.362513 210.60521Q23.221888 210.60521 22.018763 209.46458Q20.800013 208.30833 20.800013 206.49583Q20.800013 205.29271 21.378138 204.33958Q21.940638 203.38646 22.956263 202.88646Q23.971888 202.38646 25.268763 202.38646Q26.565638 202.38646 27.596888 202.91771Q28.628138 203.44896 29.159388 204.41771Q29.690638 205.37083 29.690638 206.49583Q29.690638 207.71458 29.112513 208.66771Q28.518763 209.62083 27.518763 210.12083Q26.503138 210.60521 25.362513 210.60521ZM25.378138 209.43333Q26.940638 209.43333 27.831263 208.60521Q28.721888 207.76146 28.721888 206.49583Q28.721888 205.21458 27.831263 204.38646Q26.925013 203.55833 25.253138 203.55833Q24.206263 203.55833 23.425013 203.91771Q22.643763 204.26146 22.221888 204.94896Q21.784388 205.63646 21.784388 206.48021Q21.784388 207.68333 22.612513 208.55833Q23.440638 209.43333 25.378138 209.43333ZM26.784388 198.63646L26.690638 197.57396Q27.346888 197.49583 27.753138 197.21458Q28.159388 196.93333 28.425013 196.35521Q28.675013 195.76146 28.675013 195.02708Q28.675013 194.38646 28.487513 193.88646Q28.284388 193.38646 27.956263 193.15208Q27.612513 192.90208 27.221888 192.90208Q26.815638 192.90208 26.518763 193.13646Q26.206263 193.37083 26.003138 193.90208Q25.862513 194.26146 25.581263 195.44896Q25.300013 196.62083 25.050013 197.08958Q24.721888 197.71458 24.253138 198.01146Q23.768763 198.30833 23.175013 198.30833Q22.534388 198.30833 21.971888 197.94896Q21.393763 197.57396 21.112513 196.87083Q20.815638 196.15208 20.815638 195.29271Q20.815638 194.33958 21.128138 193.60521Q21.425013 192.87083 22.034388 192.48021Q22.628138 192.08958 23.378138 192.05833L23.456263 193.15208Q22.643763 193.24583 22.237513 193.76146Q21.815638 194.26146 21.815638 195.24583Q21.815638 196.27708 22.190638 196.74583Q22.565638 197.21458 23.096888 197.21458Q23.565638 197.21458 23.862513 196.88646Q24.159388 196.55833 24.471888 195.18333Q24.784388 193.79271 25.018763 193.27708Q25.378138 192.52708 25.909388 192.16771Q26.425013 191.80833 27.128138 191.80833Q27.815638 191.80833 28.425013 192.19896Q29.018763 192.58958 29.362513 193.32396Q29.690638 194.05833 29.690638 194.98021Q29.690638 196.15208 29.362513 196.94896Q29.018763 197.73021 28.331263 198.18333Q27.643763 198.62083 26.784388 198.63646ZM22.175013 190.38646L20.956263 190.38646L20.956263 189.32396L22.175013 189.32396L22.175013 190.38646ZM29.550013 190.38646L23.331263 190.38646L23.331263 189.32396L29.550013 189.32396L29.550013 190.38646ZM29.550013 187.94896L28.690638 187.94896L24.143763 183.98021Q24.175013 184.66771 24.175013 185.18333L24.175013 187.71458L23.331263 187.71458L23.331263 182.62083L24.018763 182.62083L27.971888 185.99583L28.690638 186.65208Q28.643763 185.93333 28.643763 185.32396L28.643763 182.43333L29.550013 182.43333L29.550013 187.94896ZM27.550013 178.13646L27.675013 177.04271Q28.628138 177.29271 29.159388 177.99583Q29.690638 178.69896 29.690638 179.77708Q29.690638 181.13646 28.846888 181.94896Q28.003138 182.74583 26.487513 182.74583Q24.925013 182.74583 24.065638 181.93333Q23.190638 181.12083 23.190638 179.83958Q23.190638 178.58958 24.034388 177.80833Q24.878138 177.01146 26.425013 177.01146Q26.518763 177.01146 26.706263 177.01146L26.706263 181.65208Q27.737513 181.58958 28.284388 181.07396Q28.815638 180.55833 28.815638 179.77708Q28.815638 179.19896 28.518763 178.79271Q28.206263 178.37083 27.550013 178.13646ZM25.846888 181.58958L25.846888 178.12083Q25.050013 178.18333 24.659388 178.51146Q24.050013 179.02708 24.050013 179.82396Q24.050013 180.55833 24.534388 181.05833Q25.018763 181.54271 25.846888 181.58958ZM32.08126 170.37083Q30.971888 171.24583 29.503138 171.85521Q28.018763 172.44896 26.440638 172.44896Q25.050013 172.44896 23.768763 172.01146Q22.284388 171.48021 20.815638 170.37083L20.815638 169.62083Q22.034388 170.32396 22.550013 170.55833Q23.362513 170.91771 24.237513 171.12083Q25.331263 171.37083 26.440638 171.37083Q29.268763 171.37083 32.08126 169.62083L32.08126 170.37083ZM26.175013 164.23021L25.175013 164.23021L25.159388 160.60521L28.346888 160.60521Q29.018763 161.43333 29.362513 162.32396Q29.690638 163.21458 29.690638 164.15208Q29.690638 165.41771 29.159388 166.46458Q28.612513 167.49583 27.596888 168.02708Q26.565638 168.54271 25.300013 168.54271Q24.034388 168.54271 22.956263 168.02708Q21.862513 167.49583 21.346888 166.51146Q20.815638 165.52708 20.815638 164.24583Q20.815638 163.30833 21.112513 162.55833Q21.409388 161.80833 21.956263 161.38646Q22.487513 160.94896 23.362513 160.73021L23.643763 161.74583Q22.987513 161.94896 22.612513 162.24583Q22.237513 162.52708 22.018763 163.05833Q21.784388 163.58958 21.784388 164.23021Q21.784388 165.01146 22.018763 165.58958Q22.253138 166.15208 22.643763 166.51146Q23.034388 166.85521 23.503138 167.04271Q24.300013 167.37083 25.221888 167.37083Q26.378138 167.37083 27.159388 166.98021Q27.925013 166.57396 28.300013 165.82396Q28.675013 165.07396 28.675013 164.21458Q28.675013 163.48021 28.393763 162.77708Q28.096888 162.07396 27.784388 161.71458L26.175013 161.71458L26.175013 164.23021ZM29.550013 159.30833L20.956263 159.30833L20.956263 156.07396Q20.956263 155.08958 21.221888 154.49583Q21.487513 153.90208 22.034388 153.57396Q22.565638 153.23021 23.159388 153.23021Q23.706263 153.23021 24.190638 153.52708Q24.675013 153.82396 24.971888 154.43333Q25.206263 153.65208 25.768763 153.24583Q26.315638 152.82396 27.065638 152.82396Q27.659388 152.82396 28.190638 153.07396Q28.706263 153.32396 28.987513 153.69896Q29.268763 154.07396 29.409388 154.65208Q29.550013 155.21458 29.550013 156.02708L29.550013 159.30833ZM24.565638 158.16771L24.565638 156.30833Q24.565638 155.55833 24.471888 155.23021Q24.346888 154.79271 24.050013 154.57396Q23.737513 154.35521 23.284388 154.35521Q22.862513 154.35521 22.534388 154.55833Q22.206263 154.76146 22.096888 155.15208Q21.971888 155.52708 21.971888 156.44896L21.971888 158.16771L24.565638 158.16771ZM28.534388 158.16771L28.534388 156.02708Q28.534388 155.48021 28.487513 155.26146Q28.425013 154.85521 28.268763 154.60521Q28.096888 154.33958 27.784388 154.16771Q27.471888 153.99583 27.065638 153.99583Q26.581263 153.99583 26.221888 154.24583Q25.862513 154.48021 25.721888 154.91771Q25.581263 155.35521 25.581263 156.18333L25.581263 158.16771L28.534388 158.16771ZM32.08126 150.69896L32.08126 151.44896Q29.268763 149.69896 26.440638 149.69896Q25.346888 149.69896 24.253138 149.94896Q23.378138 150.15208 22.565638 150.51146Q22.050013 150.74583 20.815638 151.44896L20.815638 150.69896Q22.284388 149.60521 23.768763 149.07396Q25.050013 148.62083 26.440638 148.62083Q28.018763 148.62083 29.503138 149.23021Q30.971888 149.83958 32.08126 150.69896Z" fill-rule="nonzero"/><path fill="#000000" d="M578.45 209.07394L570.8719 209.07394L570.8719 211.90207L569.85626 211.90207L569.85626 205.08957L570.8719 205.08957L570.8719 207.93332L578.45 207.93332L578.45 209.07394ZM571.075 204.38644L569.85626 204.38644L569.85626 203.32394L571.075 203.32394L571.075 204.38644ZM578.45 204.38644L572.23126 204.38644L572.23126 203.32394L578.45 203.32394L578.45 204.38644ZM578.45 201.38644L572.23126 201.38644L572.23126 200.44894L573.10626 200.44894Q572.6375 200.15207 572.3719 199.6677Q572.09064 199.18332 572.09064 198.55832Q572.09064 197.87082 572.3719 197.43332Q572.65314 196.9802 573.16876 196.80832Q572.09064 196.05832 572.09064 194.88644Q572.09064 193.94894 572.60626 193.46457Q573.10626 192.96457 574.1844 192.96457L578.45 192.96457L578.45 194.01144L574.52814 194.01144Q573.90314 194.01144 573.6219 194.12082Q573.34064 194.21457 573.16876 194.4802Q572.9969 194.74582 572.9969 195.12082Q572.9969 195.77707 573.4344 196.21457Q573.8719 196.63644 574.84064 196.63644L578.45 196.63644L578.45 197.69894L574.40314 197.69894Q573.7 197.69894 573.35626 197.96457Q572.9969 198.21457 572.9969 198.7927Q572.9969 199.24582 573.23126 199.62082Q573.46564 199.99582 573.91876 200.1677Q574.3719 200.33957 575.21564 200.33957L578.45 200.33957L578.45 201.38644ZM576.45 186.13644L576.575 185.0427Q577.52814 185.2927 578.0594 185.99582Q578.59064 186.69894 578.59064 187.77707Q578.59064 189.13644 577.7469 189.94894Q576.90314 190.74582 575.3875 190.74582Q573.825 190.74582 572.96564 189.93332Q572.09064 189.12082 572.09064 187.83957Q572.09064 186.58957 572.9344 185.80832Q573.77814 185.01144 575.325 185.01144Q575.41876 185.01144 575.60626 185.01144L575.60626 189.65207Q576.6375 189.58957 577.1844 189.07394Q577.71564 188.55832 577.71564 187.77707Q577.71564 187.19894 577.41876 186.7927Q577.10626 186.37082 576.45 186.13644ZM574.7469 189.58957L574.7469 186.12082Q573.95 186.18332 573.5594 186.51144Q572.95 187.02707 572.95 187.82394Q572.95 188.55832 573.4344 189.05832Q573.91876 189.5427 574.7469 189.58957ZM580.98126 178.37082Q579.8719 179.24582 578.40314 179.8552Q576.91876 180.44894 575.34064 180.44894Q573.95 180.44894 572.66876 180.01144Q571.1844 179.4802 569.71564 178.37082L569.71564 177.62082Q570.9344 178.32394 571.45 178.55832Q572.2625 178.9177 573.1375 179.12082Q574.23126 179.37082 575.34064 179.37082Q578.16876 179.37082 580.98126 177.62082L580.98126 178.37082ZM576.59064 176.80832L576.4344 175.77707Q577.0594 175.68332 577.3875 175.2927Q577.71564 174.88644 577.71564 174.15207Q577.71564 173.43332 577.4344 173.08957Q577.1375 172.7302 576.73126 172.7302Q576.3719 172.7302 576.16876 173.0427Q576.02814 173.26144 575.8094 174.12082Q575.5125 175.27707 575.3094 175.7302Q575.09064 176.1677 574.71564 176.40207Q574.34064 176.63644 573.8719 176.63644Q573.46564 176.63644 573.10626 176.44894Q572.7469 176.26144 572.5125 175.93332Q572.34064 175.68332 572.21564 175.26144Q572.09064 174.83957 572.09064 174.33957Q572.09064 173.62082 572.3094 173.07394Q572.5125 172.51144 572.8719 172.24582Q573.23126 171.9802 573.825 171.88644L573.96564 172.9177Q573.4969 172.9802 573.23126 173.32394Q572.95 173.65207 572.95 174.27707Q572.95 174.99582 573.2 175.30832Q573.4344 175.62082 573.7625 175.62082Q573.96564 175.62082 574.1219 175.49582Q574.29376 175.3552 574.40314 175.08957Q574.46564 174.93332 574.66876 174.15207Q574.98126 173.02707 575.16876 172.58957Q575.35626 172.15207 575.71564 171.90207Q576.075 171.65207 576.6219 171.65207Q577.15314 171.65207 577.6219 171.96457Q578.075 172.26144 578.34064 172.83957Q578.59064 173.4177 578.59064 174.15207Q578.59064 175.37082 578.09064 176.01144Q577.575 176.63644 576.59064 176.80832ZM576.45 165.13644L576.575 164.0427Q577.52814 164.2927 578.0594 164.99582Q578.59064 165.69894 578.59064 166.77707Q578.59064 168.13644 577.7469 168.94894Q576.90314 169.74582 575.3875 169.74582Q573.825 169.74582 572.96564 168.93332Q572.09064 168.12082 572.09064 166.83957Q572.09064 165.58957 572.9344 164.80832Q573.77814 164.01144 575.325 164.01144Q575.41876 164.01144 575.60626 164.01144L575.60626 168.65207Q576.6375 168.58957 577.1844 168.07394Q577.71564 167.55832 577.71564 166.77707Q577.71564 166.19894 577.41876 165.7927Q577.10626 165.37082 576.45 165.13644ZM574.7469 168.58957L574.7469 165.12082Q573.95 165.18332 573.5594 165.51144Q572.95 166.02707 572.95 166.82394Q572.95 167.55832 573.4344 168.05832Q573.91876 168.5427 574.7469 168.58957ZM576.16876 158.32394L576.3094 157.2927Q577.3719 157.46457 577.98126 158.1677Q578.59064 158.87082 578.59064 159.88644Q578.59064 161.1677 577.7625 161.94894Q576.91876 162.71457 575.35626 162.71457Q574.35626 162.71457 573.60626 162.38644Q572.84064 162.0427 572.46564 161.37082Q572.09064 160.68332 572.09064 159.87082Q572.09064 158.87082 572.60626 158.2302Q573.10626 157.57394 574.0594 157.38644L574.21564 158.4177Q573.59064 158.55832 573.27814 158.93332Q572.95 159.30832 572.95 159.83957Q572.95 160.63644 573.52814 161.13644Q574.09064 161.63644 575.325 161.63644Q576.59064 161.63644 577.15314 161.15207Q577.71564 160.6677 577.71564 159.90207Q577.71564 159.27707 577.34064 158.87082Q576.96564 158.44894 576.16876 158.32394ZM580.98126 155.69894L580.98126 156.44894Q578.16876 154.69894 575.34064 154.69894Q574.2469 154.69894 573.15314 154.94894Q572.27814 155.15207 571.46564 155.51144Q570.95 155.74582 569.71564 156.44894L569.71564 155.69894Q571.1844 154.6052 572.66876 154.07394Q573.95 153.62082 575.34064 153.62082Q576.91876 153.62082 578.40314 154.2302Q579.8719 154.83957 580.98126 155.69894Z" fill-rule="nonzero"/><path fill="#000000" d="M65.05 300.21564Q65.05 298.6844 65.3625 297.7625Q65.675 296.825 66.28438 296.325Q66.90938 295.825 67.84688 295.825Q68.53438 295.825 69.05 296.10626Q69.58125 296.3875 69.925 296.91876Q70.26875 297.4344 70.45625 298.1844Q70.64375 298.9344 70.64375 300.21564Q70.64375 301.73126 70.33125 302.65314Q70.03438 303.575 69.40938 304.09064Q68.8 304.59064 67.84688 304.59064Q66.6125 304.59064 65.89375 303.7Q65.05 302.6375 65.05 300.21564ZM66.12813 300.21564Q66.12813 302.325 66.62813 303.02814Q67.12813 303.73126 67.84688 303.73126Q68.58125 303.73126 69.06563 303.02814Q69.56563 302.325 69.56563 300.21564Q69.56563 298.09064 69.06563 297.40314Q68.58125 296.7 67.83125 296.7Q67.1125 296.7 66.675 297.3094Q66.12813 298.09064 66.12813 300.21564Z" fill-rule="nonzero"/><path fill="#000000" d="M70.59688 220.58994L70.59688 221.60556L64.90938 221.60556Q64.90938 221.23056 65.03438 220.87119Q65.25313 220.29306 65.72188 219.73056Q66.20625 219.16806 67.1125 218.43369Q68.51875 217.27744 69.00313 216.60556Q69.50313 215.93369 69.50313 215.33994Q69.50313 214.71494 69.05 214.29306Q68.59688 213.85556 67.87813 213.85556Q67.1125 213.85556 66.65938 214.30869Q66.20625 214.76181 66.19063 215.57431L65.1125 215.46494Q65.22188 214.24619 65.94063 213.62119Q66.675 212.98056 67.90938 212.98056Q69.14375 212.98056 69.8625 213.66806Q70.58125 214.35556 70.58125 215.37119Q70.58125 215.88681 70.3625 216.38681Q70.15938 216.87119 69.65938 217.43369Q69.175 217.98056 68.05 218.93369Q67.09688 219.73056 66.81563 220.02744Q66.55 220.30869 66.37813 220.58994L70.59688 220.58994Z" fill-rule="nonzero"/><path fill="#000000" d="M68.425 138.76111L68.425 136.69861L64.70625 136.69861L64.70625 135.72986L68.62813 130.16736L69.4875 130.16736L69.4875 135.72986L70.64375 135.72986L70.64375 136.69861L69.4875 136.69861L69.4875 138.76111L68.425 138.76111ZM68.425 135.72986L68.425 131.87048L65.7375 135.72986L68.425 135.72986Z" fill-rule="nonzero"/><path fill="#000000" d="M70.51875 49.432293L69.47188 49.510418Q69.33125 48.885418 69.08125 48.604168Q68.64375 48.151043 68.01875 48.151043Q67.51875 48.151043 67.12813 48.432293Q66.64375 48.807293 66.34688 49.510418Q66.06563 50.197918 66.05 51.479168Q66.425 50.901043 66.97188 50.619793Q67.53438 50.338543 68.14375 50.338543Q69.19063 50.338543 69.925 51.119793Q70.675 51.901043 70.675 53.119793Q70.675 53.932293 70.31563 54.635418Q69.97188 55.322918 69.3625 55.697918Q68.75313 56.057293 67.9875 56.057293Q66.65938 56.057293 65.83125 55.088543Q65.00313 54.119793 65.00313 51.901043Q65.00313 49.401043 65.925 48.276043Q66.72188 47.291668 68.08125 47.291668Q69.09688 47.291668 69.7375 47.869793Q70.39375 48.432293 70.51875 49.432293ZM66.22188 53.135418Q66.22188 53.682293 66.44063 54.182293Q66.675 54.666668 67.08125 54.932293Q67.50313 55.197918 67.97188 55.197918Q68.62813 55.197918 69.1125 54.666668Q69.59688 54.119793 69.59688 53.197918Q69.59688 52.307293 69.1125 51.791668Q68.64375 51.276043 67.925 51.276043Q67.20625 51.276043 66.70625 51.791668Q66.22188 52.307293 66.22188 53.135418Z" fill-rule="nonzero"/><path fill="#000000" d="M528.95 300.21564Q528.95 298.6844 529.2625 297.7625Q529.575 296.825 530.1844 296.325Q530.8094 295.825 531.7469 295.825Q532.4344 295.825 532.95 296.10626Q533.48126 296.3875 533.825 296.91876Q534.16876 297.4344 534.35626 298.1844Q534.54376 298.9344 534.54376 300.21564Q534.54376 301.73126 534.23126 302.65314Q533.9344 303.575 533.3094 304.09064Q532.7 304.59064 531.7469 304.59064Q530.5125 304.59064 529.79376 303.7Q528.95 302.6375 528.95 300.21564ZM530.02814 300.21564Q530.02814 302.325 530.52814 303.02814Q531.02814 303.73126 531.7469 303.73126Q532.48126 303.73126 532.96564 303.02814Q533.46564 302.325 533.46564 300.21564Q533.46564 298.09064 532.96564 297.40314Q532.48126 296.7 531.73126 296.7Q531.0125 296.7 530.575 297.3094Q530.02814 298.09064 530.02814 300.21564Z" fill-rule="nonzero"/><path fill="#000000" d="M528.95 252.49333L530.0594 252.39958Q530.1844 253.21208 530.6219 253.61833Q531.075 254.02458 531.71564 254.02458Q532.46564 254.02458 532.9969 253.44646Q533.52814 252.86833 533.52814 251.93083Q533.52814 251.02458 533.0125 250.50896Q532.5125 249.9777 531.6844 249.9777Q531.1844 249.9777 530.7625 250.21208Q530.35626 250.44646 530.1219 250.80583L529.1375 250.68083L529.96564 246.27458L534.2469 246.27458L534.2469 247.27458L530.8094 247.27458L530.35626 249.58708Q531.1219 249.0402 531.96564 249.0402Q533.09064 249.0402 533.85626 249.82146Q534.6375 250.6027 534.6375 251.83708Q534.6375 252.99333 533.96564 253.8527Q533.1375 254.88396 531.71564 254.88396Q530.54376 254.88396 529.79376 254.2277Q529.0594 253.57146 528.95 252.49333ZM535.95 250.50896Q535.95 248.9777 536.2625 248.05583Q536.575 247.11833 537.1844 246.61833Q537.8094 246.11833 538.7469 246.11833Q539.4344 246.11833 539.95 246.39958Q540.48126 246.68083 540.825 247.21208Q541.16876 247.7277 541.35626 248.4777Q541.54376 249.2277 541.54376 250.50896Q541.54376 252.02458 541.23126 252.94646Q540.9344 253.86833 540.3094 254.38396Q539.7 254.88396 538.7469 254.88396Q537.5125 254.88396 536.79376 253.99333Q535.95 252.93083 535.95 250.50896ZM537.02814 250.50896Q537.02814 252.61833 537.52814 253.32146Q538.02814 254.02458 538.7469 254.02458Q539.48126 254.02458 539.96564 253.32146Q540.46564 252.61833 540.46564 250.50896Q540.46564 248.38396 539.96564 247.69646Q539.48126 246.99333 538.73126 246.99333Q538.0125 246.99333 537.575 247.6027Q537.02814 248.38396 537.02814 250.50896Z" fill-rule="nonzero"/><path fill="#000000" d="M532.91876 205.03667L531.8719 205.03667L531.8719 198.31792Q531.48126 198.67729 530.85626 199.05229Q530.2469 199.41167 529.7625 199.58354L529.7625 198.56792Q530.6375 198.14604 531.29376 197.56792Q531.96564 196.97417 532.2469 196.41167L532.91876 196.41167L532.91876 205.03667ZM535.95 200.80229Q535.95 199.27104 536.2625 198.34917Q536.575 197.41167 537.1844 196.91167Q537.8094 196.41167 538.7469 196.41167Q539.4344 196.41167 539.95 196.69292Q540.48126 196.97417 540.825 197.50542Q541.16876 198.02104 541.35626 198.77104Q541.54376 199.52104 541.54376 200.80229Q541.54376 202.31792 541.23126 203.23979Q540.9344 204.16167 540.3094 204.67729Q539.7 205.17729 538.7469 205.17729Q537.5125 205.17729 536.79376 204.28667Q535.95 203.22417 535.95 200.80229ZM537.02814 200.80229Q537.02814 202.91167 537.52814 203.61479Q538.02814 204.31792 538.7469 204.31792Q539.48126 204.31792 539.96564 203.61479Q540.46564 202.91167 540.46564 200.80229Q540.46564 198.67729 539.96564 197.98979Q539.48126 197.28667 538.73126 197.28667Q538.0125 197.28667 537.575 197.89604Q537.02814 198.67729 537.02814 200.80229ZM542.95 200.80229Q542.95 199.27104 543.2625 198.34917Q543.575 197.41167 544.1844 196.91167Q544.8094 196.41167 545.7469 196.41167Q546.4344 196.41167 546.95 196.69292Q547.48126 196.97417 547.825 197.50542Q548.16876 198.02104 548.35626 198.77104Q548.54376 199.52104 548.54376 200.80229Q548.54376 202.31792 548.23126 203.23979Q547.9344 204.16167 547.3094 204.67729Q546.7 205.17729 545.7469 205.17729Q544.5125 205.17729 543.79376 204.28667Q542.95 203.22417 542.95 200.80229ZM544.02814 200.80229Q544.02814 202.91167 544.52814 203.61479Q545.02814 204.31792 545.7469 204.31792Q546.48126 204.31792 546.96564 203.61479Q547.46564 202.91167 547.46564 200.80229Q547.46564 198.67729 546.96564 197.98979Q546.48126 197.28667 545.73126 197.28667Q545.0125 197.28667 544.575 197.89604Q544.02814 198.67729 544.02814 200.80229Z" fill-rule="nonzero"/><path fill="#000000" d="M532.91876 155.33L531.8719 155.33L531.8719 148.61125Q531.48126 148.97063 530.85626 149.34563Q530.2469 149.705 529.7625 149.87688L529.7625 148.86125Q530.6375 148.43938 531.29376 147.86125Q531.96564 147.2675 532.2469 146.705L532.91876 146.705L532.91876 155.33ZM535.95 153.08L537.0594 152.98625Q537.1844 153.79875 537.6219 154.205Q538.075 154.61125 538.71564 154.61125Q539.46564 154.61125 539.9969 154.03313Q540.52814 153.455 540.52814 152.5175Q540.52814 151.61125 540.0125 151.09563Q539.5125 150.56438 538.6844 150.56438Q538.1844 150.56438 537.7625 150.79875Q537.35626 151.03313 537.1219 151.3925L536.1375 151.2675L536.96564 146.86125L541.2469 146.86125L541.2469 147.86125L537.8094 147.86125L537.35626 150.17375Q538.1219 149.62688 538.96564 149.62688Q540.09064 149.62688 540.85626 150.40813Q541.6375 151.18938 541.6375 152.42375Q541.6375 153.58 540.96564 154.43938Q540.1375 155.47063 538.71564 155.47063Q537.54376 155.47063 536.79376 154.81438Q536.0594 154.15813 535.95 153.08ZM542.95 151.09563Q542.95 149.56438 543.2625 148.6425Q543.575 147.705 544.1844 147.205Q544.8094 146.705 545.7469 146.705Q546.4344 146.705 546.95 146.98625Q547.48126 147.2675 547.825 147.79875Q548.16876 148.31438 548.35626 149.06438Q548.54376 149.81438 548.54376 151.09563Q548.54376 152.61125 548.23126 153.53313Q547.9344 154.455 547.3094 154.97063Q546.7 155.47063 545.7469 155.47063Q544.5125 155.47063 543.79376 154.58Q542.95 153.5175 542.95 151.09563ZM544.02814 151.09563Q544.02814 153.205 544.52814 153.90813Q545.02814 154.61125 545.7469 154.61125Q546.48126 154.61125 546.96564 153.90813Q547.46564 153.205 547.46564 151.09563Q547.46564 148.97063 546.96564 148.28313Q546.48126 147.58 545.73126 147.58Q545.0125 147.58 544.575 148.18938Q544.02814 148.97063 544.02814 151.09563Z" fill-rule="nonzero"/><path fill="#000000" d="M534.4969 104.60771L534.4969 105.62334L528.8094 105.62334Q528.8094 105.24834 528.9344 104.88896Q529.15314 104.31084 529.6219 103.74834Q530.10626 103.18584 531.0125 102.45146Q532.41876 101.29521 532.90314 100.62334Q533.40314 99.95146 533.40314 99.35771Q533.40314 98.73271 532.95 98.31084Q532.4969 97.87334 531.77814 97.87334Q531.0125 97.87334 530.5594 98.32646Q530.10626 98.77959 530.09064 99.59209L529.0125 99.48271Q529.1219 98.26396 529.84064 97.63896Q530.575 96.99834 531.8094 96.99834Q533.04376 96.99834 533.7625 97.68584Q534.48126 98.37334 534.48126 99.38896Q534.48126 99.90459 534.2625 100.40459Q534.0594 100.88896 533.5594 101.45146Q533.075 101.99834 531.95 102.95146Q530.9969 103.74834 530.71564 104.04521Q530.45 104.32646 530.27814 104.60771L534.4969 104.60771ZM535.95 101.38896Q535.95 99.85771 536.2625 98.93584Q536.575 97.99834 537.1844 97.49834Q537.8094 96.99834 538.7469 96.99834Q539.4344 96.99834 539.95 97.27959Q540.48126 97.56084 540.825 98.09209Q541.16876 98.60771 541.35626 99.35771Q541.54376 100.10771 541.54376 101.38896Q541.54376 102.90459 541.23126 103.82646Q540.9344 104.74834 540.3094 105.26396Q539.7 105.76396 538.7469 105.76396Q537.5125 105.76396 536.79376 104.87334Q535.95 103.81084 535.95 101.38896ZM537.02814 101.38896Q537.02814 103.49834 537.52814 104.20146Q538.02814 104.90459 538.7469 104.90459Q539.48126 104.90459 539.96564 104.20146Q540.46564 103.49834 540.46564 101.38896Q540.46564 99.26396 539.96564 98.57646Q539.48126 97.87334 538.73126 97.87334Q538.0125 97.87334 537.575 98.48271Q537.02814 99.26396 537.02814 101.38896ZM542.95 101.38896Q542.95 99.85771 543.2625 98.93584Q543.575 97.99834 544.1844 97.49834Q544.8094 96.99834 545.7469 96.99834Q546.4344 96.99834 546.95 97.27959Q547.48126 97.56084 547.825 98.09209Q548.16876 98.60771 548.35626 99.35771Q548.54376 100.10771 548.54376 101.38896Q548.54376 102.90459 548.23126 103.82646Q547.9344 104.74834 547.3094 105.26396Q546.7 105.76396 545.7469 105.76396Q544.5125 105.76396 543.79376 104.87334Q542.95 103.81084 542.95 101.38896ZM544.02814 101.38896Q544.02814 103.49834 544.52814 104.20146Q545.02814 104.90459 545.7469 104.90459Q546.48126 104.90459 546.96564 104.20146Q547.46564 103.49834 547.46564 101.38896Q547.46564 99.26396 546.96564 98.57646Q546.48126 97.87334 545.73126 97.87334Q545.0125 97.87334 544.575 98.48271Q544.02814 99.26396 544.02814 101.38896Z" fill-rule="nonzero"/><path fill="#000000" d="M534.4969 54.901043L534.4969 55.916668L528.8094 55.916668Q528.8094 55.541668 528.9344 55.182293Q529.15314 54.604168 529.6219 54.041668Q530.10626 53.479168 531.0125 52.744793Q532.41876 51.588543 532.90314 50.916668Q533.40314 50.244793 533.40314 49.651043Q533.40314 49.026043 532.95 48.604168Q532.4969 48.166668 531.77814 48.166668Q531.0125 48.166668 530.5594 48.619793Q530.10626 49.072918 530.09064 49.885418L529.0125 49.776043Q529.1219 48.557293 529.84064 47.932293Q530.575 47.291668 531.8094 47.291668Q533.04376 47.291668 533.7625 47.979168Q534.48126 48.666668 534.48126 49.682293Q534.48126 50.197918 534.2625 50.697918Q534.0594 51.182293 533.5594 51.744793Q533.075 52.291668 531.95 53.244793Q530.9969 54.041668 530.71564 54.338543Q530.45 54.619793 530.27814 54.901043L534.4969 54.901043ZM535.95 53.666668L537.0594 53.572918Q537.1844 54.385418 537.6219 54.791668Q538.075 55.197918 538.71564 55.197918Q539.46564 55.197918 539.9969 54.619793Q540.52814 54.041668 540.52814 53.104168Q540.52814 52.197918 540.0125 51.682293Q539.5125 51.151043 538.6844 51.151043Q538.1844 51.151043 537.7625 51.385418Q537.35626 51.619793 537.1219 51.979168L536.1375 51.854168L536.96564 47.447918L541.2469 47.447918L541.2469 48.447918L537.8094 48.447918L537.35626 50.760418Q538.1219 50.213543 538.96564 50.213543Q540.09064 50.213543 540.85626 50.994793Q541.6375 51.776043 541.6375 53.010418Q541.6375 54.166668 540.96564 55.026043Q540.1375 56.057293 538.71564 56.057293Q537.54376 56.057293 536.79376 55.401043Q536.0594 54.744793 535.95 53.666668ZM542.95 51.682293Q542.95 50.151043 543.2625 49.229168Q543.575 48.291668 544.1844 47.791668Q544.8094 47.291668 545.7469 47.291668Q546.4344 47.291668 546.95 47.572918Q547.48126 47.854168 547.825 48.385418Q548.16876 48.901043 548.35626 49.651043Q548.54376 50.401043 548.54376 51.682293Q548.54376 53.197918 548.23126 54.119793Q547.9344 55.041668 547.3094 55.557293Q546.7 56.057293 545.7469 56.057293Q544.5125 56.057293 543.79376 55.166668Q542.95 54.104168 542.95 51.682293ZM544.02814 51.682293Q544.02814 53.791668 544.52814 54.494793Q545.02814 55.197918 545.7469 55.197918Q546.48126 55.197918 546.96564 54.494793Q547.46564 53.791668 547.46564 51.682293Q547.46564 49.557293 546.96564 48.869793Q546.48126 48.166668 545.73126 48.166668Q545.0125 48.166668 544.575 48.776043Q544.02814 49.557293 544.02814 51.682293Z" fill-rule="nonzero"/><path fill="#000000" d="M109.34609 309.98126L109.34609 308.96564L114.90859 308.96564L114.90859 309.79376Q114.09609 310.66876 113.28359 312.1219Q112.48672 313.5594 112.04922 315.09064Q111.72109 316.16876 111.64297 317.45L110.54922 317.45Q110.56484 316.4344 110.93984 314.9969Q111.33047 313.5594 112.03359 312.23126Q112.75234 310.90314 113.56484 309.98126L109.34609 309.98126ZM116.28359 315.2L117.39297 315.10626Q117.51797 315.91876 117.95547 316.325Q118.40859 316.73126 119.04922 316.73126Q119.79922 316.73126 120.33047 316.15314Q120.86172 315.575 120.86172 314.6375Q120.86172 313.73126 120.34609 313.21564Q119.84609 312.6844 119.01797 312.6844Q118.51797 312.6844 118.09609 312.91876Q117.68984 313.15314 117.45547 313.5125L116.47109 313.3875L117.29922 308.98126L121.58047 308.98126L121.58047 309.98126L118.14297 309.98126L117.68984 312.29376Q118.45547 311.7469 119.29922 311.7469Q120.42422 311.7469 121.18984 312.52814Q121.97109 313.3094 121.97109 314.54376Q121.97109 315.7 121.29922 316.5594Q120.47109 317.59064 119.04922 317.59064Q117.87734 317.59064 117.12734 316.9344Q116.39297 316.27814 116.28359 315.2Z" fill-rule="nonzero"/><path fill="#000000" d="M196.64688 317.45L195.6 317.45L195.6 310.73126Q195.20938 311.09064 194.58438 311.46564Q193.975 311.825 193.49063 311.9969L193.49063 310.98126Q194.36563 310.5594 195.02188 309.98126Q195.69376 309.3875 195.975 308.825L196.64688 308.825L196.64688 317.45ZM199.67813 313.21564Q199.67813 311.6844 199.99063 310.7625Q200.30313 309.825 200.9125 309.325Q201.5375 308.825 202.475 308.825Q203.1625 308.825 203.67813 309.10626Q204.20938 309.3875 204.55313 309.91876Q204.89688 310.4344 205.08438 311.1844Q205.27188 311.9344 205.27188 313.21564Q205.27188 314.73126 204.95938 315.65314Q204.6625 316.575 204.0375 317.09064Q203.42813 317.59064 202.475 317.59064Q201.24063 317.59064 200.52188 316.7Q199.67813 315.6375 199.67813 313.21564ZM200.75626 313.21564Q200.75626 315.325 201.25626 316.02814Q201.75626 316.73126 202.475 316.73126Q203.20938 316.73126 203.69376 316.02814Q204.19376 315.325 204.19376 313.21564Q204.19376 311.09064 203.69376 310.40314Q203.20938 309.7 202.45938 309.7Q201.74063 309.7 201.30313 310.3094Q200.75626 311.09064 200.75626 313.21564ZM206.67813 313.21564Q206.67813 311.6844 206.99063 310.7625Q207.30313 309.825 207.9125 309.325Q208.5375 308.825 209.475 308.825Q210.1625 308.825 210.67813 309.10626Q211.20938 309.3875 211.55313 309.91876Q211.89688 310.4344 212.08438 311.1844Q212.27188 311.9344 212.27188 313.21564Q212.27188 314.73126 211.95938 315.65314Q211.6625 316.575 211.0375 317.09064Q210.42813 317.59064 209.475 317.59064Q208.24063 317.59064 207.52188 316.7Q206.67813 315.6375 206.67813 313.21564ZM207.75626 313.21564Q207.75626 315.325 208.25626 316.02814Q208.75626 316.73126 209.475 316.73126Q210.20938 316.73126 210.69376 316.02814Q211.19376 315.325 211.19376 313.21564Q211.19376 311.09064 210.69376 310.40314Q210.20938 309.7 209.45938 309.7Q208.74063 309.7 208.30313 310.3094Q207.75626 311.09064 207.75626 313.21564Z" fill-rule="nonzero"/><path fill="#000000" d="M283.5414 317.45L282.49454 317.45L282.49454 310.73126Q282.1039 311.09064 281.4789 311.46564Q280.86954 311.825 280.38516 311.9969L280.38516 310.98126Q281.26016 310.5594 281.9164 309.98126Q282.5883 309.3875 282.86954 308.825L283.5414 308.825L283.5414 317.45ZM292.11954 316.4344L292.11954 317.45L286.43204 317.45Q286.43204 317.075 286.55704 316.71564Q286.7758 316.1375 287.24454 315.575Q287.7289 315.0125 288.63516 314.27814Q290.0414 313.1219 290.5258 312.45Q291.0258 311.77814 291.0258 311.1844Q291.0258 310.5594 290.57266 310.1375Q290.11954 309.7 289.4008 309.7Q288.63516 309.7 288.18204 310.15314Q287.7289 310.60626 287.7133 311.41876L286.63516 311.3094Q286.74454 310.09064 287.4633 309.46564Q288.19766 308.825 289.43204 308.825Q290.6664 308.825 291.38516 309.5125Q292.1039 310.2 292.1039 311.21564Q292.1039 311.73126 291.88516 312.23126Q291.68204 312.71564 291.18204 313.27814Q290.69766 313.825 289.57266 314.77814Q288.61954 315.575 288.3383 315.8719Q288.07266 316.15314 287.9008 316.4344L292.11954 316.4344ZM293.57266 315.2L294.68204 315.10626Q294.80704 315.91876 295.24454 316.325Q295.69766 316.73126 296.3383 316.73126Q297.0883 316.73126 297.61954 316.15314Q298.1508 315.575 298.1508 314.6375Q298.1508 313.73126 297.63516 313.21564Q297.13516 312.6844 296.30704 312.6844Q295.80704 312.6844 295.38516 312.91876Q294.9789 313.15314 294.74454 313.5125L293.76016 313.3875L294.5883 308.98126L298.86954 308.98126L298.86954 309.98126L295.43204 309.98126L294.9789 312.29376Q295.74454 311.7469 296.5883 311.7469Q297.7133 311.7469 298.4789 312.52814Q299.26016 313.3094 299.26016 314.54376Q299.26016 315.7 298.5883 316.5594Q297.76016 317.59064 296.3383 317.59064Q295.1664 317.59064 294.4164 316.9344Q293.68204 316.27814 293.57266 315.2Z" fill-rule="nonzero"/><path fill="#000000" d="M370.43594 317.45L369.38907 317.45L369.38907 310.73126Q368.99844 311.09064 368.37344 311.46564Q367.76407 311.825 367.2797 311.9969L367.2797 310.98126Q368.1547 310.5594 368.81094 309.98126Q369.48282 309.3875 369.76407 308.825L370.43594 308.825L370.43594 317.45ZM373.4672 315.2L374.57657 315.10626Q374.70157 315.91876 375.13907 316.325Q375.5922 316.73126 376.23282 316.73126Q376.98282 316.73126 377.51407 316.15314Q378.04532 315.575 378.04532 314.6375Q378.04532 313.73126 377.5297 313.21564Q377.0297 312.6844 376.20157 312.6844Q375.70157 312.6844 375.2797 312.91876Q374.87344 313.15314 374.63907 313.5125L373.6547 313.3875L374.48282 308.98126L378.76407 308.98126L378.76407 309.98126L375.32657 309.98126L374.87344 312.29376Q375.63907 311.7469 376.48282 311.7469Q377.60782 311.7469 378.37344 312.52814Q379.1547 313.3094 379.1547 314.54376Q379.1547 315.7 378.48282 316.5594Q377.6547 317.59064 376.23282 317.59064Q375.06094 317.59064 374.31094 316.9344Q373.57657 316.27814 373.4672 315.2ZM380.4672 313.21564Q380.4672 311.6844 380.7797 310.7625Q381.0922 309.825 381.70157 309.325Q382.32657 308.825 383.26407 308.825Q383.95157 308.825 384.4672 309.10626Q384.99844 309.3875 385.3422 309.91876Q385.68594 310.4344 385.87344 311.1844Q386.06094 311.9344 386.06094 313.21564Q386.06094 314.73126 385.74844 315.65314Q385.45157 316.575 384.82657 317.09064Q384.2172 317.59064 383.26407 317.59064Q382.0297 317.59064 381.31094 316.7Q380.4672 315.6375 380.4672 313.21564ZM381.54532 313.21564Q381.54532 315.325 382.04532 316.02814Q382.54532 316.73126 383.26407 316.73126Q383.99844 316.73126 384.48282 316.02814Q384.98282 315.325 384.98282 313.21564Q384.98282 311.09064 384.48282 310.40314Q383.99844 309.7 383.24844 309.7Q382.5297 309.7 382.0922 310.3094Q381.54532 311.09064 381.54532 313.21564Z" fill-rule="nonzero"/><path fill="#000000" d="M457.33047 317.45L456.2836 317.45L456.2836 310.73126Q455.89297 311.09064 455.26797 311.46564Q454.6586 311.825 454.17422 311.9969L454.17422 310.98126Q455.04922 310.5594 455.70547 309.98126Q456.37735 309.3875 456.6586 308.825L457.33047 308.825L457.33047 317.45ZM460.42422 309.98126L460.42422 308.96564L465.98672 308.96564L465.98672 309.79376Q465.17422 310.66876 464.36172 312.1219Q463.56485 313.5594 463.12735 315.09064Q462.79922 316.16876 462.7211 317.45L461.62735 317.45Q461.64297 316.4344 462.01797 314.9969Q462.4086 313.5594 463.11172 312.23126Q463.83047 310.90314 464.64297 309.98126L460.42422 309.98126ZM467.36172 315.2L468.4711 315.10626Q468.5961 315.91876 469.0336 316.325Q469.48672 316.73126 470.12735 316.73126Q470.87735 316.73126 471.4086 316.15314Q471.93985 315.575 471.93985 314.6375Q471.93985 313.73126 471.42422 313.21564Q470.92422 312.6844 470.0961 312.6844Q469.5961 312.6844 469.17422 312.91876Q468.76797 313.15314 468.5336 313.5125L467.54922 313.3875L468.37735 308.98126L472.6586 308.98126L472.6586 309.98126L469.2211 309.98126L468.76797 312.29376Q469.5336 311.7469 470.37735 311.7469Q471.50235 311.7469 472.26797 312.52814Q473.04922 313.3094 473.04922 314.54376Q473.04922 315.7 472.37735 316.5594Q471.54922 317.59064 470.12735 317.59064Q468.95547 317.59064 468.20547 316.9344Q467.4711 316.27814 467.36172 315.2Z" fill-rule="nonzero"/><path stroke="#4285f4" stroke-width="4.0" stroke-linecap="butt" d="M237.5 25.55L249.5 25.55" fill-rule="nonzero"/><path fill="#1a1a1a" d="M258.625 29.55L258.625 20.95625L259.75 20.95625L259.75 29.55L258.625 29.55ZM260.5 29.690624L262.98438 20.815624L263.82812 20.815624L261.34375 29.690624L260.5 29.690624ZM264.07812 25.3625Q264.07812 23.221874 265.21875 22.01875Q266.375 20.8 268.1875 20.8Q269.39062 20.8 270.34375 21.378124Q271.29688 21.940624 271.79688 22.95625Q272.29688 23.971874 272.29688 25.26875Q272.29688 26.565624 271.76562 27.596874Q271.23438 28.628124 270.26562 29.159374Q269.3125 29.690624 268.1875 29.690624Q266.96875 29.690624 266.01562 29.1125Q265.0625 28.51875 264.5625 27.51875Q264.07812 26.503124 264.07812 25.3625ZM265.25 25.378124Q265.25 26.940624 266.07812 27.83125Q266.92188 28.721874 268.1875 28.721874Q269.46875 28.721874 270.29688 27.83125Q271.125 26.925 271.125 25.253124Q271.125 24.20625 270.76562 23.425Q270.42188 22.64375 269.73438 22.221874Q269.04688 21.784374 268.20312 21.784374Q267.0 21.784374 266.125 22.6125Q265.25 23.440624 265.25 25.378124ZM276.04688 26.784374L277.10938 26.690624Q277.1875 27.346874 277.46875 27.753124Q277.75 28.159374 278.32812 28.425Q278.92188 28.675 279.65625 28.675Q280.29688 28.675 280.79688 28.4875Q281.29688 28.284374 281.53125 27.95625Q281.78125 27.6125 281.78125 27.221874Q281.78125 26.815624 281.54688 26.51875Q281.3125 26.20625 280.78125 26.003124Q280.42188 25.8625 279.23438 25.58125Q278.0625 25.3 277.59375 25.05Q276.96875 24.721874 276.67188 24.253124Q276.375 23.76875 276.375 23.175Q276.375 22.534374 276.73438 21.971874Q277.10938 21.39375 277.8125 21.1125Q278.53125 20.815624 279.39062 20.815624Q280.34375 20.815624 281.07812 21.128124Q281.8125 21.425 282.20312 22.034374Q282.59375 22.628124 282.625 23.378124L281.53125 23.45625Q281.4375 22.64375 280.92188 22.2375Q280.42188 21.815624 279.4375 21.815624Q278.40625 21.815624 277.9375 22.190624Q277.46875 22.565624 277.46875 23.096874Q277.46875 23.565624 277.79688 23.8625Q278.125 24.159374 279.5 24.471874Q280.89062 24.784374 281.40625 25.01875Q282.15625 25.378124 282.51562 25.909374Q282.875 26.425 282.875 27.128124Q282.875 27.815624 282.48438 28.425Q282.09375 29.01875 281.35938 29.3625Q280.625 29.690624 279.70312 29.690624Q278.53125 29.690624 277.73438 29.3625Q276.95312 29.01875 276.5 28.33125Q276.0625 27.64375 276.04688 26.784374ZM284.29688 22.175L284.29688 20.95625L285.35938 20.95625L285.35938 22.175L284.29688 22.175ZM284.29688 29.55L284.29688 23.33125L285.35938 23.33125L285.35938 29.55L284.29688 29.55ZM286.73438 29.55L286.73438 28.690624L290.70312 24.14375Q290.01562 24.175 289.5 24.175L286.96875 24.175L286.96875 23.33125L292.0625 23.33125L292.0625 24.01875L288.6875 27.971874L288.03125 28.690624Q288.75 28.64375 289.35938 28.64375L292.25 28.64375L292.25 29.55L286.73438 29.55ZM296.54688 27.55L297.64062 27.675Q297.39062 28.628124 296.6875 29.159374Q295.98438 29.690624 294.90625 29.690624Q293.54688 29.690624 292.73438 28.846874Q291.9375 28.003124 291.9375 26.4875Q291.9375 24.925 292.75 24.065624Q293.5625 23.190624 294.84375 23.190624Q296.09375 23.190624 296.875 24.034374Q297.67188 24.878124 297.67188 26.425Q297.67188 26.51875 297.67188 26.70625L293.03125 26.70625Q293.09375 27.7375 293.60938 28.284374Q294.125 28.815624 294.90625 28.815624Q295.48438 28.815624 295.89062 28.51875Q296.3125 28.20625 296.54688 27.55ZM293.09375 25.846874L296.5625 25.846874Q296.5 25.05 296.17188 24.659374Q295.65625 24.05 294.85938 24.05Q294.125 24.05 293.625 24.534374Q293.14062 25.01875 293.09375 25.846874Z" fill-rule="nonzero"/><path stroke="#ea4335" stroke-width="4.0" stroke-linecap="butt" d="M314.5 25.55L326.5 25.55" fill-rule="nonzero"/><path fill="#1a1a1a" d="M337.60938 29.55L337.60938 21.971874L334.78125 21.971874L334.78125 20.95625L341.59375 20.95625L341.59375 21.971874L338.75 21.971874L338.75 29.55L337.60938 29.55ZM342.29688 22.175L342.29688 20.95625L343.35938 20.95625L343.35938 22.175L342.29688 22.175ZM342.29688 29.55L342.29688 23.33125L343.35938 23.33125L343.35938 29.55L342.29688 29.55ZM345.29688 29.55L345.29688 23.33125L346.23438 23.33125L346.23438 24.20625Q346.53125 23.7375 347.01562 23.471874Q347.5 23.190624 348.125 23.190624Q348.8125 23.190624 349.25 23.471874Q349.70312 23.753124 349.875 24.26875Q350.625 23.190624 351.79688 23.190624Q352.73438 23.190624 353.21875 23.70625Q353.71875 24.20625 353.71875 25.284374L353.71875 29.55L352.67188 29.55L352.67188 25.628124Q352.67188 25.003124 352.5625 24.721874Q352.46875 24.440624 352.20312 24.26875Q351.9375 24.096874 351.5625 24.096874Q350.90625 24.096874 350.46875 24.534374Q350.04688 24.971874 350.04688 25.940624L350.04688 29.55L348.98438 29.55L348.98438 25.503124Q348.98438 24.8 348.71875 24.45625Q348.46875 24.096874 347.89062 24.096874Q347.4375 24.096874 347.0625 24.33125Q346.6875 24.565624 346.51562 25.01875Q346.34375 25.471874 346.34375 26.315624L346.34375 29.55L345.29688 29.55ZM360.54688 27.55L361.64062 27.675Q361.39062 28.628124 360.6875 29.159374Q359.98438 29.690624 358.90625 29.690624Q357.54688 29.690624 356.73438 28.846874Q355.9375 28.003124 355.9375 26.4875Q355.9375 24.925 356.75 24.065624Q357.5625 23.190624 358.84375 23.190624Q360.09375 23.190624 360.875 24.034374Q361.67188 24.878124 361.67188 26.425Q361.67188 26.51875 361.67188 26.70625L357.03125 26.70625Q357.09375 27.7375 357.60938 28.284374Q358.125 28.815624 358.90625 28.815624Q359.48438 28.815624 359.89062 28.51875Q360.3125 28.20625 360.54688 27.55ZM357.09375 25.846874L360.5625 25.846874Q360.5 25.05 360.17188 24.659374Q359.65625 24.05 358.85938 24.05Q358.125 24.05 357.625 24.534374Q357.14062 25.01875 357.09375 25.846874Z" fill-rule="nonzero"/></svg>