<svg version="1.1" viewBox="0.0 0.0 600.0 371.0" fill="none" stroke="none" stroke-linecap="square" stroke-miterlimit="10" width="600" height="371" xmlns:xlink="http://www.w3.org/1999/xlink" xmlns="http://www.w3.org/2000/svg"><path fill="#ffffff" d="M0 0L600.0 0L600.0 371.0L0 371.0L0 0Z" fill-rule="nonzero"/><path stroke="#cccccc" stroke-width="1.0" stroke-linecap="butt" d="M77.5 51.5L77.5 300.5" fill-rule="nonzero"/><path stroke="#cccccc" stroke-width="1.0" stroke-linecap="butt" d="M225.5 51.5L225.5 300.5" fill-rule="nonzero"/><path stroke="#cccccc" stroke-width="1.0" stroke-linecap="butt" d="M373.5 51.5L373.5 300.5" fill-rule="nonzero"/><path stroke="#cccccc" stroke-width="1.0" stroke-linecap="butt" d="M520.5 51.5L520.5 300.5" fill-rule="nonzero"/><path stroke="#333333" stroke-width="1.0" stroke-linecap="butt" d="M77.5 300.5L522.5 300.5" fill-rule="nonzero"/><path stroke="#cccccc" stroke-width="1.0" stroke-linecap="butt" d="M77.5 238.5L522.5 238.5" fill-rule="nonzero"/><path stroke="#cccccc" stroke-width="1.0" stroke-linecap="butt" d="M77.5 176.5L522.5 176.5" fill-rule="nonzero"/><path stroke="#cccccc" stroke-width="1.0" stroke-linecap="butt" d="M77.5 114.5L522.5 114.5" fill-rule="nonzero"/><path stroke="#cccccc" stroke-width="1.0" stroke-linecap="butt" d="M77.5 51.5L522.5 51.5" fill-rule="nonzero"/><clipPath id="id_0"><path d="M77.55 51.916668L522.45 51.916668L522.45 300.45L77.55 300.45L77.55 51.916668Z" clip-rule="nonzero"/></clipPath><path stroke="#4285f4" stroke-width="2.0" stroke-linecap="butt" clip-path="url(#id_0)" d="M77.55 101.6112L166.53 250.7312L255.51 288.0112L344.49 297.3312L433.47 299.67334L522.45 300.24368" fill-rule="nonzero"/><path stroke="#ea4335" stroke-width="2.0" stroke-linecap="butt" clip-path="url(#id_0)" d="M77.55 82.75965L166.53 147.40317L255.51 133.83325L344.49 138.19005L433.47 146.86386L522.45 136.59943" fill-rule="nonzero"/><path fill="#000000" fill-opacity="0.0" clip-path="url(#id_0)" d="M80.55 101.6112C80.55 103.26805 79.206856 104.6112 77.55 104.6112C75.89314 104.6112 74.55 103.26805 74.55 101.6112C74.55 99.954346 75.89314 98.6112 77.55 98.6112C79.206856 98.6112 80.55 99.954346 80.55 101.6112Z" fill-rule="nonzero"/><path fill="#000000" fill-opacity="0.0" clip-path="url(#id_0)" d="M169.53 250.7312C169.53 252.38805 168.18686 253.7312 166.53 253.7312C164.87314 253.7312 163.53 252.38805 163.53 250.7312C163.53 249.07434 164.87314 247.7312 166.53 247.7312C168.18686 247.7312 169.53 249.07434 169.53 250.7312Z" fill-rule="nonzero"/><path fill="#000000" fill-opacity="0.0" clip-path="url(#id_0)" d="M258.51 288.0112C258.51 289.66806 257.16684 291.0112 255.51 291.0112C253.85315 291.0112 252.51 289.66806 252.51 288.0112C252.51 286.35434 253.85315 285.0112 255.51 285.0112C257.16684 285.0112 258.51 286.35434 258.51 288.0112Z" fill-rule="nonzero"/><path fill="#000000" fill-opacity="0.0" clip-path="url(#id_0)" d="M347.49 297.3312C347.49 298.98804 346.14685 300.3312 344.49 300.3312C342.83316 300.3312 341.49 298.98804 341.49 297.3312C341.49 295.67435 342.83316 294.3312 344.49 294.3312C346.14685 294.3312 347.49 295.67435 347.49 297.3312Z" fill-rule="nonzero"/><path fill="#000000" fill-opacity="0.0" clip-path="url(#id_0)" d="M436.47 299.67334C436.47 301.3302 435.12686 302.67334 433.47 302.67334C431.81314 302.67334 430.47 301.3302 430.47 299.67334C430.47 298.01648 431.81314 296.67334 433.47 296.67334C435.12686 296.67334 436.47 298.01648 436.47 299.67334Z" fill-rule="nonzero"/><path fill="#000000" fill-opacity="0.0" clip-path="url(#id_0)" d="M525.45 300.24368C525.45 301.90054 524.1069 303.24368 522.45 303.24368C520.79315 303.24368 519.45 301.90054 519.45 300.24368C519.45 298.58685 520.79315 297.24368 522.45 297.24368C524.1069 297.24368 525.45 298.58685 525.45 300.24368Z" fill-rule="nonzero"/><path fill="#000000" fill-opacity="0.0" clip-path="url(#id_0)" d="M80.55 82.75965C80.55 84.416504 79.206856 85.75965 77.55 85.75965C75.89314 85.75965 74.55 84.416504 74.55 82.75965C74.55 81.1028 75.89314 79.75965 77.55 79.75965C79.206856 79.75965 80.55 81.1028 80.55 82.75965Z" fill-rule="nonzero"/><path fill="#000000" fill-opacity="0.0" clip-path="url(#id_0)" d="M169.53 147.40317C169.53 149.06003 168.18686 150.40317 166.53 150.40317C164.87314 150.40317 163.53 149.06003 163.53 147.40317C163.53 145.74632 164.87314 144.40317 166.53 144.40317C168.18686 144.40317 169.53 145.74632 169.53 147.40317Z" fill-rule="nonzero"/><path fill="#000000" fill-opacity="0.0" clip-path="url(#id_0)" d="M258.51 133.83325C258.51 135.49011 257.16684 136.83325 255.51 136.83325C253.85315 136.83325 252.51 135.49011 252.51 133.83325C252.51 132.17639 253.85315 130.83325 255.51 130.83325C257.16684 130.83325 258.51 132.17639 258.51 133.83325Z" fill-rule="nonzero"/><path fill="#000000" fill-opacity="0.0" clip-path="url(#id_0)" d="M347.49 138.19005C347.49 139.8469 346.14685 141.19005 344.49 141.19005C342.83316 141.19005 341.49 139.8469 341.49 138.19005C341.49 136.53319 342.83316 135.19005 344.49 135.19005C346.14685 135.19005 347.49 136.53319 347.49 138.19005Z" fill-rule="nonzero"/><path fill="#000000" fill-opacity="0.0" clip-path="url(#id_0)" d="M436.47 146.86386C436.47 148.5207 435.12686 149.86386 433.47 149.86386C431.81314 149.86386 430.47 148.5207 430.47 146.86386C430.47 145.207 431.81314 143.86386 433.47 143.86386C435.12686 143.86386 436.47 145.207 436.47 146.86386Z" fill-rule="nonzero"/><path fill="#000000" fill-opacity="0.0" clip-path="url(#id_0)" d="M525.45 136.59943C525.45 138.25629 524.1069 139.59943 522.45 139.59943C520.79315 139.59943 519.45 138.25629 519.45 136.59943C519.45 134.94258 520.79315 133.59943 522.45 133.59943C524.1069 133.59943 525.45 134.94258 525.45 136.59943Z" fill-rule="nonzero"/><path fill="#000000" d="M249.79688 351.84064L249.79688 343.23126L250.75 343.23126L250.75 344.02814Q251.09375 343.5594 251.51562 343.325Q251.95312 343.09064 252.5625 343.09064Q253.35938 343.09064 253.96875 343.4969Q254.57812 343.90314 254.875 344.65314Q255.1875 345.40314 255.1875 346.29376Q255.1875 347.2469 254.84375 348.0125Q254.51562 348.77814 253.85938 349.1844Q253.20312 349.59064 252.48438 349.59064Q251.95312 349.59064 251.53125 349.3719Q251.10938 349.1375 250.84375 348.8094L250.84375 351.84064L249.79688 351.84064ZM250.75 346.3719Q250.75 347.575 251.23438 348.15314Q251.71875 348.71564 252.40625 348.71564Q253.10938 348.71564 253.60938 348.1219Q254.10938 347.52814 254.10938 346.27814Q254.10938 345.09064 253.625 344.5125Q253.14062 343.91876 252.45312 343.91876Q251.78125 343.91876 251.26562 344.54376Q250.75 345.16876 250.75 346.3719ZM256.76562 349.45L256.76562 340.85626L257.82812 340.85626L257.82812 349.45L256.76562 349.45ZM259.40625 346.34064Q259.40625 344.60626 260.35938 343.77814Q261.15625 343.09064 262.3125 343.09064Q263.59375 343.09064 264.40625 343.9344Q265.23438 344.7625 265.23438 346.2469Q265.23438 347.45 264.875 348.1375Q264.51562 348.825 263.8125 349.21564Q263.125 349.59064 262.3125 349.59064Q261.01562 349.59064 260.20312 348.7625Q259.40625 347.91876 259.40625 346.34064ZM260.48438 346.34064Q260.48438 347.52814 261.0 348.1219Q261.53125 348.71564 262.3125 348.71564Q263.10938 348.71564 263.625 348.1219Q264.14062 347.52814 264.14062 346.3094Q264.14062 345.15314 263.60938 344.5594Q263.09375 343.96564 262.3125 343.96564Q261.53125 343.96564 261.0 344.5594Q260.48438 345.1375 260.48438 346.34064ZM269.09375 348.5125L269.25 349.4344Q268.79688 349.52814 268.45312 349.52814Q267.875 349.52814 267.5625 349.35626Q267.25 349.16876 267.10938 348.8719Q266.98438 348.575 266.98438 347.6219L266.98438 344.04376L266.21875 344.04376L266.21875 343.23126L266.98438 343.23126L266.98438 341.6844L268.03125 341.0594L268.03125 343.23126L269.09375 343.23126L269.09375 344.04376L268.03125 344.04376L268.03125 347.6844Q268.03125 348.1375 268.07812 348.2625Q268.14062 348.3875 268.26562 348.46564Q268.39062 348.54376 268.625 348.54376Q268.8125 348.54376 269.09375 348.5125ZM269.59375 349.96564L270.625 350.1219Q270.6875 350.59064 270.98438 350.8094Q271.375 351.10626 272.04688 351.10626Q272.78125 351.10626 273.17188 350.8094Q273.57812 350.5125 273.71875 349.9969Q273.8125 349.66876 273.79688 348.6375Q273.10938 349.45 272.07812 349.45Q270.79688 349.45 270.09375 348.52814Q269.39062 347.59064 269.39062 346.3094Q269.39062 345.41876 269.70312 344.66876Q270.03125 343.90314 270.64062 343.4969Q271.25 343.09064 272.07812 343.09064Q273.1875 343.09064 273.90625 343.98126L273.90625 343.23126L274.875 343.23126L274.875 348.60626Q274.875 350.0594 274.57812 350.66876Q274.28125 351.27814 273.64062 351.6219Q273.0 351.98126 272.0625 351.98126Q270.95312 351.98126 270.26562 351.48126Q269.57812 350.98126 269.59375 349.96564ZM270.46875 346.23126Q270.46875 347.45 270.95312 348.0125Q271.4375 348.575 272.17188 348.575Q272.90625 348.575 273.39062 348.0125Q273.89062 347.45 273.89062 346.2625Q273.89062 345.1219 273.375 344.54376Q272.875 343.96564 272.15625 343.96564Q271.45312 343.96564 270.95312 344.54376Q270.46875 345.10626 270.46875 346.23126ZM280.85938 348.6844Q280.26562 349.1844 279.71875 349.3875Q279.1875 349.59064 278.5625 349.59064Q277.53125 349.59064 276.98438 349.09064Q276.4375 348.59064 276.4375 347.8094Q276.4375 347.35626 276.64062 346.98126Q276.84375 346.59064 277.1875 346.3719Q277.53125 346.1375 277.95312 346.02814Q278.25 345.9344 278.89062 345.85626Q280.15625 345.71564 280.76562 345.4969Q280.76562 345.27814 280.76562 345.23126Q280.76562 344.575 280.46875 344.3094Q280.0625 343.96564 279.26562 343.96564Q278.53125 343.96564 278.17188 344.23126Q277.8125 344.48126 277.64062 345.1375L276.60938 344.9969Q276.75 344.34064 277.07812 343.9344Q277.40625 343.52814 278.01562 343.3094Q278.625 343.09064 279.42188 343.09064Q280.21875 343.09064 280.71875 343.27814Q281.21875 343.46564 281.45312 343.7469Q281.6875 344.02814 281.78125 344.46564Q281.82812 344.73126 281.82812 345.4344L281.82812 346.84064Q281.82812 348.3094 281.89062 348.7Q281.96875 349.09064 282.17188 349.45L281.0625 349.45Q280.90625 349.1219 280.85938 348.6844ZM280.76562 346.325Q280.1875 346.5594 279.04688 346.73126Q278.39062 346.825 278.125 346.95Q277.85938 347.0594 277.70312 347.27814Q277.5625 347.4969 277.5625 347.77814Q277.5625 348.2 277.875 348.48126Q278.20312 348.7625 278.8125 348.7625Q279.42188 348.7625 279.89062 348.4969Q280.375 348.23126 280.59375 347.7625Q280.76562 347.40314 280.76562 346.71564L280.76562 346.325ZM283.79688 351.84064L283.79688 343.23126L284.75 343.23126L284.75 344.02814Q285.09375 343.5594 285.51562 343.325Q285.95312 343.09064 286.5625 343.09064Q287.35938 343.09064 287.96875 343.4969Q288.57812 343.90314 288.875 344.65314Q289.1875 345.40314 289.1875 346.29376Q289.1875 347.2469 288.84375 348.0125Q288.51562 348.77814 287.85938 349.1844Q287.20312 349.59064 286.48438 349.59064Q285.95312 349.59064 285.53125 349.3719Q285.10938 349.1375 284.84375 348.8094L284.84375 351.84064L283.79688 351.84064ZM284.75 346.3719Q284.75 347.575 285.23438 348.15314Q285.71875 348.71564 286.40625 348.71564Q287.10938 348.71564 287.60938 348.1219Q288.10938 347.52814 288.10938 346.27814Q288.10938 345.09064 287.625 344.5125Q287.14062 343.91876 286.45312 343.91876Q285.78125 343.91876 285.26562 344.54376Q284.75 345.16876 284.75 346.3719ZM295.8125 351.98126Q294.9375 350.8719 294.32812 349.40314Q293.73438 347.91876 293.73438 346.34064Q293.73438 344.95 294.17188 343.66876Q294.70312 342.1844 295.8125 340.71564L296.5625 340.71564Q295.85938 341.9344 295.625 342.45Q295.26562 343.2625 295.0625 344.1375Q294.8125 345.23126 294.8125 346.34064Q294.8125 349.16876 296.5625 351.98126L295.8125 351.98126ZM297.76562 349.45L297.76562 340.85626L298.82812 340.85626L298.82812 349.45L297.76562 349.45ZM300.40625 346.34064Q300.40625 344.60626 301.35938 343.77814Q302.15625 343.09064 303.3125 343.09064Q304.59375 343.09064 305.40625 343.9344Q306.23438 344.7625 306.23438 346.2469Q306.23438 347.45 305.875 348.1375Q305.51562 348.825 304.8125 349.21564Q304.125 349.59064 303.3125 349.59064Q302.01562 349.59064 301.20312 348.7625Q300.40625 347.91876 300.40625 346.34064ZM301.48438 346.34064Q301.48438 347.52814 302.0 348.1219Q302.53125 348.71564 303.3125 348.71564Q304.10938 348.71564 304.625 348.1219Q305.14062 347.52814 305.14062 346.3094Q305.14062 345.15314 304.60938 344.5594Q304.09375 343.96564 303.3125 343.96564Q302.53125 343.96564 302.0 344.5594Q301.48438 345.1375 301.48438 346.34064ZM307.59375 349.96564L308.625 350.1219Q308.6875 350.59064 308.98438 350.8094Q309.375 351.10626 310.04688 351.10626Q310.78125 351.10626 311.17188 350.8094Q311.57812 350.5125 311.71875 349.9969Q311.8125 349.66876 311.79688 348.6375Q311.10938 349.45 310.07812 349.45Q308.79688 349.45 308.09375 348.52814Q307.39062 347.59064 307.39062 346.3094Q307.39062 345.41876 307.70312 344.66876Q308.03125 343.90314 308.64062 343.4969Q309.25 343.09064 310.07812 343.09064Q311.1875 343.09064 311.90625 343.98126L311.90625 343.23126L312.875 343.23126L312.875 348.60626Q312.875 350.0594 312.57812 350.66876Q312.28125 351.27814 311.64062 351.6219Q311.0 351.98126 310.0625 351.98126Q308.95312 351.98126 308.26562 351.48126Q307.57812 350.98126 307.59375 349.96564ZM308.46875 346.23126Q308.46875 347.45 308.95312 348.0125Q309.4375 348.575 310.17188 348.575Q310.90625 348.575 311.39062 348.0125Q311.89062 347.45 311.89062 346.2625Q311.89062 345.1219 311.375 344.54376Q310.875 343.96564 310.15625 343.96564Q309.45312 343.96564 308.95312 344.54376Q308.46875 345.10626 308.46875 346.23126ZM317.375 347.59064L318.40625 347.4344Q318.5 348.0594 318.89062 348.3875Q319.29688 348.71564 320.03125 348.71564Q320.75 348.71564 321.09375 348.4344Q321.45312 348.1375 321.45312 347.73126Q321.45312 347.3719 321.14062 347.16876Q320.92188 347.02814 320.0625 346.8094Q318.90625 346.5125 318.45312 346.3094Q318.01562 346.09064 317.78125 345.71564Q317.54688 345.34064 317.54688 344.8719Q317.54688 344.46564 317.73438 344.10626Q317.92188 343.7469 318.25 343.5125Q318.5 343.34064 318.92188 343.21564Q319.34375 343.09064 319.84375 343.09064Q320.5625 343.09064 321.10938 343.3094Q321.67188 343.5125 321.9375 343.8719Q322.20312 344.23126 322.29688 344.825L321.26562 344.96564Q321.20312 344.4969 320.85938 344.23126Q320.53125 343.95 319.90625 343.95Q319.1875 343.95 318.875 344.2Q318.5625 344.4344 318.5625 344.7625Q318.5625 344.96564 318.6875 345.1219Q318.82812 345.29376 319.09375 345.40314Q319.25 345.46564 320.03125 345.66876Q321.15625 345.98126 321.59375 346.16876Q322.03125 346.35626 322.28125 346.71564Q322.53125 347.075 322.53125 347.6219Q322.53125 348.15314 322.21875 348.6219Q321.92188 349.075 321.34375 349.34064Q320.76562 349.59064 320.03125 349.59064Q318.8125 349.59064 318.17188 349.09064Q317.54688 348.575 317.375 347.59064ZM328.85938 347.16876L329.89062 347.3094Q329.71875 348.3719 329.01562 348.98126Q328.3125 349.59064 327.29688 349.59064Q326.01562 349.59064 325.23438 348.7625Q324.46875 347.91876 324.46875 346.35626Q324.46875 345.35626 324.79688 344.60626Q325.14062 343.84064 325.8125 343.46564Q326.5 343.09064 327.3125 343.09064Q328.3125 343.09064 328.95312 343.60626Q329.60938 344.10626 329.79688 345.0594L328.76562 345.21564Q328.625 344.59064 328.25 344.27814Q327.875 343.95 327.34375 343.95Q326.54688 343.95 326.04688 344.52814Q325.54688 345.09064 325.54688 346.325Q325.54688 347.59064 326.03125 348.15314Q326.51562 348.71564 327.28125 348.71564Q327.90625 348.71564 328.3125 348.34064Q328.73438 347.96564 328.85938 347.16876ZM334.85938 348.6844Q334.26562 349.1844 333.71875 349.3875Q333.1875 349.59064 332.5625 349.59064Q331.53125 349.59064 330.98438 349.09064Q330.4375 348.59064 330.4375 347.8094Q330.4375 347.35626 330.64062 346.98126Q330.84375 346.59064 331.1875 346.3719Q331.53125 346.1375 331.95312 346.02814Q332.25 345.9344 332.89062 345.85626Q334.15625 345.71564 334.76562 345.4969Q334.76562 345.27814 334.76562 345.23126Q334.76562 344.575 334.46875 344.3094Q334.0625 343.96564 333.26562 343.96564Q332.53125 343.96564 332.17188 344.23126Q331.8125 344.48126 331.64062 345.1375L330.60938 344.9969Q330.75 344.34064 331.07812 343.9344Q331.40625 343.52814 332.01562 343.3094Q332.625 343.09064 333.42188 343.09064Q334.21875 343.09064 334.71875 343.27814Q335.21875 343.46564 335.45312 343.7469Q335.6875 344.02814 335.78125 344.46564Q335.82812 344.73126 335.82812 345.4344L335.82812 346.84064Q335.82812 348.3094 335.89062 348.7Q335.96875 349.09064 336.17188 349.45L335.0625 349.45Q334.90625 349.1219 334.85938 348.6844ZM334.76562 346.325Q334.1875 346.5594 333.04688 346.73126Q332.39062 346.825 332.125 346.95Q331.85938 347.0594 331.70312 347.27814Q331.5625 347.4969 331.5625 347.77814Q331.5625 348.2 331.875 348.48126Q332.20312 348.7625 332.8125 348.7625Q333.42188 348.7625 333.89062 348.4969Q334.375 348.23126 334.59375 347.7625Q334.76562 347.40314 334.76562 346.71564L334.76562 346.325ZM337.76562 349.45L337.76562 340.85626L338.82812 340.85626L338.82812 349.45L337.76562 349.45ZM345.04688 347.45L346.14062 347.575Q345.89062 348.52814 345.1875 349.0594Q344.48438 349.59064 343.40625 349.59064Q342.04688 349.59064 341.23438 348.7469Q340.4375 347.90314 340.4375 346.3875Q340.4375 344.825 341.25 343.96564Q342.0625 343.09064 343.34375 343.09064Q344.59375 343.09064 345.375 343.9344Q346.17188 344.77814 346.17188 346.325Q346.17188 346.41876 346.17188 346.60626L341.53125 346.60626Q341.59375 347.6375 342.10938 348.1844Q342.625 348.71564 343.40625 348.71564Q343.98438 348.71564 344.39062 348.41876Q344.8125 348.10626 345.04688 347.45ZM341.59375 345.7469L345.0625 345.7469Q345.0 344.95 344.67188 344.5594Q344.15625 343.95 343.35938 343.95Q342.625 343.95 342.125 344.4344Q341.64062 344.91876 341.59375 345.7469ZM348.48438 351.98126L347.73438 351.98126Q349.48438 349.16876 349.48438 346.34064Q349.48438 345.2469 349.23438 344.15314Q349.03125 343.27814 348.67188 342.46564Q348.4375 341.95 347.73438 340.71564L348.48438 340.71564Q349.57812 342.1844 350.10938 343.66876Q350.5625 344.95 350.5625 346.34064Q350.5625 347.91876 349.95312 349.40314Q349.34375 350.8719 348.48438 351.98126Z" fill-rule="nonzero"/><path fill="#000000" d="M29.550013 216.05833L20.956263 216.05833L20.956263 214.93333L29.550013 214.93333L29.550013 216.05833ZM29.690638 214.18333L20.815638 211.69896L20.815638 210.85521L29.690638 213.33958L29.690638 214.18333ZM25.362513 210.60521Q23.221888 210.60521 22.018763 209.46458Q20.800013 208.30833 20.800013 206.49583Q20.800013 205.29271 21.378138 204.33958Q21.940638 203.38646 22.956263 202.88646Q23.971888 202.38646 25.268763 202.38646Q26.565638 202.38646 27.596888 202.91771Q28.628138 203.44896 29.159388 204.41771Q29.690638 205.37083 29.690638 206.49583Q29.690638 207.71458 29.112513 208.66771Q28.518763 209.62083 27.518763 210.12083Q26.503138 210.60521 25.362513 210.60521ZM25.378138 209.43333Q26.940638 209.43333 27.831263 208.60521Q28.721888 207.76146 28.721888 206.49583Q28.721888 205.21458 27.831263 204.38646Q26.925013 203.55833 25.253138 203.55833Q24.206263 203.55833 23.425013 203.91771Q22.643763 204.26146 22.221888 204.94896Q21.784388 205.63646 21.784388 206.48021Q21.784388 207.68333 22.612513 208.55833Q23.440638 209.43333 25.378138 209.43333ZM26.784388 198.63646L26.690638 197.57396Q27.346888 197.49583 27.753138 197.21458Q28.159388 196.93333 28.425013 196.35521Q28.675013 195.76146 28.675013 195.02708Q28.675013 194.38646 28.487513 193.88646Q28.284388 193.38646 27.956263 193.15208Q27.612513 192.90208 27.221888 192.90208Q26.815638 192.90208 26.518763 193.13646Q26.206263 193.37083 26.003138 193.90208Q25.862513 194.26146 25.581263 195.44896Q25.300013 196.62083 25.050013 197.08958Q24.721888 197.71458 24.253138 198.01146Q23.768763 198.30833 23.175013 198.30833Q22.534388 198.30833 21.971888 197.94896Q21.393763 197.57396 21.112513 196.87083Q20.815638 196.15208 20.815638 195.29271Q20.815638 194.33958 21.128138 193.60521Q21.425013 192.87083 22.034388 192.48021Q22.628138 192.08958 23.378138 192.05833L23.456263 193.15208Q22.643763 193.24583 22.237513 193.76146Q21.815638 194.26146 21.815638 195.24583Q21.815638 196.27708 22.190638 196.74583Q22.565638 197.21458 23.096888 197.21458Q23.565638 197.21458 23.862513 196.88646Q24.159388 196.55833 24.471888 195.18333Q24.784388 193.79271 25.018763 193.27708Q25.378138 192.52708 25.909388 192.16771Q26.425013 191.80833 27.128138 191.80833Q27.815638 191.80833 28.425013 192.19896Q29.018763 192.58958 29.362513 193.32396Q29.690638 194.05833 29.690638 194.98021Q29.690638 196.15208 29.362513 196.94896Q29.018763 197.73021 28.331263 198.18333Q27.643763 198.62083 26.784388 198.63646ZM22.175013 190.38646L20.956263 190.38646L20.956263 189.32396L22.175013 189.32396L22.175013 190.38646ZM29.550013 190.38646L23.331263 190.38646L23.331263 189.32396L29.550013 189.32396L29.550013 190.38646ZM29.550013 187.94896L28.690638 187.94896L24.143763 183.98021Q24.175013 184.66771 24.175013 185.18333L24.175013 187.71458L23.331263 187.71458L23.331263 182.62083L24.018763 182.62083L27.971888 185.99583L28.690638 186.65208Q28.643763 185.93333 28.643763 185.32396L28.643763 182.43333L29.550013 182.43333L29.550013 187.94896ZM27.550013 178.13646L27.675013 177.04271Q28.628138 177.29271 29.159388 177.99583Q29.690638 178.69896 29.690638 179.77708Q29.690638 181.13646 28.846888 181.94896Q28.003138 182.74583 26.487513 182.74583Q24.925013 182.74583 24.065638 181.93333Q23.190638 181.12083 23.190638 179.83958Q23.190638 178.58958 24.034388 177.80833Q24.878138 177.01146 26.425013 177.01146Q26.518763 177.01146 26.706263 177.01146L26.706263 181.65208Q27.737513 181.58958 28.284388 181.07396Q28.815638 180.55833 28.815638 179.77708Q28.815638 179.19896 28.518763 178.79271Q28.206263 178.37083 27.550013 178.13646ZM25.846888 181.58958L25.846888 178.12083Q25.050013 178.18333 24.659388 178.51146Q24.050013 179.02708 24.050013 179.82396Q24.050013 180.55833 24.534388 181.05833Q25.018763 181.54271 25.846888 181.58958ZM32.08126 170.37083Q30.971888 171.24583 29.503138 171.85521Q28.018763 172.44896 26.440638 172.44896Q25.050013 172.44896 23.768763 172.01146Q22.284388 171.48021 20.815638 170.37083L20.815638 169.62083Q22.034388 170.32396 22.550013 170.55833Q23.362513 170.91771 24.237513 171.12083Q25.331263 171.37083 26.440638 171.37083Q29.268763 171.37083 32.08126 169.62083L32.08126 170.37083ZM26.175013 164.23021L25.175013 164.23021L25.159388 160.60521L28.346888 160.60521Q29.018763 161.43333 29.362513 162.32396Q29.690638 163.21458 29.690638 164.15208Q29.690638 165.41771 29.159388 166.46458Q28.612513 167.49583 27.596888 168.02708Q26.565638 168.54271 25.300013 168.54271Q24.034388 168.54271 22.956263 168.02708Q21.862513 167.49583 21.346888 166.51146Q20.815638 165.52708 20.815638 164.24583Q20.815638 163.30833 21.112513 162.55833Q21.409388 161.80833 21.956263 161.38646Q22.487513 160.94896 23.362513 160.73021L23.643763 161.74583Q22.987513 161.94896 22.612513 162.24583Q22.237513 162.52708 22.018763 163.05833Q21.784388 163.58958 21.784388 164.23021Q21.784388 165.01146 22.018763 165.58958Q22.253138 166.15208 22.643763 166.51146Q23.034388 166.85521 23.503138 167.04271Q24.300013 167.37083 25.221888 167.37083Q26.378138 167.37083 27.159388 166.98021Q27.925013 166.57396 28.300013 165.82396Q28.675013 165.07396 28.675013 164.21458Q28.675013 163.48021 28.393763 162.77708Q28.096888 162.07396 27.784388 161.71458L26.175013 161.71458L26.175013 164.23021ZM29.550013 159.30833L20.956263 159.30833L20.956263 156.07396Q20.956263 155.08958 21.221888 154.49583Q21.487513 153.90208 22.034388 153.57396Q22.565638 153.23021 23.159388 153.23021Q23.706263 153.23021 24.190638 153.52708Q24.675013 153.82396 24.971888 154.43333Q25.206263 153.65208 25.768763 153.24583Q26.315638 152.82396 27.065638 152.82396Q27.659388 152.82396 28.190638 153.07396Q28.706263 153.32396 28.987513 153.69896Q29.268763 154.07396 29.409388 154.65208Q29.550013 155.21458 29.550013 156.02708L29.550013 159.30833ZM24.565638 158.16771L24.565638 156.30833Q24.565638 155.55833 24.471888 155.23021Q24.346888 154.79271 24.050013 154.57396Q23.737513 154.35521 23.284388 154.35521Q22.862513 154.35521 22.534388 154.55833Q22.206263 154.76146 22.096888 155.15208Q21.971888 155.52708 21.971888 156.44896L21.971888 158.16771L24.565638 158.16771ZM28.534388 158.16771L28.534388 156.02708Q28.534388 155.48021 28.487513 155.26146Q28.425013 154.85521 28.268763 154.60521Q28.096888 154.33958 27.784388 154.16771Q27.471888 153.99583 27.065638 153.99583Q26.581263 153.99583 26.221888 154.24583Q25.862513 154.48021 25.721888 154.91771Q25.581263 155.35521 25.581263 156.18333L25.581263 158.16771L28.534388 158.16771ZM32.08126 150.69896L32.08126 151.44896Q29.268763 149.69896 26.440638 149.69896Q25.346888 149.69896 24.253138 149.94896Q23.378138 150.15208 22.565638 150.51146Q22.050013 150.74583 20.815638 151.44896L20.815638 150.69896Q22.284388 149.60521 23.768763 149.07396Q25.050013 148.62083 26.440638 148.62083Q28.018763 148.62083 29.503138 149.23021Q30.971888 149.83958 32.08126 150.69896Z" fill-rule="nonzero"/><path fill="#000000" d="M578.45 209.07394L570.8719 209.07394L570.8719 211.90207L569.85626 211.90207L569.85626 205.08957L570.8719 205.08957L570.8719 207.93332L578.45 207.93332L578.45 209.07394ZM571.075 204.38644L569.85626 204.38644L569.85626 203.32394L571.075 203.32394L571.075 204.38644ZM578.45 204.38644L572.23126 204.38644L572.23126 203.32394L578.45 203.32394L578.45 204.38644ZM578.45 201.38644L572.23126 201.38644L572.23126 200.44894L573.10626 200.44894Q572.6375 200.15207 572.3719 199.6677Q572.09064 199.18332 572.09064 198.55832Q572.09064 197.87082 572.3719 197.43332Q572.65314 196.9802 573.16876 196.80832Q572.09064 196.05832 572.09064 194.88644Q572.09064 193.94894 572.60626 193.46457Q573.10626 192.96457 574.1844 192.96457L578.45 192.96457L578.45 194.01144L574.52814 194.01144Q573.90314 194.01144 573.6219 194.12082Q573.34064 194.21457 573.16876 194.4802Q572.9969 194.74582 572.9969 195.12082Q572.9969 195.77707 573.4344 196.21457Q573.8719 196.63644 574.84064 196.63644L578.45 196.63644L578.45 197.69894L574.40314 197.69894Q573.7 197.69894 573.35626 197.96457Q572.9969 198.21457 572.9969 198.7927Q572.9969 199.24582 573.23126 199.62082Q573.46564 199.99582 573.91876 200.1677Q574.3719 200.33957 575.21564 200.33957L578.45 200.33957L578.45 201.38644ZM576.45 186.13644L576.575 185.0427Q577.52814 185.2927 578.0594 185.99582Q578.59064 186.69894 578.59064 187.77707Q578.59064 189.13644 577.7469 189.94894Q576.90314 190.74582 575.3875 190.74582Q573.825 190.74582 572.96564 189.93332Q572.09064 189.12082 572.09064 187.83957Q572.09064 186.58957 572.9344 185.80832Q573.77814 185.01144 575.325 185.01144Q575.41876 185.01144 575.60626 185.01144L575.60626 189.65207Q576.6375 189.58957 577.1844 189.07394Q577.71564 188.55832 577.71564 187.77707Q577.71564 187.19894 577.41876 186.7927Q577.10626 186.37082 576.45 186.13644ZM574.7469 189.58957L574.7469 186.12082Q573.95 186.18332 573.5594 186.51144Q572.95 187.02707 572.95 187.82394Q572.95 188.55832 573.4344 189.05832Q573.91876 189.5427 574.7469 189.58957ZM580.98126 178.37082Q579.8719 179.24582 578.40314 179.8552Q576.91876 180.44894 575.34064 180.44894Q573.95 180.44894 572.66876 180.01144Q571.1844 179.4802 569.71564 178.37082L569.71564 177.62082Q570.9344 178.32394 571.45 178.55832Q572.2625 178.9177 573.1375 179.12082Q574.23126 179.37082 575.34064 179.37082Q578.16876 179.37082 580.98126 177.62082L580.98126 178.37082ZM576.59064 176.80832L576.4344 175.77707Q577.0594 175.68332 577.3875 175.2927Q577.71564 174.88644 577.71564 174.15207Q577.71564 173.43332 577.4344 173.08957Q577.1375 172.7302 576.73126 172.7302Q576.3719 172.7302 576.16876 173.0427Q576.02814 173.26144 575.8094 174.12082Q575.5125 175.27707 575.3094 175.7302Q575.09064 176.1677 574.71564 176.40207Q574.34064 176.63644 573.8719 176.63644Q573.46564 176.63644 573.10626 176.44894Q572.7469 176.26144 572.5125 175.93332Q572.34064 175.68332 572.21564 175.26144Q572.09064 174.83957 572.09064 174.33957Q572.09064 173.62082 572.3094 173.07394Q572.5125 172.51144 572.8719 172.24582Q573.23126 171.9802 573.825 171.88644L573.96564 172.9177Q573.4969 172.9802 573.23126 173.32394Q572.95 173.65207 572.95 174.27707Q572.95 174.99582 573.2 175.30832Q573.4344 175.62082 573.7625 175.62082Q573.96564 175.62082 574.1219 175.49582Q574.29376 175.3552 574.40314 175.08957Q574.46564 174.93332 574.66876 174.15207Q574.98126 173.02707 575.16876 172.58957Q575.35626 172.15207 575.71564 171.90207Q576.075 171.65207 576.6219 171.65207Q577.15314 171.65207 577.6219 171.96457Q578.075 172.26144 578.34064 172.83957Q578.59064 173.4177 578.59064 174.15207Q578.59064 175.37082 578.09064 176.01144Q577.575 176.63644 576.59064 176.80832ZM576.45 165.13644L576.575 164.0427Q577.52814 164.2927 578.0594 164.99582Q578.59064 165.69894 578.59064 166.77707Q578.59064 168.13644 577.7469 168.94894Q576.90314 169.74582 575.3875 169.74582Q573.825 169.74582 572.96564 168.93332Q572.09064 168.12082 572.09064 166.83957Q572.09064 165.58957 572.9344 164.80832Q573.77814 164.01144 575.325 164.01144Q575.41876 164.01144 575.60626 164.01144L575.60626 168.65207Q576.6375 168.58957 577.1844 168.07394Q577.71564 167.55832 577.71564 166.77707Q577.71564 166.19894 577.41876 165.7927Q577.10626 165.37082 576.45 165.13644ZM574.7469 168.58957L574.7469 165.12082Q573.95 165.18332 573.5594 165.51144Q572.95 166.02707 572.95 166.82394Q572.95 167.55832 573.4344 168.05832Q573.91876 168.5427 574.7469 168.58957ZM576.16876 158.32394L576.3094 157.2927Q577.3719 157.46457 577.98126 158.1677Q578.59064 158.87082 578.59064 159.88644Q578.59064 161.1677 577.7625 161.94894Q576.91876 162.71457 575.35626 162.71457Q574.35626 162.71457 573.60626 162.38644Q572.84064 162.0427 572.46564 161.37082Q572.09064 160.68332 572.09064 159.87082Q572.09064 158.87082 572.60626 158.2302Q573.10626 157.57394 574.0594 157.38644L574.21564 158.4177Q573.59064 158.55832 573.27814 158.93332Q572.95 159.30832 572.95 159.83957Q572.95 160.63644 573.52814 161.13644Q574.09064 161.63644 575.325 161.63644Q576.59064 161.63644 577.15314 161.15207Q577.71564 160.6677 577.71564 159.90207Q577.71564 159.27707 577.34064 158.87082Q576.96564 158.44894 576.16876 158.32394ZM580.98126 155.69894L580.98126 156.44894Q578.16876 154.69894 575.34064 154.69894Q574.2469 154.69894 573.15314 154.94894Q572.27814 155.15207 571.46564 155.51144Q570.95 155.74582 569.71564 156.44894L569.71564 155.69894Q571.1844 154.6052 572.66876 154.07394Q573.95 153.62082 575.34064 153.62082Q576.91876 153.62082 578.40314 154.2302Q579.8719 154.83957 580.98126 155.69894Z" fill-rule="nonzero"/><path fill="#000000" d="M65.05 300.21564Q65.05 298.6844 65.3625 297.7625Q65.675 296.825 66.28438 296.325Q66.90938 295.825 67.84688 295.825Q68.53438 295.825 69.05 296.10626Q69.58125 296.3875 69.925 296.91876Q70.26875 297.4344 70.45625 298.1844Q70.64375 298.9344 70.64375 300.21564Q70.64375 301.73126 70.33125 302.65314Q70.03438 303.575 69.40938 304.09064Q68.8 304.59064 67.84688 304.59064Q66.6125 304.59064 65.89375 303.7Q65.05 302.6375 65.05 300.21564ZM66.12813 300.21564Q66.12813 302.325 66.62813 303.02814Q67.12813 303.73126 67.84688 303.73126Q68.58125 303.73126 69.06563 303.02814Q69.56563 302.325 69.56563 300.21564Q69.56563 298.09064 69.06563 297.40314Q68.58125 296.7 67.83125 296.7Q67.1125 296.7 66.675 297.3094Q66.12813 298.09064 66.12813 300.21564Z" fill-rule="nonzero"/><path fill="#000000" d="M65.05 240.06667L66.15938 239.97292Q66.28438 240.78542 66.72188 241.19167Q67.175 241.59792 67.81563 241.59792Q68.56563 241.59792 69.09688 241.01979Q69.62813 240.44167 69.62813 239.50417Q69.62813 238.59792 69.1125 238.08229Q68.6125 237.55104 67.78438 237.55104Q67.28438 237.55104 66.8625 237.78542Q66.45625 238.01979 66.22188 238.37917L65.2375 238.25417L66.06563 233.84792L70.34688 233.84792L70.34688 234.84792L66.90938 234.84792L66.45625 237.16042Q67.22188 236.61354 68.06563 236.61354Q69.19063 236.61354 69.95625 237.39479Q70.7375 238.17604 70.7375 239.41042Q70.7375 240.56667 70.06563 241.42604Q69.2375 242.45729 67.81563 242.45729Q66.64375 242.45729 65.89375 241.80104Q65.15938 241.14479 65.05 240.06667Z" fill-rule="nonzero"/><path fill="#000000" d="M62.01875 180.18333L60.971874 180.18333L60.971874 173.46458Q60.58125 173.82396 59.95625 174.19896Q59.346874 174.55833 58.8625 174.73021L58.8625 173.71458Q59.7375 173.29271 60.39375 172.71458Q61.065624 172.12083 61.346874 171.55833L62.01875 171.55833L62.01875 180.18333ZM65.05 175.94896Q65.05 174.41771 65.3625 173.49583Q65.675 172.55833 66.28438 172.05833Q66.90938 171.55833 67.84688 171.55833Q68.53438 171.55833 69.05 171.83958Q69.58125 172.12083 69.925 172.65208Q70.26875 173.16771 70.45625 173.91771Q70.64375 174.66771 70.64375 175.94896Q70.64375 177.46458 70.33125 178.38646Q70.03438 179.30833 69.40938 179.82396Q68.8 180.32396 67.84688 180.32396Q66.6125 180.32396 65.89375 179.43333Q65.05 178.37083 65.05 175.94896ZM66.12813 175.94896Q66.12813 178.05833 66.62813 178.76146Q67.12813 179.46458 67.84688 179.46458Q68.58125 179.46458 69.06563 178.76146Q69.56563 178.05833 69.56563 175.94896Q69.56563 173.82396 69.06563 173.13646Q68.58125 172.43333 67.83125 172.43333Q67.1125 172.43333 66.675 173.04271Q66.12813 173.82396 66.12813 175.94896Z" fill-rule="nonzero"/><path fill="#000000" d="M62.01875 118.05L60.971874 118.05L60.971874 111.33125Q60.58125 111.69063 59.95625 112.06563Q59.346874 112.425 58.8625 112.59688L58.8625 111.58125Q59.7375 111.15938 60.39375 110.58125Q61.065624 109.9875 61.346874 109.425L62.01875 109.425L62.01875 118.05ZM65.05 115.8L66.15938 115.70625Q66.28438 116.51875 66.72188 116.925Q67.175 117.33125 67.81563 117.33125Q68.56563 117.33125 69.09688 116.75313Q69.62813 116.175 69.62813 115.2375Q69.62813 114.33125 69.1125 113.81563Q68.6125 113.28438 67.78438 113.28438Q67.28438 113.28438 66.8625 113.51875Q66.45625 113.75313 66.22188 114.1125L65.2375 113.9875L66.06563 109.58125L70.34688 109.58125L70.34688 110.58125L66.90938 110.58125L66.45625 112.89375Q67.22188 112.34688 68.06563 112.34688Q69.19063 112.34688 69.95625 113.12813Q70.7375 113.90938 70.7375 115.14375Q70.7375 116.3 70.06563 117.15938Q69.2375 118.19063 67.81563 118.19063Q66.64375 118.19063 65.89375 117.53438Q65.15938 116.87813 65.05 115.8Z" fill-rule="nonzero"/><path fill="#000000" d="M63.596874 54.901043L63.596874 55.916668L57.909374 55.916668Q57.909374 55.541668 58.034374 55.182293Q58.253124 54.604168 58.721874 54.041668Q59.20625 53.479168 60.1125 52.744793Q61.51875 51.588543 62.003124 50.916668Q62.503124 50.244793 62.503124 49.651043Q62.503124 49.026043 62.05 48.604168Q61.596874 48.166668 60.878124 48.166668Q60.1125 48.166668 59.659374 48.619793Q59.20625 49.072918 59.190624 49.885418L58.1125 49.776043Q58.221874 48.557293 58.940624 47.932293Q59.675 47.291668 60.909374 47.291668Q62.14375 47.291668 62.8625 47.979168Q63.58125 48.666668 63.58125 49.682293Q63.58125 50.197918 63.3625 50.697918Q63.159374 51.182293 62.659374 51.744793Q62.175 52.291668 61.05 53.244793Q60.096874 54.041668 59.815624 54.338543Q59.55 54.619793 59.378124 54.901043L63.596874 54.901043ZM65.05 51.682293Q65.05 50.151043 65.3625 49.229168Q65.675 48.291668 66.28438 47.791668Q66.90938 47.291668 67.84688 47.291668Q68.53438 47.291668 69.05 47.572918Q69.58125 47.854168 69.925 48.385418Q70.26875 48.901043 70.45625 49.651043Q70.64375 50.401043 70.64375 51.682293Q70.64375 53.197918 70.33125 54.119793Q70.03438 55.041668 69.40938 55.557293Q68.8 56.057293 67.84688 56.057293Q66.6125 56.057293 65.89375 55.166668Q65.05 54.104168 65.05 51.682293ZM66.12813 51.682293Q66.12813 53.791668 66.62813 54.494793Q67.12813 55.197918 67.84688 55.197918Q68.58125 55.197918 69.06563 54.494793Q69.56563 53.791668 69.56563 51.682293Q69.56563 49.557293 69.06563 48.869793Q68.58125 48.166668 67.83125 48.166668Q67.1125 48.166668 66.675 48.776043Q66.12813 49.557293 66.12813 51.682293Z" fill-rule="nonzero"/><path fill="#000000" d="M528.95 300.21564Q528.95 298.6844 529.2625 297.7625Q529.575 296.825 530.1844 296.325Q530.8094 295.825 531.7469 295.825Q532.4344 295.825 532.95 296.10626Q533.48126 296.3875 533.825 296.91876Q534.16876 297.4344 534.35626 298.1844Q534.54376 298.9344 534.54376 300.21564Q534.54376 301.73126 534.23126 302.65314Q533.9344 303.575 533.3094 304.09064Q532.7 304.59064 531.7469 304.59064Q530.5125 304.59064 529.79376 303.7Q528.95 302.6375 528.95 300.21564ZM530.02814 300.21564Q530.02814 302.325 530.52814 303.02814Q531.02814 303.73126 531.7469 303.73126Q532.48126 303.73126 532.96564 303.02814Q533.46564 302.325 533.46564 300.21564Q533.46564 298.09064 532.96564 297.40314Q532.48126 296.7 531.73126 296.7Q531.0125 296.7 530.575 297.3094Q530.02814 298.09064 530.02814 300.21564Z" fill-rule="nonzero"/><path fill="#000000" d="M534.4969 241.30104L534.4969 242.31667L528.8094 242.31667Q528.8094 241.94167 528.9344 241.58229Q529.15314 241.00417 529.6219 240.44167Q530.10626 239.87917 531.0125 239.14479Q532.41876 237.98854 532.90314 237.31667Q533.40314 236.64479 533.40314 236.05104Q533.40314 235.42604 532.95 235.00417Q532.4969 234.56667 531.77814 234.56667Q531.0125 234.56667 530.5594 235.01979Q530.10626 235.47292 530.09064 236.28542L529.0125 236.17604Q529.1219 234.95729 529.84064 234.33229Q530.575 233.69167 531.8094 233.69167Q533.04376 233.69167 533.7625 234.37917Q534.48126 235.06667 534.48126 236.08229Q534.48126 236.59792 534.2625 237.09792Q534.0594 237.58229 533.5594 238.14479Q533.075 238.69167 531.95 239.64479Q530.9969 240.44167 530.71564 240.73854Q530.45 241.01979 530.27814 241.30104L534.4969 241.30104ZM535.95 240.06667L537.0594 239.97292Q537.1844 240.78542 537.6219 241.19167Q538.075 241.59792 538.71564 241.59792Q539.46564 241.59792 539.9969 241.01979Q540.52814 240.44167 540.52814 239.50417Q540.52814 238.59792 540.0125 238.08229Q539.5125 237.55104 538.6844 237.55104Q538.1844 237.55104 537.7625 237.78542Q537.35626 238.01979 537.1219 238.37917L536.1375 238.25417L536.96564 233.84792L541.2469 233.84792L541.2469 234.84792L537.8094 234.84792L537.35626 237.16042Q538.1219 236.61354 538.96564 236.61354Q540.09064 236.61354 540.85626 237.39479Q541.6375 238.17604 541.6375 239.41042Q541.6375 240.56667 540.96564 241.42604Q540.1375 242.45729 538.71564 242.45729Q537.54376 242.45729 536.79376 241.80104Q536.0594 241.14479 535.95 240.06667Z" fill-rule="nonzero"/><path fill="#000000" d="M528.95 177.93333L530.0594 177.83958Q530.1844 178.65208 530.6219 179.05833Q531.075 179.46458 531.71564 179.46458Q532.46564 179.46458 532.9969 178.88646Q533.52814 178.30833 533.52814 177.37083Q533.52814 176.46458 533.0125 175.94896Q532.5125 175.41771 531.6844 175.41771Q531.1844 175.41771 530.7625 175.65208Q530.35626 175.88646 530.1219 176.24583L529.1375 176.12083L529.96564 171.71458L534.2469 171.71458L534.2469 172.71458L530.8094 172.71458L530.35626 175.02708Q531.1219 174.48021 531.96564 174.48021Q533.09064 174.48021 533.85626 175.26146Q534.6375 176.04271 534.6375 177.27708Q534.6375 178.43333 533.96564 179.29271Q533.1375 180.32396 531.71564 180.32396Q530.54376 180.32396 529.79376 179.66771Q529.0594 179.01146 528.95 177.93333ZM535.95 175.94896Q535.95 174.41771 536.2625 173.49583Q536.575 172.55833 537.1844 172.05833Q537.8094 171.55833 538.7469 171.55833Q539.4344 171.55833 539.95 171.83958Q540.48126 172.12083 540.825 172.65208Q541.16876 173.16771 541.35626 173.91771Q541.54376 174.66771 541.54376 175.94896Q541.54376 177.46458 541.23126 178.38646Q540.9344 179.30833 540.3094 179.82396Q539.7 180.32396 538.7469 180.32396Q537.5125 180.32396 536.79376 179.43333Q535.95 178.37083 535.95 175.94896ZM537.02814 175.94896Q537.02814 178.05833 537.52814 178.76146Q538.02814 179.46458 538.7469 179.46458Q539.48126 179.46458 539.96564 178.76146Q540.46564 178.05833 540.46564 175.94896Q540.46564 173.82396 539.96564 173.13646Q539.48126 172.43333 538.73126 172.43333Q538.0125 172.43333 537.575 173.04271Q537.02814 173.82396 537.02814 175.94896Z" fill-rule="nonzero"/><path fill="#000000" d="M529.0125 110.58125L529.0125 109.56563L534.575 109.56563L534.575 110.39375Q533.7625 111.26875 532.95 112.72188Q532.15314 114.15938 531.71564 115.69063Q531.3875 116.76875 531.3094 118.05L530.21564 118.05Q530.23126 117.03438 530.60626 115.59688Q530.9969 114.15938 531.7 112.83125Q532.41876 111.50313 533.23126 110.58125L529.0125 110.58125ZM535.95 115.8L537.0594 115.70625Q537.1844 116.51875 537.6219 116.925Q538.075 117.33125 538.71564 117.33125Q539.46564 117.33125 539.9969 116.75313Q540.52814 116.175 540.52814 115.2375Q540.52814 114.33125 540.0125 113.81563Q539.5125 113.28438 538.6844 113.28438Q538.1844 113.28438 537.7625 113.51875Q537.35626 113.75313 537.1219 114.1125L536.1375 113.9875L536.96564 109.58125L541.2469 109.58125L541.2469 110.58125L537.8094 110.58125L537.35626 112.89375Q538.1219 112.34688 538.96564 112.34688Q540.09064 112.34688 540.85626 113.12813Q541.6375 113.90938 541.6375 115.14375Q541.6375 116.3 540.96564 117.15938Q540.1375 118.19063 538.71564 118.19063Q537.54376 118.19063 536.79376 117.53438Q536.0594 116.87813 535.95 115.8Z" fill-rule="nonzero"/><path fill="#000000" d="M532.91876 55.916668L531.8719 55.916668L531.8719 49.197918Q531.48126 49.557293 530.85626 49.932293Q530.2469 50.291668 529.7625 50.463543L529.7625 49.447918Q530.6375 49.026043 531.29376 48.447918Q531.96564 47.854168 532.2469 47.291668L532.91876 47.291668L532.91876 55.916668ZM535.95 51.682293Q535.95 50.151043 536.2625 49.229168Q536.575 48.291668 537.1844 47.791668Q537.8094 47.291668 538.7469 47.291668Q539.4344 47.291668 539.95 47.572918Q540.48126 47.854168 540.825 48.385418Q541.16876 48.901043 541.35626 49.651043Q541.54376 50.401043 541.54376 51.682293Q541.54376 53.197918 541.23126 54.119793Q540.9344 55.041668 540.3094 55.557293Q539.7 56.057293 538.7469 56.057293Q537.5125 56.057293 536.79376 55.166668Q535.95 54.104168 535.95 51.682293ZM537.02814 51.682293Q537.02814 53.791668 537.52814 54.494793Q538.02814 55.197918 538.7469 55.197918Q539.48126 55.197918 539.96564 54.494793Q540.46564 53.791668 540.46564 51.682293Q540.46564 49.557293 539.96564 48.869793Q539.48126 48.166668 538.73126 48.166668Q538.0125 48.166668 537.575 48.776043Q537.02814 49.557293 537.02814 51.682293ZM542.95 51.682293Q542.95 50.151043 543.2625 49.229168Q543.575 48.291668 544.1844 47.791668Q544.8094 47.291668 545.7469 47.291668Q546.4344 47.291668 546.95 47.572918Q547.48126 47.854168 547.825 48.385418Q548.16876 48.901043 548.35626 49.651043Q548.54376 50.401043 548.54376 51.682293Q548.54376 53.197918 548.23126 54.119793Q547.9344 55.041668 547.3094 55.557293Q546.7 56.057293 545.7469 56.057293Q544.5125 56.057293 543.79376 55.166668Q542.95 54.104168 542.95 51.682293ZM544.02814 51.682293Q544.02814 53.791668 544.52814 54.494793Q545.02814 55.197918 545.7469 55.197918Q546.48126 55.197918 546.96564 54.494793Q547.46564 53.791668 547.46564 51.682293Q547.46564 49.557293 546.96564 48.869793Q546.48126 48.166668 545.73126 48.166668Q545.0125 48.166668 544.575 48.776043Q544.02814 49.557293 544.02814 51.682293Z" fill-rule="nonzero"/><path fill="#000000" d="M78.51875 317.45L77.47188 317.45L77.47188 310.73126Q77.08125 311.09064 76.45625 311.46564Q75.84688 311.825 75.3625 311.9969L75.3625 310.98126Q76.2375 310.5594 76.89375 309.98126Q77.56563 309.3875 77.84688 308.825L78.51875 308.825L78.51875 317.45Z" fill-rule="nonzero"/><path fill="#000000" d="M222.81133 317.45L221.76445 317.45L221.76445 310.73126Q221.37383 311.09064 220.74883 311.46564Q220.13945 311.825 219.65508 311.9969L219.65508 310.98126Q220.53008 310.5594 221.18633 309.98126Q221.8582 309.3875 222.13945 308.825L222.81133 308.825L222.81133 317.45ZM225.84258 313.21564Q225.84258 311.6844 226.15508 310.7625Q226.46758 309.825 227.07695 309.325Q227.70195 308.825 228.63945 308.825Q229.32695 308.825 229.84258 309.10626Q230.37383 309.3875 230.71758 309.91876Q231.06133 310.4344 231.24883 311.1844Q231.43633 311.9344 231.43633 313.21564Q231.43633 314.73126 231.12383 315.65314Q230.82695 316.575 230.20195 317.09064Q229.59258 317.59064 228.63945 317.59064Q227.40508 317.59064 226.68633 316.7Q225.84258 315.6375 225.84258 313.21564ZM226.9207 313.21564Q226.9207 315.325 227.4207 316.02814Q227.9207 316.73126 228.63945 316.73126Q229.37383 316.73126 229.8582 316.02814Q230.3582 315.325 230.3582 313.21564Q230.3582 311.09064 229.8582 310.40314Q229.37383 309.7 228.62383 309.7Q227.90508 309.7 227.46758 310.3094Q226.9207 311.09064 226.9207 313.21564Z" fill-rule="nonzero"/><path fill="#000000" d="M367.1039 317.45L366.05704 317.45L366.05704 310.73126Q365.6664 311.09064 365.0414 311.46564Q364.43204 311.825 363.94766 311.9969L363.94766 310.98126Q364.82266 310.5594 365.4789 309.98126Q366.1508 309.3875 366.43204 308.825L367.1039 308.825L367.1039 317.45ZM370.13516 313.21564Q370.13516 311.6844 370.44766 310.7625Q370.76016 309.825 371.36954 309.325Q371.99454 308.825 372.93204 308.825Q373.61954 308.825 374.13516 309.10626Q374.6664 309.3875 375.01016 309.91876Q375.3539 310.4344 375.5414 311.1844Q375.7289 311.9344 375.7289 313.21564Q375.7289 314.73126 375.4164 315.65314Q375.11954 316.575 374.49454 317.09064Q373.88516 317.59064 372.93204 317.59064Q371.69766 317.59064 370.9789 316.7Q370.13516 315.6375 370.13516 313.21564ZM371.2133 313.21564Q371.2133 315.325 371.7133 316.02814Q372.2133 316.73126 372.93204 316.73126Q373.6664 316.73126 374.1508 316.02814Q374.6508 315.325 374.6508 313.21564Q374.6508 311.09064 374.1508 310.40314Q373.6664 309.7 372.9164 309.7Q372.19766 309.7 371.76016 310.3094Q371.2133 311.09064 371.2133 313.21564ZM377.13516 313.21564Q377.13516 311.6844 377.44766 310.7625Q377.76016 309.825 378.36954 309.325Q378.99454 308.825 379.93204 308.825Q380.61954 308.825 381.13516 309.10626Q381.6664 309.3875 382.01016 309.91876Q382.3539 310.4344 382.5414 311.1844Q382.7289 311.9344 382.7289 313.21564Q382.7289 314.73126 382.4164 315.65314Q382.11954 316.575 381.49454 317.09064Q380.88516 317.59064 379.93204 317.59064Q378.69766 317.59064 377.9789 316.7Q377.13516 315.6375 377.13516 313.21564ZM378.2133 313.21564Q378.2133 315.325 378.7133 316.02814Q379.2133 316.73126 379.93204 316.73126Q380.6664 316.73126 381.1508 316.02814Q381.6508 315.325 381.6508 313.21564Q381.6508 311.09064 381.1508 310.40314Q380.6664 309.7 379.9164 309.7Q379.19766 309.7 378.76016 310.3094Q378.2133 311.09064 378.2133 313.21564Z" fill-rule="nonzero"/><path fill="#000000" d="M511.39648 317.45L510.3496 317.45L510.3496 310.73126Q509.95898 311.09064 509.33398 311.46564Q508.7246 311.825 508.24023 311.9969L508.24023 310.98126Q509.11523 310.5594 509.77148 309.98126Q510.44336 309.3875 510.7246 308.825L511.39648 308.825L511.39648 317.45ZM514.42773 313.21564Q514.42773 311.6844 514.74023 310.7625Q515.05273 309.825 515.6621 309.325Q516.2871 308.825 517.2246 308.825Q517.9121 308.825 518.42773 309.10626Q518.959 309.3875 519.30273 309.91876Q519.6465 310.4344 519.834 311.1844Q520.0215 311.9344 520.0215 313.21564Q520.0215 314.73126 519.709 315.65314Q519.4121 316.575 518.7871 317.09064Q518.17773 317.59064 517.2246 317.59064Q515.99023 317.59064 515.2715 316.7Q514.42773 315.6375 514.42773 313.21564ZM515.50586 313.21564Q515.50586 315.325 516.00586 316.02814Q516.50586 316.73126 517.2246 316.73126Q517.959 316.73126 518.44336 316.02814Q518.94336 315.325 518.94336 313.21564Q518.94336 311.09064 518.44336 310.40314Q517.959 309.7 517.209 309.7Q516.49023 309.7 516.05273 310.3094Q515.50586 311.09064 515.50586 313.21564ZM521.42773 313.21564Q521.42773 311.6844 521.74023 310.7625Q522.05273 309.825 522.6621 309.325Q523.2871 308.825 524.2246 308.825Q524.9121 308.825 525.42773 309.10626Q525.959 309.3875 526.30273 309.91876Q526.6465 310.4344 526.834 311.1844Q527.0215 311.9344 527.0215 313.21564Q527.0215 314.73126 526.709 315.65314Q526.4121 316.575 525.7871 317.09064Q525.17773 317.59064 524.2246 317.59064Q522.99023 317.59064 522.2715 316.7Q521.42773 315.6375 521.42773 313.21564ZM522.50586 313.21564Q522.50586 315.325 523.00586 316.02814Q523.50586 316.73126 524.2246 316.73126Q524.959 316.73126 525.44336 316.02814Q525.94336 315.325 525.94336 313.21564Q525.94336 311.09064 525.44336 310.40314Q524.959 309.7 524.209 309.7Q523.49023 309.7 523.05273 310.3094Q522.50586 311.09064 522.50586 313.21564ZM528.42773 313.21564Q528.42773 311.6844 528.74023 310.7625Q529.05273 309.825 529.6621 309.325Q530.2871 308.825 531.2246 308.825Q531.9121 308.825 532.42773 309.10626Q532.959 309.3875 533.30273 309.91876Q533.6465 310.4344 533.834 311.1844Q534.0215 311.9344 534.0215 313.21564Q534.0215 314.73126 533.709 315.65314Q533.4121 316.575 532.7871 317.09064Q532.17773 317.59064 531.2246 317.59064Q529.99023 317.59064 529.2715 316.7Q528.42773 315.6375 528.42773 313.21564ZM529.50586 313.21564Q529.50586 315.325 530.00586 316.02814Q530.50586 316.73126 531.2246 316.73126Q531.959 316.73126 532.44336 316.02814Q532.94336 315.325 532.94336 313.21564Q532.94336 311.09064 532.44336 310.40314Q531.959 309.7 531.209 309.7Q530.49023 309.7 530.05273 310.3094Q529.50586 311.09064 529.50586 313.21564Z" fill-rule="nonzero"/><path stroke="#4285f4" stroke-width="4.0" stroke-linecap="butt" d="M237.5 25.55L249.5 25.55" fill-rule="nonzero"/><path fill="#1a1a1a" d="M258.625 29.55L258.625 20.95625L259.75 20.95625L259.75 29.55L258.625 29.55ZM260.5 29.690624L262.98438 20.815624L263.82812 20.815624L261.34375 29.690624L260.5 29.690624ZM264.07812 25.3625Q264.07812 23.221874 265.21875 22.01875Q266.375 20.8 268.1875 20.8Q269.39062 20.8 270.34375 21.378124Q271.29688 21.940624 271.79688 22.95625Q272.29688 23.971874 272.29688 25.26875Q272.29688 26.565624 271.76562 27.596874Q271.23438 28.628124 270.26562 29.159374Q269.3125 29.690624 268.1875 29.690624Q266.96875 29.690624 266.01562 29.1125Q265.0625 28.51875 264.5625 27.51875Q264.07812 26.503124 264.07812 25.3625ZM265.25 25.378124Q265.25 26.940624 266.07812 27.83125Q266.92188 28.721874 268.1875 28.721874Q269.46875 28.721874 270.29688 27.83125Q271.125 26.925 271.125 25.253124Q271.125 24.20625 270.76562 23.425Q270.42188 22.64375 269.73438 22.221874Q269.04688 21.784374 268.20312 21.784374Q267.0 21.784374 266.125 22.6125Q265.25 23.440624 265.25 25.378124ZM276.04688 26.784374L277.10938 26.690624Q277.1875 27.346874 277.46875 27.753124Q277.75 28.159374 278.32812 28.425Q278.92188 28.675 279.65625 28.675Q280.29688 28.675 280.79688 28.4875Q281.29688 28.284374 281.53125 27.95625Q281.78125 27.6125 281.78125 27.221874Q281.78125 26.815624 281.54688 26.51875Q281.3125 26.20625 280.78125 26.003124Q280.42188 25.8625 279.23438 25.58125Q278.0625 25.3 277.59375 25.05Q276.96875 24.721874 276.67188 24.253124Q276.375 23.76875 276.375 23.175Q276.375 22.534374 276.73438 21.971874Q277.10938 21.39375 277.8125 21.1125Q278.53125 20.815624 279.39062 20.815624Q280.34375 20.815624 281.07812 21.128124Q281.8125 21.425 282.20312 22.034374Q282.59375 22.628124 282.625 23.378124L281.53125 23.45625Q281.4375 22.64375 280.92188 22.2375Q280.42188 21.815624 279.4375 21.815624Q278.40625 21.815624 277.9375 22.190624Q277.46875 22.565624 277.46875 23.096874Q277.46875 23.565624 277.79688 23.8625Q278.125 24.159374 279.5 24.471874Q280.89062 24.784374 281.40625 25.01875Q282.15625 25.378124 282.51562 25.909374Q282.875 26.425 282.875 27.128124Q282.875 27.815624 282.48438 28.425Q282.09375 29.01875 281.35938 29.3625Q280.625 29.690624 279.70312 29.690624Q278.53125 29.690624 277.73438 29.3625Q276.95312 29.01875 276.5 28.33125Q276.0625 27.64375 276.04688 26.784374ZM284.29688 22.175L284.29688 20.95625L285.35938 20.95625L285.35938 22.175L284.29688 22.175ZM284.29688 29.55L284.29688 23.33125L285.35938 23.33125L285.35938 29.55L284.29688 29.55ZM286.73438 29.55L286.73438 28.690624L290.70312 24.14375Q290.01562 24.175 289.5 24.175L286.96875 24.175L286.96875 23.33125L292.0625 23.33125L292.0625 24.01875L288.6875 27.971874L288.03125 28.690624Q288.75 28.64375 289.35938 28.64375L292.25 28.64375L292.25 29.55L286.73438 29.55ZM296.54688 27.55L297.64062 27.675Q297.39062 28.628124 296.6875 29.159374Q295.98438 29.690624 294.90625 29.690624Q293.54688 29.690624 292.73438 28.846874Q291.9375 28.003124 291.9375 26.4875Q291.9375 24.925 292.75 24.065624Q293.5625 23.190624 294.84375 23.190624Q296.09375 23.190624 296.875 24.034374Q297.67188 24.878124 297.67188 26.425Q297.67188 26.51875 297.67188 26.70625L293.03125 26.70625Q293.09375 27.7375 293.60938 28.284374Q294.125 28.815624 294.90625 28.815624Q295.48438 28.815624 295.89062 28.51875Q296.3125 28.20625 296.54688 27.55ZM293.09375 25.846874L296.5625 25.846874Q296.5 25.05 296.17188 24.659374Q295.65625 24.05 294.85938 24.05Q294.125 24.05 293.625 24.534374Q293.14062 25.01875 293.09375 25.846874Z" fill-rule="nonzero"/><path stroke="#ea4335" stroke-width="4.0" stroke-linecap="butt" d="M314.5 25.55L326.5 25.55" fill-rule="nonzero"/><path fill="#1a1a1a" d="M337.60938 29.55L337.60938 21.971874L334.78125 21.971874L334.78125 20.95625L341.59375 20.95625L341.59375 21.971874L338.75 21.971874L338.75 29.55L337.60938 29.55ZM342.29688 22.175L342.29688 20.95625L343.35938 20.95625L343.35938 22.175L342.29688 22.175ZM342.29688 29.55L342.29688 23.33125L343.35938 23.33125L343.35938 29.55L342.29688 29.55ZM345.29688 29.55L345.29688 23.33125L346.23438 23.33125L346.23438 24.20625Q346.53125 23.7375 347.01562 23.471874Q347.5 23.190624 348.125 23.190624Q348.8125 23.190624 349.25 23.471874Q349.70312 23.753124 349.875 24.26875Q350.625 23.190624 351.79688 23.190624Q352.73438 23.190624 353.21875 23.70625Q353.71875 24.20625 353.71875 25.284374L353.71875 29.55L352.67188 29.55L352.67188 25.628124Q352.67188 25.003124 352.5625 24.721874Q352.46875 24.440624 352.20312 24.26875Q351.9375 24.096874 351.5625 24.096874Q350.90625 24.096874 350.46875 24.534374Q350.04688 24.971874 350.04688 25.940624L350.04688 29.55L348.98438 29.55L348.98438 25.503124Q348.98438 24.8 348.71875 24.45625Q348.46875 24.096874 347.89062 24.096874Q347.4375 24.096874 347.0625 24.33125Q346.6875 24.565624 346.51562 25.01875Q346.34375 25.471874 346.34375 26.315624L346.34375 29.55L345.29688 29.55ZM360.54688 27.55L361.64062 27.675Q361.39062 28.628124 360.6875 29.159374Q359.98438 29.690624 358.90625 29.690624Q357.54688 29.690624 356.73438 28.846874Q355.9375 28.003124 355.9375 26.4875Q355.9375 24.925 356.75 24.065624Q357.5625 23.190624 358.84375 23.190624Q360.09375 23.190624 360.875 24.034374Q361.67188 24.878124 361.67188 26.425Q361.67188 26.51875 361.67188 26.70625L357.03125 26.70625Q357.09375 27.7375 357.60938 28.284374Q358.125 28.815624 358.90625 28.815624Q359.48438 28.815624 359.89062 28.51875Q360.3125 28.20625 360.54688 27.55ZM357.09375 25.846874L360.5625 25.846874Q360.5 25.05 360.17188 24.659374Q359.65625 24.05 358.85938 24.05Q358.125 24.05 357.625 24.534374Q357.14062 25.01875 357.09375 25.846874Z" fill-rule="nonzero"/></svg>