<svg version="1.1" viewBox="0.0 0.0 600.0 371.0" fill="none" stroke="none" stroke-linecap="square" stroke-miterlimit="10" width="600" height="371" xmlns:xlink="http://www.w3.org/1999/xlink" xmlns="http://www.w3.org/2000/svg"><path fill="#ffffff" d="M0 0L600.0 0L600.0 371.0L0 371.0L0 0Z" fill-rule="nonzero"/><path stroke="#cccccc" stroke-width="1.0" stroke-linecap="butt" d="M141.5 51.5L141.5 300.5" fill-rule="nonzero"/><path stroke="#cccccc" stroke-width="1.0" stroke-linecap="butt" d="M268.5 51.5L268.5 300.5" fill-rule="nonzero"/><path stroke="#cccccc" stroke-width="1.0" stroke-linecap="butt" d="M395.5 51.5L395.5 300.5" fill-rule="nonzero"/><path stroke="#cccccc" stroke-width="1.0" stroke-linecap="butt" d="M522.5 51.5L522.5 300.5" fill-rule="nonzero"/><path stroke="#333333" stroke-width="1.0" stroke-linecap="butt" d="M77.5 300.5L522.5 300.5" fill-rule="nonzero"/><path stroke="#cccccc" stroke-width="1.0" stroke-linecap="butt" d="M77.5 238.5L522.5 238.5" fill-rule="nonzero"/><path stroke="#cccccc" stroke-width="1.0" stroke-linecap="butt" d="M77.5 176.5L522.5 176.5" fill-rule="nonzero"/><path stroke="#cccccc" stroke-width="1.0" stroke-linecap="butt" d="M77.5 114.5L522.5 114.5" fill-rule="nonzero"/><path stroke="#cccccc" stroke-width="1.0" stroke-linecap="butt" d="M77.5 51.5L522.5 51.5" fill-rule="nonzero"/><clipPath id="id_0"><path d="M77.55 51.916668L522.45 51.916668L522.45 300.45L77.55 300.45L77.55 51.916668Z" clip-rule="nonzero"/></clipPath><path stroke="#4285f4" stroke-width="2.0" stroke-linecap="butt" clip-path="url(#id_0)" d="M77.55 276.0816L141.10715 251.78697L268.22144 203.24532L522.45 101.62334" fill-rule="nonzero"/><path stroke="#ea4335" stroke-width="2.0" stroke-linecap="butt" clip-path="url(#id_0)" d="M77.55 274.0775L141.10715 251.67534L268.22144 203.36667L522.45 110.663734" fill-rule="nonzero"/><path fill="#000000" fill-opacity="0.0" clip-path="url(#id_0)" d="M80.55 276.0816C80.55 277.73846 79.206856 279.0816 77.55 279.0816C75.89314 279.0816 74.55 277.73846 74.55 276.0816C74.55 274.42474 75.89314 273.0816 77.55 273.0816C79.206856 273.0816 80.55 274.42474 80.55 276.0816Z" fill-rule="nonzero"/><path fill="#000000" fill-opacity="0.0" clip-path="url(#id_0)" d="M144.10715 251.78697C144.10715 253.44383 142.76399 254.78697 141.10715 254.78697C139.45029 254.78697 138.10715 253.44383 138.10715 251.78697C138.10715 250.13013 139.45029 248.78697 141.10715 248.78697C142.76399 248.78697 144.10715 250.13013 144.10715 251.78697Z" fill-rule="nonzero"/><path fill="#000000" fill-opacity="0.0" clip-path="url(#id_0)" d="M271.22144 203.24532C271.22144 204.90216 269.8783 206.24532 268.22144 206.24532C266.56458 206.24532 265.22144 204.90216 265.22144 203.24532C265.22144 201.58846 266.56458 200.24532 268.22144 200.24532C269.8783 200.24532 271.22144 201.58846 271.22144 203.24532Z" fill-rule="nonzero"/><path fill="#000000" fill-opacity="0.0" clip-path="url(#id_0)" d="M525.45 101.62334C525.45 103.28019 524.1069 104.62334 522.45 104.62334C520.79315 104.62334 519.45 103.28019 519.45 101.62334C519.45 99.96648 520.79315 98.62334 522.45 98.62334C524.1069 98.62334 525.45 99.96648 525.45 101.62334Z" fill-rule="nonzero"/><path fill="#000000" fill-opacity="0.0" clip-path="url(#id_0)" d="M80.55 274.0775C80.55 275.73438 79.206856 277.0775 77.55 277.0775C75.89314 277.0775 74.55 275.73438 74.55 274.0775C74.55 272.42065 75.89314 271.0775 77.55 271.0775C79.206856 271.0775 80.55 272.42065 80.55 274.0775Z" fill-rule="nonzero"/><path fill="#000000" fill-opacity="0.0" clip-path="url(#id_0)" d="M144.10715 251.67534C144.10715 253.33218 142.76399 254.67534 141.10715 254.67534C139.45029 254.67534 138.10715 253.33218 138.10715 251.67534C138.10715 250.01848 139.45029 248.67534 141.10715 248.67534C142.76399 248.67534 144.10715 250.01848 144.10715 251.67534Z" fill-rule="nonzero"/><path fill="#000000" fill-opacity="0.0" clip-path="url(#id_0)" d="M271.22144 203.36667C271.22144 205.02351 269.8783 206.36667 268.22144 206.36667C266.56458 206.36667 265.22144 205.02351 265.22144 203.36667C265.22144 201.70981 266.56458 200.36667 268.22144 200.36667C269.8783 200.36667 271.22144 201.70981 271.22144 203.36667Z" fill-rule="nonzero"/><path fill="#000000" fill-opacity="0.0" clip-path="url(#id_0)" d="M525.45 110.663734C525.45 112.32059 524.1069 113.663734 522.45 113.663734C520.79315 113.663734 519.45 112.32059 519.45 110.663734C519.45 109.00688 520.79315 107.663734 522.45 107.663734C524.1069 107.663734 525.45 109.00688 525.45 110.663734Z" fill-rule="nonzero"/><path fill="#000000" d="M284.875 347.59064L285.90625 347.4344Q286.0 348.0594 286.39062 348.3875Q286.79688 348.71564 287.53125 348.71564Q288.25 348.71564 288.59375 348.4344Q288.95312 348.1375 288.95312 347.73126Q288.95312 347.3719 288.64062 347.16876Q288.42188 347.02814 287.5625 346.8094Q286.40625 346.5125 285.95312 346.3094Q285.51562 346.09064 285.28125 345.71564Q285.04688 345.34064 285.04688 344.8719Q285.04688 344.46564 285.23438 344.10626Q285.42188 343.7469 285.75 343.5125Q286.0 343.34064 286.42188 343.21564Q286.84375 343.09064 287.34375 343.09064Q288.0625 343.09064 288.60938 343.3094Q289.17188 343.5125 289.4375 343.8719Q289.70312 344.23126 289.79688 344.825L288.76562 344.96564Q288.70312 344.4969 288.35938 344.23126Q288.03125 343.95 287.40625 343.95Q286.6875 343.95 286.375 344.2Q286.0625 344.4344 286.0625 344.7625Q286.0625 344.96564 286.1875 345.1219Q286.32812 345.29376 286.59375 345.40314Q286.75 345.46564 287.53125 345.66876Q288.65625 345.98126 289.09375 346.16876Q289.53125 346.35626 289.78125 346.71564Q290.03125 347.075 290.03125 347.6219Q290.03125 348.15314 289.71875 348.6219Q289.42188 349.075 288.84375 349.34064Q288.26562 349.59064 287.53125 349.59064Q286.3125 349.59064 285.67188 349.09064Q285.04688 348.575 284.875 347.59064ZM294.59375 348.5125L294.75 349.4344Q294.29688 349.52814 293.95312 349.52814Q293.375 349.52814 293.0625 349.35626Q292.75 349.16876 292.60938 348.8719Q292.48438 348.575 292.48438 347.6219L292.48438 344.04376L291.71875 344.04376L291.71875 343.23126L292.48438 343.23126L292.48438 341.6844L293.53125 341.0594L293.53125 343.23126L294.59375 343.23126L294.59375 344.04376L293.53125 344.04376L293.53125 347.6844Q293.53125 348.1375 293.57812 348.2625Q293.64062 348.3875 293.76562 348.46564Q293.89062 348.54376 294.125 348.54376Q294.3125 348.54376 294.59375 348.5125ZM299.54688 347.45L300.64062 347.575Q300.39062 348.52814 299.6875 349.0594Q298.98438 349.59064 297.90625 349.59064Q296.54688 349.59064 295.73438 348.7469Q294.9375 347.90314 294.9375 346.3875Q294.9375 344.825 295.75 343.96564Q296.5625 343.09064 297.84375 343.09064Q299.09375 343.09064 299.875 343.9344Q300.67188 344.77814 300.67188 346.325Q300.67188 346.41876 300.67188 346.60626L296.03125 346.60626Q296.09375 347.6375 296.60938 348.1844Q297.125 348.71564 297.90625 348.71564Q298.48438 348.71564 298.89062 348.41876Q299.3125 348.10626 299.54688 347.45ZM296.09375 345.7469L299.5625 345.7469Q299.5 344.95 299.17188 344.5594Q298.65625 343.95 297.85938 343.95Q297.125 343.95 296.625 344.4344Q296.14062 344.91876 296.09375 345.7469ZM302.29688 351.84064L302.29688 343.23126L303.25 343.23126L303.25 344.02814Q303.59375 343.5594 304.01562 343.325Q304.45312 343.09064 305.0625 343.09064Q305.85938 343.09064 306.46875 343.4969Q307.07812 343.90314 307.375 344.65314Q307.6875 345.40314 307.6875 346.29376Q307.6875 347.2469 307.34375 348.0125Q307.01562 348.77814 306.35938 349.1844Q305.70312 349.59064 304.98438 349.59064Q304.45312 349.59064 304.03125 349.3719Q303.60938 349.1375 303.34375 348.8094L303.34375 351.84064L302.29688 351.84064ZM303.25 346.3719Q303.25 347.575 303.73438 348.15314Q304.21875 348.71564 304.90625 348.71564Q305.60938 348.71564 306.10938 348.1219Q306.60938 347.52814 306.60938 346.27814Q306.60938 345.09064 306.125 344.5125Q305.64062 343.91876 304.95312 343.91876Q304.28125 343.91876 303.76562 344.54376Q303.25 345.16876 303.25 346.3719ZM308.875 347.59064L309.90625 347.4344Q310.0 348.0594 310.39062 348.3875Q310.79688 348.71564 311.53125 348.71564Q312.25 348.71564 312.59375 348.4344Q312.95312 348.1375 312.95312 347.73126Q312.95312 347.3719 312.64062 347.16876Q312.42188 347.02814 311.5625 346.8094Q310.40625 346.5125 309.95312 346.3094Q309.51562 346.09064 309.28125 345.71564Q309.04688 345.34064 309.04688 344.8719Q309.04688 344.46564 309.23438 344.10626Q309.42188 343.7469 309.75 343.5125Q310.0 343.34064 310.42188 343.21564Q310.84375 343.09064 311.34375 343.09064Q312.0625 343.09064 312.60938 343.3094Q313.17188 343.5125 313.4375 343.8719Q313.70312 344.23126 313.79688 344.825L312.76562 344.96564Q312.70312 344.4969 312.35938 344.23126Q312.03125 343.95 311.40625 343.95Q310.6875 343.95 310.375 344.2Q310.0625 344.4344 310.0625 344.7625Q310.0625 344.96564 310.1875 345.1219Q310.32812 345.29376 310.59375 345.40314Q310.75 345.46564 311.53125 345.66876Q312.65625 345.98126 313.09375 346.16876Q313.53125 346.35626 313.78125 346.71564Q314.03125 347.075 314.03125 347.6219Q314.03125 348.15314 313.71875 348.6219Q313.42188 349.075 312.84375 349.34064Q312.26562 349.59064 311.53125 349.59064Q310.3125 349.59064 309.67188 349.09064Q309.04688 348.575 308.875 347.59064Z" fill-rule="nonzero"/><path fill="#000000" d="M29.550013 216.05833L20.956263 216.05833L20.956263 214.93333L29.550013 214.93333L29.550013 216.05833ZM29.690638 214.18333L20.815638 211.69896L20.815638 210.85521L29.690638 213.33958L29.690638 214.18333ZM25.362513 210.60521Q23.221888 210.60521 22.018763 209.46458Q20.800013 208.30833 20.800013 206.49583Q20.800013 205.29271 21.378138 204.33958Q21.940638 203.38646 22.956263 202.88646Q23.971888 202.38646 25.268763 202.38646Q26.565638 202.38646 27.596888 202.91771Q28.628138 203.44896 29.159388 204.41771Q29.690638 205.37083 29.690638 206.49583Q29.690638 207.71458 29.112513 208.66771Q28.518763 209.62083 27.518763 210.12083Q26.503138 210.60521 25.362513 210.60521ZM25.378138 209.43333Q26.940638 209.43333 27.831263 208.60521Q28.721888 207.76146 28.721888 206.49583Q28.721888 205.21458 27.831263 204.38646Q26.925013 203.55833 25.253138 203.55833Q24.206263 203.55833 23.425013 203.91771Q22.643763 204.26146 22.221888 204.94896Q21.784388 205.63646 21.784388 206.48021Q21.784388 207.68333 22.612513 208.55833Q23.440638 209.43333 25.378138 209.43333ZM26.784388 198.63646L26.690638 197.57396Q27.346888 197.49583 27.753138 197.21458Q28.159388 196.93333 28.425013 196.35521Q28.675013 195.76146 28.675013 195.02708Q28.675013 194.38646 28.487513 193.88646Q28.284388 193.38646 27.956263 193.15208Q27.612513 192.90208 27.221888 192.90208Q26.815638 192.90208 26.518763 193.13646Q26.206263 193.37083 26.003138 193.90208Q25.862513 194.26146 25.581263 195.44896Q25.300013 196.62083 25.050013 197.08958Q24.721888 197.71458 24.253138 198.01146Q23.768763 198.30833 23.175013 198.30833Q22.534388 198.30833 21.971888 197.94896Q21.393763 197.57396 21.112513 196.87083Q20.815638 196.15208 20.815638 195.29271Q20.815638 194.33958 21.128138 193.60521Q21.425013 192.87083 22.034388 192.48021Q22.628138 192.08958 23.378138 192.05833L23.456263 193.15208Q22.643763 193.24583 22.237513 193.76146Q21.815638 194.26146 21.815638 195.24583Q21.815638 196.27708 22.190638 196.74583Q22.565638 197.21458 23.096888 197.21458Q23.565638 197.21458 23.862513 196.88646Q24.159388 196.55833 24.471888 195.18333Q24.784388 193.79271 25.018763 193.27708Q25.378138 192.52708 25.909388 192.16771Q26.425013 191.80833 27.128138 191.80833Q27.815638 191.80833 28.425013 192.19896Q29.018763 192.58958 29.362513 193.32396Q29.690638 194.05833 29.690638 194.98021Q29.690638 196.15208 29.362513 196.94896Q29.018763 197.73021 28.331263 198.18333Q27.643763 198.62083 26.784388 198.63646ZM22.175013 190.38646L20.956263 190.38646L20.956263 189.32396L22.175013 189.32396L22.175013 190.38646ZM29.550013 190.38646L23.331263 190.38646L23.331263 189.32396L29.550013 189.32396L29.550013 190.38646ZM29.550013 187.94896L28.690638 187.94896L24.143763 183.98021Q24.175013 184.66771 24.175013 185.18333L24.175013 187.71458L23.331263 187.71458L23.331263 182.62083L24.018763 182.62083L27.971888 185.99583L28.690638 186.65208Q28.643763 185.93333 28.643763 185.32396L28.643763 182.43333L29.550013 182.43333L29.550013 187.94896ZM27.550013 178.13646L27.675013 177.04271Q28.628138 177.29271 29.159388 177.99583Q29.690638 178.69896 29.690638 179.77708Q29.690638 181.13646 28.846888 181.94896Q28.003138 182.74583 26.487513 182.74583Q24.925013 182.74583 24.065638 181.93333Q23.190638 181.12083 23.190638 179.83958Q23.190638 178.58958 24.034388 177.80833Q24.878138 177.01146 26.425013 177.01146Q26.518763 177.01146 26.706263 177.01146L26.706263 181.65208Q27.737513 181.58958 28.284388 181.07396Q28.815638 180.55833 28.815638 179.77708Q28.815638 179.19896 28.518763 178.79271Q28.206263 178.37083 27.550013 178.13646ZM25.846888 181.58958L25.846888 178.12083Q25.050013 178.18333 24.659388 178.51146Q24.050013 179.02708 24.050013 179.82396Q24.050013 180.55833 24.534388 181.05833Q25.018763 181.54271 25.846888 181.58958ZM32.08126 170.37083Q30.971888 171.24583 29.503138 171.85521Q28.018763 172.44896 26.440638 172.44896Q25.050013 172.44896 23.768763 172.01146Q22.284388 171.48021 20.815638 170.37083L20.815638 169.62083Q22.034388 170.32396 22.550013 170.55833Q23.362513 170.91771 24.237513 171.12083Q25.331263 171.37083 26.440638 171.37083Q29.268763 171.37083 32.08126 169.62083L32.08126 170.37083ZM26.175013 164.23021L25.175013 164.23021L25.159388 160.60521L28.346888 160.60521Q29.018763 161.43333 29.362513 162.32396Q29.690638 163.21458 29.690638 164.15208Q29.690638 165.41771 29.159388 166.46458Q28.612513 167.49583 27.596888 168.02708Q26.565638 168.54271 25.300013 168.54271Q24.034388 168.54271 22.956263 168.02708Q21.862513 167.49583 21.346888 166.51146Q20.815638 165.52708 20.815638 164.24583Q20.815638 163.30833 21.112513 162.55833Q21.409388 161.80833 21.956263 161.38646Q22.487513 160.94896 23.362513 160.73021L23.643763 161.74583Q22.987513 161.94896 22.612513 162.24583Q22.237513 162.52708 22.018763 163.05833Q21.784388 163.58958 21.784388 164.23021Q21.784388 165.01146 22.018763 165.58958Q22.253138 166.15208 22.643763 166.51146Q23.034388 166.85521 23.503138 167.04271Q24.300013 167.37083 25.221888 167.37083Q26.378138 167.37083 27.159388 166.98021Q27.925013 166.57396 28.300013 165.82396Q28.675013 165.07396 28.675013 164.21458Q28.675013 163.48021 28.393763 162.77708Q28.096888 162.07396 27.784388 161.71458L26.175013 161.71458L26.175013 164.23021ZM29.550013 159.30833L20.956263 159.30833L20.956263 156.07396Q20.956263 155.08958 21.221888 154.49583Q21.487513 153.90208 22.034388 153.57396Q22.565638 153.23021 23.159388 153.23021Q23.706263 153.23021 24.190638 153.52708Q24.675013 153.82396 24.971888 154.43333Q25.206263 153.65208 25.768763 153.24583Q26.315638 152.82396 27.065638 152.82396Q27.659388 152.82396 28.190638 153.07396Q28.706263 153.32396 28.987513 153.69896Q29.268763 154.07396 29.409388 154.65208Q29.550013 155.21458 29.550013 156.02708L29.550013 159.30833ZM24.565638 158.16771L24.565638 156.30833Q24.565638 155.55833 24.471888 155.23021Q24.346888 154.79271 24.050013 154.57396Q23.737513 154.35521 23.284388 154.35521Q22.862513 154.35521 22.534388 154.55833Q22.206263 154.76146 22.096888 155.15208Q21.971888 155.52708 21.971888 156.44896L21.971888 158.16771L24.565638 158.16771ZM28.534388 158.16771L28.534388 156.02708Q28.534388 155.48021 28.487513 155.26146Q28.425013 154.85521 28.268763 154.60521Q28.096888 154.33958 27.784388 154.16771Q27.471888 153.99583 27.065638 153.99583Q26.581263 153.99583 26.221888 154.24583Q25.862513 154.48021 25.721888 154.91771Q25.581263 155.35521 25.581263 156.18333L25.581263 158.16771L28.534388 158.16771ZM32.08126 150.69896L32.08126 151.44896Q29.268763 149.69896 26.440638 149.69896Q25.346888 149.69896 24.253138 149.94896Q23.378138 150.15208 22.565638 150.51146Q22.050013 150.74583 20.815638 151.44896L20.815638 150.69896Q22.284388 149.60521 23.768763 149.07396Q25.050013 148.62083 26.440638 148.62083Q28.018763 148.62083 29.503138 149.23021Q30.971888 149.83958 32.08126 150.69896Z" fill-rule="nonzero"/><path fill="#000000" d="M578.45 209.07394L570.8719 209.07394L570.8719 211.90207L569.85626 211.90207L569.85626 205.08957L570.8719 205.08957L570.8719 207.93332L578.45 207.93332L578.45 209.07394ZM571.075 204.38644L569.85626 204.38644L569.85626 203.32394L571.075 203.32394L571.075 204.38644ZM578.45 204.38644L572.23126 204.38644L572.23126 203.32394L578.45 203.32394L578.45 204.38644ZM578.45 201.38644L572.23126 201.38644L572.23126 200.44894L573.10626 200.44894Q572.6375 200.15207 572.3719 199.6677Q572.09064 199.18332 572.09064 198.55832Q572.09064 197.87082 572.3719 197.43332Q572.65314 196.9802 573.16876 196.80832Q572.09064 196.05832 572.09064 194.88644Q572.09064 193.94894 572.60626 193.46457Q573.10626 192.96457 574.1844 192.96457L578.45 192.96457L578.45 194.01144L574.52814 194.01144Q573.90314 194.01144 573.6219 194.12082Q573.34064 194.21457 573.16876 194.4802Q572.9969 194.74582 572.9969 195.12082Q572.9969 195.77707 573.4344 196.21457Q573.8719 196.63644 574.84064 196.63644L578.45 196.63644L578.45 197.69894L574.40314 197.69894Q573.7 197.69894 573.35626 197.96457Q572.9969 198.21457 572.9969 198.7927Q572.9969 199.24582 573.23126 199.62082Q573.46564 199.99582 573.91876 200.1677Q574.3719 200.33957 575.21564 200.33957L578.45 200.33957L578.45 201.38644ZM576.45 186.13644L576.575 185.0427Q577.52814 185.2927 578.0594 185.99582Q578.59064 186.69894 578.59064 187.77707Q578.59064 189.13644 577.7469 189.94894Q576.90314 190.74582 575.3875 190.74582Q573.825 190.74582 572.96564 189.93332Q572.09064 189.12082 572.09064 187.83957Q572.09064 186.58957 572.9344 185.80832Q573.77814 185.01144 575.325 185.01144Q575.41876 185.01144 575.60626 185.01144L575.60626 189.65207Q576.6375 189.58957 577.1844 189.07394Q577.71564 188.55832 577.71564 187.77707Q577.71564 187.19894 577.41876 186.7927Q577.10626 186.37082 576.45 186.13644ZM574.7469 189.58957L574.7469 186.12082Q573.95 186.18332 573.5594 186.51144Q572.95 187.02707 572.95 187.82394Q572.95 188.55832 573.4344 189.05832Q573.91876 189.5427 574.7469 189.58957ZM580.98126 178.37082Q579.8719 179.24582 578.40314 179.8552Q576.91876 180.44894 575.34064 180.44894Q573.95 180.44894 572.66876 180.01144Q571.1844 179.4802 569.71564 178.37082L569.71564 177.62082Q570.9344 178.32394 571.45 178.55832Q572.2625 178.9177 573.1375 179.12082Q574.23126 179.37082 575.34064 179.37082Q578.16876 179.37082 580.98126 177.62082L580.98126 178.37082ZM576.59064 176.80832L576.4344 175.77707Q577.0594 175.68332 577.3875 175.2927Q577.71564 174.88644 577.71564 174.15207Q577.71564 173.43332 577.4344 173.08957Q577.1375 172.7302 576.73126 172.7302Q576.3719 172.7302 576.16876 173.0427Q576.02814 173.26144 575.8094 174.12082Q575.5125 175.27707 575.3094 175.7302Q575.09064 176.1677 574.71564 176.40207Q574.34064 176.63644 573.8719 176.63644Q573.46564 176.63644 573.10626 176.44894Q572.7469 176.26144 572.5125 175.93332Q572.34064 175.68332 572.21564 175.26144Q572.09064 174.83957 572.09064 174.33957Q572.09064 173.62082 572.3094 173.07394Q572.5125 172.51144 572.8719 172.24582Q573.23126 171.9802 573.825 171.88644L573.96564 172.9177Q573.4969 172.9802 573.23126 173.32394Q572.95 173.65207 572.95 174.27707Q572.95 174.99582 573.2 175.30832Q573.4344 175.62082 573.7625 175.62082Q573.96564 175.62082 574.1219 175.49582Q574.29376 175.3552 574.40314 175.08957Q574.46564 174.93332 574.66876 174.15207Q574.98126 173.02707 575.16876 172.58957Q575.35626 172.15207 575.71564 171.90207Q576.075 171.65207 576.6219 171.65207Q577.15314 171.65207 577.6219 171.96457Q578.075 172.26144 578.34064 172.83957Q578.59064 173.4177 578.59064 174.15207Q578.59064 175.37082 578.09064 176.01144Q577.575 176.63644 576.59064 176.80832ZM576.45 165.13644L576.575 164.0427Q577.52814 164.2927 578.0594 164.99582Q578.59064 165.69894 578.59064 166.77707Q578.59064 168.13644 577.7469 168.94894Q576.90314 169.74582 575.3875 169.74582Q573.825 169.74582 572.96564 168.93332Q572.09064 168.12082 572.09064 166.83957Q572.09064 165.58957 572.9344 164.80832Q573.77814 164.01144 575.325 164.01144Q575.41876 164.01144 575.60626 164.01144L575.60626 168.65207Q576.6375 168.58957 577.1844 168.07394Q577.71564 167.55832 577.71564 166.77707Q577.71564 166.19894 577.41876 165.7927Q577.10626 165.37082 576.45 165.13644ZM574.7469 168.58957L574.7469 165.12082Q573.95 165.18332 573.5594 165.51144Q572.95 166.02707 572.95 166.82394Q572.95 167.55832 573.4344 168.05832Q573.91876 168.5427 574.7469 168.58957ZM576.16876 158.32394L576.3094 157.2927Q577.3719 157.46457 577.98126 158.1677Q578.59064 158.87082 578.59064 159.88644Q578.59064 161.1677 577.7625 161.94894Q576.91876 162.71457 575.35626 162.71457Q574.35626 162.71457 573.60626 162.38644Q572.84064 162.0427 572.46564 161.37082Q572.09064 160.68332 572.09064 159.87082Q572.09064 158.87082 572.60626 158.2302Q573.10626 157.57394 574.0594 157.38644L574.21564 158.4177Q573.59064 158.55832 573.27814 158.93332Q572.95 159.30832 572.95 159.83957Q572.95 160.63644 573.52814 161.13644Q574.09064 161.63644 575.325 161.63644Q576.59064 161.63644 577.15314 161.15207Q577.71564 160.6677 577.71564 159.90207Q577.71564 159.27707 577.34064 158.87082Q576.96564 158.44894 576.16876 158.32394ZM580.98126 155.69894L580.98126 156.44894Q578.16876 154.69894 575.34064 154.69894Q574.2469 154.69894 573.15314 154.94894Q572.27814 155.15207 571.46564 155.51144Q570.95 155.74582 569.71564 156.44894L569.71564 155.69894Q571.1844 154.6052 572.66876 154.07394Q573.95 153.62082 575.34064 153.62082Q576.91876 153.62082 578.40314 154.2302Q579.8719 154.83957 580.98126 155.69894Z" fill-rule="nonzero"/><path fill="#000000" d="M55.05 300.21564Q55.05 298.6844 55.3625 297.7625Q55.675 296.825 56.284374 296.325Q56.909374 295.825 57.846874 295.825Q58.534374 295.825 59.05 296.10626Q59.58125 296.3875 59.925 296.91876Q60.26875 297.4344 60.45625 298.1844Q60.64375 298.9344 60.64375 300.21564Q60.64375 301.73126 60.33125 302.65314Q60.034374 303.575 59.409374 304.09064Q58.8 304.59064 57.846874 304.59064Q56.6125 304.59064 55.89375 303.7Q55.05 302.6375 55.05 300.21564ZM56.128124 300.21564Q56.128124 302.325 56.628124 303.02814Q57.128124 303.73126 57.846874 303.73126Q58.58125 303.73126 59.065624 303.02814Q59.565624 302.325 59.565624 300.21564Q59.565624 298.09064 59.065624 297.40314Q58.58125 296.7 57.83125 296.7Q57.1125 296.7 56.675 297.3094Q56.128124 298.09064 56.128124 300.21564ZM62.64375 304.45L62.64375 303.2469L63.846874 303.2469L63.846874 304.45L62.64375 304.45ZM65.05 300.21564Q65.05 298.6844 65.3625 297.7625Q65.675 296.825 66.28438 296.325Q66.90938 295.825 67.84688 295.825Q68.53438 295.825 69.05 296.10626Q69.58125 296.3875 69.925 296.91876Q70.26875 297.4344 70.45625 298.1844Q70.64375 298.9344 70.64375 300.21564Q70.64375 301.73126 70.33125 302.65314Q70.03438 303.575 69.40938 304.09064Q68.8 304.59064 67.84688 304.59064Q66.6125 304.59064 65.89375 303.7Q65.05 302.6375 65.05 300.21564ZM66.12813 300.21564Q66.12813 302.325 66.62813 303.02814Q67.12813 303.73126 67.84688 303.73126Q68.58125 303.73126 69.06563 303.02814Q69.56563 302.325 69.56563 300.21564Q69.56563 298.09064 69.06563 297.40314Q68.58125 296.7 67.83125 296.7Q67.1125 296.7 66.675 297.3094Q66.12813 298.09064 66.12813 300.21564Z" fill-rule="nonzero"/><path fill="#000000" d="M55.05 238.08229Q55.05 236.55104 55.3625 235.62917Q55.675 234.69167 56.284374 234.19167Q56.909374 233.69167 57.846874 233.69167Q58.534374 233.69167 59.05 233.97292Q59.58125 234.25417 59.925 234.78542Q60.26875 235.30104 60.45625 236.05104Q60.64375 236.80104 60.64375 238.08229Q60.64375 239.59792 60.33125 240.51979Q60.034374 241.44167 59.409374 241.95729Q58.8 242.45729 57.846874 242.45729Q56.6125 242.45729 55.89375 241.56667Q55.05 240.50417 55.05 238.08229ZM56.128124 238.08229Q56.128124 240.19167 56.628124 240.89479Q57.128124 241.59792 57.846874 241.59792Q58.58125 241.59792 59.065624 240.89479Q59.565624 240.19167 59.565624 238.08229Q59.565624 235.95729 59.065624 235.26979Q58.58125 234.56667 57.83125 234.56667Q57.1125 234.56667 56.675 235.17604Q56.128124 235.95729 56.128124 238.08229ZM62.64375 242.31667L62.64375 241.11354L63.846874 241.11354L63.846874 242.31667L62.64375 242.31667ZM65.05 240.06667L66.15938 239.97292Q66.28438 240.78542 66.72188 241.19167Q67.175 241.59792 67.81563 241.59792Q68.56563 241.59792 69.09688 241.01979Q69.62813 240.44167 69.62813 239.50417Q69.62813 238.59792 69.1125 238.08229Q68.6125 237.55104 67.78438 237.55104Q67.28438 237.55104 66.8625 237.78542Q66.45625 238.01979 66.22188 238.37917L65.2375 238.25417L66.06563 233.84792L70.34688 233.84792L70.34688 234.84792L66.90938 234.84792L66.45625 237.16042Q67.22188 236.61354 68.06563 236.61354Q69.19063 236.61354 69.95625 237.39479Q70.7375 238.17604 70.7375 239.41042Q70.7375 240.56667 70.06563 241.42604Q69.2375 242.45729 67.81563 242.45729Q66.64375 242.45729 65.89375 241.80104Q65.15938 241.14479 65.05 240.06667Z" fill-rule="nonzero"/><path fill="#000000" d="M59.01875 180.18333L57.971874 180.18333L57.971874 173.46458Q57.58125 173.82396 56.95625 174.19896Q56.346874 174.55833 55.8625 174.73021L55.8625 173.71458Q56.7375 173.29271 57.39375 172.71458Q58.065624 172.12083 58.346874 171.55833L59.01875 171.55833L59.01875 180.18333ZM62.64375 180.18333L62.64375 178.98021L63.846874 178.98021L63.846874 180.18333L62.64375 180.18333ZM65.05 175.94896Q65.05 174.41771 65.3625 173.49583Q65.675 172.55833 66.28438 172.05833Q66.90938 171.55833 67.84688 171.55833Q68.53438 171.55833 69.05 171.83958Q69.58125 172.12083 69.925 172.65208Q70.26875 173.16771 70.45625 173.91771Q70.64375 174.66771 70.64375 175.94896Q70.64375 177.46458 70.33125 178.38646Q70.03438 179.30833 69.40938 179.82396Q68.8 180.32396 67.84688 180.32396Q66.6125 180.32396 65.89375 179.43333Q65.05 178.37083 65.05 175.94896ZM66.12813 175.94896Q66.12813 178.05833 66.62813 178.76146Q67.12813 179.46458 67.84688 179.46458Q68.58125 179.46458 69.06563 178.76146Q69.56563 178.05833 69.56563 175.94896Q69.56563 173.82396 69.06563 173.13646Q68.58125 172.43333 67.83125 172.43333Q67.1125 172.43333 66.675 173.04271Q66.12813 173.82396 66.12813 175.94896Z" fill-rule="nonzero"/><path fill="#000000" d="M59.01875 118.05L57.971874 118.05L57.971874 111.33125Q57.58125 111.69063 56.95625 112.06563Q56.346874 112.425 55.8625 112.59688L55.8625 111.58125Q56.7375 111.15938 57.39375 110.58125Q58.065624 109.9875 58.346874 109.425L59.01875 109.425L59.01875 118.05ZM62.64375 118.05L62.64375 116.84688L63.846874 116.84688L63.846874 118.05L62.64375 118.05ZM65.05 115.8L66.15938 115.70625Q66.28438 116.51875 66.72188 116.925Q67.175 117.33125 67.81563 117.33125Q68.56563 117.33125 69.09688 116.75313Q69.62813 116.175 69.62813 115.2375Q69.62813 114.33125 69.1125 113.81563Q68.6125 113.28438 67.78438 113.28438Q67.28438 113.28438 66.8625 113.51875Q66.45625 113.75313 66.22188 114.1125L65.2375 113.9875L66.06563 109.58125L70.34688 109.58125L70.34688 110.58125L66.90938 110.58125L66.45625 112.89375Q67.22188 112.34688 68.06563 112.34688Q69.19063 112.34688 69.95625 113.12813Q70.7375 113.90938 70.7375 115.14375Q70.7375 116.3 70.06563 117.15938Q69.2375 118.19063 67.81563 118.19063Q66.64375 118.19063 65.89375 117.53438Q65.15938 116.87813 65.05 115.8Z" fill-rule="nonzero"/><path fill="#000000" d="M60.596874 54.901043L60.596874 55.916668L54.909374 55.916668Q54.909374 55.541668 55.034374 55.182293Q55.253124 54.604168 55.721874 54.041668Q56.20625 53.479168 57.1125 52.744793Q58.51875 51.588543 59.003124 50.916668Q59.503124 50.244793 59.503124 49.651043Q59.503124 49.026043 59.05 48.604168Q58.596874 48.166668 57.878124 48.166668Q57.1125 48.166668 56.659374 48.619793Q56.20625 49.072918 56.190624 49.885418L55.1125 49.776043Q55.221874 48.557293 55.940624 47.932293Q56.675 47.291668 57.909374 47.291668Q59.14375 47.291668 59.8625 47.979168Q60.58125 48.666668 60.58125 49.682293Q60.58125 50.197918 60.3625 50.697918Q60.159374 51.182293 59.659374 51.744793Q59.175 52.291668 58.05 53.244793Q57.096874 54.041668 56.815624 54.338543Q56.55 54.619793 56.378124 54.901043L60.596874 54.901043ZM62.64375 55.916668L62.64375 54.713543L63.846874 54.713543L63.846874 55.916668L62.64375 55.916668ZM65.05 51.682293Q65.05 50.151043 65.3625 49.229168Q65.675 48.291668 66.28438 47.791668Q66.90938 47.291668 67.84688 47.291668Q68.53438 47.291668 69.05 47.572918Q69.58125 47.854168 69.925 48.385418Q70.26875 48.901043 70.45625 49.651043Q70.64375 50.401043 70.64375 51.682293Q70.64375 53.197918 70.33125 54.119793Q70.03438 55.041668 69.40938 55.557293Q68.8 56.057293 67.84688 56.057293Q66.6125 56.057293 65.89375 55.166668Q65.05 54.104168 65.05 51.682293ZM66.12813 51.682293Q66.12813 53.791668 66.62813 54.494793Q67.12813 55.197918 67.84688 55.197918Q68.58125 55.197918 69.06563 54.494793Q69.56563 53.791668 69.56563 51.682293Q69.56563 49.557293 69.06563 48.869793Q68.58125 48.166668 67.83125 48.166668Q67.1125 48.166668 66.675 48.776043Q66.12813 49.557293 66.12813 51.682293Z" fill-rule="nonzero"/><path fill="#000000" d="M528.95 300.21564Q528.95 298.6844 529.2625 297.7625Q529.575 296.825 530.1844 296.325Q530.8094 295.825 531.7469 295.825Q532.4344 295.825 532.95 296.10626Q533.48126 296.3875 533.825 296.91876Q534.16876 297.4344 534.35626 298.1844Q534.54376 298.9344 534.54376 300.21564Q534.54376 301.73126 534.23126 302.65314Q533.9344 303.575 533.3094 304.09064Q532.7 304.59064 531.7469 304.59064Q530.5125 304.59064 529.79376 303.7Q528.95 302.6375 528.95 300.21564ZM530.02814 300.21564Q530.02814 302.325 530.52814 303.02814Q531.02814 303.73126 531.7469 303.73126Q532.48126 303.73126 532.96564 303.02814Q533.46564 302.325 533.46564 300.21564Q533.46564 298.09064 532.96564 297.40314Q532.48126 296.7 531.73126 296.7Q531.0125 296.7 530.575 297.3094Q530.02814 298.09064 530.02814 300.21564Z" fill-rule="nonzero"/><path fill="#000000" d="M534.4969 241.30104L534.4969 242.31667L528.8094 242.31667Q528.8094 241.94167 528.9344 241.58229Q529.15314 241.00417 529.6219 240.44167Q530.10626 239.87917 531.0125 239.14479Q532.41876 237.98854 532.90314 237.31667Q533.40314 236.64479 533.40314 236.05104Q533.40314 235.42604 532.95 235.00417Q532.4969 234.56667 531.77814 234.56667Q531.0125 234.56667 530.5594 235.01979Q530.10626 235.47292 530.09064 236.28542L529.0125 236.17604Q529.1219 234.95729 529.84064 234.33229Q530.575 233.69167 531.8094 233.69167Q533.04376 233.69167 533.7625 234.37917Q534.48126 235.06667 534.48126 236.08229Q534.48126 236.59792 534.2625 237.09792Q534.0594 237.58229 533.5594 238.14479Q533.075 238.69167 531.95 239.64479Q530.9969 240.44167 530.71564 240.73854Q530.45 241.01979 530.27814 241.30104L534.4969 241.30104ZM535.95 238.08229Q535.95 236.55104 536.2625 235.62917Q536.575 234.69167 537.1844 234.19167Q537.8094 233.69167 538.7469 233.69167Q539.4344 233.69167 539.95 233.97292Q540.48126 234.25417 540.825 234.78542Q541.16876 235.30104 541.35626 236.05104Q541.54376 236.80104 541.54376 238.08229Q541.54376 239.59792 541.23126 240.51979Q540.9344 241.44167 540.3094 241.95729Q539.7 242.45729 538.7469 242.45729Q537.5125 242.45729 536.79376 241.56667Q535.95 240.50417 535.95 238.08229ZM537.02814 238.08229Q537.02814 240.19167 537.52814 240.89479Q538.02814 241.59792 538.7469 241.59792Q539.48126 241.59792 539.96564 240.89479Q540.46564 240.19167 540.46564 238.08229Q540.46564 235.95729 539.96564 235.26979Q539.48126 234.56667 538.73126 234.56667Q538.0125 234.56667 537.575 235.17604Q537.02814 235.95729 537.02814 238.08229Z" fill-rule="nonzero"/><path fill="#000000" d="M532.325 180.18333L532.325 178.12083L528.60626 178.12083L528.60626 177.15208L532.52814 171.58958L533.3875 171.58958L533.3875 177.15208L534.54376 177.15208L534.54376 178.12083L533.3875 178.12083L533.3875 180.18333L532.325 180.18333ZM532.325 177.15208L532.325 173.29271L529.6375 177.15208L532.325 177.15208ZM535.95 175.94896Q535.95 174.41771 536.2625 173.49583Q536.575 172.55833 537.1844 172.05833Q537.8094 171.55833 538.7469 171.55833Q539.4344 171.55833 539.95 171.83958Q540.48126 172.12083 540.825 172.65208Q541.16876 173.16771 541.35626 173.91771Q541.54376 174.66771 541.54376 175.94896Q541.54376 177.46458 541.23126 178.38646Q540.9344 179.30833 540.3094 179.82396Q539.7 180.32396 538.7469 180.32396Q537.5125 180.32396 536.79376 179.43333Q535.95 178.37083 535.95 175.94896ZM537.02814 175.94896Q537.02814 178.05833 537.52814 178.76146Q538.02814 179.46458 538.7469 179.46458Q539.48126 179.46458 539.96564 178.76146Q540.46564 178.05833 540.46564 175.94896Q540.46564 173.82396 539.96564 173.13646Q539.48126 172.43333 538.73126 172.43333Q538.0125 172.43333 537.575 173.04271Q537.02814 173.82396 537.02814 175.94896Z" fill-rule="nonzero"/><path fill="#000000" d="M534.41876 111.56563L533.3719 111.64375Q533.23126 111.01875 532.98126 110.7375Q532.54376 110.28438 531.91876 110.28438Q531.41876 110.28438 531.02814 110.56563Q530.54376 110.94063 530.2469 111.64375Q529.96564 112.33125 529.95 113.6125Q530.325 113.03438 530.8719 112.75313Q531.4344 112.47188 532.04376 112.47188Q533.09064 112.47188 533.825 113.25313Q534.575 114.03438 534.575 115.25313Q534.575 116.06563 534.21564 116.76875Q533.8719 117.45625 533.2625 117.83125Q532.65314 118.19063 531.8875 118.19063Q530.5594 118.19063 529.73126 117.22188Q528.90314 116.25313 528.90314 114.03438Q528.90314 111.53438 529.825 110.40938Q530.6219 109.425 531.98126 109.425Q532.9969 109.425 533.6375 110.00313Q534.29376 110.56563 534.41876 111.56563ZM530.1219 115.26875Q530.1219 115.81563 530.34064 116.31563Q530.575 116.8 530.98126 117.06563Q531.40314 117.33125 531.8719 117.33125Q532.52814 117.33125 533.0125 116.8Q533.4969 116.25313 533.4969 115.33125Q533.4969 114.44063 533.0125 113.925Q532.54376 113.40938 531.825 113.40938Q531.10626 113.40938 530.60626 113.925Q530.1219 114.44063 530.1219 115.26875ZM535.95 113.81563Q535.95 112.28438 536.2625 111.3625Q536.575 110.425 537.1844 109.925Q537.8094 109.425 538.7469 109.425Q539.4344 109.425 539.95 109.70625Q540.48126 109.9875 540.825 110.51875Q541.16876 111.03438 541.35626 111.78438Q541.54376 112.53438 541.54376 113.81563Q541.54376 115.33125 541.23126 116.25313Q540.9344 117.175 540.3094 117.69063Q539.7 118.19063 538.7469 118.19063Q537.5125 118.19063 536.79376 117.3Q535.95 116.2375 535.95 113.81563ZM537.02814 113.81563Q537.02814 115.925 537.52814 116.62813Q538.02814 117.33125 538.7469 117.33125Q539.48126 117.33125 539.96564 116.62813Q540.46564 115.925 540.46564 113.81563Q540.46564 111.69063 539.96564 111.00313Q539.48126 110.3 538.73126 110.3Q538.0125 110.3 537.575 110.90938Q537.02814 111.69063 537.02814 113.81563Z" fill-rule="nonzero"/><path fill="#000000" d="M530.575 51.260418Q529.91876 51.010418 529.59064 50.572918Q529.27814 50.119793 529.27814 49.510418Q529.27814 48.572918 529.95 47.932293Q530.6375 47.291668 531.7469 47.291668Q532.8719 47.291668 533.5594 47.947918Q534.2469 48.604168 534.2469 49.541668Q534.2469 50.135418 533.9344 50.572918Q533.6219 51.010418 532.98126 51.260418Q533.77814 51.510418 534.1844 52.088543Q534.59064 52.666668 534.59064 53.463543Q534.59064 54.557293 533.8094 55.307293Q533.04376 56.057293 531.7625 56.057293Q530.4969 56.057293 529.71564 55.307293Q528.9344 54.557293 528.9344 53.432293Q528.9344 52.588543 529.35626 52.026043Q529.79376 51.463543 530.575 51.260418ZM530.35626 49.463543Q530.35626 50.072918 530.7469 50.463543Q531.15314 50.854168 531.77814 50.854168Q532.3875 50.854168 532.77814 50.479168Q533.16876 50.088543 533.16876 49.526043Q533.16876 48.947918 532.7625 48.557293Q532.35626 48.151043 531.7625 48.151043Q531.15314 48.151043 530.7469 48.541668Q530.35626 48.932293 530.35626 49.463543ZM530.02814 53.432293Q530.02814 53.885418 530.23126 54.307293Q530.45 54.729168 530.8719 54.963543Q531.29376 55.197918 531.77814 55.197918Q532.52814 55.197918 533.0125 54.713543Q533.5125 54.229168 533.5125 53.479168Q533.5125 52.713543 533.0125 52.213543Q532.5125 51.713543 531.7469 51.713543Q530.9969 51.713543 530.5125 52.213543Q530.02814 52.697918 530.02814 53.432293ZM535.95 51.682293Q535.95 50.151043 536.2625 49.229168Q536.575 48.291668 537.1844 47.791668Q537.8094 47.291668 538.7469 47.291668Q539.4344 47.291668 539.95 47.572918Q540.48126 47.854168 540.825 48.385418Q541.16876 48.901043 541.35626 49.651043Q541.54376 50.401043 541.54376 51.682293Q541.54376 53.197918 541.23126 54.119793Q540.9344 55.041668 540.3094 55.557293Q539.7 56.057293 538.7469 56.057293Q537.5125 56.057293 536.79376 55.166668Q535.95 54.104168 535.95 51.682293ZM537.02814 51.682293Q537.02814 53.791668 537.52814 54.494793Q538.02814 55.197918 538.7469 55.197918Q539.48126 55.197918 539.96564 54.494793Q540.46564 53.791668 540.46564 51.682293Q540.46564 49.557293 539.96564 48.869793Q539.48126 48.166668 538.73126 48.166668Q538.0125 48.166668 537.575 48.776043Q537.02814 49.557293 537.02814 51.682293Z" fill-rule="nonzero"/><path fill="#000000" d="M133.15402 316.4344L133.15402 317.45L127.466515 317.45Q127.466515 317.075 127.591515 316.71564Q127.810265 316.1375 128.27902 315.575Q128.7634 315.0125 129.66965 314.27814Q131.0759 313.1219 131.56027 312.45Q132.06027 311.77814 132.06027 311.1844Q132.06027 310.5594 131.60715 310.1375Q131.15402 309.7 130.43527 309.7Q129.66965 309.7 129.21652 310.15314Q128.7634 310.60626 128.74777 311.41876L127.66964 311.3094Q127.779015 310.09064 128.49777 309.46564Q129.23215 308.825 130.46652 308.825Q131.7009 308.825 132.41965 309.5125Q133.1384 310.2 133.1384 311.21564Q133.1384 311.73126 132.91965 312.23126Q132.71652 312.71564 132.21652 313.27814Q131.73215 313.825 130.60715 314.77814Q129.65402 315.575 129.37277 315.8719Q129.10715 316.15314 128.93527 316.4344L133.15402 316.4344ZM134.60715 313.21564Q134.60715 311.6844 134.91965 310.7625Q135.23215 309.825 135.84152 309.325Q136.46652 308.825 137.40402 308.825Q138.09152 308.825 138.60715 309.10626Q139.1384 309.3875 139.48215 309.91876Q139.8259 310.4344 140.0134 311.1844Q140.2009 311.9344 140.2009 313.21564Q140.2009 314.73126 139.8884 315.65314Q139.59152 316.575 138.96652 317.09064Q138.35715 317.59064 137.40402 317.59064Q136.16965 317.59064 135.4509 316.7Q134.60715 315.6375 134.60715 313.21564ZM135.68527 313.21564Q135.68527 315.325 136.18527 316.02814Q136.68527 316.73126 137.40402 316.73126Q138.1384 316.73126 138.62277 316.02814Q139.12277 315.325 139.12277 313.21564Q139.12277 311.09064 138.62277 310.40314Q138.1384 309.7 137.3884 309.7Q136.66965 309.7 136.23215 310.3094Q135.68527 311.09064 135.68527 313.21564ZM141.60715 313.21564Q141.60715 311.6844 141.91965 310.7625Q142.23215 309.825 142.84152 309.325Q143.46652 308.825 144.40402 308.825Q145.09152 308.825 145.60715 309.10626Q146.1384 309.3875 146.48215 309.91876Q146.8259 310.4344 147.0134 311.1844Q147.2009 311.9344 147.2009 313.21564Q147.2009 314.73126 146.8884 315.65314Q146.59152 316.575 145.96652 317.09064Q145.35715 317.59064 144.40402 317.59064Q143.16965 317.59064 142.4509 316.7Q141.60715 315.6375 141.60715 313.21564ZM142.68527 313.21564Q142.68527 315.325 143.18527 316.02814Q143.68527 316.73126 144.40402 316.73126Q145.1384 316.73126 145.62277 316.02814Q146.12277 315.325 146.12277 313.21564Q146.12277 311.09064 145.62277 310.40314Q145.1384 309.7 144.3884 309.7Q143.66965 309.7 143.23215 310.3094Q142.68527 311.09064 142.68527 313.21564ZM148.60715 313.21564Q148.60715 311.6844 148.91965 310.7625Q149.23215 309.825 149.84152 309.325Q150.46652 308.825 151.40402 308.825Q152.09152 308.825 152.60715 309.10626Q153.1384 309.3875 153.48215 309.91876Q153.8259 310.4344 154.0134 311.1844Q154.2009 311.9344 154.2009 313.21564Q154.2009 314.73126 153.8884 315.65314Q153.59152 316.575 152.96652 317.09064Q152.35715 317.59064 151.40402 317.59064Q150.16965 317.59064 149.4509 316.7Q148.60715 315.6375 148.60715 313.21564ZM149.68527 313.21564Q149.68527 315.325 150.18527 316.02814Q150.68527 316.73126 151.40402 316.73126Q152.1384 316.73126 152.62277 316.02814Q153.12277 315.325 153.12277 313.21564Q153.12277 311.09064 152.62277 310.40314Q152.1384 309.7 151.3884 309.7Q150.66965 309.7 150.23215 310.3094Q149.68527 311.09064 149.68527 313.21564Z" fill-rule="nonzero"/><path fill="#000000" d="M258.09644 317.45L258.09644 315.3875L254.37769 315.3875L254.37769 314.41876L258.29956 308.85626L259.15894 308.85626L259.15894 314.41876L260.3152 314.41876L260.3152 315.3875L259.15894 315.3875L259.15894 317.45L258.09644 317.45ZM258.09644 314.41876L258.09644 310.5594L255.40894 314.41876L258.09644 314.41876ZM261.72144 313.21564Q261.72144 311.6844 262.03394 310.7625Q262.34644 309.825 262.9558 309.325Q263.5808 308.825 264.5183 308.825Q265.2058 308.825 265.72144 309.10626Q266.2527 309.3875 266.59644 309.91876Q266.9402 310.4344 267.1277 311.1844Q267.3152 311.9344 267.3152 313.21564Q267.3152 314.73126 267.0027 315.65314Q266.7058 316.575 266.0808 317.09064Q265.47144 317.59064 264.5183 317.59064Q263.28394 317.59064 262.5652 316.7Q261.72144 315.6375 261.72144 313.21564ZM262.79956 313.21564Q262.79956 315.325 263.29956 316.02814Q263.79956 316.73126 264.5183 316.73126Q265.2527 316.73126 265.73706 316.02814Q266.23706 315.325 266.23706 313.21564Q266.23706 311.09064 265.73706 310.40314Q265.2527 309.7 264.5027 309.7Q263.78394 309.7 263.34644 310.3094Q262.79956 311.09064 262.79956 313.21564ZM268.72144 313.21564Q268.72144 311.6844 269.03394 310.7625Q269.34644 309.825 269.9558 309.325Q270.5808 308.825 271.5183 308.825Q272.2058 308.825 272.72144 309.10626Q273.2527 309.3875 273.59644 309.91876Q273.9402 310.4344 274.1277 311.1844Q274.3152 311.9344 274.3152 313.21564Q274.3152 314.73126 274.0027 315.65314Q273.7058 316.575 273.0808 317.09064Q272.47144 317.59064 271.5183 317.59064Q270.28394 317.59064 269.5652 316.7Q268.72144 315.6375 268.72144 313.21564ZM269.79956 313.21564Q269.79956 315.325 270.29956 316.02814Q270.79956 316.73126 271.5183 316.73126Q272.2527 316.73126 272.73706 316.02814Q273.23706 315.325 273.23706 313.21564Q273.23706 311.09064 272.73706 310.40314Q272.2527 309.7 271.5027 309.7Q270.78394 309.7 270.34644 310.3094Q269.79956 311.09064 269.79956 313.21564ZM275.72144 313.21564Q275.72144 311.6844 276.03394 310.7625Q276.34644 309.825 276.9558 309.325Q277.5808 308.825 278.5183 308.825Q279.2058 308.825 279.72144 309.10626Q280.2527 309.3875 280.59644 309.91876Q280.9402 310.4344 281.1277 311.1844Q281.3152 311.9344 281.3152 313.21564Q281.3152 314.73126 281.0027 315.65314Q280.7058 316.575 280.0808 317.09064Q279.47144 317.59064 278.5183 317.59064Q277.28394 317.59064 276.5652 316.7Q275.72144 315.6375 275.72144 313.21564ZM276.79956 313.21564Q276.79956 315.325 277.29956 316.02814Q277.79956 316.73126 278.5183 316.73126Q279.2527 316.73126 279.73706 316.02814Q280.23706 315.325 280.23706 313.21564Q280.23706 311.09064 279.73706 310.40314Q279.2527 309.7 278.5027 309.7Q277.78394 309.7 277.34644 310.3094Q276.79956 311.09064 276.79956 313.21564Z" fill-rule="nonzero"/><path fill="#000000" d="M387.30447 310.96564L386.2576 311.04376Q386.11697 310.41876 385.86697 310.1375Q385.42947 309.6844 384.80447 309.6844Q384.30447 309.6844 383.91385 309.96564Q383.42947 310.34064 383.1326 311.04376Q382.85135 311.73126 382.83572 313.0125Q383.21072 312.4344 383.7576 312.15314Q384.3201 311.8719 384.92947 311.8719Q385.97635 311.8719 386.71072 312.65314Q387.46072 313.4344 387.46072 314.65314Q387.46072 315.46564 387.10135 316.16876Q386.7576 316.85626 386.14822 317.23126Q385.53885 317.59064 384.77322 317.59064Q383.4451 317.59064 382.61697 316.6219Q381.78885 315.65314 381.78885 313.4344Q381.78885 310.9344 382.71072 309.8094Q383.5076 308.825 384.86697 308.825Q385.8826 308.825 386.52322 309.40314Q387.17947 309.96564 387.30447 310.96564ZM383.0076 314.66876Q383.0076 315.21564 383.22635 315.71564Q383.46072 316.2 383.86697 316.46564Q384.28885 316.73126 384.7576 316.73126Q385.41385 316.73126 385.89822 316.2Q386.3826 315.65314 386.3826 314.73126Q386.3826 313.84064 385.89822 313.325Q385.42947 312.8094 384.71072 312.8094Q383.99197 312.8094 383.49197 313.325Q383.0076 313.84064 383.0076 314.66876ZM388.83572 313.21564Q388.83572 311.6844 389.14822 310.7625Q389.46072 309.825 390.0701 309.325Q390.6951 308.825 391.6326 308.825Q392.3201 308.825 392.83572 309.10626Q393.36697 309.3875 393.71072 309.91876Q394.05447 310.4344 394.24197 311.1844Q394.42947 311.9344 394.42947 313.21564Q394.42947 314.73126 394.11697 315.65314Q393.8201 316.575 393.1951 317.09064Q392.58572 317.59064 391.6326 317.59064Q390.39822 317.59064 389.67947 316.7Q388.83572 315.6375 388.83572 313.21564ZM389.91385 313.21564Q389.91385 315.325 390.41385 316.02814Q390.91385 316.73126 391.6326 316.73126Q392.36697 316.73126 392.85135 316.02814Q393.35135 315.325 393.35135 313.21564Q393.35135 311.09064 392.85135 310.40314Q392.36697 309.7 391.61697 309.7Q390.89822 309.7 390.46072 310.3094Q389.91385 311.09064 389.91385 313.21564ZM395.83572 313.21564Q395.83572 311.6844 396.14822 310.7625Q396.46072 309.825 397.0701 309.325Q397.6951 308.825 398.6326 308.825Q399.3201 308.825 399.83572 309.10626Q400.36697 309.3875 400.71072 309.91876Q401.05447 310.4344 401.24197 311.1844Q401.42947 311.9344 401.42947 313.21564Q401.42947 314.73126 401.11697 315.65314Q400.8201 316.575 400.1951 317.09064Q399.58572 317.59064 398.6326 317.59064Q397.39822 317.59064 396.67947 316.7Q395.83572 315.6375 395.83572 313.21564ZM396.91385 313.21564Q396.91385 315.325 397.41385 316.02814Q397.91385 316.73126 398.6326 316.73126Q399.36697 316.73126 399.85135 316.02814Q400.35135 315.325 400.35135 313.21564Q400.35135 311.09064 399.85135 310.40314Q399.36697 309.7 398.61697 309.7Q397.89822 309.7 397.46072 310.3094Q396.91385 311.09064 396.91385 313.21564ZM402.83572 313.21564Q402.83572 311.6844 403.14822 310.7625Q403.46072 309.825 404.0701 309.325Q404.6951 308.825 405.6326 308.825Q406.3201 308.825 406.83572 309.10626Q407.36697 309.3875 407.71072 309.91876Q408.05447 310.4344 408.24197 311.1844Q408.42947 311.9344 408.42947 313.21564Q408.42947 314.73126 408.11697 315.65314Q407.8201 316.575 407.1951 317.09064Q406.58572 317.59064 405.6326 317.59064Q404.39822 317.59064 403.67947 316.7Q402.83572 315.6375 402.83572 313.21564ZM403.91385 313.21564Q403.91385 315.325 404.41385 316.02814Q404.91385 316.73126 405.6326 316.73126Q406.36697 316.73126 406.85135 316.02814Q407.35135 315.325 407.35135 313.21564Q407.35135 311.09064 406.85135 310.40314Q406.36697 309.7 405.61697 309.7Q404.89822 309.7 404.46072 310.3094Q403.91385 311.09064 403.91385 313.21564Z" fill-rule="nonzero"/><path fill="#000000" d="M510.575 312.79376Q509.91876 312.54376 509.59064 312.10626Q509.27814 311.65314 509.27814 311.04376Q509.27814 310.10626 509.95 309.46564Q510.6375 308.825 511.7469 308.825Q512.8719 308.825 513.5594 309.48126Q514.2469 310.1375 514.2469 311.075Q514.2469 311.66876 513.9344 312.10626Q513.6219 312.54376 512.98126 312.79376Q513.77814 313.04376 514.1844 313.6219Q514.59064 314.2 514.59064 314.9969Q514.59064 316.09064 513.8094 316.84064Q513.04376 317.59064 511.7625 317.59064Q510.4969 317.59064 509.71564 316.84064Q508.9344 316.09064 508.9344 314.96564Q508.9344 314.1219 509.35626 313.5594Q509.79376 312.9969 510.575 312.79376ZM510.35626 310.9969Q510.35626 311.60626 510.7469 311.9969Q511.15314 312.3875 511.77814 312.3875Q512.3875 312.3875 512.77814 312.0125Q513.16876 311.6219 513.16876 311.0594Q513.16876 310.48126 512.7625 310.09064Q512.35626 309.6844 511.7625 309.6844Q511.15314 309.6844 510.7469 310.075Q510.35626 310.46564 510.35626 310.9969ZM510.02814 314.96564Q510.02814 315.41876 510.23126 315.84064Q510.45 316.2625 510.8719 316.4969Q511.29376 316.73126 511.77814 316.73126Q512.52814 316.73126 513.0125 316.2469Q513.5125 315.7625 513.5125 315.0125Q513.5125 314.2469 513.0125 313.7469Q512.5125 313.2469 511.7469 313.2469Q510.9969 313.2469 510.5125 313.7469Q510.02814 314.23126 510.02814 314.96564ZM515.95 313.21564Q515.95 311.6844 516.2625 310.7625Q516.575 309.825 517.1844 309.325Q517.8094 308.825 518.7469 308.825Q519.4344 308.825 519.95 309.10626Q520.48126 309.3875 520.825 309.91876Q521.16876 310.4344 521.35626 311.1844Q521.54376 311.9344 521.54376 313.21564Q521.54376 314.73126 521.23126 315.65314Q520.9344 316.575 520.3094 317.09064Q519.7 317.59064 518.7469 317.59064Q517.5125 317.59064 516.79376 316.7Q515.95 315.6375 515.95 313.21564ZM517.02814 313.21564Q517.02814 315.325 517.52814 316.02814Q518.02814 316.73126 518.7469 316.73126Q519.48126 316.73126 519.96564 316.02814Q520.46564 315.325 520.46564 313.21564Q520.46564 311.09064 519.96564 310.40314Q519.48126 309.7 518.73126 309.7Q518.0125 309.7 517.575 310.3094Q517.02814 311.09064 517.02814 313.21564ZM522.95 313.21564Q522.95 311.6844 523.2625 310.7625Q523.575 309.825 524.1844 309.325Q524.8094 308.825 525.7469 308.825Q526.4344 308.825 526.95 309.10626Q527.48126 309.3875 527.825 309.91876Q528.16876 310.4344 528.35626 311.1844Q528.54376 311.9344 528.54376 313.21564Q528.54376 314.73126 528.23126 315.65314Q527.9344 316.575 527.3094 317.09064Q526.7 317.59064 525.7469 317.59064Q524.5125 317.59064 523.79376 316.7Q522.95 315.6375 522.95 313.21564ZM524.02814 313.21564Q524.02814 315.325 524.52814 316.02814Q525.02814 316.73126 525.7469 316.73126Q526.48126 316.73126 526.96564 316.02814Q527.46564 315.325 527.46564 313.21564Q527.46564 311.09064 526.96564 310.40314Q526.48126 309.7 525.73126 309.7Q525.0125 309.7 524.575 310.3094Q524.02814 311.09064 524.02814 313.21564ZM529.95 313.21564Q529.95 311.6844 530.2625 310.7625Q530.575 309.825 531.1844 309.325Q531.8094 308.825 532.7469 308.825Q533.4344 308.825 533.95 309.10626Q534.48126 309.3875 534.825 309.91876Q535.16876 310.4344 535.35626 311.1844Q535.54376 311.9344 535.54376 313.21564Q535.54376 314.73126 535.23126 315.65314Q534.9344 316.575 534.3094 317.09064Q533.7 317.59064 532.7469 317.59064Q531.5125 317.59064 530.79376 316.7Q529.95 315.6375 529.95 313.21564ZM531.02814 313.21564Q531.02814 315.325 531.52814 316.02814Q532.02814 316.73126 532.7469 316.73126Q533.48126 316.73126 533.96564 316.02814Q534.46564 315.325 534.46564 313.21564Q534.46564 311.09064 533.96564 310.40314Q533.48126 309.7 532.73126 309.7Q532.0125 309.7 531.575 310.3094Q531.02814 311.09064 531.02814 313.21564Z" fill-rule="nonzero"/><path stroke="#4285f4" stroke-width="4.0" stroke-linecap="butt" d="M237.5 25.55L249.5 25.55" fill-rule="nonzero"/><path fill="#1a1a1a" d="M258.625 29.55L258.625 20.95625L259.75 20.95625L259.75 29.55L258.625 29.55ZM260.5 29.690624L262.98438 20.815624L263.82812 20.815624L261.34375 29.690624L260.5 29.690624ZM264.07812 25.3625Q264.07812 23.221874 265.21875 22.01875Q266.375 20.8 268.1875 20.8Q269.39062 20.8 270.34375 21.378124Q271.29688 21.940624 271.79688 22.95625Q272.29688 23.971874 272.29688 25.26875Q272.29688 26.565624 271.76562 27.596874Q271.23438 28.628124 270.26562 29.159374Q269.3125 29.690624 268.1875 29.690624Q266.96875 29.690624 266.01562 29.1125Q265.0625 28.51875 264.5625 27.51875Q264.07812 26.503124 264.07812 25.3625ZM265.25 25.378124Q265.25 26.940624 266.07812 27.83125Q266.92188 28.721874 268.1875 28.721874Q269.46875 28.721874 270.29688 27.83125Q271.125 26.925 271.125 25.253124Q271.125 24.20625 270.76562 23.425Q270.42188 22.64375 269.73438 22.221874Q269.04688 21.784374 268.20312 21.784374Q267.0 21.784374 266.125 22.6125Q265.25 23.440624 265.25 25.378124ZM276.04688 26.784374L277.10938 26.690624Q277.1875 27.346874 277.46875 27.753124Q277.75 28.159374 278.32812 28.425Q278.92188 28.675 279.65625 28.675Q280.29688 28.675 280.79688 28.4875Q281.29688 28.284374 281.53125 27.95625Q281.78125 27.6125 281.78125 27.221874Q281.78125 26.815624 281.54688 26.51875Q281.3125 26.20625 280.78125 26.003124Q280.42188 25.8625 279.23438 25.58125Q278.0625 25.3 277.59375 25.05Q276.96875 24.721874 276.67188 24.253124Q276.375 23.76875 276.375 23.175Q276.375 22.534374 276.73438 21.971874Q277.10938 21.39375 277.8125 21.1125Q278.53125 20.815624 279.39062 20.815624Q280.34375 20.815624 281.07812 21.128124Q281.8125 21.425 282.20312 22.034374Q282.59375 22.628124 282.625 23.378124L281.53125 23.45625Q281.4375 22.64375 280.92188 22.2375Q280.42188 21.815624 279.4375 21.815624Q278.40625 21.815624 277.9375 22.190624Q277.46875 22.565624 277.46875 23.096874Q277.46875 23.565624 277.79688 23.8625Q278.125 24.159374 279.5 24.471874Q280.89062 24.784374 281.40625 25.01875Q282.15625 25.378124 282.51562 25.909374Q282.875 26.425 282.875 27.128124Q282.875 27.815624 282.48438 28.425Q282.09375 29.01875 281.35938 29.3625Q280.625 29.690624 279.70312 29.690624Q278.53125 29.690624 277.73438 29.3625Q276.95312 29.01875 276.5 28.33125Q276.0625 27.64375 276.04688 26.784374ZM284.29688 22.175L284.29688 20.95625L285.35938 20.95625L285.35938 22.175L284.29688 22.175ZM284.29688 29.55L284.29688 23.33125L285.35938 23.33125L285.35938 29.55L284.29688 29.55ZM286.73438 29.55L286.73438 28.690624L290.70312 24.14375Q290.01562 24.175 289.5 24.175L286.96875 24.175L286.96875 23.33125L292.0625 23.33125L292.0625 24.01875L288.6875 27.971874L288.03125 28.690624Q288.75 28.64375 289.35938 28.64375L292.25 28.64375L292.25 29.55L286.73438 29.55ZM296.54688 27.55L297.64062 27.675Q297.39062 28.628124 296.6875 29.159374Q295.98438 29.690624 294.90625 29.690624Q293.54688 29.690624 292.73438 28.846874Q291.9375 28.003124 291.9375 26.4875Q291.9375 24.925 292.75 24.065624Q293.5625 23.190624 294.84375 23.190624Q296.09375 23.190624 296.875 24.034374Q297.67188 24.878124 297.67188 26.425Q297.67188 26.51875 297.67188 26.70625L293.03125 26.70625Q293.09375 27.7375 293.60938 28.284374Q294.125 28.815624 294.90625 28.815624Q295.48438 28.815624 295.89062 28.51875Q296.3125 28.20625 296.54688 27.55ZM293.09375 25.846874L296.5625 25.846874Q296.5 25.05 296.17188 24.659374Q295.65625 24.05 294.85938 24.05Q294.125 24.05 293.625 24.534374Q293.14062 25.01875 293.09375 25.846874Z" fill-rule="nonzero"/><path stroke="#ea4335" stroke-width="4.0" stroke-linecap="butt" d="M314.5 25.55L326.5 25.55" fill-rule="nonzero"/><path fill="#1a1a1a" d="M337.60938 29.55L337.60938 21.971874L334.78125 21.971874L334.78125 20.95625L341.59375 20.95625L341.59375 21.971874L338.75 21.971874L338.75 29.55L337.60938 29.55ZM342.29688 22.175L342.29688 20.95625L343.35938 20.95625L343.35938 22.175L342.29688 22.175ZM342.29688 29.55L342.29688 23.33125L343.35938 23.33125L343.35938 29.55L342.29688 29.55ZM345.29688 29.55L345.29688 23.33125L346.23438 23.33125L346.23438 24.20625Q346.53125 23.7375 347.01562 23.471874Q347.5 23.190624 348.125 23.190624Q348.8125 23.190624 349.25 23.471874Q349.70312 23.753124 349.875 24.26875Q350.625 23.190624 351.79688 23.190624Q352.73438 23.190624 353.21875 23.70625Q353.71875 24.20625 353.71875 25.284374L353.71875 29.55L352.67188 29.55L352.67188 25.628124Q352.67188 25.003124 352.5625 24.721874Q352.46875 24.440624 352.20312 24.26875Q351.9375 24.096874 351.5625 24.096874Q350.90625 24.096874 350.46875 24.534374Q350.04688 24.971874 350.04688 25.940624L350.04688 29.55L348.98438 29.55L348.98438 25.503124Q348.98438 24.8 348.71875 24.45625Q348.46875 24.096874 347.89062 24.096874Q347.4375 24.096874 347.0625 24.33125Q346.6875 24.565624 346.51562 25.01875Q346.34375 25.471874 346.34375 26.315624L346.34375 29.55L345.29688 29.55ZM360.54688 27.55L361.64062 27.675Q361.39062 28.628124 360.6875 29.159374Q359.98438 29.690624 358.90625 29.690624Q357.54688 29.690624 356.73438 28.846874Q355.9375 28.003124 355.9375 26.4875Q355.9375 24.925 356.75 24.065624Q357.5625 23.190624 358.84375 23.190624Q360.09375 23.190624 360.875 24.034374Q361.67188 24.878124 361.67188 26.425Q361.67188 26.51875 361.67188 26.70625L357.03125 26.70625Q357.09375 27.7375 357.60938 28.284374Q358.125 28.815624 358.90625 28.815624Q359.48438 28.815624 359.89062 28.51875Q360.3125 28.20625 360.54688 27.55ZM357.09375 25.846874L360.5625 25.846874Q360.5 25.05 360.17188 24.659374Q359.65625 24.05 358.85938 24.05Q358.125 24.05 357.625 24.534374Q357.14062 25.01875 357.09375 25.846874Z" fill-rule="nonzero"/></svg>