<svg version="1.1" viewBox="0.0 0.0 600.0 344.0" fill="none" stroke="none" stroke-linecap="square" stroke-miterlimit="10" width="600" height="344" xmlns:xlink="http://www.w3.org/1999/xlink" xmlns="http://www.w3.org/2000/svg"><path fill="#ffffff" d="M0 0L600.0 0L600.0 344.0L0 344.0L0 0Z" fill-rule="nonzero"/><path stroke="#333333" stroke-width="1.0" stroke-linecap="butt" d="M83.5 274.5L582.5 274.5" fill-rule="nonzero"/><path stroke="#cccccc" stroke-width="1.0" stroke-linecap="butt" d="M83.5 218.5L582.5 218.5" fill-rule="nonzero"/><path stroke="#cccccc" stroke-width="1.0" stroke-linecap="butt" d="M83.5 162.5L582.5 162.5" fill-rule="nonzero"/><path stroke="#cccccc" stroke-width="1.0" stroke-linecap="butt" d="M83.5 105.5L582.5 105.5" fill-rule="nonzero"/><path stroke="#cccccc" stroke-width="1.0" stroke-linecap="butt" d="M83.5 49.5L582.5 49.5" fill-rule="nonzero"/><clipPath id="id_0"><path d="M83.2 49.666668L582.8 49.666668L582.8 274.8L83.2 274.8L83.2 49.666668Z" clip-rule="nonzero"/></clipPath><path stroke="#000000" stroke-width="2.0" stroke-linecap="butt" stroke-opacity="0.0" clip-path="url(#id_0)" d="M128.0 275.0L108.0 275.0L108.0 190.0C108.0 188.89543 108.89543 188.0 110.0 188.0L126.0 188.0C127.10457 188.0 128.0 188.89543 128.0 190.0Z" fill-rule="nonzero"/><path fill="#4285f4" clip-path="url(#id_0)" d="M128.0 275.0L108.0 275.0L108.0 190.0C108.0 188.89543 108.89543 188.0 110.0 188.0L126.0 188.0C127.10457 188.0 128.0 188.89543 128.0 190.0Z" fill-rule="nonzero"/><path stroke="#000000" stroke-width="2.0" stroke-linecap="butt" stroke-opacity="0.0" clip-path="url(#id_0)" d="M196.0 275.0L176.0 275.0L176.0 191.0C176.0 189.89543 176.89543 189.0 178.0 189.0L194.0 189.0C195.10457 189.0 196.0 189.89543 196.0 191.0Z" fill-rule="nonzero"/><path fill="#4285f4" clip-path="url(#id_0)" d="M196.0 275.0L176.0 275.0L176.0 191.0C176.0 189.89543 176.89543 189.0 178.0 189.0L194.0 189.0C195.10457 189.0 196.0 189.89543 196.0 191.0Z" fill-rule="nonzero"/><path stroke="#000000" stroke-width="2.0" stroke-linecap="butt" stroke-opacity="0.0" clip-path="url(#id_0)" d="M264.0 275.0L244.0 275.0L244.0 192.0C244.0 190.89543 244.89543 190.0 246.0 190.0L262.0 190.0C263.10458 190.0 264.0 190.89543 264.0 192.0Z" fill-rule="nonzero"/><path fill="#4285f4" clip-path="url(#id_0)" d="M264.0 275.0L244.0 275.0L244.0 192.0C244.0 190.89543 244.89543 190.0 246.0 190.0L262.0 190.0C263.10458 190.0 264.0 190.89543 264.0 192.0Z" fill-rule="nonzero"/><path stroke="#000000" stroke-width="2.0" stroke-linecap="butt" stroke-opacity="0.0" clip-path="url(#id_0)" d="M332.0 275.0L312.0 275.0L312.0 191.0C312.0 189.89543 312.89542 189.0 314.0 189.0L330.0 189.0C331.10458 189.0 332.0 189.89543 332.0 191.0Z" fill-rule="nonzero"/><path fill="#4285f4" clip-path="url(#id_0)" d="M332.0 275.0L312.0 275.0L312.0 191.0C312.0 189.89543 312.89542 189.0 314.0 189.0L330.0 189.0C331.10458 189.0 332.0 189.89543 332.0 191.0Z" fill-rule="nonzero"/><path stroke="#000000" stroke-width="2.0" stroke-linecap="butt" stroke-opacity="0.0" clip-path="url(#id_0)" d="M400.0 275.0L380.0 275.0L380.0 191.0C380.0 189.89543 380.89542 189.0 382.0 189.0L398.0 189.0C399.10458 189.0 400.0 189.89543 400.0 191.0Z" fill-rule="nonzero"/><path fill="#4285f4" clip-path="url(#id_0)" d="M400.0 275.0L380.0 275.0L380.0 191.0C380.0 189.89543 380.89542 189.0 382.0 189.0L398.0 189.0C399.10458 189.0 400.0 189.89543 400.0 191.0Z" fill-rule="nonzero"/><path stroke="#000000" stroke-width="2.0" stroke-linecap="butt" stroke-opacity="0.0" clip-path="url(#id_0)" d="M468.0 275.0L448.0 275.0L448.0 192.0C448.0 190.89543 448.89542 190.0 450.0 190.0L466.0 190.0C467.10458 190.0 468.0 190.89543 468.0 192.0Z" fill-rule="nonzero"/><path fill="#4285f4" clip-path="url(#id_0)" d="M468.0 275.0L448.0 275.0L448.0 192.0C448.0 190.89543 448.89542 190.0 450.0 190.0L466.0 190.0C467.10458 190.0 468.0 190.89543 468.0 192.0Z" fill-rule="nonzero"/><path stroke="#000000" stroke-width="2.0" stroke-linecap="butt" stroke-opacity="0.0" clip-path="url(#id_0)" d="M536.0 275.0L516.0 275.0L516.0 192.0C516.0 190.89543 516.89545 190.0 518.0 190.0L534.0 190.0C535.10455 190.0 536.0 190.89543 536.0 192.0Z" fill-rule="nonzero"/><path fill="#4285f4" clip-path="url(#id_0)" d="M536.0 275.0L516.0 275.0L516.0 192.0C516.0 190.89543 516.89545 190.0 518.0 190.0L534.0 190.0C535.10455 190.0 536.0 190.89543 536.0 192.0Z" fill-rule="nonzero"/><path stroke="#000000" stroke-width="2.0" stroke-linecap="butt" stroke-opacity="0.0" clip-path="url(#id_0)" d="M150.0 275.0L130.0 275.0L130.0 58.0C130.0 56.89543 130.89543 56.0 132.0 56.0L148.0 56.0C149.10457 56.0 150.0 56.89543 150.0 58.0Z" fill-rule="nonzero"/><path fill="#ea4335" clip-path="url(#id_0)" d="M150.0 275.0L130.0 275.0L130.0 58.0C130.0 56.89543 130.89543 56.0 132.0 56.0L148.0 56.0C149.10457 56.0 150.0 56.89543 150.0 58.0Z" fill-rule="nonzero"/><path stroke="#000000" stroke-width="2.0" stroke-linecap="butt" stroke-opacity="0.0" clip-path="url(#id_0)" d="M218.0 275.0L198.0 275.0L198.0 93.0C198.0 91.89543 198.89543 91.0 200.0 91.0L216.0 91.0C217.10457 91.0 218.0 91.89543 218.0 93.0Z" fill-rule="nonzero"/><path fill="#ea4335" clip-path="url(#id_0)" d="M218.0 275.0L198.0 275.0L198.0 93.0C198.0 91.89543 198.89543 91.0 200.0 91.0L216.0 91.0C217.10457 91.0 218.0 91.89543 218.0 93.0Z" fill-rule="nonzero"/><path stroke="#000000" stroke-width="2.0" stroke-linecap="butt" stroke-opacity="0.0" clip-path="url(#id_0)" d="M286.0 275.0L266.0 275.0L266.0 67.0C266.0 65.89543 266.89542 65.0 268.0 65.0L284.0 65.0C285.10458 65.0 286.0 65.89543 286.0 67.0Z" fill-rule="nonzero"/><path fill="#ea4335" clip-path="url(#id_0)" d="M286.0 275.0L266.0 275.0L266.0 67.0C266.0 65.89543 266.89542 65.0 268.0 65.0L284.0 65.0C285.10458 65.0 286.0 65.89543 286.0 67.0Z" fill-rule="nonzero"/><path stroke="#000000" stroke-width="2.0" stroke-linecap="butt" stroke-opacity="0.0" clip-path="url(#id_0)" d="M354.0 275.0L334.0 275.0L334.0 72.0C334.0 70.89543 334.89542 70.0 336.0 70.0L352.0 70.0C353.10458 70.0 354.0 70.89543 354.0 72.0Z" fill-rule="nonzero"/><path fill="#ea4335" clip-path="url(#id_0)" d="M354.0 275.0L334.0 275.0L334.0 72.0C334.0 70.89543 334.89542 70.0 336.0 70.0L352.0 70.0C353.10458 70.0 354.0 70.89543 354.0 72.0Z" fill-rule="nonzero"/><path stroke="#000000" stroke-width="2.0" stroke-linecap="butt" stroke-opacity="0.0" clip-path="url(#id_0)" d="M422.0 275.0L402.0 275.0L402.0 71.0C402.0 69.89543 402.89542 69.0 404.0 69.0L420.0 69.0C421.10458 69.0 422.0 69.89543 422.0 71.0Z" fill-rule="nonzero"/><path fill="#ea4335" clip-path="url(#id_0)" d="M422.0 275.0L402.0 275.0L402.0 71.0C402.0 69.89543 402.89542 69.0 404.0 69.0L420.0 69.0C421.10458 69.0 422.0 69.89543 422.0 71.0Z" fill-rule="nonzero"/><path stroke="#000000" stroke-width="2.0" stroke-linecap="butt" stroke-opacity="0.0" clip-path="url(#id_0)" d="M490.0 275.0L470.0 275.0L470.0 54.0C470.0 52.89543 470.89542 52.0 472.0 52.0L488.0 52.0C489.10458 52.0 490.0 52.89543 490.0 54.0Z" fill-rule="nonzero"/><path fill="#ea4335" clip-path="url(#id_0)" d="M490.0 275.0L470.0 275.0L470.0 54.0C470.0 52.89543 470.89542 52.0 472.0 52.0L488.0 52.0C489.10458 52.0 490.0 52.89543 490.0 54.0Z" fill-rule="nonzero"/><path stroke="#000000" stroke-width="2.0" stroke-linecap="butt" stroke-opacity="0.0" clip-path="url(#id_0)" d="M558.0 275.0L538.0 275.0L538.0 56.0C538.0 54.89543 538.89545 54.0 540.0 54.0L556.0 54.0C557.10455 54.0 558.0 54.89543 558.0 56.0Z" fill-rule="nonzero"/><path fill="#ea4335" clip-path="url(#id_0)" d="M558.0 275.0L538.0 275.0L538.0 56.0C538.0 54.89543 538.89545 54.0 540.0 54.0L556.0 54.0C557.10455 54.0 558.0 54.89543 558.0 56.0Z" fill-rule="nonzero"/><path fill="#000000" d="M303.92188 323.8L303.92188 315.20624L307.17188 315.20624Q308.01562 315.20624 308.46875 315.28436Q309.10938 315.39374 309.53125 315.6906Q309.96875 315.9875 310.21875 316.51874Q310.48438 317.05 310.48438 317.6906Q310.48438 318.78436 309.78125 319.55Q309.09375 320.3 307.26562 320.3L305.0625 320.3L305.0625 323.8L303.92188 323.8ZM305.0625 319.3L307.28125 319.3Q308.39062 319.3 308.84375 318.89374Q309.3125 318.47186 309.3125 317.72186Q309.3125 317.1906 309.03125 316.8156Q308.76562 316.425 308.32812 316.3Q308.03125 316.22186 307.26562 316.22186L305.0625 316.22186L305.0625 319.3ZM311.78125 323.8L311.78125 317.58124L312.73438 317.58124L312.73438 318.51874Q313.09375 317.8625 313.39062 317.65936Q313.70312 317.4406 314.07812 317.4406Q314.60938 317.4406 315.15625 317.76874L314.79688 318.7531Q314.40625 318.51874 314.03125 318.51874Q313.67188 318.51874 313.39062 318.7375Q313.125 318.9406 313.01562 319.3156Q312.82812 319.8781 312.82812 320.53436L312.82812 323.8L311.78125 323.8ZM315.40625 320.6906Q315.40625 318.95624 316.35938 318.1281Q317.15625 317.4406 318.3125 317.4406Q319.59375 317.4406 320.40625 318.28436Q321.23438 319.1125 321.23438 320.59686Q321.23438 321.8 320.875 322.4875Q320.51562 323.175 319.8125 323.5656Q319.125 323.9406 318.3125 323.9406Q317.01562 323.9406 316.20312 323.1125Q315.40625 322.26874 315.40625 320.6906ZM316.48438 320.6906Q316.48438 321.8781 317.0 322.47186Q317.53125 323.0656 318.3125 323.0656Q319.10938 323.0656 319.625 322.47186Q320.14062 321.8781 320.14062 320.65936Q320.14062 319.5031 319.60938 318.90936Q319.09375 318.3156 318.3125 318.3156Q317.53125 318.3156 317.0 318.90936Q316.48438 319.4875 316.48438 320.6906ZM326.85938 321.51874L327.89062 321.65936Q327.71875 322.72186 327.01562 323.33124Q326.3125 323.9406 325.29688 323.9406Q324.01562 323.9406 323.23438 323.1125Q322.46875 322.26874 322.46875 320.70624Q322.46875 319.70624 322.79688 318.95624Q323.14062 318.1906 323.8125 317.8156Q324.5 317.4406 325.3125 317.4406Q326.3125 317.4406 326.95312 317.95624Q327.60938 318.45624 327.79688 319.40936L326.76562 319.5656Q326.625 318.9406 326.25 318.6281Q325.875 318.3 325.34375 318.3Q324.54688 318.3 324.04688 318.8781Q323.54688 319.4406 323.54688 320.675Q323.54688 321.9406 324.03125 322.5031Q324.51562 323.0656 325.28125 323.0656Q325.90625 323.0656 326.3125 322.6906Q326.73438 322.3156 326.85938 321.51874ZM333.04688 321.8L334.14062 321.925Q333.89062 322.8781 333.1875 323.40936Q332.48438 323.9406 331.40625 323.9406Q330.04688 323.9406 329.23438 323.09686Q328.4375 322.2531 328.4375 320.7375Q328.4375 319.175 329.25 318.3156Q330.0625 317.4406 331.34375 317.4406Q332.59375 317.4406 333.375 318.28436Q334.17188 319.1281 334.17188 320.675Q334.17188 320.76874 334.17188 320.95624L329.53125 320.95624Q329.59375 321.9875 330.10938 322.53436Q330.625 323.0656 331.40625 323.0656Q331.98438 323.0656 332.39062 322.76874Q332.8125 322.45624 333.04688 321.8ZM329.59375 320.09686L333.0625 320.09686Q333.0 319.3 332.67188 318.90936Q332.15625 318.3 331.35938 318.3Q330.625 318.3 330.125 318.78436Q329.64062 319.26874 329.59375 320.09686ZM335.375 321.9406L336.40625 321.78436Q336.5 322.40936 336.89062 322.7375Q337.29688 323.0656 338.03125 323.0656Q338.75 323.0656 339.09375 322.78436Q339.45312 322.4875 339.45312 322.08124Q339.45312 321.72186 339.14062 321.51874Q338.92188 321.3781 338.0625 321.15936Q336.90625 320.8625 336.45312 320.65936Q336.01562 320.4406 335.78125 320.0656Q335.54688 319.6906 335.54688 319.22186Q335.54688 318.8156 335.73438 318.45624Q335.92188 318.09686 336.25 317.8625Q336.5 317.6906 336.92188 317.5656Q337.34375 317.4406 337.84375 317.4406Q338.5625 317.4406 339.10938 317.65936Q339.67188 317.8625 339.9375 318.22186Q340.20312 318.58124 340.29688 319.175L339.26562 319.3156Q339.20312 318.84686 338.85938 318.58124Q338.53125 318.3 337.90625 318.3Q337.1875 318.3 336.875 318.55Q336.5625 318.78436 336.5625 319.1125Q336.5625 319.3156 336.6875 319.47186Q336.82812 319.64374 337.09375 319.7531Q337.25 319.8156 338.03125 320.01874Q339.15625 320.33124 339.59375 320.51874Q340.03125 320.70624 340.28125 321.0656Q340.53125 321.425 340.53125 321.97186Q340.53125 322.5031 340.21875 322.97186Q339.92188 323.425 339.34375 323.6906Q338.76562 323.9406 338.03125 323.9406Q336.8125 323.9406 336.17188 323.4406Q335.54688 322.925 335.375 321.9406ZM342.375 321.9406L343.40625 321.78436Q343.5 322.40936 343.89062 322.7375Q344.29688 323.0656 345.03125 323.0656Q345.75 323.0656 346.09375 322.78436Q346.45312 322.4875 346.45312 322.08124Q346.45312 321.72186 346.14062 321.51874Q345.92188 321.3781 345.0625 321.15936Q343.90625 320.8625 343.45312 320.65936Q343.01562 320.4406 342.78125 320.0656Q342.54688 319.6906 342.54688 319.22186Q342.54688 318.8156 342.73438 318.45624Q342.92188 318.09686 343.25 317.8625Q343.5 317.6906 343.92188 317.5656Q344.34375 317.4406 344.84375 317.4406Q345.5625 317.4406 346.10938 317.65936Q346.67188 317.8625 346.9375 318.22186Q347.20312 318.58124 347.29688 319.175L346.26562 319.3156Q346.20312 318.84686 345.85938 318.58124Q345.53125 318.3 344.90625 318.3Q344.1875 318.3 343.875 318.55Q343.5625 318.78436 343.5625 319.1125Q343.5625 319.3156 343.6875 319.47186Q343.82812 319.64374 344.09375 319.7531Q344.25 319.8156 345.03125 320.01874Q346.15625 320.33124 346.59375 320.51874Q347.03125 320.70624 347.28125 321.0656Q347.53125 321.425 347.53125 321.97186Q347.53125 322.5031 347.21875 322.97186Q346.92188 323.425 346.34375 323.6906Q345.76562 323.9406 345.03125 323.9406Q343.8125 323.9406 343.17188 323.4406Q342.54688 322.925 342.375 321.9406ZM354.04688 321.8L355.14062 321.925Q354.89062 322.8781 354.1875 323.40936Q353.48438 323.9406 352.40625 323.9406Q351.04688 323.9406 350.23438 323.09686Q349.4375 322.2531 349.4375 320.7375Q349.4375 319.175 350.25 318.3156Q351.0625 317.4406 352.34375 317.4406Q353.59375 317.4406 354.375 318.28436Q355.17188 319.1281 355.17188 320.675Q355.17188 320.76874 355.17188 320.95624L350.53125 320.95624Q350.59375 321.9875 351.10938 322.53436Q351.625 323.0656 352.40625 323.0656Q352.98438 323.0656 353.39062 322.76874Q353.8125 322.45624 354.04688 321.8ZM350.59375 320.09686L354.0625 320.09686Q354.0 319.3 353.67188 318.90936Q353.15625 318.3 352.35938 318.3Q351.625 318.3 351.125 318.78436Q350.64062 319.26874 350.59375 320.09686ZM356.375 321.9406L357.40625 321.78436Q357.5 322.40936 357.89062 322.7375Q358.29688 323.0656 359.03125 323.0656Q359.75 323.0656 360.09375 322.78436Q360.45312 322.4875 360.45312 322.08124Q360.45312 321.72186 360.14062 321.51874Q359.92188 321.3781 359.0625 321.15936Q357.90625 320.8625 357.45312 320.65936Q357.01562 320.4406 356.78125 320.0656Q356.54688 319.6906 356.54688 319.22186Q356.54688 318.8156 356.73438 318.45624Q356.92188 318.09686 357.25 317.8625Q357.5 317.6906 357.92188 317.5656Q358.34375 317.4406 358.84375 317.4406Q359.5625 317.4406 360.10938 317.65936Q360.67188 317.8625 360.9375 318.22186Q361.20312 318.58124 361.29688 319.175L360.26562 319.3156Q360.20312 318.84686 359.85938 318.58124Q359.53125 318.3 358.90625 318.3Q358.1875 318.3 357.875 318.55Q357.5625 318.78436 357.5625 319.1125Q357.5625 319.3156 357.6875 319.47186Q357.82812 319.64374 358.09375 319.7531Q358.25 319.8156 359.03125 320.01874Q360.15625 320.33124 360.59375 320.51874Q361.03125 320.70624 361.28125 321.0656Q361.53125 321.425 361.53125 321.97186Q361.53125 322.5031 361.21875 322.97186Q360.92188 323.425 360.34375 323.6906Q359.76562 323.9406 359.03125 323.9406Q357.8125 323.9406 357.17188 323.4406Q356.54688 322.925 356.375 321.9406Z" fill-rule="nonzero"/><path fill="#000000" d="M28.199987 217.85834L19.606237 217.85834L19.606237 214.62396Q19.606237 213.63959 19.871862 213.04584Q20.137487 212.45209 20.684362 212.12396Q21.215612 211.78021 21.809362 211.78021Q22.356237 211.78021 22.840612 212.07709Q23.324987 212.37396 23.621862 212.98334Q23.856237 212.20209 24.418737 211.79584Q24.965612 211.37396 25.715612 211.37396Q26.309362 211.37396 26.840612 211.62396Q27.356237 211.87396 27.637487 212.24896Q27.918737 212.62396 28.059362 213.20209Q28.199987 213.76459 28.199987 214.57709L28.199987 217.85834ZM23.215612 216.71771L23.215612 214.85834Q23.215612 214.10834 23.121862 213.78021Q22.996862 213.34271 22.699987 213.12396Q22.387487 212.90521 21.934362 212.90521Q21.512487 212.90521 21.184362 213.10834Q20.856237 213.31146 20.746862 213.70209Q20.621862 214.07709 20.621862 214.99896L20.621862 216.71771L23.215612 216.71771ZM27.184362 216.71771L27.184362 214.57709Q27.184362 214.03021 27.137487 213.81146Q27.074987 213.40521 26.918737 213.15521Q26.746862 212.88959 26.434362 212.71771Q26.121862 212.54584 25.715612 212.54584Q25.231237 212.54584 24.871862 212.79584Q24.512487 213.03021 24.371862 213.46771Q24.231237 213.90521 24.231237 214.73334L24.231237 216.71771L27.184362 216.71771ZM27.434362 205.87396Q27.934362 206.46771 28.137487 207.01459Q28.340612 207.54584 28.340612 208.17084Q28.340612 209.20209 27.840612 209.74896Q27.340612 210.29584 26.559362 210.29584Q26.106237 210.29584 25.731237 210.09271Q25.340612 209.88959 25.121862 209.54584Q24.887487 209.20209 24.778112 208.78021Q24.684362 208.48334 24.606237 207.84271Q24.465612 206.57709 24.246862 205.96771Q24.028112 205.96771 23.981237 205.96771Q23.324987 205.96771 23.059362 206.26459Q22.715612 206.67084 22.715612 207.46771Q22.715612 208.20209 22.981237 208.56146Q23.231237 208.92084 23.887487 209.09271L23.746862 210.12396Q23.090612 209.98334 22.684362 209.65521Q22.278112 209.32709 22.059362 208.71771Q21.840612 208.10834 21.840612 207.31146Q21.840612 206.51459 22.028112 206.01459Q22.215612 205.51459 22.496862 205.28021Q22.778112 205.04584 23.215612 204.95209Q23.481237 204.90521 24.184362 204.90521L25.590612 204.90521Q27.059362 204.90521 27.449987 204.84271Q27.840612 204.76459 28.199987 204.56146L28.199987 205.67084Q27.871862 205.82709 27.434362 205.87396ZM25.074987 205.96771Q25.309362 206.54584 25.481237 207.68646Q25.574987 208.34271 25.699987 208.60834Q25.809362 208.87396 26.028112 209.03021Q26.246862 209.17084 26.528112 209.17084Q26.949987 209.17084 27.231237 208.85834Q27.512487 208.53021 27.512487 207.92084Q27.512487 207.31146 27.246862 206.84271Q26.981237 206.35834 26.512487 206.13959Q26.153112 205.96771 25.465612 205.96771L25.074987 205.96771ZM28.199987 202.93646L21.981237 202.93646L21.981237 201.99896L22.856237 201.99896Q21.840612 201.31146 21.840612 200.01459Q21.840612 199.45209 22.043737 198.98334Q22.246862 198.49896 22.574987 198.26459Q22.903112 198.03021 23.340612 197.93646Q23.637487 197.88959 24.371862 197.88959L28.199987 197.88959L28.199987 198.93646L24.418737 198.93646Q23.762487 198.93646 23.449987 199.06146Q23.137487 199.18646 22.949987 199.49896Q22.746862 199.81146 22.746862 200.23334Q22.746862 200.90521 23.184362 201.40521Q23.606237 201.88959 24.793737 201.88959L28.199987 201.88959L28.199987 202.93646ZM28.199987 191.90521L27.418737 191.90521Q28.340612 192.49896 28.340612 193.63959Q28.340612 194.38959 27.934362 195.01459Q27.512487 195.63959 26.778112 195.98334Q26.043737 196.32709 25.090612 196.32709Q24.168737 196.32709 23.403112 196.01459Q22.637487 195.70209 22.246862 195.07709Q21.840612 194.45209 21.840612 193.68646Q21.840612 193.12396 22.074987 192.68646Q22.309362 192.24896 22.684362 191.96771L19.606237 191.96771L19.606237 190.92084L28.199987 190.92084L28.199987 191.90521ZM25.090612 195.23334Q26.293737 195.23334 26.887487 194.73334Q27.465612 194.23334 27.465612 193.54584Q27.465612 192.85834 26.903112 192.37396Q26.340612 191.88959 25.184362 191.88959Q23.903112 191.88959 23.309362 192.38959Q22.715612 192.87396 22.715612 193.59271Q22.715612 194.29584 23.293737 194.76459Q23.856237 195.23334 25.090612 195.23334ZM28.199987 187.79584L21.981237 189.70209L21.981237 188.60834L25.574987 187.62396L26.903112 187.24896Q26.809362 187.21771 25.621862 186.92084L21.981237 185.93646L21.981237 184.85834L25.590612 183.92084L26.778112 183.60834L25.574987 183.24896L21.981237 182.18646L21.981237 181.15521L28.199987 183.10834L28.199987 184.20209L24.465612 185.18646L23.418737 185.43646L28.199987 186.68646L28.199987 187.79584ZM20.824987 179.93646L19.606237 179.93646L19.606237 178.87396L20.824987 178.87396L20.824987 179.93646ZM28.199987 179.93646L21.981237 179.93646L21.981237 178.87396L28.199987 178.87396L28.199987 179.93646ZM28.199987 172.90521L27.418737 172.90521Q28.340612 173.49896 28.340612 174.63959Q28.340612 175.38959 27.934362 176.01459Q27.512487 176.63959 26.778112 176.98334Q26.043737 177.32709 25.090612 177.32709Q24.168737 177.32709 23.403112 177.01459Q22.637487 176.70209 22.246862 176.07709Q21.840612 175.45209 21.840612 174.68646Q21.840612 174.12396 22.074987 173.68646Q22.309362 173.24896 22.684362 172.96771L19.606237 172.96771L19.606237 171.92084L28.199987 171.92084L28.199987 172.90521ZM25.090612 176.23334Q26.293737 176.23334 26.887487 175.73334Q27.465612 175.23334 27.465612 174.54584Q27.465612 173.85834 26.903112 173.37396Q26.340612 172.88959 25.184362 172.88959Q23.903112 172.88959 23.309362 173.38959Q22.715612 173.87396 22.715612 174.59271Q22.715612 175.29584 23.293737 175.76459Q23.856237 176.23334 25.090612 176.23334ZM27.262487 167.63959L28.184362 167.48334Q28.278112 167.93646 28.278112 168.28021Q28.278112 168.85834 28.106237 169.17084Q27.918737 169.48334 27.621862 169.62396Q27.324987 169.74896 26.371862 169.74896L22.793737 169.74896L22.793737 170.51459L21.981237 170.51459L21.981237 169.74896L20.434362 169.74896L19.809362 168.70209L21.981237 168.70209L21.981237 167.63959L22.793737 167.63959L22.793737 168.70209L26.434362 168.70209Q26.887487 168.70209 27.012487 168.65521Q27.137487 168.59271 27.215612 168.46771Q27.293737 168.34271 27.293737 168.10834Q27.293737 167.92084 27.262487 167.63959ZM28.199987 166.93646L19.606237 166.93646L19.606237 165.88959L22.684362 165.88959Q21.840612 165.15521 21.840612 164.03021Q21.840612 163.32709 22.121862 162.82709Q22.387487 162.31146 22.871862 162.09271Q23.340612 161.87396 24.262487 161.87396L28.199987 161.87396L28.199987 162.92084L24.262487 162.92084Q23.465612 162.92084 23.106237 163.26459Q22.746862 163.60834 22.746862 164.23334Q22.746862 164.70209 22.996862 165.12396Q23.231237 165.53021 23.653112 165.71771Q24.059362 165.88959 24.793737 165.88959L28.199987 165.88959L28.199987 166.93646ZM30.731237 154.92084Q29.621862 155.79584 28.153112 156.40521Q26.668737 156.99896 25.090612 156.99896Q23.699987 156.99896 22.418737 156.56146Q20.934362 156.03021 19.465612 154.92084L19.465612 154.17084Q20.684362 154.87396 21.199987 155.10834Q22.012487 155.46771 22.887487 155.67084Q23.981237 155.92084 25.090612 155.92084Q27.918737 155.92084 30.731237 154.17084L30.731237 154.92084ZM28.199987 152.84271L19.606237 152.84271L19.606237 151.12396L25.684362 149.09271Q26.543737 148.81146 26.965612 148.68646Q26.496862 148.54584 25.590612 148.23334L19.606237 146.17084L19.606237 144.63959L28.199987 144.63959L28.199987 145.73334L21.012487 145.73334L28.199987 148.23334L28.199987 149.26459L20.887487 151.74896L28.199987 151.74896L28.199987 152.84271ZM28.199987 143.85834L19.606237 143.85834L19.606237 140.62396Q19.606237 139.63959 19.871862 139.04584Q20.137487 138.45209 20.684362 138.12396Q21.215612 137.78021 21.809362 137.78021Q22.356237 137.78021 22.840612 138.07709Q23.324987 138.37396 23.621862 138.98334Q23.856237 138.20209 24.418737 137.79584Q24.965612 137.37396 25.715612 137.37396Q26.309362 137.37396 26.840612 137.62396Q27.356237 137.87396 27.637487 138.24896Q27.918737 138.62396 28.059362 139.20209Q28.199987 139.76459 28.199987 140.57709L28.199987 143.85834ZM23.215612 142.71771L23.215612 140.85834Q23.215612 140.10834 23.121862 139.78021Q22.996862 139.34271 22.699987 139.12396Q22.387487 138.90521 21.934362 138.90521Q21.512487 138.90521 21.184362 139.10834Q20.856237 139.31146 20.746862 139.70209Q20.621862 140.07709 20.621862 140.99896L20.621862 142.71771L23.215612 142.71771ZM27.184362 142.71771L27.184362 140.57709Q27.184362 140.03021 27.137487 139.81146Q27.074987 139.40521 26.918737 139.15521Q26.746862 138.88959 26.434362 138.71771Q26.121862 138.54584 25.715612 138.54584Q25.231237 138.54584 24.871862 138.79584Q24.512487 139.03021 24.371862 139.46771Q24.231237 139.90521 24.231237 140.73334L24.231237 142.71771L27.184362 142.71771ZM30.590612 135.93646L21.981237 135.93646L21.981237 134.98334L22.778112 134.98334Q22.309362 134.63959 22.074987 134.21771Q21.840612 133.78021 21.840612 133.17084Q21.840612 132.37396 22.246862 131.76459Q22.653112 131.15521 23.403112 130.85834Q24.153112 130.54584 25.043737 130.54584Q25.996862 130.54584 26.762487 130.88959Q27.528112 131.21771 27.934362 131.87396Q28.340612 132.53021 28.340612 133.24896Q28.340612 133.78021 28.121862 134.20209Q27.887487 134.62396 27.559362 134.88959L30.590612 134.88959L30.590612 135.93646ZM25.121862 134.98334Q26.324987 134.98334 26.903112 134.49896Q27.465612 134.01459 27.465612 133.32709Q27.465612 132.62396 26.871862 132.12396Q26.278112 131.62396 25.028112 131.62396Q23.840612 131.62396 23.262487 132.10834Q22.668737 132.59271 22.668737 133.28021Q22.668737 133.95209 23.293737 134.46771Q23.918737 134.98334 25.121862 134.98334ZM26.340612 129.35834L26.184362 128.32709Q26.809362 128.23334 27.137487 127.84271Q27.465612 127.43646 27.465612 126.70209Q27.465612 125.98334 27.184362 125.63959Q26.887487 125.28021 26.481237 125.28021Q26.121862 125.28021 25.918737 125.59271Q25.778112 125.81146 25.559362 126.67084Q25.262487 127.82709 25.059362 128.28021Q24.840612 128.71771 24.465612 128.95209Q24.090612 129.18646 23.621862 129.18646Q23.215612 129.18646 22.856237 128.99896Q22.496862 128.81146 22.262487 128.48334Q22.090612 128.23334 21.965612 127.81146Q21.840612 127.38959 21.840612 126.88959Q21.840612 126.17084 22.059362 125.62396Q22.262487 125.06146 22.621862 124.79584Q22.981237 124.53021 23.574987 124.43646L23.715612 125.46771Q23.246862 125.53021 22.981237 125.87396Q22.699987 126.20209 22.699987 126.82709Q22.699987 127.54584 22.949987 127.85834Q23.184362 128.17084 23.512487 128.17084Q23.715612 128.17084 23.871862 128.04584Q24.043737 127.90521 24.153112 127.63959Q24.215612 127.48334 24.418737 126.70209Q24.731237 125.57709 24.918737 125.13959Q25.106237 124.70209 25.465612 124.45209Q25.824987 124.20209 26.371862 124.20209Q26.903112 124.20209 27.371862 124.51459Q27.824987 124.81146 28.090612 125.38959Q28.340612 125.96771 28.340612 126.70209Q28.340612 127.92084 27.840612 128.56146Q27.324987 129.18646 26.340612 129.35834ZM30.731237 121.24896L30.731237 121.99896Q27.918737 120.24896 25.090612 120.24896Q23.996862 120.24896 22.903112 120.49896Q22.028112 120.70209 21.215612 121.06146Q20.699987 121.29584 19.465612 121.99896L19.465612 121.24896Q20.934362 120.15521 22.418737 119.62396Q23.699987 119.17084 25.090612 119.17084Q26.668737 119.17084 28.153112 119.78021Q29.621862 120.38959 30.731237 121.24896Z" fill-rule="nonzero"/><path fill="#000000" d="M70.7 274.5656Q70.7 273.03436 71.0125 272.1125Q71.325 271.175 71.93437 270.675Q72.55937 270.175 73.49687 270.175Q74.18437 270.175 74.7 270.45624Q75.23125 270.7375 75.575 271.26874Q75.91875 271.78436 76.10625 272.53436Q76.29375 273.28436 76.29375 274.5656Q76.29375 276.08124 75.98125 277.0031Q75.68437 277.925 75.05937 278.4406Q74.45 278.9406 73.49687 278.9406Q72.2625 278.9406 71.54375 278.05Q70.7 276.9875 70.7 274.5656ZM71.77812 274.5656Q71.77812 276.675 72.27812 277.3781Q72.77812 278.08124 73.49687 278.08124Q74.23125 278.08124 74.71562 277.3781Q75.21562 276.675 75.21562 274.5656Q75.21562 272.4406 74.71562 271.7531Q74.23125 271.05 73.48125 271.05Q72.7625 271.05 72.325 271.65936Q71.77812 272.4406 71.77812 274.5656Z" fill-rule="nonzero"/><path fill="#000000" d="M62.246876 221.50104L62.246876 222.51666L56.559376 222.51666Q56.559376 222.14166 56.684376 221.78229Q56.903126 221.20416 57.371876 220.64166Q57.85625 220.07916 58.7625 219.34479Q60.16875 218.18854 60.653126 217.51666Q61.153126 216.84479 61.153126 216.25104Q61.153126 215.62604 60.7 215.20416Q60.246876 214.76666 59.528126 214.76666Q58.7625 214.76666 58.309376 215.21979Q57.85625 215.67291 57.840626 216.48541L56.7625 216.37604Q56.871876 215.15729 57.590626 214.53229Q58.325 213.89166 59.559376 213.89166Q60.79375 213.89166 61.5125 214.57916Q62.23125 215.26666 62.23125 216.28229Q62.23125 216.79791 62.0125 217.29791Q61.809376 217.78229 61.309376 218.34479Q60.825 218.89166 59.7 219.84479Q58.746876 220.64166 58.465626 220.93854Q58.2 221.21979 58.028126 221.50104L62.246876 221.50104ZM63.7 220.26666L64.80937 220.17291Q64.93437 220.98541 65.37187 221.39166Q65.825 221.79791 66.46562 221.79791Q67.21562 221.79791 67.74687 221.21979Q68.27812 220.64166 68.27812 219.70416Q68.27812 218.79791 67.7625 218.28229Q67.2625 217.75104 66.43437 217.75104Q65.93437 217.75104 65.5125 217.98541Q65.10625 218.21979 64.87187 218.57916L63.8875 218.45416L64.71562 214.04791L68.99687 214.04791L68.99687 215.04791L65.55937 215.04791L65.10625 217.36041Q65.87187 216.81354 66.71562 216.81354Q67.84062 216.81354 68.60625 217.59479Q69.3875 218.37604 69.3875 219.61041Q69.3875 220.76666 68.71562 221.62604Q67.8875 222.65729 66.46562 222.65729Q65.29375 222.65729 64.54375 222.00104Q63.809376 221.34479 63.7 220.26666ZM70.7 218.28229Q70.7 216.75104 71.0125 215.82916Q71.325 214.89166 71.93437 214.39166Q72.55937 213.89166 73.49687 213.89166Q74.18437 213.89166 74.7 214.17291Q75.23125 214.45416 75.575 214.98541Q75.91875 215.50104 76.10625 216.25104Q76.29375 217.00104 76.29375 218.28229Q76.29375 219.79791 75.98125 220.71979Q75.68437 221.64166 75.05937 222.15729Q74.45 222.65729 73.49687 222.65729Q72.2625 222.65729 71.54375 221.76666Q70.7 220.70416 70.7 218.28229ZM71.77812 218.28229Q71.77812 220.39166 72.27812 221.09479Q72.77812 221.79791 73.49687 221.79791Q74.23125 221.79791 74.71562 221.09479Q75.21562 220.39166 75.21562 218.28229Q75.21562 216.15729 74.71562 215.46979Q74.23125 214.76666 73.48125 214.76666Q72.7625 214.76666 72.325 215.37604Q71.77812 216.15729 71.77812 218.28229Z" fill-rule="nonzero"/><path fill="#000000" d="M56.7 163.98334L57.809376 163.88959Q57.934376 164.70209 58.371876 165.10834Q58.825 165.51459 59.465626 165.51459Q60.215626 165.51459 60.746876 164.93646Q61.278126 164.35834 61.278126 163.42084Q61.278126 162.51459 60.7625 161.99896Q60.2625 161.46771 59.434376 161.46771Q58.934376 161.46771 58.5125 161.70209Q58.10625 161.93646 57.871876 162.29584L56.8875 162.17084L57.715626 157.76459L61.996876 157.76459L61.996876 158.76459L58.559376 158.76459L58.10625 161.07709Q58.871876 160.53021 59.715626 160.53021Q60.840626 160.53021 61.60625 161.31146Q62.3875 162.09271 62.3875 163.32709Q62.3875 164.48334 61.715626 165.34271Q60.8875 166.37396 59.465626 166.37396Q58.29375 166.37396 57.54375 165.71771Q56.809376 165.06146 56.7 163.98334ZM63.7 161.99896Q63.7 160.46771 64.0125 159.54584Q64.325 158.60834 64.93437 158.10834Q65.55937 157.60834 66.49687 157.60834Q67.18437 157.60834 67.7 157.88959Q68.23125 158.17084 68.575 158.70209Q68.91875 159.21771 69.10625 159.96771Q69.29375 160.71771 69.29375 161.99896Q69.29375 163.51459 68.98125 164.43646Q68.68437 165.35834 68.05937 165.87396Q67.45 166.37396 66.49687 166.37396Q65.2625 166.37396 64.54375 165.48334Q63.7 164.42084 63.7 161.99896ZM64.77812 161.99896Q64.77812 164.10834 65.27812 164.81146Q65.77812 165.51459 66.49687 165.51459Q67.23125 165.51459 67.71562 164.81146Q68.21562 164.10834 68.21562 161.99896Q68.21562 159.87396 67.71562 159.18646Q67.23125 158.48334 66.48125 158.48334Q65.7625 158.48334 65.325 159.09271Q64.77812 159.87396 64.77812 161.99896ZM70.7 161.99896Q70.7 160.46771 71.0125 159.54584Q71.325 158.60834 71.93437 158.10834Q72.55937 157.60834 73.49687 157.60834Q74.18437 157.60834 74.7 157.88959Q75.23125 158.17084 75.575 158.70209Q75.91875 159.21771 76.10625 159.96771Q76.29375 160.71771 76.29375 161.99896Q76.29375 163.51459 75.98125 164.43646Q75.68437 165.35834 75.05937 165.87396Q74.45 166.37396 73.49687 166.37396Q72.2625 166.37396 71.54375 165.48334Q70.7 164.42084 70.7 161.99896ZM71.77812 161.99896Q71.77812 164.10834 72.27812 164.81146Q72.77812 165.51459 73.49687 165.51459Q74.23125 165.51459 74.71562 164.81146Q75.21562 164.10834 75.21562 161.99896Q75.21562 159.87396 74.71562 159.18646Q74.23125 158.48334 73.48125 158.48334Q72.7625 158.48334 72.325 159.09271Q71.77812 159.87396 71.77812 161.99896Z" fill-rule="nonzero"/><path fill="#000000" d="M56.7625 102.48125L56.7625 101.46562L62.325 101.46562L62.325 102.29375Q61.5125 103.16875 60.7 104.62187Q59.903126 106.05937 59.465626 107.59062Q59.1375 108.66875 59.059376 109.95L57.965626 109.95Q57.98125 108.93437 58.35625 107.49687Q58.746876 106.05937 59.45 104.73125Q60.16875 103.40312 60.98125 102.48125L56.7625 102.48125ZM63.7 107.7L64.80937 107.60625Q64.93437 108.41875 65.37187 108.825Q65.825 109.23125 66.46562 109.23125Q67.21562 109.23125 67.74687 108.65312Q68.27812 108.075 68.27812 107.1375Q68.27812 106.23125 67.7625 105.71562Q67.2625 105.18437 66.43437 105.18437Q65.93437 105.18437 65.5125 105.41875Q65.10625 105.65312 64.87187 106.0125L63.8875 105.8875L64.71562 101.48125L68.99687 101.48125L68.99687 102.48125L65.55937 102.48125L65.10625 104.79375Q65.87187 104.24687 66.71562 104.24687Q67.84062 104.24687 68.60625 105.02812Q69.3875 105.80937 69.3875 107.04375Q69.3875 108.2 68.71562 109.05937Q67.8875 110.09062 66.46562 110.09062Q65.29375 110.09062 64.54375 109.43437Q63.809376 108.77812 63.7 107.7ZM70.7 105.71562Q70.7 104.18437 71.0125 103.2625Q71.325 102.325 71.93437 101.825Q72.55937 101.325 73.49687 101.325Q74.18437 101.325 74.7 101.60625Q75.23125 101.8875 75.575 102.41875Q75.91875 102.93437 76.10625 103.68437Q76.29375 104.43437 76.29375 105.71562Q76.29375 107.23125 75.98125 108.15312Q75.68437 109.075 75.05937 109.59062Q74.45 110.09062 73.49687 110.09062Q72.2625 110.09062 71.54375 109.2Q70.7 108.1375 70.7 105.71562ZM71.77812 105.71562Q71.77812 107.825 72.27812 108.52812Q72.77812 109.23125 73.49687 109.23125Q74.23125 109.23125 74.71562 108.52812Q75.21562 107.825 75.21562 105.71562Q75.21562 103.59062 74.71562 102.90312Q74.23125 102.2 73.48125 102.2Q72.7625 102.2 72.325 102.80937Q71.77812 103.59062 71.77812 105.71562Z" fill-rule="nonzero"/><path fill="#000000" d="M53.66875 53.666668L52.621876 53.666668L52.621876 46.947918Q52.23125 47.307293 51.60625 47.682293Q50.996876 48.041668 50.5125 48.213543L50.5125 47.197918Q51.3875 46.776043 52.04375 46.197918Q52.715626 45.604168 52.996876 45.041668L53.66875 45.041668L53.66875 53.666668ZM56.7 49.432293Q56.7 47.901043 57.0125 46.979168Q57.325 46.041668 57.934376 45.541668Q58.559376 45.041668 59.496876 45.041668Q60.184376 45.041668 60.7 45.322918Q61.23125 45.604168 61.575 46.135418Q61.91875 46.651043 62.10625 47.401043Q62.29375 48.151043 62.29375 49.432293Q62.29375 50.947918 61.98125 51.869793Q61.684376 52.791668 61.059376 53.307293Q60.45 53.807293 59.496876 53.807293Q58.2625 53.807293 57.54375 52.916668Q56.7 51.854168 56.7 49.432293ZM57.778126 49.432293Q57.778126 51.541668 58.278126 52.244793Q58.778126 52.947918 59.496876 52.947918Q60.23125 52.947918 60.715626 52.244793Q61.215626 51.541668 61.215626 49.432293Q61.215626 47.307293 60.715626 46.619793Q60.23125 45.916668 59.48125 45.916668Q58.7625 45.916668 58.325 46.526043Q57.778126 47.307293 57.778126 49.432293ZM63.7 49.432293Q63.7 47.901043 64.0125 46.979168Q64.325 46.041668 64.93437 45.541668Q65.55937 45.041668 66.49687 45.041668Q67.18437 45.041668 67.7 45.322918Q68.23125 45.604168 68.575 46.135418Q68.91875 46.651043 69.10625 47.401043Q69.29375 48.151043 69.29375 49.432293Q69.29375 50.947918 68.98125 51.869793Q68.68437 52.791668 68.05937 53.307293Q67.45 53.807293 66.49687 53.807293Q65.2625 53.807293 64.54375 52.916668Q63.7 51.854168 63.7 49.432293ZM64.77812 49.432293Q64.77812 51.541668 65.27812 52.244793Q65.77812 52.947918 66.49687 52.947918Q67.23125 52.947918 67.71562 52.244793Q68.21562 51.541668 68.21562 49.432293Q68.21562 47.307293 67.71562 46.619793Q67.23125 45.916668 66.48125 45.916668Q65.7625 45.916668 65.325 46.526043Q64.77812 47.307293 64.77812 49.432293ZM70.7 49.432293Q70.7 47.901043 71.0125 46.979168Q71.325 46.041668 71.93437 45.541668Q72.55937 45.041668 73.49687 45.041668Q74.18437 45.041668 74.7 45.322918Q75.23125 45.604168 75.575 46.135418Q75.91875 46.651043 76.10625 47.401043Q76.29375 48.151043 76.29375 49.432293Q76.29375 50.947918 75.98125 51.869793Q75.68437 52.791668 75.05937 53.307293Q74.45 53.807293 73.49687 53.807293Q72.2625 53.807293 71.54375 52.916668Q70.7 51.854168 70.7 49.432293ZM71.77812 49.432293Q71.77812 51.541668 72.27812 52.244793Q72.77812 52.947918 73.49687 52.947918Q74.23125 52.947918 74.71562 52.244793Q75.21562 51.541668 75.21562 49.432293Q75.21562 47.307293 74.71562 46.619793Q74.23125 45.916668 73.48125 45.916668Q72.7625 45.916668 72.325 46.526043Q71.77812 47.307293 71.77812 49.432293Z" fill-rule="nonzero"/><path fill="#000000" d="M130.05038 291.8L129.00351 291.8L129.00351 285.08124Q128.61288 285.4406 127.987885 285.8156Q127.37851 286.175 126.894135 286.34686L126.894135 285.33124Q127.769135 284.90936 128.42538 284.33124Q129.09726 283.7375 129.37851 283.175L130.05038 283.175L130.05038 291.8Z" fill-rule="nonzero"/><path fill="#000000" d="M199.6013 290.78436L199.6013 291.8L193.9138 291.8Q193.9138 291.425 194.0388 291.0656Q194.25755 290.4875 194.7263 289.925Q195.21068 289.3625 196.11693 288.6281Q197.52318 287.47186 198.00755 286.8Q198.50755 286.1281 198.50755 285.53436Q198.50755 284.90936 198.05443 284.4875Q197.6013 284.05 196.88255 284.05Q196.11693 284.05 195.6638 284.5031Q195.21068 284.95624 195.19505 285.76874L194.11693 285.65936Q194.2263 284.4406 194.94505 283.8156Q195.67943 283.175 196.9138 283.175Q198.14818 283.175 198.86693 283.8625Q199.58568 284.55 199.58568 285.5656Q199.58568 286.08124 199.36693 286.58124Q199.1638 287.0656 198.6638 287.6281Q198.17943 288.175 197.05443 289.1281Q196.1013 289.925 195.82005 290.22186Q195.55443 290.5031 195.38255 290.78436L199.6013 290.78436Z" fill-rule="nonzero"/><path fill="#000000" d="M265.40222 291.8L265.40222 289.7375L261.68347 289.7375L261.68347 288.76874L265.60535 283.20624L266.46472 283.20624L266.46472 288.76874L267.62097 288.76874L267.62097 289.7375L266.46472 289.7375L266.46472 291.8L265.40222 291.8ZM265.40222 288.76874L265.40222 284.90936L262.71472 288.76874L265.40222 288.76874Z" fill-rule="nonzero"/><path fill="#000000" d="M331.625 287.14374Q330.96875 286.89374 330.64062 286.45624Q330.32812 286.0031 330.32812 285.39374Q330.32812 284.45624 331.0 283.8156Q331.6875 283.175 332.79688 283.175Q333.92188 283.175 334.60938 283.83124Q335.29688 284.4875 335.29688 285.425Q335.29688 286.01874 334.98438 286.45624Q334.67188 286.89374 334.03125 287.14374Q334.82812 287.39374 335.23438 287.97186Q335.64062 288.55 335.64062 289.34686Q335.64062 290.4406 334.85938 291.1906Q334.09375 291.9406 332.8125 291.9406Q331.54688 291.9406 330.76562 291.1906Q329.98438 290.4406 329.98438 289.3156Q329.98438 288.47186 330.40625 287.90936Q330.84375 287.34686 331.625 287.14374ZM331.40625 285.34686Q331.40625 285.95624 331.79688 286.34686Q332.20312 286.7375 332.82812 286.7375Q333.4375 286.7375 333.82812 286.3625Q334.21875 285.97186 334.21875 285.40936Q334.21875 284.83124 333.8125 284.4406Q333.40625 284.03436 332.8125 284.03436Q332.20312 284.03436 331.79688 284.425Q331.40625 284.8156 331.40625 285.34686ZM331.07812 289.3156Q331.07812 289.76874 331.28125 290.1906Q331.5 290.6125 331.92188 290.84686Q332.34375 291.08124 332.82812 291.08124Q333.57812 291.08124 334.0625 290.59686Q334.5625 290.1125 334.5625 289.3625Q334.5625 288.59686 334.0625 288.09686Q333.5625 287.59686 332.79688 287.59686Q332.04688 287.59686 331.5625 288.09686Q331.07812 288.58124 331.07812 289.3156Z" fill-rule="nonzero"/><path fill="#000000" d="M398.44153 291.8L397.39465 291.8L397.39465 285.08124Q397.00403 285.4406 396.37903 285.8156Q395.76965 286.175 395.28528 286.34686L395.28528 285.33124Q396.16028 284.90936 396.81653 284.33124Q397.4884 283.7375 397.76965 283.175L398.44153 283.175L398.44153 291.8ZM406.94153 285.3156L405.89465 285.39374Q405.75403 284.76874 405.50403 284.4875Q405.06653 284.03436 404.44153 284.03436Q403.94153 284.03436 403.5509 284.3156Q403.06653 284.6906 402.76965 285.39374Q402.4884 286.08124 402.47278 287.3625Q402.84778 286.78436 403.39465 286.5031Q403.95715 286.22186 404.56653 286.22186Q405.6134 286.22186 406.34778 287.0031Q407.09778 287.78436 407.09778 289.0031Q407.09778 289.8156 406.7384 290.51874Q406.39465 291.20624 405.78528 291.58124Q405.1759 291.9406 404.41028 291.9406Q403.08215 291.9406 402.25403 290.97186Q401.4259 290.0031 401.4259 287.78436Q401.4259 285.28436 402.34778 284.15936Q403.14465 283.175 404.50403 283.175Q405.51965 283.175 406.16028 283.7531Q406.81653 284.3156 406.94153 285.3156ZM402.64465 289.01874Q402.64465 289.5656 402.8634 290.0656Q403.09778 290.55 403.50403 290.8156Q403.9259 291.08124 404.39465 291.08124Q405.0509 291.08124 405.53528 290.55Q406.01965 290.0031 406.01965 289.08124Q406.01965 288.1906 405.53528 287.675Q405.06653 287.15936 404.34778 287.15936Q403.62903 287.15936 403.12903 287.675Q402.64465 288.1906 402.64465 289.01874Z" fill-rule="nonzero"/><path fill="#000000" d="M462.4456 289.53436L463.5081 289.39374Q463.67996 290.28436 464.11746 290.6906Q464.55496 291.08124 465.17996 291.08124Q465.92996 291.08124 466.4456 290.5656Q466.9612 290.05 466.9612 289.28436Q466.9612 288.5656 466.47684 288.09686Q466.0081 287.6125 465.2737 287.6125Q464.97684 287.6125 464.5237 287.7375L464.6487 286.8Q464.7581 286.8156 464.8206 286.8156Q465.49246 286.8156 466.0237 286.47186Q466.5706 286.1125 466.5706 285.3781Q466.5706 284.8 466.17996 284.425Q465.78934 284.03436 465.16434 284.03436Q464.55496 284.03436 464.1331 284.425Q463.72684 284.8156 463.61746 285.58124L462.55496 285.39374Q462.74246 284.34686 463.42996 283.76874Q464.11746 283.175 465.1331 283.175Q465.8362 283.175 466.42996 283.4875Q467.0237 283.78436 467.3362 284.3Q467.6487 284.8156 467.6487 285.40936Q467.6487 285.95624 467.35184 286.425Q467.05496 286.8781 466.47684 287.14374Q467.22684 287.3156 467.6487 287.8781Q468.0706 288.425 468.0706 289.26874Q468.0706 290.39374 467.24246 291.175Q466.42996 291.95624 465.17996 291.95624Q464.05496 291.95624 463.30496 291.28436Q462.55496 290.59686 462.4456 289.53436ZM474.99246 290.78436L474.99246 291.8L469.30496 291.8Q469.30496 291.425 469.42996 291.0656Q469.6487 290.4875 470.11746 289.925Q470.60184 289.3625 471.5081 288.6281Q472.91434 287.47186 473.3987 286.8Q473.8987 286.1281 473.8987 285.53436Q473.8987 284.90936 473.4456 284.4875Q472.99246 284.05 472.2737 284.05Q471.5081 284.05 471.05496 284.5031Q470.60184 284.95624 470.5862 285.76874L469.5081 285.65936Q469.61746 284.4406 470.3362 283.8156Q471.0706 283.175 472.30496 283.175Q473.53934 283.175 474.2581 283.8625Q474.97684 284.55 474.97684 285.5656Q474.97684 286.08124 474.7581 286.58124Q474.55496 287.0656 474.05496 287.6281Q473.5706 288.175 472.4456 289.1281Q471.49246 289.925 471.2112 290.22186Q470.9456 290.5031 470.7737 290.78436L474.99246 290.78436Z" fill-rule="nonzero"/><path fill="#000000" d="M533.7934 291.8L533.7934 289.7375L530.07465 289.7375L530.07465 288.76874L533.9965 283.20624L534.8559 283.20624L534.8559 288.76874L536.01215 288.76874L536.01215 289.7375L534.8559 289.7375L534.8559 291.8L533.7934 291.8ZM533.7934 288.76874L533.7934 284.90936L531.1059 288.76874L533.7934 288.76874ZM539.0434 287.14374Q538.38715 286.89374 538.059 286.45624Q537.7465 286.0031 537.7465 285.39374Q537.7465 284.45624 538.4184 283.8156Q539.1059 283.175 540.2153 283.175Q541.3403 283.175 542.0278 283.83124Q542.7153 284.4875 542.7153 285.425Q542.7153 286.01874 542.4028 286.45624Q542.0903 286.89374 541.44965 287.14374Q542.2465 287.39374 542.6528 287.97186Q543.059 288.55 543.059 289.34686Q543.059 290.4406 542.2778 291.1906Q541.51215 291.9406 540.2309 291.9406Q538.9653 291.9406 538.184 291.1906Q537.4028 290.4406 537.4028 289.3156Q537.4028 288.47186 537.82465 287.90936Q538.26215 287.34686 539.0434 287.14374ZM538.82465 285.34686Q538.82465 285.95624 539.2153 286.34686Q539.6215 286.7375 540.2465 286.7375Q540.8559 286.7375 541.2465 286.3625Q541.63715 285.97186 541.63715 285.40936Q541.63715 284.83124 541.2309 284.4406Q540.82465 284.03436 540.2309 284.03436Q539.6215 284.03436 539.2153 284.425Q538.82465 284.8156 538.82465 285.34686ZM538.4965 289.3156Q538.4965 289.76874 538.69965 290.1906Q538.9184 290.6125 539.3403 290.84686Q539.76215 291.08124 540.2465 291.08124Q540.9965 291.08124 541.4809 290.59686Q541.9809 290.1125 541.9809 289.3625Q541.9809 288.59686 541.4809 288.09686Q540.9809 287.59686 540.2153 287.59686Q539.4653 287.59686 538.9809 288.09686Q538.4965 288.58124 538.4965 289.3156Z" fill-rule="nonzero"/><path fill="#4285f4" d="M209.5 19.2C209.5 18.647715 209.94771 18.2 210.5 18.2L220.5 18.2C221.05229 18.2 221.5 18.647715 221.5 19.2L221.5 29.2C221.5 29.752285 221.05229 30.2 220.5 30.2L210.5 30.2C209.94771 30.2 209.5 29.752285 209.5 29.2Z" fill-rule="nonzero"/><path fill="#1a1a1a" d="M230.42188 28.2L230.42188 19.60625L233.67188 19.60625Q234.51562 19.60625 234.96875 19.684376Q235.60938 19.79375 236.03125 20.090626Q236.46875 20.3875 236.71875 20.91875Q236.98438 21.45 236.98438 22.090626Q236.98438 23.184376 236.28125 23.95Q235.59375 24.7 233.76562 24.7L231.5625 24.7L231.5625 28.2L230.42188 28.2ZM231.5625 23.7L233.78125 23.7Q234.89062 23.7 235.34375 23.29375Q235.8125 22.871876 235.8125 22.121876Q235.8125 21.590626 235.53125 21.215626Q235.26562 20.825 234.82812 20.7Q234.53125 20.621876 233.76562 20.621876L231.5625 20.621876L231.5625 23.7ZM242.375 28.2L242.375 27.278126Q241.64062 28.340626 240.39062 28.340626Q239.84375 28.340626 239.35938 28.1375Q238.89062 27.91875 238.65625 27.60625Q238.42188 27.278126 238.32812 26.809376Q238.26562 26.5125 238.26562 25.825L238.26562 21.98125L239.32812 21.98125L239.32812 25.434376Q239.32812 26.246876 239.39062 26.54375Q239.48438 26.95 239.79688 27.2Q240.125 27.434376 240.60938 27.434376Q241.07812 27.434376 241.48438 27.2Q241.90625 26.95 242.07812 26.528126Q242.26562 26.10625 242.26562 25.309376L242.26562 21.98125L243.3125 21.98125L243.3125 28.2L242.375 28.2ZM247.59375 27.2625L247.75 28.184376Q247.29688 28.278126 246.95312 28.278126Q246.375 28.278126 246.0625 28.10625Q245.75 27.91875 245.60938 27.621876Q245.48438 27.325 245.48438 26.371876L245.48438 22.79375L244.71875 22.79375L244.71875 21.98125L245.48438 21.98125L245.48438 20.434376L246.53125 19.809376L246.53125 21.98125L247.59375 21.98125L247.59375 22.79375L246.53125 22.79375L246.53125 26.434376Q246.53125 26.8875 246.57812 27.0125Q246.64062 27.1375 246.76562 27.215626Q246.89062 27.29375 247.125 27.29375Q247.3125 27.29375 247.59375 27.2625ZM253.3125 30.73125Q252.4375 29.621876 251.82812 28.153126Q251.23438 26.66875 251.23438 25.090626Q251.23438 23.7 251.67188 22.41875Q252.20312 20.934376 253.3125 19.465626L254.0625 19.465626Q253.35938 20.684376 253.125 21.2Q252.76562 22.0125 252.5625 22.8875Q252.3125 23.98125 252.3125 25.090626Q252.3125 27.91875 254.0625 30.73125L253.3125 30.73125ZM255.39062 28.2L255.39062 19.60625L257.10938 19.60625L259.14062 25.684376Q259.42188 26.54375 259.54688 26.965626Q259.6875 26.496876 260.0 25.590626L262.0625 19.60625L263.59375 19.60625L263.59375 28.2L262.5 28.2L262.5 21.0125L260.0 28.2L258.96875 28.2L256.48438 20.8875L256.48438 28.2L255.39062 28.2ZM264.375 28.2L264.375 19.60625L267.60938 19.60625Q268.59375 19.60625 269.1875 19.871876Q269.78125 20.1375 270.10938 20.684376Q270.45312 21.215626 270.45312 21.809376Q270.45312 22.35625 270.15625 22.840626Q269.85938 23.325 269.25 23.621876Q270.03125 23.85625 270.4375 24.41875Q270.85938 24.965626 270.85938 25.715626Q270.85938 26.309376 270.60938 26.840626Q270.35938 27.35625 269.98438 27.6375Q269.60938 27.91875 269.03125 28.059376Q268.46875 28.2 267.65625 28.2L264.375 28.2ZM265.51562 23.215626L267.375 23.215626Q268.125 23.215626 268.45312 23.121876Q268.89062 22.996876 269.10938 22.7Q269.32812 22.3875 269.32812 21.934376Q269.32812 21.5125 269.125 21.184376Q268.92188 20.85625 268.53125 20.746876Q268.15625 20.621876 267.23438 20.621876L265.51562 20.621876L265.51562 23.215626ZM265.51562 27.184376L267.65625 27.184376Q268.20312 27.184376 268.42188 27.1375Q268.82812 27.075 269.07812 26.91875Q269.34375 26.746876 269.51562 26.434376Q269.6875 26.121876 269.6875 25.715626Q269.6875 25.23125 269.4375 24.871876Q269.20312 24.5125 268.76562 24.371876Q268.32812 24.23125 267.5 24.23125L265.51562 24.23125L265.51562 27.184376ZM272.42188 28.2L272.42188 19.60625L275.67188 19.60625Q276.51562 19.60625 276.96875 19.684376Q277.60938 19.79375 278.03125 20.090626Q278.46875 20.3875 278.71875 20.91875Q278.98438 21.45 278.98438 22.090626Q278.98438 23.184376 278.28125 23.95Q277.59375 24.7 275.76562 24.7L273.5625 24.7L273.5625 28.2L272.42188 28.2ZM273.5625 23.7L275.78125 23.7Q276.89062 23.7 277.34375 23.29375Q277.8125 22.871876 277.8125 22.121876Q277.8125 21.590626 277.53125 21.215626Q277.26562 20.825 276.82812 20.7Q276.53125 20.621876 275.76562 20.621876L273.5625 20.621876L273.5625 23.7ZM280.04688 25.434376L281.10938 25.340626Q281.1875 25.996876 281.46875 26.403126Q281.75 26.809376 282.32812 27.075Q282.92188 27.325 283.65625 27.325Q284.29688 27.325 284.79688 27.1375Q285.29688 26.934376 285.53125 26.60625Q285.78125 26.2625 285.78125 25.871876Q285.78125 25.465626 285.54688 25.16875Q285.3125 24.85625 284.78125 24.653126Q284.42188 24.5125 283.23438 24.23125Q282.0625 23.95 281.59375 23.7Q280.96875 23.371876 280.67188 22.903126Q280.375 22.41875 280.375 21.825Q280.375 21.184376 280.73438 20.621876Q281.10938 20.04375 281.8125 19.7625Q282.53125 19.465626 283.39062 19.465626Q284.34375 19.465626 285.07812 19.778126Q285.8125 20.075 286.20312 20.684376Q286.59375 21.278126 286.625 22.028126L285.53125 22.10625Q285.4375 21.29375 284.92188 20.8875Q284.42188 20.465626 283.4375 20.465626Q282.40625 20.465626 281.9375 20.840626Q281.46875 21.215626 281.46875 21.746876Q281.46875 22.215626 281.79688 22.5125Q282.125 22.809376 283.5 23.121876Q284.89062 23.434376 285.40625 23.66875Q286.15625 24.028126 286.51562 24.559376Q286.875 25.075 286.875 25.778126Q286.875 26.465626 286.48438 27.075Q286.09375 27.66875 285.35938 28.0125Q284.625 28.340626 283.70312 28.340626Q282.53125 28.340626 281.73438 28.0125Q280.95312 27.66875 280.5 26.98125Q280.0625 26.29375 280.04688 25.434376ZM288.98438 30.73125L288.23438 30.73125Q289.98438 27.91875 289.98438 25.090626Q289.98438 23.996876 289.73438 22.903126Q289.53125 22.028126 289.17188 21.215626Q288.9375 20.7 288.23438 19.465626L288.98438 19.465626Q290.07812 20.934376 290.60938 22.41875Q291.0625 23.7 291.0625 25.090626Q291.0625 26.66875 290.45312 28.153126Q289.84375 29.621876 288.98438 30.73125Z" fill-rule="nonzero"/><path fill="#ea4335" d="M307.5 19.2C307.5 18.647715 307.94772 18.2 308.5 18.2L318.5 18.2C319.05228 18.2 319.5 18.647715 319.5 19.2L319.5 29.2C319.5 29.752285 319.05228 30.2 318.5 30.2L308.5 30.2C307.94772 30.2 307.5 29.752285 307.5 29.2Z" fill-rule="nonzero"/><path fill="#1a1a1a" d="M332.45312 24.825L332.45312 23.825L336.07812 23.809376L336.07812 26.996876Q335.25 27.66875 334.35938 28.0125Q333.46875 28.340626 332.53125 28.340626Q331.26562 28.340626 330.21875 27.809376Q329.1875 27.2625 328.65625 26.246876Q328.14062 25.215626 328.14062 23.95Q328.14062 22.684376 328.65625 21.60625Q329.1875 20.5125 330.17188 19.996876Q331.15625 19.465626 332.4375 19.465626Q333.375 19.465626 334.125 19.7625Q334.875 20.059376 335.29688 20.60625Q335.73438 21.1375 335.95312 22.0125L334.9375 22.29375Q334.73438 21.6375 334.4375 21.2625Q334.15625 20.8875 333.625 20.66875Q333.09375 20.434376 332.45312 20.434376Q331.67188 20.434376 331.09375 20.66875Q330.53125 20.903126 330.17188 21.29375Q329.82812 21.684376 329.64062 22.153126Q329.3125 22.95 329.3125 23.871876Q329.3125 25.028126 329.70312 25.809376Q330.10938 26.575 330.85938 26.95Q331.60938 27.325 332.46875 27.325Q333.20312 27.325 333.90625 27.04375Q334.60938 26.746876 334.96875 26.434376L334.96875 24.825L332.45312 24.825ZM341.54688 26.2L342.64062 26.325Q342.39062 27.278126 341.6875 27.809376Q340.98438 28.340626 339.90625 28.340626Q338.54688 28.340626 337.73438 27.496876Q336.9375 26.653126 336.9375 25.1375Q336.9375 23.575 337.75 22.715626Q338.5625 21.840626 339.84375 21.840626Q341.09375 21.840626 341.875 22.684376Q342.67188 23.528126 342.67188 25.075Q342.67188 25.16875 342.67188 25.35625L338.03125 25.35625Q338.09375 26.3875 338.60938 26.934376Q339.125 27.465626 339.90625 27.465626Q340.48438 27.465626 340.89062 27.16875Q341.3125 26.85625 341.54688 26.2ZM338.09375 24.496876L341.5625 24.496876Q341.5 23.7 341.17188 23.309376Q340.65625 22.7 339.85938 22.7Q339.125 22.7 338.625 23.184376Q338.14062 23.66875 338.09375 24.496876ZM346.59375 27.2625L346.75 28.184376Q346.29688 28.278126 345.95312 28.278126Q345.375 28.278126 345.0625 28.10625Q344.75 27.91875 344.60938 27.621876Q344.48438 27.325 344.48438 26.371876L344.48438 22.79375L343.71875 22.79375L343.71875 21.98125L344.48438 21.98125L344.48438 20.434376L345.53125 19.809376L345.53125 21.98125L346.59375 21.98125L346.59375 22.79375L345.53125 22.79375L345.53125 26.434376Q345.53125 26.8875 345.57812 27.0125Q345.64062 27.1375 345.76562 27.215626Q345.89062 27.29375 346.125 27.29375Q346.3125 27.29375 346.59375 27.2625ZM352.3125 30.73125Q351.4375 29.621876 350.82812 28.153126Q350.23438 26.66875 350.23438 25.090626Q350.23438 23.7 350.67188 22.41875Q351.20312 20.934376 352.3125 19.465626L353.0625 19.465626Q352.35938 20.684376 352.125 21.2Q351.76562 22.0125 351.5625 22.8875Q351.3125 23.98125 351.3125 25.090626Q351.3125 27.91875 353.0625 30.73125L352.3125 30.73125ZM354.39062 28.2L354.39062 19.60625L356.10938 19.60625L358.14062 25.684376Q358.42188 26.54375 358.54688 26.965626Q358.6875 26.496876 359.0 25.590626L361.0625 19.60625L362.59375 19.60625L362.59375 28.2L361.5 28.2L361.5 21.0125L359.0 28.2L357.96875 28.2L355.48438 20.8875L355.48438 28.2L354.39062 28.2ZM363.375 28.2L363.375 19.60625L366.60938 19.60625Q367.59375 19.60625 368.1875 19.871876Q368.78125 20.1375 369.10938 20.684376Q369.45312 21.215626 369.45312 21.809376Q369.45312 22.35625 369.15625 22.840626Q368.85938 23.325 368.25 23.621876Q369.03125 23.85625 369.4375 24.41875Q369.85938 24.965626 369.85938 25.715626Q369.85938 26.309376 369.60938 26.840626Q369.35938 27.35625 368.98438 27.6375Q368.60938 27.91875 368.03125 28.059376Q367.46875 28.2 366.65625 28.2L363.375 28.2ZM364.51562 23.215626L366.375 23.215626Q367.125 23.215626 367.45312 23.121876Q367.89062 22.996876 368.10938 22.7Q368.32812 22.3875 368.32812 21.934376Q368.32812 21.5125 368.125 21.184376Q367.92188 20.85625 367.53125 20.746876Q367.15625 20.621876 366.23438 20.621876L364.51562 20.621876L364.51562 23.215626ZM364.51562 27.184376L366.65625 27.184376Q367.20312 27.184376 367.42188 27.1375Q367.82812 27.075 368.07812 26.91875Q368.34375 26.746876 368.51562 26.434376Q368.6875 26.121876 368.6875 25.715626Q368.6875 25.23125 368.4375 24.871876Q368.20312 24.5125 367.76562 24.371876Q367.32812 24.23125 366.5 24.23125L364.51562 24.23125L364.51562 27.184376ZM371.42188 28.2L371.42188 19.60625L374.67188 19.60625Q375.51562 19.60625 375.96875 19.684376Q376.60938 19.79375 377.03125 20.090626Q377.46875 20.3875 377.71875 20.91875Q377.98438 21.45 377.98438 22.090626Q377.98438 23.184376 377.28125 23.95Q376.59375 24.7 374.76562 24.7L372.5625 24.7L372.5625 28.2L371.42188 28.2ZM372.5625 23.7L374.78125 23.7Q375.89062 23.7 376.34375 23.29375Q376.8125 22.871876 376.8125 22.121876Q376.8125 21.590626 376.53125 21.215626Q376.26562 20.825 375.82812 20.7Q375.53125 20.621876 374.76562 20.621876L372.5625 20.621876L372.5625 23.7ZM379.04688 25.434376L380.10938 25.340626Q380.1875 25.996876 380.46875 26.403126Q380.75 26.809376 381.32812 27.075Q381.92188 27.325 382.65625 27.325Q383.29688 27.325 383.79688 27.1375Q384.29688 26.934376 384.53125 26.60625Q384.78125 26.2625 384.78125 25.871876Q384.78125 25.465626 384.54688 25.16875Q384.3125 24.85625 383.78125 24.653126Q383.42188 24.5125 382.23438 24.23125Q381.0625 23.95 380.59375 23.7Q379.96875 23.371876 379.67188 22.903126Q379.375 22.41875 379.375 21.825Q379.375 21.184376 379.73438 20.621876Q380.10938 20.04375 380.8125 19.7625Q381.53125 19.465626 382.39062 19.465626Q383.34375 19.465626 384.07812 19.778126Q384.8125 20.075 385.20312 20.684376Q385.59375 21.278126 385.625 22.028126L384.53125 22.10625Q384.4375 21.29375 383.92188 20.8875Q383.42188 20.465626 382.4375 20.465626Q381.40625 20.465626 380.9375 20.840626Q380.46875 21.215626 380.46875 21.746876Q380.46875 22.215626 380.79688 22.5125Q381.125 22.809376 382.5 23.121876Q383.89062 23.434376 384.40625 23.66875Q385.15625 24.028126 385.51562 24.559376Q385.875 25.075 385.875 25.778126Q385.875 26.465626 385.48438 27.075Q385.09375 27.66875 384.35938 28.0125Q383.625 28.340626 382.70312 28.340626Q381.53125 28.340626 380.73438 28.0125Q379.95312 27.66875 379.5 26.98125Q379.0625 26.29375 379.04688 25.434376ZM387.98438 30.73125L387.23438 30.73125Q388.98438 27.91875 388.98438 25.090626Q388.98438 23.996876 388.73438 22.903126Q388.53125 22.028126 388.17188 21.215626Q387.9375 20.7 387.23438 19.465626L387.98438 19.465626Q389.07812 20.934376 389.60938 22.41875Q390.0625 23.7 390.0625 25.090626Q390.0625 26.66875 389.45312 28.153126Q388.84375 29.621876 387.98438 30.73125Z" fill-rule="nonzero"/></svg>