<svg version="1.1" viewBox="0.0 0.0 462.0 285.0" fill="none" stroke="none" stroke-linecap="square" stroke-miterlimit="10" width="462" height="285" xmlns:xlink="http://www.w3.org/1999/xlink" xmlns="http://www.w3.org/2000/svg"><path fill="#ffffff" d="M0 0L462.0 0L462.0 285.0L0 285.0L0 0Z" fill-rule="nonzero"/><path stroke="#cccccc" stroke-width="1.0" stroke-linecap="butt" d="M121.5 44.5L121.5 218.5" fill-rule="nonzero"/><path stroke="#cccccc" stroke-width="1.0" stroke-linecap="butt" d="M202.5 44.5L202.5 218.5" fill-rule="nonzero"/><path stroke="#cccccc" stroke-width="1.0" stroke-linecap="butt" d="M284.5 44.5L284.5 218.5" fill-rule="nonzero"/><path stroke="#cccccc" stroke-width="1.0" stroke-linecap="butt" d="M366.5 44.5L366.5 218.5" fill-rule="nonzero"/><path stroke="#cccccc" stroke-width="1.0" stroke-linecap="butt" d="M447.5 44.5L447.5 218.5" fill-rule="nonzero"/><path stroke="#333333" stroke-width="1.0" stroke-linecap="butt" d="M80.5 218.5L447.5 218.5" fill-rule="nonzero"/><path stroke="#cccccc" stroke-width="1.0" stroke-linecap="butt" d="M80.5 183.5L447.5 183.5" fill-rule="nonzero"/><path stroke="#cccccc" stroke-width="1.0" stroke-linecap="butt" d="M80.5 149.5L447.5 149.5" fill-rule="nonzero"/><path stroke="#cccccc" stroke-width="1.0" stroke-linecap="butt" d="M80.5 114.5L447.5 114.5" fill-rule="nonzero"/><path stroke="#cccccc" stroke-width="1.0" stroke-linecap="butt" d="M80.5 79.5L447.5 79.5" fill-rule="nonzero"/><path stroke="#cccccc" stroke-width="1.0" stroke-linecap="butt" d="M80.5 44.5L447.5 44.5" fill-rule="nonzero"/><clipPath id="id_0"><path d="M80.25 44.75L447.75 44.75L447.75 218.75L80.25 218.75L80.25 44.75Z" clip-rule="nonzero"/></clipPath><path stroke="#4285f4" stroke-width="2.0" stroke-linecap="butt" clip-path="url(#id_0)" d="M80.25 87.6758L121.083336 181.89124L202.75 193.73228L447.75 192.43181" fill-rule="nonzero"/><path stroke="#ea4335" stroke-width="2.0" stroke-linecap="butt" clip-path="url(#id_0)" d="M80.25 73.87273L121.083336 150.27126L202.75 138.46292L447.75 150.46147" fill-rule="nonzero"/><path fill="#000000" fill-opacity="0.0" clip-path="url(#id_0)" d="M83.25 87.6758C83.25 89.33266 81.90685 90.6758 80.25 90.6758C78.59315 90.6758 77.25 89.33266 77.25 87.6758C77.25 86.01894 78.59315 84.6758 80.25 84.6758C81.90685 84.6758 83.25 86.01894 83.25 87.6758Z" fill-rule="nonzero"/><path fill="#000000" fill-opacity="0.0" clip-path="url(#id_0)" d="M124.083336 181.89124C124.083336 183.54808 122.74019 184.89124 121.083336 184.89124C119.426476 184.89124 118.083336 183.54808 118.083336 181.89124C118.083336 180.23438 119.426476 178.89124 121.083336 178.89124C122.74019 178.89124 124.083336 180.23438 124.083336 181.89124Z" fill-rule="nonzero"/><path fill="#000000" fill-opacity="0.0" clip-path="url(#id_0)" d="M205.75 193.73228C205.75 195.38913 204.40686 196.73228 202.75 196.73228C201.09314 196.73228 199.75 195.38913 199.75 193.73228C199.75 192.07542 201.09314 190.73228 202.75 190.73228C204.40686 190.73228 205.75 192.07542 205.75 193.73228Z" fill-rule="nonzero"/><path fill="#000000" fill-opacity="0.0" clip-path="url(#id_0)" d="M450.75 192.43181C450.75 194.08865 449.40686 195.43181 447.75 195.43181C446.09314 195.43181 444.75 194.08865 444.75 192.43181C444.75 190.77495 446.09314 189.43181 447.75 189.43181C449.40686 189.43181 450.75 190.77495 450.75 192.43181Z" fill-rule="nonzero"/><path fill="#000000" fill-opacity="0.0" clip-path="url(#id_0)" d="M83.25 73.87273C83.25 75.52958 81.90685 76.87273 80.25 76.87273C78.59315 76.87273 77.25 75.52958 77.25 73.87273C77.25 72.21587 78.59315 70.87273 80.25 70.87273C81.90685 70.87273 83.25 72.21587 83.25 73.87273Z" fill-rule="nonzero"/><path fill="#000000" fill-opacity="0.0" clip-path="url(#id_0)" d="M124.083336 150.27126C124.083336 151.92812 122.74019 153.27126 121.083336 153.27126C119.426476 153.27126 118.083336 151.92812 118.083336 150.27126C118.083336 148.6144 119.426476 147.27126 121.083336 147.27126C122.74019 147.27126 124.083336 148.6144 124.083336 150.27126Z" fill-rule="nonzero"/><path fill="#000000" fill-opacity="0.0" clip-path="url(#id_0)" d="M205.75 138.46292C205.75 140.11978 204.40686 141.46292 202.75 141.46292C201.09314 141.46292 199.75 140.11978 199.75 138.46292C199.75 136.80606 201.09314 135.46292 202.75 135.46292C204.40686 135.46292 205.75 136.80606 205.75 138.46292Z" fill-rule="nonzero"/><path fill="#000000" fill-opacity="0.0" clip-path="url(#id_0)" d="M450.75 150.46147C450.75 152.11833 449.40686 153.46147 447.75 153.46147C446.09314 153.46147 444.75 152.11833 444.75 150.46147C444.75 148.80461 446.09314 147.46147 447.75 147.46147C449.40686 147.46147 450.75 148.80461 450.75 150.46147Z" fill-rule="nonzero"/><path fill="#000000" d="M239.04688 264.98438L240.10938 264.89062Q240.1875 265.54688 240.46875 265.95312Q240.75 266.35938 241.32812 266.625Q241.92188 266.875 242.65625 266.875Q243.29688 266.875 243.79688 266.6875Q244.29688 266.48438 244.53125 266.15625Q244.78125 265.8125 244.78125 265.42188Q244.78125 265.01562 244.54688 264.71875Q244.3125 264.40625 243.78125 264.20312Q243.42188 264.0625 242.23438 263.78125Q241.0625 263.5 240.59375 263.25Q239.96875 262.92188 239.67188 262.45312Q239.375 261.96875 239.375 261.375Q239.375 260.73438 239.73438 260.17188Q240.10938 259.59375 240.8125 259.3125Q241.53125 259.01562 242.39062 259.01562Q243.34375 259.01562 244.07812 259.32812Q244.8125 259.625 245.20312 260.23438Q245.59375 260.82812 245.625 261.57812L244.53125 261.65625Q244.4375 260.84375 243.92188 260.4375Q243.42188 260.01562 242.4375 260.01562Q241.40625 260.01562 240.9375 260.39062Q240.46875 260.76562 240.46875 261.29688Q240.46875 261.76562 240.79688 262.0625Q241.125 262.35938 242.5 262.67188Q243.89062 262.98438 244.40625 263.21875Q245.15625 263.57812 245.51562 264.10938Q245.875 264.625 245.875 265.32812Q245.875 266.01562 245.48438 266.625Q245.09375 267.21875 244.35938 267.5625Q243.625 267.89062 242.70312 267.89062Q241.53125 267.89062 240.73438 267.5625Q239.95312 267.21875 239.5 266.53125Q239.0625 265.84375 239.04688 264.98438ZM247.29688 260.375L247.29688 259.15625L248.35938 259.15625L248.35938 260.375L247.29688 260.375ZM247.29688 267.75L247.29688 261.53125L248.35938 261.53125L248.35938 267.75L247.29688 267.75ZM249.73438 267.75L249.73438 266.89062L253.70312 262.34375Q253.01562 262.375 252.5 262.375L249.96875 262.375L249.96875 261.53125L255.0625 261.53125L255.0625 262.21875L251.6875 266.17188L251.03125 266.89062Q251.75 266.84375 252.35938 266.84375L255.25 266.84375L255.25 267.75L249.73438 267.75ZM259.54688 265.75L260.64062 265.875Q260.39062 266.82812 259.6875 267.35938Q258.98438 267.89062 257.90625 267.89062Q256.54688 267.89062 255.73438 267.04688Q254.9375 266.20312 254.9375 264.6875Q254.9375 263.125 255.75 262.26562Q256.5625 261.39062 257.84375 261.39062Q259.09375 261.39062 259.875 262.23438Q260.67188 263.07812 260.67188 264.625Q260.67188 264.71875 260.67188 264.90625L256.03125 264.90625Q256.09375 265.9375 256.60938 266.48438Q257.125 267.01562 257.90625 267.01562Q258.48438 267.01562 258.89062 266.71875Q259.3125 266.40625 259.54688 265.75ZM256.09375 264.04688L259.5625 264.04688Q259.5 263.25 259.17188 262.85938Q258.65625 262.25 257.85938 262.25Q257.125 262.25 256.625 262.73438Q256.14062 263.21875 256.09375 264.04688ZM267.3125 270.28125Q266.4375 269.17188 265.82812 267.70312Q265.23438 266.21875 265.23438 264.64062Q265.23438 263.25 265.67188 261.96875Q266.20312 260.48438 267.3125 259.01562L268.0625 259.01562Q267.35938 260.23438 267.125 260.75Q266.76562 261.5625 266.5625 262.4375Q266.3125 263.53125 266.3125 264.64062Q266.3125 267.46875 268.0625 270.28125L267.3125 270.28125ZM273.45312 264.375L273.45312 263.375L277.07812 263.35938L277.07812 266.54688Q276.25 267.21875 275.35938 267.5625Q274.46875 267.89062 273.53125 267.89062Q272.26562 267.89062 271.21875 267.35938Q270.1875 266.8125 269.65625 265.79688Q269.14062 264.76562 269.14062 263.5Q269.14062 262.23438 269.65625 261.15625Q270.1875 260.0625 271.17188 259.54688Q272.15625 259.01562 273.4375 259.01562Q274.375 259.01562 275.125 259.3125Q275.875 259.60938 276.29688 260.15625Q276.73438 260.6875 276.95312 261.5625L275.9375 261.84375Q275.73438 261.1875 275.4375 260.8125Q275.15625 260.4375 274.625 260.21875Q274.09375 259.98438 273.45312 259.98438Q272.67188 259.98438 272.09375 260.21875Q271.53125 260.45312 271.17188 260.84375Q270.82812 261.23438 270.64062 261.70312Q270.3125 262.5 270.3125 263.42188Q270.3125 264.57812 270.70312 265.35938Q271.10938 266.125 271.85938 266.5Q272.60938 266.875 273.46875 266.875Q274.20312 266.875 274.90625 266.59375Q275.60938 266.29688 275.96875 265.98438L275.96875 264.375L273.45312 264.375ZM278.375 267.75L278.375 259.15625L281.60938 259.15625Q282.59375 259.15625 283.1875 259.42188Q283.78125 259.6875 284.10938 260.23438Q284.45312 260.76562 284.45312 261.35938Q284.45312 261.90625 284.15625 262.39062Q283.85938 262.875 283.25 263.17188Q284.03125 263.40625 284.4375 263.96875Q284.85938 264.51562 284.85938 265.26562Q284.85938 265.85938 284.60938 266.39062Q284.35938 266.90625 283.98438 267.1875Q283.60938 267.46875 283.03125 267.60938Q282.46875 267.75 281.65625 267.75L278.375 267.75ZM279.51562 262.76562L281.375 262.76562Q282.125 262.76562 282.45312 262.67188Q282.89062 262.54688 283.10938 262.25Q283.32812 261.9375 283.32812 261.48438Q283.32812 261.0625 283.125 260.73438Q282.92188 260.40625 282.53125 260.29688Q282.15625 260.17188 281.23438 260.17188L279.51562 260.17188L279.51562 262.76562ZM279.51562 266.73438L281.65625 266.73438Q282.20312 266.73438 282.42188 266.6875Q282.82812 266.625 283.07812 266.46875Q283.34375 266.29688 283.51562 265.98438Q283.6875 265.67188 283.6875 265.26562Q283.6875 264.78125 283.4375 264.42188Q283.20312 264.0625 282.76562 263.92188Q282.32812 263.78125 281.5 263.78125L279.51562 263.78125L279.51562 266.73438ZM286.98438 270.28125L286.23438 270.28125Q287.98438 267.46875 287.98438 264.64062Q287.98438 263.54688 287.73438 262.45312Q287.53125 261.57812 287.17188 260.76562Q286.9375 260.25 286.23438 259.01562L286.98438 259.01562Q288.07812 260.48438 288.60938 261.96875Q289.0625 263.25 289.0625 264.64062Q289.0625 266.21875 288.45312 267.70312Q287.84375 269.17188 286.98438 270.28125Z" fill-rule="nonzero"/><path fill="#000000" d="M25.25 187.375L16.65625 187.375L16.65625 184.14062Q16.65625 183.15625 16.921875 182.5625Q17.1875 181.96875 17.734375 181.64062Q18.265625 181.29688 18.859375 181.29688Q19.40625 181.29688 19.890625 181.59375Q20.375 181.89062 20.671875 182.5Q20.90625 181.71875 21.46875 181.3125Q22.015625 180.89062 22.765625 180.89062Q23.359375 180.89062 23.890625 181.14062Q24.40625 181.39062 24.6875 181.76562Q24.96875 182.14062 25.109375 182.71875Q25.25 183.28125 25.25 184.09375L25.25 187.375ZM20.265625 186.23438L20.265625 184.375Q20.265625 183.625 20.171875 183.29688Q20.046875 182.85938 19.75 182.64062Q19.4375 182.42188 18.984375 182.42188Q18.5625 182.42188 18.234375 182.625Q17.90625 182.82812 17.796875 183.21875Q17.671875 183.59375 17.671875 184.51562L17.671875 186.23438L20.265625 186.23438ZM24.234375 186.23438L24.234375 184.09375Q24.234375 183.54688 24.1875 183.32812Q24.125 182.92188 23.96875 182.67188Q23.796875 182.40625 23.484375 182.23438Q23.171875 182.0625 22.765625 182.0625Q22.28125 182.0625 21.921875 182.3125Q21.5625 182.54688 21.421875 182.98438Q21.28125 183.42188 21.28125 184.25L21.28125 186.23438L24.234375 186.23438ZM24.484375 175.39062Q24.984375 175.98438 25.1875 176.53125Q25.390625 177.0625 25.390625 177.6875Q25.390625 178.71875 24.890625 179.26562Q24.390625 179.8125 23.609375 179.8125Q23.15625 179.8125 22.78125 179.60938Q22.390625 179.40625 22.171875 179.0625Q21.9375 178.71875 21.828125 178.29688Q21.734375 178.0 21.65625 177.35938Q21.515625 176.09375 21.296875 175.48438Q21.078125 175.48438 21.03125 175.48438Q20.375 175.48438 20.109375 175.78125Q19.765625 176.1875 19.765625 176.98438Q19.765625 177.71875 20.03125 178.07812Q20.28125 178.4375 20.9375 178.60938L20.796875 179.64062Q20.140625 179.5 19.734375 179.17188Q19.328125 178.84375 19.109375 178.23438Q18.890625 177.625 18.890625 176.82812Q18.890625 176.03125 19.078125 175.53125Q19.265625 175.03125 19.546875 174.79688Q19.828125 174.5625 20.265625 174.46875Q20.53125 174.42188 21.234375 174.42188L22.640625 174.42188Q24.109375 174.42188 24.5 174.35938Q24.890625 174.28125 25.25 174.07812L25.25 175.1875Q24.921875 175.34375 24.484375 175.39062ZM22.125 175.48438Q22.359375 176.0625 22.53125 177.20312Q22.625 177.85938 22.75 178.125Q22.859375 178.39062 23.078125 178.54688Q23.296875 178.6875 23.578125 178.6875Q24.0 178.6875 24.28125 178.375Q24.5625 178.04688 24.5625 177.4375Q24.5625 176.82812 24.296875 176.35938Q24.03125 175.875 23.5625 175.65625Q23.203125 175.48438 22.515625 175.48438L22.125 175.48438ZM25.25 172.45312L19.03125 172.45312L19.03125 171.51562L19.90625 171.51562Q18.890625 170.82812 18.890625 169.53125Q18.890625 168.96875 19.09375 168.5Q19.296875 168.01562 19.625 167.78125Q19.953125 167.54688 20.390625 167.45312Q20.6875 167.40625 21.421875 167.40625L25.25 167.40625L25.25 168.45312L21.46875 168.45312Q20.8125 168.45312 20.5 168.57812Q20.1875 168.70312 20.0 169.01562Q19.796875 169.32812 19.796875 169.75Q19.796875 170.42188 20.234375 170.92188Q20.65625 171.40625 21.84375 171.40625L25.25 171.40625L25.25 172.45312ZM25.25 161.42188L24.46875 161.42188Q25.390625 162.01562 25.390625 163.15625Q25.390625 163.90625 24.984375 164.53125Q24.5625 165.15625 23.828125 165.5Q23.09375 165.84375 22.140625 165.84375Q21.21875 165.84375 20.453125 165.53125Q19.6875 165.21875 19.296875 164.59375Q18.890625 163.96875 18.890625 163.20312Q18.890625 162.64062 19.125 162.20312Q19.359375 161.76562 19.734375 161.48438L16.65625 161.48438L16.65625 160.4375L25.25 160.4375L25.25 161.42188ZM22.140625 164.75Q23.34375 164.75 23.9375 164.25Q24.515625 163.75 24.515625 163.0625Q24.515625 162.375 23.953125 161.89062Q23.390625 161.40625 22.234375 161.40625Q20.953125 161.40625 20.359375 161.90625Q19.765625 162.39062 19.765625 163.10938Q19.765625 163.8125 20.34375 164.28125Q20.90625 164.75 22.140625 164.75ZM25.25 157.3125L19.03125 159.21875L19.03125 158.125L22.625 157.14062L23.953125 156.76562Q23.859375 156.73438 22.671875 156.4375L19.03125 155.45312L19.03125 154.375L22.640625 153.4375L23.828125 153.125L22.625 152.76562L19.03125 151.70312L19.03125 150.67188L25.25 152.625L25.25 153.71875L21.515625 154.70312L20.46875 154.95312L25.25 156.20312L25.25 157.3125ZM17.875 149.45312L16.65625 149.45312L16.65625 148.39062L17.875 148.39062L17.875 149.45312ZM25.25 149.45312L19.03125 149.45312L19.03125 148.39062L25.25 148.39062L25.25 149.45312ZM25.25 142.42188L24.46875 142.42188Q25.390625 143.01562 25.390625 144.15625Q25.390625 144.90625 24.984375 145.53125Q24.5625 146.15625 23.828125 146.5Q23.09375 146.84375 22.140625 146.84375Q21.21875 146.84375 20.453125 146.53125Q19.6875 146.21875 19.296875 145.59375Q18.890625 144.96875 18.890625 144.20312Q18.890625 143.64062 19.125 143.20312Q19.359375 142.76562 19.734375 142.48438L16.65625 142.48438L16.65625 141.4375L25.25 141.4375L25.25 142.42188ZM22.140625 145.75Q23.34375 145.75 23.9375 145.25Q24.515625 144.75 24.515625 144.0625Q24.515625 143.375 23.953125 142.89062Q23.390625 142.40625 22.234375 142.40625Q20.953125 142.40625 20.359375 142.90625Q19.765625 143.39062 19.765625 144.10938Q19.765625 144.8125 20.34375 145.28125Q20.90625 145.75 22.140625 145.75ZM24.3125 137.15625L25.234375 137.0Q25.328125 137.45312 25.328125 137.79688Q25.328125 138.375 25.15625 138.6875Q24.96875 139.0 24.671875 139.14062Q24.375 139.26562 23.421875 139.26562L19.84375 139.26562L19.84375 140.03125L19.03125 140.03125L19.03125 139.26562L17.484375 139.26562L16.859375 138.21875L19.03125 138.21875L19.03125 137.15625L19.84375 137.15625L19.84375 138.21875L23.484375 138.21875Q23.9375 138.21875 24.0625 138.17188Q24.1875 138.10938 24.265625 137.98438Q24.34375 137.85938 24.34375 137.625Q24.34375 137.4375 24.3125 137.15625ZM25.25 136.45312L16.65625 136.45312L16.65625 135.40625L19.734375 135.40625Q18.890625 134.67188 18.890625 133.54688Q18.890625 132.84375 19.171875 132.34375Q19.4375 131.82812 19.921875 131.60938Q20.390625 131.39062 21.3125 131.39062L25.25 131.39062L25.25 132.4375L21.3125 132.4375Q20.515625 132.4375 20.15625 132.78125Q19.796875 133.125 19.796875 133.75Q19.796875 134.21875 20.046875 134.64062Q20.28125 135.04688 20.703125 135.23438Q21.109375 135.40625 21.84375 135.40625L25.25 135.40625L25.25 136.45312ZM27.78125 124.4375Q26.671875 125.3125 25.203125 125.921875Q23.71875 126.515625 22.140625 126.515625Q20.75 126.515625 19.46875 126.078125Q17.984375 125.546875 16.515625 124.4375L16.515625 123.6875Q17.734375 124.390625 18.25 124.625Q19.0625 124.984375 19.9375 125.1875Q21.03125 125.4375 22.140625 125.4375Q24.96875 125.4375 27.78125 123.6875L27.78125 124.4375ZM25.25 122.359375L16.65625 122.359375L16.65625 120.640625L22.734375 118.609375Q23.59375 118.328125 24.015625 118.203125Q23.546875 118.0625 22.640625 117.75L16.65625 115.6875L16.65625 114.15625L25.25 114.15625L25.25 115.25L18.0625 115.25L25.25 117.75L25.25 118.78125L17.9375 121.265625L25.25 121.265625L25.25 122.359375ZM25.25 113.375L16.65625 113.375L16.65625 110.140625Q16.65625 109.15625 16.921875 108.5625Q17.1875 107.96875 17.734375 107.640625Q18.265625 107.296875 18.859375 107.296875Q19.40625 107.296875 19.890625 107.59375Q20.375 107.890625 20.671875 108.5Q20.90625 107.71875 21.46875 107.3125Q22.015625 106.890625 22.765625 106.890625Q23.359375 106.890625 23.890625 107.140625Q24.40625 107.390625 24.6875 107.765625Q24.96875 108.140625 25.109375 108.71875Q25.25 109.28125 25.25 110.09375L25.25 113.375ZM20.265625 112.234375L20.265625 110.375Q20.265625 109.625 20.171875 109.296875Q20.046875 108.859375 19.75 108.640625Q19.4375 108.421875 18.984375 108.421875Q18.5625 108.421875 18.234375 108.625Q17.90625 108.828125 17.796875 109.21875Q17.671875 109.59375 17.671875 110.515625L17.671875 112.234375L20.265625 112.234375ZM24.234375 112.234375L24.234375 110.09375Q24.234375 109.546875 24.1875 109.328125Q24.125 108.921875 23.96875 108.671875Q23.796875 108.40625 23.484375 108.234375Q23.171875 108.0625 22.765625 108.0625Q22.28125 108.0625 21.921875 108.3125Q21.5625 108.546875 21.421875 108.984375Q21.28125 109.421875 21.28125 110.25L21.28125 112.234375L24.234375 112.234375ZM27.640625 105.453125L19.03125 105.453125L19.03125 104.5L19.828125 104.5Q19.359375 104.15625 19.125 103.734375Q18.890625 103.296875 18.890625 102.6875Q18.890625 101.890625 19.296875 101.28125Q19.703125 100.671875 20.453125 100.375Q21.203125 100.0625 22.09375 100.0625Q23.046875 100.0625 23.8125 100.40625Q24.578125 100.734375 24.984375 101.390625Q25.390625 102.046875 25.390625 102.765625Q25.390625 103.296875 25.171875 103.71875Q24.9375 104.140625 24.609375 104.40625L27.640625 104.40625L27.640625 105.453125ZM22.171875 104.5Q23.375 104.5 23.953125 104.015625Q24.515625 103.53125 24.515625 102.84375Q24.515625 102.140625 23.921875 101.640625Q23.328125 101.140625 22.078125 101.140625Q20.890625 101.140625 20.3125 101.625Q19.71875 102.109375 19.71875 102.796875Q19.71875 103.46875 20.34375 103.984375Q20.96875 104.5 22.171875 104.5ZM23.390625 98.875L23.234375 97.84375Q23.859375 97.75 24.1875 97.359375Q24.515625 96.953125 24.515625 96.21875Q24.515625 95.5 24.234375 95.15625Q23.9375 94.796875 23.53125 94.796875Q23.171875 94.796875 22.96875 95.109375Q22.828125 95.328125 22.609375 96.1875Q22.3125 97.34375 22.109375 97.796875Q21.890625 98.234375 21.515625 98.46875Q21.140625 98.703125 20.671875 98.703125Q20.265625 98.703125 19.90625 98.515625Q19.546875 98.328125 19.3125 98.0Q19.140625 97.75 19.015625 97.328125Q18.890625 96.90625 18.890625 96.40625Q18.890625 95.6875 19.109375 95.140625Q19.3125 94.578125 19.671875 94.3125Q20.03125 94.046875 20.625 93.953125L20.765625 94.984375Q20.296875 95.046875 20.03125 95.390625Q19.75 95.71875 19.75 96.34375Q19.75 97.0625 20.0 97.375Q20.234375 97.6875 20.5625 97.6875Q20.765625 97.6875 20.921875 97.5625Q21.09375 97.421875 21.203125 97.15625Q21.265625 97.0 21.46875 96.21875Q21.78125 95.09375 21.96875 94.65625Q22.15625 94.21875 22.515625 93.96875Q22.875 93.71875 23.421875 93.71875Q23.953125 93.71875 24.421875 94.03125Q24.875 94.328125 25.140625 94.90625Q25.390625 95.484375 25.390625 96.21875Q25.390625 97.4375 24.890625 98.078125Q24.375 98.703125 23.390625 98.875ZM27.78125 90.765625L27.78125 91.515625Q24.96875 89.765625 22.140625 89.765625Q21.046875 89.765625 19.953125 90.015625Q19.078125 90.21875 18.265625 90.578125Q17.75 90.8125 16.515625 91.515625L16.515625 90.765625Q17.984375 89.671875 19.46875 89.140625Q20.75 88.6875 22.140625 88.6875Q23.71875 88.6875 25.203125 89.296875Q26.671875 89.90625 27.78125 90.765625Z" fill-rule="nonzero"/><path fill="#000000" d="M67.75 218.51562Q67.75 216.98438 68.0625 216.0625Q68.375 215.125 68.984375 214.625Q69.609375 214.125 70.546875 214.125Q71.234375 214.125 71.75 214.40625Q72.28125 214.6875 72.625 215.21875Q72.96875 215.73438 73.15625 216.48438Q73.34375 217.23438 73.34375 218.51562Q73.34375 220.03125 73.03125 220.95312Q72.734375 221.875 72.109375 222.39062Q71.5 222.89062 70.546875 222.89062Q69.3125 222.89062 68.59375 222.0Q67.75 220.9375 67.75 218.51562ZM68.828125 218.51562Q68.828125 220.625 69.328125 221.32812Q69.828125 222.03125 70.546875 222.03125Q71.28125 222.03125 71.765625 221.32812Q72.265625 220.625 72.265625 218.51562Q72.265625 216.39062 71.765625 215.70312Q71.28125 215.0 70.53125 215.0Q69.8125 215.0 69.375 215.60938Q68.828125 216.39062 68.828125 218.51562Z" fill-rule="nonzero"/><path fill="#000000" d="M53.75 185.7L54.859375 185.60625Q54.984375 186.41875 55.421875 186.825Q55.875 187.23125 56.515625 187.23125Q57.265625 187.23125 57.796875 186.65312Q58.328125 186.075 58.328125 185.1375Q58.328125 184.23125 57.8125 183.71562Q57.3125 183.18437 56.484375 183.18437Q55.984375 183.18437 55.5625 183.41875Q55.15625 183.65312 54.921875 184.0125L53.9375 183.8875L54.765625 179.48125L59.046875 179.48125L59.046875 180.48125L55.609375 180.48125L55.15625 182.79375Q55.921875 182.24687 56.765625 182.24687Q57.890625 182.24687 58.65625 183.02812Q59.4375 183.80937 59.4375 185.04375Q59.4375 186.2 58.765625 187.05937Q57.9375 188.09062 56.515625 188.09062Q55.34375 188.09062 54.59375 187.43437Q53.859375 186.77812 53.75 185.7ZM60.75 183.71562Q60.75 182.18437 61.0625 181.2625Q61.375 180.325 61.984375 179.825Q62.609375 179.325 63.546875 179.325Q64.234375 179.325 64.75 179.60625Q65.28125 179.8875 65.625 180.41875Q65.96875 180.93437 66.15625 181.68437Q66.34375 182.43437 66.34375 183.71562Q66.34375 185.23125 66.03125 186.15312Q65.734375 187.075 65.109375 187.59062Q64.5 188.09062 63.546875 188.09062Q62.3125 188.09062 61.59375 187.2Q60.75 186.1375 60.75 183.71562ZM61.828125 183.71562Q61.828125 185.825 62.328125 186.52812Q62.828125 187.23125 63.546875 187.23125Q64.28125 187.23125 64.765625 186.52812Q65.265625 185.825 65.265625 183.71562Q65.265625 181.59062 64.765625 180.90312Q64.28125 180.2 63.53125 180.2Q62.8125 180.2 62.375 180.80937Q61.828125 181.59062 61.828125 183.71562ZM67.75 183.71562Q67.75 182.18437 68.0625 181.2625Q68.375 180.325 68.984375 179.825Q69.609375 179.325 70.546875 179.325Q71.234375 179.325 71.75 179.60625Q72.28125 179.8875 72.625 180.41875Q72.96875 180.93437 73.15625 181.68437Q73.34375 182.43437 73.34375 183.71562Q73.34375 185.23125 73.03125 186.15312Q72.734375 187.075 72.109375 187.59062Q71.5 188.09062 70.546875 188.09062Q69.3125 188.09062 68.59375 187.2Q67.75 186.1375 67.75 183.71562ZM68.828125 183.71562Q68.828125 185.825 69.328125 186.52812Q69.828125 187.23125 70.546875 187.23125Q71.28125 187.23125 71.765625 186.52812Q72.265625 185.825 72.265625 183.71562Q72.265625 181.59062 71.765625 180.90312Q71.28125 180.2 70.53125 180.2Q69.8125 180.2 69.375 180.80937Q68.828125 181.59062 68.828125 183.71562Z" fill-rule="nonzero"/><path fill="#000000" d="M50.71875 153.15L49.671875 153.15L49.671875 146.43124Q49.28125 146.79062 48.65625 147.16562Q48.046875 147.525 47.5625 147.69687L47.5625 146.68124Q48.4375 146.25937 49.09375 145.68124Q49.765625 145.0875 50.046875 144.525L50.71875 144.525L50.71875 153.15ZM53.75 148.91562Q53.75 147.38437 54.0625 146.4625Q54.375 145.525 54.984375 145.025Q55.609375 144.525 56.546875 144.525Q57.234375 144.525 57.75 144.80624Q58.28125 145.0875 58.625 145.61874Q58.96875 146.13437 59.15625 146.88437Q59.34375 147.63437 59.34375 148.91562Q59.34375 150.43124 59.03125 151.35312Q58.734375 152.275 58.109375 152.79062Q57.5 153.29062 56.546875 153.29062Q55.3125 153.29062 54.59375 152.4Q53.75 151.3375 53.75 148.91562ZM54.828125 148.91562Q54.828125 151.025 55.328125 151.72812Q55.828125 152.43124 56.546875 152.43124Q57.28125 152.43124 57.765625 151.72812Q58.265625 151.025 58.265625 148.91562Q58.265625 146.79062 57.765625 146.10312Q57.28125 145.4 56.53125 145.4Q55.8125 145.4 55.375 146.00937Q54.828125 146.79062 54.828125 148.91562ZM60.75 148.91562Q60.75 147.38437 61.0625 146.4625Q61.375 145.525 61.984375 145.025Q62.609375 144.525 63.546875 144.525Q64.234375 144.525 64.75 144.80624Q65.28125 145.0875 65.625 145.61874Q65.96875 146.13437 66.15625 146.88437Q66.34375 147.63437 66.34375 148.91562Q66.34375 150.43124 66.03125 151.35312Q65.734375 152.275 65.109375 152.79062Q64.5 153.29062 63.546875 153.29062Q62.3125 153.29062 61.59375 152.4Q60.75 151.3375 60.75 148.91562ZM61.828125 148.91562Q61.828125 151.025 62.328125 151.72812Q62.828125 152.43124 63.546875 152.43124Q64.28125 152.43124 64.765625 151.72812Q65.265625 151.025 65.265625 148.91562Q65.265625 146.79062 64.765625 146.10312Q64.28125 145.4 63.53125 145.4Q62.8125 145.4 62.375 146.00937Q61.828125 146.79062 61.828125 148.91562ZM67.75 148.91562Q67.75 147.38437 68.0625 146.4625Q68.375 145.525 68.984375 145.025Q69.609375 144.525 70.546875 144.525Q71.234375 144.525 71.75 144.80624Q72.28125 145.0875 72.625 145.61874Q72.96875 146.13437 73.15625 146.88437Q73.34375 147.63437 73.34375 148.91562Q73.34375 150.43124 73.03125 151.35312Q72.734375 152.275 72.109375 152.79062Q71.5 153.29062 70.546875 153.29062Q69.3125 153.29062 68.59375 152.4Q67.75 151.3375 67.75 148.91562ZM68.828125 148.91562Q68.828125 151.025 69.328125 151.72812Q69.828125 152.43124 70.546875 152.43124Q71.28125 152.43124 71.765625 151.72812Q72.265625 151.025 72.265625 148.91562Q72.265625 146.79062 71.765625 146.10312Q71.28125 145.4 70.53125 145.4Q69.8125 145.4 69.375 146.00937Q68.828125 146.79062 68.828125 148.91562Z" fill-rule="nonzero"/><path fill="#000000" d="M50.71875 118.35L49.671875 118.35L49.671875 111.63125Q49.28125 111.99062 48.65625 112.36562Q48.046875 112.725 47.5625 112.89687L47.5625 111.88125Q48.4375 111.45937 49.09375 110.88125Q49.765625 110.2875 50.046875 109.725L50.71875 109.725L50.71875 118.35ZM53.75 116.1L54.859375 116.00625Q54.984375 116.81875 55.421875 117.225Q55.875 117.63125 56.515625 117.63125Q57.265625 117.63125 57.796875 117.05312Q58.328125 116.475 58.328125 115.5375Q58.328125 114.63125 57.8125 114.11562Q57.3125 113.58437 56.484375 113.58437Q55.984375 113.58437 55.5625 113.81875Q55.15625 114.05312 54.921875 114.4125L53.9375 114.2875L54.765625 109.88125L59.046875 109.88125L59.046875 110.88125L55.609375 110.88125L55.15625 113.19375Q55.921875 112.64687 56.765625 112.64687Q57.890625 112.64687 58.65625 113.42812Q59.4375 114.20937 59.4375 115.44375Q59.4375 116.6 58.765625 117.45937Q57.9375 118.49062 56.515625 118.49062Q55.34375 118.49062 54.59375 117.83437Q53.859375 117.17812 53.75 116.1ZM60.75 114.11562Q60.75 112.58437 61.0625 111.6625Q61.375 110.725 61.984375 110.225Q62.609375 109.725 63.546875 109.725Q64.234375 109.725 64.75 110.00625Q65.28125 110.2875 65.625 110.81875Q65.96875 111.33437 66.15625 112.08437Q66.34375 112.83437 66.34375 114.11562Q66.34375 115.63125 66.03125 116.55312Q65.734375 117.475 65.109375 117.99062Q64.5 118.49062 63.546875 118.49062Q62.3125 118.49062 61.59375 117.6Q60.75 116.5375 60.75 114.11562ZM61.828125 114.11562Q61.828125 116.225 62.328125 116.92812Q62.828125 117.63125 63.546875 117.63125Q64.28125 117.63125 64.765625 116.92812Q65.265625 116.225 65.265625 114.11562Q65.265625 111.99062 64.765625 111.30312Q64.28125 110.6 63.53125 110.6Q62.8125 110.6 62.375 111.20937Q61.828125 111.99062 61.828125 114.11562ZM67.75 114.11562Q67.75 112.58437 68.0625 111.6625Q68.375 110.725 68.984375 110.225Q69.609375 109.725 70.546875 109.725Q71.234375 109.725 71.75 110.00625Q72.28125 110.2875 72.625 110.81875Q72.96875 111.33437 73.15625 112.08437Q73.34375 112.83437 73.34375 114.11562Q73.34375 115.63125 73.03125 116.55312Q72.734375 117.475 72.109375 117.99062Q71.5 118.49062 70.546875 118.49062Q69.3125 118.49062 68.59375 117.6Q67.75 116.5375 67.75 114.11562ZM68.828125 114.11562Q68.828125 116.225 69.328125 116.92812Q69.828125 117.63125 70.546875 117.63125Q71.28125 117.63125 71.765625 116.92812Q72.265625 116.225 72.265625 114.11562Q72.265625 111.99062 71.765625 111.30312Q71.28125 110.6 70.53125 110.6Q69.8125 110.6 69.375 111.20937Q68.828125 111.99062 68.828125 114.11562Z" fill-rule="nonzero"/><path fill="#000000" d="M52.296875 82.53438L52.296875 83.55L46.609375 83.55Q46.609375 83.175 46.734375 82.81563Q46.953125 82.2375 47.421875 81.675Q47.90625 81.1125 48.8125 80.37813Q50.21875 79.22188 50.703125 78.55Q51.203125 77.87813 51.203125 77.28438Q51.203125 76.65938 50.75 76.2375Q50.296875 75.8 49.578125 75.8Q48.8125 75.8 48.359375 76.25313Q47.90625 76.70625 47.890625 77.51875L46.8125 77.40938Q46.921875 76.19063 47.640625 75.56563Q48.375 74.925 49.609375 74.925Q50.84375 74.925 51.5625 75.6125Q52.28125 76.3 52.28125 77.31563Q52.28125 77.83125 52.0625 78.33125Q51.859375 78.81563 51.359375 79.37813Q50.875 79.925 49.75 80.87813Q48.796875 81.675 48.515625 81.97188Q48.25 82.25313 48.078125 82.53438L52.296875 82.53438ZM53.75 79.31563Q53.75 77.78438 54.0625 76.8625Q54.375 75.925 54.984375 75.425Q55.609375 74.925 56.546875 74.925Q57.234375 74.925 57.75 75.20625Q58.28125 75.4875 58.625 76.01875Q58.96875 76.53438 59.15625 77.28438Q59.34375 78.03438 59.34375 79.31563Q59.34375 80.83125 59.03125 81.75313Q58.734375 82.675 58.109375 83.19063Q57.5 83.69063 56.546875 83.69063Q55.3125 83.69063 54.59375 82.8Q53.75 81.7375 53.75 79.31563ZM54.828125 79.31563Q54.828125 81.425 55.328125 82.12813Q55.828125 82.83125 56.546875 82.83125Q57.28125 82.83125 57.765625 82.12813Q58.265625 81.425 58.265625 79.31563Q58.265625 77.19063 57.765625 76.50313Q57.28125 75.8 56.53125 75.8Q55.8125 75.8 55.375 76.40938Q54.828125 77.19063 54.828125 79.31563ZM60.75 79.31563Q60.75 77.78438 61.0625 76.8625Q61.375 75.925 61.984375 75.425Q62.609375 74.925 63.546875 74.925Q64.234375 74.925 64.75 75.20625Q65.28125 75.4875 65.625 76.01875Q65.96875 76.53438 66.15625 77.28438Q66.34375 78.03438 66.34375 79.31563Q66.34375 80.83125 66.03125 81.75313Q65.734375 82.675 65.109375 83.19063Q64.5 83.69063 63.546875 83.69063Q62.3125 83.69063 61.59375 82.8Q60.75 81.7375 60.75 79.31563ZM61.828125 79.31563Q61.828125 81.425 62.328125 82.12813Q62.828125 82.83125 63.546875 82.83125Q64.28125 82.83125 64.765625 82.12813Q65.265625 81.425 65.265625 79.31563Q65.265625 77.19063 64.765625 76.50313Q64.28125 75.8 63.53125 75.8Q62.8125 75.8 62.375 76.40938Q61.828125 77.19063 61.828125 79.31563ZM67.75 79.31563Q67.75 77.78438 68.0625 76.8625Q68.375 75.925 68.984375 75.425Q69.609375 74.925 70.546875 74.925Q71.234375 74.925 71.75 75.20625Q72.28125 75.4875 72.625 76.01875Q72.96875 76.53438 73.15625 77.28438Q73.34375 78.03438 73.34375 79.31563Q73.34375 80.83125 73.03125 81.75313Q72.734375 82.675 72.109375 83.19063Q71.5 83.69063 70.546875 83.69063Q69.3125 83.69063 68.59375 82.8Q67.75 81.7375 67.75 79.31563ZM68.828125 79.31563Q68.828125 81.425 69.328125 82.12813Q69.828125 82.83125 70.546875 82.83125Q71.28125 82.83125 71.765625 82.12813Q72.265625 81.425 72.265625 79.31563Q72.265625 77.19063 71.765625 76.50313Q71.28125 75.8 70.53125 75.8Q69.8125 75.8 69.375 76.40938Q68.828125 77.19063 68.828125 79.31563Z" fill-rule="nonzero"/><path fill="#000000" d="M52.296875 47.734375L52.296875 48.75L46.609375 48.75Q46.609375 48.375 46.734375 48.015625Q46.953125 47.4375 47.421875 46.875Q47.90625 46.3125 48.8125 45.578125Q50.21875 44.421875 50.703125 43.75Q51.203125 43.078125 51.203125 42.484375Q51.203125 41.859375 50.75 41.4375Q50.296875 41.0 49.578125 41.0Q48.8125 41.0 48.359375 41.453125Q47.90625 41.90625 47.890625 42.71875L46.8125 42.609375Q46.921875 41.390625 47.640625 40.765625Q48.375 40.125 49.609375 40.125Q50.84375 40.125 51.5625 40.8125Q52.28125 41.5 52.28125 42.515625Q52.28125 43.03125 52.0625 43.53125Q51.859375 44.015625 51.359375 44.578125Q50.875 45.125 49.75 46.078125Q48.796875 46.875 48.515625 47.171875Q48.25 47.453125 48.078125 47.734375L52.296875 47.734375ZM53.75 46.5L54.859375 46.40625Q54.984375 47.21875 55.421875 47.625Q55.875 48.03125 56.515625 48.03125Q57.265625 48.03125 57.796875 47.453125Q58.328125 46.875 58.328125 45.9375Q58.328125 45.03125 57.8125 44.515625Q57.3125 43.984375 56.484375 43.984375Q55.984375 43.984375 55.5625 44.21875Q55.15625 44.453125 54.921875 44.8125L53.9375 44.6875L54.765625 40.28125L59.046875 40.28125L59.046875 41.28125L55.609375 41.28125L55.15625 43.59375Q55.921875 43.046875 56.765625 43.046875Q57.890625 43.046875 58.65625 43.828125Q59.4375 44.609375 59.4375 45.84375Q59.4375 47.0 58.765625 47.859375Q57.9375 48.890625 56.515625 48.890625Q55.34375 48.890625 54.59375 48.234375Q53.859375 47.578125 53.75 46.5ZM60.75 44.515625Q60.75 42.984375 61.0625 42.0625Q61.375 41.125 61.984375 40.625Q62.609375 40.125 63.546875 40.125Q64.234375 40.125 64.75 40.40625Q65.28125 40.6875 65.625 41.21875Q65.96875 41.734375 66.15625 42.484375Q66.34375 43.234375 66.34375 44.515625Q66.34375 46.03125 66.03125 46.953125Q65.734375 47.875 65.109375 48.390625Q64.5 48.890625 63.546875 48.890625Q62.3125 48.890625 61.59375 48.0Q60.75 46.9375 60.75 44.515625ZM61.828125 44.515625Q61.828125 46.625 62.328125 47.328125Q62.828125 48.03125 63.546875 48.03125Q64.28125 48.03125 64.765625 47.328125Q65.265625 46.625 65.265625 44.515625Q65.265625 42.390625 64.765625 41.703125Q64.28125 41.0 63.53125 41.0Q62.8125 41.0 62.375 41.609375Q61.828125 42.390625 61.828125 44.515625ZM67.75 44.515625Q67.75 42.984375 68.0625 42.0625Q68.375 41.125 68.984375 40.625Q69.609375 40.125 70.546875 40.125Q71.234375 40.125 71.75 40.40625Q72.28125 40.6875 72.625 41.21875Q72.96875 41.734375 73.15625 42.484375Q73.34375 43.234375 73.34375 44.515625Q73.34375 46.03125 73.03125 46.953125Q72.734375 47.875 72.109375 48.390625Q71.5 48.890625 70.546875 48.890625Q69.3125 48.890625 68.59375 48.0Q67.75 46.9375 67.75 44.515625ZM68.828125 44.515625Q68.828125 46.625 69.328125 47.328125Q69.828125 48.03125 70.546875 48.03125Q71.28125 48.03125 71.765625 47.328125Q72.265625 46.625 72.265625 44.515625Q72.265625 42.390625 71.765625 41.703125Q71.28125 41.0 70.53125 41.0Q69.8125 41.0 69.375 41.609375Q68.828125 42.390625 68.828125 44.515625Z" fill-rule="nonzero"/><path fill="#000000" d="M120.13021 234.73438L120.13021 235.75L114.44271 235.75Q114.44271 235.375 114.56771 235.01562Q114.78646 234.4375 115.25521 233.875Q115.739586 233.3125 116.645836 232.57812Q118.052086 231.42188 118.53646 230.75Q119.03646 230.07812 119.03646 229.48438Q119.03646 228.85938 118.583336 228.4375Q118.13021 228.0 117.41146 228.0Q116.645836 228.0 116.19271 228.45312Q115.739586 228.90625 115.72396 229.71875L114.645836 229.60938Q114.75521 228.39062 115.47396 227.76562Q116.208336 227.125 117.44271 227.125Q118.677086 227.125 119.395836 227.8125Q120.114586 228.5 120.114586 229.51562Q120.114586 230.03125 119.895836 230.53125Q119.69271 231.01562 119.19271 231.57812Q118.708336 232.125 117.583336 233.07812Q116.63021 233.875 116.34896 234.17188Q116.083336 234.45312 115.91146 234.73438L120.13021 234.73438ZM121.583336 231.51562Q121.583336 229.98438 121.895836 229.0625Q122.208336 228.125 122.81771 227.625Q123.44271 227.125 124.38021 227.125Q125.06771 227.125 125.583336 227.40625Q126.114586 227.6875 126.458336 228.21875Q126.802086 228.73438 126.989586 229.48438Q127.177086 230.23438 127.177086 231.51562Q127.177086 233.03125 126.864586 233.95312Q126.56771 234.875 125.94271 235.39062Q125.333336 235.89062 124.38021 235.89062Q123.145836 235.89062 122.427086 235.0Q121.583336 233.9375 121.583336 231.51562ZM122.66146 231.51562Q122.66146 233.625 123.16146 234.32812Q123.66146 235.03125 124.38021 235.03125Q125.114586 235.03125 125.59896 234.32812Q126.09896 233.625 126.09896 231.51562Q126.09896 229.39062 125.59896 228.70312Q125.114586 228.0 124.364586 228.0Q123.645836 228.0 123.208336 228.60938Q122.66146 229.39062 122.66146 231.51562Z" fill-rule="nonzero"/><path fill="#000000" d="M199.625 235.75L199.625 233.6875L195.90625 233.6875L195.90625 232.71875L199.82812 227.15625L200.6875 227.15625L200.6875 232.71875L201.84375 232.71875L201.84375 233.6875L200.6875 233.6875L200.6875 235.75L199.625 235.75ZM199.625 232.71875L199.625 228.85938L196.9375 232.71875L199.625 232.71875ZM203.25 231.51562Q203.25 229.98438 203.5625 229.0625Q203.875 228.125 204.48438 227.625Q205.10938 227.125 206.04688 227.125Q206.73438 227.125 207.25 227.40625Q207.78125 227.6875 208.125 228.21875Q208.46875 228.73438 208.65625 229.48438Q208.84375 230.23438 208.84375 231.51562Q208.84375 233.03125 208.53125 233.95312Q208.23438 234.875 207.60938 235.39062Q207.0 235.89062 206.04688 235.89062Q204.8125 235.89062 204.09375 235.0Q203.25 233.9375 203.25 231.51562ZM204.32812 231.51562Q204.32812 233.625 204.82812 234.32812Q205.32812 235.03125 206.04688 235.03125Q206.78125 235.03125 207.26562 234.32812Q207.76562 233.625 207.76562 231.51562Q207.76562 229.39062 207.26562 228.70312Q206.78125 228.0 206.03125 228.0Q205.3125 228.0 204.875 228.60938Q204.32812 229.39062 204.32812 231.51562Z" fill-rule="nonzero"/><path fill="#000000" d="M283.3854 229.26562L282.33853 229.34375Q282.1979 228.71875 281.9479 228.4375Q281.5104 227.98438 280.8854 227.98438Q280.3854 227.98438 279.99478 228.26562Q279.5104 228.64062 279.21353 229.34375Q278.93228 230.03125 278.91666 231.3125Q279.29166 230.73438 279.83853 230.45312Q280.40103 230.17188 281.0104 230.17188Q282.05728 230.17188 282.79166 230.95312Q283.54166 231.73438 283.54166 232.95312Q283.54166 233.76562 283.18228 234.46875Q282.83853 235.15625 282.22916 235.53125Q281.61978 235.89062 280.85416 235.89062Q279.52603 235.89062 278.6979 234.92188Q277.86978 233.95312 277.86978 231.73438Q277.86978 229.23438 278.79166 228.10938Q279.58853 227.125 280.9479 227.125Q281.96353 227.125 282.60416 227.70312Q283.2604 228.26562 283.3854 229.26562ZM279.08853 232.96875Q279.08853 233.51562 279.30728 234.01562Q279.54166 234.5 279.9479 234.76562Q280.36978 235.03125 280.83853 235.03125Q281.49478 235.03125 281.97916 234.5Q282.46353 233.95312 282.46353 233.03125Q282.46353 232.14062 281.97916 231.625Q281.5104 231.10938 280.79166 231.10938Q280.0729 231.10938 279.5729 231.625Q279.08853 232.14062 279.08853 232.96875ZM284.91666 231.51562Q284.91666 229.98438 285.22916 229.0625Q285.54166 228.125 286.15103 227.625Q286.77603 227.125 287.71353 227.125Q288.40103 227.125 288.91666 227.40625Q289.4479 227.6875 289.79166 228.21875Q290.1354 228.73438 290.3229 229.48438Q290.5104 230.23438 290.5104 231.51562Q290.5104 233.03125 290.1979 233.95312Q289.90103 234.875 289.27603 235.39062Q288.66666 235.89062 287.71353 235.89062Q286.47916 235.89062 285.7604 235.0Q284.91666 233.9375 284.91666 231.51562ZM285.99478 231.51562Q285.99478 233.625 286.49478 234.32812Q286.99478 235.03125 287.71353 235.03125Q288.4479 235.03125 288.93228 234.32812Q289.43228 233.625 289.43228 231.51562Q289.43228 229.39062 288.93228 228.70312Q288.4479 228.0 287.6979 228.0Q286.97916 228.0 286.54166 228.60938Q285.99478 229.39062 285.99478 231.51562Z" fill-rule="nonzero"/><path fill="#000000" d="M361.20834 231.09375Q360.5521 230.84375 360.22397 230.40625Q359.91147 229.95312 359.91147 229.34375Q359.91147 228.40625 360.58334 227.76562Q361.27084 227.125 362.38022 227.125Q363.50522 227.125 364.19272 227.78125Q364.88022 228.4375 364.88022 229.375Q364.88022 229.96875 364.56772 230.40625Q364.25522 230.84375 363.6146 231.09375Q364.41147 231.34375 364.81772 231.92188Q365.22397 232.5 365.22397 233.29688Q365.22397 234.39062 364.44272 235.14062Q363.6771 235.89062 362.39584 235.89062Q361.13022 235.89062 360.34897 235.14062Q359.56772 234.39062 359.56772 233.26562Q359.56772 232.42188 359.9896 231.85938Q360.4271 231.29688 361.20834 231.09375ZM360.9896 229.29688Q360.9896 229.90625 361.38022 230.29688Q361.78647 230.6875 362.41147 230.6875Q363.02084 230.6875 363.41147 230.3125Q363.8021 229.92188 363.8021 229.35938Q363.8021 228.78125 363.39584 228.39062Q362.9896 227.98438 362.39584 227.98438Q361.78647 227.98438 361.38022 228.375Q360.9896 228.76562 360.9896 229.29688ZM360.66147 233.26562Q360.66147 233.71875 360.8646 234.14062Q361.08334 234.5625 361.50522 234.79688Q361.9271 235.03125 362.41147 235.03125Q363.16147 235.03125 363.64584 234.54688Q364.14584 234.0625 364.14584 233.3125Q364.14584 232.54688 363.64584 232.04688Q363.14584 231.54688 362.38022 231.54688Q361.63022 231.54688 361.14584 232.04688Q360.66147 232.53125 360.66147 233.26562ZM366.58334 231.51562Q366.58334 229.98438 366.89584 229.0625Q367.20834 228.125 367.81772 227.625Q368.44272 227.125 369.38022 227.125Q370.06772 227.125 370.58334 227.40625Q371.1146 227.6875 371.45834 228.21875Q371.8021 228.73438 371.9896 229.48438Q372.1771 230.23438 372.1771 231.51562Q372.1771 233.03125 371.8646 233.95312Q371.56772 234.875 370.94272 235.39062Q370.33334 235.89062 369.38022 235.89062Q368.14584 235.89062 367.4271 235.0Q366.58334 233.9375 366.58334 231.51562ZM367.66147 231.51562Q367.66147 233.625 368.16147 234.32812Q368.66147 235.03125 369.38022 235.03125Q370.1146 235.03125 370.59897 234.32812Q371.09897 233.625 371.09897 231.51562Q371.09897 229.39062 370.59897 228.70312Q370.1146 228.0 369.3646 228.0Q368.64584 228.0 368.20834 228.60938Q367.66147 229.39062 367.66147 231.51562Z" fill-rule="nonzero"/><path fill="#000000" d="M441.71875 235.75L440.67188 235.75L440.67188 229.03125Q440.28125 229.39062 439.65625 229.76562Q439.04688 230.125 438.5625 230.29688L438.5625 229.28125Q439.4375 228.85938 440.09375 228.28125Q440.76562 227.6875 441.04688 227.125L441.71875 227.125L441.71875 235.75ZM444.75 231.51562Q444.75 229.98438 445.0625 229.0625Q445.375 228.125 445.98438 227.625Q446.60938 227.125 447.54688 227.125Q448.23438 227.125 448.75 227.40625Q449.28125 227.6875 449.625 228.21875Q449.96875 228.73438 450.15625 229.48438Q450.34375 230.23438 450.34375 231.51562Q450.34375 233.03125 450.03125 233.95312Q449.73438 234.875 449.10938 235.39062Q448.5 235.89062 447.54688 235.89062Q446.3125 235.89062 445.59375 235.0Q444.75 233.9375 444.75 231.51562ZM445.82812 231.51562Q445.82812 233.625 446.32812 234.32812Q446.82812 235.03125 447.54688 235.03125Q448.28125 235.03125 448.76562 234.32812Q449.26562 233.625 449.26562 231.51562Q449.26562 229.39062 448.76562 228.70312Q448.28125 228.0 447.53125 228.0Q446.8125 228.0 446.375 228.60938Q445.82812 229.39062 445.82812 231.51562ZM451.75 231.51562Q451.75 229.98438 452.0625 229.0625Q452.375 228.125 452.98438 227.625Q453.60938 227.125 454.54688 227.125Q455.23438 227.125 455.75 227.40625Q456.28125 227.6875 456.625 228.21875Q456.96875 228.73438 457.15625 229.48438Q457.34375 230.23438 457.34375 231.51562Q457.34375 233.03125 457.03125 233.95312Q456.73438 234.875 456.10938 235.39062Q455.5 235.89062 454.54688 235.89062Q453.3125 235.89062 452.59375 235.0Q451.75 233.9375 451.75 231.51562ZM452.82812 231.51562Q452.82812 233.625 453.32812 234.32812Q453.82812 235.03125 454.54688 235.03125Q455.28125 235.03125 455.76562 234.32812Q456.26562 233.625 456.26562 231.51562Q456.26562 229.39062 455.76562 228.70312Q455.28125 228.0 454.53125 228.0Q453.8125 228.0 453.375 228.60938Q452.82812 229.39062 452.82812 231.51562Z" fill-rule="nonzero"/><path stroke="#4285f4" stroke-width="4.0" stroke-linecap="butt" d="M140.5 21.25L152.5 21.25" fill-rule="nonzero"/><path fill="#1a1a1a" d="M161.42188 25.25L161.42188 16.65625L164.67188 16.65625Q165.51562 16.65625 165.96875 16.734375Q166.60938 16.84375 167.03125 17.140625Q167.46875 17.4375 167.71875 17.96875Q167.98438 18.5 167.98438 19.140625Q167.98438 20.234375 167.28125 21.0Q166.59375 21.75 164.76562 21.75L162.5625 21.75L162.5625 25.25L161.42188 25.25ZM162.5625 20.75L164.78125 20.75Q165.89062 20.75 166.34375 20.34375Q166.8125 19.921875 166.8125 19.171875Q166.8125 18.640625 166.53125 18.265625Q166.26562 17.875 165.82812 17.75Q165.53125 17.671875 164.76562 17.671875L162.5625 17.671875L162.5625 20.75ZM173.375 25.25L173.375 24.328125Q172.64062 25.390625 171.39062 25.390625Q170.84375 25.390625 170.35938 25.1875Q169.89062 24.96875 169.65625 24.65625Q169.42188 24.328125 169.32812 23.859375Q169.26562 23.5625 169.26562 22.875L169.26562 19.03125L170.32812 19.03125L170.32812 22.484375Q170.32812 23.296875 170.39062 23.59375Q170.48438 24.0 170.79688 24.25Q171.125 24.484375 171.60938 24.484375Q172.07812 24.484375 172.48438 24.25Q172.90625 24.0 173.07812 23.578125Q173.26562 23.15625 173.26562 22.359375L173.26562 19.03125L174.3125 19.03125L174.3125 25.25L173.375 25.25ZM178.59375 24.3125L178.75 25.234375Q178.29688 25.328125 177.95312 25.328125Q177.375 25.328125 177.0625 25.15625Q176.75 24.96875 176.60938 24.671875Q176.48438 24.375 176.48438 23.421875L176.48438 19.84375L175.71875 19.84375L175.71875 19.03125L176.48438 19.03125L176.48438 17.484375L177.53125 16.859375L177.53125 19.03125L178.59375 19.03125L178.59375 19.84375L177.53125 19.84375L177.53125 23.484375Q177.53125 23.9375 177.57812 24.0625Q177.64062 24.1875 177.76562 24.265625Q177.89062 24.34375 178.125 24.34375Q178.3125 24.34375 178.59375 24.3125ZM184.3125 27.78125Q183.4375 26.671875 182.82812 25.203125Q182.23438 23.71875 182.23438 22.140625Q182.23438 20.75 182.67188 19.46875Q183.20312 17.984375 184.3125 16.515625L185.0625 16.515625Q184.35938 17.734375 184.125 18.25Q183.76562 19.0625 183.5625 19.9375Q183.3125 21.03125 183.3125 22.140625Q183.3125 24.96875 185.0625 27.78125L184.3125 27.78125ZM186.39062 25.25L186.39062 16.65625L188.10938 16.65625L190.14062 22.734375Q190.42188 23.59375 190.54688 24.015625Q190.6875 23.546875 191.0 22.640625L193.0625 16.65625L194.59375 16.65625L194.59375 25.25L193.5 25.25L193.5 18.0625L191.0 25.25L189.96875 25.25L187.48438 17.9375L187.48438 25.25L186.39062 25.25ZM195.375 25.25L195.375 16.65625L198.60938 16.65625Q199.59375 16.65625 200.1875 16.921875Q200.78125 17.1875 201.10938 17.734375Q201.45312 18.265625 201.45312 18.859375Q201.45312 19.40625 201.15625 19.890625Q200.85938 20.375 200.25 20.671875Q201.03125 20.90625 201.4375 21.46875Q201.85938 22.015625 201.85938 22.765625Q201.85938 23.359375 201.60938 23.890625Q201.35938 24.40625 200.98438 24.6875Q200.60938 24.96875 200.03125 25.109375Q199.46875 25.25 198.65625 25.25L195.375 25.25ZM196.51562 20.265625L198.375 20.265625Q199.125 20.265625 199.45312 20.171875Q199.89062 20.046875 200.10938 19.75Q200.32812 19.4375 200.32812 18.984375Q200.32812 18.5625 200.125 18.234375Q199.92188 17.90625 199.53125 17.796875Q199.15625 17.671875 198.23438 17.671875L196.51562 17.671875L196.51562 20.265625ZM196.51562 24.234375L198.65625 24.234375Q199.20312 24.234375 199.42188 24.1875Q199.82812 24.125 200.07812 23.96875Q200.34375 23.796875 200.51562 23.484375Q200.6875 23.171875 200.6875 22.765625Q200.6875 22.28125 200.4375 21.921875Q200.20312 21.5625 199.76562 21.421875Q199.32812 21.28125 198.5 21.28125L196.51562 21.28125L196.51562 24.234375ZM203.42188 25.25L203.42188 16.65625L206.67188 16.65625Q207.51562 16.65625 207.96875 16.734375Q208.60938 16.84375 209.03125 17.140625Q209.46875 17.4375 209.71875 17.96875Q209.98438 18.5 209.98438 19.140625Q209.98438 20.234375 209.28125 21.0Q208.59375 21.75 206.76562 21.75L204.5625 21.75L204.5625 25.25L203.42188 25.25ZM204.5625 20.75L206.78125 20.75Q207.89062 20.75 208.34375 20.34375Q208.8125 19.921875 208.8125 19.171875Q208.8125 18.640625 208.53125 18.265625Q208.26562 17.875 207.82812 17.75Q207.53125 17.671875 206.76562 17.671875L204.5625 17.671875L204.5625 20.75ZM211.04688 22.484375L212.10938 22.390625Q212.1875 23.046875 212.46875 23.453125Q212.75 23.859375 213.32812 24.125Q213.92188 24.375 214.65625 24.375Q215.29688 24.375 215.79688 24.1875Q216.29688 23.984375 216.53125 23.65625Q216.78125 23.3125 216.78125 22.921875Q216.78125 22.515625 216.54688 22.21875Q216.3125 21.90625 215.78125 21.703125Q215.42188 21.5625 214.23438 21.28125Q213.0625 21.0 212.59375 20.75Q211.96875 20.421875 211.67188 19.953125Q211.375 19.46875 211.375 18.875Q211.375 18.234375 211.73438 17.671875Q212.10938 17.09375 212.8125 16.8125Q213.53125 16.515625 214.39062 16.515625Q215.34375 16.515625 216.07812 16.828125Q216.8125 17.125 217.20312 17.734375Q217.59375 18.328125 217.625 19.078125L216.53125 19.15625Q216.4375 18.34375 215.92188 17.9375Q215.42188 17.515625 214.4375 17.515625Q213.40625 17.515625 212.9375 17.890625Q212.46875 18.265625 212.46875 18.796875Q212.46875 19.265625 212.79688 19.5625Q213.125 19.859375 214.5 20.171875Q215.89062 20.484375 216.40625 20.71875Q217.15625 21.078125 217.51562 21.609375Q217.875 22.125 217.875 22.828125Q217.875 23.515625 217.48438 24.125Q217.09375 24.71875 216.35938 25.0625Q215.625 25.390625 214.70312 25.390625Q213.53125 25.390625 212.73438 25.0625Q211.95312 24.71875 211.5 24.03125Q211.0625 23.34375 211.04688 22.484375ZM219.98438 27.78125L219.23438 27.78125Q220.98438 24.96875 220.98438 22.140625Q220.98438 21.046875 220.73438 19.953125Q220.53125 19.078125 220.17188 18.265625Q219.9375 17.75 219.23438 16.515625L219.98438 16.515625Q221.07812 17.984375 221.60938 19.46875Q222.0625 20.75 222.0625 22.140625Q222.0625 23.71875 221.45312 25.203125Q220.84375 26.671875 219.98438 27.78125Z" fill-rule="nonzero"/><path stroke="#ea4335" stroke-width="4.0" stroke-linecap="butt" d="M238.5 21.25L250.5 21.25" fill-rule="nonzero"/><path fill="#1a1a1a" d="M263.45312 21.875L263.45312 20.875L267.07812 20.859375L267.07812 24.046875Q266.25 24.71875 265.35938 25.0625Q264.46875 25.390625 263.53125 25.390625Q262.26562 25.390625 261.21875 24.859375Q260.1875 24.3125 259.65625 23.296875Q259.14062 22.265625 259.14062 21.0Q259.14062 19.734375 259.65625 18.65625Q260.1875 17.5625 261.17188 17.046875Q262.15625 16.515625 263.4375 16.515625Q264.375 16.515625 265.125 16.8125Q265.875 17.109375 266.29688 17.65625Q266.73438 18.1875 266.95312 19.0625L265.9375 19.34375Q265.73438 18.6875 265.4375 18.3125Q265.15625 17.9375 264.625 17.71875Q264.09375 17.484375 263.45312 17.484375Q262.67188 17.484375 262.09375 17.71875Q261.53125 17.953125 261.17188 18.34375Q260.82812 18.734375 260.64062 19.203125Q260.3125 20.0 260.3125 20.921875Q260.3125 22.078125 260.70312 22.859375Q261.10938 23.625 261.85938 24.0Q262.60938 24.375 263.46875 24.375Q264.20312 24.375 264.90625 24.09375Q265.60938 23.796875 265.96875 23.484375L265.96875 21.875L263.45312 21.875ZM272.54688 23.25L273.64062 23.375Q273.39062 24.328125 272.6875 24.859375Q271.98438 25.390625 270.90625 25.390625Q269.54688 25.390625 268.73438 24.546875Q267.9375 23.703125 267.9375 22.1875Q267.9375 20.625 268.75 19.765625Q269.5625 18.890625 270.84375 18.890625Q272.09375 18.890625 272.875 19.734375Q273.67188 20.578125 273.67188 22.125Q273.67188 22.21875 273.67188 22.40625L269.03125 22.40625Q269.09375 23.4375 269.60938 23.984375Q270.125 24.515625 270.90625 24.515625Q271.48438 24.515625 271.89062 24.21875Q272.3125 23.90625 272.54688 23.25ZM269.09375 21.546875L272.5625 21.546875Q272.5 20.75 272.17188 20.359375Q271.65625 19.75 270.85938 19.75Q270.125 19.75 269.625 20.234375Q269.14062 20.71875 269.09375 21.546875ZM277.59375 24.3125L277.75 25.234375Q277.29688 25.328125 276.95312 25.328125Q276.375 25.328125 276.0625 25.15625Q275.75 24.96875 275.60938 24.671875Q275.48438 24.375 275.48438 23.421875L275.48438 19.84375L274.71875 19.84375L274.71875 19.03125L275.48438 19.03125L275.48438 17.484375L276.53125 16.859375L276.53125 19.03125L277.59375 19.03125L277.59375 19.84375L276.53125 19.84375L276.53125 23.484375Q276.53125 23.9375 276.57812 24.0625Q276.64062 24.1875 276.76562 24.265625Q276.89062 24.34375 277.125 24.34375Q277.3125 24.34375 277.59375 24.3125ZM283.3125 27.78125Q282.4375 26.671875 281.82812 25.203125Q281.23438 23.71875 281.23438 22.140625Q281.23438 20.75 281.67188 19.46875Q282.20312 17.984375 283.3125 16.515625L284.0625 16.515625Q283.35938 17.734375 283.125 18.25Q282.76562 19.0625 282.5625 19.9375Q282.3125 21.03125 282.3125 22.140625Q282.3125 24.96875 284.0625 27.78125L283.3125 27.78125ZM285.39062 25.25L285.39062 16.65625L287.10938 16.65625L289.14062 22.734375Q289.42188 23.59375 289.54688 24.015625Q289.6875 23.546875 290.0 22.640625L292.0625 16.65625L293.59375 16.65625L293.59375 25.25L292.5 25.25L292.5 18.0625L290.0 25.25L288.96875 25.25L286.48438 17.9375L286.48438 25.25L285.39062 25.25ZM294.375 25.25L294.375 16.65625L297.60938 16.65625Q298.59375 16.65625 299.1875 16.921875Q299.78125 17.1875 300.10938 17.734375Q300.45312 18.265625 300.45312 18.859375Q300.45312 19.40625 300.15625 19.890625Q299.85938 20.375 299.25 20.671875Q300.03125 20.90625 300.4375 21.46875Q300.85938 22.015625 300.85938 22.765625Q300.85938 23.359375 300.60938 23.890625Q300.35938 24.40625 299.98438 24.6875Q299.60938 24.96875 299.03125 25.109375Q298.46875 25.25 297.65625 25.25L294.375 25.25ZM295.51562 20.265625L297.375 20.265625Q298.125 20.265625 298.45312 20.171875Q298.89062 20.046875 299.10938 19.75Q299.32812 19.4375 299.32812 18.984375Q299.32812 18.5625 299.125 18.234375Q298.92188 17.90625 298.53125 17.796875Q298.15625 17.671875 297.23438 17.671875L295.51562 17.671875L295.51562 20.265625ZM295.51562 24.234375L297.65625 24.234375Q298.20312 24.234375 298.42188 24.1875Q298.82812 24.125 299.07812 23.96875Q299.34375 23.796875 299.51562 23.484375Q299.6875 23.171875 299.6875 22.765625Q299.6875 22.28125 299.4375 21.921875Q299.20312 21.5625 298.76562 21.421875Q298.32812 21.28125 297.5 21.28125L295.51562 21.28125L295.51562 24.234375ZM302.42188 25.25L302.42188 16.65625L305.67188 16.65625Q306.51562 16.65625 306.96875 16.734375Q307.60938 16.84375 308.03125 17.140625Q308.46875 17.4375 308.71875 17.96875Q308.98438 18.5 308.98438 19.140625Q308.98438 20.234375 308.28125 21.0Q307.59375 21.75 305.76562 21.75L303.5625 21.75L303.5625 25.25L302.42188 25.25ZM303.5625 20.75L305.78125 20.75Q306.89062 20.75 307.34375 20.34375Q307.8125 19.921875 307.8125 19.171875Q307.8125 18.640625 307.53125 18.265625Q307.26562 17.875 306.82812 17.75Q306.53125 17.671875 305.76562 17.671875L303.5625 17.671875L303.5625 20.75ZM310.04688 22.484375L311.10938 22.390625Q311.1875 23.046875 311.46875 23.453125Q311.75 23.859375 312.32812 24.125Q312.92188 24.375 313.65625 24.375Q314.29688 24.375 314.79688 24.1875Q315.29688 23.984375 315.53125 23.65625Q315.78125 23.3125 315.78125 22.921875Q315.78125 22.515625 315.54688 22.21875Q315.3125 21.90625 314.78125 21.703125Q314.42188 21.5625 313.23438 21.28125Q312.0625 21.0 311.59375 20.75Q310.96875 20.421875 310.67188 19.953125Q310.375 19.46875 310.375 18.875Q310.375 18.234375 310.73438 17.671875Q311.10938 17.09375 311.8125 16.8125Q312.53125 16.515625 313.39062 16.515625Q314.34375 16.515625 315.07812 16.828125Q315.8125 17.125 316.20312 17.734375Q316.59375 18.328125 316.625 19.078125L315.53125 19.15625Q315.4375 18.34375 314.92188 17.9375Q314.42188 17.515625 313.4375 17.515625Q312.40625 17.515625 311.9375 17.890625Q311.46875 18.265625 311.46875 18.796875Q311.46875 19.265625 311.79688 19.5625Q312.125 19.859375 313.5 20.171875Q314.89062 20.484375 315.40625 20.71875Q316.15625 21.078125 316.51562 21.609375Q316.875 22.125 316.875 22.828125Q316.875 23.515625 316.48438 24.125Q316.09375 24.71875 315.35938 25.0625Q314.625 25.390625 313.70312 25.390625Q312.53125 25.390625 311.73438 25.0625Q310.95312 24.71875 310.5 24.03125Q310.0625 23.34375 310.04688 22.484375ZM318.98438 27.78125L318.23438 27.78125Q319.98438 24.96875 319.98438 22.140625Q319.98438 21.046875 319.73438 19.953125Q319.53125 19.078125 319.17188 18.265625Q318.9375 17.75 318.23438 16.515625L318.98438 16.515625Q320.07812 17.984375 320.60938 19.46875Q321.0625 20.75 321.0625 22.140625Q321.0625 23.71875 320.45312 25.203125Q319.84375 26.671875 318.98438 27.78125Z" fill-rule="nonzero"/></svg>