<svg version="1.1" viewBox="0.0 0.0 600.0 371.0" fill="none" stroke="none" stroke-linecap="square" stroke-miterlimit="10" width="600" height="371" xmlns:xlink="http://www.w3.org/1999/xlink" xmlns="http://www.w3.org/2000/svg"><path fill="#ffffff" d="M0 0L600.0 0L600.0 371.0L0 371.0L0 0Z" fill-rule="nonzero"/><path stroke="#333333" stroke-width="1.0" stroke-linecap="butt" d="M77.5 300.5L581.5 300.5" fill-rule="nonzero"/><path stroke="#cccccc" stroke-width="1.0" stroke-linecap="butt" d="M77.5 217.5L581.5 217.5" fill-rule="nonzero"/><path stroke="#cccccc" stroke-width="1.0" stroke-linecap="butt" d="M77.5 134.5L581.5 134.5" fill-rule="nonzero"/><path stroke="#cccccc" stroke-width="1.0" stroke-linecap="butt" d="M77.5 51.5L581.5 51.5" fill-rule="nonzero"/><clipPath id="id_0"><path d="M77.55 51.916668L581.45 51.916668L581.45 300.45L77.55 300.45L77.55 51.916668Z" clip-rule="nonzero"/></clipPath><path stroke="#000000" stroke-width="2.0" stroke-linecap="butt" stroke-opacity="0.0" clip-path="url(#id_0)" d="M123.0 300.0L103.0 300.0L103.0 99.0C103.0 97.89543 103.89543 97.0 105.0 97.0L121.0 97.0C122.10457 97.0 123.0 97.89543 123.0 99.0Z" fill-rule="nonzero"/><path fill="#4285f4" clip-path="url(#id_0)" d="M123.0 300.0L103.0 300.0L103.0 99.0C103.0 97.89543 103.89543 97.0 105.0 97.0L121.0 97.0C122.10457 97.0 123.0 97.89543 123.0 99.0Z" fill-rule="nonzero"/><path stroke="#000000" stroke-width="2.0" stroke-linecap="butt" stroke-opacity="0.0" clip-path="url(#id_0)" d="M191.0 300.0L171.0 300.0L171.0 98.0C171.0 96.89543 171.89543 96.0 173.0 96.0L189.0 96.0C190.10457 96.0 191.0 96.89543 191.0 98.0Z" fill-rule="nonzero"/><path fill="#4285f4" clip-path="url(#id_0)" d="M191.0 300.0L171.0 300.0L171.0 98.0C171.0 96.89543 171.89543 96.0 173.0 96.0L189.0 96.0C190.10457 96.0 191.0 96.89543 191.0 98.0Z" fill-rule="nonzero"/><path stroke="#000000" stroke-width="2.0" stroke-linecap="butt" stroke-opacity="0.0" clip-path="url(#id_0)" d="M260.0 300.0L240.0 300.0L240.0 102.0C240.0 100.89543 240.89543 100.0 242.0 100.0L258.0 100.0C259.10458 100.0 260.0 100.89543 260.0 102.0Z" fill-rule="nonzero"/><path fill="#4285f4" clip-path="url(#id_0)" d="M260.0 300.0L240.0 300.0L240.0 102.0C240.0 100.89543 240.89543 100.0 242.0 100.0L258.0 100.0C259.10458 100.0 260.0 100.89543 260.0 102.0Z" fill-rule="nonzero"/><path stroke="#000000" stroke-width="2.0" stroke-linecap="butt" stroke-opacity="0.0" clip-path="url(#id_0)" d="M329.0 300.0L309.0 300.0L309.0 104.0C309.0 102.89543 309.89542 102.0 311.0 102.0L327.0 102.0C328.10458 102.0 329.0 102.89543 329.0 104.0Z" fill-rule="nonzero"/><path fill="#4285f4" clip-path="url(#id_0)" d="M329.0 300.0L309.0 300.0L309.0 104.0C309.0 102.89543 309.89542 102.0 311.0 102.0L327.0 102.0C328.10458 102.0 329.0 102.89543 329.0 104.0Z" fill-rule="nonzero"/><path stroke="#000000" stroke-width="2.0" stroke-linecap="butt" stroke-opacity="0.0" clip-path="url(#id_0)" d="M397.0 300.0L377.0 300.0L377.0 102.0C377.0 100.89543 377.89542 100.0 379.0 100.0L395.0 100.0C396.10458 100.0 397.0 100.89543 397.0 102.0Z" fill-rule="nonzero"/><path fill="#4285f4" clip-path="url(#id_0)" d="M397.0 300.0L377.0 300.0L377.0 102.0C377.0 100.89543 377.89542 100.0 379.0 100.0L395.0 100.0C396.10458 100.0 397.0 100.89543 397.0 102.0Z" fill-rule="nonzero"/><path stroke="#000000" stroke-width="2.0" stroke-linecap="butt" stroke-opacity="0.0" clip-path="url(#id_0)" d="M466.0 300.0L446.0 300.0L446.0 100.0C446.0 98.89543 446.89542 98.0 448.0 98.0L464.0 98.0C465.10458 98.0 466.0 98.89543 466.0 100.0Z" fill-rule="nonzero"/><path fill="#4285f4" clip-path="url(#id_0)" d="M466.0 300.0L446.0 300.0L446.0 100.0C446.0 98.89543 446.89542 98.0 448.0 98.0L464.0 98.0C465.10458 98.0 466.0 98.89543 466.0 100.0Z" fill-rule="nonzero"/><path stroke="#000000" stroke-width="2.0" stroke-linecap="butt" stroke-opacity="0.0" clip-path="url(#id_0)" d="M534.0 300.0L514.0 300.0L514.0 100.0C514.0 98.89543 514.89545 98.0 516.0 98.0L532.0 98.0C533.10455 98.0 534.0 98.89543 534.0 100.0Z" fill-rule="nonzero"/><path fill="#4285f4" clip-path="url(#id_0)" d="M534.0 300.0L514.0 300.0L514.0 100.0C514.0 98.89543 514.89545 98.0 516.0 98.0L532.0 98.0C533.10455 98.0 534.0 98.89543 534.0 100.0Z" fill-rule="nonzero"/><path stroke="#000000" stroke-width="2.0" stroke-linecap="butt" stroke-opacity="0.0" clip-path="url(#id_0)" d="M145.0 300.0L125.0 300.0L125.0 99.0C125.0 97.89543 125.89543 97.0 127.0 97.0L143.0 97.0C144.10457 97.0 145.0 97.89543 145.0 99.0Z" fill-rule="nonzero"/><path fill="#ea4335" clip-path="url(#id_0)" d="M145.0 300.0L125.0 300.0L125.0 99.0C125.0 97.89543 125.89543 97.0 127.0 97.0L143.0 97.0C144.10457 97.0 145.0 97.89543 145.0 99.0Z" fill-rule="nonzero"/><path stroke="#000000" stroke-width="2.0" stroke-linecap="butt" stroke-opacity="0.0" clip-path="url(#id_0)" d="M213.0 300.0L193.0 300.0L193.0 114.0C193.0 112.89543 193.89543 112.0 195.0 112.0L211.0 112.0C212.10457 112.0 213.0 112.89543 213.0 114.0Z" fill-rule="nonzero"/><path fill="#ea4335" clip-path="url(#id_0)" d="M213.0 300.0L193.0 300.0L193.0 114.0C193.0 112.89543 193.89543 112.0 195.0 112.0L211.0 112.0C212.10457 112.0 213.0 112.89543 213.0 114.0Z" fill-rule="nonzero"/><path stroke="#000000" stroke-width="2.0" stroke-linecap="butt" stroke-opacity="0.0" clip-path="url(#id_0)" d="M282.0 300.0L262.0 300.0L262.0 97.0C262.0 95.89543 262.89542 95.0 264.0 95.0L280.0 95.0C281.10458 95.0 282.0 95.89543 282.0 97.0Z" fill-rule="nonzero"/><path fill="#ea4335" clip-path="url(#id_0)" d="M282.0 300.0L262.0 300.0L262.0 97.0C262.0 95.89543 262.89542 95.0 264.0 95.0L280.0 95.0C281.10458 95.0 282.0 95.89543 282.0 97.0Z" fill-rule="nonzero"/><path stroke="#000000" stroke-width="2.0" stroke-linecap="butt" stroke-opacity="0.0" clip-path="url(#id_0)" d="M351.0 300.0L331.0 300.0L331.0 91.0C331.0 89.89543 331.89542 89.0 333.0 89.0L349.0 89.0C350.10458 89.0 351.0 89.89543 351.0 91.0Z" fill-rule="nonzero"/><path fill="#ea4335" clip-path="url(#id_0)" d="M351.0 300.0L331.0 300.0L331.0 91.0C331.0 89.89543 331.89542 89.0 333.0 89.0L349.0 89.0C350.10458 89.0 351.0 89.89543 351.0 91.0Z" fill-rule="nonzero"/><path stroke="#000000" stroke-width="2.0" stroke-linecap="butt" stroke-opacity="0.0" clip-path="url(#id_0)" d="M419.0 300.0L399.0 300.0L399.0 77.0C399.0 75.89543 399.89542 75.0 401.0 75.0L417.0 75.0C418.10458 75.0 419.0 75.89543 419.0 77.0Z" fill-rule="nonzero"/><path fill="#ea4335" clip-path="url(#id_0)" d="M419.0 300.0L399.0 300.0L399.0 77.0C399.0 75.89543 399.89542 75.0 401.0 75.0L417.0 75.0C418.10458 75.0 419.0 75.89543 419.0 77.0Z" fill-rule="nonzero"/><path stroke="#000000" stroke-width="2.0" stroke-linecap="butt" stroke-opacity="0.0" clip-path="url(#id_0)" d="M488.0 300.0L468.0 300.0L468.0 65.0C468.0 63.89543 468.89542 63.0 470.0 63.0L486.0 63.0C487.10458 63.0 488.0 63.89543 488.0 65.0Z" fill-rule="nonzero"/><path fill="#ea4335" clip-path="url(#id_0)" d="M488.0 300.0L468.0 300.0L468.0 65.0C468.0 63.89543 468.89542 63.0 470.0 63.0L486.0 63.0C487.10458 63.0 488.0 63.89543 488.0 65.0Z" fill-rule="nonzero"/><path stroke="#000000" stroke-width="2.0" stroke-linecap="butt" stroke-opacity="0.0" clip-path="url(#id_0)" d="M556.0 300.0L536.0 300.0L536.0 65.0C536.0 63.89543 536.89545 63.0 538.0 63.0L554.0 63.0C555.10455 63.0 556.0 63.89543 556.0 65.0Z" fill-rule="nonzero"/><path fill="#ea4335" clip-path="url(#id_0)" d="M556.0 300.0L536.0 300.0L536.0 65.0C536.0 63.89543 536.89545 63.0 538.0 63.0L554.0 63.0C555.10455 63.0 556.0 63.89543 556.0 65.0Z" fill-rule="nonzero"/><path fill="#000000" d="M300.42188 349.45L300.42188 340.85626L303.67188 340.85626Q304.51562 340.85626 304.96875 340.9344Q305.60938 341.04376 306.03125 341.34064Q306.46875 341.6375 306.71875 342.16876Q306.98438 342.7 306.98438 343.34064Q306.98438 344.4344 306.28125 345.2Q305.59375 345.95 303.76562 345.95L301.5625 345.95L301.5625 349.45L300.42188 349.45ZM301.5625 344.95L303.78125 344.95Q304.89062 344.95 305.34375 344.54376Q305.8125 344.1219 305.8125 343.3719Q305.8125 342.84064 305.53125 342.46564Q305.26562 342.075 304.82812 341.95Q304.53125 341.8719 303.76562 341.8719L301.5625 341.8719L301.5625 344.95ZM308.28125 349.45L308.28125 343.23126L309.23438 343.23126L309.23438 344.16876Q309.59375 343.5125 309.89062 343.3094Q310.20312 343.09064 310.57812 343.09064Q311.10938 343.09064 311.65625 343.41876L311.29688 344.40314Q310.90625 344.16876 310.53125 344.16876Q310.17188 344.16876 309.89062 344.3875Q309.625 344.59064 309.51562 344.96564Q309.32812 345.52814 309.32812 346.1844L309.32812 349.45L308.28125 349.45ZM311.90625 346.34064Q311.90625 344.60626 312.85938 343.77814Q313.65625 343.09064 314.8125 343.09064Q316.09375 343.09064 316.90625 343.9344Q317.73438 344.7625 317.73438 346.2469Q317.73438 347.45 317.375 348.1375Q317.01562 348.825 316.3125 349.21564Q315.625 349.59064 314.8125 349.59064Q313.51562 349.59064 312.70312 348.7625Q311.90625 347.91876 311.90625 346.34064ZM312.98438 346.34064Q312.98438 347.52814 313.5 348.1219Q314.03125 348.71564 314.8125 348.71564Q315.60938 348.71564 316.125 348.1219Q316.64062 347.52814 316.64062 346.3094Q316.64062 345.15314 316.10938 344.5594Q315.59375 343.96564 314.8125 343.96564Q314.03125 343.96564 313.5 344.5594Q312.98438 345.1375 312.98438 346.34064ZM323.35938 347.16876L324.39062 347.3094Q324.21875 348.3719 323.51562 348.98126Q322.8125 349.59064 321.79688 349.59064Q320.51562 349.59064 319.73438 348.7625Q318.96875 347.91876 318.96875 346.35626Q318.96875 345.35626 319.29688 344.60626Q319.64062 343.84064 320.3125 343.46564Q321.0 343.09064 321.8125 343.09064Q322.8125 343.09064 323.45312 343.60626Q324.10938 344.10626 324.29688 345.0594L323.26562 345.21564Q323.125 344.59064 322.75 344.27814Q322.375 343.95 321.84375 343.95Q321.04688 343.95 320.54688 344.52814Q320.04688 345.09064 320.04688 346.325Q320.04688 347.59064 320.53125 348.15314Q321.01562 348.71564 321.78125 348.71564Q322.40625 348.71564 322.8125 348.34064Q323.23438 347.96564 323.35938 347.16876ZM329.54688 347.45L330.64062 347.575Q330.39062 348.52814 329.6875 349.0594Q328.98438 349.59064 327.90625 349.59064Q326.54688 349.59064 325.73438 348.7469Q324.9375 347.90314 324.9375 346.3875Q324.9375 344.825 325.75 343.96564Q326.5625 343.09064 327.84375 343.09064Q329.09375 343.09064 329.875 343.9344Q330.67188 344.77814 330.67188 346.325Q330.67188 346.41876 330.67188 346.60626L326.03125 346.60626Q326.09375 347.6375 326.60938 348.1844Q327.125 348.71564 327.90625 348.71564Q328.48438 348.71564 328.89062 348.41876Q329.3125 348.10626 329.54688 347.45ZM326.09375 345.7469L329.5625 345.7469Q329.5 344.95 329.17188 344.5594Q328.65625 343.95 327.85938 343.95Q327.125 343.95 326.625 344.4344Q326.14062 344.91876 326.09375 345.7469ZM331.875 347.59064L332.90625 347.4344Q333.0 348.0594 333.39062 348.3875Q333.79688 348.71564 334.53125 348.71564Q335.25 348.71564 335.59375 348.4344Q335.95312 348.1375 335.95312 347.73126Q335.95312 347.3719 335.64062 347.16876Q335.42188 347.02814 334.5625 346.8094Q333.40625 346.5125 332.95312 346.3094Q332.51562 346.09064 332.28125 345.71564Q332.04688 345.34064 332.04688 344.8719Q332.04688 344.46564 332.23438 344.10626Q332.42188 343.7469 332.75 343.5125Q333.0 343.34064 333.42188 343.21564Q333.84375 343.09064 334.34375 343.09064Q335.0625 343.09064 335.60938 343.3094Q336.17188 343.5125 336.4375 343.8719Q336.70312 344.23126 336.79688 344.825L335.76562 344.96564Q335.70312 344.4969 335.35938 344.23126Q335.03125 343.95 334.40625 343.95Q333.6875 343.95 333.375 344.2Q333.0625 344.4344 333.0625 344.7625Q333.0625 344.96564 333.1875 345.1219Q333.32812 345.29376 333.59375 345.40314Q333.75 345.46564 334.53125 345.66876Q335.65625 345.98126 336.09375 346.16876Q336.53125 346.35626 336.78125 346.71564Q337.03125 347.075 337.03125 347.6219Q337.03125 348.15314 336.71875 348.6219Q336.42188 349.075 335.84375 349.34064Q335.26562 349.59064 334.53125 349.59064Q333.3125 349.59064 332.67188 349.09064Q332.04688 348.575 331.875 347.59064ZM338.875 347.59064L339.90625 347.4344Q340.0 348.0594 340.39062 348.3875Q340.79688 348.71564 341.53125 348.71564Q342.25 348.71564 342.59375 348.4344Q342.95312 348.1375 342.95312 347.73126Q342.95312 347.3719 342.64062 347.16876Q342.42188 347.02814 341.5625 346.8094Q340.40625 346.5125 339.95312 346.3094Q339.51562 346.09064 339.28125 345.71564Q339.04688 345.34064 339.04688 344.8719Q339.04688 344.46564 339.23438 344.10626Q339.42188 343.7469 339.75 343.5125Q340.0 343.34064 340.42188 343.21564Q340.84375 343.09064 341.34375 343.09064Q342.0625 343.09064 342.60938 343.3094Q343.17188 343.5125 343.4375 343.8719Q343.70312 344.23126 343.79688 344.825L342.76562 344.96564Q342.70312 344.4969 342.35938 344.23126Q342.03125 343.95 341.40625 343.95Q340.6875 343.95 340.375 344.2Q340.0625 344.4344 340.0625 344.7625Q340.0625 344.96564 340.1875 345.1219Q340.32812 345.29376 340.59375 345.40314Q340.75 345.46564 341.53125 345.66876Q342.65625 345.98126 343.09375 346.16876Q343.53125 346.35626 343.78125 346.71564Q344.03125 347.075 344.03125 347.6219Q344.03125 348.15314 343.71875 348.6219Q343.42188 349.075 342.84375 349.34064Q342.26562 349.59064 341.53125 349.59064Q340.3125 349.59064 339.67188 349.09064Q339.04688 348.575 338.875 347.59064ZM350.54688 347.45L351.64062 347.575Q351.39062 348.52814 350.6875 349.0594Q349.98438 349.59064 348.90625 349.59064Q347.54688 349.59064 346.73438 348.7469Q345.9375 347.90314 345.9375 346.3875Q345.9375 344.825 346.75 343.96564Q347.5625 343.09064 348.84375 343.09064Q350.09375 343.09064 350.875 343.9344Q351.67188 344.77814 351.67188 346.325Q351.67188 346.41876 351.67188 346.60626L347.03125 346.60626Q347.09375 347.6375 347.60938 348.1844Q348.125 348.71564 348.90625 348.71564Q349.48438 348.71564 349.89062 348.41876Q350.3125 348.10626 350.54688 347.45ZM347.09375 345.7469L350.5625 345.7469Q350.5 344.95 350.17188 344.5594Q349.65625 343.95 348.85938 343.95Q348.125 343.95 347.625 344.4344Q347.14062 344.91876 347.09375 345.7469ZM352.875 347.59064L353.90625 347.4344Q354.0 348.0594 354.39062 348.3875Q354.79688 348.71564 355.53125 348.71564Q356.25 348.71564 356.59375 348.4344Q356.95312 348.1375 356.95312 347.73126Q356.95312 347.3719 356.64062 347.16876Q356.42188 347.02814 355.5625 346.8094Q354.40625 346.5125 353.95312 346.3094Q353.51562 346.09064 353.28125 345.71564Q353.04688 345.34064 353.04688 344.8719Q353.04688 344.46564 353.23438 344.10626Q353.42188 343.7469 353.75 343.5125Q354.0 343.34064 354.42188 343.21564Q354.84375 343.09064 355.34375 343.09064Q356.0625 343.09064 356.60938 343.3094Q357.17188 343.5125 357.4375 343.8719Q357.70312 344.23126 357.79688 344.825L356.76562 344.96564Q356.70312 344.4969 356.35938 344.23126Q356.03125 343.95 355.40625 343.95Q354.6875 343.95 354.375 344.2Q354.0625 344.4344 354.0625 344.7625Q354.0625 344.96564 354.1875 345.1219Q354.32812 345.29376 354.59375 345.40314Q354.75 345.46564 355.53125 345.66876Q356.65625 345.98126 357.09375 346.16876Q357.53125 346.35626 357.78125 346.71564Q358.03125 347.075 358.03125 347.6219Q358.03125 348.15314 357.71875 348.6219Q357.42188 349.075 356.84375 349.34064Q356.26562 349.59064 355.53125 349.59064Q354.3125 349.59064 353.67188 349.09064Q353.04688 348.575 352.875 347.59064Z" fill-rule="nonzero"/><path fill="#000000" d="M29.550013 231.80833L20.956263 231.80833L20.956263 228.57396Q20.956263 227.58958 21.221888 226.99583Q21.487513 226.40208 22.034388 226.07396Q22.565638 225.73021 23.159388 225.73021Q23.706263 225.73021 24.190638 226.02708Q24.675013 226.32396 24.971888 226.93333Q25.206263 226.15208 25.768763 225.74583Q26.315638 225.32396 27.065638 225.32396Q27.659388 225.32396 28.190638 225.57396Q28.706263 225.82396 28.987513 226.19896Q29.268763 226.57396 29.409388 227.15208Q29.550013 227.71458 29.550013 228.52708L29.550013 231.80833ZM24.565638 230.66771L24.565638 228.80833Q24.565638 228.05833 24.471888 227.73021Q24.346888 227.29271 24.050013 227.07396Q23.737513 226.85521 23.284388 226.85521Q22.862513 226.85521 22.534388 227.05833Q22.206263 227.26146 22.096888 227.65208Q21.971888 228.02708 21.971888 228.94896L21.971888 230.66771L24.565638 230.66771ZM28.534388 230.66771L28.534388 228.52708Q28.534388 227.98021 28.487513 227.76146Q28.425013 227.35521 28.268763 227.10521Q28.096888 226.83958 27.784388 226.66771Q27.471888 226.49583 27.065638 226.49583Q26.581263 226.49583 26.221888 226.74583Q25.862513 226.98021 25.721888 227.41771Q25.581263 227.85521 25.581263 228.68333L25.581263 230.66771L28.534388 230.66771ZM28.784388 219.82396Q29.284388 220.41771 29.487513 220.96458Q29.690638 221.49583 29.690638 222.12083Q29.690638 223.15208 29.190638 223.69896Q28.690638 224.24583 27.909388 224.24583Q27.456263 224.24583 27.081263 224.04271Q26.690638 223.83958 26.471888 223.49583Q26.237513 223.15208 26.128138 222.73021Q26.034388 222.43333 25.956263 221.79271Q25.815638 220.52708 25.596888 219.91771Q25.378138 219.91771 25.331263 219.91771Q24.675013 219.91771 24.409388 220.21458Q24.065638 220.62083 24.065638 221.41771Q24.065638 222.15208 24.331263 222.51146Q24.581263 222.87083 25.237513 223.04271L25.096888 224.07396Q24.440638 223.93333 24.034388 223.60521Q23.628138 223.27708 23.409388 222.66771Q23.190638 222.05833 23.190638 221.26146Q23.190638 220.46458 23.378138 219.96458Q23.565638 219.46458 23.846888 219.23021Q24.128138 218.99583 24.565638 218.90208Q24.831263 218.85521 25.534388 218.85521L26.940638 218.85521Q28.409388 218.85521 28.800013 218.79271Q29.190638 218.71458 29.550013 218.51146L29.550013 219.62083Q29.221888 219.77708 28.784388 219.82396ZM26.425013 219.91771Q26.659388 220.49583 26.831263 221.63646Q26.925013 222.29271 27.050013 222.55833Q27.159388 222.82396 27.378138 222.98021Q27.596888 223.12083 27.878138 223.12083Q28.300013 223.12083 28.581263 222.80833Q28.862513 222.48021 28.862513 221.87083Q28.862513 221.26146 28.596888 220.79271Q28.331263 220.30833 27.862513 220.08958Q27.503138 219.91771 26.815638 219.91771L26.425013 219.91771ZM29.550013 216.88646L23.331263 216.88646L23.331263 215.94896L24.206263 215.94896Q23.190638 215.26146 23.190638 213.96458Q23.190638 213.40208 23.393763 212.93333Q23.596888 212.44896 23.925013 212.21458Q24.253138 211.98021 24.690638 211.88646Q24.987513 211.83958 25.721888 211.83958L29.550013 211.83958L29.550013 212.88646L25.768763 212.88646Q25.112513 212.88646 24.800013 213.01146Q24.487513 213.13646 24.300013 213.44896Q24.096888 213.76146 24.096888 214.18333Q24.096888 214.85521 24.534388 215.35521Q24.956263 215.83958 26.143763 215.83958L29.550013 215.83958L29.550013 216.88646ZM29.550013 205.85521L28.768763 205.85521Q29.690638 206.44896 29.690638 207.58958Q29.690638 208.33958 29.284388 208.96458Q28.862513 209.58958 28.128138 209.93333Q27.393763 210.27708 26.440638 210.27708Q25.518763 210.27708 24.753138 209.96458Q23.987513 209.65208 23.596888 209.02708Q23.190638 208.40208 23.190638 207.63646Q23.190638 207.07396 23.425013 206.63646Q23.659388 206.19896 24.034388 205.91771L20.956263 205.91771L20.956263 204.87083L29.550013 204.87083L29.550013 205.85521ZM26.440638 209.18333Q27.643763 209.18333 28.237513 208.68333Q28.815638 208.18333 28.815638 207.49583Q28.815638 206.80833 28.253138 206.32396Q27.690638 205.83958 26.534388 205.83958Q25.253138 205.83958 24.659388 206.33958Q24.065638 206.82396 24.065638 207.54271Q24.065638 208.24583 24.643763 208.71458Q25.206263 209.18333 26.440638 209.18333ZM29.550013 201.74583L23.331263 203.65208L23.331263 202.55833L26.925013 201.57396L28.253138 201.19896Q28.159388 201.16771 26.971888 200.87083L23.331263 199.88646L23.331263 198.80833L26.940638 197.87083L28.128138 197.55833L26.925013 197.19896L23.331263 196.13646L23.331263 195.10521L29.550013 197.05833L29.550013 198.15208L25.815638 199.13646L24.768763 199.38646L29.550013 200.63646L29.550013 201.74583ZM22.175013 193.88646L20.956263 193.88646L20.956263 192.82396L22.175013 192.82396L22.175013 193.88646ZM29.550013 193.88646L23.331263 193.88646L23.331263 192.82396L29.550013 192.82396L29.550013 193.88646ZM29.550013 186.85521L28.768763 186.85521Q29.690638 187.44896 29.690638 188.58958Q29.690638 189.33958 29.284388 189.96458Q28.862513 190.58958 28.128138 190.93333Q27.393763 191.27708 26.440638 191.27708Q25.518763 191.27708 24.753138 190.96458Q23.987513 190.65208 23.596888 190.02708Q23.190638 189.40208 23.190638 188.63646Q23.190638 188.07396 23.425013 187.63646Q23.659388 187.19896 24.034388 186.91771L20.956263 186.91771L20.956263 185.87083L29.550013 185.87083L29.550013 186.85521ZM26.440638 190.18333Q27.643763 190.18333 28.237513 189.68333Q28.815638 189.18333 28.815638 188.49583Q28.815638 187.80833 28.253138 187.32396Q27.690638 186.83958 26.534388 186.83958Q25.253138 186.83958 24.659388 187.33958Q24.065638 187.82396 24.065638 188.54271Q24.065638 189.24583 24.643763 189.71458Q25.206263 190.18333 26.440638 190.18333ZM28.612513 181.58958L29.534388 181.43333Q29.628138 181.88646 29.628138 182.23021Q29.628138 182.80833 29.456263 183.12083Q29.268763 183.43333 28.971888 183.57396Q28.675013 183.69896 27.721888 183.69896L24.143763 183.69896L24.143763 184.46458L23.331263 184.46458L23.331263 183.69896L21.784388 183.69896L21.159388 182.65208L23.331263 182.65208L23.331263 181.58958L24.143763 181.58958L24.143763 182.65208L27.784388 182.65208Q28.237513 182.65208 28.362513 182.60521Q28.487513 182.54271 28.565638 182.41771Q28.643763 182.29271 28.643763 182.05833Q28.643763 181.87083 28.612513 181.58958ZM29.550013 180.88646L20.956263 180.88646L20.956263 179.83958L24.034388 179.83958Q23.190638 179.10521 23.190638 177.98021Q23.190638 177.27708 23.471888 176.77708Q23.737513 176.26146 24.221888 176.04271Q24.690638 175.82396 25.612513 175.82396L29.550013 175.82396L29.550013 176.87083L25.612513 176.87083Q24.815638 176.87083 24.456263 177.21458Q24.096888 177.55833 24.096888 178.18333Q24.096888 178.65208 24.346888 179.07396Q24.581263 179.48021 25.003138 179.66771Q25.409388 179.83958 26.143763 179.83958L29.550013 179.83958L29.550013 180.88646ZM32.08126 168.87083Q30.971888 169.74583 29.503138 170.35521Q28.018763 170.94896 26.440638 170.94896Q25.050013 170.94896 23.768763 170.51146Q22.284388 169.98021 20.815638 168.87083L20.815638 168.12083Q22.034388 168.82396 22.550013 169.05833Q23.362513 169.41771 24.237513 169.62083Q25.331263 169.87083 26.440638 169.87083Q29.268763 169.87083 32.08126 168.12083L32.08126 168.87083ZM29.550013 166.79271L20.956263 166.79271L20.956263 165.07396L27.034388 163.04271Q27.893763 162.76146 28.315638 162.63646Q27.846888 162.49583 26.940638 162.18333L20.956263 160.12083L20.956263 158.58958L29.550013 158.58958L29.550013 159.68333L22.362513 159.68333L29.550013 162.18333L29.550013 163.21458L22.237513 165.69896L29.550013 165.69896L29.550013 166.79271ZM29.550013 157.80833L20.956263 157.80833L20.956263 154.57396Q20.956263 153.58958 21.221888 152.99583Q21.487513 152.40208 22.034388 152.07396Q22.565638 151.73021 23.159388 151.73021Q23.706263 151.73021 24.190638 152.02708Q24.675013 152.32396 24.971888 152.93333Q25.206263 152.15208 25.768763 151.74583Q26.315638 151.32396 27.065638 151.32396Q27.659388 151.32396 28.190638 151.57396Q28.706263 151.82396 28.987513 152.19896Q29.268763 152.57396 29.409388 153.15208Q29.550013 153.71458 29.550013 154.52708L29.550013 157.80833ZM24.565638 156.66771L24.565638 154.80833Q24.565638 154.05833 24.471888 153.73021Q24.346888 153.29271 24.050013 153.07396Q23.737513 152.85521 23.284388 152.85521Q22.862513 152.85521 22.534388 153.05833Q22.206263 153.26146 22.096888 153.65208Q21.971888 154.02708 21.971888 154.94896L21.971888 156.66771L24.565638 156.66771ZM28.534388 156.66771L28.534388 154.52708Q28.534388 153.98021 28.487513 153.76146Q28.425013 153.35521 28.268763 153.10521Q28.096888 152.83958 27.784388 152.66771Q27.471888 152.49583 27.065638 152.49583Q26.581263 152.49583 26.221888 152.74583Q25.862513 152.98021 25.721888 153.41771Q25.581263 153.85521 25.581263 154.68333L25.581263 156.66771L28.534388 156.66771ZM31.940638 149.88646L23.331263 149.88646L23.331263 148.93333L24.128138 148.93333Q23.659388 148.58958 23.425013 148.16771Q23.190638 147.73021 23.190638 147.12083Q23.190638 146.32396 23.596888 145.71458Q24.003138 145.10521 24.753138 144.80833Q25.503138 144.49583 26.393763 144.49583Q27.346888 144.49583 28.112513 144.83958Q28.878138 145.16771 29.284388 145.82396Q29.690638 146.48021 29.690638 147.19896Q29.690638 147.73021 29.471888 148.15208Q29.237513 148.57396 28.909388 148.83958L31.940638 148.83958L31.940638 149.88646ZM26.471888 148.93333Q27.675013 148.93333 28.253138 148.44896Q28.815638 147.96458 28.815638 147.27708Q28.815638 146.57396 28.221888 146.07396Q27.628138 145.57396 26.378138 145.57396Q25.190638 145.57396 24.612513 146.05833Q24.018763 146.54271 24.018763 147.23021Q24.018763 147.90208 24.643763 148.41771Q25.268763 148.93333 26.471888 148.93333ZM27.690638 143.30833L27.534388 142.27708Q28.159388 142.18333 28.487513 141.79271Q28.815638 141.38646 28.815638 140.65208Q28.815638 139.93333 28.534388 139.58958Q28.237513 139.23021 27.831263 139.23021Q27.471888 139.23021 27.268763 139.54271Q27.128138 139.76146 26.909388 140.62083Q26.612513 141.77708 26.409388 142.23021Q26.190638 142.66771 25.815638 142.90208Q25.440638 143.13646 24.971888 143.13646Q24.565638 143.13646 24.206263 142.94896Q23.846888 142.76146 23.612513 142.43333Q23.440638 142.18333 23.315638 141.76146Q23.190638 141.33958 23.190638 140.83958Q23.190638 140.12083 23.409388 139.57396Q23.612513 139.01146 23.971888 138.74583Q24.331263 138.48021 24.925013 138.38646L25.065638 139.41771Q24.596888 139.48021 24.331263 139.82396Q24.050013 140.15208 24.050013 140.77708Q24.050013 141.49583 24.300013 141.80833Q24.534388 142.12083 24.862513 142.12083Q25.065638 142.12083 25.221888 141.99583Q25.393763 141.85521 25.503138 141.58958Q25.565638 141.43333 25.768763 140.65208Q26.081263 139.52708 26.268763 139.08958Q26.456263 138.65208 26.815638 138.40208Q27.175013 138.15208 27.721888 138.15208Q28.253138 138.15208 28.721888 138.46458Q29.175013 138.76146 29.440638 139.33958Q29.690638 139.91771 29.690638 140.65208Q29.690638 141.87083 29.190638 142.51146Q28.675013 143.13646 27.690638 143.30833ZM32.08126 135.19896L32.08126 135.94896Q29.268763 134.19896 26.440638 134.19896Q25.346888 134.19896 24.253138 134.44896Q23.378138 134.65208 22.565638 135.01146Q22.050013 135.24583 20.815638 135.94896L20.815638 135.19896Q22.284388 134.10521 23.768763 133.57396Q25.050013 133.12083 26.440638 133.12083Q28.018763 133.12083 29.503138 133.73021Q30.971888 134.33958 32.08126 135.19896Z" fill-rule="nonzero"/><path fill="#000000" d="M65.05 300.21564Q65.05 298.6844 65.3625 297.7625Q65.675 296.825 66.28438 296.325Q66.90938 295.825 67.84688 295.825Q68.53438 295.825 69.05 296.10626Q69.58125 296.3875 69.925 296.91876Q70.26875 297.4344 70.45625 298.1844Q70.64375 298.9344 70.64375 300.21564Q70.64375 301.73126 70.33125 302.65314Q70.03438 303.575 69.40938 304.09064Q68.8 304.59064 67.84688 304.59064Q66.6125 304.59064 65.89375 303.7Q65.05 302.6375 65.05 300.21564ZM66.12813 300.21564Q66.12813 302.325 66.62813 303.02814Q67.12813 303.73126 67.84688 303.73126Q68.58125 303.73126 69.06563 303.02814Q69.56563 302.325 69.56563 300.21564Q69.56563 298.09064 69.06563 297.40314Q68.58125 296.7 67.83125 296.7Q67.1125 296.7 66.675 297.3094Q66.12813 298.09064 66.12813 300.21564Z" fill-rule="nonzero"/><path fill="#000000" d="M56.596874 220.58994L56.596874 221.60556L50.909374 221.60556Q50.909374 221.23056 51.034374 220.87119Q51.253124 220.29306 51.721874 219.73056Q52.20625 219.16806 53.1125 218.43369Q54.51875 217.27744 55.003124 216.60556Q55.503124 215.93369 55.503124 215.33994Q55.503124 214.71494 55.05 214.29306Q54.596874 213.85556 53.878124 213.85556Q53.1125 213.85556 52.659374 214.30869Q52.20625 214.76181 52.190624 215.57431L51.1125 215.46494Q51.221874 214.24619 51.940624 213.62119Q52.675 212.98056 53.909374 212.98056Q55.14375 212.98056 55.8625 213.66806Q56.58125 214.35556 56.58125 215.37119Q56.58125 215.88681 56.3625 216.38681Q56.159374 216.87119 55.659374 217.43369Q55.175 217.98056 54.05 218.93369Q53.096874 219.73056 52.815624 220.02744Q52.55 220.30869 52.378124 220.58994L56.596874 220.58994ZM58.05 217.37119Q58.05 215.83994 58.3625 214.91806Q58.675 213.98056 59.284374 213.48056Q59.909374 212.98056 60.846874 212.98056Q61.534374 212.98056 62.05 213.26181Q62.58125 213.54306 62.925 214.07431Q63.26875 214.58994 63.45625 215.33994Q63.64375 216.08994 63.64375 217.37119Q63.64375 218.88681 63.33125 219.80869Q63.034374 220.73056 62.409374 221.24619Q61.8 221.74619 60.846874 221.74619Q59.6125 221.74619 58.89375 220.85556Q58.05 219.79306 58.05 217.37119ZM59.128124 217.37119Q59.128124 219.48056 59.628124 220.18369Q60.128124 220.88681 60.846874 220.88681Q61.58125 220.88681 62.065624 220.18369Q62.565624 219.48056 62.565624 217.37119Q62.565624 215.24619 62.065624 214.55869Q61.58125 213.85556 60.83125 213.85556Q60.1125 213.85556 59.675 214.46494Q59.128124 215.24619 59.128124 217.37119ZM65.05 217.37119Q65.05 215.83994 65.3625 214.91806Q65.675 213.98056 66.28438 213.48056Q66.90938 212.98056 67.84688 212.98056Q68.53438 212.98056 69.05 213.26181Q69.58125 213.54306 69.925 214.07431Q70.26875 214.58994 70.45625 215.33994Q70.64375 216.08994 70.64375 217.37119Q70.64375 218.88681 70.33125 219.80869Q70.03438 220.73056 69.40938 221.24619Q68.8 221.74619 67.84688 221.74619Q66.6125 221.74619 65.89375 220.85556Q65.05 219.79306 65.05 217.37119ZM66.12813 217.37119Q66.12813 219.48056 66.62813 220.18369Q67.12813 220.88681 67.84688 220.88681Q68.58125 220.88681 69.06563 220.18369Q69.56563 219.48056 69.56563 217.37119Q69.56563 215.24619 69.06563 214.55869Q68.58125 213.85556 67.83125 213.85556Q67.1125 213.85556 66.675 214.46494Q66.12813 215.24619 66.12813 217.37119Z" fill-rule="nonzero"/><path fill="#000000" d="M54.425 138.76111L54.425 136.69861L50.70625 136.69861L50.70625 135.72986L54.628124 130.16736L55.4875 130.16736L55.4875 135.72986L56.64375 135.72986L56.64375 136.69861L55.4875 136.69861L55.4875 138.76111L54.425 138.76111ZM54.425 135.72986L54.425 131.87048L51.7375 135.72986L54.425 135.72986ZM58.05 134.52673Q58.05 132.99548 58.3625 132.07361Q58.675 131.13611 59.284374 130.63611Q59.909374 130.13611 60.846874 130.13611Q61.534374 130.13611 62.05 130.41736Q62.58125 130.69861 62.925 131.22986Q63.26875 131.74548 63.45625 132.49548Q63.64375 133.24548 63.64375 134.52673Q63.64375 136.04236 63.33125 136.96423Q63.034374 137.88611 62.409374 138.40173Q61.8 138.90173 60.846874 138.90173Q59.6125 138.90173 58.89375 138.01111Q58.05 136.94861 58.05 134.52673ZM59.128124 134.52673Q59.128124 136.63611 59.628124 137.33923Q60.128124 138.04236 60.846874 138.04236Q61.58125 138.04236 62.065624 137.33923Q62.565624 136.63611 62.565624 134.52673Q62.565624 132.40173 62.065624 131.71423Q61.58125 131.01111 60.83125 131.01111Q60.1125 131.01111 59.675 131.62048Q59.128124 132.40173 59.128124 134.52673ZM65.05 134.52673Q65.05 132.99548 65.3625 132.07361Q65.675 131.13611 66.28438 130.63611Q66.90938 130.13611 67.84688 130.13611Q68.53438 130.13611 69.05 130.41736Q69.58125 130.69861 69.925 131.22986Q70.26875 131.74548 70.45625 132.49548Q70.64375 133.24548 70.64375 134.52673Q70.64375 136.04236 70.33125 136.96423Q70.03438 137.88611 69.40938 138.40173Q68.8 138.90173 67.84688 138.90173Q66.6125 138.90173 65.89375 138.01111Q65.05 136.94861 65.05 134.52673ZM66.12813 134.52673Q66.12813 136.63611 66.62813 137.33923Q67.12813 138.04236 67.84688 138.04236Q68.58125 138.04236 69.06563 137.33923Q69.56563 136.63611 69.56563 134.52673Q69.56563 132.40173 69.06563 131.71423Q68.58125 131.01111 67.83125 131.01111Q67.1125 131.01111 66.675 131.62048Q66.12813 132.40173 66.12813 134.52673Z" fill-rule="nonzero"/><path fill="#000000" d="M56.51875 49.432293L55.471874 49.510418Q55.33125 48.885418 55.08125 48.604168Q54.64375 48.151043 54.01875 48.151043Q53.51875 48.151043 53.128124 48.432293Q52.64375 48.807293 52.346874 49.510418Q52.065624 50.197918 52.05 51.479168Q52.425 50.901043 52.971874 50.619793Q53.534374 50.338543 54.14375 50.338543Q55.190624 50.338543 55.925 51.119793Q56.675 51.901043 56.675 53.119793Q56.675 53.932293 56.315624 54.635418Q55.971874 55.322918 55.3625 55.697918Q54.753124 56.057293 53.9875 56.057293Q52.659374 56.057293 51.83125 55.088543Q51.003124 54.119793 51.003124 51.901043Q51.003124 49.401043 51.925 48.276043Q52.721874 47.291668 54.08125 47.291668Q55.096874 47.291668 55.7375 47.869793Q56.39375 48.432293 56.51875 49.432293ZM52.221874 53.135418Q52.221874 53.682293 52.440624 54.182293Q52.675 54.666668 53.08125 54.932293Q53.503124 55.197918 53.971874 55.197918Q54.628124 55.197918 55.1125 54.666668Q55.596874 54.119793 55.596874 53.197918Q55.596874 52.307293 55.1125 51.791668Q54.64375 51.276043 53.925 51.276043Q53.20625 51.276043 52.70625 51.791668Q52.221874 52.307293 52.221874 53.135418ZM58.05 51.682293Q58.05 50.151043 58.3625 49.229168Q58.675 48.291668 59.284374 47.791668Q59.909374 47.291668 60.846874 47.291668Q61.534374 47.291668 62.05 47.572918Q62.58125 47.854168 62.925 48.385418Q63.26875 48.901043 63.45625 49.651043Q63.64375 50.401043 63.64375 51.682293Q63.64375 53.197918 63.33125 54.119793Q63.034374 55.041668 62.409374 55.557293Q61.8 56.057293 60.846874 56.057293Q59.6125 56.057293 58.89375 55.166668Q58.05 54.104168 58.05 51.682293ZM59.128124 51.682293Q59.128124 53.791668 59.628124 54.494793Q60.128124 55.197918 60.846874 55.197918Q61.58125 55.197918 62.065624 54.494793Q62.565624 53.791668 62.565624 51.682293Q62.565624 49.557293 62.065624 48.869793Q61.58125 48.166668 60.83125 48.166668Q60.1125 48.166668 59.675 48.776043Q59.128124 49.557293 59.128124 51.682293ZM65.05 51.682293Q65.05 50.151043 65.3625 49.229168Q65.675 48.291668 66.28438 47.791668Q66.90938 47.291668 67.84688 47.291668Q68.53438 47.291668 69.05 47.572918Q69.58125 47.854168 69.925 48.385418Q70.26875 48.901043 70.45625 49.651043Q70.64375 50.401043 70.64375 51.682293Q70.64375 53.197918 70.33125 54.119793Q70.03438 55.041668 69.40938 55.557293Q68.8 56.057293 67.84688 56.057293Q66.6125 56.057293 65.89375 55.166668Q65.05 54.104168 65.05 51.682293ZM66.12813 51.682293Q66.12813 53.791668 66.62813 54.494793Q67.12813 55.197918 67.84688 55.197918Q68.58125 55.197918 69.06563 54.494793Q69.56563 53.791668 69.56563 51.682293Q69.56563 49.557293 69.06563 48.869793Q68.58125 48.166668 67.83125 48.166668Q67.1125 48.166668 66.675 48.776043Q66.12813 49.557293 66.12813 51.682293Z" fill-rule="nonzero"/><path fill="#000000" d="M124.79528 317.45L123.748405 317.45L123.748405 310.73126Q123.35778 311.09064 122.73278 311.46564Q122.123405 311.825 121.63903 311.9969L121.63903 310.98126Q122.51403 310.5594 123.17028 309.98126Q123.842155 309.3875 124.123405 308.825L124.79528 308.825L124.79528 317.45Z" fill-rule="nonzero"/><path fill="#000000" d="M194.93123 316.4344L194.93123 317.45L189.24373 317.45Q189.24373 317.075 189.36873 316.71564Q189.58748 316.1375 190.05623 315.575Q190.5406 315.0125 191.44685 314.27814Q192.8531 313.1219 193.33748 312.45Q193.83748 311.77814 193.83748 311.1844Q193.83748 310.5594 193.38435 310.1375Q192.93123 309.7 192.21248 309.7Q191.44685 309.7 190.99373 310.15314Q190.5406 310.60626 190.52498 311.41876L189.44685 311.3094Q189.55623 310.09064 190.27498 309.46564Q191.00935 308.825 192.24373 308.825Q193.4781 308.825 194.19685 309.5125Q194.9156 310.2 194.9156 311.21564Q194.9156 311.73126 194.69685 312.23126Q194.49373 312.71564 193.99373 313.27814Q193.50935 313.825 192.38435 314.77814Q191.43123 315.575 191.14998 315.8719Q190.88435 316.15314 190.71248 316.4344L194.93123 316.4344Z" fill-rule="nonzero"/><path fill="#000000" d="M261.31717 317.45L261.31717 315.3875L257.59842 315.3875L257.59842 314.41876L261.5203 308.85626L262.37967 308.85626L262.37967 314.41876L263.53592 314.41876L263.53592 315.3875L262.37967 315.3875L262.37967 317.45L261.31717 317.45ZM261.31717 314.41876L261.31717 310.5594L258.62967 314.41876L261.31717 314.41876Z" fill-rule="nonzero"/><path fill="#000000" d="M328.125 312.79376Q327.46875 312.54376 327.14062 312.10626Q326.82812 311.65314 326.82812 311.04376Q326.82812 310.10626 327.5 309.46564Q328.1875 308.825 329.29688 308.825Q330.42188 308.825 331.10938 309.48126Q331.79688 310.1375 331.79688 311.075Q331.79688 311.66876 331.48438 312.10626Q331.17188 312.54376 330.53125 312.79376Q331.32812 313.04376 331.73438 313.6219Q332.14062 314.2 332.14062 314.9969Q332.14062 316.09064 331.35938 316.84064Q330.59375 317.59064 329.3125 317.59064Q328.04688 317.59064 327.26562 316.84064Q326.48438 316.09064 326.48438 314.96564Q326.48438 314.1219 326.90625 313.5594Q327.34375 312.9969 328.125 312.79376ZM327.90625 310.9969Q327.90625 311.60626 328.29688 311.9969Q328.70312 312.3875 329.32812 312.3875Q329.9375 312.3875 330.32812 312.0125Q330.71875 311.6219 330.71875 311.0594Q330.71875 310.48126 330.3125 310.09064Q329.90625 309.6844 329.3125 309.6844Q328.70312 309.6844 328.29688 310.075Q327.90625 310.46564 327.90625 310.9969ZM327.57812 314.96564Q327.57812 315.41876 327.78125 315.84064Q328.0 316.2625 328.42188 316.4969Q328.84375 316.73126 329.32812 316.73126Q330.07812 316.73126 330.5625 316.2469Q331.0625 315.7625 331.0625 315.0125Q331.0625 314.2469 330.5625 313.7469Q330.0625 313.2469 329.29688 313.2469Q328.54688 313.2469 328.0625 313.7469Q327.57812 314.23126 327.57812 314.96564Z" fill-rule="nonzero"/><path fill="#000000" d="M395.52658 317.45L394.4797 317.45L394.4797 310.73126Q394.08908 311.09064 393.46408 311.46564Q392.8547 311.825 392.37033 311.9969L392.37033 310.98126Q393.24533 310.5594 393.90158 309.98126Q394.57346 309.3875 394.8547 308.825L395.52658 308.825L395.52658 317.45ZM404.02658 310.96564L402.9797 311.04376Q402.83908 310.41876 402.58908 310.1375Q402.15158 309.6844 401.52658 309.6844Q401.02658 309.6844 400.63596 309.96564Q400.15158 310.34064 399.8547 311.04376Q399.57346 311.73126 399.55783 313.0125Q399.93283 312.4344 400.4797 312.15314Q401.0422 311.8719 401.65158 311.8719Q402.69846 311.8719 403.43283 312.65314Q404.18283 313.4344 404.18283 314.65314Q404.18283 315.46564 403.82346 316.16876Q403.4797 316.85626 402.87033 317.23126Q402.26096 317.59064 401.49533 317.59064Q400.1672 317.59064 399.33908 316.6219Q398.51096 315.65314 398.51096 313.4344Q398.51096 310.9344 399.43283 309.8094Q400.2297 308.825 401.58908 308.825Q402.6047 308.825 403.24533 309.40314Q403.90158 309.96564 404.02658 310.96564ZM399.7297 314.66876Q399.7297 315.21564 399.94846 315.71564Q400.18283 316.2 400.58908 316.46564Q401.01096 316.73126 401.4797 316.73126Q402.13596 316.73126 402.62033 316.2Q403.1047 315.65314 403.1047 314.73126Q403.1047 313.84064 402.62033 313.325Q402.15158 312.8094 401.43283 312.8094Q400.71408 312.8094 400.21408 313.325Q399.7297 313.84064 399.7297 314.66876Z" fill-rule="nonzero"/><path fill="#000000" d="M460.11563 315.1844L461.17813 315.04376Q461.35 315.9344 461.7875 316.34064Q462.225 316.73126 462.85 316.73126Q463.6 316.73126 464.11563 316.21564Q464.63126 315.7 464.63126 314.9344Q464.63126 314.21564 464.14688 313.7469Q463.67813 313.2625 462.94376 313.2625Q462.64688 313.2625 462.19376 313.3875L462.31876 312.45Q462.42813 312.46564 462.49063 312.46564Q463.1625 312.46564 463.69376 312.1219Q464.24063 311.7625 464.24063 311.02814Q464.24063 310.45 463.85 310.075Q463.45938 309.6844 462.83438 309.6844Q462.225 309.6844 461.80313 310.075Q461.39688 310.46564 461.2875 311.23126L460.225 311.04376Q460.4125 309.9969 461.1 309.41876Q461.7875 308.825 462.80313 308.825Q463.50626 308.825 464.1 309.1375Q464.69376 309.4344 465.00626 309.95Q465.31876 310.46564 465.31876 311.0594Q465.31876 311.60626 465.02188 312.075Q464.725 312.52814 464.14688 312.79376Q464.89688 312.96564 465.31876 313.52814Q465.74063 314.075 465.74063 314.91876Q465.74063 316.04376 464.9125 316.825Q464.1 317.60626 462.85 317.60626Q461.725 317.60626 460.975 316.9344Q460.225 316.2469 460.11563 315.1844ZM472.6625 316.4344L472.6625 317.45L466.975 317.45Q466.975 317.075 467.1 316.71564Q467.31876 316.1375 467.7875 315.575Q468.27188 315.0125 469.17813 314.27814Q470.58438 313.1219 471.06876 312.45Q471.56876 311.77814 471.56876 311.1844Q471.56876 310.5594 471.11563 310.1375Q470.6625 309.7 469.94376 309.7Q469.17813 309.7 468.725 310.15314Q468.27188 310.60626 468.25626 311.41876L467.17813 311.3094Q467.2875 310.09064 468.00626 309.46564Q468.74063 308.825 469.975 308.825Q471.20938 308.825 471.92813 309.5125Q472.64688 310.2 472.64688 311.21564Q472.64688 311.73126 472.42813 312.23126Q472.225 312.71564 471.725 313.27814Q471.24063 313.825 470.11563 314.77814Q469.1625 315.575 468.88126 315.8719Q468.61563 316.15314 468.44376 316.4344L472.6625 316.4344Z" fill-rule="nonzero"/><path fill="#000000" d="M532.04846 317.45L532.04846 315.3875L528.3297 315.3875L528.3297 314.41876L532.2516 308.85626L533.11096 308.85626L533.11096 314.41876L534.2672 314.41876L534.2672 315.3875L533.11096 315.3875L533.11096 317.45L532.04846 317.45ZM532.04846 314.41876L532.04846 310.5594L529.36096 314.41876L532.04846 314.41876ZM537.29846 312.79376Q536.6422 312.54376 536.3141 312.10626Q536.0016 311.65314 536.0016 311.04376Q536.0016 310.10626 536.67346 309.46564Q537.36096 308.825 538.47034 308.825Q539.59534 308.825 540.28284 309.48126Q540.97034 310.1375 540.97034 311.075Q540.97034 311.66876 540.65784 312.10626Q540.34534 312.54376 539.7047 312.79376Q540.5016 313.04376 540.90784 313.6219Q541.3141 314.2 541.3141 314.9969Q541.3141 316.09064 540.53284 316.84064Q539.7672 317.59064 538.48596 317.59064Q537.22034 317.59064 536.4391 316.84064Q535.65784 316.09064 535.65784 314.96564Q535.65784 314.1219 536.0797 313.5594Q536.5172 312.9969 537.29846 312.79376ZM537.0797 310.9969Q537.0797 311.60626 537.47034 311.9969Q537.8766 312.3875 538.5016 312.3875Q539.11096 312.3875 539.5016 312.0125Q539.8922 311.6219 539.8922 311.0594Q539.8922 310.48126 539.48596 310.09064Q539.0797 309.6844 538.48596 309.6844Q537.8766 309.6844 537.47034 310.075Q537.0797 310.46564 537.0797 310.9969ZM536.7516 314.96564Q536.7516 315.41876 536.9547 315.84064Q537.17346 316.2625 537.59534 316.4969Q538.0172 316.73126 538.5016 316.73126Q539.2516 316.73126 539.73596 316.2469Q540.23596 315.7625 540.23596 315.0125Q540.23596 314.2469 539.73596 313.7469Q539.23596 313.2469 538.47034 313.2469Q537.72034 313.2469 537.23596 313.7469Q536.7516 314.23126 536.7516 314.96564Z" fill-rule="nonzero"/><path fill="#4285f4" d="M209.5 20.55C209.5 19.997715 209.94771 19.55 210.5 19.55L220.5 19.55C221.05229 19.55 221.5 19.997715 221.5 20.55L221.5 30.55C221.5 31.102285 221.05229 31.55 220.5 31.55L210.5 31.55C209.94771 31.55 209.5 31.102285 209.5 30.55Z" fill-rule="nonzero"/><path fill="#1a1a1a" d="M230.42188 29.55L230.42188 20.95625L233.67188 20.95625Q234.51562 20.95625 234.96875 21.034374Q235.60938 21.14375 236.03125 21.440624Q236.46875 21.7375 236.71875 22.26875Q236.98438 22.8 236.98438 23.440624Q236.98438 24.534374 236.28125 25.3Q235.59375 26.05 233.76562 26.05L231.5625 26.05L231.5625 29.55L230.42188 29.55ZM231.5625 25.05L233.78125 25.05Q234.89062 25.05 235.34375 24.64375Q235.8125 24.221874 235.8125 23.471874Q235.8125 22.940624 235.53125 22.565624Q235.26562 22.175 234.82812 22.05Q234.53125 21.971874 233.76562 21.971874L231.5625 21.971874L231.5625 25.05ZM242.375 29.55L242.375 28.628124Q241.64062 29.690624 240.39062 29.690624Q239.84375 29.690624 239.35938 29.4875Q238.89062 29.26875 238.65625 28.95625Q238.42188 28.628124 238.32812 28.159374Q238.26562 27.8625 238.26562 27.175L238.26562 23.33125L239.32812 23.33125L239.32812 26.784374Q239.32812 27.596874 239.39062 27.89375Q239.48438 28.3 239.79688 28.55Q240.125 28.784374 240.60938 28.784374Q241.07812 28.784374 241.48438 28.55Q241.90625 28.3 242.07812 27.878124Q242.26562 27.45625 242.26562 26.659374L242.26562 23.33125L243.3125 23.33125L243.3125 29.55L242.375 29.55ZM247.59375 28.6125L247.75 29.534374Q247.29688 29.628124 246.95312 29.628124Q246.375 29.628124 246.0625 29.45625Q245.75 29.26875 245.60938 28.971874Q245.48438 28.675 245.48438 27.721874L245.48438 24.14375L244.71875 24.14375L244.71875 23.33125L245.48438 23.33125L245.48438 21.784374L246.53125 21.159374L246.53125 23.33125L247.59375 23.33125L247.59375 24.14375L246.53125 24.14375L246.53125 27.784374Q246.53125 28.2375 246.57812 28.3625Q246.64062 28.4875 246.76562 28.565624Q246.89062 28.64375 247.125 28.64375Q247.3125 28.64375 247.59375 28.6125ZM253.3125 32.08125Q252.4375 30.971874 251.82812 29.503124Q251.23438 28.01875 251.23438 26.440624Q251.23438 25.05 251.67188 23.76875Q252.20312 22.284374 253.3125 20.815624L254.0625 20.815624Q253.35938 22.034374 253.125 22.55Q252.76562 23.3625 252.5625 24.2375Q252.3125 25.33125 252.3125 26.440624Q252.3125 29.26875 254.0625 32.08125L253.3125 32.08125ZM255.39062 29.55L255.39062 20.95625L257.10938 20.95625L259.14062 27.034374Q259.42188 27.89375 259.54688 28.315624Q259.6875 27.846874 260.0 26.940624L262.0625 20.95625L263.59375 20.95625L263.59375 29.55L262.5 29.55L262.5 22.3625L260.0 29.55L258.96875 29.55L256.48438 22.2375L256.48438 29.55L255.39062 29.55ZM264.375 29.55L264.375 20.95625L267.60938 20.95625Q268.59375 20.95625 269.1875 21.221874Q269.78125 21.4875 270.10938 22.034374Q270.45312 22.565624 270.45312 23.159374Q270.45312 23.70625 270.15625 24.190624Q269.85938 24.675 269.25 24.971874Q270.03125 25.20625 270.4375 25.76875Q270.85938 26.315624 270.85938 27.065624Q270.85938 27.659374 270.60938 28.190624Q270.35938 28.70625 269.98438 28.9875Q269.60938 29.26875 269.03125 29.409374Q268.46875 29.55 267.65625 29.55L264.375 29.55ZM265.51562 24.565624L267.375 24.565624Q268.125 24.565624 268.45312 24.471874Q268.89062 24.346874 269.10938 24.05Q269.32812 23.7375 269.32812 23.284374Q269.32812 22.8625 269.125 22.534374Q268.92188 22.20625 268.53125 22.096874Q268.15625 21.971874 267.23438 21.971874L265.51562 21.971874L265.51562 24.565624ZM265.51562 28.534374L267.65625 28.534374Q268.20312 28.534374 268.42188 28.4875Q268.82812 28.425 269.07812 28.26875Q269.34375 28.096874 269.51562 27.784374Q269.6875 27.471874 269.6875 27.065624Q269.6875 26.58125 269.4375 26.221874Q269.20312 25.8625 268.76562 25.721874Q268.32812 25.58125 267.5 25.58125L265.51562 25.58125L265.51562 28.534374ZM272.42188 29.55L272.42188 20.95625L275.67188 20.95625Q276.51562 20.95625 276.96875 21.034374Q277.60938 21.14375 278.03125 21.440624Q278.46875 21.7375 278.71875 22.26875Q278.98438 22.8 278.98438 23.440624Q278.98438 24.534374 278.28125 25.3Q277.59375 26.05 275.76562 26.05L273.5625 26.05L273.5625 29.55L272.42188 29.55ZM273.5625 25.05L275.78125 25.05Q276.89062 25.05 277.34375 24.64375Q277.8125 24.221874 277.8125 23.471874Q277.8125 22.940624 277.53125 22.565624Q277.26562 22.175 276.82812 22.05Q276.53125 21.971874 275.76562 21.971874L273.5625 21.971874L273.5625 25.05ZM280.04688 26.784374L281.10938 26.690624Q281.1875 27.346874 281.46875 27.753124Q281.75 28.159374 282.32812 28.425Q282.92188 28.675 283.65625 28.675Q284.29688 28.675 284.79688 28.4875Q285.29688 28.284374 285.53125 27.95625Q285.78125 27.6125 285.78125 27.221874Q285.78125 26.815624 285.54688 26.51875Q285.3125 26.20625 284.78125 26.003124Q284.42188 25.8625 283.23438 25.58125Q282.0625 25.3 281.59375 25.05Q280.96875 24.721874 280.67188 24.253124Q280.375 23.76875 280.375 23.175Q280.375 22.534374 280.73438 21.971874Q281.10938 21.39375 281.8125 21.1125Q282.53125 20.815624 283.39062 20.815624Q284.34375 20.815624 285.07812 21.128124Q285.8125 21.425 286.20312 22.034374Q286.59375 22.628124 286.625 23.378124L285.53125 23.45625Q285.4375 22.64375 284.92188 22.2375Q284.42188 21.815624 283.4375 21.815624Q282.40625 21.815624 281.9375 22.190624Q281.46875 22.565624 281.46875 23.096874Q281.46875 23.565624 281.79688 23.8625Q282.125 24.159374 283.5 24.471874Q284.89062 24.784374 285.40625 25.01875Q286.15625 25.378124 286.51562 25.909374Q286.875 26.425 286.875 27.128124Q286.875 27.815624 286.48438 28.425Q286.09375 29.01875 285.35938 29.3625Q284.625 29.690624 283.70312 29.690624Q282.53125 29.690624 281.73438 29.3625Q280.95312 29.01875 280.5 28.33125Q280.0625 27.64375 280.04688 26.784374ZM288.98438 32.08125L288.23438 32.08125Q289.98438 29.26875 289.98438 26.440624Q289.98438 25.346874 289.73438 24.253124Q289.53125 23.378124 289.17188 22.565624Q288.9375 22.05 288.23438 20.815624L288.98438 20.815624Q290.07812 22.284374 290.60938 23.76875Q291.0625 25.05 291.0625 26.440624Q291.0625 28.01875 290.45312 29.503124Q289.84375 30.971874 288.98438 32.08125Z" fill-rule="nonzero"/><path fill="#ea4335" d="M307.5 20.55C307.5 19.997715 307.94772 19.55 308.5 19.55L318.5 19.55C319.05228 19.55 319.5 19.997715 319.5 20.55L319.5 30.55C319.5 31.102285 319.05228 31.55 318.5 31.55L308.5 31.55C307.94772 31.55 307.5 31.102285 307.5 30.55Z" fill-rule="nonzero"/><path fill="#1a1a1a" d="M332.45312 26.175L332.45312 25.175L336.07812 25.159374L336.07812 28.346874Q335.25 29.01875 334.35938 29.3625Q333.46875 29.690624 332.53125 29.690624Q331.26562 29.690624 330.21875 29.159374Q329.1875 28.6125 328.65625 27.596874Q328.14062 26.565624 328.14062 25.3Q328.14062 24.034374 328.65625 22.95625Q329.1875 21.8625 330.17188 21.346874Q331.15625 20.815624 332.4375 20.815624Q333.375 20.815624 334.125 21.1125Q334.875 21.409374 335.29688 21.95625Q335.73438 22.4875 335.95312 23.3625L334.9375 23.64375Q334.73438 22.9875 334.4375 22.6125Q334.15625 22.2375 333.625 22.01875Q333.09375 21.784374 332.45312 21.784374Q331.67188 21.784374 331.09375 22.01875Q330.53125 22.253124 330.17188 22.64375Q329.82812 23.034374 329.64062 23.503124Q329.3125 24.3 329.3125 25.221874Q329.3125 26.378124 329.70312 27.159374Q330.10938 27.925 330.85938 28.3Q331.60938 28.675 332.46875 28.675Q333.20312 28.675 333.90625 28.39375Q334.60938 28.096874 334.96875 27.784374L334.96875 26.175L332.45312 26.175ZM341.54688 27.55L342.64062 27.675Q342.39062 28.628124 341.6875 29.159374Q340.98438 29.690624 339.90625 29.690624Q338.54688 29.690624 337.73438 28.846874Q336.9375 28.003124 336.9375 26.4875Q336.9375 24.925 337.75 24.065624Q338.5625 23.190624 339.84375 23.190624Q341.09375 23.190624 341.875 24.034374Q342.67188 24.878124 342.67188 26.425Q342.67188 26.51875 342.67188 26.70625L338.03125 26.70625Q338.09375 27.7375 338.60938 28.284374Q339.125 28.815624 339.90625 28.815624Q340.48438 28.815624 340.89062 28.51875Q341.3125 28.20625 341.54688 27.55ZM338.09375 25.846874L341.5625 25.846874Q341.5 25.05 341.17188 24.659374Q340.65625 24.05 339.85938 24.05Q339.125 24.05 338.625 24.534374Q338.14062 25.01875 338.09375 25.846874ZM346.59375 28.6125L346.75 29.534374Q346.29688 29.628124 345.95312 29.628124Q345.375 29.628124 345.0625 29.45625Q344.75 29.26875 344.60938 28.971874Q344.48438 28.675 344.48438 27.721874L344.48438 24.14375L343.71875 24.14375L343.71875 23.33125L344.48438 23.33125L344.48438 21.784374L345.53125 21.159374L345.53125 23.33125L346.59375 23.33125L346.59375 24.14375L345.53125 24.14375L345.53125 27.784374Q345.53125 28.2375 345.57812 28.3625Q345.64062 28.4875 345.76562 28.565624Q345.89062 28.64375 346.125 28.64375Q346.3125 28.64375 346.59375 28.6125ZM352.3125 32.08125Q351.4375 30.971874 350.82812 29.503124Q350.23438 28.01875 350.23438 26.440624Q350.23438 25.05 350.67188 23.76875Q351.20312 22.284374 352.3125 20.815624L353.0625 20.815624Q352.35938 22.034374 352.125 22.55Q351.76562 23.3625 351.5625 24.2375Q351.3125 25.33125 351.3125 26.440624Q351.3125 29.26875 353.0625 32.08125L352.3125 32.08125ZM354.39062 29.55L354.39062 20.95625L356.10938 20.95625L358.14062 27.034374Q358.42188 27.89375 358.54688 28.315624Q358.6875 27.846874 359.0 26.940624L361.0625 20.95625L362.59375 20.95625L362.59375 29.55L361.5 29.55L361.5 22.3625L359.0 29.55L357.96875 29.55L355.48438 22.2375L355.48438 29.55L354.39062 29.55ZM363.375 29.55L363.375 20.95625L366.60938 20.95625Q367.59375 20.95625 368.1875 21.221874Q368.78125 21.4875 369.10938 22.034374Q369.45312 22.565624 369.45312 23.159374Q369.45312 23.70625 369.15625 24.190624Q368.85938 24.675 368.25 24.971874Q369.03125 25.20625 369.4375 25.76875Q369.85938 26.315624 369.85938 27.065624Q369.85938 27.659374 369.60938 28.190624Q369.35938 28.70625 368.98438 28.9875Q368.60938 29.26875 368.03125 29.409374Q367.46875 29.55 366.65625 29.55L363.375 29.55ZM364.51562 24.565624L366.375 24.565624Q367.125 24.565624 367.45312 24.471874Q367.89062 24.346874 368.10938 24.05Q368.32812 23.7375 368.32812 23.284374Q368.32812 22.8625 368.125 22.534374Q367.92188 22.20625 367.53125 22.096874Q367.15625 21.971874 366.23438 21.971874L364.51562 21.971874L364.51562 24.565624ZM364.51562 28.534374L366.65625 28.534374Q367.20312 28.534374 367.42188 28.4875Q367.82812 28.425 368.07812 28.26875Q368.34375 28.096874 368.51562 27.784374Q368.6875 27.471874 368.6875 27.065624Q368.6875 26.58125 368.4375 26.221874Q368.20312 25.8625 367.76562 25.721874Q367.32812 25.58125 366.5 25.58125L364.51562 25.58125L364.51562 28.534374ZM371.42188 29.55L371.42188 20.95625L374.67188 20.95625Q375.51562 20.95625 375.96875 21.034374Q376.60938 21.14375 377.03125 21.440624Q377.46875 21.7375 377.71875 22.26875Q377.98438 22.8 377.98438 23.440624Q377.98438 24.534374 377.28125 25.3Q376.59375 26.05 374.76562 26.05L372.5625 26.05L372.5625 29.55L371.42188 29.55ZM372.5625 25.05L374.78125 25.05Q375.89062 25.05 376.34375 24.64375Q376.8125 24.221874 376.8125 23.471874Q376.8125 22.940624 376.53125 22.565624Q376.26562 22.175 375.82812 22.05Q375.53125 21.971874 374.76562 21.971874L372.5625 21.971874L372.5625 25.05ZM379.04688 26.784374L380.10938 26.690624Q380.1875 27.346874 380.46875 27.753124Q380.75 28.159374 381.32812 28.425Q381.92188 28.675 382.65625 28.675Q383.29688 28.675 383.79688 28.4875Q384.29688 28.284374 384.53125 27.95625Q384.78125 27.6125 384.78125 27.221874Q384.78125 26.815624 384.54688 26.51875Q384.3125 26.20625 383.78125 26.003124Q383.42188 25.8625 382.23438 25.58125Q381.0625 25.3 380.59375 25.05Q379.96875 24.721874 379.67188 24.253124Q379.375 23.76875 379.375 23.175Q379.375 22.534374 379.73438 21.971874Q380.10938 21.39375 380.8125 21.1125Q381.53125 20.815624 382.39062 20.815624Q383.34375 20.815624 384.07812 21.128124Q384.8125 21.425 385.20312 22.034374Q385.59375 22.628124 385.625 23.378124L384.53125 23.45625Q384.4375 22.64375 383.92188 22.2375Q383.42188 21.815624 382.4375 21.815624Q381.40625 21.815624 380.9375 22.190624Q380.46875 22.565624 380.46875 23.096874Q380.46875 23.565624 380.79688 23.8625Q381.125 24.159374 382.5 24.471874Q383.89062 24.784374 384.40625 25.01875Q385.15625 25.378124 385.51562 25.909374Q385.875 26.425 385.875 27.128124Q385.875 27.815624 385.48438 28.425Q385.09375 29.01875 384.35938 29.3625Q383.625 29.690624 382.70312 29.690624Q381.53125 29.690624 380.73438 29.3625Q379.95312 29.01875 379.5 28.33125Q379.0625 27.64375 379.04688 26.784374ZM387.98438 32.08125L387.23438 32.08125Q388.98438 29.26875 388.98438 26.440624Q388.98438 25.346874 388.73438 24.253124Q388.53125 23.378124 388.17188 22.565624Q387.9375 22.05 387.23438 20.815624L387.98438 20.815624Q389.07812 22.284374 389.60938 23.76875Q390.0625 25.05 390.0625 26.440624Q390.0625 28.01875 389.45312 29.503124Q388.84375 30.971874 387.98438 32.08125Z" fill-rule="nonzero"/></svg>