<svg version="1.1" viewBox="0.0 0.0 600.0 371.0" fill="none" stroke="none" stroke-linecap="square" stroke-miterlimit="10" width="600" height="371" xmlns:xlink="http://www.w3.org/1999/xlink" xmlns="http://www.w3.org/2000/svg"><path fill="#ffffff" d="M0 0L600.0 0L600.0 371.0L0 371.0L0 0Z" fill-rule="nonzero"/><path stroke="#333333" stroke-width="1.0" stroke-linecap="butt" d="M84.5 300.5L581.5 300.5" fill-rule="nonzero"/><path stroke="#cccccc" stroke-width="1.0" stroke-linecap="butt" d="M84.5 238.5L581.5 238.5" fill-rule="nonzero"/><path stroke="#cccccc" stroke-width="1.0" stroke-linecap="butt" d="M84.5 176.5L581.5 176.5" fill-rule="nonzero"/><path stroke="#cccccc" stroke-width="1.0" stroke-linecap="butt" d="M84.5 114.5L581.5 114.5" fill-rule="nonzero"/><path stroke="#cccccc" stroke-width="1.0" stroke-linecap="butt" d="M84.5 51.5L581.5 51.5" fill-rule="nonzero"/><clipPath id="id_0"><path d="M84.55 51.916668L581.45 51.916668L581.45 300.45L84.55 300.45L84.55 51.916668Z" clip-rule="nonzero"/></clipPath><path stroke="#000000" stroke-width="2.0" stroke-linecap="butt" stroke-opacity="0.0" clip-path="url(#id_0)" d="M129.0 300.0L109.0 300.0L109.0 206.0C109.0 204.89543 109.89543 204.0 111.0 204.0L127.0 204.0C128.10457 204.0 129.0 204.89543 129.0 206.0Z" fill-rule="nonzero"/><path fill="#4285f4" clip-path="url(#id_0)" d="M129.0 300.0L109.0 300.0L109.0 206.0C109.0 204.89543 109.89543 204.0 111.0 204.0L127.0 204.0C128.10457 204.0 129.0 204.89543 129.0 206.0Z" fill-rule="nonzero"/><path stroke="#000000" stroke-width="2.0" stroke-linecap="butt" stroke-opacity="0.0" clip-path="url(#id_0)" d="M197.0 300.0L177.0 300.0L177.0 208.0C177.0 206.89543 177.89543 206.0 179.0 206.0L195.0 206.0C196.10457 206.0 197.0 206.89543 197.0 208.0Z" fill-rule="nonzero"/><path fill="#4285f4" clip-path="url(#id_0)" d="M197.0 300.0L177.0 300.0L177.0 208.0C177.0 206.89543 177.89543 206.0 179.0 206.0L195.0 206.0C196.10457 206.0 197.0 206.89543 197.0 208.0Z" fill-rule="nonzero"/><path stroke="#000000" stroke-width="2.0" stroke-linecap="butt" stroke-opacity="0.0" clip-path="url(#id_0)" d="M264.0 300.0L244.0 300.0L244.0 209.0C244.0 207.89543 244.89543 207.0 246.0 207.0L262.0 207.0C263.10458 207.0 264.0 207.89543 264.0 209.0Z" fill-rule="nonzero"/><path fill="#4285f4" clip-path="url(#id_0)" d="M264.0 300.0L244.0 300.0L244.0 209.0C244.0 207.89543 244.89543 207.0 246.0 207.0L262.0 207.0C263.10458 207.0 264.0 207.89543 264.0 209.0Z" fill-rule="nonzero"/><path stroke="#000000" stroke-width="2.0" stroke-linecap="butt" stroke-opacity="0.0" clip-path="url(#id_0)" d="M332.0 300.0L312.0 300.0L312.0 208.0C312.0 206.89543 312.89542 206.0 314.0 206.0L330.0 206.0C331.10458 206.0 332.0 206.89543 332.0 208.0Z" fill-rule="nonzero"/><path fill="#4285f4" clip-path="url(#id_0)" d="M332.0 300.0L312.0 300.0L312.0 208.0C312.0 206.89543 312.89542 206.0 314.0 206.0L330.0 206.0C331.10458 206.0 332.0 206.89543 332.0 208.0Z" fill-rule="nonzero"/><path stroke="#000000" stroke-width="2.0" stroke-linecap="butt" stroke-opacity="0.0" clip-path="url(#id_0)" d="M400.0 300.0L380.0 300.0L380.0 208.0C380.0 206.89543 380.89542 206.0 382.0 206.0L398.0 206.0C399.10458 206.0 400.0 206.89543 400.0 208.0Z" fill-rule="nonzero"/><path fill="#4285f4" clip-path="url(#id_0)" d="M400.0 300.0L380.0 300.0L380.0 208.0C380.0 206.89543 380.89542 206.0 382.0 206.0L398.0 206.0C399.10458 206.0 400.0 206.89543 400.0 208.0Z" fill-rule="nonzero"/><path stroke="#000000" stroke-width="2.0" stroke-linecap="butt" stroke-opacity="0.0" clip-path="url(#id_0)" d="M467.0 300.0L447.0 300.0L447.0 209.0C447.0 207.89543 447.89542 207.0 449.0 207.0L465.0 207.0C466.10458 207.0 467.0 207.89543 467.0 209.0Z" fill-rule="nonzero"/><path fill="#4285f4" clip-path="url(#id_0)" d="M467.0 300.0L447.0 300.0L447.0 209.0C447.0 207.89543 447.89542 207.0 449.0 207.0L465.0 207.0C466.10458 207.0 467.0 207.89543 467.0 209.0Z" fill-rule="nonzero"/><path stroke="#000000" stroke-width="2.0" stroke-linecap="butt" stroke-opacity="0.0" clip-path="url(#id_0)" d="M535.0 300.0L515.0 300.0L515.0 208.0C515.0 206.89543 515.89545 206.0 517.0 206.0L533.0 206.0C534.10455 206.0 535.0 206.89543 535.0 208.0Z" fill-rule="nonzero"/><path fill="#4285f4" clip-path="url(#id_0)" d="M535.0 300.0L515.0 300.0L515.0 208.0C515.0 206.89543 515.89545 206.0 517.0 206.0L533.0 206.0C534.10455 206.0 535.0 206.89543 535.0 208.0Z" fill-rule="nonzero"/><path stroke="#000000" stroke-width="2.0" stroke-linecap="butt" stroke-opacity="0.0" clip-path="url(#id_0)" d="M151.0 300.0L131.0 300.0L131.0 61.0C131.0 59.89543 131.89543 59.0 133.0 59.0L149.0 59.0C150.10457 59.0 151.0 59.89543 151.0 61.0Z" fill-rule="nonzero"/><path fill="#ea4335" clip-path="url(#id_0)" d="M151.0 300.0L131.0 300.0L131.0 61.0C131.0 59.89543 131.89543 59.0 133.0 59.0L149.0 59.0C150.10457 59.0 151.0 59.89543 151.0 61.0Z" fill-rule="nonzero"/><path stroke="#000000" stroke-width="2.0" stroke-linecap="butt" stroke-opacity="0.0" clip-path="url(#id_0)" d="M219.0 300.0L199.0 300.0L199.0 100.0C199.0 98.89543 199.89543 98.0 201.0 98.0L217.0 98.0C218.10457 98.0 219.0 98.89543 219.0 100.0Z" fill-rule="nonzero"/><path fill="#ea4335" clip-path="url(#id_0)" d="M219.0 300.0L199.0 300.0L199.0 100.0C199.0 98.89543 199.89543 98.0 201.0 98.0L217.0 98.0C218.10457 98.0 219.0 98.89543 219.0 100.0Z" fill-rule="nonzero"/><path stroke="#000000" stroke-width="2.0" stroke-linecap="butt" stroke-opacity="0.0" clip-path="url(#id_0)" d="M286.0 300.0L266.0 300.0L266.0 71.0C266.0 69.89543 266.89542 69.0 268.0 69.0L284.0 69.0C285.10458 69.0 286.0 69.89543 286.0 71.0Z" fill-rule="nonzero"/><path fill="#ea4335" clip-path="url(#id_0)" d="M286.0 300.0L266.0 300.0L266.0 71.0C266.0 69.89543 266.89542 69.0 268.0 69.0L284.0 69.0C285.10458 69.0 286.0 69.89543 286.0 71.0Z" fill-rule="nonzero"/><path stroke="#000000" stroke-width="2.0" stroke-linecap="butt" stroke-opacity="0.0" clip-path="url(#id_0)" d="M354.0 300.0L334.0 300.0L334.0 76.0C334.0 74.89543 334.89542 74.0 336.0 74.0L352.0 74.0C353.10458 74.0 354.0 74.89543 354.0 76.0Z" fill-rule="nonzero"/><path fill="#ea4335" clip-path="url(#id_0)" d="M354.0 300.0L334.0 300.0L334.0 76.0C334.0 74.89543 334.89542 74.0 336.0 74.0L352.0 74.0C353.10458 74.0 354.0 74.89543 354.0 76.0Z" fill-rule="nonzero"/><path stroke="#000000" stroke-width="2.0" stroke-linecap="butt" stroke-opacity="0.0" clip-path="url(#id_0)" d="M422.0 300.0L402.0 300.0L402.0 76.0C402.0 74.89543 402.89542 74.0 404.0 74.0L420.0 74.0C421.10458 74.0 422.0 74.89543 422.0 76.0Z" fill-rule="nonzero"/><path fill="#ea4335" clip-path="url(#id_0)" d="M422.0 300.0L402.0 300.0L402.0 76.0C402.0 74.89543 402.89542 74.0 404.0 74.0L420.0 74.0C421.10458 74.0 422.0 74.89543 422.0 76.0Z" fill-rule="nonzero"/><path stroke="#000000" stroke-width="2.0" stroke-linecap="butt" stroke-opacity="0.0" clip-path="url(#id_0)" d="M489.0 300.0L469.0 300.0L469.0 56.0C469.0 54.89543 469.89542 54.0 471.0 54.0L487.0 54.0C488.10458 54.0 489.0 54.89543 489.0 56.0Z" fill-rule="nonzero"/><path fill="#ea4335" clip-path="url(#id_0)" d="M489.0 300.0L469.0 300.0L469.0 56.0C469.0 54.89543 469.89542 54.0 471.0 54.0L487.0 54.0C488.10458 54.0 489.0 54.89543 489.0 56.0Z" fill-rule="nonzero"/><path stroke="#000000" stroke-width="2.0" stroke-linecap="butt" stroke-opacity="0.0" clip-path="url(#id_0)" d="M557.0 300.0L537.0 300.0L537.0 59.0C537.0 57.89543 537.89545 57.0 539.0 57.0L555.0 57.0C556.10455 57.0 557.0 57.89543 557.0 59.0Z" fill-rule="nonzero"/><path fill="#ea4335" clip-path="url(#id_0)" d="M557.0 300.0L537.0 300.0L537.0 59.0C537.0 57.89543 537.89545 57.0 539.0 57.0L555.0 57.0C556.10455 57.0 557.0 57.89543 557.0 59.0Z" fill-rule="nonzero"/><path fill="#000000" d="M303.92188 349.45L303.92188 340.85626L307.17188 340.85626Q308.01562 340.85626 308.46875 340.9344Q309.10938 341.04376 309.53125 341.34064Q309.96875 341.6375 310.21875 342.16876Q310.48438 342.7 310.48438 343.34064Q310.48438 344.4344 309.78125 345.2Q309.09375 345.95 307.26562 345.95L305.0625 345.95L305.0625 349.45L303.92188 349.45ZM305.0625 344.95L307.28125 344.95Q308.39062 344.95 308.84375 344.54376Q309.3125 344.1219 309.3125 343.3719Q309.3125 342.84064 309.03125 342.46564Q308.76562 342.075 308.32812 341.95Q308.03125 341.8719 307.26562 341.8719L305.0625 341.8719L305.0625 344.95ZM311.78125 349.45L311.78125 343.23126L312.73438 343.23126L312.73438 344.16876Q313.09375 343.5125 313.39062 343.3094Q313.70312 343.09064 314.07812 343.09064Q314.60938 343.09064 315.15625 343.41876L314.79688 344.40314Q314.40625 344.16876 314.03125 344.16876Q313.67188 344.16876 313.39062 344.3875Q313.125 344.59064 313.01562 344.96564Q312.82812 345.52814 312.82812 346.1844L312.82812 349.45L311.78125 349.45ZM315.40625 346.34064Q315.40625 344.60626 316.35938 343.77814Q317.15625 343.09064 318.3125 343.09064Q319.59375 343.09064 320.40625 343.9344Q321.23438 344.7625 321.23438 346.2469Q321.23438 347.45 320.875 348.1375Q320.51562 348.825 319.8125 349.21564Q319.125 349.59064 318.3125 349.59064Q317.01562 349.59064 316.20312 348.7625Q315.40625 347.91876 315.40625 346.34064ZM316.48438 346.34064Q316.48438 347.52814 317.0 348.1219Q317.53125 348.71564 318.3125 348.71564Q319.10938 348.71564 319.625 348.1219Q320.14062 347.52814 320.14062 346.3094Q320.14062 345.15314 319.60938 344.5594Q319.09375 343.96564 318.3125 343.96564Q317.53125 343.96564 317.0 344.5594Q316.48438 345.1375 316.48438 346.34064ZM326.85938 347.16876L327.89062 347.3094Q327.71875 348.3719 327.01562 348.98126Q326.3125 349.59064 325.29688 349.59064Q324.01562 349.59064 323.23438 348.7625Q322.46875 347.91876 322.46875 346.35626Q322.46875 345.35626 322.79688 344.60626Q323.14062 343.84064 323.8125 343.46564Q324.5 343.09064 325.3125 343.09064Q326.3125 343.09064 326.95312 343.60626Q327.60938 344.10626 327.79688 345.0594L326.76562 345.21564Q326.625 344.59064 326.25 344.27814Q325.875 343.95 325.34375 343.95Q324.54688 343.95 324.04688 344.52814Q323.54688 345.09064 323.54688 346.325Q323.54688 347.59064 324.03125 348.15314Q324.51562 348.71564 325.28125 348.71564Q325.90625 348.71564 326.3125 348.34064Q326.73438 347.96564 326.85938 347.16876ZM333.04688 347.45L334.14062 347.575Q333.89062 348.52814 333.1875 349.0594Q332.48438 349.59064 331.40625 349.59064Q330.04688 349.59064 329.23438 348.7469Q328.4375 347.90314 328.4375 346.3875Q328.4375 344.825 329.25 343.96564Q330.0625 343.09064 331.34375 343.09064Q332.59375 343.09064 333.375 343.9344Q334.17188 344.77814 334.17188 346.325Q334.17188 346.41876 334.17188 346.60626L329.53125 346.60626Q329.59375 347.6375 330.10938 348.1844Q330.625 348.71564 331.40625 348.71564Q331.98438 348.71564 332.39062 348.41876Q332.8125 348.10626 333.04688 347.45ZM329.59375 345.7469L333.0625 345.7469Q333.0 344.95 332.67188 344.5594Q332.15625 343.95 331.35938 343.95Q330.625 343.95 330.125 344.4344Q329.64062 344.91876 329.59375 345.7469ZM335.375 347.59064L336.40625 347.4344Q336.5 348.0594 336.89062 348.3875Q337.29688 348.71564 338.03125 348.71564Q338.75 348.71564 339.09375 348.4344Q339.45312 348.1375 339.45312 347.73126Q339.45312 347.3719 339.14062 347.16876Q338.92188 347.02814 338.0625 346.8094Q336.90625 346.5125 336.45312 346.3094Q336.01562 346.09064 335.78125 345.71564Q335.54688 345.34064 335.54688 344.8719Q335.54688 344.46564 335.73438 344.10626Q335.92188 343.7469 336.25 343.5125Q336.5 343.34064 336.92188 343.21564Q337.34375 343.09064 337.84375 343.09064Q338.5625 343.09064 339.10938 343.3094Q339.67188 343.5125 339.9375 343.8719Q340.20312 344.23126 340.29688 344.825L339.26562 344.96564Q339.20312 344.4969 338.85938 344.23126Q338.53125 343.95 337.90625 343.95Q337.1875 343.95 336.875 344.2Q336.5625 344.4344 336.5625 344.7625Q336.5625 344.96564 336.6875 345.1219Q336.82812 345.29376 337.09375 345.40314Q337.25 345.46564 338.03125 345.66876Q339.15625 345.98126 339.59375 346.16876Q340.03125 346.35626 340.28125 346.71564Q340.53125 347.075 340.53125 347.6219Q340.53125 348.15314 340.21875 348.6219Q339.92188 349.075 339.34375 349.34064Q338.76562 349.59064 338.03125 349.59064Q336.8125 349.59064 336.17188 349.09064Q335.54688 348.575 335.375 347.59064ZM342.375 347.59064L343.40625 347.4344Q343.5 348.0594 343.89062 348.3875Q344.29688 348.71564 345.03125 348.71564Q345.75 348.71564 346.09375 348.4344Q346.45312 348.1375 346.45312 347.73126Q346.45312 347.3719 346.14062 347.16876Q345.92188 347.02814 345.0625 346.8094Q343.90625 346.5125 343.45312 346.3094Q343.01562 346.09064 342.78125 345.71564Q342.54688 345.34064 342.54688 344.8719Q342.54688 344.46564 342.73438 344.10626Q342.92188 343.7469 343.25 343.5125Q343.5 343.34064 343.92188 343.21564Q344.34375 343.09064 344.84375 343.09064Q345.5625 343.09064 346.10938 343.3094Q346.67188 343.5125 346.9375 343.8719Q347.20312 344.23126 347.29688 344.825L346.26562 344.96564Q346.20312 344.4969 345.85938 344.23126Q345.53125 343.95 344.90625 343.95Q344.1875 343.95 343.875 344.2Q343.5625 344.4344 343.5625 344.7625Q343.5625 344.96564 343.6875 345.1219Q343.82812 345.29376 344.09375 345.40314Q344.25 345.46564 345.03125 345.66876Q346.15625 345.98126 346.59375 346.16876Q347.03125 346.35626 347.28125 346.71564Q347.53125 347.075 347.53125 347.6219Q347.53125 348.15314 347.21875 348.6219Q346.92188 349.075 346.34375 349.34064Q345.76562 349.59064 345.03125 349.59064Q343.8125 349.59064 343.17188 349.09064Q342.54688 348.575 342.375 347.59064ZM354.04688 347.45L355.14062 347.575Q354.89062 348.52814 354.1875 349.0594Q353.48438 349.59064 352.40625 349.59064Q351.04688 349.59064 350.23438 348.7469Q349.4375 347.90314 349.4375 346.3875Q349.4375 344.825 350.25 343.96564Q351.0625 343.09064 352.34375 343.09064Q353.59375 343.09064 354.375 343.9344Q355.17188 344.77814 355.17188 346.325Q355.17188 346.41876 355.17188 346.60626L350.53125 346.60626Q350.59375 347.6375 351.10938 348.1844Q351.625 348.71564 352.40625 348.71564Q352.98438 348.71564 353.39062 348.41876Q353.8125 348.10626 354.04688 347.45ZM350.59375 345.7469L354.0625 345.7469Q354.0 344.95 353.67188 344.5594Q353.15625 343.95 352.35938 343.95Q351.625 343.95 351.125 344.4344Q350.64062 344.91876 350.59375 345.7469ZM356.375 347.59064L357.40625 347.4344Q357.5 348.0594 357.89062 348.3875Q358.29688 348.71564 359.03125 348.71564Q359.75 348.71564 360.09375 348.4344Q360.45312 348.1375 360.45312 347.73126Q360.45312 347.3719 360.14062 347.16876Q359.92188 347.02814 359.0625 346.8094Q357.90625 346.5125 357.45312 346.3094Q357.01562 346.09064 356.78125 345.71564Q356.54688 345.34064 356.54688 344.8719Q356.54688 344.46564 356.73438 344.10626Q356.92188 343.7469 357.25 343.5125Q357.5 343.34064 357.92188 343.21564Q358.34375 343.09064 358.84375 343.09064Q359.5625 343.09064 360.10938 343.3094Q360.67188 343.5125 360.9375 343.8719Q361.20312 344.23126 361.29688 344.825L360.26562 344.96564Q360.20312 344.4969 359.85938 344.23126Q359.53125 343.95 358.90625 343.95Q358.1875 343.95 357.875 344.2Q357.5625 344.4344 357.5625 344.7625Q357.5625 344.96564 357.6875 345.1219Q357.82812 345.29376 358.09375 345.40314Q358.25 345.46564 359.03125 345.66876Q360.15625 345.98126 360.59375 346.16876Q361.03125 346.35626 361.28125 346.71564Q361.53125 347.075 361.53125 347.6219Q361.53125 348.15314 361.21875 348.6219Q360.92188 349.075 360.34375 349.34064Q359.76562 349.59064 359.03125 349.59064Q357.8125 349.59064 357.17188 349.09064Q356.54688 348.575 356.375 347.59064Z" fill-rule="nonzero"/><path fill="#000000" d="M29.550013 231.80833L20.956263 231.80833L20.956263 228.57396Q20.956263 227.58958 21.221888 226.99583Q21.487513 226.40208 22.034388 226.07396Q22.565638 225.73021 23.159388 225.73021Q23.706263 225.73021 24.190638 226.02708Q24.675013 226.32396 24.971888 226.93333Q25.206263 226.15208 25.768763 225.74583Q26.315638 225.32396 27.065638 225.32396Q27.659388 225.32396 28.190638 225.57396Q28.706263 225.82396 28.987513 226.19896Q29.268763 226.57396 29.409388 227.15208Q29.550013 227.71458 29.550013 228.52708L29.550013 231.80833ZM24.565638 230.66771L24.565638 228.80833Q24.565638 228.05833 24.471888 227.73021Q24.346888 227.29271 24.050013 227.07396Q23.737513 226.85521 23.284388 226.85521Q22.862513 226.85521 22.534388 227.05833Q22.206263 227.26146 22.096888 227.65208Q21.971888 228.02708 21.971888 228.94896L21.971888 230.66771L24.565638 230.66771ZM28.534388 230.66771L28.534388 228.52708Q28.534388 227.98021 28.487513 227.76146Q28.425013 227.35521 28.268763 227.10521Q28.096888 226.83958 27.784388 226.66771Q27.471888 226.49583 27.065638 226.49583Q26.581263 226.49583 26.221888 226.74583Q25.862513 226.98021 25.721888 227.41771Q25.581263 227.85521 25.581263 228.68333L25.581263 230.66771L28.534388 230.66771ZM28.784388 219.82396Q29.284388 220.41771 29.487513 220.96458Q29.690638 221.49583 29.690638 222.12083Q29.690638 223.15208 29.190638 223.69896Q28.690638 224.24583 27.909388 224.24583Q27.456263 224.24583 27.081263 224.04271Q26.690638 223.83958 26.471888 223.49583Q26.237513 223.15208 26.128138 222.73021Q26.034388 222.43333 25.956263 221.79271Q25.815638 220.52708 25.596888 219.91771Q25.378138 219.91771 25.331263 219.91771Q24.675013 219.91771 24.409388 220.21458Q24.065638 220.62083 24.065638 221.41771Q24.065638 222.15208 24.331263 222.51146Q24.581263 222.87083 25.237513 223.04271L25.096888 224.07396Q24.440638 223.93333 24.034388 223.60521Q23.628138 223.27708 23.409388 222.66771Q23.190638 222.05833 23.190638 221.26146Q23.190638 220.46458 23.378138 219.96458Q23.565638 219.46458 23.846888 219.23021Q24.128138 218.99583 24.565638 218.90208Q24.831263 218.85521 25.534388 218.85521L26.940638 218.85521Q28.409388 218.85521 28.800013 218.79271Q29.190638 218.71458 29.550013 218.51146L29.550013 219.62083Q29.221888 219.77708 28.784388 219.82396ZM26.425013 219.91771Q26.659388 220.49583 26.831263 221.63646Q26.925013 222.29271 27.050013 222.55833Q27.159388 222.82396 27.378138 222.98021Q27.596888 223.12083 27.878138 223.12083Q28.300013 223.12083 28.581263 222.80833Q28.862513 222.48021 28.862513 221.87083Q28.862513 221.26146 28.596888 220.79271Q28.331263 220.30833 27.862513 220.08958Q27.503138 219.91771 26.815638 219.91771L26.425013 219.91771ZM29.550013 216.88646L23.331263 216.88646L23.331263 215.94896L24.206263 215.94896Q23.190638 215.26146 23.190638 213.96458Q23.190638 213.40208 23.393763 212.93333Q23.596888 212.44896 23.925013 212.21458Q24.253138 211.98021 24.690638 211.88646Q24.987513 211.83958 25.721888 211.83958L29.550013 211.83958L29.550013 212.88646L25.768763 212.88646Q25.112513 212.88646 24.800013 213.01146Q24.487513 213.13646 24.300013 213.44896Q24.096888 213.76146 24.096888 214.18333Q24.096888 214.85521 24.534388 215.35521Q24.956263 215.83958 26.143763 215.83958L29.550013 215.83958L29.550013 216.88646ZM29.550013 205.85521L28.768763 205.85521Q29.690638 206.44896 29.690638 207.58958Q29.690638 208.33958 29.284388 208.96458Q28.862513 209.58958 28.128138 209.93333Q27.393763 210.27708 26.440638 210.27708Q25.518763 210.27708 24.753138 209.96458Q23.987513 209.65208 23.596888 209.02708Q23.190638 208.40208 23.190638 207.63646Q23.190638 207.07396 23.425013 206.63646Q23.659388 206.19896 24.034388 205.91771L20.956263 205.91771L20.956263 204.87083L29.550013 204.87083L29.550013 205.85521ZM26.440638 209.18333Q27.643763 209.18333 28.237513 208.68333Q28.815638 208.18333 28.815638 207.49583Q28.815638 206.80833 28.253138 206.32396Q27.690638 205.83958 26.534388 205.83958Q25.253138 205.83958 24.659388 206.33958Q24.065638 206.82396 24.065638 207.54271Q24.065638 208.24583 24.643763 208.71458Q25.206263 209.18333 26.440638 209.18333ZM29.550013 201.74583L23.331263 203.65208L23.331263 202.55833L26.925013 201.57396L28.253138 201.19896Q28.159388 201.16771 26.971888 200.87083L23.331263 199.88646L23.331263 198.80833L26.940638 197.87083L28.128138 197.55833L26.925013 197.19896L23.331263 196.13646L23.331263 195.10521L29.550013 197.05833L29.550013 198.15208L25.815638 199.13646L24.768763 199.38646L29.550013 200.63646L29.550013 201.74583ZM22.175013 193.88646L20.956263 193.88646L20.956263 192.82396L22.175013 192.82396L22.175013 193.88646ZM29.550013 193.88646L23.331263 193.88646L23.331263 192.82396L29.550013 192.82396L29.550013 193.88646ZM29.550013 186.85521L28.768763 186.85521Q29.690638 187.44896 29.690638 188.58958Q29.690638 189.33958 29.284388 189.96458Q28.862513 190.58958 28.128138 190.93333Q27.393763 191.27708 26.440638 191.27708Q25.518763 191.27708 24.753138 190.96458Q23.987513 190.65208 23.596888 190.02708Q23.190638 189.40208 23.190638 188.63646Q23.190638 188.07396 23.425013 187.63646Q23.659388 187.19896 24.034388 186.91771L20.956263 186.91771L20.956263 185.87083L29.550013 185.87083L29.550013 186.85521ZM26.440638 190.18333Q27.643763 190.18333 28.237513 189.68333Q28.815638 189.18333 28.815638 188.49583Q28.815638 187.80833 28.253138 187.32396Q27.690638 186.83958 26.534388 186.83958Q25.253138 186.83958 24.659388 187.33958Q24.065638 187.82396 24.065638 188.54271Q24.065638 189.24583 24.643763 189.71458Q25.206263 190.18333 26.440638 190.18333ZM28.612513 181.58958L29.534388 181.43333Q29.628138 181.88646 29.628138 182.23021Q29.628138 182.80833 29.456263 183.12083Q29.268763 183.43333 28.971888 183.57396Q28.675013 183.69896 27.721888 183.69896L24.143763 183.69896L24.143763 184.46458L23.331263 184.46458L23.331263 183.69896L21.784388 183.69896L21.159388 182.65208L23.331263 182.65208L23.331263 181.58958L24.143763 181.58958L24.143763 182.65208L27.784388 182.65208Q28.237513 182.65208 28.362513 182.60521Q28.487513 182.54271 28.565638 182.41771Q28.643763 182.29271 28.643763 182.05833Q28.643763 181.87083 28.612513 181.58958ZM29.550013 180.88646L20.956263 180.88646L20.956263 179.83958L24.034388 179.83958Q23.190638 179.10521 23.190638 177.98021Q23.190638 177.27708 23.471888 176.77708Q23.737513 176.26146 24.221888 176.04271Q24.690638 175.82396 25.612513 175.82396L29.550013 175.82396L29.550013 176.87083L25.612513 176.87083Q24.815638 176.87083 24.456263 177.21458Q24.096888 177.55833 24.096888 178.18333Q24.096888 178.65208 24.346888 179.07396Q24.581263 179.48021 25.003138 179.66771Q25.409388 179.83958 26.143763 179.83958L29.550013 179.83958L29.550013 180.88646ZM32.08126 168.87083Q30.971888 169.74583 29.503138 170.35521Q28.018763 170.94896 26.440638 170.94896Q25.050013 170.94896 23.768763 170.51146Q22.284388 169.98021 20.815638 168.87083L20.815638 168.12083Q22.034388 168.82396 22.550013 169.05833Q23.362513 169.41771 24.237513 169.62083Q25.331263 169.87083 26.440638 169.87083Q29.268763 169.87083 32.08126 168.12083L32.08126 168.87083ZM29.550013 166.79271L20.956263 166.79271L20.956263 165.07396L27.034388 163.04271Q27.893763 162.76146 28.315638 162.63646Q27.846888 162.49583 26.940638 162.18333L20.956263 160.12083L20.956263 158.58958L29.550013 158.58958L29.550013 159.68333L22.362513 159.68333L29.550013 162.18333L29.550013 163.21458L22.237513 165.69896L29.550013 165.69896L29.550013 166.79271ZM29.550013 157.80833L20.956263 157.80833L20.956263 154.57396Q20.956263 153.58958 21.221888 152.99583Q21.487513 152.40208 22.034388 152.07396Q22.565638 151.73021 23.159388 151.73021Q23.706263 151.73021 24.190638 152.02708Q24.675013 152.32396 24.971888 152.93333Q25.206263 152.15208 25.768763 151.74583Q26.315638 151.32396 27.065638 151.32396Q27.659388 151.32396 28.190638 151.57396Q28.706263 151.82396 28.987513 152.19896Q29.268763 152.57396 29.409388 153.15208Q29.550013 153.71458 29.550013 154.52708L29.550013 157.80833ZM24.565638 156.66771L24.565638 154.80833Q24.565638 154.05833 24.471888 153.73021Q24.346888 153.29271 24.050013 153.07396Q23.737513 152.85521 23.284388 152.85521Q22.862513 152.85521 22.534388 153.05833Q22.206263 153.26146 22.096888 153.65208Q21.971888 154.02708 21.971888 154.94896L21.971888 156.66771L24.565638 156.66771ZM28.534388 156.66771L28.534388 154.52708Q28.534388 153.98021 28.487513 153.76146Q28.425013 153.35521 28.268763 153.10521Q28.096888 152.83958 27.784388 152.66771Q27.471888 152.49583 27.065638 152.49583Q26.581263 152.49583 26.221888 152.74583Q25.862513 152.98021 25.721888 153.41771Q25.581263 153.85521 25.581263 154.68333L25.581263 156.66771L28.534388 156.66771ZM31.940638 149.88646L23.331263 149.88646L23.331263 148.93333L24.128138 148.93333Q23.659388 148.58958 23.425013 148.16771Q23.190638 147.73021 23.190638 147.12083Q23.190638 146.32396 23.596888 145.71458Q24.003138 145.10521 24.753138 144.80833Q25.503138 144.49583 26.393763 144.49583Q27.346888 144.49583 28.112513 144.83958Q28.878138 145.16771 29.284388 145.82396Q29.690638 146.48021 29.690638 147.19896Q29.690638 147.73021 29.471888 148.15208Q29.237513 148.57396 28.909388 148.83958L31.940638 148.83958L31.940638 149.88646ZM26.471888 148.93333Q27.675013 148.93333 28.253138 148.44896Q28.815638 147.96458 28.815638 147.27708Q28.815638 146.57396 28.221888 146.07396Q27.628138 145.57396 26.378138 145.57396Q25.190638 145.57396 24.612513 146.05833Q24.018763 146.54271 24.018763 147.23021Q24.018763 147.90208 24.643763 148.41771Q25.268763 148.93333 26.471888 148.93333ZM27.690638 143.30833L27.534388 142.27708Q28.159388 142.18333 28.487513 141.79271Q28.815638 141.38646 28.815638 140.65208Q28.815638 139.93333 28.534388 139.58958Q28.237513 139.23021 27.831263 139.23021Q27.471888 139.23021 27.268763 139.54271Q27.128138 139.76146 26.909388 140.62083Q26.612513 141.77708 26.409388 142.23021Q26.190638 142.66771 25.815638 142.90208Q25.440638 143.13646 24.971888 143.13646Q24.565638 143.13646 24.206263 142.94896Q23.846888 142.76146 23.612513 142.43333Q23.440638 142.18333 23.315638 141.76146Q23.190638 141.33958 23.190638 140.83958Q23.190638 140.12083 23.409388 139.57396Q23.612513 139.01146 23.971888 138.74583Q24.331263 138.48021 24.925013 138.38646L25.065638 139.41771Q24.596888 139.48021 24.331263 139.82396Q24.050013 140.15208 24.050013 140.77708Q24.050013 141.49583 24.300013 141.80833Q24.534388 142.12083 24.862513 142.12083Q25.065638 142.12083 25.221888 141.99583Q25.393763 141.85521 25.503138 141.58958Q25.565638 141.43333 25.768763 140.65208Q26.081263 139.52708 26.268763 139.08958Q26.456263 138.65208 26.815638 138.40208Q27.175013 138.15208 27.721888 138.15208Q28.253138 138.15208 28.721888 138.46458Q29.175013 138.76146 29.440638 139.33958Q29.690638 139.91771 29.690638 140.65208Q29.690638 141.87083 29.190638 142.51146Q28.675013 143.13646 27.690638 143.30833ZM32.08126 135.19896L32.08126 135.94896Q29.268763 134.19896 26.440638 134.19896Q25.346888 134.19896 24.253138 134.44896Q23.378138 134.65208 22.565638 135.01146Q22.050013 135.24583 20.815638 135.94896L20.815638 135.19896Q22.284388 134.10521 23.768763 133.57396Q25.050013 133.12083 26.440638 133.12083Q28.018763 133.12083 29.503138 133.73021Q30.971888 134.33958 32.08126 135.19896Z" fill-rule="nonzero"/><path fill="#000000" d="M72.05 300.21564Q72.05 298.6844 72.3625 297.7625Q72.675 296.825 73.28438 296.325Q73.90938 295.825 74.84688 295.825Q75.53438 295.825 76.05 296.10626Q76.58125 296.3875 76.925 296.91876Q77.26875 297.4344 77.45625 298.1844Q77.64375 298.9344 77.64375 300.21564Q77.64375 301.73126 77.33125 302.65314Q77.03438 303.575 76.40938 304.09064Q75.8 304.59064 74.84688 304.59064Q73.6125 304.59064 72.89375 303.7Q72.05 302.6375 72.05 300.21564ZM73.12813 300.21564Q73.12813 302.325 73.62813 303.02814Q74.12813 303.73126 74.84688 303.73126Q75.58125 303.73126 76.06563 303.02814Q76.56563 302.325 76.56563 300.21564Q76.56563 298.09064 76.06563 297.40314Q75.58125 296.7 74.83125 296.7Q74.1125 296.7 73.675 297.3094Q73.12813 298.09064 73.12813 300.21564Z" fill-rule="nonzero"/><path fill="#000000" d="M63.596874 241.30104L63.596874 242.31667L57.909374 242.31667Q57.909374 241.94167 58.034374 241.58229Q58.253124 241.00417 58.721874 240.44167Q59.20625 239.87917 60.1125 239.14479Q61.51875 237.98854 62.003124 237.31667Q62.503124 236.64479 62.503124 236.05104Q62.503124 235.42604 62.05 235.00417Q61.596874 234.56667 60.878124 234.56667Q60.1125 234.56667 59.659374 235.01979Q59.20625 235.47292 59.190624 236.28542L58.1125 236.17604Q58.221874 234.95729 58.940624 234.33229Q59.675 233.69167 60.909374 233.69167Q62.14375 233.69167 62.8625 234.37917Q63.58125 235.06667 63.58125 236.08229Q63.58125 236.59792 63.3625 237.09792Q63.159374 237.58229 62.659374 238.14479Q62.175 238.69167 61.05 239.64479Q60.096874 240.44167 59.815624 240.73854Q59.55 241.01979 59.378124 241.30104L63.596874 241.30104ZM65.05 240.06667L66.15938 239.97292Q66.28438 240.78542 66.72188 241.19167Q67.175 241.59792 67.81563 241.59792Q68.56563 241.59792 69.09688 241.01979Q69.62813 240.44167 69.62813 239.50417Q69.62813 238.59792 69.1125 238.08229Q68.6125 237.55104 67.78438 237.55104Q67.28438 237.55104 66.8625 237.78542Q66.45625 238.01979 66.22188 238.37917L65.2375 238.25417L66.06563 233.84792L70.34688 233.84792L70.34688 234.84792L66.90938 234.84792L66.45625 237.16042Q67.22188 236.61354 68.06563 236.61354Q69.19063 236.61354 69.95625 237.39479Q70.7375 238.17604 70.7375 239.41042Q70.7375 240.56667 70.06563 241.42604Q69.2375 242.45729 67.81563 242.45729Q66.64375 242.45729 65.89375 241.80104Q65.15938 241.14479 65.05 240.06667ZM72.05 238.08229Q72.05 236.55104 72.3625 235.62917Q72.675 234.69167 73.28438 234.19167Q73.90938 233.69167 74.84688 233.69167Q75.53438 233.69167 76.05 233.97292Q76.58125 234.25417 76.925 234.78542Q77.26875 235.30104 77.45625 236.05104Q77.64375 236.80104 77.64375 238.08229Q77.64375 239.59792 77.33125 240.51979Q77.03438 241.44167 76.40938 241.95729Q75.8 242.45729 74.84688 242.45729Q73.6125 242.45729 72.89375 241.56667Q72.05 240.50417 72.05 238.08229ZM73.12813 238.08229Q73.12813 240.19167 73.62813 240.89479Q74.12813 241.59792 74.84688 241.59792Q75.58125 241.59792 76.06563 240.89479Q76.56563 240.19167 76.56563 238.08229Q76.56563 235.95729 76.06563 235.26979Q75.58125 234.56667 74.83125 234.56667Q74.1125 234.56667 73.675 235.17604Q73.12813 235.95729 73.12813 238.08229Z" fill-rule="nonzero"/><path fill="#000000" d="M58.05 177.93333L59.159374 177.83958Q59.284374 178.65208 59.721874 179.05833Q60.175 179.46458 60.815624 179.46458Q61.565624 179.46458 62.096874 178.88646Q62.628124 178.30833 62.628124 177.37083Q62.628124 176.46458 62.1125 175.94896Q61.6125 175.41771 60.784374 175.41771Q60.284374 175.41771 59.8625 175.65208Q59.45625 175.88646 59.221874 176.24583L58.2375 176.12083L59.065624 171.71458L63.346874 171.71458L63.346874 172.71458L59.909374 172.71458L59.45625 175.02708Q60.221874 174.48021 61.065624 174.48021Q62.190624 174.48021 62.95625 175.26146Q63.7375 176.04271 63.7375 177.27708Q63.7375 178.43333 63.065624 179.29271Q62.2375 180.32396 60.815624 180.32396Q59.64375 180.32396 58.89375 179.66771Q58.159374 179.01146 58.05 177.93333ZM65.05 175.94896Q65.05 174.41771 65.3625 173.49583Q65.675 172.55833 66.28438 172.05833Q66.90938 171.55833 67.84688 171.55833Q68.53438 171.55833 69.05 171.83958Q69.58125 172.12083 69.925 172.65208Q70.26875 173.16771 70.45625 173.91771Q70.64375 174.66771 70.64375 175.94896Q70.64375 177.46458 70.33125 178.38646Q70.03438 179.30833 69.40938 179.82396Q68.8 180.32396 67.84688 180.32396Q66.6125 180.32396 65.89375 179.43333Q65.05 178.37083 65.05 175.94896ZM66.12813 175.94896Q66.12813 178.05833 66.62813 178.76146Q67.12813 179.46458 67.84688 179.46458Q68.58125 179.46458 69.06563 178.76146Q69.56563 178.05833 69.56563 175.94896Q69.56563 173.82396 69.06563 173.13646Q68.58125 172.43333 67.83125 172.43333Q67.1125 172.43333 66.675 173.04271Q66.12813 173.82396 66.12813 175.94896ZM72.05 175.94896Q72.05 174.41771 72.3625 173.49583Q72.675 172.55833 73.28438 172.05833Q73.90938 171.55833 74.84688 171.55833Q75.53438 171.55833 76.05 171.83958Q76.58125 172.12083 76.925 172.65208Q77.26875 173.16771 77.45625 173.91771Q77.64375 174.66771 77.64375 175.94896Q77.64375 177.46458 77.33125 178.38646Q77.03438 179.30833 76.40938 179.82396Q75.8 180.32396 74.84688 180.32396Q73.6125 180.32396 72.89375 179.43333Q72.05 178.37083 72.05 175.94896ZM73.12813 175.94896Q73.12813 178.05833 73.62813 178.76146Q74.12813 179.46458 74.84688 179.46458Q75.58125 179.46458 76.06563 178.76146Q76.56563 178.05833 76.56563 175.94896Q76.56563 173.82396 76.06563 173.13646Q75.58125 172.43333 74.83125 172.43333Q74.1125 172.43333 73.675 173.04271Q73.12813 173.82396 73.12813 175.94896Z" fill-rule="nonzero"/><path fill="#000000" d="M58.1125 110.58125L58.1125 109.56563L63.675 109.56563L63.675 110.39375Q62.8625 111.26875 62.05 112.72188Q61.253124 114.15938 60.815624 115.69063Q60.4875 116.76875 60.409374 118.05L59.315624 118.05Q59.33125 117.03438 59.70625 115.59688Q60.096874 114.15938 60.8 112.83125Q61.51875 111.50313 62.33125 110.58125L58.1125 110.58125ZM65.05 115.8L66.15938 115.70625Q66.28438 116.51875 66.72188 116.925Q67.175 117.33125 67.81563 117.33125Q68.56563 117.33125 69.09688 116.75313Q69.62813 116.175 69.62813 115.2375Q69.62813 114.33125 69.1125 113.81563Q68.6125 113.28438 67.78438 113.28438Q67.28438 113.28438 66.8625 113.51875Q66.45625 113.75313 66.22188 114.1125L65.2375 113.9875L66.06563 109.58125L70.34688 109.58125L70.34688 110.58125L66.90938 110.58125L66.45625 112.89375Q67.22188 112.34688 68.06563 112.34688Q69.19063 112.34688 69.95625 113.12813Q70.7375 113.90938 70.7375 115.14375Q70.7375 116.3 70.06563 117.15938Q69.2375 118.19063 67.81563 118.19063Q66.64375 118.19063 65.89375 117.53438Q65.15938 116.87813 65.05 115.8ZM72.05 113.81563Q72.05 112.28438 72.3625 111.3625Q72.675 110.425 73.28438 109.925Q73.90938 109.425 74.84688 109.425Q75.53438 109.425 76.05 109.70625Q76.58125 109.9875 76.925 110.51875Q77.26875 111.03438 77.45625 111.78438Q77.64375 112.53438 77.64375 113.81563Q77.64375 115.33125 77.33125 116.25313Q77.03438 117.175 76.40938 117.69063Q75.8 118.19063 74.84688 118.19063Q73.6125 118.19063 72.89375 117.3Q72.05 116.2375 72.05 113.81563ZM73.12813 113.81563Q73.12813 115.925 73.62813 116.62813Q74.12813 117.33125 74.84688 117.33125Q75.58125 117.33125 76.06563 116.62813Q76.56563 115.925 76.56563 113.81563Q76.56563 111.69063 76.06563 111.00313Q75.58125 110.3 74.83125 110.3Q74.1125 110.3 73.675 110.90938Q73.12813 111.69063 73.12813 113.81563Z" fill-rule="nonzero"/><path fill="#000000" d="M55.01875 55.916668L53.971874 55.916668L53.971874 49.197918Q53.58125 49.557293 52.95625 49.932293Q52.346874 50.291668 51.8625 50.463543L51.8625 49.447918Q52.7375 49.026043 53.39375 48.447918Q54.065624 47.854168 54.346874 47.291668L55.01875 47.291668L55.01875 55.916668ZM58.05 51.682293Q58.05 50.151043 58.3625 49.229168Q58.675 48.291668 59.284374 47.791668Q59.909374 47.291668 60.846874 47.291668Q61.534374 47.291668 62.05 47.572918Q62.58125 47.854168 62.925 48.385418Q63.26875 48.901043 63.45625 49.651043Q63.64375 50.401043 63.64375 51.682293Q63.64375 53.197918 63.33125 54.119793Q63.034374 55.041668 62.409374 55.557293Q61.8 56.057293 60.846874 56.057293Q59.6125 56.057293 58.89375 55.166668Q58.05 54.104168 58.05 51.682293ZM59.128124 51.682293Q59.128124 53.791668 59.628124 54.494793Q60.128124 55.197918 60.846874 55.197918Q61.58125 55.197918 62.065624 54.494793Q62.565624 53.791668 62.565624 51.682293Q62.565624 49.557293 62.065624 48.869793Q61.58125 48.166668 60.83125 48.166668Q60.1125 48.166668 59.675 48.776043Q59.128124 49.557293 59.128124 51.682293ZM65.05 51.682293Q65.05 50.151043 65.3625 49.229168Q65.675 48.291668 66.28438 47.791668Q66.90938 47.291668 67.84688 47.291668Q68.53438 47.291668 69.05 47.572918Q69.58125 47.854168 69.925 48.385418Q70.26875 48.901043 70.45625 49.651043Q70.64375 50.401043 70.64375 51.682293Q70.64375 53.197918 70.33125 54.119793Q70.03438 55.041668 69.40938 55.557293Q68.8 56.057293 67.84688 56.057293Q66.6125 56.057293 65.89375 55.166668Q65.05 54.104168 65.05 51.682293ZM66.12813 51.682293Q66.12813 53.791668 66.62813 54.494793Q67.12813 55.197918 67.84688 55.197918Q68.58125 55.197918 69.06563 54.494793Q69.56563 53.791668 69.56563 51.682293Q69.56563 49.557293 69.06563 48.869793Q68.58125 48.166668 67.83125 48.166668Q67.1125 48.166668 66.675 48.776043Q66.12813 49.557293 66.12813 51.682293ZM72.05 51.682293Q72.05 50.151043 72.3625 49.229168Q72.675 48.291668 73.28438 47.791668Q73.90938 47.291668 74.84688 47.291668Q75.53438 47.291668 76.05 47.572918Q76.58125 47.854168 76.925 48.385418Q77.26875 48.901043 77.45625 49.651043Q77.64375 50.401043 77.64375 51.682293Q77.64375 53.197918 77.33125 54.119793Q77.03438 55.041668 76.40938 55.557293Q75.8 56.057293 74.84688 56.057293Q73.6125 56.057293 72.89375 55.166668Q72.05 54.104168 72.05 51.682293ZM73.12813 51.682293Q73.12813 53.791668 73.62813 54.494793Q74.12813 55.197918 74.84688 55.197918Q75.58125 55.197918 76.06563 54.494793Q76.56563 53.791668 76.56563 51.682293Q76.56563 49.557293 76.06563 48.869793Q75.58125 48.166668 74.83125 48.166668Q74.1125 48.166668 73.675 48.776043Q73.12813 49.557293 73.12813 51.682293Z" fill-rule="nonzero"/><path fill="#000000" d="M131.15242 317.45L130.10555 317.45L130.10555 310.73126Q129.71492 311.09064 129.08992 311.46564Q128.48055 311.825 127.99617 311.9969L127.99617 310.98126Q128.87117 310.5594 129.52742 309.98126Q130.1993 309.3875 130.48055 308.825L131.15242 308.825L131.15242 317.45Z" fill-rule="nonzero"/><path fill="#000000" d="M200.33598 316.4344L200.33598 317.45L194.64848 317.45Q194.64848 317.075 194.77348 316.71564Q194.99223 316.1375 195.46098 315.575Q195.94536 315.0125 196.85161 314.27814Q198.25786 313.1219 198.74223 312.45Q199.24223 311.77814 199.24223 311.1844Q199.24223 310.5594 198.78911 310.1375Q198.33598 309.7 197.61723 309.7Q196.85161 309.7 196.39848 310.15314Q195.94536 310.60626 195.92973 311.41876L194.85161 311.3094Q194.96098 310.09064 195.67973 309.46564Q196.41411 308.825 197.64848 308.825Q198.88286 308.825 199.60161 309.5125Q200.32036 310.2 200.32036 311.21564Q200.32036 311.73126 200.10161 312.23126Q199.89848 312.71564 199.39848 313.27814Q198.91411 313.825 197.78911 314.77814Q196.83598 315.575 196.55473 315.8719Q196.28911 316.15314 196.11723 316.4344L200.33598 316.4344Z" fill-rule="nonzero"/><path fill="#000000" d="M265.76956 317.45L265.76956 315.3875L262.0508 315.3875L262.0508 314.41876L265.9727 308.85626L266.83206 308.85626L266.83206 314.41876L267.9883 314.41876L267.9883 315.3875L266.83206 315.3875L266.83206 317.45L265.76956 317.45ZM265.76956 314.41876L265.76956 310.5594L263.08206 314.41876L265.76956 314.41876Z" fill-rule="nonzero"/><path fill="#000000" d="M331.625 312.79376Q330.96875 312.54376 330.64062 312.10626Q330.32812 311.65314 330.32812 311.04376Q330.32812 310.10626 331.0 309.46564Q331.6875 308.825 332.79688 308.825Q333.92188 308.825 334.60938 309.48126Q335.29688 310.1375 335.29688 311.075Q335.29688 311.66876 334.98438 312.10626Q334.67188 312.54376 334.03125 312.79376Q334.82812 313.04376 335.23438 313.6219Q335.64062 314.2 335.64062 314.9969Q335.64062 316.09064 334.85938 316.84064Q334.09375 317.59064 332.8125 317.59064Q331.54688 317.59064 330.76562 316.84064Q329.98438 316.09064 329.98438 314.96564Q329.98438 314.1219 330.40625 313.5594Q330.84375 312.9969 331.625 312.79376ZM331.40625 310.9969Q331.40625 311.60626 331.79688 311.9969Q332.20312 312.3875 332.82812 312.3875Q333.4375 312.3875 333.82812 312.0125Q334.21875 311.6219 334.21875 311.0594Q334.21875 310.48126 333.8125 310.09064Q333.40625 309.6844 332.8125 309.6844Q332.20312 309.6844 331.79688 310.075Q331.40625 310.46564 331.40625 310.9969ZM331.07812 314.96564Q331.07812 315.41876 331.28125 315.84064Q331.5 316.2625 331.92188 316.4969Q332.34375 316.73126 332.82812 316.73126Q333.57812 316.73126 334.0625 316.2469Q334.5625 315.7625 334.5625 315.0125Q334.5625 314.2469 334.0625 313.7469Q333.5625 313.2469 332.79688 313.2469Q332.04688 313.2469 331.5625 313.7469Q331.07812 314.23126 331.07812 314.96564Z" fill-rule="nonzero"/><path fill="#000000" d="M398.0742 317.45L397.0273 317.45L397.0273 310.73126Q396.6367 311.09064 396.0117 311.46564Q395.4023 311.825 394.91794 311.9969L394.91794 310.98126Q395.79294 310.5594 396.4492 309.98126Q397.12106 309.3875 397.4023 308.825L398.0742 308.825L398.0742 317.45ZM406.5742 310.96564L405.5273 311.04376Q405.3867 310.41876 405.1367 310.1375Q404.6992 309.6844 404.0742 309.6844Q403.5742 309.6844 403.18356 309.96564Q402.6992 310.34064 402.4023 311.04376Q402.12106 311.73126 402.10544 313.0125Q402.48044 312.4344 403.0273 312.15314Q403.5898 311.8719 404.1992 311.8719Q405.24606 311.8719 405.98044 312.65314Q406.73044 313.4344 406.73044 314.65314Q406.73044 315.46564 406.37106 316.16876Q406.0273 316.85626 405.41794 317.23126Q404.80856 317.59064 404.04294 317.59064Q402.7148 317.59064 401.8867 316.6219Q401.05856 315.65314 401.05856 313.4344Q401.05856 310.9344 401.98044 309.8094Q402.7773 308.825 404.1367 308.825Q405.1523 308.825 405.79294 309.40314Q406.4492 309.96564 406.5742 310.96564ZM402.2773 314.66876Q402.2773 315.21564 402.49606 315.71564Q402.73044 316.2 403.1367 316.46564Q403.55856 316.73126 404.0273 316.73126Q404.68356 316.73126 405.16794 316.2Q405.6523 315.65314 405.6523 314.73126Q405.6523 313.84064 405.16794 313.325Q404.6992 312.8094 403.98044 312.8094Q403.2617 312.8094 402.7617 313.325Q402.2773 313.84064 402.2773 314.66876Z" fill-rule="nonzero"/><path fill="#000000" d="M461.71088 315.1844L462.77338 315.04376Q462.94525 315.9344 463.38275 316.34064Q463.82025 316.73126 464.44525 316.73126Q465.19525 316.73126 465.71088 316.21564Q466.2265 315.7 466.2265 314.9344Q466.2265 314.21564 465.74213 313.7469Q465.27338 313.2625 464.539 313.2625Q464.24213 313.2625 463.789 313.3875L463.914 312.45Q464.02338 312.46564 464.08588 312.46564Q464.75775 312.46564 465.289 312.1219Q465.83588 311.7625 465.83588 311.02814Q465.83588 310.45 465.44525 310.075Q465.05463 309.6844 464.42963 309.6844Q463.82025 309.6844 463.39838 310.075Q462.99213 310.46564 462.88275 311.23126L461.82025 311.04376Q462.00775 309.9969 462.69525 309.41876Q463.38275 308.825 464.39838 308.825Q465.1015 308.825 465.69525 309.1375Q466.289 309.4344 466.6015 309.95Q466.914 310.46564 466.914 311.0594Q466.914 311.60626 466.61713 312.075Q466.32025 312.52814 465.74213 312.79376Q466.49213 312.96564 466.914 313.52814Q467.33588 314.075 467.33588 314.91876Q467.33588 316.04376 466.50775 316.825Q465.69525 317.60626 464.44525 317.60626Q463.32025 317.60626 462.57025 316.9344Q461.82025 316.2469 461.71088 315.1844ZM474.25775 316.4344L474.25775 317.45L468.57025 317.45Q468.57025 317.075 468.69525 316.71564Q468.914 316.1375 469.38275 315.575Q469.86713 315.0125 470.77338 314.27814Q472.17963 313.1219 472.664 312.45Q473.164 311.77814 473.164 311.1844Q473.164 310.5594 472.71088 310.1375Q472.25775 309.7 471.539 309.7Q470.77338 309.7 470.32025 310.15314Q469.86713 310.60626 469.8515 311.41876L468.77338 311.3094Q468.88275 310.09064 469.6015 309.46564Q470.33588 308.825 471.57025 308.825Q472.80463 308.825 473.52338 309.5125Q474.24213 310.2 474.24213 311.21564Q474.24213 311.73126 474.02338 312.23126Q473.82025 312.71564 473.32025 313.27814Q472.83588 313.825 471.71088 314.77814Q470.75775 315.575 470.4765 315.8719Q470.21088 316.15314 470.039 316.4344L474.25775 316.4344Z" fill-rule="nonzero"/><path fill="#000000" d="M532.69135 317.45L532.69135 315.3875L528.9726 315.3875L528.9726 314.41876L532.8945 308.85626L533.75385 308.85626L533.75385 314.41876L534.9101 314.41876L534.9101 315.3875L533.75385 315.3875L533.75385 317.45L532.69135 317.45ZM532.69135 314.41876L532.69135 310.5594L530.00385 314.41876L532.69135 314.41876ZM537.94135 312.79376Q537.2851 312.54376 536.957 312.10626Q536.6445 311.65314 536.6445 311.04376Q536.6445 310.10626 537.31635 309.46564Q538.00385 308.825 539.1132 308.825Q540.2382 308.825 540.9257 309.48126Q541.6132 310.1375 541.6132 311.075Q541.6132 311.66876 541.3007 312.10626Q540.9882 312.54376 540.3476 312.79376Q541.1445 313.04376 541.5507 313.6219Q541.957 314.2 541.957 314.9969Q541.957 316.09064 541.1757 316.84064Q540.4101 317.59064 539.12885 317.59064Q537.8632 317.59064 537.082 316.84064Q536.3007 316.09064 536.3007 314.96564Q536.3007 314.1219 536.7226 313.5594Q537.1601 312.9969 537.94135 312.79376ZM537.7226 310.9969Q537.7226 311.60626 538.1132 311.9969Q538.5195 312.3875 539.1445 312.3875Q539.75385 312.3875 540.1445 312.0125Q540.5351 311.6219 540.5351 311.0594Q540.5351 310.48126 540.12885 310.09064Q539.7226 309.6844 539.12885 309.6844Q538.5195 309.6844 538.1132 310.075Q537.7226 310.46564 537.7226 310.9969ZM537.3945 314.96564Q537.3945 315.41876 537.5976 315.84064Q537.81635 316.2625 538.2382 316.4969Q538.6601 316.73126 539.1445 316.73126Q539.8945 316.73126 540.37885 316.2469Q540.87885 315.7625 540.87885 315.0125Q540.87885 314.2469 540.37885 313.7469Q539.87885 313.2469 539.1132 313.2469Q538.3632 313.2469 537.87885 313.7469Q537.3945 314.23126 537.3945 314.96564Z" fill-rule="nonzero"/><path fill="#4285f4" d="M209.5 20.55C209.5 19.997715 209.94771 19.55 210.5 19.55L220.5 19.55C221.05229 19.55 221.5 19.997715 221.5 20.55L221.5 30.55C221.5 31.102285 221.05229 31.55 220.5 31.55L210.5 31.55C209.94771 31.55 209.5 31.102285 209.5 30.55Z" fill-rule="nonzero"/><path fill="#1a1a1a" d="M230.42188 29.55L230.42188 20.95625L233.67188 20.95625Q234.51562 20.95625 234.96875 21.034374Q235.60938 21.14375 236.03125 21.440624Q236.46875 21.7375 236.71875 22.26875Q236.98438 22.8 236.98438 23.440624Q236.98438 24.534374 236.28125 25.3Q235.59375 26.05 233.76562 26.05L231.5625 26.05L231.5625 29.55L230.42188 29.55ZM231.5625 25.05L233.78125 25.05Q234.89062 25.05 235.34375 24.64375Q235.8125 24.221874 235.8125 23.471874Q235.8125 22.940624 235.53125 22.565624Q235.26562 22.175 234.82812 22.05Q234.53125 21.971874 233.76562 21.971874L231.5625 21.971874L231.5625 25.05ZM242.375 29.55L242.375 28.628124Q241.64062 29.690624 240.39062 29.690624Q239.84375 29.690624 239.35938 29.4875Q238.89062 29.26875 238.65625 28.95625Q238.42188 28.628124 238.32812 28.159374Q238.26562 27.8625 238.26562 27.175L238.26562 23.33125L239.32812 23.33125L239.32812 26.784374Q239.32812 27.596874 239.39062 27.89375Q239.48438 28.3 239.79688 28.55Q240.125 28.784374 240.60938 28.784374Q241.07812 28.784374 241.48438 28.55Q241.90625 28.3 242.07812 27.878124Q242.26562 27.45625 242.26562 26.659374L242.26562 23.33125L243.3125 23.33125L243.3125 29.55L242.375 29.55ZM247.59375 28.6125L247.75 29.534374Q247.29688 29.628124 246.95312 29.628124Q246.375 29.628124 246.0625 29.45625Q245.75 29.26875 245.60938 28.971874Q245.48438 28.675 245.48438 27.721874L245.48438 24.14375L244.71875 24.14375L244.71875 23.33125L245.48438 23.33125L245.48438 21.784374L246.53125 21.159374L246.53125 23.33125L247.59375 23.33125L247.59375 24.14375L246.53125 24.14375L246.53125 27.784374Q246.53125 28.2375 246.57812 28.3625Q246.64062 28.4875 246.76562 28.565624Q246.89062 28.64375 247.125 28.64375Q247.3125 28.64375 247.59375 28.6125ZM253.3125 32.08125Q252.4375 30.971874 251.82812 29.503124Q251.23438 28.01875 251.23438 26.440624Q251.23438 25.05 251.67188 23.76875Q252.20312 22.284374 253.3125 20.815624L254.0625 20.815624Q253.35938 22.034374 253.125 22.55Q252.76562 23.3625 252.5625 24.2375Q252.3125 25.33125 252.3125 26.440624Q252.3125 29.26875 254.0625 32.08125L253.3125 32.08125ZM255.39062 29.55L255.39062 20.95625L257.10938 20.95625L259.14062 27.034374Q259.42188 27.89375 259.54688 28.315624Q259.6875 27.846874 260.0 26.940624L262.0625 20.95625L263.59375 20.95625L263.59375 29.55L262.5 29.55L262.5 22.3625L260.0 29.55L258.96875 29.55L256.48438 22.2375L256.48438 29.55L255.39062 29.55ZM264.375 29.55L264.375 20.95625L267.60938 20.95625Q268.59375 20.95625 269.1875 21.221874Q269.78125 21.4875 270.10938 22.034374Q270.45312 22.565624 270.45312 23.159374Q270.45312 23.70625 270.15625 24.190624Q269.85938 24.675 269.25 24.971874Q270.03125 25.20625 270.4375 25.76875Q270.85938 26.315624 270.85938 27.065624Q270.85938 27.659374 270.60938 28.190624Q270.35938 28.70625 269.98438 28.9875Q269.60938 29.26875 269.03125 29.409374Q268.46875 29.55 267.65625 29.55L264.375 29.55ZM265.51562 24.565624L267.375 24.565624Q268.125 24.565624 268.45312 24.471874Q268.89062 24.346874 269.10938 24.05Q269.32812 23.7375 269.32812 23.284374Q269.32812 22.8625 269.125 22.534374Q268.92188 22.20625 268.53125 22.096874Q268.15625 21.971874 267.23438 21.971874L265.51562 21.971874L265.51562 24.565624ZM265.51562 28.534374L267.65625 28.534374Q268.20312 28.534374 268.42188 28.4875Q268.82812 28.425 269.07812 28.26875Q269.34375 28.096874 269.51562 27.784374Q269.6875 27.471874 269.6875 27.065624Q269.6875 26.58125 269.4375 26.221874Q269.20312 25.8625 268.76562 25.721874Q268.32812 25.58125 267.5 25.58125L265.51562 25.58125L265.51562 28.534374ZM272.42188 29.55L272.42188 20.95625L275.67188 20.95625Q276.51562 20.95625 276.96875 21.034374Q277.60938 21.14375 278.03125 21.440624Q278.46875 21.7375 278.71875 22.26875Q278.98438 22.8 278.98438 23.440624Q278.98438 24.534374 278.28125 25.3Q277.59375 26.05 275.76562 26.05L273.5625 26.05L273.5625 29.55L272.42188 29.55ZM273.5625 25.05L275.78125 25.05Q276.89062 25.05 277.34375 24.64375Q277.8125 24.221874 277.8125 23.471874Q277.8125 22.940624 277.53125 22.565624Q277.26562 22.175 276.82812 22.05Q276.53125 21.971874 275.76562 21.971874L273.5625 21.971874L273.5625 25.05ZM280.04688 26.784374L281.10938 26.690624Q281.1875 27.346874 281.46875 27.753124Q281.75 28.159374 282.32812 28.425Q282.92188 28.675 283.65625 28.675Q284.29688 28.675 284.79688 28.4875Q285.29688 28.284374 285.53125 27.95625Q285.78125 27.6125 285.78125 27.221874Q285.78125 26.815624 285.54688 26.51875Q285.3125 26.20625 284.78125 26.003124Q284.42188 25.8625 283.23438 25.58125Q282.0625 25.3 281.59375 25.05Q280.96875 24.721874 280.67188 24.253124Q280.375 23.76875 280.375 23.175Q280.375 22.534374 280.73438 21.971874Q281.10938 21.39375 281.8125 21.1125Q282.53125 20.815624 283.39062 20.815624Q284.34375 20.815624 285.07812 21.128124Q285.8125 21.425 286.20312 22.034374Q286.59375 22.628124 286.625 23.378124L285.53125 23.45625Q285.4375 22.64375 284.92188 22.2375Q284.42188 21.815624 283.4375 21.815624Q282.40625 21.815624 281.9375 22.190624Q281.46875 22.565624 281.46875 23.096874Q281.46875 23.565624 281.79688 23.8625Q282.125 24.159374 283.5 24.471874Q284.89062 24.784374 285.40625 25.01875Q286.15625 25.378124 286.51562 25.909374Q286.875 26.425 286.875 27.128124Q286.875 27.815624 286.48438 28.425Q286.09375 29.01875 285.35938 29.3625Q284.625 29.690624 283.70312 29.690624Q282.53125 29.690624 281.73438 29.3625Q280.95312 29.01875 280.5 28.33125Q280.0625 27.64375 280.04688 26.784374ZM288.98438 32.08125L288.23438 32.08125Q289.98438 29.26875 289.98438 26.440624Q289.98438 25.346874 289.73438 24.253124Q289.53125 23.378124 289.17188 22.565624Q288.9375 22.05 288.23438 20.815624L288.98438 20.815624Q290.07812 22.284374 290.60938 23.76875Q291.0625 25.05 291.0625 26.440624Q291.0625 28.01875 290.45312 29.503124Q289.84375 30.971874 288.98438 32.08125Z" fill-rule="nonzero"/><path fill="#ea4335" d="M307.5 20.55C307.5 19.997715 307.94772 19.55 308.5 19.55L318.5 19.55C319.05228 19.55 319.5 19.997715 319.5 20.55L319.5 30.55C319.5 31.102285 319.05228 31.55 318.5 31.55L308.5 31.55C307.94772 31.55 307.5 31.102285 307.5 30.55Z" fill-rule="nonzero"/><path fill="#1a1a1a" d="M332.45312 26.175L332.45312 25.175L336.07812 25.159374L336.07812 28.346874Q335.25 29.01875 334.35938 29.3625Q333.46875 29.690624 332.53125 29.690624Q331.26562 29.690624 330.21875 29.159374Q329.1875 28.6125 328.65625 27.596874Q328.14062 26.565624 328.14062 25.3Q328.14062 24.034374 328.65625 22.95625Q329.1875 21.8625 330.17188 21.346874Q331.15625 20.815624 332.4375 20.815624Q333.375 20.815624 334.125 21.1125Q334.875 21.409374 335.29688 21.95625Q335.73438 22.4875 335.95312 23.3625L334.9375 23.64375Q334.73438 22.9875 334.4375 22.6125Q334.15625 22.2375 333.625 22.01875Q333.09375 21.784374 332.45312 21.784374Q331.67188 21.784374 331.09375 22.01875Q330.53125 22.253124 330.17188 22.64375Q329.82812 23.034374 329.64062 23.503124Q329.3125 24.3 329.3125 25.221874Q329.3125 26.378124 329.70312 27.159374Q330.10938 27.925 330.85938 28.3Q331.60938 28.675 332.46875 28.675Q333.20312 28.675 333.90625 28.39375Q334.60938 28.096874 334.96875 27.784374L334.96875 26.175L332.45312 26.175ZM341.54688 27.55L342.64062 27.675Q342.39062 28.628124 341.6875 29.159374Q340.98438 29.690624 339.90625 29.690624Q338.54688 29.690624 337.73438 28.846874Q336.9375 28.003124 336.9375 26.4875Q336.9375 24.925 337.75 24.065624Q338.5625 23.190624 339.84375 23.190624Q341.09375 23.190624 341.875 24.034374Q342.67188 24.878124 342.67188 26.425Q342.67188 26.51875 342.67188 26.70625L338.03125 26.70625Q338.09375 27.7375 338.60938 28.284374Q339.125 28.815624 339.90625 28.815624Q340.48438 28.815624 340.89062 28.51875Q341.3125 28.20625 341.54688 27.55ZM338.09375 25.846874L341.5625 25.846874Q341.5 25.05 341.17188 24.659374Q340.65625 24.05 339.85938 24.05Q339.125 24.05 338.625 24.534374Q338.14062 25.01875 338.09375 25.846874ZM346.59375 28.6125L346.75 29.534374Q346.29688 29.628124 345.95312 29.628124Q345.375 29.628124 345.0625 29.45625Q344.75 29.26875 344.60938 28.971874Q344.48438 28.675 344.48438 27.721874L344.48438 24.14375L343.71875 24.14375L343.71875 23.33125L344.48438 23.33125L344.48438 21.784374L345.53125 21.159374L345.53125 23.33125L346.59375 23.33125L346.59375 24.14375L345.53125 24.14375L345.53125 27.784374Q345.53125 28.2375 345.57812 28.3625Q345.64062 28.4875 345.76562 28.565624Q345.89062 28.64375 346.125 28.64375Q346.3125 28.64375 346.59375 28.6125ZM352.3125 32.08125Q351.4375 30.971874 350.82812 29.503124Q350.23438 28.01875 350.23438 26.440624Q350.23438 25.05 350.67188 23.76875Q351.20312 22.284374 352.3125 20.815624L353.0625 20.815624Q352.35938 22.034374 352.125 22.55Q351.76562 23.3625 351.5625 24.2375Q351.3125 25.33125 351.3125 26.440624Q351.3125 29.26875 353.0625 32.08125L352.3125 32.08125ZM354.39062 29.55L354.39062 20.95625L356.10938 20.95625L358.14062 27.034374Q358.42188 27.89375 358.54688 28.315624Q358.6875 27.846874 359.0 26.940624L361.0625 20.95625L362.59375 20.95625L362.59375 29.55L361.5 29.55L361.5 22.3625L359.0 29.55L357.96875 29.55L355.48438 22.2375L355.48438 29.55L354.39062 29.55ZM363.375 29.55L363.375 20.95625L366.60938 20.95625Q367.59375 20.95625 368.1875 21.221874Q368.78125 21.4875 369.10938 22.034374Q369.45312 22.565624 369.45312 23.159374Q369.45312 23.70625 369.15625 24.190624Q368.85938 24.675 368.25 24.971874Q369.03125 25.20625 369.4375 25.76875Q369.85938 26.315624 369.85938 27.065624Q369.85938 27.659374 369.60938 28.190624Q369.35938 28.70625 368.98438 28.9875Q368.60938 29.26875 368.03125 29.409374Q367.46875 29.55 366.65625 29.55L363.375 29.55ZM364.51562 24.565624L366.375 24.565624Q367.125 24.565624 367.45312 24.471874Q367.89062 24.346874 368.10938 24.05Q368.32812 23.7375 368.32812 23.284374Q368.32812 22.8625 368.125 22.534374Q367.92188 22.20625 367.53125 22.096874Q367.15625 21.971874 366.23438 21.971874L364.51562 21.971874L364.51562 24.565624ZM364.51562 28.534374L366.65625 28.534374Q367.20312 28.534374 367.42188 28.4875Q367.82812 28.425 368.07812 28.26875Q368.34375 28.096874 368.51562 27.784374Q368.6875 27.471874 368.6875 27.065624Q368.6875 26.58125 368.4375 26.221874Q368.20312 25.8625 367.76562 25.721874Q367.32812 25.58125 366.5 25.58125L364.51562 25.58125L364.51562 28.534374ZM371.42188 29.55L371.42188 20.95625L374.67188 20.95625Q375.51562 20.95625 375.96875 21.034374Q376.60938 21.14375 377.03125 21.440624Q377.46875 21.7375 377.71875 22.26875Q377.98438 22.8 377.98438 23.440624Q377.98438 24.534374 377.28125 25.3Q376.59375 26.05 374.76562 26.05L372.5625 26.05L372.5625 29.55L371.42188 29.55ZM372.5625 25.05L374.78125 25.05Q375.89062 25.05 376.34375 24.64375Q376.8125 24.221874 376.8125 23.471874Q376.8125 22.940624 376.53125 22.565624Q376.26562 22.175 375.82812 22.05Q375.53125 21.971874 374.76562 21.971874L372.5625 21.971874L372.5625 25.05ZM379.04688 26.784374L380.10938 26.690624Q380.1875 27.346874 380.46875 27.753124Q380.75 28.159374 381.32812 28.425Q381.92188 28.675 382.65625 28.675Q383.29688 28.675 383.79688 28.4875Q384.29688 28.284374 384.53125 27.95625Q384.78125 27.6125 384.78125 27.221874Q384.78125 26.815624 384.54688 26.51875Q384.3125 26.20625 383.78125 26.003124Q383.42188 25.8625 382.23438 25.58125Q381.0625 25.3 380.59375 25.05Q379.96875 24.721874 379.67188 24.253124Q379.375 23.76875 379.375 23.175Q379.375 22.534374 379.73438 21.971874Q380.10938 21.39375 380.8125 21.1125Q381.53125 20.815624 382.39062 20.815624Q383.34375 20.815624 384.07812 21.128124Q384.8125 21.425 385.20312 22.034374Q385.59375 22.628124 385.625 23.378124L384.53125 23.45625Q384.4375 22.64375 383.92188 22.2375Q383.42188 21.815624 382.4375 21.815624Q381.40625 21.815624 380.9375 22.190624Q380.46875 22.565624 380.46875 23.096874Q380.46875 23.565624 380.79688 23.8625Q381.125 24.159374 382.5 24.471874Q383.89062 24.784374 384.40625 25.01875Q385.15625 25.378124 385.51562 25.909374Q385.875 26.425 385.875 27.128124Q385.875 27.815624 385.48438 28.425Q385.09375 29.01875 384.35938 29.3625Q383.625 29.690624 382.70312 29.690624Q381.53125 29.690624 380.73438 29.3625Q379.95312 29.01875 379.5 28.33125Q379.0625 27.64375 379.04688 26.784374ZM387.98438 32.08125L387.23438 32.08125Q388.98438 29.26875 388.98438 26.440624Q388.98438 25.346874 388.73438 24.253124Q388.53125 23.378124 388.17188 22.565624Q387.9375 22.05 387.23438 20.815624L387.98438 20.815624Q389.07812 22.284374 389.60938 23.76875Q390.0625 25.05 390.0625 26.440624Q390.0625 28.01875 389.45312 29.503124Q388.84375 30.971874 387.98438 32.08125Z" fill-rule="nonzero"/></svg>