<svg version="1.1" viewBox="0.0 0.0 462.0 285.0" fill="none" stroke="none" stroke-linecap="square" stroke-miterlimit="10" width="462" height="285" xmlns:xlink="http://www.w3.org/1999/xlink" xmlns="http://www.w3.org/2000/svg"><path fill="#ffffff" d="M0 0L462.0 0L462.0 285.0L0 285.0L0 0Z" fill-rule="nonzero"/><path stroke="#cccccc" stroke-width="1.0" stroke-linecap="butt" d="M98.5 44.5L98.5 218.5" fill-rule="nonzero"/><path stroke="#cccccc" stroke-width="1.0" stroke-linecap="butt" d="M186.5 44.5L186.5 218.5" fill-rule="nonzero"/><path stroke="#cccccc" stroke-width="1.0" stroke-linecap="butt" d="M273.5 44.5L273.5 218.5" fill-rule="nonzero"/><path stroke="#cccccc" stroke-width="1.0" stroke-linecap="butt" d="M360.5 44.5L360.5 218.5" fill-rule="nonzero"/><path stroke="#cccccc" stroke-width="1.0" stroke-linecap="butt" d="M447.5 44.5L447.5 218.5" fill-rule="nonzero"/><path stroke="#333333" stroke-width="1.0" stroke-linecap="butt" d="M55.5 218.5L447.5 218.5" fill-rule="nonzero"/><path stroke="#cccccc" stroke-width="1.0" stroke-linecap="butt" d="M55.5 175.5L447.5 175.5" fill-rule="nonzero"/><path stroke="#cccccc" stroke-width="1.0" stroke-linecap="butt" d="M55.5 131.5L447.5 131.5" fill-rule="nonzero"/><path stroke="#cccccc" stroke-width="1.0" stroke-linecap="butt" d="M55.5 88.5L447.5 88.5" fill-rule="nonzero"/><path stroke="#cccccc" stroke-width="1.0" stroke-linecap="butt" d="M55.5 44.5L447.5 44.5" fill-rule="nonzero"/><clipPath id="id_0"><path d="M55.25 44.75L447.75 44.75L447.75 218.75L55.25 218.75L55.25 44.75Z" clip-rule="nonzero"/></clipPath><path stroke="#4285f4" stroke-width="2.0" stroke-linecap="butt" clip-path="url(#id_0)" d="M55.25 180.6701L98.861115 184.82L186.08333 182.21L447.75 183.863" fill-rule="nonzero"/><path stroke="#ea4335" stroke-width="2.0" stroke-linecap="butt" clip-path="url(#id_0)" d="M55.25 71.4416L98.861115 75.2L186.08333 74.33L447.75 71.2328" fill-rule="nonzero"/><path fill="#000000" fill-opacity="0.0" clip-path="url(#id_0)" d="M58.25 180.6701C58.25 182.32695 56.906853 183.6701 55.25 183.6701C53.593147 183.6701 52.25 182.32695 52.25 180.6701C52.25 179.01324 53.593147 177.6701 55.25 177.6701C56.906853 177.6701 58.25 179.01324 58.25 180.6701Z" fill-rule="nonzero"/><path fill="#000000" fill-opacity="0.0" clip-path="url(#id_0)" d="M101.861115 184.82C101.861115 186.47685 100.51797 187.82 98.861115 187.82C97.204254 187.82 95.861115 186.47685 95.861115 184.82C95.861115 183.16315 97.204254 181.82 98.861115 181.82C100.51797 181.82 101.861115 183.16315 101.861115 184.82Z" fill-rule="nonzero"/><path fill="#000000" fill-opacity="0.0" clip-path="url(#id_0)" d="M189.08333 182.21C189.08333 183.86685 187.74019 185.21 186.08333 185.21C184.42648 185.21 183.08333 183.86685 183.08333 182.21C183.08333 180.55315 184.42648 179.21 186.08333 179.21C187.74019 179.21 189.08333 180.55315 189.08333 182.21Z" fill-rule="nonzero"/><path fill="#000000" fill-opacity="0.0" clip-path="url(#id_0)" d="M450.75 183.863C450.75 185.51985 449.40686 186.863 447.75 186.863C446.09314 186.863 444.75 185.51985 444.75 183.863C444.75 182.20615 446.09314 180.863 447.75 180.863C449.40686 180.863 450.75 182.20615 450.75 183.863Z" fill-rule="nonzero"/><path fill="#000000" fill-opacity="0.0" clip-path="url(#id_0)" d="M58.25 71.4416C58.25 73.09846 56.906853 74.4416 55.25 74.4416C53.593147 74.4416 52.25 73.09846 52.25 71.4416C52.25 69.784744 53.593147 68.4416 55.25 68.4416C56.906853 68.4416 58.25 69.784744 58.25 71.4416Z" fill-rule="nonzero"/><path fill="#000000" fill-opacity="0.0" clip-path="url(#id_0)" d="M101.861115 75.2C101.861115 76.85686 100.51797 78.2 98.861115 78.2C97.204254 78.2 95.861115 76.85686 95.861115 75.2C95.861115 73.543144 97.204254 72.2 98.861115 72.2C100.51797 72.2 101.861115 73.543144 101.861115 75.2Z" fill-rule="nonzero"/><path fill="#000000" fill-opacity="0.0" clip-path="url(#id_0)" d="M189.08333 74.33C189.08333 75.986855 187.74019 77.33 186.08333 77.33C184.42648 77.33 183.08333 75.986855 183.08333 74.33C183.08333 72.67315 184.42648 71.33 186.08333 71.33C187.74019 71.33 189.08333 72.67315 189.08333 74.33Z" fill-rule="nonzero"/><path fill="#000000" fill-opacity="0.0" clip-path="url(#id_0)" d="M450.75 71.2328C450.75 72.889656 449.40686 74.2328 447.75 74.2328C446.09314 74.2328 444.75 72.889656 444.75 71.2328C444.75 69.57594 446.09314 68.2328 447.75 68.2328C449.40686 68.2328 450.75 69.57594 450.75 71.2328Z" fill-rule="nonzero"/><path fill="#000000" d="M226.54688 264.98438L227.60938 264.89062Q227.6875 265.54688 227.96875 265.95312Q228.25 266.35938 228.82812 266.625Q229.42188 266.875 230.15625 266.875Q230.79688 266.875 231.29688 266.6875Q231.79688 266.48438 232.03125 266.15625Q232.28125 265.8125 232.28125 265.42188Q232.28125 265.01562 232.04688 264.71875Q231.8125 264.40625 231.28125 264.20312Q230.92188 264.0625 229.73438 263.78125Q228.5625 263.5 228.09375 263.25Q227.46875 262.92188 227.17188 262.45312Q226.875 261.96875 226.875 261.375Q226.875 260.73438 227.23438 260.17188Q227.60938 259.59375 228.3125 259.3125Q229.03125 259.01562 229.89062 259.01562Q230.84375 259.01562 231.57812 259.32812Q232.3125 259.625 232.70312 260.23438Q233.09375 260.82812 233.125 261.57812L232.03125 261.65625Q231.9375 260.84375 231.42188 260.4375Q230.92188 260.01562 229.9375 260.01562Q228.90625 260.01562 228.4375 260.39062Q227.96875 260.76562 227.96875 261.29688Q227.96875 261.76562 228.29688 262.0625Q228.625 262.35938 230.0 262.67188Q231.39062 262.98438 231.90625 263.21875Q232.65625 263.57812 233.01562 264.10938Q233.375 264.625 233.375 265.32812Q233.375 266.01562 232.98438 266.625Q232.59375 267.21875 231.85938 267.5625Q231.125 267.89062 230.20312 267.89062Q229.03125 267.89062 228.23438 267.5625Q227.45312 267.21875 227.0 266.53125Q226.5625 265.84375 226.54688 264.98438ZM234.79688 260.375L234.79688 259.15625L235.85938 259.15625L235.85938 260.375L234.79688 260.375ZM234.79688 267.75L234.79688 261.53125L235.85938 261.53125L235.85938 267.75L234.79688 267.75ZM237.23438 267.75L237.23438 266.89062L241.20312 262.34375Q240.51562 262.375 240.0 262.375L237.46875 262.375L237.46875 261.53125L242.5625 261.53125L242.5625 262.21875L239.1875 266.17188L238.53125 266.89062Q239.25 266.84375 239.85938 266.84375L242.75 266.84375L242.75 267.75L237.23438 267.75ZM247.04688 265.75L248.14062 265.875Q247.89062 266.82812 247.1875 267.35938Q246.48438 267.89062 245.40625 267.89062Q244.04688 267.89062 243.23438 267.04688Q242.4375 266.20312 242.4375 264.6875Q242.4375 263.125 243.25 262.26562Q244.0625 261.39062 245.34375 261.39062Q246.59375 261.39062 247.375 262.23438Q248.17188 263.07812 248.17188 264.625Q248.17188 264.71875 248.17188 264.90625L243.53125 264.90625Q243.59375 265.9375 244.10938 266.48438Q244.625 267.01562 245.40625 267.01562Q245.98438 267.01562 246.39062 266.71875Q246.8125 266.40625 247.04688 265.75ZM243.59375 264.04688L247.0625 264.04688Q247.0 263.25 246.67188 262.85938Q246.15625 262.25 245.35938 262.25Q244.625 262.25 244.125 262.73438Q243.64062 263.21875 243.59375 264.04688ZM254.8125 270.28125Q253.9375 269.17188 253.32812 267.70312Q252.73438 266.21875 252.73438 264.64062Q252.73438 263.25 253.17188 261.96875Q253.70312 260.48438 254.8125 259.01562L255.5625 259.01562Q254.85938 260.23438 254.625 260.75Q254.26562 261.5625 254.0625 262.4375Q253.8125 263.53125 253.8125 264.64062Q253.8125 267.46875 255.5625 270.28125L254.8125 270.28125ZM260.95312 264.375L260.95312 263.375L264.57812 263.35938L264.57812 266.54688Q263.75 267.21875 262.85938 267.5625Q261.96875 267.89062 261.03125 267.89062Q259.76562 267.89062 258.71875 267.35938Q257.6875 266.8125 257.15625 265.79688Q256.64062 264.76562 256.64062 263.5Q256.64062 262.23438 257.15625 261.15625Q257.6875 260.0625 258.67188 259.54688Q259.65625 259.01562 260.9375 259.01562Q261.875 259.01562 262.625 259.3125Q263.375 259.60938 263.79688 260.15625Q264.23438 260.6875 264.45312 261.5625L263.4375 261.84375Q263.23438 261.1875 262.9375 260.8125Q262.65625 260.4375 262.125 260.21875Q261.59375 259.98438 260.95312 259.98438Q260.17188 259.98438 259.59375 260.21875Q259.03125 260.45312 258.67188 260.84375Q258.32812 261.23438 258.14062 261.70312Q257.8125 262.5 257.8125 263.42188Q257.8125 264.57812 258.20312 265.35938Q258.60938 266.125 259.35938 266.5Q260.10938 266.875 260.96875 266.875Q261.70312 266.875 262.40625 266.59375Q263.10938 266.29688 263.46875 265.98438L263.46875 264.375L260.95312 264.375ZM265.875 267.75L265.875 259.15625L269.10938 259.15625Q270.09375 259.15625 270.6875 259.42188Q271.28125 259.6875 271.60938 260.23438Q271.95312 260.76562 271.95312 261.35938Q271.95312 261.90625 271.65625 262.39062Q271.35938 262.875 270.75 263.17188Q271.53125 263.40625 271.9375 263.96875Q272.35938 264.51562 272.35938 265.26562Q272.35938 265.85938 272.10938 266.39062Q271.85938 266.90625 271.48438 267.1875Q271.10938 267.46875 270.53125 267.60938Q269.96875 267.75 269.15625 267.75L265.875 267.75ZM267.01562 262.76562L268.875 262.76562Q269.625 262.76562 269.95312 262.67188Q270.39062 262.54688 270.60938 262.25Q270.82812 261.9375 270.82812 261.48438Q270.82812 261.0625 270.625 260.73438Q270.42188 260.40625 270.03125 260.29688Q269.65625 260.17188 268.73438 260.17188L267.01562 260.17188L267.01562 262.76562ZM267.01562 266.73438L269.15625 266.73438Q269.70312 266.73438 269.92188 266.6875Q270.32812 266.625 270.57812 266.46875Q270.84375 266.29688 271.01562 265.98438Q271.1875 265.67188 271.1875 265.26562Q271.1875 264.78125 270.9375 264.42188Q270.70312 264.0625 270.26562 263.92188Q269.82812 263.78125 269.0 263.78125L267.01562 263.78125L267.01562 266.73438ZM274.48438 270.28125L273.73438 270.28125Q275.48438 267.46875 275.48438 264.64062Q275.48438 263.54688 275.23438 262.45312Q275.03125 261.57812 274.67188 260.76562Q274.4375 260.25 273.73438 259.01562L274.48438 259.01562Q275.57812 260.48438 276.10938 261.96875Q276.5625 263.25 276.5625 264.64062Q276.5625 266.21875 275.95312 267.70312Q275.34375 269.17188 274.48438 270.28125Z" fill-rule="nonzero"/><path fill="#000000" d="M42.75 218.51562Q42.75 216.98438 43.0625 216.0625Q43.375 215.125 43.984375 214.625Q44.609375 214.125 45.546875 214.125Q46.234375 214.125 46.75 214.40625Q47.28125 214.6875 47.625 215.21875Q47.96875 215.73438 48.15625 216.48438Q48.34375 217.23438 48.34375 218.51562Q48.34375 220.03125 48.03125 220.95312Q47.734375 221.875 47.109375 222.39062Q46.5 222.89062 45.546875 222.89062Q44.3125 222.89062 43.59375 222.0Q42.75 220.9375 42.75 218.51562ZM43.828125 218.51562Q43.828125 220.625 44.328125 221.32812Q44.828125 222.03125 45.546875 222.03125Q46.28125 222.03125 46.765625 221.32812Q47.265625 220.625 47.265625 218.51562Q47.265625 216.39062 46.765625 215.70312Q46.28125 215.0 45.53125 215.0Q44.8125 215.0 44.375 215.60938Q43.828125 216.39062 43.828125 218.51562Z" fill-rule="nonzero"/><path fill="#000000" d="M21.75 177.0L22.859375 176.90625Q22.984375 177.71875 23.421875 178.125Q23.875 178.53125 24.515625 178.53125Q25.265625 178.53125 25.796875 177.95312Q26.328125 177.375 26.328125 176.4375Q26.328125 175.53125 25.8125 175.01562Q25.3125 174.48438 24.484375 174.48438Q23.984375 174.48438 23.5625 174.71875Q23.15625 174.95312 22.921875 175.3125L21.9375 175.1875L22.765625 170.78125L27.046875 170.78125L27.046875 171.78125L23.609375 171.78125L23.15625 174.09375Q23.921875 173.54688 24.765625 173.54688Q25.890625 173.54688 26.65625 174.32812Q27.4375 175.10938 27.4375 176.34375Q27.4375 177.5 26.765625 178.35938Q25.9375 179.39062 24.515625 179.39062Q23.34375 179.39062 22.59375 178.73438Q21.859375 178.07812 21.75 177.0ZM28.75 175.01562Q28.75 173.48438 29.0625 172.5625Q29.375 171.625 29.984375 171.125Q30.609375 170.625 31.546875 170.625Q32.234375 170.625 32.75 170.90625Q33.28125 171.1875 33.625 171.71875Q33.96875 172.23438 34.15625 172.98438Q34.34375 173.73438 34.34375 175.01562Q34.34375 176.53125 34.03125 177.45312Q33.734375 178.375 33.109375 178.89062Q32.5 179.39062 31.546875 179.39062Q30.3125 179.39062 29.59375 178.5Q28.75 177.4375 28.75 175.01562ZM29.828125 175.01562Q29.828125 177.125 30.328125 177.82812Q30.828125 178.53125 31.546875 178.53125Q32.28125 178.53125 32.765625 177.82812Q33.265625 177.125 33.265625 175.01562Q33.265625 172.89062 32.765625 172.20312Q32.28125 171.5 31.53125 171.5Q30.8125 171.5 30.375 172.10938Q29.828125 172.89062 29.828125 175.01562ZM35.75 175.01562Q35.75 173.48438 36.0625 172.5625Q36.375 171.625 36.984375 171.125Q37.609375 170.625 38.546875 170.625Q39.234375 170.625 39.75 170.90625Q40.28125 171.1875 40.625 171.71875Q40.96875 172.23438 41.15625 172.98438Q41.34375 173.73438 41.34375 175.01562Q41.34375 176.53125 41.03125 177.45312Q40.734375 178.375 40.109375 178.89062Q39.5 179.39062 38.546875 179.39062Q37.3125 179.39062 36.59375 178.5Q35.75 177.4375 35.75 175.01562ZM36.828125 175.01562Q36.828125 177.125 37.328125 177.82812Q37.828125 178.53125 38.546875 178.53125Q39.28125 178.53125 39.765625 177.82812Q40.265625 177.125 40.265625 175.01562Q40.265625 172.89062 39.765625 172.20312Q39.28125 171.5 38.53125 171.5Q37.8125 171.5 37.375 172.10938Q36.828125 172.89062 36.828125 175.01562ZM42.75 175.01562Q42.75 173.48438 43.0625 172.5625Q43.375 171.625 43.984375 171.125Q44.609375 170.625 45.546875 170.625Q46.234375 170.625 46.75 170.90625Q47.28125 171.1875 47.625 171.71875Q47.96875 172.23438 48.15625 172.98438Q48.34375 173.73438 48.34375 175.01562Q48.34375 176.53125 48.03125 177.45312Q47.734375 178.375 47.109375 178.89062Q46.5 179.39062 45.546875 179.39062Q44.3125 179.39062 43.59375 178.5Q42.75 177.4375 42.75 175.01562ZM43.828125 175.01562Q43.828125 177.125 44.328125 177.82812Q44.828125 178.53125 45.546875 178.53125Q46.28125 178.53125 46.765625 177.82812Q47.265625 177.125 47.265625 175.01562Q47.265625 172.89062 46.765625 172.20312Q46.28125 171.5 45.53125 171.5Q44.8125 171.5 44.375 172.10938Q43.828125 172.89062 43.828125 175.01562Z" fill-rule="nonzero"/><path fill="#000000" d="M18.71875 135.75L17.671875 135.75L17.671875 129.03125Q17.28125 129.39062 16.65625 129.76562Q16.046875 130.125 15.5625 130.29688L15.5625 129.28125Q16.4375 128.85938 17.09375 128.28125Q17.765625 127.6875 18.046875 127.125L18.71875 127.125L18.71875 135.75ZM21.75 131.51562Q21.75 129.98438 22.0625 129.0625Q22.375 128.125 22.984375 127.625Q23.609375 127.125 24.546875 127.125Q25.234375 127.125 25.75 127.40625Q26.28125 127.6875 26.625 128.21875Q26.96875 128.73438 27.15625 129.48438Q27.34375 130.23438 27.34375 131.51562Q27.34375 133.03125 27.03125 133.95312Q26.734375 134.875 26.109375 135.39062Q25.5 135.89062 24.546875 135.89062Q23.3125 135.89062 22.59375 135.0Q21.75 133.9375 21.75 131.51562ZM22.828125 131.51562Q22.828125 133.625 23.328125 134.32812Q23.828125 135.03125 24.546875 135.03125Q25.28125 135.03125 25.765625 134.32812Q26.265625 133.625 26.265625 131.51562Q26.265625 129.39062 25.765625 128.70312Q25.28125 128.0 24.53125 128.0Q23.8125 128.0 23.375 128.60938Q22.828125 129.39062 22.828125 131.51562ZM28.75 131.51562Q28.75 129.98438 29.0625 129.0625Q29.375 128.125 29.984375 127.625Q30.609375 127.125 31.546875 127.125Q32.234375 127.125 32.75 127.40625Q33.28125 127.6875 33.625 128.21875Q33.96875 128.73438 34.15625 129.48438Q34.34375 130.23438 34.34375 131.51562Q34.34375 133.03125 34.03125 133.95312Q33.734375 134.875 33.109375 135.39062Q32.5 135.89062 31.546875 135.89062Q30.3125 135.89062 29.59375 135.0Q28.75 133.9375 28.75 131.51562ZM29.828125 131.51562Q29.828125 133.625 30.328125 134.32812Q30.828125 135.03125 31.546875 135.03125Q32.28125 135.03125 32.765625 134.32812Q33.265625 133.625 33.265625 131.51562Q33.265625 129.39062 32.765625 128.70312Q32.28125 128.0 31.53125 128.0Q30.8125 128.0 30.375 128.60938Q29.828125 129.39062 29.828125 131.51562ZM35.75 131.51562Q35.75 129.98438 36.0625 129.0625Q36.375 128.125 36.984375 127.625Q37.609375 127.125 38.546875 127.125Q39.234375 127.125 39.75 127.40625Q40.28125 127.6875 40.625 128.21875Q40.96875 128.73438 41.15625 129.48438Q41.34375 130.23438 41.34375 131.51562Q41.34375 133.03125 41.03125 133.95312Q40.734375 134.875 40.109375 135.39062Q39.5 135.89062 38.546875 135.89062Q37.3125 135.89062 36.59375 135.0Q35.75 133.9375 35.75 131.51562ZM36.828125 131.51562Q36.828125 133.625 37.328125 134.32812Q37.828125 135.03125 38.546875 135.03125Q39.28125 135.03125 39.765625 134.32812Q40.265625 133.625 40.265625 131.51562Q40.265625 129.39062 39.765625 128.70312Q39.28125 128.0 38.53125 128.0Q37.8125 128.0 37.375 128.60938Q36.828125 129.39062 36.828125 131.51562ZM42.75 131.51562Q42.75 129.98438 43.0625 129.0625Q43.375 128.125 43.984375 127.625Q44.609375 127.125 45.546875 127.125Q46.234375 127.125 46.75 127.40625Q47.28125 127.6875 47.625 128.21875Q47.96875 128.73438 48.15625 129.48438Q48.34375 130.23438 48.34375 131.51562Q48.34375 133.03125 48.03125 133.95312Q47.734375 134.875 47.109375 135.39062Q46.5 135.89062 45.546875 135.89062Q44.3125 135.89062 43.59375 135.0Q42.75 133.9375 42.75 131.51562ZM43.828125 131.51562Q43.828125 133.625 44.328125 134.32812Q44.828125 135.03125 45.546875 135.03125Q46.28125 135.03125 46.765625 134.32812Q47.265625 133.625 47.265625 131.51562Q47.265625 129.39062 46.765625 128.70312Q46.28125 128.0 45.53125 128.0Q44.8125 128.0 44.375 128.60938Q43.828125 129.39062 43.828125 131.51562Z" fill-rule="nonzero"/><path fill="#000000" d="M18.71875 92.25L17.671875 92.25L17.671875 85.53125Q17.28125 85.890625 16.65625 86.265625Q16.046875 86.625 15.5625 86.796875L15.5625 85.78125Q16.4375 85.359375 17.09375 84.78125Q17.765625 84.1875 18.046875 83.625L18.71875 83.625L18.71875 92.25ZM21.75 90.0L22.859375 89.90625Q22.984375 90.71875 23.421875 91.125Q23.875 91.53125 24.515625 91.53125Q25.265625 91.53125 25.796875 90.953125Q26.328125 90.375 26.328125 89.4375Q26.328125 88.53125 25.8125 88.015625Q25.3125 87.484375 24.484375 87.484375Q23.984375 87.484375 23.5625 87.71875Q23.15625 87.953125 22.921875 88.3125L21.9375 88.1875L22.765625 83.78125L27.046875 83.78125L27.046875 84.78125L23.609375 84.78125L23.15625 87.09375Q23.921875 86.546875 24.765625 86.546875Q25.890625 86.546875 26.65625 87.328125Q27.4375 88.109375 27.4375 89.34375Q27.4375 90.5 26.765625 91.359375Q25.9375 92.390625 24.515625 92.390625Q23.34375 92.390625 22.59375 91.734375Q21.859375 91.078125 21.75 90.0ZM28.75 88.015625Q28.75 86.484375 29.0625 85.5625Q29.375 84.625 29.984375 84.125Q30.609375 83.625 31.546875 83.625Q32.234375 83.625 32.75 83.90625Q33.28125 84.1875 33.625 84.71875Q33.96875 85.234375 34.15625 85.984375Q34.34375 86.734375 34.34375 88.015625Q34.34375 89.53125 34.03125 90.453125Q33.734375 91.375 33.109375 91.890625Q32.5 92.390625 31.546875 92.390625Q30.3125 92.390625 29.59375 91.5Q28.75 90.4375 28.75 88.015625ZM29.828125 88.015625Q29.828125 90.125 30.328125 90.828125Q30.828125 91.53125 31.546875 91.53125Q32.28125 91.53125 32.765625 90.828125Q33.265625 90.125 33.265625 88.015625Q33.265625 85.890625 32.765625 85.203125Q32.28125 84.5 31.53125 84.5Q30.8125 84.5 30.375 85.109375Q29.828125 85.890625 29.828125 88.015625ZM35.75 88.015625Q35.75 86.484375 36.0625 85.5625Q36.375 84.625 36.984375 84.125Q37.609375 83.625 38.546875 83.625Q39.234375 83.625 39.75 83.90625Q40.28125 84.1875 40.625 84.71875Q40.96875 85.234375 41.15625 85.984375Q41.34375 86.734375 41.34375 88.015625Q41.34375 89.53125 41.03125 90.453125Q40.734375 91.375 40.109375 91.890625Q39.5 92.390625 38.546875 92.390625Q37.3125 92.390625 36.59375 91.5Q35.75 90.4375 35.75 88.015625ZM36.828125 88.015625Q36.828125 90.125 37.328125 90.828125Q37.828125 91.53125 38.546875 91.53125Q39.28125 91.53125 39.765625 90.828125Q40.265625 90.125 40.265625 88.015625Q40.265625 85.890625 39.765625 85.203125Q39.28125 84.5 38.53125 84.5Q37.8125 84.5 37.375 85.109375Q36.828125 85.890625 36.828125 88.015625ZM42.75 88.015625Q42.75 86.484375 43.0625 85.5625Q43.375 84.625 43.984375 84.125Q44.609375 83.625 45.546875 83.625Q46.234375 83.625 46.75 83.90625Q47.28125 84.1875 47.625 84.71875Q47.96875 85.234375 48.15625 85.984375Q48.34375 86.734375 48.34375 88.015625Q48.34375 89.53125 48.03125 90.453125Q47.734375 91.375 47.109375 91.890625Q46.5 92.390625 45.546875 92.390625Q44.3125 92.390625 43.59375 91.5Q42.75 90.4375 42.75 88.015625ZM43.828125 88.015625Q43.828125 90.125 44.328125 90.828125Q44.828125 91.53125 45.546875 91.53125Q46.28125 91.53125 46.765625 90.828125Q47.265625 90.125 47.265625 88.015625Q47.265625 85.890625 46.765625 85.203125Q46.28125 84.5 45.53125 84.5Q44.8125 84.5 44.375 85.109375Q43.828125 85.890625 43.828125 88.015625Z" fill-rule="nonzero"/><path fill="#000000" d="M20.296875 47.734375L20.296875 48.75L14.609375 48.75Q14.609375 48.375 14.734375 48.015625Q14.953125 47.4375 15.421875 46.875Q15.90625 46.3125 16.8125 45.578125Q18.21875 44.421875 18.703125 43.75Q19.203125 43.078125 19.203125 42.484375Q19.203125 41.859375 18.75 41.4375Q18.296875 41.0 17.578125 41.0Q16.8125 41.0 16.359375 41.453125Q15.90625 41.90625 15.890625 42.71875L14.8125 42.609375Q14.921875 41.390625 15.640625 40.765625Q16.375 40.125 17.609375 40.125Q18.84375 40.125 19.5625 40.8125Q20.28125 41.5 20.28125 42.515625Q20.28125 43.03125 20.0625 43.53125Q19.859375 44.015625 19.359375 44.578125Q18.875 45.125 17.75 46.078125Q16.796875 46.875 16.515625 47.171875Q16.25 47.453125 16.078125 47.734375L20.296875 47.734375ZM21.75 44.515625Q21.75 42.984375 22.0625 42.0625Q22.375 41.125 22.984375 40.625Q23.609375 40.125 24.546875 40.125Q25.234375 40.125 25.75 40.40625Q26.28125 40.6875 26.625 41.21875Q26.96875 41.734375 27.15625 42.484375Q27.34375 43.234375 27.34375 44.515625Q27.34375 46.03125 27.03125 46.953125Q26.734375 47.875 26.109375 48.390625Q25.5 48.890625 24.546875 48.890625Q23.3125 48.890625 22.59375 48.0Q21.75 46.9375 21.75 44.515625ZM22.828125 44.515625Q22.828125 46.625 23.328125 47.328125Q23.828125 48.03125 24.546875 48.03125Q25.28125 48.03125 25.765625 47.328125Q26.265625 46.625 26.265625 44.515625Q26.265625 42.390625 25.765625 41.703125Q25.28125 41.0 24.53125 41.0Q23.8125 41.0 23.375 41.609375Q22.828125 42.390625 22.828125 44.515625ZM28.75 44.515625Q28.75 42.984375 29.0625 42.0625Q29.375 41.125 29.984375 40.625Q30.609375 40.125 31.546875 40.125Q32.234375 40.125 32.75 40.40625Q33.28125 40.6875 33.625 41.21875Q33.96875 41.734375 34.15625 42.484375Q34.34375 43.234375 34.34375 44.515625Q34.34375 46.03125 34.03125 46.953125Q33.734375 47.875 33.109375 48.390625Q32.5 48.890625 31.546875 48.890625Q30.3125 48.890625 29.59375 48.0Q28.75 46.9375 28.75 44.515625ZM29.828125 44.515625Q29.828125 46.625 30.328125 47.328125Q30.828125 48.03125 31.546875 48.03125Q32.28125 48.03125 32.765625 47.328125Q33.265625 46.625 33.265625 44.515625Q33.265625 42.390625 32.765625 41.703125Q32.28125 41.0 31.53125 41.0Q30.8125 41.0 30.375 41.609375Q29.828125 42.390625 29.828125 44.515625ZM35.75 44.515625Q35.75 42.984375 36.0625 42.0625Q36.375 41.125 36.984375 40.625Q37.609375 40.125 38.546875 40.125Q39.234375 40.125 39.75 40.40625Q40.28125 40.6875 40.625 41.21875Q40.96875 41.734375 41.15625 42.484375Q41.34375 43.234375 41.34375 44.515625Q41.34375 46.03125 41.03125 46.953125Q40.734375 47.875 40.109375 48.390625Q39.5 48.890625 38.546875 48.890625Q37.3125 48.890625 36.59375 48.0Q35.75 46.9375 35.75 44.515625ZM36.828125 44.515625Q36.828125 46.625 37.328125 47.328125Q37.828125 48.03125 38.546875 48.03125Q39.28125 48.03125 39.765625 47.328125Q40.265625 46.625 40.265625 44.515625Q40.265625 42.390625 39.765625 41.703125Q39.28125 41.0 38.53125 41.0Q37.8125 41.0 37.375 41.609375Q36.828125 42.390625 36.828125 44.515625ZM42.75 44.515625Q42.75 42.984375 43.0625 42.0625Q43.375 41.125 43.984375 40.625Q44.609375 40.125 45.546875 40.125Q46.234375 40.125 46.75 40.40625Q47.28125 40.6875 47.625 41.21875Q47.96875 41.734375 48.15625 42.484375Q48.34375 43.234375 48.34375 44.515625Q48.34375 46.03125 48.03125 46.953125Q47.734375 47.875 47.109375 48.390625Q46.5 48.890625 45.546875 48.890625Q44.3125 48.890625 43.59375 48.0Q42.75 46.9375 42.75 44.515625ZM43.828125 44.515625Q43.828125 46.625 44.328125 47.328125Q44.828125 48.03125 45.546875 48.03125Q46.28125 48.03125 46.765625 47.328125Q47.265625 46.625 47.265625 44.515625Q47.265625 42.390625 46.765625 41.703125Q46.28125 41.0 45.53125 41.0Q44.8125 41.0 44.375 41.609375Q43.828125 42.390625 43.828125 44.515625Z" fill-rule="nonzero"/><path fill="#000000" d="M97.90799 234.73438L97.90799 235.75L92.22049 235.75Q92.22049 235.375 92.34549 235.01562Q92.56424 234.4375 93.03299 233.875Q93.517365 233.3125 94.423615 232.57812Q95.829865 231.42188 96.31424 230.75Q96.81424 230.07812 96.81424 229.48438Q96.81424 228.85938 96.361115 228.4375Q95.90799 228.0 95.18924 228.0Q94.423615 228.0 93.97049 228.45312Q93.517365 228.90625 93.50174 229.71875L92.423615 229.60938Q92.53299 228.39062 93.25174 227.76562Q93.986115 227.125 95.22049 227.125Q96.454865 227.125 97.173615 227.8125Q97.892365 228.5 97.892365 229.51562Q97.892365 230.03125 97.673615 230.53125Q97.47049 231.01562 96.97049 231.57812Q96.486115 232.125 95.361115 233.07812Q94.40799 233.875 94.12674 234.17188Q93.861115 234.45312 93.68924 234.73438L97.90799 234.73438ZM99.361115 231.51562Q99.361115 229.98438 99.673615 229.0625Q99.986115 228.125 100.59549 227.625Q101.22049 227.125 102.15799 227.125Q102.84549 227.125 103.361115 227.40625Q103.892365 227.6875 104.236115 228.21875Q104.579865 228.73438 104.767365 229.48438Q104.954865 230.23438 104.954865 231.51562Q104.954865 233.03125 104.642365 233.95312Q104.34549 234.875 103.72049 235.39062Q103.111115 235.89062 102.15799 235.89062Q100.923615 235.89062 100.204865 235.0Q99.361115 233.9375 99.361115 231.51562ZM100.43924 231.51562Q100.43924 233.625 100.93924 234.32812Q101.43924 235.03125 102.15799 235.03125Q102.892365 235.03125 103.37674 234.32812Q103.87674 233.625 103.87674 231.51562Q103.87674 229.39062 103.37674 228.70312Q102.892365 228.0 102.142365 228.0Q101.423615 228.0 100.986115 228.60938Q100.43924 229.39062 100.43924 231.51562Z" fill-rule="nonzero"/><path fill="#000000" d="M182.95833 235.75L182.95833 233.6875L179.23958 233.6875L179.23958 232.71875L183.16145 227.15625L184.02083 227.15625L184.02083 232.71875L185.17708 232.71875L185.17708 233.6875L184.02083 233.6875L184.02083 235.75L182.95833 235.75ZM182.95833 232.71875L182.95833 228.85938L180.27083 232.71875L182.95833 232.71875ZM186.58333 231.51562Q186.58333 229.98438 186.89583 229.0625Q187.20833 228.125 187.8177 227.625Q188.4427 227.125 189.3802 227.125Q190.0677 227.125 190.58333 227.40625Q191.11458 227.6875 191.45833 228.21875Q191.80208 228.73438 191.98958 229.48438Q192.17708 230.23438 192.17708 231.51562Q192.17708 233.03125 191.86458 233.95312Q191.5677 234.875 190.9427 235.39062Q190.33333 235.89062 189.3802 235.89062Q188.14583 235.89062 187.42708 235.0Q186.58333 233.9375 186.58333 231.51562ZM187.66145 231.51562Q187.66145 233.625 188.16145 234.32812Q188.66145 235.03125 189.3802 235.03125Q190.11458 235.03125 190.59895 234.32812Q191.09895 233.625 191.09895 231.51562Q191.09895 229.39062 190.59895 228.70312Q190.11458 228.0 189.36458 228.0Q188.64583 228.0 188.20833 228.60938Q187.66145 229.39062 187.66145 231.51562Z" fill-rule="nonzero"/><path fill="#000000" d="M272.2743 229.26562L271.22742 229.34375Q271.0868 228.71875 270.8368 228.4375Q270.3993 227.98438 269.7743 227.98438Q269.2743 227.98438 268.88367 228.26562Q268.3993 228.64062 268.10242 229.34375Q267.82117 230.03125 267.80554 231.3125Q268.18054 230.73438 268.72742 230.45312Q269.28992 230.17188 269.8993 230.17188Q270.94617 230.17188 271.68054 230.95312Q272.43054 231.73438 272.43054 232.95312Q272.43054 233.76562 272.07117 234.46875Q271.72742 235.15625 271.11804 235.53125Q270.50867 235.89062 269.74304 235.89062Q268.41492 235.89062 267.5868 234.92188Q266.75867 233.95312 266.75867 231.73438Q266.75867 229.23438 267.68054 228.10938Q268.47742 227.125 269.8368 227.125Q270.85242 227.125 271.49304 227.70312Q272.1493 228.26562 272.2743 229.26562ZM267.97742 232.96875Q267.97742 233.51562 268.19617 234.01562Q268.43054 234.5 268.8368 234.76562Q269.25867 235.03125 269.72742 235.03125Q270.38367 235.03125 270.86804 234.5Q271.35242 233.95312 271.35242 233.03125Q271.35242 232.14062 270.86804 231.625Q270.3993 231.10938 269.68054 231.10938Q268.9618 231.10938 268.4618 231.625Q267.97742 232.14062 267.97742 232.96875ZM273.80554 231.51562Q273.80554 229.98438 274.11804 229.0625Q274.43054 228.125 275.03992 227.625Q275.66492 227.125 276.60242 227.125Q277.28992 227.125 277.80554 227.40625Q278.3368 227.6875 278.68054 228.21875Q279.0243 228.73438 279.2118 229.48438Q279.3993 230.23438 279.3993 231.51562Q279.3993 233.03125 279.0868 233.95312Q278.78992 234.875 278.16492 235.39062Q277.55554 235.89062 276.60242 235.89062Q275.36804 235.89062 274.6493 235.0Q273.80554 233.9375 273.80554 231.51562ZM274.88367 231.51562Q274.88367 233.625 275.38367 234.32812Q275.88367 235.03125 276.60242 235.03125Q277.3368 235.03125 277.82117 234.32812Q278.32117 233.625 278.32117 231.51562Q278.32117 229.39062 277.82117 228.70312Q277.3368 228.0 276.5868 228.0Q275.86804 228.0 275.43054 228.60938Q274.88367 229.39062 274.88367 231.51562Z" fill-rule="nonzero"/><path fill="#000000" d="M355.65277 231.09375Q354.99652 230.84375 354.6684 230.40625Q354.3559 229.95312 354.3559 229.34375Q354.3559 228.40625 355.02777 227.76562Q355.71527 227.125 356.82465 227.125Q357.94965 227.125 358.63715 227.78125Q359.32465 228.4375 359.32465 229.375Q359.32465 229.96875 359.01215 230.40625Q358.69965 230.84375 358.05902 231.09375Q358.8559 231.34375 359.26215 231.92188Q359.6684 232.5 359.6684 233.29688Q359.6684 234.39062 358.88715 235.14062Q358.12152 235.89062 356.84027 235.89062Q355.57465 235.89062 354.7934 235.14062Q354.01215 234.39062 354.01215 233.26562Q354.01215 232.42188 354.43402 231.85938Q354.87152 231.29688 355.65277 231.09375ZM355.43402 229.29688Q355.43402 229.90625 355.82465 230.29688Q356.2309 230.6875 356.8559 230.6875Q357.46527 230.6875 357.8559 230.3125Q358.24652 229.92188 358.24652 229.35938Q358.24652 228.78125 357.84027 228.39062Q357.43402 227.98438 356.84027 227.98438Q356.2309 227.98438 355.82465 228.375Q355.43402 228.76562 355.43402 229.29688ZM355.1059 233.26562Q355.1059 233.71875 355.30902 234.14062Q355.52777 234.5625 355.94965 234.79688Q356.37152 235.03125 356.8559 235.03125Q357.6059 235.03125 358.09027 234.54688Q358.59027 234.0625 358.59027 233.3125Q358.59027 232.54688 358.09027 232.04688Q357.59027 231.54688 356.82465 231.54688Q356.07465 231.54688 355.59027 232.04688Q355.1059 232.53125 355.1059 233.26562ZM361.02777 231.51562Q361.02777 229.98438 361.34027 229.0625Q361.65277 228.125 362.26215 227.625Q362.88715 227.125 363.82465 227.125Q364.51215 227.125 365.02777 227.40625Q365.55902 227.6875 365.90277 228.21875Q366.24652 228.73438 366.43402 229.48438Q366.62152 230.23438 366.62152 231.51562Q366.62152 233.03125 366.30902 233.95312Q366.01215 234.875 365.38715 235.39062Q364.77777 235.89062 363.82465 235.89062Q362.59027 235.89062 361.87152 235.0Q361.02777 233.9375 361.02777 231.51562ZM362.1059 231.51562Q362.1059 233.625 362.6059 234.32812Q363.1059 235.03125 363.82465 235.03125Q364.55902 235.03125 365.0434 234.32812Q365.5434 233.625 365.5434 231.51562Q365.5434 229.39062 365.0434 228.70312Q364.55902 228.0 363.80902 228.0Q363.09027 228.0 362.65277 228.60938Q362.1059 229.39062 362.1059 231.51562Z" fill-rule="nonzero"/><path fill="#000000" d="M441.71875 235.75L440.67188 235.75L440.67188 229.03125Q440.28125 229.39062 439.65625 229.76562Q439.04688 230.125 438.5625 230.29688L438.5625 229.28125Q439.4375 228.85938 440.09375 228.28125Q440.76562 227.6875 441.04688 227.125L441.71875 227.125L441.71875 235.75ZM444.75 231.51562Q444.75 229.98438 445.0625 229.0625Q445.375 228.125 445.98438 227.625Q446.60938 227.125 447.54688 227.125Q448.23438 227.125 448.75 227.40625Q449.28125 227.6875 449.625 228.21875Q449.96875 228.73438 450.15625 229.48438Q450.34375 230.23438 450.34375 231.51562Q450.34375 233.03125 450.03125 233.95312Q449.73438 234.875 449.10938 235.39062Q448.5 235.89062 447.54688 235.89062Q446.3125 235.89062 445.59375 235.0Q444.75 233.9375 444.75 231.51562ZM445.82812 231.51562Q445.82812 233.625 446.32812 234.32812Q446.82812 235.03125 447.54688 235.03125Q448.28125 235.03125 448.76562 234.32812Q449.26562 233.625 449.26562 231.51562Q449.26562 229.39062 448.76562 228.70312Q448.28125 228.0 447.53125 228.0Q446.8125 228.0 446.375 228.60938Q445.82812 229.39062 445.82812 231.51562ZM451.75 231.51562Q451.75 229.98438 452.0625 229.0625Q452.375 228.125 452.98438 227.625Q453.60938 227.125 454.54688 227.125Q455.23438 227.125 455.75 227.40625Q456.28125 227.6875 456.625 228.21875Q456.96875 228.73438 457.15625 229.48438Q457.34375 230.23438 457.34375 231.51562Q457.34375 233.03125 457.03125 233.95312Q456.73438 234.875 456.10938 235.39062Q455.5 235.89062 454.54688 235.89062Q453.3125 235.89062 452.59375 235.0Q451.75 233.9375 451.75 231.51562ZM452.82812 231.51562Q452.82812 233.625 453.32812 234.32812Q453.82812 235.03125 454.54688 235.03125Q455.28125 235.03125 455.76562 234.32812Q456.26562 233.625 456.26562 231.51562Q456.26562 229.39062 455.76562 228.70312Q455.28125 228.0 454.53125 228.0Q453.8125 228.0 453.375 228.60938Q452.82812 229.39062 452.82812 231.51562Z" fill-rule="nonzero"/><path stroke="#4285f4" stroke-width="4.0" stroke-linecap="butt" d="M140.5 21.25L152.5 21.25" fill-rule="nonzero"/><path fill="#1a1a1a" d="M161.42188 25.25L161.42188 16.65625L164.67188 16.65625Q165.51562 16.65625 165.96875 16.734375Q166.60938 16.84375 167.03125 17.140625Q167.46875 17.4375 167.71875 17.96875Q167.98438 18.5 167.98438 19.140625Q167.98438 20.234375 167.28125 21.0Q166.59375 21.75 164.76562 21.75L162.5625 21.75L162.5625 25.25L161.42188 25.25ZM162.5625 20.75L164.78125 20.75Q165.89062 20.75 166.34375 20.34375Q166.8125 19.921875 166.8125 19.171875Q166.8125 18.640625 166.53125 18.265625Q166.26562 17.875 165.82812 17.75Q165.53125 17.671875 164.76562 17.671875L162.5625 17.671875L162.5625 20.75ZM173.375 25.25L173.375 24.328125Q172.64062 25.390625 171.39062 25.390625Q170.84375 25.390625 170.35938 25.1875Q169.89062 24.96875 169.65625 24.65625Q169.42188 24.328125 169.32812 23.859375Q169.26562 23.5625 169.26562 22.875L169.26562 19.03125L170.32812 19.03125L170.32812 22.484375Q170.32812 23.296875 170.39062 23.59375Q170.48438 24.0 170.79688 24.25Q171.125 24.484375 171.60938 24.484375Q172.07812 24.484375 172.48438 24.25Q172.90625 24.0 173.07812 23.578125Q173.26562 23.15625 173.26562 22.359375L173.26562 19.03125L174.3125 19.03125L174.3125 25.25L173.375 25.25ZM178.59375 24.3125L178.75 25.234375Q178.29688 25.328125 177.95312 25.328125Q177.375 25.328125 177.0625 25.15625Q176.75 24.96875 176.60938 24.671875Q176.48438 24.375 176.48438 23.421875L176.48438 19.84375L175.71875 19.84375L175.71875 19.03125L176.48438 19.03125L176.48438 17.484375L177.53125 16.859375L177.53125 19.03125L178.59375 19.03125L178.59375 19.84375L177.53125 19.84375L177.53125 23.484375Q177.53125 23.9375 177.57812 24.0625Q177.64062 24.1875 177.76562 24.265625Q177.89062 24.34375 178.125 24.34375Q178.3125 24.34375 178.59375 24.3125ZM184.3125 27.78125Q183.4375 26.671875 182.82812 25.203125Q182.23438 23.71875 182.23438 22.140625Q182.23438 20.75 182.67188 19.46875Q183.20312 17.984375 184.3125 16.515625L185.0625 16.515625Q184.35938 17.734375 184.125 18.25Q183.76562 19.0625 183.5625 19.9375Q183.3125 21.03125 183.3125 22.140625Q183.3125 24.96875 185.0625 27.78125L184.3125 27.78125ZM186.39062 25.25L186.39062 16.65625L188.10938 16.65625L190.14062 22.734375Q190.42188 23.59375 190.54688 24.015625Q190.6875 23.546875 191.0 22.640625L193.0625 16.65625L194.59375 16.65625L194.59375 25.25L193.5 25.25L193.5 18.0625L191.0 25.25L189.96875 25.25L187.48438 17.9375L187.48438 25.25L186.39062 25.25ZM195.375 25.25L195.375 16.65625L198.60938 16.65625Q199.59375 16.65625 200.1875 16.921875Q200.78125 17.1875 201.10938 17.734375Q201.45312 18.265625 201.45312 18.859375Q201.45312 19.40625 201.15625 19.890625Q200.85938 20.375 200.25 20.671875Q201.03125 20.90625 201.4375 21.46875Q201.85938 22.015625 201.85938 22.765625Q201.85938 23.359375 201.60938 23.890625Q201.35938 24.40625 200.98438 24.6875Q200.60938 24.96875 200.03125 25.109375Q199.46875 25.25 198.65625 25.25L195.375 25.25ZM196.51562 20.265625L198.375 20.265625Q199.125 20.265625 199.45312 20.171875Q199.89062 20.046875 200.10938 19.75Q200.32812 19.4375 200.32812 18.984375Q200.32812 18.5625 200.125 18.234375Q199.92188 17.90625 199.53125 17.796875Q199.15625 17.671875 198.23438 17.671875L196.51562 17.671875L196.51562 20.265625ZM196.51562 24.234375L198.65625 24.234375Q199.20312 24.234375 199.42188 24.1875Q199.82812 24.125 200.07812 23.96875Q200.34375 23.796875 200.51562 23.484375Q200.6875 23.171875 200.6875 22.765625Q200.6875 22.28125 200.4375 21.921875Q200.20312 21.5625 199.76562 21.421875Q199.32812 21.28125 198.5 21.28125L196.51562 21.28125L196.51562 24.234375ZM203.42188 25.25L203.42188 16.65625L206.67188 16.65625Q207.51562 16.65625 207.96875 16.734375Q208.60938 16.84375 209.03125 17.140625Q209.46875 17.4375 209.71875 17.96875Q209.98438 18.5 209.98438 19.140625Q209.98438 20.234375 209.28125 21.0Q208.59375 21.75 206.76562 21.75L204.5625 21.75L204.5625 25.25L203.42188 25.25ZM204.5625 20.75L206.78125 20.75Q207.89062 20.75 208.34375 20.34375Q208.8125 19.921875 208.8125 19.171875Q208.8125 18.640625 208.53125 18.265625Q208.26562 17.875 207.82812 17.75Q207.53125 17.671875 206.76562 17.671875L204.5625 17.671875L204.5625 20.75ZM211.04688 22.484375L212.10938 22.390625Q212.1875 23.046875 212.46875 23.453125Q212.75 23.859375 213.32812 24.125Q213.92188 24.375 214.65625 24.375Q215.29688 24.375 215.79688 24.1875Q216.29688 23.984375 216.53125 23.65625Q216.78125 23.3125 216.78125 22.921875Q216.78125 22.515625 216.54688 22.21875Q216.3125 21.90625 215.78125 21.703125Q215.42188 21.5625 214.23438 21.28125Q213.0625 21.0 212.59375 20.75Q211.96875 20.421875 211.67188 19.953125Q211.375 19.46875 211.375 18.875Q211.375 18.234375 211.73438 17.671875Q212.10938 17.09375 212.8125 16.8125Q213.53125 16.515625 214.39062 16.515625Q215.34375 16.515625 216.07812 16.828125Q216.8125 17.125 217.20312 17.734375Q217.59375 18.328125 217.625 19.078125L216.53125 19.15625Q216.4375 18.34375 215.92188 17.9375Q215.42188 17.515625 214.4375 17.515625Q213.40625 17.515625 212.9375 17.890625Q212.46875 18.265625 212.46875 18.796875Q212.46875 19.265625 212.79688 19.5625Q213.125 19.859375 214.5 20.171875Q215.89062 20.484375 216.40625 20.71875Q217.15625 21.078125 217.51562 21.609375Q217.875 22.125 217.875 22.828125Q217.875 23.515625 217.48438 24.125Q217.09375 24.71875 216.35938 25.0625Q215.625 25.390625 214.70312 25.390625Q213.53125 25.390625 212.73438 25.0625Q211.95312 24.71875 211.5 24.03125Q211.0625 23.34375 211.04688 22.484375ZM219.98438 27.78125L219.23438 27.78125Q220.98438 24.96875 220.98438 22.140625Q220.98438 21.046875 220.73438 19.953125Q220.53125 19.078125 220.17188 18.265625Q219.9375 17.75 219.23438 16.515625L219.98438 16.515625Q221.07812 17.984375 221.60938 19.46875Q222.0625 20.75 222.0625 22.140625Q222.0625 23.71875 221.45312 25.203125Q220.84375 26.671875 219.98438 27.78125Z" fill-rule="nonzero"/><path stroke="#ea4335" stroke-width="4.0" stroke-linecap="butt" d="M238.5 21.25L250.5 21.25" fill-rule="nonzero"/><path fill="#1a1a1a" d="M263.45312 21.875L263.45312 20.875L267.07812 20.859375L267.07812 24.046875Q266.25 24.71875 265.35938 25.0625Q264.46875 25.390625 263.53125 25.390625Q262.26562 25.390625 261.21875 24.859375Q260.1875 24.3125 259.65625 23.296875Q259.14062 22.265625 259.14062 21.0Q259.14062 19.734375 259.65625 18.65625Q260.1875 17.5625 261.17188 17.046875Q262.15625 16.515625 263.4375 16.515625Q264.375 16.515625 265.125 16.8125Q265.875 17.109375 266.29688 17.65625Q266.73438 18.1875 266.95312 19.0625L265.9375 19.34375Q265.73438 18.6875 265.4375 18.3125Q265.15625 17.9375 264.625 17.71875Q264.09375 17.484375 263.45312 17.484375Q262.67188 17.484375 262.09375 17.71875Q261.53125 17.953125 261.17188 18.34375Q260.82812 18.734375 260.64062 19.203125Q260.3125 20.0 260.3125 20.921875Q260.3125 22.078125 260.70312 22.859375Q261.10938 23.625 261.85938 24.0Q262.60938 24.375 263.46875 24.375Q264.20312 24.375 264.90625 24.09375Q265.60938 23.796875 265.96875 23.484375L265.96875 21.875L263.45312 21.875ZM272.54688 23.25L273.64062 23.375Q273.39062 24.328125 272.6875 24.859375Q271.98438 25.390625 270.90625 25.390625Q269.54688 25.390625 268.73438 24.546875Q267.9375 23.703125 267.9375 22.1875Q267.9375 20.625 268.75 19.765625Q269.5625 18.890625 270.84375 18.890625Q272.09375 18.890625 272.875 19.734375Q273.67188 20.578125 273.67188 22.125Q273.67188 22.21875 273.67188 22.40625L269.03125 22.40625Q269.09375 23.4375 269.60938 23.984375Q270.125 24.515625 270.90625 24.515625Q271.48438 24.515625 271.89062 24.21875Q272.3125 23.90625 272.54688 23.25ZM269.09375 21.546875L272.5625 21.546875Q272.5 20.75 272.17188 20.359375Q271.65625 19.75 270.85938 19.75Q270.125 19.75 269.625 20.234375Q269.14062 20.71875 269.09375 21.546875ZM277.59375 24.3125L277.75 25.234375Q277.29688 25.328125 276.95312 25.328125Q276.375 25.328125 276.0625 25.15625Q275.75 24.96875 275.60938 24.671875Q275.48438 24.375 275.48438 23.421875L275.48438 19.84375L274.71875 19.84375L274.71875 19.03125L275.48438 19.03125L275.48438 17.484375L276.53125 16.859375L276.53125 19.03125L277.59375 19.03125L277.59375 19.84375L276.53125 19.84375L276.53125 23.484375Q276.53125 23.9375 276.57812 24.0625Q276.64062 24.1875 276.76562 24.265625Q276.89062 24.34375 277.125 24.34375Q277.3125 24.34375 277.59375 24.3125ZM283.3125 27.78125Q282.4375 26.671875 281.82812 25.203125Q281.23438 23.71875 281.23438 22.140625Q281.23438 20.75 281.67188 19.46875Q282.20312 17.984375 283.3125 16.515625L284.0625 16.515625Q283.35938 17.734375 283.125 18.25Q282.76562 19.0625 282.5625 19.9375Q282.3125 21.03125 282.3125 22.140625Q282.3125 24.96875 284.0625 27.78125L283.3125 27.78125ZM285.39062 25.25L285.39062 16.65625L287.10938 16.65625L289.14062 22.734375Q289.42188 23.59375 289.54688 24.015625Q289.6875 23.546875 290.0 22.640625L292.0625 16.65625L293.59375 16.65625L293.59375 25.25L292.5 25.25L292.5 18.0625L290.0 25.25L288.96875 25.25L286.48438 17.9375L286.48438 25.25L285.39062 25.25ZM294.375 25.25L294.375 16.65625L297.60938 16.65625Q298.59375 16.65625 299.1875 16.921875Q299.78125 17.1875 300.10938 17.734375Q300.45312 18.265625 300.45312 18.859375Q300.45312 19.40625 300.15625 19.890625Q299.85938 20.375 299.25 20.671875Q300.03125 20.90625 300.4375 21.46875Q300.85938 22.015625 300.85938 22.765625Q300.85938 23.359375 300.60938 23.890625Q300.35938 24.40625 299.98438 24.6875Q299.60938 24.96875 299.03125 25.109375Q298.46875 25.25 297.65625 25.25L294.375 25.25ZM295.51562 20.265625L297.375 20.265625Q298.125 20.265625 298.45312 20.171875Q298.89062 20.046875 299.10938 19.75Q299.32812 19.4375 299.32812 18.984375Q299.32812 18.5625 299.125 18.234375Q298.92188 17.90625 298.53125 17.796875Q298.15625 17.671875 297.23438 17.671875L295.51562 17.671875L295.51562 20.265625ZM295.51562 24.234375L297.65625 24.234375Q298.20312 24.234375 298.42188 24.1875Q298.82812 24.125 299.07812 23.96875Q299.34375 23.796875 299.51562 23.484375Q299.6875 23.171875 299.6875 22.765625Q299.6875 22.28125 299.4375 21.921875Q299.20312 21.5625 298.76562 21.421875Q298.32812 21.28125 297.5 21.28125L295.51562 21.28125L295.51562 24.234375ZM302.42188 25.25L302.42188 16.65625L305.67188 16.65625Q306.51562 16.65625 306.96875 16.734375Q307.60938 16.84375 308.03125 17.140625Q308.46875 17.4375 308.71875 17.96875Q308.98438 18.5 308.98438 19.140625Q308.98438 20.234375 308.28125 21.0Q307.59375 21.75 305.76562 21.75L303.5625 21.75L303.5625 25.25L302.42188 25.25ZM303.5625 20.75L305.78125 20.75Q306.89062 20.75 307.34375 20.34375Q307.8125 19.921875 307.8125 19.171875Q307.8125 18.640625 307.53125 18.265625Q307.26562 17.875 306.82812 17.75Q306.53125 17.671875 305.76562 17.671875L303.5625 17.671875L303.5625 20.75ZM310.04688 22.484375L311.10938 22.390625Q311.1875 23.046875 311.46875 23.453125Q311.75 23.859375 312.32812 24.125Q312.92188 24.375 313.65625 24.375Q314.29688 24.375 314.79688 24.1875Q315.29688 23.984375 315.53125 23.65625Q315.78125 23.3125 315.78125 22.921875Q315.78125 22.515625 315.54688 22.21875Q315.3125 21.90625 314.78125 21.703125Q314.42188 21.5625 313.23438 21.28125Q312.0625 21.0 311.59375 20.75Q310.96875 20.421875 310.67188 19.953125Q310.375 19.46875 310.375 18.875Q310.375 18.234375 310.73438 17.671875Q311.10938 17.09375 311.8125 16.8125Q312.53125 16.515625 313.39062 16.515625Q314.34375 16.515625 315.07812 16.828125Q315.8125 17.125 316.20312 17.734375Q316.59375 18.328125 316.625 19.078125L315.53125 19.15625Q315.4375 18.34375 314.92188 17.9375Q314.42188 17.515625 313.4375 17.515625Q312.40625 17.515625 311.9375 17.890625Q311.46875 18.265625 311.46875 18.796875Q311.46875 19.265625 311.79688 19.5625Q312.125 19.859375 313.5 20.171875Q314.89062 20.484375 315.40625 20.71875Q316.15625 21.078125 316.51562 21.609375Q316.875 22.125 316.875 22.828125Q316.875 23.515625 316.48438 24.125Q316.09375 24.71875 315.35938 25.0625Q314.625 25.390625 313.70312 25.390625Q312.53125 25.390625 311.73438 25.0625Q310.95312 24.71875 310.5 24.03125Q310.0625 23.34375 310.04688 22.484375ZM318.98438 27.78125L318.23438 27.78125Q319.98438 24.96875 319.98438 22.140625Q319.98438 21.046875 319.73438 19.953125Q319.53125 19.078125 319.17188 18.265625Q318.9375 17.75 318.23438 16.515625L318.98438 16.515625Q320.07812 17.984375 320.60938 19.46875Q321.0625 20.75 321.0625 22.140625Q321.0625 23.71875 320.45312 25.203125Q319.84375 26.671875 318.98438 27.78125Z" fill-rule="nonzero"/></svg>