<svg version="1.1" viewBox="0.0 0.0 600.0 338.0" fill="none" stroke="none" stroke-linecap="square" stroke-miterlimit="10" width="600" height="338" xmlns:xlink="http://www.w3.org/1999/xlink" xmlns="http://www.w3.org/2000/svg"><path fill="#ffffff" d="M0 0L600.0 0L600.0 338.0L0 338.0L0 0Z" fill-rule="nonzero"/><path stroke="#333333" stroke-width="1.0" stroke-linecap="butt" d="M75.5 269.5L583.5 269.5" fill-rule="nonzero"/><path stroke="#cccccc" stroke-width="1.0" stroke-linecap="butt" d="M75.5 195.5L583.5 195.5" fill-rule="nonzero"/><path stroke="#cccccc" stroke-width="1.0" stroke-linecap="butt" d="M75.5 122.5L583.5 122.5" fill-rule="nonzero"/><path stroke="#cccccc" stroke-width="1.0" stroke-linecap="butt" d="M75.5 49.5L583.5 49.5" fill-rule="nonzero"/><clipPath id="id_0"><path d="M75.9 49.166668L583.1 49.166668L583.1 269.1L75.9 269.1L75.9 49.166668Z" clip-rule="nonzero"/></clipPath><path stroke="#000000" stroke-width="2.0" stroke-linecap="butt" stroke-opacity="0.0" clip-path="url(#id_0)" d="M121.0 269.0L101.0 269.0L101.0 91.0C101.0 89.89543 101.89543 89.0 103.0 89.0L119.0 89.0C120.10457 89.0 121.0 89.89543 121.0 91.0Z" fill-rule="nonzero"/><path fill="#4285f4" clip-path="url(#id_0)" d="M121.0 269.0L101.0 269.0L101.0 91.0C101.0 89.89543 101.89543 89.0 103.0 89.0L119.0 89.0C120.10457 89.0 121.0 89.89543 121.0 91.0Z" fill-rule="nonzero"/><path stroke="#000000" stroke-width="2.0" stroke-linecap="butt" stroke-opacity="0.0" clip-path="url(#id_0)" d="M190.0 269.0L170.0 269.0L170.0 90.0C170.0 88.89543 170.89543 88.0 172.0 88.0L188.0 88.0C189.10457 88.0 190.0 88.89543 190.0 90.0Z" fill-rule="nonzero"/><path fill="#4285f4" clip-path="url(#id_0)" d="M190.0 269.0L170.0 269.0L170.0 90.0C170.0 88.89543 170.89543 88.0 172.0 88.0L188.0 88.0C189.10457 88.0 190.0 88.89543 190.0 90.0Z" fill-rule="nonzero"/><path stroke="#000000" stroke-width="2.0" stroke-linecap="butt" stroke-opacity="0.0" clip-path="url(#id_0)" d="M259.0 269.0L239.0 269.0L239.0 94.0C239.0 92.89543 239.89543 92.0 241.0 92.0L257.0 92.0C258.10458 92.0 259.0 92.89543 259.0 94.0Z" fill-rule="nonzero"/><path fill="#4285f4" clip-path="url(#id_0)" d="M259.0 269.0L239.0 269.0L239.0 94.0C239.0 92.89543 239.89543 92.0 241.0 92.0L257.0 92.0C258.10458 92.0 259.0 92.89543 259.0 94.0Z" fill-rule="nonzero"/><path stroke="#000000" stroke-width="2.0" stroke-linecap="butt" stroke-opacity="0.0" clip-path="url(#id_0)" d="M329.0 269.0L309.0 269.0L309.0 95.0C309.0 93.89543 309.89542 93.0 311.0 93.0L327.0 93.0C328.10458 93.0 329.0 93.89543 329.0 95.0Z" fill-rule="nonzero"/><path fill="#4285f4" clip-path="url(#id_0)" d="M329.0 269.0L309.0 269.0L309.0 95.0C309.0 93.89543 309.89542 93.0 311.0 93.0L327.0 93.0C328.10458 93.0 329.0 93.89543 329.0 95.0Z" fill-rule="nonzero"/><path stroke="#000000" stroke-width="2.0" stroke-linecap="butt" stroke-opacity="0.0" clip-path="url(#id_0)" d="M398.0 269.0L378.0 269.0L378.0 94.0C378.0 92.89543 378.89542 92.0 380.0 92.0L396.0 92.0C397.10458 92.0 398.0 92.89543 398.0 94.0Z" fill-rule="nonzero"/><path fill="#4285f4" clip-path="url(#id_0)" d="M398.0 269.0L378.0 269.0L378.0 94.0C378.0 92.89543 378.89542 92.0 380.0 92.0L396.0 92.0C397.10458 92.0 398.0 92.89543 398.0 94.0Z" fill-rule="nonzero"/><path stroke="#000000" stroke-width="2.0" stroke-linecap="butt" stroke-opacity="0.0" clip-path="url(#id_0)" d="M467.0 269.0L447.0 269.0L447.0 92.0C447.0 90.89543 447.89542 90.0 449.0 90.0L465.0 90.0C466.10458 90.0 467.0 90.89543 467.0 92.0Z" fill-rule="nonzero"/><path fill="#4285f4" clip-path="url(#id_0)" d="M467.0 269.0L447.0 269.0L447.0 92.0C447.0 90.89543 447.89542 90.0 449.0 90.0L465.0 90.0C466.10458 90.0 467.0 90.89543 467.0 92.0Z" fill-rule="nonzero"/><path stroke="#000000" stroke-width="2.0" stroke-linecap="butt" stroke-opacity="0.0" clip-path="url(#id_0)" d="M536.0 269.0L516.0 269.0L516.0 92.0C516.0 90.89543 516.89545 90.0 518.0 90.0L534.0 90.0C535.10455 90.0 536.0 90.89543 536.0 92.0Z" fill-rule="nonzero"/><path fill="#4285f4" clip-path="url(#id_0)" d="M536.0 269.0L516.0 269.0L516.0 92.0C516.0 90.89543 516.89545 90.0 518.0 90.0L534.0 90.0C535.10455 90.0 536.0 90.89543 536.0 92.0Z" fill-rule="nonzero"/><path stroke="#000000" stroke-width="2.0" stroke-linecap="butt" stroke-opacity="0.0" clip-path="url(#id_0)" d="M143.0 269.0L123.0 269.0L123.0 91.0C123.0 89.89543 123.89543 89.0 125.0 89.0L141.0 89.0C142.10457 89.0 143.0 89.89543 143.0 91.0Z" fill-rule="nonzero"/><path fill="#ea4335" clip-path="url(#id_0)" d="M143.0 269.0L123.0 269.0L123.0 91.0C123.0 89.89543 123.89543 89.0 125.0 89.0L141.0 89.0C142.10457 89.0 143.0 89.89543 143.0 91.0Z" fill-rule="nonzero"/><path stroke="#000000" stroke-width="2.0" stroke-linecap="butt" stroke-opacity="0.0" clip-path="url(#id_0)" d="M212.0 269.0L192.0 269.0L192.0 104.0C192.0 102.89543 192.89543 102.0 194.0 102.0L210.0 102.0C211.10457 102.0 212.0 102.89543 212.0 104.0Z" fill-rule="nonzero"/><path fill="#ea4335" clip-path="url(#id_0)" d="M212.0 269.0L192.0 269.0L192.0 104.0C192.0 102.89543 192.89543 102.0 194.0 102.0L210.0 102.0C211.10457 102.0 212.0 102.89543 212.0 104.0Z" fill-rule="nonzero"/><path stroke="#000000" stroke-width="2.0" stroke-linecap="butt" stroke-opacity="0.0" clip-path="url(#id_0)" d="M281.0 269.0L261.0 269.0L261.0 89.0C261.0 87.89543 261.89542 87.0 263.0 87.0L279.0 87.0C280.10458 87.0 281.0 87.89543 281.0 89.0Z" fill-rule="nonzero"/><path fill="#ea4335" clip-path="url(#id_0)" d="M281.0 269.0L261.0 269.0L261.0 89.0C261.0 87.89543 261.89542 87.0 263.0 87.0L279.0 87.0C280.10458 87.0 281.0 87.89543 281.0 89.0Z" fill-rule="nonzero"/><path stroke="#000000" stroke-width="2.0" stroke-linecap="butt" stroke-opacity="0.0" clip-path="url(#id_0)" d="M351.0 269.0L331.0 269.0L331.0 84.0C331.0 82.89543 331.89542 82.0 333.0 82.0L349.0 82.0C350.10458 82.0 351.0 82.89543 351.0 84.0Z" fill-rule="nonzero"/><path fill="#ea4335" clip-path="url(#id_0)" d="M351.0 269.0L331.0 269.0L331.0 84.0C331.0 82.89543 331.89542 82.0 333.0 82.0L349.0 82.0C350.10458 82.0 351.0 82.89543 351.0 84.0Z" fill-rule="nonzero"/><path stroke="#000000" stroke-width="2.0" stroke-linecap="butt" stroke-opacity="0.0" clip-path="url(#id_0)" d="M420.0 269.0L400.0 269.0L400.0 71.0C400.0 69.89543 400.89542 69.0 402.0 69.0L418.0 69.0C419.10458 69.0 420.0 69.89543 420.0 71.0Z" fill-rule="nonzero"/><path fill="#ea4335" clip-path="url(#id_0)" d="M420.0 269.0L400.0 269.0L400.0 71.0C400.0 69.89543 400.89542 69.0 402.0 69.0L418.0 69.0C419.10458 69.0 420.0 69.89543 420.0 71.0Z" fill-rule="nonzero"/><path stroke="#000000" stroke-width="2.0" stroke-linecap="butt" stroke-opacity="0.0" clip-path="url(#id_0)" d="M489.0 269.0L469.0 269.0L469.0 61.0C469.0 59.89543 469.89542 59.0 471.0 59.0L487.0 59.0C488.10458 59.0 489.0 59.89543 489.0 61.0Z" fill-rule="nonzero"/><path fill="#ea4335" clip-path="url(#id_0)" d="M489.0 269.0L469.0 269.0L469.0 61.0C469.0 59.89543 469.89542 59.0 471.0 59.0L487.0 59.0C488.10458 59.0 489.0 59.89543 489.0 61.0Z" fill-rule="nonzero"/><path stroke="#000000" stroke-width="2.0" stroke-linecap="butt" stroke-opacity="0.0" clip-path="url(#id_0)" d="M558.0 269.0L538.0 269.0L538.0 61.0C538.0 59.89543 538.89545 59.0 540.0 59.0L556.0 59.0C557.10455 59.0 558.0 59.89543 558.0 61.0Z" fill-rule="nonzero"/><path fill="#ea4335" clip-path="url(#id_0)" d="M558.0 269.0L538.0 269.0L538.0 61.0C538.0 59.89543 538.89545 59.0 540.0 59.0L556.0 59.0C557.10455 59.0 558.0 59.89543 558.0 61.0Z" fill-rule="nonzero"/><path fill="#000000" d="M300.42188 318.1L300.42188 309.50626L303.67188 309.50626Q304.51562 309.50626 304.96875 309.58438Q305.60938 309.69376 306.03125 309.99063Q306.46875 310.2875 306.71875 310.81876Q306.98438 311.35 306.98438 311.99063Q306.98438 313.08438 306.28125 313.85Q305.59375 314.6 303.76562 314.6L301.5625 314.6L301.5625 318.1L300.42188 318.1ZM301.5625 313.6L303.78125 313.6Q304.89062 313.6 305.34375 313.19376Q305.8125 312.77188 305.8125 312.02188Q305.8125 311.49063 305.53125 311.11563Q305.26562 310.725 304.82812 310.6Q304.53125 310.52188 303.76562 310.52188L301.5625 310.52188L301.5625 313.6ZM308.28125 318.1L308.28125 311.88126L309.23438 311.88126L309.23438 312.81876Q309.59375 312.1625 309.89062 311.95938Q310.20312 311.74063 310.57812 311.74063Q311.10938 311.74063 311.65625 312.06876L311.29688 313.05313Q310.90625 312.81876 310.53125 312.81876Q310.17188 312.81876 309.89062 313.0375Q309.625 313.24063 309.51562 313.61563Q309.32812 314.17813 309.32812 314.83438L309.32812 318.1L308.28125 318.1ZM311.90625 314.99063Q311.90625 313.25626 312.85938 312.42813Q313.65625 311.74063 314.8125 311.74063Q316.09375 311.74063 316.90625 312.58438Q317.73438 313.4125 317.73438 314.89688Q317.73438 316.1 317.375 316.7875Q317.01562 317.475 316.3125 317.86563Q315.625 318.24063 314.8125 318.24063Q313.51562 318.24063 312.70312 317.4125Q311.90625 316.56876 311.90625 314.99063ZM312.98438 314.99063Q312.98438 316.17813 313.5 316.77188Q314.03125 317.36563 314.8125 317.36563Q315.60938 317.36563 316.125 316.77188Q316.64062 316.17813 316.64062 314.95938Q316.64062 313.80313 316.10938 313.20938Q315.59375 312.61563 314.8125 312.61563Q314.03125 312.61563 313.5 313.20938Q312.98438 313.7875 312.98438 314.99063ZM323.35938 315.81876L324.39062 315.95938Q324.21875 317.02188 323.51562 317.63126Q322.8125 318.24063 321.79688 318.24063Q320.51562 318.24063 319.73438 317.4125Q318.96875 316.56876 318.96875 315.00626Q318.96875 314.00626 319.29688 313.25626Q319.64062 312.49063 320.3125 312.11563Q321.0 311.74063 321.8125 311.74063Q322.8125 311.74063 323.45312 312.25626Q324.10938 312.75626 324.29688 313.70938L323.26562 313.86563Q323.125 313.24063 322.75 312.92813Q322.375 312.6 321.84375 312.6Q321.04688 312.6 320.54688 313.17813Q320.04688 313.74063 320.04688 314.975Q320.04688 316.24063 320.53125 316.80313Q321.01562 317.36563 321.78125 317.36563Q322.40625 317.36563 322.8125 316.99063Q323.23438 316.61563 323.35938 315.81876ZM329.54688 316.1L330.64062 316.225Q330.39062 317.17813 329.6875 317.70938Q328.98438 318.24063 327.90625 318.24063Q326.54688 318.24063 325.73438 317.39688Q324.9375 316.55313 324.9375 315.0375Q324.9375 313.475 325.75 312.61563Q326.5625 311.74063 327.84375 311.74063Q329.09375 311.74063 329.875 312.58438Q330.67188 313.42813 330.67188 314.975Q330.67188 315.06876 330.67188 315.25626L326.03125 315.25626Q326.09375 316.2875 326.60938 316.83438Q327.125 317.36563 327.90625 317.36563Q328.48438 317.36563 328.89062 317.06876Q329.3125 316.75626 329.54688 316.1ZM326.09375 314.39688L329.5625 314.39688Q329.5 313.6 329.17188 313.20938Q328.65625 312.6 327.85938 312.6Q327.125 312.6 326.625 313.08438Q326.14062 313.56876 326.09375 314.39688ZM331.875 316.24063L332.90625 316.08438Q333.0 316.70938 333.39062 317.0375Q333.79688 317.36563 334.53125 317.36563Q335.25 317.36563 335.59375 317.08438Q335.95312 316.7875 335.95312 316.38126Q335.95312 316.02188 335.64062 315.81876Q335.42188 315.67813 334.5625 315.45938Q333.40625 315.1625 332.95312 314.95938Q332.51562 314.74063 332.28125 314.36563Q332.04688 313.99063 332.04688 313.52188Q332.04688 313.11563 332.23438 312.75626Q332.42188 312.39688 332.75 312.1625Q333.0 311.99063 333.42188 311.86563Q333.84375 311.74063 334.34375 311.74063Q335.0625 311.74063 335.60938 311.95938Q336.17188 312.1625 336.4375 312.52188Q336.70312 312.88126 336.79688 313.475L335.76562 313.61563Q335.70312 313.14688 335.35938 312.88126Q335.03125 312.6 334.40625 312.6Q333.6875 312.6 333.375 312.85Q333.0625 313.08438 333.0625 313.4125Q333.0625 313.61563 333.1875 313.77188Q333.32812 313.94376 333.59375 314.05313Q333.75 314.11563 334.53125 314.31876Q335.65625 314.63126 336.09375 314.81876Q336.53125 315.00626 336.78125 315.36563Q337.03125 315.725 337.03125 316.27188Q337.03125 316.80313 336.71875 317.27188Q336.42188 317.725 335.84375 317.99063Q335.26562 318.24063 334.53125 318.24063Q333.3125 318.24063 332.67188 317.74063Q332.04688 317.225 331.875 316.24063ZM338.875 316.24063L339.90625 316.08438Q340.0 316.70938 340.39062 317.0375Q340.79688 317.36563 341.53125 317.36563Q342.25 317.36563 342.59375 317.08438Q342.95312 316.7875 342.95312 316.38126Q342.95312 316.02188 342.64062 315.81876Q342.42188 315.67813 341.5625 315.45938Q340.40625 315.1625 339.95312 314.95938Q339.51562 314.74063 339.28125 314.36563Q339.04688 313.99063 339.04688 313.52188Q339.04688 313.11563 339.23438 312.75626Q339.42188 312.39688 339.75 312.1625Q340.0 311.99063 340.42188 311.86563Q340.84375 311.74063 341.34375 311.74063Q342.0625 311.74063 342.60938 311.95938Q343.17188 312.1625 343.4375 312.52188Q343.70312 312.88126 343.79688 313.475L342.76562 313.61563Q342.70312 313.14688 342.35938 312.88126Q342.03125 312.6 341.40625 312.6Q340.6875 312.6 340.375 312.85Q340.0625 313.08438 340.0625 313.4125Q340.0625 313.61563 340.1875 313.77188Q340.32812 313.94376 340.59375 314.05313Q340.75 314.11563 341.53125 314.31876Q342.65625 314.63126 343.09375 314.81876Q343.53125 315.00626 343.78125 315.36563Q344.03125 315.725 344.03125 316.27188Q344.03125 316.80313 343.71875 317.27188Q343.42188 317.725 342.84375 317.99063Q342.26562 318.24063 341.53125 318.24063Q340.3125 318.24063 339.67188 317.74063Q339.04688 317.225 338.875 316.24063ZM350.54688 316.1L351.64062 316.225Q351.39062 317.17813 350.6875 317.70938Q349.98438 318.24063 348.90625 318.24063Q347.54688 318.24063 346.73438 317.39688Q345.9375 316.55313 345.9375 315.0375Q345.9375 313.475 346.75 312.61563Q347.5625 311.74063 348.84375 311.74063Q350.09375 311.74063 350.875 312.58438Q351.67188 313.42813 351.67188 314.975Q351.67188 315.06876 351.67188 315.25626L347.03125 315.25626Q347.09375 316.2875 347.60938 316.83438Q348.125 317.36563 348.90625 317.36563Q349.48438 317.36563 349.89062 317.06876Q350.3125 316.75626 350.54688 316.1ZM347.09375 314.39688L350.5625 314.39688Q350.5 313.6 350.17188 313.20938Q349.65625 312.6 348.85938 312.6Q348.125 312.6 347.625 313.08438Q347.14062 313.56876 347.09375 314.39688ZM352.875 316.24063L353.90625 316.08438Q354.0 316.70938 354.39062 317.0375Q354.79688 317.36563 355.53125 317.36563Q356.25 317.36563 356.59375 317.08438Q356.95312 316.7875 356.95312 316.38126Q356.95312 316.02188 356.64062 315.81876Q356.42188 315.67813 355.5625 315.45938Q354.40625 315.1625 353.95312 314.95938Q353.51562 314.74063 353.28125 314.36563Q353.04688 313.99063 353.04688 313.52188Q353.04688 313.11563 353.23438 312.75626Q353.42188 312.39688 353.75 312.1625Q354.0 311.99063 354.42188 311.86563Q354.84375 311.74063 355.34375 311.74063Q356.0625 311.74063 356.60938 311.95938Q357.17188 312.1625 357.4375 312.52188Q357.70312 312.88126 357.79688 313.475L356.76562 313.61563Q356.70312 313.14688 356.35938 312.88126Q356.03125 312.6 355.40625 312.6Q354.6875 312.6 354.375 312.85Q354.0625 313.08438 354.0625 313.4125Q354.0625 313.61563 354.1875 313.77188Q354.32812 313.94376 354.59375 314.05313Q354.75 314.11563 355.53125 314.31876Q356.65625 314.63126 357.09375 314.81876Q357.53125 315.00626 357.78125 315.36563Q358.03125 315.725 358.03125 316.27188Q358.03125 316.80313 357.71875 317.27188Q357.42188 317.725 356.84375 317.99063Q356.26562 318.24063 355.53125 318.24063Q354.3125 318.24063 353.67188 317.74063Q353.04688 317.225 352.875 316.24063Z" fill-rule="nonzero"/><path fill="#000000" d="M27.900005 214.75833L19.306255 214.75833L19.306255 211.52396Q19.306255 210.53958 19.57188 209.94583Q19.837505 209.35208 20.38438 209.02396Q20.91563 208.6802 21.50938 208.6802Q22.056255 208.6802 22.54063 208.97708Q23.025005 209.27396 23.32188 209.88333Q23.556255 209.10208 24.118755 208.69583Q24.66563 208.27396 25.41563 208.27396Q26.00938 208.27396 26.54063 208.52396Q27.056255 208.77396 27.337505 209.14896Q27.618755 209.52396 27.75938 210.10208Q27.900005 210.66458 27.900005 211.47708L27.900005 214.75833ZM22.91563 213.6177L22.91563 211.75833Q22.91563 211.00833 22.82188 210.6802Q22.69688 210.2427 22.400005 210.02396Q22.087505 209.8052 21.63438 209.8052Q21.212505 209.8052 20.88438 210.00833Q20.556255 210.21146 20.44688 210.60208Q20.32188 210.97708 20.32188 211.89896L20.32188 213.6177L22.91563 213.6177ZM26.88438 213.6177L26.88438 211.47708Q26.88438 210.9302 26.837505 210.71146Q26.775005 210.3052 26.618755 210.0552Q26.44688 209.78958 26.13438 209.6177Q25.82188 209.44583 25.41563 209.44583Q24.931255 209.44583 24.57188 209.69583Q24.212505 209.9302 24.07188 210.3677Q23.931255 210.8052 23.931255 211.63333L23.931255 213.6177L26.88438 213.6177ZM27.13438 202.77396Q27.63438 203.3677 27.837505 203.91458Q28.04063 204.44583 28.04063 205.07083Q28.04063 206.10208 27.54063 206.64896Q27.04063 207.19583 26.25938 207.19583Q25.806255 207.19583 25.431255 206.9927Q25.04063 206.78958 24.82188 206.44583Q24.587505 206.10208 24.47813 205.6802Q24.38438 205.38333 24.306255 204.7427Q24.16563 203.47708 23.94688 202.8677Q23.72813 202.8677 23.681255 202.8677Q23.025005 202.8677 22.75938 203.16458Q22.41563 203.57083 22.41563 204.3677Q22.41563 205.10208 22.681255 205.46146Q22.931255 205.82083 23.587505 205.9927L23.44688 207.02396Q22.79063 206.88333 22.38438 206.5552Q21.97813 206.22708 21.75938 205.6177Q21.54063 205.00833 21.54063 204.21146Q21.54063 203.41458 21.72813 202.91458Q21.91563 202.41458 22.19688 202.1802Q22.47813 201.94583 22.91563 201.85208Q23.181255 201.8052 23.88438 201.8052L25.29063 201.8052Q26.75938 201.8052 27.150005 201.7427Q27.54063 201.66458 27.900005 201.46146L27.900005 202.57083Q27.57188 202.72708 27.13438 202.77396ZM24.775005 202.8677Q25.00938 203.44583 25.181255 204.58646Q25.275005 205.2427 25.400005 205.50833Q25.50938 205.77396 25.72813 205.9302Q25.94688 206.07083 26.22813 206.07083Q26.650005 206.07083 26.931255 205.75833Q27.212505 205.4302 27.212505 204.82083Q27.212505 204.21146 26.94688 203.7427Q26.681255 203.25833 26.212505 203.03958Q25.85313 202.8677 25.16563 202.8677L24.775005 202.8677ZM27.900005 199.83646L21.681255 199.83646L21.681255 198.89896L22.556255 198.89896Q21.54063 198.21146 21.54063 196.91458Q21.54063 196.35208 21.743755 195.88333Q21.94688 195.39896 22.275005 195.16458Q22.60313 194.9302 23.04063 194.83646Q23.337505 194.78958 24.07188 194.78958L27.900005 194.78958L27.900005 195.83646L24.118755 195.83646Q23.462505 195.83646 23.150005 195.96146Q22.837505 196.08646 22.650005 196.39896Q22.44688 196.71146 22.44688 197.13333Q22.44688 197.8052 22.88438 198.3052Q23.306255 198.78958 24.493755 198.78958L27.900005 198.78958L27.900005 199.83646ZM27.900005 188.8052L27.118755 188.8052Q28.04063 189.39896 28.04063 190.53958Q28.04063 191.28958 27.63438 191.91458Q27.212505 192.53958 26.47813 192.88333Q25.743755 193.22708 24.79063 193.22708Q23.868755 193.22708 23.10313 192.91458Q22.337505 192.60208 21.94688 191.97708Q21.54063 191.35208 21.54063 190.58646Q21.54063 190.02396 21.775005 189.58646Q22.00938 189.14896 22.38438 188.8677L19.306255 188.8677L19.306255 187.82083L27.900005 187.82083L27.900005 188.8052ZM24.79063 192.13333Q25.993755 192.13333 26.587505 191.63333Q27.16563 191.13333 27.16563 190.44583Q27.16563 189.75833 26.60313 189.27396Q26.04063 188.78958 24.88438 188.78958Q23.60313 188.78958 23.00938 189.28958Q22.41563 189.77396 22.41563 190.4927Q22.41563 191.19583 22.993755 191.66458Q23.556255 192.13333 24.79063 192.13333ZM27.900005 184.69583L21.681255 186.60208L21.681255 185.50833L25.275005 184.52396L26.60313 184.14896Q26.50938 184.1177 25.32188 183.82083L21.681255 182.83646L21.681255 181.75833L25.29063 180.82083L26.47813 180.50833L25.275005 180.14896L21.681255 179.08646L21.681255 178.0552L27.900005 180.00833L27.900005 181.10208L24.16563 182.08646L23.118755 182.33646L27.900005 183.58646L27.900005 184.69583ZM20.525005 176.83646L19.306255 176.83646L19.306255 175.77396L20.525005 175.77396L20.525005 176.83646ZM27.900005 176.83646L21.681255 176.83646L21.681255 175.77396L27.900005 175.77396L27.900005 176.83646ZM27.900005 169.8052L27.118755 169.8052Q28.04063 170.39896 28.04063 171.53958Q28.04063 172.28958 27.63438 172.91458Q27.212505 173.53958 26.47813 173.88333Q25.743755 174.22708 24.79063 174.22708Q23.868755 174.22708 23.10313 173.91458Q22.337505 173.60208 21.94688 172.97708Q21.54063 172.35208 21.54063 171.58646Q21.54063 171.02396 21.775005 170.58646Q22.00938 170.14896 22.38438 169.8677L19.306255 169.8677L19.306255 168.82083L27.900005 168.82083L27.900005 169.8052ZM24.79063 173.13333Q25.993755 173.13333 26.587505 172.63333Q27.16563 172.13333 27.16563 171.44583Q27.16563 170.75833 26.60313 170.27396Q26.04063 169.78958 24.88438 169.78958Q23.60313 169.78958 23.00938 170.28958Q22.41563 170.77396 22.41563 171.4927Q22.41563 172.19583 22.993755 172.66458Q23.556255 173.13333 24.79063 173.13333ZM26.962505 164.53958L27.88438 164.38333Q27.97813 164.83646 27.97813 165.1802Q27.97813 165.75833 27.806255 166.07083Q27.618755 166.38333 27.32188 166.52396Q27.025005 166.64896 26.07188 166.64896L22.493755 166.64896L22.493755 167.41458L21.681255 167.41458L21.681255 166.64896L20.13438 166.64896L19.50938 165.60208L21.681255 165.60208L21.681255 164.53958L22.493755 164.53958L22.493755 165.60208L26.13438 165.60208Q26.587505 165.60208 26.712505 165.5552Q26.837505 165.4927 26.91563 165.3677Q26.993755 165.2427 26.993755 165.00833Q26.993755 164.82083 26.962505 164.53958ZM27.900005 163.83646L19.306255 163.83646L19.306255 162.78958L22.38438 162.78958Q21.54063 162.0552 21.54063 160.9302Q21.54063 160.22708 21.82188 159.72708Q22.087505 159.21146 22.57188 158.9927Q23.04063 158.77396 23.962505 158.77396L27.900005 158.77396L27.900005 159.82083L23.962505 159.82083Q23.16563 159.82083 22.806255 160.16458Q22.44688 160.50833 22.44688 161.13333Q22.44688 161.60208 22.69688 162.02396Q22.931255 162.4302 23.35313 162.6177Q23.75938 162.78958 24.493755 162.78958L27.900005 162.78958L27.900005 163.83646ZM30.431255 151.82083Q29.32188 152.69583 27.85313 153.3052Q26.368755 153.89896 24.79063 153.89896Q23.400005 153.89896 22.118755 153.46146Q20.63438 152.9302 19.16563 151.82083L19.16563 151.07083Q20.38438 151.77396 20.900005 152.00833Q21.712505 152.3677 22.587505 152.57083Q23.681255 152.82083 24.79063 152.82083Q27.618755 152.82083 30.431255 151.07083L30.431255 151.82083ZM27.900005 149.7427L19.306255 149.7427L19.306255 148.02396L25.38438 145.9927Q26.243755 145.71146 26.66563 145.58646Q26.19688 145.44583 25.29063 145.13333L19.306255 143.07083L19.306255 141.53958L27.900005 141.53958L27.900005 142.63333L20.712505 142.63333L27.900005 145.13333L27.900005 146.16458L20.587505 148.64896L27.900005 148.64896L27.900005 149.7427ZM27.900005 140.75833L19.306255 140.75833L19.306255 137.52396Q19.306255 136.53958 19.57188 135.94583Q19.837505 135.35208 20.38438 135.02396Q20.91563 134.6802 21.50938 134.6802Q22.056255 134.6802 22.54063 134.97708Q23.025005 135.27396 23.32188 135.88333Q23.556255 135.10208 24.118755 134.69583Q24.66563 134.27396 25.41563 134.27396Q26.00938 134.27396 26.54063 134.52396Q27.056255 134.77396 27.337505 135.14896Q27.618755 135.52396 27.75938 136.10208Q27.900005 136.66458 27.900005 137.47708L27.900005 140.75833ZM22.91563 139.6177L22.91563 137.75833Q22.91563 137.00833 22.82188 136.6802Q22.69688 136.2427 22.400005 136.02396Q22.087505 135.8052 21.63438 135.8052Q21.212505 135.8052 20.88438 136.00833Q20.556255 136.21146 20.44688 136.60208Q20.32188 136.97708 20.32188 137.89896L20.32188 139.6177L22.91563 139.6177ZM26.88438 139.6177L26.88438 137.47708Q26.88438 136.9302 26.837505 136.71146Q26.775005 136.3052 26.618755 136.0552Q26.44688 135.78958 26.13438 135.6177Q25.82188 135.44583 25.41563 135.44583Q24.931255 135.44583 24.57188 135.69583Q24.212505 135.9302 24.07188 136.3677Q23.931255 136.8052 23.931255 137.63333L23.931255 139.6177L26.88438 139.6177ZM30.29063 132.83646L21.681255 132.83646L21.681255 131.88333L22.47813 131.88333Q22.00938 131.53958 21.775005 131.1177Q21.54063 130.6802 21.54063 130.07083Q21.54063 129.27396 21.94688 128.66458Q22.35313 128.0552 23.10313 127.75833Q23.85313 127.44583 24.743755 127.44583Q25.69688 127.44583 26.462505 127.78958Q27.22813 128.1177 27.63438 128.77396Q28.04063 129.4302 28.04063 130.14896Q28.04063 130.6802 27.82188 131.10208Q27.587505 131.52396 27.25938 131.78958L30.29063 131.78958L30.29063 132.83646ZM24.82188 131.88333Q26.025005 131.88333 26.60313 131.39896Q27.16563 130.91458 27.16563 130.22708Q27.16563 129.52396 26.57188 129.02396Q25.97813 128.52396 24.72813 128.52396Q23.54063 128.52396 22.962505 129.00833Q22.368755 129.4927 22.368755 130.1802Q22.368755 130.85208 22.993755 131.3677Q23.618755 131.88333 24.82188 131.88333ZM26.04063 126.25833L25.88438 125.22708Q26.50938 125.13333 26.837505 124.74271Q27.16563 124.33646 27.16563 123.60208Q27.16563 122.88333 26.88438 122.53958Q26.587505 122.18021 26.181255 122.18021Q25.82188 122.18021 25.618755 122.49271Q25.47813 122.71146 25.25938 123.57083Q24.962505 124.72708 24.75938 125.18021Q24.54063 125.61771 24.16563 125.85208Q23.79063 126.08646 23.32188 126.08646Q22.91563 126.08646 22.556255 125.89896Q22.19688 125.71146 21.962505 125.38333Q21.79063 125.13333 21.66563 124.71146Q21.54063 124.28958 21.54063 123.78958Q21.54063 123.07083 21.75938 122.52396Q21.962505 121.96146 22.32188 121.69583Q22.681255 121.43021 23.275005 121.33646L23.41563 122.36771Q22.94688 122.43021 22.681255 122.77396Q22.400005 123.10208 22.400005 123.72708Q22.400005 124.44583 22.650005 124.75833Q22.88438 125.07083 23.212505 125.07083Q23.41563 125.07083 23.57188 124.94583Q23.743755 124.80521 23.85313 124.53958Q23.91563 124.38333 24.118755 123.60208Q24.431255 122.47708 24.618755 122.03958Q24.806255 121.60208 25.16563 121.35208Q25.525005 121.10208 26.07188 121.10208Q26.60313 121.10208 27.07188 121.41458Q27.525005 121.71146 27.79063 122.28958Q28.04063 122.86771 28.04063 123.60208Q28.04063 124.82083 27.54063 125.46146Q27.025005 126.08646 26.04063 126.25833ZM30.431255 118.14896L30.431255 118.89896Q27.618755 117.14896 24.79063 117.14896Q23.69688 117.14896 22.60313 117.39896Q21.72813 117.60208 20.91563 117.96146Q20.400005 118.19583 19.16563 118.89896L19.16563 118.14896Q20.63438 117.05521 22.118755 116.52396Q23.400005 116.07083 24.79063 116.07083Q26.368755 116.07083 27.85313 116.68021Q29.32188 117.28958 30.431255 118.14896Z" fill-rule="nonzero"/><path fill="#000000" d="M63.4 268.86563Q63.4 267.33438 63.7125 266.4125Q64.025 265.475 64.63438 264.975Q65.25938 264.475 66.19688 264.475Q66.88438 264.475 67.4 264.75626Q67.93125 265.0375 68.275 265.56876Q68.61875 266.08438 68.80625 266.83438Q68.99375 267.58438 68.99375 268.86563Q68.99375 270.38126 68.68125 271.30313Q68.38438 272.225 67.75938 272.74063Q67.15 273.24063 66.19688 273.24063Q64.9625 273.24063 64.24375 272.35Q63.4 271.2875 63.4 268.86563ZM64.47813 268.86563Q64.47813 270.975 64.97813 271.67813Q65.47813 272.38126 66.19688 272.38126Q66.93125 272.38126 67.41563 271.67813Q67.91563 270.975 67.91563 268.86563Q67.91563 266.74063 67.41563 266.05313Q66.93125 265.35 66.18125 265.35Q65.4625 265.35 65.025 265.95938Q64.47813 266.74063 64.47813 268.86563Z" fill-rule="nonzero"/><path fill="#000000" d="M54.946877 198.77327L54.946877 199.7889L49.259377 199.7889Q49.259377 199.4139 49.384377 199.05452Q49.603127 198.4764 50.071877 197.9139Q50.55625 197.3514 51.4625 196.61702Q52.86875 195.46077 53.353127 194.7889Q53.853127 194.11702 53.853127 193.52327Q53.853127 192.89827 53.4 192.4764Q52.946877 192.0389 52.228127 192.0389Q51.4625 192.0389 51.009377 192.49202Q50.55625 192.94514 50.540627 193.75764L49.4625 193.64827Q49.571877 192.42952 50.290627 191.80452Q51.025 191.1639 52.259377 191.1639Q53.49375 191.1639 54.2125 191.8514Q54.93125 192.5389 54.93125 193.55452Q54.93125 194.07014 54.7125 194.57014Q54.509377 195.05452 54.009377 195.61702Q53.525 196.1639 52.4 197.11702Q51.446877 197.9139 51.165627 198.21077Q50.9 198.49202 50.728127 198.77327L54.946877 198.77327ZM56.4 195.55452Q56.4 194.02327 56.7125 193.1014Q57.025 192.1639 57.634377 191.6639Q58.259377 191.1639 59.196877 191.1639Q59.884377 191.1639 60.4 191.44514Q60.93125 191.7264 61.275 192.25764Q61.61875 192.77327 61.80625 193.52327Q61.99375 194.27327 61.99375 195.55452Q61.99375 197.07014 61.68125 197.99202Q61.384377 198.9139 60.759377 199.42952Q60.15 199.92952 59.196877 199.92952Q57.9625 199.92952 57.24375 199.0389Q56.4 197.9764 56.4 195.55452ZM57.478127 195.55452Q57.478127 197.6639 57.978127 198.36702Q58.478127 199.07014 59.196877 199.07014Q59.93125 199.07014 60.415627 198.36702Q60.915627 197.6639 60.915627 195.55452Q60.915627 193.42952 60.415627 192.74202Q59.93125 192.0389 59.18125 192.0389Q58.4625 192.0389 58.025 192.64827Q57.478127 193.42952 57.478127 195.55452ZM63.4 195.55452Q63.4 194.02327 63.7125 193.1014Q64.025 192.1639 64.63438 191.6639Q65.25938 191.1639 66.19688 191.1639Q66.88438 191.1639 67.4 191.44514Q67.93125 191.7264 68.275 192.25764Q68.61875 192.77327 68.80625 193.52327Q68.99375 194.27327 68.99375 195.55452Q68.99375 197.07014 68.68125 197.99202Q68.38438 198.9139 67.75938 199.42952Q67.15 199.92952 66.19688 199.92952Q64.9625 199.92952 64.24375 199.0389Q63.4 197.9764 63.4 195.55452ZM64.47813 195.55452Q64.47813 197.6639 64.97813 198.36702Q65.47813 199.07014 66.19688 199.07014Q66.93125 199.07014 67.41563 198.36702Q67.91563 197.6639 67.91563 195.55452Q67.91563 193.42952 67.41563 192.74202Q66.93125 192.0389 66.18125 192.0389Q65.4625 192.0389 65.025 192.64827Q64.47813 193.42952 64.47813 195.55452Z" fill-rule="nonzero"/><path fill="#000000" d="M52.775 126.477776L52.775 124.415276L49.05625 124.415276L49.05625 123.446526L52.978127 117.884026L53.8375 117.884026L53.8375 123.446526L54.99375 123.446526L54.99375 124.415276L53.8375 124.415276L53.8375 126.477776L52.775 126.477776ZM52.775 123.446526L52.775 119.58715L50.0875 123.446526L52.775 123.446526ZM56.4 122.2434Q56.4 120.71215 56.7125 119.790276Q57.025 118.852776 57.634377 118.352776Q58.259377 117.852776 59.196877 117.852776Q59.884377 117.852776 60.4 118.134026Q60.93125 118.415276 61.275 118.946526Q61.61875 119.46215 61.80625 120.21215Q61.99375 120.96215 61.99375 122.2434Q61.99375 123.759026 61.68125 124.6809Q61.384377 125.602776 60.759377 126.1184Q60.15 126.6184 59.196877 126.6184Q57.9625 126.6184 57.24375 125.727776Q56.4 124.665276 56.4 122.2434ZM57.478127 122.2434Q57.478127 124.352776 57.978127 125.0559Q58.478127 125.759026 59.196877 125.759026Q59.93125 125.759026 60.415627 125.0559Q60.915627 124.352776 60.915627 122.2434Q60.915627 120.1184 60.415627 119.4309Q59.93125 118.727776 59.18125 118.727776Q58.4625 118.727776 58.025 119.33715Q57.478127 120.1184 57.478127 122.2434ZM63.4 122.2434Q63.4 120.71215 63.7125 119.790276Q64.025 118.852776 64.63438 118.352776Q65.25938 117.852776 66.19688 117.852776Q66.88438 117.852776 67.4 118.134026Q67.93125 118.415276 68.275 118.946526Q68.61875 119.46215 68.80625 120.21215Q68.99375 120.96215 68.99375 122.2434Q68.99375 123.759026 68.68125 124.6809Q68.38438 125.602776 67.75938 126.1184Q67.15 126.6184 66.19688 126.6184Q64.9625 126.6184 64.24375 125.727776Q63.4 124.665276 63.4 122.2434ZM64.47813 122.2434Q64.47813 124.352776 64.97813 125.0559Q65.47813 125.759026 66.19688 125.759026Q66.93125 125.759026 67.41563 125.0559Q67.91563 124.352776 67.91563 122.2434Q67.91563 120.1184 67.41563 119.4309Q66.93125 118.727776 66.18125 118.727776Q65.4625 118.727776 65.025 119.33715Q64.47813 120.1184 64.47813 122.2434Z" fill-rule="nonzero"/><path fill="#000000" d="M54.86875 46.682293L53.821877 46.760418Q53.68125 46.135418 53.43125 45.854168Q52.99375 45.401043 52.36875 45.401043Q51.86875 45.401043 51.478127 45.682293Q50.99375 46.057293 50.696877 46.760418Q50.415627 47.447918 50.4 48.729168Q50.775 48.151043 51.321877 47.869793Q51.884377 47.588543 52.49375 47.588543Q53.540627 47.588543 54.275 48.369793Q55.025 49.151043 55.025 50.369793Q55.025 51.182293 54.665627 51.885418Q54.321877 52.572918 53.7125 52.947918Q53.103127 53.307293 52.3375 53.307293Q51.009377 53.307293 50.18125 52.338543Q49.353127 51.369793 49.353127 49.151043Q49.353127 46.651043 50.275 45.526043Q51.071877 44.541668 52.43125 44.541668Q53.446877 44.541668 54.0875 45.119793Q54.74375 45.682293 54.86875 46.682293ZM50.571877 50.385418Q50.571877 50.932293 50.790627 51.432293Q51.025 51.916668 51.43125 52.182293Q51.853127 52.447918 52.321877 52.447918Q52.978127 52.447918 53.4625 51.916668Q53.946877 51.369793 53.946877 50.447918Q53.946877 49.557293 53.4625 49.041668Q52.99375 48.526043 52.275 48.526043Q51.55625 48.526043 51.05625 49.041668Q50.571877 49.557293 50.571877 50.385418ZM56.4 48.932293Q56.4 47.401043 56.7125 46.479168Q57.025 45.541668 57.634377 45.041668Q58.259377 44.541668 59.196877 44.541668Q59.884377 44.541668 60.4 44.822918Q60.93125 45.104168 61.275 45.635418Q61.61875 46.151043 61.80625 46.901043Q61.99375 47.651043 61.99375 48.932293Q61.99375 50.447918 61.68125 51.369793Q61.384377 52.291668 60.759377 52.807293Q60.15 53.307293 59.196877 53.307293Q57.9625 53.307293 57.24375 52.416668Q56.4 51.354168 56.4 48.932293ZM57.478127 48.932293Q57.478127 51.041668 57.978127 51.744793Q58.478127 52.447918 59.196877 52.447918Q59.93125 52.447918 60.415627 51.744793Q60.915627 51.041668 60.915627 48.932293Q60.915627 46.807293 60.415627 46.119793Q59.93125 45.416668 59.18125 45.416668Q58.4625 45.416668 58.025 46.026043Q57.478127 46.807293 57.478127 48.932293ZM63.4 48.932293Q63.4 47.401043 63.7125 46.479168Q64.025 45.541668 64.63438 45.041668Q65.25938 44.541668 66.19688 44.541668Q66.88438 44.541668 67.4 44.822918Q67.93125 45.104168 68.275 45.635418Q68.61875 46.151043 68.80625 46.901043Q68.99375 47.651043 68.99375 48.932293Q68.99375 50.447918 68.68125 51.369793Q68.38438 52.291668 67.75938 52.807293Q67.15 53.307293 66.19688 53.307293Q64.9625 53.307293 64.24375 52.416668Q63.4 51.354168 63.4 48.932293ZM64.47813 48.932293Q64.47813 51.041668 64.97813 51.744793Q65.47813 52.447918 66.19688 52.447918Q66.93125 52.447918 67.41563 51.744793Q67.91563 51.041668 67.91563 48.932293Q67.91563 46.807293 67.41563 46.119793Q66.93125 45.416668 66.18125 45.416668Q65.4625 45.416668 65.025 46.026043Q64.47813 46.807293 64.47813 48.932293Z" fill-rule="nonzero"/><path fill="#000000" d="M123.44834 286.1L122.40147 286.1L122.40147 279.38126Q122.01084 279.74063 121.38584 280.11563Q120.77647 280.475 120.29209 280.64688L120.29209 279.63126Q121.16709 279.20938 121.82334 278.63126Q122.49522 278.0375 122.77647 277.475L123.44834 277.475L123.44834 286.1Z" fill-rule="nonzero"/><path fill="#000000" d="M194.03326 285.08438L194.03326 286.1L188.34576 286.1Q188.34576 285.725 188.47076 285.36563Q188.68951 284.7875 189.15826 284.225Q189.64264 283.6625 190.54889 282.92813Q191.95514 281.77188 192.43951 281.1Q192.93951 280.42813 192.93951 279.83438Q192.93951 279.20938 192.48639 278.7875Q192.03326 278.35 191.31451 278.35Q190.54889 278.35 190.09576 278.80313Q189.64264 279.25626 189.62701 280.06876L188.54889 279.95938Q188.65826 278.74063 189.37701 278.11563Q190.11139 277.475 191.34576 277.475Q192.58014 277.475 193.29889 278.1625Q194.01764 278.85 194.01764 279.86563Q194.01764 280.38126 193.79889 280.88126Q193.59576 281.36563 193.09576 281.92813Q192.61139 282.475 191.48639 283.42813Q190.53326 284.225 190.25201 284.52188Q189.98639 284.80313 189.81451 285.08438L194.03326 285.08438Z" fill-rule="nonzero"/><path fill="#000000" d="M260.8682 286.1L260.8682 284.0375L257.14944 284.0375L257.14944 283.06876L261.07132 277.50626L261.9307 277.50626L261.9307 283.06876L263.08694 283.06876L263.08694 284.0375L261.9307 284.0375L261.9307 286.1L260.8682 286.1ZM260.8682 283.06876L260.8682 279.20938L258.1807 283.06876L260.8682 283.06876Z" fill-rule="nonzero"/><path fill="#000000" d="M328.125 281.44376Q327.46875 281.19376 327.14062 280.75626Q326.82812 280.30313 326.82812 279.69376Q326.82812 278.75626 327.5 278.11563Q328.1875 277.475 329.29688 277.475Q330.42188 277.475 331.10938 278.13126Q331.79688 278.7875 331.79688 279.725Q331.79688 280.31876 331.48438 280.75626Q331.17188 281.19376 330.53125 281.44376Q331.32812 281.69376 331.73438 282.27188Q332.14062 282.85 332.14062 283.64688Q332.14062 284.74063 331.35938 285.49063Q330.59375 286.24063 329.3125 286.24063Q328.04688 286.24063 327.26562 285.49063Q326.48438 284.74063 326.48438 283.61563Q326.48438 282.77188 326.90625 282.20938Q327.34375 281.64688 328.125 281.44376ZM327.90625 279.64688Q327.90625 280.25626 328.29688 280.64688Q328.70312 281.0375 329.32812 281.0375Q329.9375 281.0375 330.32812 280.6625Q330.71875 280.27188 330.71875 279.70938Q330.71875 279.13126 330.3125 278.74063Q329.90625 278.33438 329.3125 278.33438Q328.70312 278.33438 328.29688 278.725Q327.90625 279.11563 327.90625 279.64688ZM327.57812 283.61563Q327.57812 284.06876 327.78125 284.49063Q328.0 284.9125 328.42188 285.14688Q328.84375 285.38126 329.32812 285.38126Q330.07812 285.38126 330.5625 284.89688Q331.0625 284.4125 331.0625 283.6625Q331.0625 282.89688 330.5625 282.39688Q330.0625 281.89688 329.29688 281.89688Q328.54688 281.89688 328.0625 282.39688Q327.57812 282.88126 327.57812 283.61563Z" fill-rule="nonzero"/><path fill="#000000" d="M395.97556 286.1L394.92868 286.1L394.92868 279.38126Q394.53806 279.74063 393.91306 280.11563Q393.30368 280.475 392.8193 280.64688L392.8193 279.63126Q393.6943 279.20938 394.35056 278.63126Q395.02243 278.0375 395.30368 277.475L395.97556 277.475L395.97556 286.1ZM404.47556 279.61563L403.42868 279.69376Q403.28806 279.06876 403.03806 278.7875Q402.60056 278.33438 401.97556 278.33438Q401.47556 278.33438 401.08493 278.61563Q400.60056 278.99063 400.30368 279.69376Q400.02243 280.38126 400.0068 281.6625Q400.3818 281.08438 400.92868 280.80313Q401.49118 280.52188 402.10056 280.52188Q403.14743 280.52188 403.8818 281.30313Q404.6318 282.08438 404.6318 283.30313Q404.6318 284.11563 404.27243 284.81876Q403.92868 285.50626 403.3193 285.88126Q402.70993 286.24063 401.9443 286.24063Q400.61618 286.24063 399.78806 285.27188Q398.95993 284.30313 398.95993 282.08438Q398.95993 279.58438 399.8818 278.45938Q400.67868 277.475 402.03806 277.475Q403.05368 277.475 403.6943 278.05313Q404.35056 278.61563 404.47556 279.61563ZM400.17868 283.31876Q400.17868 283.86563 400.39743 284.36563Q400.6318 284.85 401.03806 285.11563Q401.45993 285.38126 401.92868 285.38126Q402.58493 285.38126 403.0693 284.85Q403.55368 284.30313 403.55368 283.38126Q403.55368 282.49063 403.0693 281.975Q402.60056 281.45938 401.8818 281.45938Q401.16306 281.45938 400.66306 281.975Q400.17868 282.49063 400.17868 283.31876Z" fill-rule="nonzero"/><path fill="#000000" d="M461.0136 283.83438L462.0761 283.69376Q462.248 284.58438 462.6855 284.99063Q463.123 285.38126 463.748 285.38126Q464.498 285.38126 465.0136 284.86563Q465.52924 284.35 465.52924 283.58438Q465.52924 282.86563 465.04486 282.39688Q464.5761 281.9125 463.84174 281.9125Q463.54486 281.9125 463.09174 282.0375L463.21674 281.1Q463.3261 281.11563 463.3886 281.11563Q464.0605 281.11563 464.59174 280.77188Q465.1386 280.4125 465.1386 279.67813Q465.1386 279.1 464.748 278.725Q464.35736 278.33438 463.73236 278.33438Q463.123 278.33438 462.7011 278.725Q462.29486 279.11563 462.1855 279.88126L461.123 279.69376Q461.3105 278.64688 461.998 278.06876Q462.6855 277.475 463.7011 277.475Q464.40424 277.475 464.998 277.7875Q465.59174 278.08438 465.90424 278.6Q466.21674 279.11563 466.21674 279.70938Q466.21674 280.25626 465.91986 280.725Q465.623 281.17813 465.04486 281.44376Q465.79486 281.61563 466.21674 282.17813Q466.6386 282.725 466.6386 283.56876Q466.6386 284.69376 465.8105 285.475Q464.998 286.25626 463.748 286.25626Q462.623 286.25626 461.873 285.58438Q461.123 284.89688 461.0136 283.83438ZM473.5605 285.08438L473.5605 286.1L467.873 286.1Q467.873 285.725 467.998 285.36563Q468.21674 284.7875 468.6855 284.225Q469.16986 283.6625 470.0761 282.92813Q471.48236 281.77188 471.96674 281.1Q472.46674 280.42813 472.46674 279.83438Q472.46674 279.20938 472.0136 278.7875Q471.5605 278.35 470.84174 278.35Q470.0761 278.35 469.623 278.80313Q469.16986 279.25626 469.15424 280.06876L468.0761 279.95938Q468.1855 278.74063 468.90424 278.11563Q469.6386 277.475 470.873 277.475Q472.10736 277.475 472.8261 278.1625Q473.54486 278.85 473.54486 279.86563Q473.54486 280.38126 473.3261 280.88126Q473.123 281.36563 472.623 281.92813Q472.1386 282.475 471.0136 283.42813Q470.0605 284.225 469.77924 284.52188Q469.5136 284.80313 469.34174 285.08438L473.5605 285.08438Z" fill-rule="nonzero"/><path fill="#000000" d="M533.3954 286.1L533.3954 284.0375L529.67664 284.0375L529.67664 283.06876L533.5985 277.50626L534.4579 277.50626L534.4579 283.06876L535.61414 283.06876L535.61414 284.0375L534.4579 284.0375L534.4579 286.1L533.3954 286.1ZM533.3954 283.06876L533.3954 279.20938L530.7079 283.06876L533.3954 283.06876ZM538.6454 281.44376Q537.98914 281.19376 537.661 280.75626Q537.3485 280.30313 537.3485 279.69376Q537.3485 278.75626 538.0204 278.11563Q538.7079 277.475 539.81726 277.475Q540.94226 277.475 541.62976 278.13126Q542.31726 278.7875 542.31726 279.725Q542.31726 280.31876 542.00476 280.75626Q541.69226 281.19376 541.05164 281.44376Q541.8485 281.69376 542.25476 282.27188Q542.661 282.85 542.661 283.64688Q542.661 284.74063 541.87976 285.49063Q541.11414 286.24063 539.8329 286.24063Q538.56726 286.24063 537.786 285.49063Q537.00476 284.74063 537.00476 283.61563Q537.00476 282.77188 537.42664 282.20938Q537.86414 281.64688 538.6454 281.44376ZM538.42664 279.64688Q538.42664 280.25626 538.81726 280.64688Q539.2235 281.0375 539.8485 281.0375Q540.4579 281.0375 540.8485 280.6625Q541.23914 280.27188 541.23914 279.70938Q541.23914 279.13126 540.8329 278.74063Q540.42664 278.33438 539.8329 278.33438Q539.2235 278.33438 538.81726 278.725Q538.42664 279.11563 538.42664 279.64688ZM538.0985 283.61563Q538.0985 284.06876 538.30164 284.49063Q538.5204 284.9125 538.94226 285.14688Q539.36414 285.38126 539.8485 285.38126Q540.5985 285.38126 541.0829 284.89688Q541.5829 284.4125 541.5829 283.6625Q541.5829 282.89688 541.0829 282.39688Q540.5829 281.89688 539.81726 281.89688Q539.06726 281.89688 538.5829 282.39688Q538.0985 282.88126 538.0985 283.61563Z" fill-rule="nonzero"/><path fill="#4285f4" d="M209.5 18.9C209.5 18.347715 209.94771 17.9 210.5 17.9L220.5 17.9C221.05229 17.9 221.5 18.347715 221.5 18.9L221.5 28.9C221.5 29.452284 221.05229 29.9 220.5 29.9L210.5 29.9C209.94771 29.9 209.5 29.452284 209.5 28.9Z" fill-rule="nonzero"/><path fill="#1a1a1a" d="M230.42188 27.9L230.42188 19.30625L233.67188 19.30625Q234.51562 19.30625 234.96875 19.384375Q235.60938 19.49375 236.03125 19.790625Q236.46875 20.0875 236.71875 20.61875Q236.98438 21.15 236.98438 21.790625Q236.98438 22.884375 236.28125 23.65Q235.59375 24.4 233.76562 24.4L231.5625 24.4L231.5625 27.9L230.42188 27.9ZM231.5625 23.4L233.78125 23.4Q234.89062 23.4 235.34375 22.99375Q235.8125 22.571875 235.8125 21.821875Q235.8125 21.290625 235.53125 20.915625Q235.26562 20.525 234.82812 20.4Q234.53125 20.321875 233.76562 20.321875L231.5625 20.321875L231.5625 23.4ZM242.375 27.9L242.375 26.978125Q241.64062 28.040625 240.39062 28.040625Q239.84375 28.040625 239.35938 27.8375Q238.89062 27.61875 238.65625 27.30625Q238.42188 26.978125 238.32812 26.509375Q238.26562 26.2125 238.26562 25.525L238.26562 21.68125L239.32812 21.68125L239.32812 25.134375Q239.32812 25.946875 239.39062 26.24375Q239.48438 26.65 239.79688 26.9Q240.125 27.134375 240.60938 27.134375Q241.07812 27.134375 241.48438 26.9Q241.90625 26.65 242.07812 26.228125Q242.26562 25.80625 242.26562 25.009375L242.26562 21.68125L243.3125 21.68125L243.3125 27.9L242.375 27.9ZM247.59375 26.9625L247.75 27.884375Q247.29688 27.978125 246.95312 27.978125Q246.375 27.978125 246.0625 27.80625Q245.75 27.61875 245.60938 27.321875Q245.48438 27.025 245.48438 26.071875L245.48438 22.49375L244.71875 22.49375L244.71875 21.68125L245.48438 21.68125L245.48438 20.134375L246.53125 19.509375L246.53125 21.68125L247.59375 21.68125L247.59375 22.49375L246.53125 22.49375L246.53125 26.134375Q246.53125 26.5875 246.57812 26.7125Q246.64062 26.8375 246.76562 26.915625Q246.89062 26.99375 247.125 26.99375Q247.3125 26.99375 247.59375 26.9625ZM253.3125 30.43125Q252.4375 29.321875 251.82812 27.853125Q251.23438 26.36875 251.23438 24.790625Q251.23438 23.4 251.67188 22.11875Q252.20312 20.634375 253.3125 19.165625L254.0625 19.165625Q253.35938 20.384375 253.125 20.9Q252.76562 21.7125 252.5625 22.5875Q252.3125 23.68125 252.3125 24.790625Q252.3125 27.61875 254.0625 30.43125L253.3125 30.43125ZM255.39062 27.9L255.39062 19.30625L257.10938 19.30625L259.14062 25.384375Q259.42188 26.24375 259.54688 26.665625Q259.6875 26.196875 260.0 25.290625L262.0625 19.30625L263.59375 19.30625L263.59375 27.9L262.5 27.9L262.5 20.7125L260.0 27.9L258.96875 27.9L256.48438 20.5875L256.48438 27.9L255.39062 27.9ZM264.375 27.9L264.375 19.30625L267.60938 19.30625Q268.59375 19.30625 269.1875 19.571875Q269.78125 19.8375 270.10938 20.384375Q270.45312 20.915625 270.45312 21.509375Q270.45312 22.05625 270.15625 22.540625Q269.85938 23.025 269.25 23.321875Q270.03125 23.55625 270.4375 24.11875Q270.85938 24.665625 270.85938 25.415625Q270.85938 26.009375 270.60938 26.540625Q270.35938 27.05625 269.98438 27.3375Q269.60938 27.61875 269.03125 27.759375Q268.46875 27.9 267.65625 27.9L264.375 27.9ZM265.51562 22.915625L267.375 22.915625Q268.125 22.915625 268.45312 22.821875Q268.89062 22.696875 269.10938 22.4Q269.32812 22.0875 269.32812 21.634375Q269.32812 21.2125 269.125 20.884375Q268.92188 20.55625 268.53125 20.446875Q268.15625 20.321875 267.23438 20.321875L265.51562 20.321875L265.51562 22.915625ZM265.51562 26.884375L267.65625 26.884375Q268.20312 26.884375 268.42188 26.8375Q268.82812 26.775 269.07812 26.61875Q269.34375 26.446875 269.51562 26.134375Q269.6875 25.821875 269.6875 25.415625Q269.6875 24.93125 269.4375 24.571875Q269.20312 24.2125 268.76562 24.071875Q268.32812 23.93125 267.5 23.93125L265.51562 23.93125L265.51562 26.884375ZM272.42188 27.9L272.42188 19.30625L275.67188 19.30625Q276.51562 19.30625 276.96875 19.384375Q277.60938 19.49375 278.03125 19.790625Q278.46875 20.0875 278.71875 20.61875Q278.98438 21.15 278.98438 21.790625Q278.98438 22.884375 278.28125 23.65Q277.59375 24.4 275.76562 24.4L273.5625 24.4L273.5625 27.9L272.42188 27.9ZM273.5625 23.4L275.78125 23.4Q276.89062 23.4 277.34375 22.99375Q277.8125 22.571875 277.8125 21.821875Q277.8125 21.290625 277.53125 20.915625Q277.26562 20.525 276.82812 20.4Q276.53125 20.321875 275.76562 20.321875L273.5625 20.321875L273.5625 23.4ZM280.04688 25.134375L281.10938 25.040625Q281.1875 25.696875 281.46875 26.103125Q281.75 26.509375 282.32812 26.775Q282.92188 27.025 283.65625 27.025Q284.29688 27.025 284.79688 26.8375Q285.29688 26.634375 285.53125 26.30625Q285.78125 25.9625 285.78125 25.571875Q285.78125 25.165625 285.54688 24.86875Q285.3125 24.55625 284.78125 24.353125Q284.42188 24.2125 283.23438 23.93125Q282.0625 23.65 281.59375 23.4Q280.96875 23.071875 280.67188 22.603125Q280.375 22.11875 280.375 21.525Q280.375 20.884375 280.73438 20.321875Q281.10938 19.74375 281.8125 19.4625Q282.53125 19.165625 283.39062 19.165625Q284.34375 19.165625 285.07812 19.478125Q285.8125 19.775 286.20312 20.384375Q286.59375 20.978125 286.625 21.728125L285.53125 21.80625Q285.4375 20.99375 284.92188 20.5875Q284.42188 20.165625 283.4375 20.165625Q282.40625 20.165625 281.9375 20.540625Q281.46875 20.915625 281.46875 21.446875Q281.46875 21.915625 281.79688 22.2125Q282.125 22.509375 283.5 22.821875Q284.89062 23.134375 285.40625 23.36875Q286.15625 23.728125 286.51562 24.259375Q286.875 24.775 286.875 25.478125Q286.875 26.165625 286.48438 26.775Q286.09375 27.36875 285.35938 27.7125Q284.625 28.040625 283.70312 28.040625Q282.53125 28.040625 281.73438 27.7125Q280.95312 27.36875 280.5 26.68125Q280.0625 25.99375 280.04688 25.134375ZM288.98438 30.43125L288.23438 30.43125Q289.98438 27.61875 289.98438 24.790625Q289.98438 23.696875 289.73438 22.603125Q289.53125 21.728125 289.17188 20.915625Q288.9375 20.4 288.23438 19.165625L288.98438 19.165625Q290.07812 20.634375 290.60938 22.11875Q291.0625 23.4 291.0625 24.790625Q291.0625 26.36875 290.45312 27.853125Q289.84375 29.321875 288.98438 30.43125Z" fill-rule="nonzero"/><path fill="#ea4335" d="M307.5 18.9C307.5 18.347715 307.94772 17.9 308.5 17.9L318.5 17.9C319.05228 17.9 319.5 18.347715 319.5 18.9L319.5 28.9C319.5 29.452284 319.05228 29.9 318.5 29.9L308.5 29.9C307.94772 29.9 307.5 29.452284 307.5 28.9Z" fill-rule="nonzero"/><path fill="#1a1a1a" d="M332.45312 24.525L332.45312 23.525L336.07812 23.509375L336.07812 26.696875Q335.25 27.36875 334.35938 27.7125Q333.46875 28.040625 332.53125 28.040625Q331.26562 28.040625 330.21875 27.509375Q329.1875 26.9625 328.65625 25.946875Q328.14062 24.915625 328.14062 23.65Q328.14062 22.384375 328.65625 21.30625Q329.1875 20.2125 330.17188 19.696875Q331.15625 19.165625 332.4375 19.165625Q333.375 19.165625 334.125 19.4625Q334.875 19.759375 335.29688 20.30625Q335.73438 20.8375 335.95312 21.7125L334.9375 21.99375Q334.73438 21.3375 334.4375 20.9625Q334.15625 20.5875 333.625 20.36875Q333.09375 20.134375 332.45312 20.134375Q331.67188 20.134375 331.09375 20.36875Q330.53125 20.603125 330.17188 20.99375Q329.82812 21.384375 329.64062 21.853125Q329.3125 22.65 329.3125 23.571875Q329.3125 24.728125 329.70312 25.509375Q330.10938 26.275 330.85938 26.65Q331.60938 27.025 332.46875 27.025Q333.20312 27.025 333.90625 26.74375Q334.60938 26.446875 334.96875 26.134375L334.96875 24.525L332.45312 24.525ZM341.54688 25.9L342.64062 26.025Q342.39062 26.978125 341.6875 27.509375Q340.98438 28.040625 339.90625 28.040625Q338.54688 28.040625 337.73438 27.196875Q336.9375 26.353125 336.9375 24.8375Q336.9375 23.275 337.75 22.415625Q338.5625 21.540625 339.84375 21.540625Q341.09375 21.540625 341.875 22.384375Q342.67188 23.228125 342.67188 24.775Q342.67188 24.86875 342.67188 25.05625L338.03125 25.05625Q338.09375 26.0875 338.60938 26.634375Q339.125 27.165625 339.90625 27.165625Q340.48438 27.165625 340.89062 26.86875Q341.3125 26.55625 341.54688 25.9ZM338.09375 24.196875L341.5625 24.196875Q341.5 23.4 341.17188 23.009375Q340.65625 22.4 339.85938 22.4Q339.125 22.4 338.625 22.884375Q338.14062 23.36875 338.09375 24.196875ZM346.59375 26.9625L346.75 27.884375Q346.29688 27.978125 345.95312 27.978125Q345.375 27.978125 345.0625 27.80625Q344.75 27.61875 344.60938 27.321875Q344.48438 27.025 344.48438 26.071875L344.48438 22.49375L343.71875 22.49375L343.71875 21.68125L344.48438 21.68125L344.48438 20.134375L345.53125 19.509375L345.53125 21.68125L346.59375 21.68125L346.59375 22.49375L345.53125 22.49375L345.53125 26.134375Q345.53125 26.5875 345.57812 26.7125Q345.64062 26.8375 345.76562 26.915625Q345.89062 26.99375 346.125 26.99375Q346.3125 26.99375 346.59375 26.9625ZM352.3125 30.43125Q351.4375 29.321875 350.82812 27.853125Q350.23438 26.36875 350.23438 24.790625Q350.23438 23.4 350.67188 22.11875Q351.20312 20.634375 352.3125 19.165625L353.0625 19.165625Q352.35938 20.384375 352.125 20.9Q351.76562 21.7125 351.5625 22.5875Q351.3125 23.68125 351.3125 24.790625Q351.3125 27.61875 353.0625 30.43125L352.3125 30.43125ZM354.39062 27.9L354.39062 19.30625L356.10938 19.30625L358.14062 25.384375Q358.42188 26.24375 358.54688 26.665625Q358.6875 26.196875 359.0 25.290625L361.0625 19.30625L362.59375 19.30625L362.59375 27.9L361.5 27.9L361.5 20.7125L359.0 27.9L357.96875 27.9L355.48438 20.5875L355.48438 27.9L354.39062 27.9ZM363.375 27.9L363.375 19.30625L366.60938 19.30625Q367.59375 19.30625 368.1875 19.571875Q368.78125 19.8375 369.10938 20.384375Q369.45312 20.915625 369.45312 21.509375Q369.45312 22.05625 369.15625 22.540625Q368.85938 23.025 368.25 23.321875Q369.03125 23.55625 369.4375 24.11875Q369.85938 24.665625 369.85938 25.415625Q369.85938 26.009375 369.60938 26.540625Q369.35938 27.05625 368.98438 27.3375Q368.60938 27.61875 368.03125 27.759375Q367.46875 27.9 366.65625 27.9L363.375 27.9ZM364.51562 22.915625L366.375 22.915625Q367.125 22.915625 367.45312 22.821875Q367.89062 22.696875 368.10938 22.4Q368.32812 22.0875 368.32812 21.634375Q368.32812 21.2125 368.125 20.884375Q367.92188 20.55625 367.53125 20.446875Q367.15625 20.321875 366.23438 20.321875L364.51562 20.321875L364.51562 22.915625ZM364.51562 26.884375L366.65625 26.884375Q367.20312 26.884375 367.42188 26.8375Q367.82812 26.775 368.07812 26.61875Q368.34375 26.446875 368.51562 26.134375Q368.6875 25.821875 368.6875 25.415625Q368.6875 24.93125 368.4375 24.571875Q368.20312 24.2125 367.76562 24.071875Q367.32812 23.93125 366.5 23.93125L364.51562 23.93125L364.51562 26.884375ZM371.42188 27.9L371.42188 19.30625L374.67188 19.30625Q375.51562 19.30625 375.96875 19.384375Q376.60938 19.49375 377.03125 19.790625Q377.46875 20.0875 377.71875 20.61875Q377.98438 21.15 377.98438 21.790625Q377.98438 22.884375 377.28125 23.65Q376.59375 24.4 374.76562 24.4L372.5625 24.4L372.5625 27.9L371.42188 27.9ZM372.5625 23.4L374.78125 23.4Q375.89062 23.4 376.34375 22.99375Q376.8125 22.571875 376.8125 21.821875Q376.8125 21.290625 376.53125 20.915625Q376.26562 20.525 375.82812 20.4Q375.53125 20.321875 374.76562 20.321875L372.5625 20.321875L372.5625 23.4ZM379.04688 25.134375L380.10938 25.040625Q380.1875 25.696875 380.46875 26.103125Q380.75 26.509375 381.32812 26.775Q381.92188 27.025 382.65625 27.025Q383.29688 27.025 383.79688 26.8375Q384.29688 26.634375 384.53125 26.30625Q384.78125 25.9625 384.78125 25.571875Q384.78125 25.165625 384.54688 24.86875Q384.3125 24.55625 383.78125 24.353125Q383.42188 24.2125 382.23438 23.93125Q381.0625 23.65 380.59375 23.4Q379.96875 23.071875 379.67188 22.603125Q379.375 22.11875 379.375 21.525Q379.375 20.884375 379.73438 20.321875Q380.10938 19.74375 380.8125 19.4625Q381.53125 19.165625 382.39062 19.165625Q383.34375 19.165625 384.07812 19.478125Q384.8125 19.775 385.20312 20.384375Q385.59375 20.978125 385.625 21.728125L384.53125 21.80625Q384.4375 20.99375 383.92188 20.5875Q383.42188 20.165625 382.4375 20.165625Q381.40625 20.165625 380.9375 20.540625Q380.46875 20.915625 380.46875 21.446875Q380.46875 21.915625 380.79688 22.2125Q381.125 22.509375 382.5 22.821875Q383.89062 23.134375 384.40625 23.36875Q385.15625 23.728125 385.51562 24.259375Q385.875 24.775 385.875 25.478125Q385.875 26.165625 385.48438 26.775Q385.09375 27.36875 384.35938 27.7125Q383.625 28.040625 382.70312 28.040625Q381.53125 28.040625 380.73438 27.7125Q379.95312 27.36875 379.5 26.68125Q379.0625 25.99375 379.04688 25.134375ZM387.98438 30.43125L387.23438 30.43125Q388.98438 27.61875 388.98438 24.790625Q388.98438 23.696875 388.73438 22.603125Q388.53125 21.728125 388.17188 20.915625Q387.9375 20.4 387.23438 19.165625L387.98438 19.165625Q389.07812 20.634375 389.60938 22.11875Q390.0625 23.4 390.0625 24.790625Q390.0625 26.36875 389.45312 27.853125Q388.84375 29.321875 387.98438 30.43125Z" fill-rule="nonzero"/></svg>