<svg version="1.1" viewBox="0.0 0.0 430.0 266.0" fill="none" stroke="none" stroke-linecap="square" stroke-miterlimit="10" width="430" height="266" xmlns:xlink="http://www.w3.org/1999/xlink" xmlns="http://www.w3.org/2000/svg"><path fill="#ffffff" d="M0 0L430.0 0L430.0 266.0L0 266.0L0 0Z" fill-rule="nonzero"/><path stroke="#333333" stroke-width="1.0" stroke-linecap="butt" d="M86.5 232.5L416.5 232.5" fill-rule="nonzero"/><path stroke="#cccccc" stroke-width="1.0" stroke-linecap="butt" d="M86.5 190.5L416.5 190.5" fill-rule="nonzero"/><path stroke="#cccccc" stroke-width="1.0" stroke-linecap="butt" d="M86.5 147.5L416.5 147.5" fill-rule="nonzero"/><path stroke="#cccccc" stroke-width="1.0" stroke-linecap="butt" d="M86.5 105.5L416.5 105.5" fill-rule="nonzero"/><path stroke="#cccccc" stroke-width="1.0" stroke-linecap="butt" d="M86.5 62.5L416.5 62.5" fill-rule="nonzero"/><path stroke="#cccccc" stroke-width="1.0" stroke-linecap="butt" d="M86.5 20.5L416.5 20.5" fill-rule="nonzero"/><clipPath id="id_0"><path d="M86.3 20.3L416.7 20.3L416.7 232.7L86.3 232.7L86.3 20.3Z" clip-rule="nonzero"/></clipPath><path stroke="#000000" stroke-width="2.0" stroke-linecap="butt" stroke-opacity="0.0" clip-path="url(#id_0)" d="M185.0 233.0L121.0 233.0L121.0 204.0C121.0 202.89543 121.89543 202.0 123.0 202.0L183.0 202.0C184.10457 202.0 185.0 202.89543 185.0 204.0Z" fill-rule="nonzero"/><path fill="#4285f4" clip-path="url(#id_0)" d="M185.0 233.0L121.0 233.0L121.0 204.0C121.0 202.89543 121.89543 202.0 123.0 202.0L183.0 202.0C184.10457 202.0 185.0 202.89543 185.0 204.0Z" fill-rule="nonzero"/><path stroke="#000000" stroke-width="2.0" stroke-linecap="butt" stroke-opacity="0.0" clip-path="url(#id_0)" d="M284.0 233.0L220.0 233.0L220.0 159.0C220.0 157.89543 220.89543 157.0 222.0 157.0L282.0 157.0C283.10458 157.0 284.0 157.89543 284.0 159.0Z" fill-rule="nonzero"/><path fill="#4285f4" clip-path="url(#id_0)" d="M284.0 233.0L220.0 233.0L220.0 159.0C220.0 157.89543 220.89543 157.0 222.0 157.0L282.0 157.0C283.10458 157.0 284.0 157.89543 284.0 159.0Z" fill-rule="nonzero"/><path stroke="#000000" stroke-width="2.0" stroke-linecap="butt" stroke-opacity="0.0" clip-path="url(#id_0)" d="M382.0 233.0L318.0 233.0L318.0 58.0C318.0 56.89543 318.89542 56.0 320.0 56.0L380.0 56.0C381.10458 56.0 382.0 56.89543 382.0 58.0Z" fill-rule="nonzero"/><path fill="#4285f4" clip-path="url(#id_0)" d="M382.0 233.0L318.0 233.0L318.0 58.0C318.0 56.89543 318.89542 56.0 320.0 56.0L380.0 56.0C381.10458 56.0 382.0 56.89543 382.0 58.0Z" fill-rule="nonzero"/><path fill="#000000" d="M24.300013 162.07812L15.706263 162.07812L15.706263 158.82812Q15.706263 157.98438 15.784388 157.53125Q15.893763 156.89062 16.190638 156.46875Q16.487513 156.03125 17.018763 155.78125Q17.550013 155.51562 18.190638 155.51562Q19.284388 155.51562 20.050013 156.21875Q20.800013 156.90625 20.800013 158.73438L20.800013 160.9375L24.300013 160.9375L24.300013 162.07812ZM19.800013 160.9375L19.800013 158.71875Q19.800013 157.60938 19.393763 157.15625Q18.971888 156.6875 18.221888 156.6875Q17.690638 156.6875 17.315638 156.96875Q16.925013 157.23438 16.800013 157.67188Q16.721888 157.96875 16.721888 158.73438L16.721888 160.9375L19.800013 160.9375ZM24.300013 150.125L23.378138 150.125Q24.440638 150.85938 24.440638 152.10938Q24.440638 152.65625 24.237513 153.14062Q24.018763 153.60938 23.706263 153.84375Q23.378138 154.07812 22.909388 154.17188Q22.612513 154.23438 21.925013 154.23438L18.081263 154.23438L18.081263 153.17188L21.534388 153.17188Q22.346888 153.17188 22.643763 153.10938Q23.050013 153.01562 23.300013 152.70312Q23.534388 152.375 23.534388 151.89062Q23.534388 151.42188 23.300013 151.01562Q23.050013 150.59375 22.628138 150.42188Q22.206263 150.23438 21.409388 150.23438L18.081263 150.23438L18.081263 149.1875L24.300013 149.1875L24.300013 150.125ZM23.362513 144.90625L24.284388 144.75Q24.378138 145.20312 24.378138 145.54688Q24.378138 146.125 24.206263 146.4375Q24.018763 146.75 23.721888 146.89062Q23.425013 147.01562 22.471888 147.01562L18.893763 147.01562L18.893763 147.78125L18.081263 147.78125L18.081263 147.01562L16.534388 147.01562L15.909388 145.96875L18.081263 145.96875L18.081263 144.90625L18.893763 144.90625L18.893763 145.96875L22.534388 145.96875Q22.987513 145.96875 23.112513 145.92188Q23.237513 145.85938 23.315638 145.73438Q23.393763 145.60938 23.393763 145.375Q23.393763 145.1875 23.362513 144.90625ZM26.831263 139.1875Q25.721888 140.0625 24.253138 140.67188Q22.768763 141.26562 21.190638 141.26562Q19.800013 141.26562 18.518763 140.82812Q17.034388 140.29688 15.565638 139.1875L15.565638 138.4375Q16.784388 139.14062 17.300013 139.375Q18.112513 139.73438 18.987513 139.9375Q20.081263 140.1875 21.190638 140.1875Q24.018763 140.1875 26.831263 138.4375L26.831263 139.1875ZM24.300013 137.10938L15.706263 137.10938L15.706263 135.39062L21.784388 133.35938Q22.643763 133.07812 23.065638 132.95312Q22.596888 132.8125 21.690638 132.5L15.706263 130.4375L15.706263 128.90625L24.300013 128.90625L24.300013 130.0L17.112513 130.0L24.300013 132.5L24.300013 133.53125L16.987513 136.01562L24.300013 136.01562L24.300013 137.10938ZM24.300013 128.125L15.706263 128.125L15.706263 124.890625Q15.706263 123.90625 15.971888 123.3125Q16.237513 122.71875 16.784388 122.390625Q17.315638 122.046875 17.909388 122.046875Q18.456263 122.046875 18.940638 122.34375Q19.425013 122.640625 19.721888 123.25Q19.956263 122.46875 20.518763 122.0625Q21.065638 121.640625 21.815638 121.640625Q22.409388 121.640625 22.940638 121.890625Q23.456263 122.140625 23.737513 122.515625Q24.018763 122.890625 24.159388 123.46875Q24.300013 124.03125 24.300013 124.84375L24.300013 128.125ZM19.315638 126.984375L19.315638 125.125Q19.315638 124.375 19.221888 124.046875Q19.096888 123.609375 18.800013 123.390625Q18.487513 123.171875 18.034388 123.171875Q17.612513 123.171875 17.284388 123.375Q16.956263 123.578125 16.846888 123.96875Q16.721888 124.34375 16.721888 125.265625L16.721888 126.984375L19.315638 126.984375ZM23.284388 126.984375L23.284388 124.84375Q23.284388 124.296875 23.237513 124.078125Q23.175013 123.671875 23.018763 123.421875Q22.846888 123.15625 22.534388 122.984375Q22.221888 122.8125 21.815638 122.8125Q21.331263 122.8125 20.971888 123.0625Q20.612513 123.296875 20.471888 123.734375Q20.331263 124.171875 20.331263 125.0L20.331263 126.984375L23.284388 126.984375ZM26.690638 120.203125L18.081263 120.203125L18.081263 119.25L18.878138 119.25Q18.409388 118.90625 18.175013 118.484375Q17.940638 118.046875 17.940638 117.4375Q17.940638 116.640625 18.346888 116.03125Q18.753138 115.421875 19.503138 115.125Q20.253138 114.8125 21.143763 114.8125Q22.096888 114.8125 22.862513 115.15625Q23.628138 115.484375 24.034388 116.140625Q24.440638 116.796875 24.440638 117.515625Q24.440638 118.046875 24.221888 118.46875Q23.987513 118.890625 23.659388 119.15625L26.690638 119.15625L26.690638 120.203125ZM21.221888 119.25Q22.425013 119.25 23.003138 118.765625Q23.565638 118.28125 23.565638 117.59375Q23.565638 116.890625 22.971888 116.390625Q22.378138 115.890625 21.128138 115.890625Q19.940638 115.890625 19.362513 116.375Q18.768763 116.859375 18.768763 117.546875Q18.768763 118.21875 19.393763 118.734375Q20.018763 119.25 21.221888 119.25ZM22.440638 113.625L22.284388 112.59375Q22.909388 112.5 23.237513 112.109375Q23.565638 111.703125 23.565638 110.96875Q23.565638 110.25 23.284388 109.90625Q22.987513 109.546875 22.581263 109.546875Q22.221888 109.546875 22.018763 109.859375Q21.878138 110.078125 21.659388 110.9375Q21.362513 112.09375 21.159388 112.546875Q20.940638 112.984375 20.565638 113.21875Q20.190638 113.453125 19.721888 113.453125Q19.315638 113.453125 18.956263 113.265625Q18.596888 113.078125 18.362513 112.75Q18.190638 112.5 18.065638 112.078125Q17.940638 111.65625 17.940638 111.15625Q17.940638 110.4375 18.159388 109.890625Q18.362513 109.328125 18.721888 109.0625Q19.081263 108.796875 19.675013 108.703125L19.815638 109.734375Q19.346888 109.796875 19.081263 110.140625Q18.800013 110.46875 18.800013 111.09375Q18.800013 111.8125 19.050013 112.125Q19.284388 112.4375 19.612513 112.4375Q19.815638 112.4375 19.971888 112.3125Q20.143763 112.171875 20.253138 111.90625Q20.315638 111.75 20.518763 110.96875Q20.831263 109.84375 21.018763 109.40625Q21.206263 108.96875 21.565638 108.71875Q21.925013 108.46875 22.471888 108.46875Q23.003138 108.46875 23.471888 108.78125Q23.925013 109.078125 24.190638 109.65625Q24.440638 110.234375 24.440638 110.96875Q24.440638 112.1875 23.940638 112.828125Q23.425013 113.453125 22.440638 113.625ZM26.831263 105.515625L26.831263 106.265625Q24.018763 104.515625 21.190638 104.515625Q20.096888 104.515625 19.003138 104.765625Q18.128138 104.96875 17.315638 105.328125Q16.800013 105.5625 15.565638 106.265625L15.565638 105.515625Q17.034388 104.421875 18.518763 103.890625Q19.800013 103.4375 21.190638 103.4375Q22.768763 103.4375 24.253138 104.046875Q25.721888 104.65625 26.831263 105.515625Z" fill-rule="nonzero"/><path fill="#000000" d="M73.8 232.46562Q73.8 230.93437 74.1125 230.0125Q74.425 229.075 75.03438 228.575Q75.65938 228.075 76.59688 228.075Q77.28438 228.075 77.8 228.35625Q78.33125 228.6375 78.675 229.16875Q79.01875 229.68437 79.20625 230.43437Q79.39375 231.18437 79.39375 232.46562Q79.39375 233.98125 79.08125 234.90312Q78.78438 235.825 78.15938 236.34062Q77.55 236.84062 76.59688 236.84062Q75.3625 236.84062 74.64375 235.95Q73.8 234.8875 73.8 232.46562ZM74.87813 232.46562Q74.87813 234.575 75.37813 235.27812Q75.87813 235.98125 76.59688 235.98125Q77.33125 235.98125 77.81563 235.27812Q78.31563 234.575 78.31563 232.46562Q78.31563 230.34062 77.81563 229.65312Q77.33125 228.95 76.58125 228.95Q75.8625 228.95 75.425 229.55937Q74.87813 230.34062 74.87813 232.46562Z" fill-rule="nonzero"/><path fill="#000000" d="M49.76875 194.22L48.721874 194.22L48.721874 187.50125Q48.33125 187.86063 47.70625 188.23563Q47.096874 188.595 46.6125 188.76688L46.6125 187.75125Q47.4875 187.32938 48.14375 186.75125Q48.815624 186.1575 49.096874 185.595L49.76875 185.595L49.76875 194.22ZM52.8 189.98563Q52.8 188.45438 53.1125 187.5325Q53.425 186.595 54.034374 186.095Q54.659374 185.595 55.596874 185.595Q56.284374 185.595 56.8 185.87625Q57.33125 186.1575 57.675 186.68875Q58.01875 187.20438 58.20625 187.95438Q58.39375 188.70438 58.39375 189.98563Q58.39375 191.50125 58.08125 192.42313Q57.784374 193.345 57.159374 193.86063Q56.55 194.36063 55.596874 194.36063Q54.3625 194.36063 53.64375 193.47Q52.8 192.4075 52.8 189.98563ZM53.878124 189.98563Q53.878124 192.095 54.378124 192.79813Q54.878124 193.50125 55.596874 193.50125Q56.33125 193.50125 56.815624 192.79813Q57.315624 192.095 57.315624 189.98563Q57.315624 187.86063 56.815624 187.17313Q56.33125 186.47 55.58125 186.47Q54.8625 186.47 54.425 187.07938Q53.878124 187.86063 53.878124 189.98563ZM59.8 189.98563Q59.8 188.45438 60.1125 187.5325Q60.425 186.595 61.034374 186.095Q61.659374 185.595 62.596874 185.595Q63.284374 185.595 63.8 185.87625Q64.33125 186.1575 64.675 186.68875Q65.01875 187.20438 65.20625 187.95438Q65.39375 188.70438 65.39375 189.98563Q65.39375 191.50125 65.08125 192.42313Q64.78438 193.345 64.15938 193.86063Q63.55 194.36063 62.596874 194.36063Q61.3625 194.36063 60.64375 193.47Q59.8 192.4075 59.8 189.98563ZM60.878124 189.98563Q60.878124 192.095 61.378124 192.79813Q61.878124 193.50125 62.596874 193.50125Q63.33125 193.50125 63.815624 192.79813Q64.31563 192.095 64.31563 189.98563Q64.31563 187.86063 63.815624 187.17313Q63.33125 186.47 62.58125 186.47Q61.8625 186.47 61.425 187.07938Q60.878124 187.86063 60.878124 189.98563ZM66.8 189.98563Q66.8 188.45438 67.1125 187.5325Q67.425 186.595 68.03438 186.095Q68.65938 185.595 69.59688 185.595Q70.28438 185.595 70.8 185.87625Q71.33125 186.1575 71.675 186.68875Q72.01875 187.20438 72.20625 187.95438Q72.39375 188.70438 72.39375 189.98563Q72.39375 191.50125 72.08125 192.42313Q71.78438 193.345 71.15938 193.86063Q70.55 194.36063 69.59688 194.36063Q68.3625 194.36063 67.64375 193.47Q66.8 192.4075 66.8 189.98563ZM67.87813 189.98563Q67.87813 192.095 68.37813 192.79813Q68.87813 193.50125 69.59688 193.50125Q70.33125 193.50125 70.81563 192.79813Q71.31563 192.095 71.31563 189.98563Q71.31563 187.86063 70.81563 187.17313Q70.33125 186.47 69.58125 186.47Q68.8625 186.47 68.425 187.07938Q67.87813 187.86063 67.87813 189.98563ZM73.8 189.98563Q73.8 188.45438 74.1125 187.5325Q74.425 186.595 75.03438 186.095Q75.65938 185.595 76.59688 185.595Q77.28438 185.595 77.8 185.87625Q78.33125 186.1575 78.675 186.68875Q79.01875 187.20438 79.20625 187.95438Q79.39375 188.70438 79.39375 189.98563Q79.39375 191.50125 79.08125 192.42313Q78.78438 193.345 78.15938 193.86063Q77.55 194.36063 76.59688 194.36063Q75.3625 194.36063 74.64375 193.47Q73.8 192.4075 73.8 189.98563ZM74.87813 189.98563Q74.87813 192.095 75.37813 192.79813Q75.87813 193.50125 76.59688 193.50125Q77.33125 193.50125 77.81563 192.79813Q78.31563 192.095 78.31563 189.98563Q78.31563 187.86063 77.81563 187.17313Q77.33125 186.47 76.58125 186.47Q75.8625 186.47 75.425 187.07938Q74.87813 187.86063 74.87813 189.98563Z" fill-rule="nonzero"/><path fill="#000000" d="M51.346874 150.72438L51.346874 151.74L45.659374 151.74Q45.659374 151.365 45.784374 151.00563Q46.003124 150.4275 46.471874 149.865Q46.95625 149.3025 47.8625 148.56813Q49.26875 147.41188 49.753124 146.74Q50.253124 146.06813 50.253124 145.47438Q50.253124 144.84938 49.8 144.4275Q49.346874 143.99 48.628124 143.99Q47.8625 143.99 47.409374 144.44313Q46.95625 144.89626 46.940624 145.70876L45.8625 145.59938Q45.971874 144.38063 46.690624 143.75563Q47.425 143.115 48.659374 143.115Q49.89375 143.115 50.6125 143.8025Q51.33125 144.49 51.33125 145.50563Q51.33125 146.02126 51.1125 146.52126Q50.909374 147.00563 50.409374 147.56813Q49.925 148.115 48.8 149.06813Q47.846874 149.865 47.565624 150.16188Q47.3 150.44313 47.128124 150.72438L51.346874 150.72438ZM52.8 147.50563Q52.8 145.97438 53.1125 145.0525Q53.425 144.115 54.034374 143.615Q54.659374 143.115 55.596874 143.115Q56.284374 143.115 56.8 143.39626Q57.33125 143.6775 57.675 144.20876Q58.01875 144.72438 58.20625 145.47438Q58.39375 146.22438 58.39375 147.50563Q58.39375 149.02126 58.08125 149.94313Q57.784374 150.865 57.159374 151.38063Q56.55 151.88063 55.596874 151.88063Q54.3625 151.88063 53.64375 150.99Q52.8 149.9275 52.8 147.50563ZM53.878124 147.50563Q53.878124 149.615 54.378124 150.31813Q54.878124 151.02126 55.596874 151.02126Q56.33125 151.02126 56.815624 150.31813Q57.315624 149.615 57.315624 147.50563Q57.315624 145.38063 56.815624 144.69313Q56.33125 143.99 55.58125 143.99Q54.8625 143.99 54.425 144.59938Q53.878124 145.38063 53.878124 147.50563ZM59.8 147.50563Q59.8 145.97438 60.1125 145.0525Q60.425 144.115 61.034374 143.615Q61.659374 143.115 62.596874 143.115Q63.284374 143.115 63.8 143.39626Q64.33125 143.6775 64.675 144.20876Q65.01875 144.72438 65.20625 145.47438Q65.39375 146.22438 65.39375 147.50563Q65.39375 149.02126 65.08125 149.94313Q64.78438 150.865 64.15938 151.38063Q63.55 151.88063 62.596874 151.88063Q61.3625 151.88063 60.64375 150.99Q59.8 149.9275 59.8 147.50563ZM60.878124 147.50563Q60.878124 149.615 61.378124 150.31813Q61.878124 151.02126 62.596874 151.02126Q63.33125 151.02126 63.815624 150.31813Q64.31563 149.615 64.31563 147.50563Q64.31563 145.38063 63.815624 144.69313Q63.33125 143.99 62.58125 143.99Q61.8625 143.99 61.425 144.59938Q60.878124 145.38063 60.878124 147.50563ZM66.8 147.50563Q66.8 145.97438 67.1125 145.0525Q67.425 144.115 68.03438 143.615Q68.65938 143.115 69.59688 143.115Q70.28438 143.115 70.8 143.39626Q71.33125 143.6775 71.675 144.20876Q72.01875 144.72438 72.20625 145.47438Q72.39375 146.22438 72.39375 147.50563Q72.39375 149.02126 72.08125 149.94313Q71.78438 150.865 71.15938 151.38063Q70.55 151.88063 69.59688 151.88063Q68.3625 151.88063 67.64375 150.99Q66.8 149.9275 66.8 147.50563ZM67.87813 147.50563Q67.87813 149.615 68.37813 150.31813Q68.87813 151.02126 69.59688 151.02126Q70.33125 151.02126 70.81563 150.31813Q71.31563 149.615 71.31563 147.50563Q71.31563 145.38063 70.81563 144.69313Q70.33125 143.99 69.58125 143.99Q68.8625 143.99 68.425 144.59938Q67.87813 145.38063 67.87813 147.50563ZM73.8 147.50563Q73.8 145.97438 74.1125 145.0525Q74.425 144.115 75.03438 143.615Q75.65938 143.115 76.59688 143.115Q77.28438 143.115 77.8 143.39626Q78.33125 143.6775 78.675 144.20876Q79.01875 144.72438 79.20625 145.47438Q79.39375 146.22438 79.39375 147.50563Q79.39375 149.02126 79.08125 149.94313Q78.78438 150.865 78.15938 151.38063Q77.55 151.88063 76.59688 151.88063Q75.3625 151.88063 74.64375 150.99Q73.8 149.9275 73.8 147.50563ZM74.87813 147.50563Q74.87813 149.615 75.37813 150.31813Q75.87813 151.02126 76.59688 151.02126Q77.33125 151.02126 77.81563 150.31813Q78.31563 149.615 78.31563 147.50563Q78.31563 145.38063 77.81563 144.69313Q77.33125 143.99 76.58125 143.99Q75.8625 143.99 75.425 144.59938Q74.87813 145.38063 74.87813 147.50563Z" fill-rule="nonzero"/><path fill="#000000" d="M45.8 106.99438L46.8625 106.85375Q47.034374 107.74438 47.471874 108.15063Q47.909374 108.54125 48.534374 108.54125Q49.284374 108.54125 49.8 108.02563Q50.315624 107.51 50.315624 106.74438Q50.315624 106.02563 49.83125 105.55688Q49.3625 105.0725 48.628124 105.0725Q48.33125 105.0725 47.878124 105.1975L48.003124 104.26Q48.1125 104.27563 48.175 104.27563Q48.846874 104.27563 49.378124 103.93188Q49.925 103.5725 49.925 102.83813Q49.925 102.26 49.534374 101.885Q49.14375 101.49438 48.51875 101.49438Q47.909374 101.49438 47.4875 101.885Q47.08125 102.27563 46.971874 103.04125L45.909374 102.85375Q46.096874 101.80688 46.784374 101.22875Q47.471874 100.635 48.4875 100.635Q49.190624 100.635 49.784374 100.9475Q50.378124 101.24438 50.690624 101.76Q51.003124 102.27563 51.003124 102.86938Q51.003124 103.41625 50.70625 103.885Q50.409374 104.33813 49.83125 104.60375Q50.58125 104.77563 51.003124 105.33813Q51.425 105.885 51.425 106.72875Q51.425 107.85375 50.596874 108.635Q49.784374 109.41625 48.534374 109.41625Q47.409374 109.41625 46.659374 108.74438Q45.909374 108.05688 45.8 106.99438ZM52.8 105.02563Q52.8 103.49438 53.1125 102.5725Q53.425 101.635 54.034374 101.135Q54.659374 100.635 55.596874 100.635Q56.284374 100.635 56.8 100.91625Q57.33125 101.1975 57.675 101.72875Q58.01875 102.24438 58.20625 102.99438Q58.39375 103.74438 58.39375 105.02563Q58.39375 106.54125 58.08125 107.46313Q57.784374 108.385 57.159374 108.90063Q56.55 109.40063 55.596874 109.40063Q54.3625 109.40063 53.64375 108.51Q52.8 107.4475 52.8 105.02563ZM53.878124 105.02563Q53.878124 107.135 54.378124 107.83813Q54.878124 108.54125 55.596874 108.54125Q56.33125 108.54125 56.815624 107.83813Q57.315624 107.135 57.315624 105.02563Q57.315624 102.90063 56.815624 102.21313Q56.33125 101.51 55.58125 101.51Q54.8625 101.51 54.425 102.11938Q53.878124 102.90063 53.878124 105.02563ZM59.8 105.02563Q59.8 103.49438 60.1125 102.5725Q60.425 101.635 61.034374 101.135Q61.659374 100.635 62.596874 100.635Q63.284374 100.635 63.8 100.91625Q64.33125 101.1975 64.675 101.72875Q65.01875 102.24438 65.20625 102.99438Q65.39375 103.74438 65.39375 105.02563Q65.39375 106.54125 65.08125 107.46313Q64.78438 108.385 64.15938 108.90063Q63.55 109.40063 62.596874 109.40063Q61.3625 109.40063 60.64375 108.51Q59.8 107.4475 59.8 105.02563ZM60.878124 105.02563Q60.878124 107.135 61.378124 107.83813Q61.878124 108.54125 62.596874 108.54125Q63.33125 108.54125 63.815624 107.83813Q64.31563 107.135 64.31563 105.02563Q64.31563 102.90063 63.815624 102.21313Q63.33125 101.51 62.58125 101.51Q61.8625 101.51 61.425 102.11938Q60.878124 102.90063 60.878124 105.02563ZM66.8 105.02563Q66.8 103.49438 67.1125 102.5725Q67.425 101.635 68.03438 101.135Q68.65938 100.635 69.59688 100.635Q70.28438 100.635 70.8 100.91625Q71.33125 101.1975 71.675 101.72875Q72.01875 102.24438 72.20625 102.99438Q72.39375 103.74438 72.39375 105.02563Q72.39375 106.54125 72.08125 107.46313Q71.78438 108.385 71.15938 108.90063Q70.55 109.40063 69.59688 109.40063Q68.3625 109.40063 67.64375 108.51Q66.8 107.4475 66.8 105.02563ZM67.87813 105.02563Q67.87813 107.135 68.37813 107.83813Q68.87813 108.54125 69.59688 108.54125Q70.33125 108.54125 70.81563 107.83813Q71.31563 107.135 71.31563 105.02563Q71.31563 102.90063 70.81563 102.21313Q70.33125 101.51 69.58125 101.51Q68.8625 101.51 68.425 102.11938Q67.87813 102.90063 67.87813 105.02563ZM73.8 105.02563Q73.8 103.49438 74.1125 102.5725Q74.425 101.635 75.03438 101.135Q75.65938 100.635 76.59688 100.635Q77.28438 100.635 77.8 100.91625Q78.33125 101.1975 78.675 101.72875Q79.01875 102.24438 79.20625 102.99438Q79.39375 103.74438 79.39375 105.02563Q79.39375 106.54125 79.08125 107.46313Q78.78438 108.385 78.15938 108.90063Q77.55 109.40063 76.59688 109.40063Q75.3625 109.40063 74.64375 108.51Q73.8 107.4475 73.8 105.02563ZM74.87813 105.02563Q74.87813 107.135 75.37813 107.83813Q75.87813 108.54125 76.59688 108.54125Q77.33125 108.54125 77.81563 107.83813Q78.31563 107.135 78.31563 105.02563Q78.31563 102.90063 77.81563 102.21313Q77.33125 101.51 76.58125 101.51Q75.8625 101.51 75.425 102.11938Q74.87813 102.90063 74.87813 105.02563Z" fill-rule="nonzero"/><path fill="#000000" d="M49.175 66.78L49.175 64.7175L45.45625 64.7175L45.45625 63.74875L49.378124 58.18625L50.2375 58.18625L50.2375 63.74875L51.39375 63.74875L51.39375 64.7175L50.2375 64.7175L50.2375 66.78L49.175 66.78ZM49.175 63.74875L49.175 59.889374L46.4875 63.74875L49.175 63.74875ZM52.8 62.545624Q52.8 61.014374 53.1125 60.0925Q53.425 59.155 54.034374 58.655Q54.659374 58.155 55.596874 58.155Q56.284374 58.155 56.8 58.43625Q57.33125 58.7175 57.675 59.24875Q58.01875 59.764374 58.20625 60.514374Q58.39375 61.264374 58.39375 62.545624Q58.39375 64.06125 58.08125 64.98312Q57.784374 65.905 57.159374 66.42062Q56.55 66.92062 55.596874 66.92062Q54.3625 66.92062 53.64375 66.03Q52.8 64.9675 52.8 62.545624ZM53.878124 62.545624Q53.878124 64.655 54.378124 65.35812Q54.878124 66.06125 55.596874 66.06125Q56.33125 66.06125 56.815624 65.35812Q57.315624 64.655 57.315624 62.545624Q57.315624 60.420624 56.815624 59.733124Q56.33125 59.03 55.58125 59.03Q54.8625 59.03 54.425 59.639374Q53.878124 60.420624 53.878124 62.545624ZM59.8 62.545624Q59.8 61.014374 60.1125 60.0925Q60.425 59.155 61.034374 58.655Q61.659374 58.155 62.596874 58.155Q63.284374 58.155 63.8 58.43625Q64.33125 58.7175 64.675 59.24875Q65.01875 59.764374 65.20625 60.514374Q65.39375 61.264374 65.39375 62.545624Q65.39375 64.06125 65.08125 64.98312Q64.78438 65.905 64.15938 66.42062Q63.55 66.92062 62.596874 66.92062Q61.3625 66.92062 60.64375 66.03Q59.8 64.9675 59.8 62.545624ZM60.878124 62.545624Q60.878124 64.655 61.378124 65.35812Q61.878124 66.06125 62.596874 66.06125Q63.33125 66.06125 63.815624 65.35812Q64.31563 64.655 64.31563 62.545624Q64.31563 60.420624 63.815624 59.733124Q63.33125 59.03 62.58125 59.03Q61.8625 59.03 61.425 59.639374Q60.878124 60.420624 60.878124 62.545624ZM66.8 62.545624Q66.8 61.014374 67.1125 60.0925Q67.425 59.155 68.03438 58.655Q68.65938 58.155 69.59688 58.155Q70.28438 58.155 70.8 58.43625Q71.33125 58.7175 71.675 59.24875Q72.01875 59.764374 72.20625 60.514374Q72.39375 61.264374 72.39375 62.545624Q72.39375 64.06125 72.08125 64.98312Q71.78438 65.905 71.15938 66.42062Q70.55 66.92062 69.59688 66.92062Q68.3625 66.92062 67.64375 66.03Q66.8 64.9675 66.8 62.545624ZM67.87813 62.545624Q67.87813 64.655 68.37813 65.35812Q68.87813 66.06125 69.59688 66.06125Q70.33125 66.06125 70.81563 65.35812Q71.31563 64.655 71.31563 62.545624Q71.31563 60.420624 70.81563 59.733124Q70.33125 59.03 69.58125 59.03Q68.8625 59.03 68.425 59.639374Q67.87813 60.420624 67.87813 62.545624ZM73.8 62.545624Q73.8 61.014374 74.1125 60.0925Q74.425 59.155 75.03438 58.655Q75.65938 58.155 76.59688 58.155Q77.28438 58.155 77.8 58.43625Q78.33125 58.7175 78.675 59.24875Q79.01875 59.764374 79.20625 60.514374Q79.39375 61.264374 79.39375 62.545624Q79.39375 64.06125 79.08125 64.98312Q78.78438 65.905 78.15938 66.42062Q77.55 66.92062 76.59688 66.92062Q75.3625 66.92062 74.64375 66.03Q73.8 64.9675 73.8 62.545624ZM74.87813 62.545624Q74.87813 64.655 75.37813 65.35812Q75.87813 66.06125 76.59688 66.06125Q77.33125 66.06125 77.81563 65.35812Q78.31563 64.655 78.31563 62.545624Q78.31563 60.420624 77.81563 59.733124Q77.33125 59.03 76.58125 59.03Q75.8625 59.03 75.425 59.639374Q74.87813 60.420624 74.87813 62.545624Z" fill-rule="nonzero"/><path fill="#000000" d="M45.8 22.05L46.909374 21.95625Q47.034374 22.76875 47.471874 23.175Q47.925 23.58125 48.565624 23.58125Q49.315624 23.58125 49.846874 23.003124Q50.378124 22.425 50.378124 21.4875Q50.378124 20.58125 49.8625 20.065624Q49.3625 19.534374 48.534374 19.534374Q48.034374 19.534374 47.6125 19.76875Q47.20625 20.003124 46.971874 20.3625L45.9875 20.2375L46.815624 15.831249L51.096874 15.831249L51.096874 16.83125L47.659374 16.83125L47.20625 19.14375Q47.971874 18.596874 48.815624 18.596874Q49.940624 18.596874 50.70625 19.378124Q51.4875 20.159374 51.4875 21.39375Q51.4875 22.55 50.815624 23.409374Q49.9875 24.440624 48.565624 24.440624Q47.39375 24.440624 46.64375 23.784374Q45.909374 23.128124 45.8 22.05ZM52.8 20.065624Q52.8 18.534374 53.1125 17.6125Q53.425 16.675 54.034374 16.175Q54.659374 15.674999 55.596874 15.674999Q56.284374 15.674999 56.8 15.956249Q57.33125 16.2375 57.675 16.76875Q58.01875 17.284374 58.20625 18.034374Q58.39375 18.784374 58.39375 20.065624Q58.39375 21.58125 58.08125 22.503124Q57.784374 23.425 57.159374 23.940624Q56.55 24.440624 55.596874 24.440624Q54.3625 24.440624 53.64375 23.55Q52.8 22.4875 52.8 20.065624ZM53.878124 20.065624Q53.878124 22.175 54.378124 22.878124Q54.878124 23.58125 55.596874 23.58125Q56.33125 23.58125 56.815624 22.878124Q57.315624 22.175 57.315624 20.065624Q57.315624 17.940624 56.815624 17.253124Q56.33125 16.55 55.58125 16.55Q54.8625 16.55 54.425 17.159374Q53.878124 17.940624 53.878124 20.065624ZM59.8 20.065624Q59.8 18.534374 60.1125 17.6125Q60.425 16.675 61.034374 16.175Q61.659374 15.674999 62.596874 15.674999Q63.284374 15.674999 63.8 15.956249Q64.33125 16.2375 64.675 16.76875Q65.01875 17.284374 65.20625 18.034374Q65.39375 18.784374 65.39375 20.065624Q65.39375 21.58125 65.08125 22.503124Q64.78438 23.425 64.15938 23.940624Q63.55 24.440624 62.596874 24.440624Q61.3625 24.440624 60.64375 23.55Q59.8 22.4875 59.8 20.065624ZM60.878124 20.065624Q60.878124 22.175 61.378124 22.878124Q61.878124 23.58125 62.596874 23.58125Q63.33125 23.58125 63.815624 22.878124Q64.31563 22.175 64.31563 20.065624Q64.31563 17.940624 63.815624 17.253124Q63.33125 16.55 62.58125 16.55Q61.8625 16.55 61.425 17.159374Q60.878124 17.940624 60.878124 20.065624ZM66.8 20.065624Q66.8 18.534374 67.1125 17.6125Q67.425 16.675 68.03438 16.175Q68.65938 15.674999 69.59688 15.674999Q70.28438 15.674999 70.8 15.956249Q71.33125 16.2375 71.675 16.76875Q72.01875 17.284374 72.20625 18.034374Q72.39375 18.784374 72.39375 20.065624Q72.39375 21.58125 72.08125 22.503124Q71.78438 23.425 71.15938 23.940624Q70.55 24.440624 69.59688 24.440624Q68.3625 24.440624 67.64375 23.55Q66.8 22.4875 66.8 20.065624ZM67.87813 20.065624Q67.87813 22.175 68.37813 22.878124Q68.87813 23.58125 69.59688 23.58125Q70.33125 23.58125 70.81563 22.878124Q71.31563 22.175 71.31563 20.065624Q71.31563 17.940624 70.81563 17.253124Q70.33125 16.55 69.58125 16.55Q68.8625 16.55 68.425 17.159374Q67.87813 17.940624 67.87813 20.065624ZM73.8 20.065624Q73.8 18.534374 74.1125 17.6125Q74.425 16.675 75.03438 16.175Q75.65938 15.674999 76.59688 15.674999Q77.28438 15.674999 77.8 15.956249Q78.33125 16.2375 78.675 16.76875Q79.01875 17.284374 79.20625 18.034374Q79.39375 18.784374 79.39375 20.065624Q79.39375 21.58125 79.08125 22.503124Q78.78438 23.425 78.15938 23.940624Q77.55 24.440624 76.59688 24.440624Q75.3625 24.440624 74.64375 23.55Q73.8 22.4875 73.8 20.065624ZM74.87813 20.065624Q74.87813 22.175 75.37813 22.878124Q75.87813 23.58125 76.59688 23.58125Q77.33125 23.58125 77.81563 22.878124Q78.31563 22.175 78.31563 20.065624Q78.31563 17.940624 77.81563 17.253124Q77.33125 16.55 76.58125 16.55Q75.8625 16.55 75.425 17.159374Q74.87813 17.940624 74.87813 20.065624Z" fill-rule="nonzero"/><path fill="#000000" d="M140.92001 246.93437L141.98251 246.84062Q142.06064 247.49687 142.34189 247.90312Q142.62314 248.30937 143.20126 248.575Q143.79501 248.825 144.52939 248.825Q145.17001 248.825 145.67001 248.6375Q146.17001 248.43437 146.40439 248.10625Q146.65439 247.7625 146.65439 247.37187Q146.65439 246.96562 146.42001 246.66875Q146.18564 246.35625 145.65439 246.15312Q145.29501 246.0125 144.10751 245.73125Q142.93564 245.45 142.46689 245.2Q141.84189 244.87187 141.54501 244.40312Q141.24814 243.91875 141.24814 243.325Q141.24814 242.68437 141.60751 242.12187Q141.98251 241.54375 142.68564 241.2625Q143.40439 240.96562 144.26376 240.96562Q145.21689 240.96562 145.95126 241.27812Q146.68564 241.575 147.07626 242.18437Q147.46689 242.77812 147.49814 243.52812L146.40439 243.60625Q146.31064 242.79375 145.79501 242.3875Q145.29501 241.96562 144.31064 241.96562Q143.27939 241.96562 142.81064 242.34062Q142.34189 242.71562 142.34189 243.24687Q142.34189 243.71562 142.67001 244.0125Q142.99814 244.30937 144.37314 244.62187Q145.76376 244.93437 146.27939 245.16875Q147.02939 245.52812 147.38876 246.05937Q147.74814 246.575 147.74814 247.27812Q147.74814 247.96562 147.35751 248.575Q146.96689 249.16875 146.23251 249.5125Q145.49814 249.84062 144.57626 249.84062Q143.40439 249.84062 142.60751 249.5125Q141.82626 249.16875 141.37314 248.48125Q140.93564 247.79375 140.92001 246.93437ZM148.92001 246.93437L149.98251 246.84062Q150.06064 247.49687 150.34189 247.90312Q150.62314 248.30937 151.20126 248.575Q151.79501 248.825 152.52939 248.825Q153.17001 248.825 153.67001 248.6375Q154.17001 248.43437 154.40439 248.10625Q154.65439 247.7625 154.65439 247.37187Q154.65439 246.96562 154.42001 246.66875Q154.18564 246.35625 153.65439 246.15312Q153.29501 246.0125 152.10751 245.73125Q150.93564 245.45 150.46689 245.2Q149.84189 244.87187 149.54501 244.40312Q149.24814 243.91875 149.24814 243.325Q149.24814 242.68437 149.60751 242.12187Q149.98251 241.54375 150.68564 241.2625Q151.40439 240.96562 152.26376 240.96562Q153.21689 240.96562 153.95126 241.27812Q154.68564 241.575 155.07626 242.18437Q155.46689 242.77812 155.49814 243.52812L154.40439 243.60625Q154.31064 242.79375 153.79501 242.3875Q153.29501 241.96562 152.31064 241.96562Q151.27939 241.96562 150.81064 242.34062Q150.34189 242.71562 150.34189 243.24687Q150.34189 243.71562 150.67001 244.0125Q150.99814 244.30937 152.37314 244.62187Q153.76376 244.93437 154.27939 245.16875Q155.02939 245.52812 155.38876 246.05937Q155.74814 246.575 155.74814 247.27812Q155.74814 247.96562 155.35751 248.575Q154.96689 249.16875 154.23251 249.5125Q153.49814 249.84062 152.57626 249.84062Q151.40439 249.84062 150.60751 249.5125Q149.82626 249.16875 149.37314 248.48125Q148.93564 247.79375 148.92001 246.93437ZM157.29501 249.7L157.29501 241.10625L160.26376 241.10625Q161.26376 241.10625 161.79501 241.23125Q162.52939 241.40312 163.04501 241.84062Q163.73251 242.41875 164.06064 243.325Q164.40439 244.21562 164.40439 245.35625Q164.40439 246.34062 164.17001 247.09062Q163.95126 247.84062 163.59189 248.34062Q163.23251 248.84062 162.79501 249.12187Q162.37314 249.40312 161.77939 249.55937Q161.18564 249.7 160.40439 249.7L157.29501 249.7ZM158.43564 248.68437L160.26376 248.68437Q161.12314 248.68437 161.60751 248.52812Q162.09189 248.37187 162.37314 248.075Q162.77939 247.68437 162.99814 246.99687Q163.23251 246.30937 163.23251 245.34062Q163.23251 243.99687 162.77939 243.27812Q162.34189 242.54375 161.71689 242.29375Q161.24814 242.12187 160.24814 242.12187L158.43564 242.12187L158.43564 248.68437Z" fill-rule="nonzero"/><path fill="#000000" d="M235.0 248.30937L235.0 245.95L232.67188 245.95L232.67188 244.96562L235.0 244.96562L235.0 242.6375L236.0 242.6375L236.0 244.96562L238.34375 244.96562L238.34375 245.95L236.0 245.95L236.0 248.30937L235.0 248.30937ZM239.92188 249.7L239.92188 241.10625L241.07812 241.10625L245.59375 247.85625L245.59375 241.10625L246.6875 241.10625L246.6875 249.7L245.51562 249.7L241.0 242.95L241.0 249.7L239.92188 249.7ZM251.375 249.7L248.04688 241.10625L249.28125 241.10625L251.51562 247.35625Q251.78125 248.10625 251.96875 248.7625Q252.17188 248.05937 252.4375 247.35625L254.75 241.10625L255.90625 241.10625L252.54688 249.7L251.375 249.7ZM255.89062 249.7L255.89062 241.10625L257.60938 241.10625L259.64062 247.18437Q259.92188 248.04375 260.04688 248.46562Q260.1875 247.99687 260.5 247.09062L262.5625 241.10625L264.09375 241.10625L264.09375 249.7L263.0 249.7L263.0 242.5125L260.5 249.7L259.46875 249.7L256.98438 242.3875L256.98438 249.7L255.89062 249.7ZM269.04688 247.7L270.14062 247.825Q269.89062 248.77812 269.1875 249.30937Q268.48438 249.84062 267.40625 249.84062Q266.04688 249.84062 265.23438 248.99687Q264.4375 248.15312 264.4375 246.6375Q264.4375 245.075 265.25 244.21562Q266.0625 243.34062 267.34375 243.34062Q268.59375 243.34062 269.375 244.18437Q270.17188 245.02812 270.17188 246.575Q270.17188 246.66875 270.17188 246.85625L265.53125 246.85625Q265.59375 247.8875 266.10938 248.43437Q266.625 248.96562 267.40625 248.96562Q267.98438 248.96562 268.39062 248.66875Q268.8125 248.35625 269.04688 247.7ZM265.59375 245.99687L269.0625 245.99687Q269.0 245.2 268.67188 244.80937Q268.15625 244.2 267.35938 244.2Q266.625 244.2 266.125 244.68437Q265.64062 245.16875 265.59375 245.99687Z" fill-rule="nonzero"/><path fill="#000000" d="M337.12686 248.30937L337.12686 245.95L334.79874 245.95L334.79874 244.96562L337.12686 244.96562L337.12686 242.6375L338.12686 242.6375L338.12686 244.96562L340.4706 244.96562L340.4706 245.95L338.12686 245.95L338.12686 248.30937L337.12686 248.30937ZM342.06436 249.7L342.06436 241.10625L345.87686 241.10625Q347.0331 241.10625 347.62686 241.34062Q348.2206 241.575 348.58 242.16875Q348.93936 242.74687 348.93936 243.45Q348.93936 244.37187 348.3456 244.99687Q347.75186 245.62187 346.5175 245.79375Q346.9706 246.0125 347.205 246.21562Q347.705 246.66875 348.1425 247.35625L349.6425 249.7L348.205 249.7L347.08 247.91875Q346.58 247.1375 346.25186 246.73125Q345.93936 246.325 345.67374 246.16875Q345.42374 245.99687 345.1581 245.91875Q344.9706 245.8875 344.5331 245.8875L343.205 245.8875L343.205 249.7L342.06436 249.7ZM343.205 244.90312L345.6581 244.90312Q346.42374 244.90312 346.86124 244.74687Q347.31436 244.575 347.5331 244.23125Q347.7675 243.87187 347.7675 243.45Q347.7675 242.84062 347.31436 242.45Q346.87686 242.05937 345.92374 242.05937L343.205 242.05937L343.205 244.90312ZM350.11124 249.7L353.4081 241.10625L354.62686 241.10625L358.1425 249.7L356.86124 249.7L355.8456 247.09062L352.2675 247.09062L351.31436 249.7L350.11124 249.7ZM352.5956 246.16875L355.50186 246.16875L354.61124 243.79375Q354.18936 242.71562 354.00186 242.0125Q353.83 242.84062 353.5331 243.65312L352.5956 246.16875ZM358.0175 249.7L358.0175 241.10625L359.73624 241.10625L361.7675 247.18437Q362.04874 248.04375 362.17374 248.46562Q362.31436 247.99687 362.62686 247.09062L364.68936 241.10625L366.2206 241.10625L366.2206 249.7L365.12686 249.7L365.12686 242.5125L362.62686 249.7L361.5956 249.7L359.11124 242.3875L359.11124 249.7L358.0175 249.7Z" fill-rule="nonzero"/></svg>