<svg version="1.1" viewBox="0.0 0.0 600.0 371.0" fill="none" stroke="none" stroke-linecap="square" stroke-miterlimit="10" width="600" height="371" xmlns:xlink="http://www.w3.org/1999/xlink" xmlns="http://www.w3.org/2000/svg"><path fill="#ffffff" d="M0 0L600.0 0L600.0 371.0L0 371.0L0 0Z" fill-rule="nonzero"/><path stroke="#333333" stroke-width="1.0" stroke-linecap="butt" d="M80.5 300.5L581.5 300.5" fill-rule="nonzero"/><path stroke="#cccccc" stroke-width="1.0" stroke-linecap="butt" d="M80.5 250.5L581.5 250.5" fill-rule="nonzero"/><path stroke="#cccccc" stroke-width="1.0" stroke-linecap="butt" d="M80.5 201.5L581.5 201.5" fill-rule="nonzero"/><path stroke="#cccccc" stroke-width="1.0" stroke-linecap="butt" d="M80.5 151.5L581.5 151.5" fill-rule="nonzero"/><path stroke="#cccccc" stroke-width="1.0" stroke-linecap="butt" d="M80.5 101.5L581.5 101.5" fill-rule="nonzero"/><path stroke="#cccccc" stroke-width="1.0" stroke-linecap="butt" d="M80.5 51.5L581.5 51.5" fill-rule="nonzero"/><clipPath id="id_0"><path d="M80.55 51.916668L581.45 51.916668L581.45 300.45L80.55 300.45L80.55 51.916668Z" clip-rule="nonzero"/></clipPath><path stroke="#000000" stroke-width="2.0" stroke-linecap="butt" stroke-opacity="0.0" clip-path="url(#id_0)" d="M145.0 300.0L122.0 300.0L122.0 227.0C122.0 225.89543 122.89543 225.0 124.0 225.0L143.0 225.0C144.10457 225.0 145.0 225.89543 145.0 227.0Z" fill-rule="nonzero"/><path fill="#4285f4" clip-path="url(#id_0)" d="M145.0 300.0L122.0 300.0L122.0 227.0C122.0 225.89543 122.89543 225.0 124.0 225.0L143.0 225.0C144.10457 225.0 145.0 225.89543 145.0 227.0Z" fill-rule="nonzero"/><path stroke="#000000" stroke-width="2.0" stroke-linecap="butt" stroke-opacity="0.0" clip-path="url(#id_0)" d="M260.0 300.0L237.0 300.0L237.0 226.0C237.0 224.89543 237.89543 224.0 239.0 224.0L258.0 224.0C259.10458 224.0 260.0 224.89543 260.0 226.0Z" fill-rule="nonzero"/><path fill="#4285f4" clip-path="url(#id_0)" d="M260.0 300.0L237.0 300.0L237.0 226.0C237.0 224.89543 237.89543 224.0 239.0 224.0L258.0 224.0C259.10458 224.0 260.0 224.89543 260.0 226.0Z" fill-rule="nonzero"/><path stroke="#000000" stroke-width="2.0" stroke-linecap="butt" stroke-opacity="0.0" clip-path="url(#id_0)" d="M376.0 300.0L353.0 300.0L353.0 228.0C353.0 226.89543 353.89542 226.0 355.0 226.0L374.0 226.0C375.10458 226.0 376.0 226.89543 376.0 228.0Z" fill-rule="nonzero"/><path fill="#4285f4" clip-path="url(#id_0)" d="M376.0 300.0L353.0 300.0L353.0 228.0C353.0 226.89543 353.89542 226.0 355.0 226.0L374.0 226.0C375.10458 226.0 376.0 226.89543 376.0 228.0Z" fill-rule="nonzero"/><path stroke="#000000" stroke-width="2.0" stroke-linecap="butt" stroke-opacity="0.0" clip-path="url(#id_0)" d="M491.0 300.0L468.0 300.0L468.0 225.0C468.0 223.89543 468.89542 223.0 470.0 223.0L489.0 223.0C490.10458 223.0 491.0 223.89543 491.0 225.0Z" fill-rule="nonzero"/><path fill="#4285f4" clip-path="url(#id_0)" d="M491.0 300.0L468.0 300.0L468.0 225.0C468.0 223.89543 468.89542 223.0 470.0 223.0L489.0 223.0C490.10458 223.0 491.0 223.89543 491.0 225.0Z" fill-rule="nonzero"/><path stroke="#000000" stroke-width="2.0" stroke-linecap="butt" stroke-opacity="0.0" clip-path="url(#id_0)" d="M170.0 300.0L147.0 300.0L147.0 142.0C147.0 140.89543 147.89543 140.0 149.0 140.0L168.0 140.0C169.10457 140.0 170.0 140.89543 170.0 142.0Z" fill-rule="nonzero"/><path fill="#ea4335" clip-path="url(#id_0)" d="M170.0 300.0L147.0 300.0L147.0 142.0C147.0 140.89543 147.89543 140.0 149.0 140.0L168.0 140.0C169.10457 140.0 170.0 140.89543 170.0 142.0Z" fill-rule="nonzero"/><path stroke="#000000" stroke-width="2.0" stroke-linecap="butt" stroke-opacity="0.0" clip-path="url(#id_0)" d="M285.0 300.0L262.0 300.0L262.0 145.0C262.0 143.89543 262.89542 143.0 264.0 143.0L283.0 143.0C284.10458 143.0 285.0 143.89543 285.0 145.0Z" fill-rule="nonzero"/><path fill="#ea4335" clip-path="url(#id_0)" d="M285.0 300.0L262.0 300.0L262.0 145.0C262.0 143.89543 262.89542 143.0 264.0 143.0L283.0 143.0C284.10458 143.0 285.0 143.89543 285.0 145.0Z" fill-rule="nonzero"/><path stroke="#000000" stroke-width="2.0" stroke-linecap="butt" stroke-opacity="0.0" clip-path="url(#id_0)" d="M401.0 300.0L378.0 300.0L378.0 131.0C378.0 129.89543 378.89542 129.0 380.0 129.0L399.0 129.0C400.10458 129.0 401.0 129.89543 401.0 131.0Z" fill-rule="nonzero"/><path fill="#ea4335" clip-path="url(#id_0)" d="M401.0 300.0L378.0 300.0L378.0 131.0C378.0 129.89543 378.89542 129.0 380.0 129.0L399.0 129.0C400.10458 129.0 401.0 129.89543 401.0 131.0Z" fill-rule="nonzero"/><path stroke="#000000" stroke-width="2.0" stroke-linecap="butt" stroke-opacity="0.0" clip-path="url(#id_0)" d="M516.0 300.0L493.0 300.0L493.0 138.0C493.0 136.89543 493.89542 136.0 495.0 136.0L514.0 136.0C515.10455 136.0 516.0 136.89543 516.0 138.0Z" fill-rule="nonzero"/><path fill="#ea4335" clip-path="url(#id_0)" d="M516.0 300.0L493.0 300.0L493.0 138.0C493.0 136.89543 493.89542 136.0 495.0 136.0L514.0 136.0C515.10455 136.0 516.0 136.89543 516.0 138.0Z" fill-rule="nonzero"/><path stroke="#000000" stroke-width="2.0" stroke-linecap="butt" stroke-opacity="0.0" clip-path="url(#id_0)" d="M195.0 300.0L172.0 300.0L172.0 79.0C172.0 77.89543 172.89543 77.0 174.0 77.0L193.0 77.0C194.10457 77.0 195.0 77.89543 195.0 79.0Z" fill-rule="nonzero"/><path fill="#fbbc04" clip-path="url(#id_0)" d="M195.0 300.0L172.0 300.0L172.0 79.0C172.0 77.89543 172.89543 77.0 174.0 77.0L193.0 77.0C194.10457 77.0 195.0 77.89543 195.0 79.0Z" fill-rule="nonzero"/><path stroke="#000000" stroke-width="2.0" stroke-linecap="butt" stroke-opacity="0.0" clip-path="url(#id_0)" d="M310.0 300.0L287.0 300.0L287.0 82.0C287.0 80.89543 287.89542 80.0 289.0 80.0L308.0 80.0C309.10458 80.0 310.0 80.89543 310.0 82.0Z" fill-rule="nonzero"/><path fill="#fbbc04" clip-path="url(#id_0)" d="M310.0 300.0L287.0 300.0L287.0 82.0C287.0 80.89543 287.89542 80.0 289.0 80.0L308.0 80.0C309.10458 80.0 310.0 80.89543 310.0 82.0Z" fill-rule="nonzero"/><path stroke="#000000" stroke-width="2.0" stroke-linecap="butt" stroke-opacity="0.0" clip-path="url(#id_0)" d="M426.0 300.0L403.0 300.0L403.0 84.0C403.0 82.89543 403.89542 82.0 405.0 82.0L424.0 82.0C425.10458 82.0 426.0 82.89543 426.0 84.0Z" fill-rule="nonzero"/><path fill="#fbbc04" clip-path="url(#id_0)" d="M426.0 300.0L403.0 300.0L403.0 84.0C403.0 82.89543 403.89542 82.0 405.0 82.0L424.0 82.0C425.10458 82.0 426.0 82.89543 426.0 84.0Z" fill-rule="nonzero"/><path stroke="#000000" stroke-width="2.0" stroke-linecap="butt" stroke-opacity="0.0" clip-path="url(#id_0)" d="M541.0 300.0L518.0 300.0L518.0 77.0C518.0 75.89543 518.89545 75.0 520.0 75.0L539.0 75.0C540.10455 75.0 541.0 75.89543 541.0 77.0Z" fill-rule="nonzero"/><path fill="#fbbc04" clip-path="url(#id_0)" d="M541.0 300.0L518.0 300.0L518.0 77.0C518.0 75.89543 518.89545 75.0 520.0 75.0L539.0 75.0C540.10455 75.0 541.0 75.89543 541.0 77.0Z" fill-rule="nonzero"/><path fill="#000000" d="M307.42188 349.45L305.14062 340.85626L306.3125 340.85626L307.625 346.4969Q307.82812 347.3719 307.98438 348.2469Q308.3125 346.8719 308.375 346.65314L310.0 340.85626L311.375 340.85626L312.60938 345.2Q313.0625 346.825 313.28125 348.2469Q313.4375 347.4344 313.70312 346.3719L315.04688 340.85626L316.1875 340.85626L313.84375 349.45L312.73438 349.45L310.9375 342.90314Q310.70312 342.09064 310.65625 341.90314Q310.53125 342.48126 310.40625 342.90314L308.59375 349.45L307.42188 349.45ZM316.40625 346.34064Q316.40625 344.60626 317.35938 343.77814Q318.15625 343.09064 319.3125 343.09064Q320.59375 343.09064 321.40625 343.9344Q322.23438 344.7625 322.23438 346.2469Q322.23438 347.45 321.875 348.1375Q321.51562 348.825 320.8125 349.21564Q320.125 349.59064 319.3125 349.59064Q318.01562 349.59064 317.20312 348.7625Q316.40625 347.91876 316.40625 346.34064ZM317.48438 346.34064Q317.48438 347.52814 318.0 348.1219Q318.53125 348.71564 319.3125 348.71564Q320.10938 348.71564 320.625 348.1219Q321.14062 347.52814 321.14062 346.3094Q321.14062 345.15314 320.60938 344.5594Q320.09375 343.96564 319.3125 343.96564Q318.53125 343.96564 318.0 344.5594Q317.48438 345.1375 317.48438 346.34064ZM323.78125 349.45L323.78125 343.23126L324.73438 343.23126L324.73438 344.16876Q325.09375 343.5125 325.39062 343.3094Q325.70312 343.09064 326.07812 343.09064Q326.60938 343.09064 327.15625 343.41876L326.79688 344.40314Q326.40625 344.16876 326.03125 344.16876Q325.67188 344.16876 325.39062 344.3875Q325.125 344.59064 325.01562 344.96564Q324.82812 345.52814 324.82812 346.1844L324.82812 349.45L323.78125 349.45ZM327.79688 349.45L327.79688 340.85626L328.85938 340.85626L328.85938 345.7625L331.34375 343.23126L332.71875 343.23126L330.32812 345.52814L332.95312 349.45L331.65625 349.45L329.59375 346.2625L328.85938 346.98126L328.85938 349.45L327.79688 349.45ZM333.76562 349.45L333.76562 340.85626L334.82812 340.85626L334.82812 349.45L333.76562 349.45ZM336.40625 346.34064Q336.40625 344.60626 337.35938 343.77814Q338.15625 343.09064 339.3125 343.09064Q340.59375 343.09064 341.40625 343.9344Q342.23438 344.7625 342.23438 346.2469Q342.23438 347.45 341.875 348.1375Q341.51562 348.825 340.8125 349.21564Q340.125 349.59064 339.3125 349.59064Q338.01562 349.59064 337.20312 348.7625Q336.40625 347.91876 336.40625 346.34064ZM337.48438 346.34064Q337.48438 347.52814 338.0 348.1219Q338.53125 348.71564 339.3125 348.71564Q340.10938 348.71564 340.625 348.1219Q341.14062 347.52814 341.14062 346.3094Q341.14062 345.15314 340.60938 344.5594Q340.09375 343.96564 339.3125 343.96564Q338.53125 343.96564 338.0 344.5594Q337.48438 345.1375 337.48438 346.34064ZM347.85938 348.6844Q347.26562 349.1844 346.71875 349.3875Q346.1875 349.59064 345.5625 349.59064Q344.53125 349.59064 343.98438 349.09064Q343.4375 348.59064 343.4375 347.8094Q343.4375 347.35626 343.64062 346.98126Q343.84375 346.59064 344.1875 346.3719Q344.53125 346.1375 344.95312 346.02814Q345.25 345.9344 345.89062 345.85626Q347.15625 345.71564 347.76562 345.4969Q347.76562 345.27814 347.76562 345.23126Q347.76562 344.575 347.46875 344.3094Q347.0625 343.96564 346.26562 343.96564Q345.53125 343.96564 345.17188 344.23126Q344.8125 344.48126 344.64062 345.1375L343.60938 344.9969Q343.75 344.34064 344.07812 343.9344Q344.40625 343.52814 345.01562 343.3094Q345.625 343.09064 346.42188 343.09064Q347.21875 343.09064 347.71875 343.27814Q348.21875 343.46564 348.45312 343.7469Q348.6875 344.02814 348.78125 344.46564Q348.82812 344.73126 348.82812 345.4344L348.82812 346.84064Q348.82812 348.3094 348.89062 348.7Q348.96875 349.09064 349.17188 349.45L348.0625 349.45Q347.90625 349.1219 347.85938 348.6844ZM347.76562 346.325Q347.1875 346.5594 346.04688 346.73126Q345.39062 346.825 345.125 346.95Q344.85938 347.0594 344.70312 347.27814Q344.5625 347.4969 344.5625 347.77814Q344.5625 348.2 344.875 348.48126Q345.20312 348.7625 345.8125 348.7625Q346.42188 348.7625 346.89062 348.4969Q347.375 348.23126 347.59375 347.7625Q347.76562 347.40314 347.76562 346.71564L347.76562 346.325ZM354.82812 349.45L354.82812 348.66876Q354.23438 349.59064 353.09375 349.59064Q352.34375 349.59064 351.71875 349.1844Q351.09375 348.7625 350.75 348.02814Q350.40625 347.29376 350.40625 346.34064Q350.40625 345.41876 350.71875 344.65314Q351.03125 343.8875 351.65625 343.4969Q352.28125 343.09064 353.04688 343.09064Q353.60938 343.09064 354.04688 343.325Q354.48438 343.5594 354.76562 343.9344L354.76562 340.85626L355.8125 340.85626L355.8125 349.45L354.82812 349.45ZM351.5 346.34064Q351.5 347.54376 352.0 348.1375Q352.5 348.71564 353.1875 348.71564Q353.875 348.71564 354.35938 348.15314Q354.84375 347.59064 354.84375 346.4344Q354.84375 345.15314 354.34375 344.5594Q353.85938 343.96564 353.14062 343.96564Q352.4375 343.96564 351.96875 344.54376Q351.5 345.10626 351.5 346.34064Z" fill-rule="nonzero"/><path fill="#000000" d="M29.550013 232.07396L21.971888 232.07396L21.971888 234.90208L20.956263 234.90208L20.956263 228.08958L21.971888 228.08958L21.971888 230.93333L29.550013 230.93333L29.550013 232.07396ZM29.550013 227.38646L20.956263 227.38646L20.956263 226.33958L24.034388 226.33958Q23.190638 225.60521 23.190638 224.48021Q23.190638 223.77708 23.471888 223.27708Q23.737513 222.76146 24.221888 222.54271Q24.690638 222.32396 25.612513 222.32396L29.550013 222.32396L29.550013 223.37083L25.612513 223.37083Q24.815638 223.37083 24.456263 223.71458Q24.096888 224.05833 24.096888 224.68333Q24.096888 225.15208 24.346888 225.57396Q24.581263 225.98021 25.003138 226.16771Q25.409388 226.33958 26.143763 226.33958L29.550013 226.33958L29.550013 227.38646ZM29.550013 220.40208L23.331263 220.40208L23.331263 219.44896L24.268763 219.44896Q23.612513 219.08958 23.409388 218.79271Q23.190638 218.48021 23.190638 218.10521Q23.190638 217.57396 23.518763 217.02708L24.503138 217.38646Q24.268763 217.77708 24.268763 218.15208Q24.268763 218.51146 24.487513 218.79271Q24.690638 219.05833 25.065638 219.16771Q25.628138 219.35521 26.284388 219.35521L29.550013 219.35521L29.550013 220.40208ZM26.440638 216.77708Q24.706263 216.77708 23.878138 215.82396Q23.190638 215.02708 23.190638 213.87083Q23.190638 212.58958 24.034388 211.77708Q24.862513 210.94896 26.346888 210.94896Q27.550013 210.94896 28.237513 211.30833Q28.925013 211.66771 29.315638 212.37083Q29.690638 213.05833 29.690638 213.87083Q29.690638 215.16771 28.862513 215.98021Q28.018763 216.77708 26.440638 216.77708ZM26.440638 215.69896Q27.628138 215.69896 28.221888 215.18333Q28.815638 214.65208 28.815638 213.87083Q28.815638 213.07396 28.221888 212.55833Q27.628138 212.04271 26.409388 212.04271Q25.253138 212.04271 24.659388 212.57396Q24.065638 213.08958 24.065638 213.87083Q24.065638 214.65208 24.659388 215.18333Q25.237513 215.69896 26.440638 215.69896ZM29.550013 205.30833L28.628138 205.30833Q29.690638 206.04271 29.690638 207.29271Q29.690638 207.83958 29.487513 208.32396Q29.268763 208.79271 28.956263 209.02708Q28.628138 209.26146 28.159388 209.35521Q27.862513 209.41771 27.175013 209.41771L23.331263 209.41771L23.331263 208.35521L26.784388 208.35521Q27.596888 208.35521 27.893763 208.29271Q28.300013 208.19896 28.550013 207.88646Q28.784388 207.55833 28.784388 207.07396Q28.784388 206.60521 28.550013 206.19896Q28.300013 205.77708 27.878138 205.60521Q27.456263 205.41771 26.659388 205.41771L23.331263 205.41771L23.331263 204.37083L29.550013 204.37083L29.550013 205.30833ZM30.065638 202.58958L30.221888 201.55833Q30.690638 201.49583 30.909388 201.19896Q31.206263 200.80833 31.206263 200.13646Q31.206263 199.40208 30.909388 199.01146Q30.612513 198.60521 30.096888 198.46458Q29.768763 198.37083 28.737513 198.38646Q29.550013 199.07396 29.550013 200.10521Q29.550013 201.38646 28.628138 202.08958Q27.690638 202.79271 26.409388 202.79271Q25.518763 202.79271 24.768763 202.48021Q24.003138 202.15208 23.596888 201.54271Q23.190638 200.93333 23.190638 200.10521Q23.190638 198.99583 24.081263 198.27708L23.331263 198.27708L23.331263 197.30833L28.706263 197.30833Q30.159388 197.30833 30.768763 197.60521Q31.378138 197.90208 31.721888 198.54271Q32.08126 199.18333 32.08126 200.12083Q32.08126 201.23021 31.581263 201.91771Q31.081263 202.60521 30.065638 202.58958ZM26.331263 201.71458Q27.550013 201.71458 28.112513 201.23021Q28.675013 200.74583 28.675013 200.01146Q28.675013 199.27708 28.112513 198.79271Q27.550013 198.29271 26.362513 198.29271Q25.221888 198.29271 24.643763 198.80833Q24.065638 199.30833 24.065638 200.02708Q24.065638 200.73021 24.643763 201.23021Q25.206263 201.71458 26.331263 201.71458ZM29.550013 195.38646L20.956263 195.38646L20.956263 194.33958L24.034388 194.33958Q23.190638 193.60521 23.190638 192.48021Q23.190638 191.77708 23.471888 191.27708Q23.737513 190.76146 24.221888 190.54271Q24.690638 190.32396 25.612513 190.32396L29.550013 190.32396L29.550013 191.37083L25.612513 191.37083Q24.815638 191.37083 24.456263 191.71458Q24.096888 192.05833 24.096888 192.68333Q24.096888 193.15208 24.346888 193.57396Q24.581263 193.98021 25.003138 194.16771Q25.409388 194.33958 26.143763 194.33958L29.550013 194.33958L29.550013 195.38646ZM31.940638 188.38646L23.331263 188.38646L23.331263 187.43333L24.128138 187.43333Q23.659388 187.08958 23.425013 186.66771Q23.190638 186.23021 23.190638 185.62083Q23.190638 184.82396 23.596888 184.21458Q24.003138 183.60521 24.753138 183.30833Q25.503138 182.99583 26.393763 182.99583Q27.346888 182.99583 28.112513 183.33958Q28.878138 183.66771 29.284388 184.32396Q29.690638 184.98021 29.690638 185.69896Q29.690638 186.23021 29.471888 186.65208Q29.237513 187.07396 28.909388 187.33958L31.940638 187.33958L31.940638 188.38646ZM26.471888 187.43333Q27.675013 187.43333 28.253138 186.94896Q28.815638 186.46458 28.815638 185.77708Q28.815638 185.07396 28.221888 184.57396Q27.628138 184.07396 26.378138 184.07396Q25.190638 184.07396 24.612513 184.55833Q24.018763 185.04271 24.018763 185.73021Q24.018763 186.40208 24.643763 186.91771Q25.268763 187.43333 26.471888 187.43333ZM29.550013 177.30833L28.628138 177.30833Q29.690638 178.04271 29.690638 179.29271Q29.690638 179.83958 29.487513 180.32396Q29.268763 180.79271 28.956263 181.02708Q28.628138 181.26146 28.159388 181.35521Q27.862513 181.41771 27.175013 181.41771L23.331263 181.41771L23.331263 180.35521L26.784388 180.35521Q27.596888 180.35521 27.893763 180.29271Q28.300013 180.19896 28.550013 179.88646Q28.784388 179.55833 28.784388 179.07396Q28.784388 178.60521 28.550013 178.19896Q28.300013 177.77708 27.878138 177.60521Q27.456263 177.41771 26.659388 177.41771L23.331263 177.41771L23.331263 176.37083L29.550013 176.37083L29.550013 177.30833ZM28.612513 172.08958L29.534388 171.93333Q29.628138 172.38646 29.628138 172.73021Q29.628138 173.30833 29.456263 173.62083Q29.268763 173.93333 28.971888 174.07396Q28.675013 174.19896 27.721888 174.19896L24.143763 174.19896L24.143763 174.96458L23.331263 174.96458L23.331263 174.19896L21.784388 174.19896L21.159388 173.15208L23.331263 173.15208L23.331263 172.08958L24.143763 172.08958L24.143763 173.15208L27.784388 173.15208Q28.237513 173.15208 28.362513 173.10521Q28.487513 173.04271 28.565638 172.91771Q28.643763 172.79271 28.643763 172.55833Q28.643763 172.37083 28.612513 172.08958ZM32.08126 166.37083Q30.971888 167.24583 29.503138 167.85521Q28.018763 168.44896 26.440638 168.44896Q25.050013 168.44896 23.768763 168.01146Q22.284388 167.48021 20.815638 166.37083L20.815638 165.62083Q22.034388 166.32396 22.550013 166.55833Q23.362513 166.91771 24.237513 167.12083Q25.331263 167.37083 26.440638 167.37083Q29.268763 167.37083 32.08126 165.62083L32.08126 166.37083ZM29.550013 164.30833L20.956263 164.30833L20.956263 163.16771L25.221888 163.16771L20.956263 158.90208L20.956263 157.35521L24.440638 160.96458L29.550013 157.19896L29.550013 158.69896L25.206263 161.76146L26.565638 163.16771L29.550013 163.16771L29.550013 164.30833ZM25.362513 156.60521Q23.221888 156.60521 22.018763 155.46458Q20.800013 154.30833 20.800013 152.49583Q20.800013 151.29271 21.378138 150.33958Q21.940638 149.38646 22.956263 148.88646Q23.971888 148.38646 25.268763 148.38646Q26.565638 148.38646 27.596888 148.91771Q28.628138 149.44896 29.159388 150.41771Q29.690638 151.37083 29.690638 152.49583Q29.690638 153.71458 29.112513 154.66771Q28.518763 155.62083 27.518763 156.12083Q26.503138 156.60521 25.362513 156.60521ZM25.378138 155.43333Q26.940638 155.43333 27.831263 154.60521Q28.721888 153.76146 28.721888 152.49583Q28.721888 151.21458 27.831263 150.38646Q26.925013 149.55833 25.253138 149.55833Q24.206263 149.55833 23.425013 149.91771Q22.643763 150.26146 22.221888 150.94896Q21.784388 151.63646 21.784388 152.48021Q21.784388 153.68333 22.612513 154.55833Q23.440638 155.43333 25.378138 155.43333ZM31.940638 147.38646L23.331263 147.38646L23.331263 146.43333L24.128138 146.43333Q23.659388 146.08958 23.425013 145.66771Q23.190638 145.23021 23.190638 144.62083Q23.190638 143.82396 23.596888 143.21458Q24.003138 142.60521 24.753138 142.30833Q25.503138 141.99583 26.393763 141.99583Q27.346888 141.99583 28.112513 142.33958Q28.878138 142.66771 29.284388 143.32396Q29.690638 143.98021 29.690638 144.69896Q29.690638 145.23021 29.471888 145.65208Q29.237513 146.07396 28.909388 146.33958L31.940638 146.33958L31.940638 147.38646ZM26.471888 146.43333Q27.675013 146.43333 28.253138 145.94896Q28.815638 145.46458 28.815638 144.77708Q28.815638 144.07396 28.221888 143.57396Q27.628138 143.07396 26.378138 143.07396Q25.190638 143.07396 24.612513 143.55833Q24.018763 144.04271 24.018763 144.73021Q24.018763 145.40208 24.643763 145.91771Q25.268763 146.43333 26.471888 146.43333ZM27.690638 140.80833L27.534388 139.77708Q28.159388 139.68333 28.487513 139.29271Q28.815638 138.88646 28.815638 138.15208Q28.815638 137.43333 28.534388 137.08958Q28.237513 136.73021 27.831263 136.73021Q27.471888 136.73021 27.268763 137.04271Q27.128138 137.26146 26.909388 138.12083Q26.612513 139.27708 26.409388 139.73021Q26.190638 140.16771 25.815638 140.40208Q25.440638 140.63646 24.971888 140.63646Q24.565638 140.63646 24.206263 140.44896Q23.846888 140.26146 23.612513 139.93333Q23.440638 139.68333 23.315638 139.26146Q23.190638 138.83958 23.190638 138.33958Q23.190638 137.62083 23.409388 137.07396Q23.612513 136.51146 23.971888 136.24583Q24.331263 135.98021 24.925013 135.88646L25.065638 136.91771Q24.596888 136.98021 24.331263 137.32396Q24.050013 137.65208 24.050013 138.27708Q24.050013 138.99583 24.300013 139.30833Q24.534388 139.62083 24.862513 139.62083Q25.065638 139.62083 25.221888 139.49583Q25.393763 139.35521 25.503138 139.08958Q25.565638 138.93333 25.768763 138.15208Q26.081263 137.02708 26.268763 136.58958Q26.456263 136.15208 26.815638 135.90208Q27.175013 135.65208 27.721888 135.65208Q28.253138 135.65208 28.721888 135.96458Q29.175013 136.26146 29.440638 136.83958Q29.690638 137.41771 29.690638 138.15208Q29.690638 139.37083 29.190638 140.01146Q28.675013 140.63646 27.690638 140.80833ZM32.08126 132.69896L32.08126 133.44896Q29.268763 131.69896 26.440638 131.69896Q25.346888 131.69896 24.253138 131.94896Q23.378138 132.15208 22.565638 132.51146Q22.050013 132.74583 20.815638 133.44896L20.815638 132.69896Q22.284388 131.60521 23.768763 131.07396Q25.050013 130.62083 26.440638 130.62083Q28.018763 130.62083 29.503138 131.23021Q30.971888 131.83958 32.08126 132.69896Z" fill-rule="nonzero"/><path fill="#000000" d="M58.05 300.21564Q58.05 298.6844 58.3625 297.7625Q58.675 296.825 59.284374 296.325Q59.909374 295.825 60.846874 295.825Q61.534374 295.825 62.05 296.10626Q62.58125 296.3875 62.925 296.91876Q63.26875 297.4344 63.45625 298.1844Q63.64375 298.9344 63.64375 300.21564Q63.64375 301.73126 63.33125 302.65314Q63.034374 303.575 62.409374 304.09064Q61.8 304.59064 60.846874 304.59064Q59.6125 304.59064 58.89375 303.7Q58.05 302.6375 58.05 300.21564ZM59.128124 300.21564Q59.128124 302.325 59.628124 303.02814Q60.128124 303.73126 60.846874 303.73126Q61.58125 303.73126 62.065624 303.02814Q62.565624 302.325 62.565624 300.21564Q62.565624 298.09064 62.065624 297.40314Q61.58125 296.7 60.83125 296.7Q60.1125 296.7 59.675 297.3094Q59.128124 298.09064 59.128124 300.21564ZM65.64375 304.45L65.64375 303.2469L66.84688 303.2469L66.84688 304.45L65.64375 304.45ZM68.05 300.21564Q68.05 298.6844 68.3625 297.7625Q68.675 296.825 69.28438 296.325Q69.90938 295.825 70.84688 295.825Q71.53438 295.825 72.05 296.10626Q72.58125 296.3875 72.925 296.91876Q73.26875 297.4344 73.45625 298.1844Q73.64375 298.9344 73.64375 300.21564Q73.64375 301.73126 73.33125 302.65314Q73.03438 303.575 72.40938 304.09064Q71.8 304.59064 70.84688 304.59064Q69.6125 304.59064 68.89375 303.7Q68.05 302.6375 68.05 300.21564ZM69.12813 300.21564Q69.12813 302.325 69.62813 303.02814Q70.12813 303.73126 70.84688 303.73126Q71.58125 303.73126 72.06563 303.02814Q72.56563 302.325 72.56563 300.21564Q72.56563 298.09064 72.06563 297.40314Q71.58125 296.7 70.83125 296.7Q70.1125 296.7 69.675 297.3094Q69.12813 298.09064 69.12813 300.21564Z" fill-rule="nonzero"/><path fill="#000000" d="M63.596874 253.7277L63.596874 254.74333L57.909374 254.74333Q57.909374 254.36833 58.034374 254.00896Q58.253124 253.43083 58.721874 252.86833Q59.20625 252.30583 60.1125 251.57146Q61.51875 250.4152 62.003124 249.74333Q62.503124 249.07146 62.503124 248.4777Q62.503124 247.8527 62.05 247.43083Q61.596874 246.99333 60.878124 246.99333Q60.1125 246.99333 59.659374 247.44646Q59.20625 247.89958 59.190624 248.71208L58.1125 248.6027Q58.221874 247.38396 58.940624 246.75896Q59.675 246.11833 60.909374 246.11833Q62.14375 246.11833 62.8625 246.80583Q63.58125 247.49333 63.58125 248.50896Q63.58125 249.02458 63.3625 249.52458Q63.159374 250.00896 62.659374 250.57146Q62.175 251.11833 61.05 252.07146Q60.096874 252.86833 59.815624 253.1652Q59.55 253.44646 59.378124 253.7277L63.596874 253.7277ZM65.64375 254.74333L65.64375 253.5402L66.84688 253.5402L66.84688 254.74333L65.64375 254.74333ZM68.05 252.49333L69.15938 252.39958Q69.28438 253.21208 69.72188 253.61833Q70.175 254.02458 70.81563 254.02458Q71.56563 254.02458 72.09688 253.44646Q72.62813 252.86833 72.62813 251.93083Q72.62813 251.02458 72.1125 250.50896Q71.6125 249.9777 70.78438 249.9777Q70.28438 249.9777 69.8625 250.21208Q69.45625 250.44646 69.22188 250.80583L68.2375 250.68083L69.06563 246.27458L73.34688 246.27458L73.34688 247.27458L69.90938 247.27458L69.45625 249.58708Q70.22188 249.0402 71.06563 249.0402Q72.19063 249.0402 72.95625 249.82146Q73.7375 250.6027 73.7375 251.83708Q73.7375 252.99333 73.06563 253.8527Q72.2375 254.88396 70.81563 254.88396Q69.64375 254.88396 68.89375 254.2277Q68.15938 253.57146 68.05 252.49333Z" fill-rule="nonzero"/><path fill="#000000" d="M58.05 202.78667L59.159374 202.69292Q59.284374 203.50542 59.721874 203.91167Q60.175 204.31792 60.815624 204.31792Q61.565624 204.31792 62.096874 203.73979Q62.628124 203.16167 62.628124 202.22417Q62.628124 201.31792 62.1125 200.80229Q61.6125 200.27104 60.784374 200.27104Q60.284374 200.27104 59.8625 200.50542Q59.45625 200.73979 59.221874 201.09917L58.2375 200.97417L59.065624 196.56792L63.346874 196.56792L63.346874 197.56792L59.909374 197.56792L59.45625 199.88042Q60.221874 199.33354 61.065624 199.33354Q62.190624 199.33354 62.95625 200.11479Q63.7375 200.89604 63.7375 202.13042Q63.7375 203.28667 63.065624 204.14604Q62.2375 205.17729 60.815624 205.17729Q59.64375 205.17729 58.89375 204.52104Q58.159374 203.86479 58.05 202.78667ZM65.64375 205.03667L65.64375 203.83354L66.84688 203.83354L66.84688 205.03667L65.64375 205.03667ZM68.05 200.80229Q68.05 199.27104 68.3625 198.34917Q68.675 197.41167 69.28438 196.91167Q69.90938 196.41167 70.84688 196.41167Q71.53438 196.41167 72.05 196.69292Q72.58125 196.97417 72.925 197.50542Q73.26875 198.02104 73.45625 198.77104Q73.64375 199.52104 73.64375 200.80229Q73.64375 202.31792 73.33125 203.23979Q73.03438 204.16167 72.40938 204.67729Q71.8 205.17729 70.84688 205.17729Q69.6125 205.17729 68.89375 204.28667Q68.05 203.22417 68.05 200.80229ZM69.12813 200.80229Q69.12813 202.91167 69.62813 203.61479Q70.12813 204.31792 70.84688 204.31792Q71.58125 204.31792 72.06563 203.61479Q72.56563 202.91167 72.56563 200.80229Q72.56563 198.67729 72.06563 197.98979Q71.58125 197.28667 70.83125 197.28667Q70.1125 197.28667 69.675 197.89604Q69.12813 198.67729 69.12813 200.80229Z" fill-rule="nonzero"/><path fill="#000000" d="M58.1125 147.86125L58.1125 146.84563L63.675 146.84563L63.675 147.67375Q62.8625 148.54875 62.05 150.00188Q61.253124 151.43938 60.815624 152.97063Q60.4875 154.04875 60.409374 155.33L59.315624 155.33Q59.33125 154.31438 59.70625 152.87688Q60.096874 151.43938 60.8 150.11125Q61.51875 148.78313 62.33125 147.86125L58.1125 147.86125ZM65.64375 155.33L65.64375 154.12688L66.84688 154.12688L66.84688 155.33L65.64375 155.33ZM68.05 153.08L69.15938 152.98625Q69.28438 153.79875 69.72188 154.205Q70.175 154.61125 70.81563 154.61125Q71.56563 154.61125 72.09688 154.03313Q72.62813 153.455 72.62813 152.5175Q72.62813 151.61125 72.1125 151.09563Q71.6125 150.56438 70.78438 150.56438Q70.28438 150.56438 69.8625 150.79875Q69.45625 151.03313 69.22188 151.3925L68.2375 151.2675L69.06563 146.86125L73.34688 146.86125L73.34688 147.86125L69.90938 147.86125L69.45625 150.17375Q70.22188 149.62688 71.06563 149.62688Q72.19063 149.62688 72.95625 150.40813Q73.7375 151.18938 73.7375 152.42375Q73.7375 153.58 73.06563 154.43938Q72.2375 155.47063 70.81563 155.47063Q69.64375 155.47063 68.89375 154.81438Q68.15938 154.15813 68.05 153.08Z" fill-rule="nonzero"/><path fill="#000000" d="M55.01875 105.62334L53.971874 105.62334L53.971874 98.90459Q53.58125 99.26396 52.95625 99.63896Q52.346874 99.99834 51.8625 100.17021L51.8625 99.15459Q52.7375 98.73271 53.39375 98.15459Q54.065624 97.56084 54.346874 96.99834L55.01875 96.99834L55.01875 105.62334ZM58.05 101.38896Q58.05 99.85771 58.3625 98.93584Q58.675 97.99834 59.284374 97.49834Q59.909374 96.99834 60.846874 96.99834Q61.534374 96.99834 62.05 97.27959Q62.58125 97.56084 62.925 98.09209Q63.26875 98.60771 63.45625 99.35771Q63.64375 100.10771 63.64375 101.38896Q63.64375 102.90459 63.33125 103.82646Q63.034374 104.74834 62.409374 105.26396Q61.8 105.76396 60.846874 105.76396Q59.6125 105.76396 58.89375 104.87334Q58.05 103.81084 58.05 101.38896ZM59.128124 101.38896Q59.128124 103.49834 59.628124 104.20146Q60.128124 104.90459 60.846874 104.90459Q61.58125 104.90459 62.065624 104.20146Q62.565624 103.49834 62.565624 101.38896Q62.565624 99.26396 62.065624 98.57646Q61.58125 97.87334 60.83125 97.87334Q60.1125 97.87334 59.675 98.48271Q59.128124 99.26396 59.128124 101.38896ZM65.64375 105.62334L65.64375 104.42021L66.84688 104.42021L66.84688 105.62334L65.64375 105.62334ZM68.05 101.38896Q68.05 99.85771 68.3625 98.93584Q68.675 97.99834 69.28438 97.49834Q69.90938 96.99834 70.84688 96.99834Q71.53438 96.99834 72.05 97.27959Q72.58125 97.56084 72.925 98.09209Q73.26875 98.60771 73.45625 99.35771Q73.64375 100.10771 73.64375 101.38896Q73.64375 102.90459 73.33125 103.82646Q73.03438 104.74834 72.40938 105.26396Q71.8 105.76396 70.84688 105.76396Q69.6125 105.76396 68.89375 104.87334Q68.05 103.81084 68.05 101.38896ZM69.12813 101.38896Q69.12813 103.49834 69.62813 104.20146Q70.12813 104.90459 70.84688 104.90459Q71.58125 104.90459 72.06563 104.20146Q72.56563 103.49834 72.56563 101.38896Q72.56563 99.26396 72.06563 98.57646Q71.58125 97.87334 70.83125 97.87334Q70.1125 97.87334 69.675 98.48271Q69.12813 99.26396 69.12813 101.38896Z" fill-rule="nonzero"/><path fill="#000000" d="M55.01875 55.916668L53.971874 55.916668L53.971874 49.197918Q53.58125 49.557293 52.95625 49.932293Q52.346874 50.291668 51.8625 50.463543L51.8625 49.447918Q52.7375 49.026043 53.39375 48.447918Q54.065624 47.854168 54.346874 47.291668L55.01875 47.291668L55.01875 55.916668ZM63.596874 54.901043L63.596874 55.916668L57.909374 55.916668Q57.909374 55.541668 58.034374 55.182293Q58.253124 54.604168 58.721874 54.041668Q59.20625 53.479168 60.1125 52.744793Q61.51875 51.588543 62.003124 50.916668Q62.503124 50.244793 62.503124 49.651043Q62.503124 49.026043 62.05 48.604168Q61.596874 48.166668 60.878124 48.166668Q60.1125 48.166668 59.659374 48.619793Q59.20625 49.072918 59.190624 49.885418L58.1125 49.776043Q58.221874 48.557293 58.940624 47.932293Q59.675 47.291668 60.909374 47.291668Q62.14375 47.291668 62.8625 47.979168Q63.58125 48.666668 63.58125 49.682293Q63.58125 50.197918 63.3625 50.697918Q63.159374 51.182293 62.659374 51.744793Q62.175 52.291668 61.05 53.244793Q60.096874 54.041668 59.815624 54.338543Q59.55 54.619793 59.378124 54.901043L63.596874 54.901043ZM65.64375 55.916668L65.64375 54.713543L66.84688 54.713543L66.84688 55.916668L65.64375 55.916668ZM68.05 53.666668L69.15938 53.572918Q69.28438 54.385418 69.72188 54.791668Q70.175 55.197918 70.81563 55.197918Q71.56563 55.197918 72.09688 54.619793Q72.62813 54.041668 72.62813 53.104168Q72.62813 52.197918 72.1125 51.682293Q71.6125 51.151043 70.78438 51.151043Q70.28438 51.151043 69.8625 51.385418Q69.45625 51.619793 69.22188 51.979168L68.2375 51.854168L69.06563 47.447918L73.34688 47.447918L73.34688 48.447918L69.90938 48.447918L69.45625 50.760418Q70.22188 50.213543 71.06563 50.213543Q72.19063 50.213543 72.95625 50.994793Q73.7375 51.776043 73.7375 53.010418Q73.7375 54.166668 73.06563 55.026043Q72.2375 56.057293 70.81563 56.057293Q69.64375 56.057293 68.89375 55.401043Q68.15938 54.744793 68.05 53.666668Z" fill-rule="nonzero"/><path fill="#000000" d="M140.76024 317.45L144.05711 308.85626L145.27586 308.85626L148.79149 317.45L147.51024 317.45L146.49461 314.84064L142.91649 314.84064L141.96336 317.45L140.76024 317.45ZM143.24461 313.91876L146.15086 313.91876L145.26024 311.54376Q144.83836 310.46564 144.65086 309.7625Q144.47899 310.59064 144.18211 311.40314L143.24461 313.91876ZM148.15086 314.8719L148.15086 313.8094L151.40086 313.8094L151.40086 314.8719L148.15086 314.8719ZM152.54149 317.45L152.54149 308.85626L153.60399 308.85626L153.60399 317.45L152.54149 317.45ZM155.18211 314.34064Q155.18211 312.60626 156.13524 311.77814Q156.93211 311.09064 158.08836 311.09064Q159.36961 311.09064 160.18211 311.9344Q161.01024 312.7625 161.01024 314.2469Q161.01024 315.45 160.65086 316.1375Q160.29149 316.825 159.58836 317.21564Q158.90086 317.59064 158.08836 317.59064Q156.79149 317.59064 155.97899 316.7625Q155.18211 315.91876 155.18211 314.34064ZM156.26024 314.34064Q156.26024 315.52814 156.77586 316.1219Q157.30711 316.71564 158.08836 316.71564Q158.88524 316.71564 159.40086 316.1219Q159.91649 315.52814 159.91649 314.3094Q159.91649 313.15314 159.38524 312.5594Q158.86961 311.96564 158.08836 311.96564Q157.30711 311.96564 156.77586 312.5594Q156.26024 313.1375 156.26024 314.34064ZM166.63524 316.6844Q166.04149 317.1844 165.49461 317.3875Q164.96336 317.59064 164.33836 317.59064Q163.30711 317.59064 162.76024 317.09064Q162.21336 316.59064 162.21336 315.8094Q162.21336 315.35626 162.41649 314.98126Q162.61961 314.59064 162.96336 314.3719Q163.30711 314.1375 163.72899 314.02814Q164.02586 313.9344 164.66649 313.85626Q165.93211 313.71564 166.54149 313.4969Q166.54149 313.27814 166.54149 313.23126Q166.54149 312.575 166.24461 312.3094Q165.83836 311.96564 165.04149 311.96564Q164.30711 311.96564 163.94774 312.23126Q163.58836 312.48126 163.41649 313.1375L162.38524 312.9969Q162.52586 312.34064 162.85399 311.9344Q163.18211 311.52814 163.79149 311.3094Q164.40086 311.09064 165.19774 311.09064Q165.99461 311.09064 166.49461 311.27814Q166.99461 311.46564 167.22899 311.7469Q167.46336 312.02814 167.55711 312.46564Q167.60399 312.73126 167.60399 313.4344L167.60399 314.84064Q167.60399 316.3094 167.66649 316.7Q167.74461 317.09064 167.94774 317.45L166.83836 317.45Q166.68211 317.1219 166.63524 316.6844ZM166.54149 314.325Q165.96336 314.5594 164.82274 314.73126Q164.16649 314.825 163.90086 314.95Q163.63524 315.0594 163.47899 315.27814Q163.33836 315.4969 163.33836 315.77814Q163.33836 316.2 163.65086 316.48126Q163.97899 316.7625 164.58836 316.7625Q165.19774 316.7625 165.66649 316.4969Q166.15086 316.23126 166.36961 315.7625Q166.54149 315.40314 166.54149 314.71564L166.54149 314.325ZM173.60399 317.45L173.60399 316.66876Q173.01024 317.59064 171.86961 317.59064Q171.11961 317.59064 170.49461 317.1844Q169.86961 316.7625 169.52586 316.02814Q169.18211 315.29376 169.18211 314.34064Q169.18211 313.41876 169.49461 312.65314Q169.80711 311.8875 170.43211 311.4969Q171.05711 311.09064 171.82274 311.09064Q172.38524 311.09064 172.82274 311.325Q173.26024 311.5594 173.54149 311.9344L173.54149 308.85626L174.58836 308.85626L174.58836 317.45L173.60399 317.45ZM170.27586 314.34064Q170.27586 315.54376 170.77586 316.1375Q171.27586 316.71564 171.96336 316.71564Q172.65086 316.71564 173.13524 316.15314Q173.61961 315.59064 173.61961 314.4344Q173.61961 313.15314 173.11961 312.5594Q172.63524 311.96564 171.91649 311.96564Q171.21336 311.96564 170.74461 312.54376Q170.27586 313.10626 170.27586 314.34064Z" fill-rule="nonzero"/><path fill="#000000" d="M256.3003 317.45L256.3003 308.85626L259.53467 308.85626Q260.51904 308.85626 261.1128 309.1219Q261.70654 309.3875 262.03467 309.9344Q262.37842 310.46564 262.37842 311.0594Q262.37842 311.60626 262.08154 312.09064Q261.78467 312.575 261.1753 312.8719Q261.95654 313.10626 262.3628 313.66876Q262.78467 314.21564 262.78467 314.96564Q262.78467 315.5594 262.53467 316.09064Q262.28467 316.60626 261.90967 316.8875Q261.53467 317.16876 260.95654 317.3094Q260.39404 317.45 259.58154 317.45L256.3003 317.45ZM257.44092 312.46564L259.3003 312.46564Q260.0503 312.46564 260.37842 312.3719Q260.81592 312.2469 261.03467 311.95Q261.25342 311.6375 261.25342 311.1844Q261.25342 310.7625 261.0503 310.4344Q260.84717 310.10626 260.45654 309.9969Q260.08154 309.8719 259.15967 309.8719L257.44092 309.8719L257.44092 312.46564ZM257.44092 316.4344L259.58154 316.4344Q260.12842 316.4344 260.34717 316.3875Q260.75342 316.325 261.00342 316.16876Q261.26904 315.9969 261.44092 315.6844Q261.6128 315.3719 261.6128 314.96564Q261.6128 314.48126 261.3628 314.1219Q261.12842 313.7625 260.69092 313.6219Q260.25342 313.48126 259.4253 313.48126L257.44092 313.48126L257.44092 316.4344ZM263.8003 314.8719L263.8003 313.8094L267.0503 313.8094L267.0503 314.8719L263.8003 314.8719ZM268.19092 317.45L268.19092 308.85626L269.25342 308.85626L269.25342 317.45L268.19092 317.45ZM270.83154 314.34064Q270.83154 312.60626 271.78467 311.77814Q272.58154 311.09064 273.7378 311.09064Q275.01904 311.09064 275.83154 311.9344Q276.65967 312.7625 276.65967 314.2469Q276.65967 315.45 276.3003 316.1375Q275.94092 316.825 275.2378 317.21564Q274.5503 317.59064 273.7378 317.59064Q272.44092 317.59064 271.62842 316.7625Q270.83154 315.91876 270.83154 314.34064ZM271.90967 314.34064Q271.90967 315.52814 272.4253 316.1219Q272.95654 316.71564 273.7378 316.71564Q274.53467 316.71564 275.0503 316.1219Q275.56592 315.52814 275.56592 314.3094Q275.56592 313.15314 275.03467 312.5594Q274.51904 311.96564 273.7378 311.96564Q272.95654 311.96564 272.4253 312.5594Q271.90967 313.1375 271.90967 314.34064ZM282.28467 316.6844Q281.69092 317.1844 281.14404 317.3875Q280.6128 317.59064 279.9878 317.59064Q278.95654 317.59064 278.40967 317.09064Q277.8628 316.59064 277.8628 315.8094Q277.8628 315.35626 278.06592 314.98126Q278.26904 314.59064 278.6128 314.3719Q278.95654 314.1375 279.37842 314.02814Q279.6753 313.9344 280.31592 313.85626Q281.58154 313.71564 282.19092 313.4969Q282.19092 313.27814 282.19092 313.23126Q282.19092 312.575 281.89404 312.3094Q281.4878 311.96564 280.69092 311.96564Q279.95654 311.96564 279.59717 312.23126Q279.2378 312.48126 279.06592 313.1375L278.03467 312.9969Q278.1753 312.34064 278.50342 311.9344Q278.83154 311.52814 279.44092 311.3094Q280.0503 311.09064 280.84717 311.09064Q281.64404 311.09064 282.14404 311.27814Q282.64404 311.46564 282.87842 311.7469Q283.1128 312.02814 283.20654 312.46564Q283.25342 312.73126 283.25342 313.4344L283.25342 314.84064Q283.25342 316.3094 283.31592 316.7Q283.39404 317.09064 283.59717 317.45L282.4878 317.45Q282.33154 317.1219 282.28467 316.6844ZM282.19092 314.325Q281.6128 314.5594 280.47217 314.73126Q279.81592 314.825 279.5503 314.95Q279.28467 315.0594 279.12842 315.27814Q278.9878 315.4969 278.9878 315.77814Q278.9878 316.2 279.3003 316.48126Q279.62842 316.7625 280.2378 316.7625Q280.84717 316.7625 281.31592 316.4969Q281.8003 316.23126 282.01904 315.7625Q282.19092 315.40314 282.19092 314.71564L282.19092 314.325ZM289.25342 317.45L289.25342 316.66876Q288.65967 317.59064 287.51904 317.59064Q286.76904 317.59064 286.14404 317.1844Q285.51904 316.7625 285.1753 316.02814Q284.83154 315.29376 284.83154 314.34064Q284.83154 313.41876 285.14404 312.65314Q285.45654 311.8875 286.08154 311.4969Q286.70654 311.09064 287.47217 311.09064Q288.03467 311.09064 288.47217 311.325Q288.90967 311.5594 289.19092 311.9344L289.19092 308.85626L290.2378 308.85626L290.2378 317.45L289.25342 317.45ZM285.9253 314.34064Q285.9253 315.54376 286.4253 316.1375Q286.9253 316.71564 287.6128 316.71564Q288.3003 316.71564 288.78467 316.15314Q289.26904 315.59064 289.26904 314.4344Q289.26904 313.15314 288.76904 312.5594Q288.28467 311.96564 287.56592 311.96564Q286.8628 311.96564 286.39404 312.54376Q285.9253 313.10626 285.9253 314.34064Z" fill-rule="nonzero"/><path fill="#000000" d="M377.1372 314.4344L378.2622 314.73126Q377.90283 316.1219 376.98096 316.85626Q376.05908 317.59064 374.71533 317.59064Q373.3247 317.59064 372.4497 317.02814Q371.5747 316.46564 371.12158 315.40314Q370.66846 314.325 370.66846 313.09064Q370.66846 311.7469 371.18408 310.7469Q371.6997 309.7469 372.6372 309.23126Q373.59033 308.71564 374.73096 308.71564Q376.0122 308.71564 376.8872 309.3719Q377.77783 310.02814 378.12158 311.21564L376.99658 311.48126Q376.6997 310.54376 376.12158 310.1219Q375.55908 309.6844 374.6997 309.6844Q373.71533 309.6844 373.04346 310.16876Q372.3872 310.6375 372.10596 311.4344Q371.84033 312.23126 371.84033 313.09064Q371.84033 314.1844 372.15283 314.9969Q372.48096 315.8094 373.15283 316.21564Q373.8247 316.6219 374.62158 316.6219Q375.5747 316.6219 376.23096 316.075Q376.90283 315.52814 377.1372 314.4344ZM379.4497 314.8719L379.4497 313.8094L382.6997 313.8094L382.6997 314.8719L379.4497 314.8719ZM383.84033 317.45L383.84033 308.85626L384.90283 308.85626L384.90283 317.45L383.84033 317.45ZM386.48096 314.34064Q386.48096 312.60626 387.43408 311.77814Q388.23096 311.09064 389.3872 311.09064Q390.66846 311.09064 391.48096 311.9344Q392.30908 312.7625 392.30908 314.2469Q392.30908 315.45 391.9497 316.1375Q391.59033 316.825 390.8872 317.21564Q390.1997 317.59064 389.3872 317.59064Q388.09033 317.59064 387.27783 316.7625Q386.48096 315.91876 386.48096 314.34064ZM387.55908 314.34064Q387.55908 315.52814 388.0747 316.1219Q388.60596 316.71564 389.3872 316.71564Q390.18408 316.71564 390.6997 316.1219Q391.21533 315.52814 391.21533 314.3094Q391.21533 313.15314 390.68408 312.5594Q390.16846 311.96564 389.3872 311.96564Q388.60596 311.96564 388.0747 312.5594Q387.55908 313.1375 387.55908 314.34064ZM397.93408 316.6844Q397.34033 317.1844 396.79346 317.3875Q396.2622 317.59064 395.6372 317.59064Q394.60596 317.59064 394.05908 317.09064Q393.5122 316.59064 393.5122 315.8094Q393.5122 315.35626 393.71533 314.98126Q393.91846 314.59064 394.2622 314.3719Q394.60596 314.1375 395.02783 314.02814Q395.3247 313.9344 395.96533 313.85626Q397.23096 313.71564 397.84033 313.4969Q397.84033 313.27814 397.84033 313.23126Q397.84033 312.575 397.54346 312.3094Q397.1372 311.96564 396.34033 311.96564Q395.60596 311.96564 395.24658 312.23126Q394.8872 312.48126 394.71533 313.1375L393.68408 312.9969Q393.8247 312.34064 394.15283 311.9344Q394.48096 311.52814 395.09033 311.3094Q395.6997 311.09064 396.49658 311.09064Q397.29346 311.09064 397.79346 311.27814Q398.29346 311.46564 398.52783 311.7469Q398.7622 312.02814 398.85596 312.46564Q398.90283 312.73126 398.90283 313.4344L398.90283 314.84064Q398.90283 316.3094 398.96533 316.7Q399.04346 317.09064 399.24658 317.45L398.1372 317.45Q397.98096 317.1219 397.93408 316.6844ZM397.84033 314.325Q397.2622 314.5594 396.12158 314.73126Q395.46533 314.825 395.1997 314.95Q394.93408 315.0594 394.77783 315.27814Q394.6372 315.4969 394.6372 315.77814Q394.6372 316.2 394.9497 316.48126Q395.27783 316.7625 395.8872 316.7625Q396.49658 316.7625 396.96533 316.4969Q397.4497 316.23126 397.66846 315.7625Q397.84033 315.40314 397.84033 314.71564L397.84033 314.325ZM404.90283 317.45L404.90283 316.66876Q404.30908 317.59064 403.16846 317.59064Q402.41846 317.59064 401.79346 317.1844Q401.16846 316.7625 400.8247 316.02814Q400.48096 315.29376 400.48096 314.34064Q400.48096 313.41876 400.79346 312.65314Q401.10596 311.8875 401.73096 311.4969Q402.35596 311.09064 403.12158 311.09064Q403.68408 311.09064 404.12158 311.325Q404.55908 311.5594 404.84033 311.9344L404.84033 308.85626L405.8872 308.85626L405.8872 317.45L404.90283 317.45ZM401.5747 314.34064Q401.5747 315.54376 402.0747 316.1375Q402.5747 316.71564 403.2622 316.71564Q403.9497 316.71564 404.43408 316.15314Q404.91846 315.59064 404.91846 314.4344Q404.91846 313.15314 404.41846 312.5594Q403.93408 311.96564 403.21533 311.96564Q402.5122 311.96564 402.04346 312.54376Q401.5747 313.10626 401.5747 314.34064Z" fill-rule="nonzero"/><path fill="#000000" d="M486.14603 317.45L486.14603 308.85626L489.11478 308.85626Q490.11478 308.85626 490.64603 308.98126Q491.3804 309.15314 491.89603 309.59064Q492.58353 310.16876 492.91165 311.075Q493.2554 311.96564 493.2554 313.10626Q493.2554 314.09064 493.02103 314.84064Q492.80228 315.59064 492.4429 316.09064Q492.08353 316.59064 491.64603 316.8719Q491.22415 317.15314 490.6304 317.3094Q490.03665 317.45 489.2554 317.45L486.14603 317.45ZM487.28665 316.4344L489.11478 316.4344Q489.97415 316.4344 490.45853 316.27814Q490.9429 316.1219 491.22415 315.825Q491.6304 315.4344 491.84915 314.7469Q492.08353 314.0594 492.08353 313.09064Q492.08353 311.7469 491.6304 311.02814Q491.1929 310.29376 490.5679 310.04376Q490.09915 309.8719 489.09915 309.8719L487.28665 309.8719L487.28665 316.4344ZM494.59915 314.8719L494.59915 313.8094L497.84915 313.8094L497.84915 314.8719L494.59915 314.8719ZM498.98978 317.45L498.98978 308.85626L500.05228 308.85626L500.05228 317.45L498.98978 317.45ZM501.6304 314.34064Q501.6304 312.60626 502.58353 311.77814Q503.3804 311.09064 504.53665 311.09064Q505.8179 311.09064 506.6304 311.9344Q507.45853 312.7625 507.45853 314.2469Q507.45853 315.45 507.09915 316.1375Q506.73978 316.825 506.03665 317.21564Q505.34915 317.59064 504.53665 317.59064Q503.23978 317.59064 502.42728 316.7625Q501.6304 315.91876 501.6304 314.34064ZM502.70853 314.34064Q502.70853 315.52814 503.22415 316.1219Q503.7554 316.71564 504.53665 316.71564Q505.33353 316.71564 505.84915 316.1219Q506.36478 315.52814 506.36478 314.3094Q506.36478 313.15314 505.83353 312.5594Q505.3179 311.96564 504.53665 311.96564Q503.7554 311.96564 503.22415 312.5594Q502.70853 313.1375 502.70853 314.34064ZM513.0835 316.6844Q512.48975 317.1844 511.9429 317.3875Q511.41165 317.59064 510.78665 317.59064Q509.7554 317.59064 509.20853 317.09064Q508.66165 316.59064 508.66165 315.8094Q508.66165 315.35626 508.86478 314.98126Q509.0679 314.59064 509.41165 314.3719Q509.7554 314.1375 510.17728 314.02814Q510.47415 313.9344 511.11478 313.85626Q512.3804 313.71564 512.98975 313.4969Q512.98975 313.27814 512.98975 313.23126Q512.98975 312.575 512.6929 312.3094Q512.2866 311.96564 511.48978 311.96564Q510.7554 311.96564 510.39603 312.23126Q510.03665 312.48126 509.86478 313.1375L508.83353 312.9969Q508.97415 312.34064 509.30228 311.9344Q509.6304 311.52814 510.23978 311.3094Q510.84915 311.09064 511.64603 311.09064Q512.4429 311.09064 512.9429 311.27814Q513.4429 311.46564 513.67725 311.7469Q513.9116 312.02814 514.0054 312.46564Q514.05225 312.73126 514.05225 313.4344L514.05225 314.84064Q514.05225 316.3094 514.11475 316.7Q514.1929 317.09064 514.396 317.45L513.2866 317.45Q513.1304 317.1219 513.0835 316.6844ZM512.98975 314.325Q512.4116 314.5594 511.27103 314.73126Q510.61478 314.825 510.34915 314.95Q510.08353 315.0594 509.92728 315.27814Q509.78665 315.4969 509.78665 315.77814Q509.78665 316.2 510.09915 316.48126Q510.42728 316.7625 511.03665 316.7625Q511.64603 316.7625 512.11475 316.4969Q512.5991 316.23126 512.8179 315.7625Q512.98975 315.40314 512.98975 314.71564L512.98975 314.325ZM520.05225 317.45L520.05225 316.66876Q519.4585 317.59064 518.3179 317.59064Q517.5679 317.59064 516.9429 317.1844Q516.3179 316.7625 515.9741 316.02814Q515.6304 315.29376 515.6304 314.34064Q515.6304 313.41876 515.9429 312.65314Q516.2554 311.8875 516.8804 311.4969Q517.5054 311.09064 518.271 311.09064Q518.8335 311.09064 519.271 311.325Q519.7085 311.5594 519.98975 311.9344L519.98975 308.85626L521.0366 308.85626L521.0366 317.45L520.05225 317.45ZM516.7241 314.34064Q516.7241 315.54376 517.2241 316.1375Q517.7241 316.71564 518.4116 316.71564Q519.0991 316.71564 519.5835 316.15314Q520.0679 315.59064 520.0679 314.4344Q520.0679 313.15314 519.5679 312.5594Q519.0835 311.96564 518.36475 311.96564Q517.6616 311.96564 517.1929 312.54376Q516.7241 313.10626 516.7241 314.34064Z" fill-rule="nonzero"/><path fill="#4285f4" d="M160.5 20.55C160.5 19.997715 160.94771 19.55 161.5 19.55L171.5 19.55C172.05229 19.55 172.5 19.997715 172.5 20.55L172.5 30.55C172.5 31.102285 172.05229 31.55 171.5 31.55L161.5 31.55C160.94771 31.55 160.5 31.102285 160.5 30.55Z" fill-rule="nonzero"/><path fill="#1a1a1a" d="M181.39062 29.55L181.39062 20.95625L183.10938 20.95625L185.14062 27.034374Q185.42188 27.89375 185.54688 28.315624Q185.6875 27.846874 186.0 26.940624L188.0625 20.95625L189.59375 20.95625L189.59375 29.55L188.5 29.55L188.5 22.3625L186.0 29.55L184.96875 29.55L182.48438 22.2375L182.48438 29.55L181.39062 29.55ZM194.54688 27.55L195.64062 27.675Q195.39062 28.628124 194.6875 29.159374Q193.98438 29.690624 192.90625 29.690624Q191.54688 29.690624 190.73438 28.846874Q189.9375 28.003124 189.9375 26.4875Q189.9375 24.925 190.75 24.065624Q191.5625 23.190624 192.84375 23.190624Q194.09375 23.190624 194.875 24.034374Q195.67188 24.878124 195.67188 26.425Q195.67188 26.51875 195.67188 26.70625L191.03125 26.70625Q191.09375 27.7375 191.60938 28.284374Q192.125 28.815624 192.90625 28.815624Q193.48438 28.815624 193.89062 28.51875Q194.3125 28.20625 194.54688 27.55ZM191.09375 25.846874L194.5625 25.846874Q194.5 25.05 194.17188 24.659374Q193.65625 24.05 192.85938 24.05Q192.125 24.05 191.625 24.534374Q191.14062 25.01875 191.09375 25.846874ZM197.29688 29.55L197.29688 23.33125L198.23438 23.33125L198.23438 24.20625Q198.53125 23.7375 199.01562 23.471874Q199.5 23.190624 200.125 23.190624Q200.8125 23.190624 201.25 23.471874Q201.70312 23.753124 201.875 24.26875Q202.625 23.190624 203.79688 23.190624Q204.73438 23.190624 205.21875 23.70625Q205.71875 24.20625 205.71875 25.284374L205.71875 29.55L204.67188 29.55L204.67188 25.628124Q204.67188 25.003124 204.5625 24.721874Q204.46875 24.440624 204.20312 24.26875Q203.9375 24.096874 203.5625 24.096874Q202.90625 24.096874 202.46875 24.534374Q202.04688 24.971874 202.04688 25.940624L202.04688 29.55L200.98438 29.55L200.98438 25.503124Q200.98438 24.8 200.71875 24.45625Q200.46875 24.096874 199.89062 24.096874Q199.4375 24.096874 199.0625 24.33125Q198.6875 24.565624 198.51562 25.01875Q198.34375 25.471874 198.34375 26.315624L198.34375 29.55L197.29688 29.55ZM212.35938 27.26875L213.39062 27.409374Q213.21875 28.471874 212.51562 29.08125Q211.8125 29.690624 210.79688 29.690624Q209.51562 29.690624 208.73438 28.8625Q207.96875 28.01875 207.96875 26.45625Q207.96875 25.45625 208.29688 24.70625Q208.64062 23.940624 209.3125 23.565624Q210.0 23.190624 210.8125 23.190624Q211.8125 23.190624 212.45312 23.70625Q213.10938 24.20625 213.29688 25.159374L212.26562 25.315624Q212.125 24.690624 211.75 24.378124Q211.375 24.05 210.84375 24.05Q210.04688 24.05 209.54688 24.628124Q209.04688 25.190624 209.04688 26.425Q209.04688 27.690624 209.53125 28.253124Q210.01562 28.815624 210.78125 28.815624Q211.40625 28.815624 211.8125 28.440624Q212.23438 28.065624 212.35938 27.26875ZM218.35938 28.784374Q217.76562 29.284374 217.21875 29.4875Q216.6875 29.690624 216.0625 29.690624Q215.03125 29.690624 214.48438 29.190624Q213.9375 28.690624 213.9375 27.909374Q213.9375 27.45625 214.14062 27.08125Q214.34375 26.690624 214.6875 26.471874Q215.03125 26.2375 215.45312 26.128124Q215.75 26.034374 216.39062 25.95625Q217.65625 25.815624 218.26562 25.596874Q218.26562 25.378124 218.26562 25.33125Q218.26562 24.675 217.96875 24.409374Q217.5625 24.065624 216.76562 24.065624Q216.03125 24.065624 215.67188 24.33125Q215.3125 24.58125 215.14062 25.2375L214.10938 25.096874Q214.25 24.440624 214.57812 24.034374Q214.90625 23.628124 215.51562 23.409374Q216.125 23.190624 216.92188 23.190624Q217.71875 23.190624 218.21875 23.378124Q218.71875 23.565624 218.95312 23.846874Q219.1875 24.128124 219.28125 24.565624Q219.32812 24.83125 219.32812 25.534374L219.32812 26.940624Q219.32812 28.409374 219.39062 28.8Q219.46875 29.190624 219.67188 29.55L218.5625 29.55Q218.40625 29.221874 218.35938 28.784374ZM218.26562 26.425Q217.6875 26.659374 216.54688 26.83125Q215.89062 26.925 215.625 27.05Q215.35938 27.159374 215.20312 27.378124Q215.0625 27.596874 215.0625 27.878124Q215.0625 28.3 215.375 28.58125Q215.70312 28.8625 216.3125 28.8625Q216.92188 28.8625 217.39062 28.596874Q217.875 28.33125 218.09375 27.8625Q218.26562 27.503124 218.26562 26.815624L218.26562 26.425ZM225.35938 27.26875L226.39062 27.409374Q226.21875 28.471874 225.51562 29.08125Q224.8125 29.690624 223.79688 29.690624Q222.51562 29.690624 221.73438 28.8625Q220.96875 28.01875 220.96875 26.45625Q220.96875 25.45625 221.29688 24.70625Q221.64062 23.940624 222.3125 23.565624Q223.0 23.190624 223.8125 23.190624Q224.8125 23.190624 225.45312 23.70625Q226.10938 24.20625 226.29688 25.159374L225.26562 25.315624Q225.125 24.690624 224.75 24.378124Q224.375 24.05 223.84375 24.05Q223.04688 24.05 222.54688 24.628124Q222.04688 25.190624 222.04688 26.425Q222.04688 27.690624 222.53125 28.253124Q223.01562 28.815624 223.78125 28.815624Q224.40625 28.815624 224.8125 28.440624Q225.23438 28.065624 225.35938 27.26875ZM227.29688 29.55L227.29688 20.95625L228.34375 20.95625L228.34375 24.034374Q229.07812 23.190624 230.20312 23.190624Q230.90625 23.190624 231.40625 23.471874Q231.92188 23.7375 232.14062 24.221874Q232.35938 24.690624 232.35938 25.6125L232.35938 29.55L231.3125 29.55L231.3125 25.6125Q231.3125 24.815624 230.96875 24.45625Q230.625 24.096874 230.0 24.096874Q229.53125 24.096874 229.10938 24.346874Q228.70312 24.58125 228.51562 25.003124Q228.34375 25.409374 228.34375 26.14375L228.34375 29.55L227.29688 29.55ZM238.54688 27.55L239.64062 27.675Q239.39062 28.628124 238.6875 29.159374Q237.98438 29.690624 236.90625 29.690624Q235.54688 29.690624 234.73438 28.846874Q233.9375 28.003124 233.9375 26.4875Q233.9375 24.925 234.75 24.065624Q235.5625 23.190624 236.84375 23.190624Q238.09375 23.190624 238.875 24.034374Q239.67188 24.878124 239.67188 26.425Q239.67188 26.51875 239.67188 26.70625L235.03125 26.70625Q235.09375 27.7375 235.60938 28.284374Q236.125 28.815624 236.90625 28.815624Q237.48438 28.815624 237.89062 28.51875Q238.3125 28.20625 238.54688 27.55ZM235.09375 25.846874L238.5625 25.846874Q238.5 25.05 238.17188 24.659374Q237.65625 24.05 236.85938 24.05Q236.125 24.05 235.625 24.534374Q235.14062 25.01875 235.09375 25.846874ZM245.32812 29.55L245.32812 28.76875Q244.73438 29.690624 243.59375 29.690624Q242.84375 29.690624 242.21875 29.284374Q241.59375 28.8625 241.25 28.128124Q240.90625 27.39375 240.90625 26.440624Q240.90625 25.51875 241.21875 24.753124Q241.53125 23.9875 242.15625 23.596874Q242.78125 23.190624 243.54688 23.190624Q244.10938 23.190624 244.54688 23.425Q244.98438 23.659374 245.26562 24.034374L245.26562 20.95625L246.3125 20.95625L246.3125 29.55L245.32812 29.55ZM242.0 26.440624Q242.0 27.64375 242.5 28.2375Q243.0 28.815624 243.6875 28.815624Q244.375 28.815624 244.85938 28.253124Q245.34375 27.690624 245.34375 26.534374Q245.34375 25.253124 244.84375 24.659374Q244.35938 24.065624 243.64062 24.065624Q242.9375 24.065624 242.46875 24.64375Q242.0 25.20625 242.0 26.440624Z" fill-rule="nonzero"/><path fill="#ea4335" d="M263.5 20.55C263.5 19.997715 263.94772 19.55 264.5 19.55L274.5 19.55C275.05228 19.55 275.5 19.997715 275.5 20.55L275.5 30.55C275.5 31.102285 275.05228 31.55 274.5 31.55L264.5 31.55C263.94772 31.55 263.5 31.102285 263.5 30.55Z" fill-rule="nonzero"/><path fill="#1a1a1a" d="M284.4375 29.55L284.4375 20.95625L288.25 20.95625Q289.40625 20.95625 290.0 21.190624Q290.59375 21.425 290.95312 22.01875Q291.3125 22.596874 291.3125 23.3Q291.3125 24.221874 290.71875 24.846874Q290.125 25.471874 288.89062 25.64375Q289.34375 25.8625 289.57812 26.065624Q290.07812 26.51875 290.51562 27.20625L292.01562 29.55L290.57812 29.55L289.45312 27.76875Q288.95312 26.9875 288.625 26.58125Q288.3125 26.175 288.04688 26.01875Q287.79688 25.846874 287.53125 25.76875Q287.34375 25.7375 286.90625 25.7375L285.57812 25.7375L285.57812 29.55L284.4375 29.55ZM285.57812 24.753124L288.03125 24.753124Q288.79688 24.753124 289.23438 24.596874Q289.6875 24.425 289.90625 24.08125Q290.14062 23.721874 290.14062 23.3Q290.14062 22.690624 289.6875 22.3Q289.25 21.909374 288.29688 21.909374L285.57812 21.909374L285.57812 24.753124ZM292.90625 26.440624Q292.90625 24.70625 293.85938 23.878124Q294.65625 23.190624 295.8125 23.190624Q297.09375 23.190624 297.90625 24.034374Q298.73438 24.8625 298.73438 26.346874Q298.73438 27.55 298.375 28.2375Q298.01562 28.925 297.3125 29.315624Q296.625 29.690624 295.8125 29.690624Q294.51562 29.690624 293.70312 28.8625Q292.90625 28.01875 292.90625 26.440624ZM293.98438 26.440624Q293.98438 27.628124 294.5 28.221874Q295.03125 28.815624 295.8125 28.815624Q296.60938 28.815624 297.125 28.221874Q297.64062 27.628124 297.64062 26.409374Q297.64062 25.253124 297.10938 24.659374Q296.59375 24.065624 295.8125 24.065624Q295.03125 24.065624 294.5 24.659374Q293.98438 25.2375 293.98438 26.440624ZM304.35938 27.26875L305.39062 27.409374Q305.21875 28.471874 304.51562 29.08125Q303.8125 29.690624 302.79688 29.690624Q301.51562 29.690624 300.73438 28.8625Q299.96875 28.01875 299.96875 26.45625Q299.96875 25.45625 300.29688 24.70625Q300.64062 23.940624 301.3125 23.565624Q302.0 23.190624 302.8125 23.190624Q303.8125 23.190624 304.45312 23.70625Q305.10938 24.20625 305.29688 25.159374L304.26562 25.315624Q304.125 24.690624 303.75 24.378124Q303.375 24.05 302.84375 24.05Q302.04688 24.05 301.54688 24.628124Q301.04688 25.190624 301.04688 26.425Q301.04688 27.690624 301.53125 28.253124Q302.01562 28.815624 302.78125 28.815624Q303.40625 28.815624 303.8125 28.440624Q304.23438 28.065624 304.35938 27.26875ZM306.29688 29.55L306.29688 20.95625L307.35938 20.95625L307.35938 25.8625L309.84375 23.33125L311.21875 23.33125L308.82812 25.628124L311.45312 29.55L310.15625 29.55L308.09375 26.3625L307.35938 27.08125L307.35938 29.55L306.29688 29.55ZM311.875 27.690624L312.90625 27.534374Q313.0 28.159374 313.39062 28.4875Q313.79688 28.815624 314.53125 28.815624Q315.25 28.815624 315.59375 28.534374Q315.95312 28.2375 315.95312 27.83125Q315.95312 27.471874 315.64062 27.26875Q315.42188 27.128124 314.5625 26.909374Q313.40625 26.6125 312.95312 26.409374Q312.51562 26.190624 312.28125 25.815624Q312.04688 25.440624 312.04688 24.971874Q312.04688 24.565624 312.23438 24.20625Q312.42188 23.846874 312.75 23.6125Q313.0 23.440624 313.42188 23.315624Q313.84375 23.190624 314.34375 23.190624Q315.0625 23.190624 315.60938 23.409374Q316.17188 23.6125 316.4375 23.971874Q316.70312 24.33125 316.79688 24.925L315.76562 25.065624Q315.70312 24.596874 315.35938 24.33125Q315.03125 24.05 314.40625 24.05Q313.6875 24.05 313.375 24.3Q313.0625 24.534374 313.0625 24.8625Q313.0625 25.065624 313.1875 25.221874Q313.32812 25.39375 313.59375 25.503124Q313.75 25.565624 314.53125 25.76875Q315.65625 26.08125 316.09375 26.26875Q316.53125 26.45625 316.78125 26.815624Q317.03125 27.175 317.03125 27.721874Q317.03125 28.253124 316.71875 28.721874Q316.42188 29.175 315.84375 29.440624Q315.26562 29.690624 314.53125 29.690624Q313.3125 29.690624 312.67188 29.190624Q312.04688 28.675 311.875 27.690624ZM319.42188 29.55L319.42188 20.95625L322.39062 20.95625Q323.39062 20.95625 323.92188 21.08125Q324.65625 21.253124 325.17188 21.690624Q325.85938 22.26875 326.1875 23.175Q326.53125 24.065624 326.53125 25.20625Q326.53125 26.190624 326.29688 26.940624Q326.07812 27.690624 325.71875 28.190624Q325.35938 28.690624 324.92188 28.971874Q324.5 29.253124 323.90625 29.409374Q323.3125 29.55 322.53125 29.55L319.42188 29.55ZM320.5625 28.534374L322.39062 28.534374Q323.25 28.534374 323.73438 28.378124Q324.21875 28.221874 324.5 27.925Q324.90625 27.534374 325.125 26.846874Q325.35938 26.159374 325.35938 25.190624Q325.35938 23.846874 324.90625 23.128124Q324.46875 22.39375 323.84375 22.14375Q323.375 21.971874 322.375 21.971874L320.5625 21.971874L320.5625 28.534374ZM328.375 29.55L328.375 20.95625L331.60938 20.95625Q332.59375 20.95625 333.1875 21.221874Q333.78125 21.4875 334.10938 22.034374Q334.45312 22.565624 334.45312 23.159374Q334.45312 23.70625 334.15625 24.190624Q333.85938 24.675 333.25 24.971874Q334.03125 25.20625 334.4375 25.76875Q334.85938 26.315624 334.85938 27.065624Q334.85938 27.659374 334.60938 28.190624Q334.35938 28.70625 333.98438 28.9875Q333.60938 29.26875 333.03125 29.409374Q332.46875 29.55 331.65625 29.55L328.375 29.55ZM329.51562 24.565624L331.375 24.565624Q332.125 24.565624 332.45312 24.471874Q332.89062 24.346874 333.10938 24.05Q333.32812 23.7375 333.32812 23.284374Q333.32812 22.8625 333.125 22.534374Q332.92188 22.20625 332.53125 22.096874Q332.15625 21.971874 331.23438 21.971874L329.51562 21.971874L329.51562 24.565624ZM329.51562 28.534374L331.65625 28.534374Q332.20312 28.534374 332.42188 28.4875Q332.82812 28.425 333.07812 28.26875Q333.34375 28.096874 333.51562 27.784374Q333.6875 27.471874 333.6875 27.065624Q333.6875 26.58125 333.4375 26.221874Q333.20312 25.8625 332.76562 25.721874Q332.32812 25.58125 331.5 25.58125L329.51562 25.58125L329.51562 28.534374Z" fill-rule="nonzero"/><path fill="#fbbc04" d="M351.5 20.55C351.5 19.997715 351.94772 19.55 352.5 19.55L362.5 19.55C363.05228 19.55 363.5 19.997715 363.5 20.55L363.5 30.55C363.5 31.102285 363.05228 31.55 362.5 31.55L352.5 31.55C351.94772 31.55 351.5 31.102285 351.5 30.55Z" fill-rule="nonzero"/><path fill="#1a1a1a" d="M372.46875 29.55L372.46875 20.95625L373.59375 20.95625L373.59375 24.4875L378.0625 24.4875L378.0625 20.95625L379.20312 20.95625L379.20312 29.55L378.0625 29.55L378.0625 25.503124L373.59375 25.503124L373.59375 29.55L372.46875 29.55ZM385.54688 27.55L386.64062 27.675Q386.39062 28.628124 385.6875 29.159374Q384.98438 29.690624 383.90625 29.690624Q382.54688 29.690624 381.73438 28.846874Q380.9375 28.003124 380.9375 26.4875Q380.9375 24.925 381.75 24.065624Q382.5625 23.190624 383.84375 23.190624Q385.09375 23.190624 385.875 24.034374Q386.67188 24.878124 386.67188 26.425Q386.67188 26.51875 386.67188 26.70625L382.03125 26.70625Q382.09375 27.7375 382.60938 28.284374Q383.125 28.815624 383.90625 28.815624Q384.48438 28.815624 384.89062 28.51875Q385.3125 28.20625 385.54688 27.55ZM382.09375 25.846874L385.5625 25.846874Q385.5 25.05 385.17188 24.659374Q384.65625 24.05 383.85938 24.05Q383.125 24.05 382.625 24.534374Q382.14062 25.01875 382.09375 25.846874ZM388.28125 29.55L388.28125 23.33125L389.23438 23.33125L389.23438 24.26875Q389.59375 23.6125 389.89062 23.409374Q390.20312 23.190624 390.57812 23.190624Q391.10938 23.190624 391.65625 23.51875L391.29688 24.503124Q390.90625 24.26875 390.53125 24.26875Q390.17188 24.26875 389.89062 24.4875Q389.625 24.690624 389.51562 25.065624Q389.32812 25.628124 389.32812 26.284374L389.32812 29.55L388.28125 29.55ZM392.29688 29.55L392.29688 23.33125L393.23438 23.33125L393.23438 24.20625Q393.53125 23.7375 394.01562 23.471874Q394.5 23.190624 395.125 23.190624Q395.8125 23.190624 396.25 23.471874Q396.70312 23.753124 396.875 24.26875Q397.625 23.190624 398.79688 23.190624Q399.73438 23.190624 400.21875 23.70625Q400.71875 24.20625 400.71875 25.284374L400.71875 29.55L399.67188 29.55L399.67188 25.628124Q399.67188 25.003124 399.5625 24.721874Q399.46875 24.440624 399.20312 24.26875Q398.9375 24.096874 398.5625 24.096874Q397.90625 24.096874 397.46875 24.534374Q397.04688 24.971874 397.04688 25.940624L397.04688 29.55L395.98438 29.55L395.98438 25.503124Q395.98438 24.8 395.71875 24.45625Q395.46875 24.096874 394.89062 24.096874Q394.4375 24.096874 394.0625 24.33125Q393.6875 24.565624 393.51562 25.01875Q393.34375 25.471874 393.34375 26.315624L393.34375 29.55L392.29688 29.55ZM407.54688 27.55L408.64062 27.675Q408.39062 28.628124 407.6875 29.159374Q406.98438 29.690624 405.90625 29.690624Q404.54688 29.690624 403.73438 28.846874Q402.9375 28.003124 402.9375 26.4875Q402.9375 24.925 403.75 24.065624Q404.5625 23.190624 405.84375 23.190624Q407.09375 23.190624 407.875 24.034374Q408.67188 24.878124 408.67188 26.425Q408.67188 26.51875 408.67188 26.70625L404.03125 26.70625Q404.09375 27.7375 404.60938 28.284374Q405.125 28.815624 405.90625 28.815624Q406.48438 28.815624 406.89062 28.51875Q407.3125 28.20625 407.54688 27.55ZM404.09375 25.846874L407.5625 25.846874Q407.5 25.05 407.17188 24.659374Q406.65625 24.05 405.85938 24.05Q405.125 24.05 404.625 24.534374Q404.14062 25.01875 404.09375 25.846874ZM409.875 27.690624L410.90625 27.534374Q411.0 28.159374 411.39062 28.4875Q411.79688 28.815624 412.53125 28.815624Q413.25 28.815624 413.59375 28.534374Q413.95312 28.2375 413.95312 27.83125Q413.95312 27.471874 413.64062 27.26875Q413.42188 27.128124 412.5625 26.909374Q411.40625 26.6125 410.95312 26.409374Q410.51562 26.190624 410.28125 25.815624Q410.04688 25.440624 410.04688 24.971874Q410.04688 24.565624 410.23438 24.20625Q410.42188 23.846874 410.75 23.6125Q411.0 23.440624 411.42188 23.315624Q411.84375 23.190624 412.34375 23.190624Q413.0625 23.190624 413.60938 23.409374Q414.17188 23.6125 414.4375 23.971874Q414.70312 24.33125 414.79688 24.925L413.76562 25.065624Q413.70312 24.596874 413.35938 24.33125Q413.03125 24.05 412.40625 24.05Q411.6875 24.05 411.375 24.3Q411.0625 24.534374 411.0625 24.8625Q411.0625 25.065624 411.1875 25.221874Q411.32812 25.39375 411.59375 25.503124Q411.75 25.565624 412.53125 25.76875Q413.65625 26.08125 414.09375 26.26875Q414.53125 26.45625 414.78125 26.815624Q415.03125 27.175 415.03125 27.721874Q415.03125 28.253124 414.71875 28.721874Q414.42188 29.175 413.84375 29.440624Q413.26562 29.690624 412.53125 29.690624Q411.3125 29.690624 410.67188 29.190624Q410.04688 28.675 409.875 27.690624ZM417.375 29.55L417.375 20.95625L418.51562 20.95625L418.51562 25.221874L422.78125 20.95625L424.32812 20.95625L420.71875 24.440624L424.48438 29.55L422.98438 29.55L419.92188 25.20625L418.51562 26.565624L418.51562 29.55L417.375 29.55ZM427.875 29.55L424.54688 20.95625L425.78125 20.95625L428.01562 27.20625Q428.28125 27.95625 428.46875 28.6125Q428.67188 27.909374 428.9375 27.20625L431.25 20.95625L432.40625 20.95625L429.04688 29.55L427.875 29.55ZM432.04688 26.784374L433.10938 26.690624Q433.1875 27.346874 433.46875 27.753124Q433.75 28.159374 434.32812 28.425Q434.92188 28.675 435.65625 28.675Q436.29688 28.675 436.79688 28.4875Q437.29688 28.284374 437.53125 27.95625Q437.78125 27.6125 437.78125 27.221874Q437.78125 26.815624 437.54688 26.51875Q437.3125 26.20625 436.78125 26.003124Q436.42188 25.8625 435.23438 25.58125Q434.0625 25.3 433.59375 25.05Q432.96875 24.721874 432.67188 24.253124Q432.375 23.76875 432.375 23.175Q432.375 22.534374 432.73438 21.971874Q433.10938 21.39375 433.8125 21.1125Q434.53125 20.815624 435.39062 20.815624Q436.34375 20.815624 437.07812 21.128124Q437.8125 21.425 438.20312 22.034374Q438.59375 22.628124 438.625 23.378124L437.53125 23.45625Q437.4375 22.64375 436.92188 22.2375Q436.42188 21.815624 435.4375 21.815624Q434.40625 21.815624 433.9375 22.190624Q433.46875 22.565624 433.46875 23.096874Q433.46875 23.565624 433.79688 23.8625Q434.125 24.159374 435.5 24.471874Q436.89062 24.784374 437.40625 25.01875Q438.15625 25.378124 438.51562 25.909374Q438.875 26.425 438.875 27.128124Q438.875 27.815624 438.48438 28.425Q438.09375 29.01875 437.35938 29.3625Q436.625 29.690624 435.70312 29.690624Q434.53125 29.690624 433.73438 29.3625Q432.95312 29.01875 432.5 28.33125Q432.0625 27.64375 432.04688 26.784374Z" fill-rule="nonzero"/></svg>