<svg version="1.1" viewBox="0.0 0.0 600.0 371.0" fill="none" stroke="none" stroke-linecap="square" stroke-miterlimit="10" width="600" height="371" xmlns:xlink="http://www.w3.org/1999/xlink" xmlns="http://www.w3.org/2000/svg"><path fill="#ffffff" d="M0 0L600.0 0L600.0 371.0L0 371.0L0 0Z" fill-rule="nonzero"/><path stroke="#333333" stroke-width="1.0" stroke-linecap="butt" d="M80.5 300.5L581.5 300.5" fill-rule="nonzero"/><path stroke="#cccccc" stroke-width="1.0" stroke-linecap="butt" d="M80.5 238.5L581.5 238.5" fill-rule="nonzero"/><path stroke="#cccccc" stroke-width="1.0" stroke-linecap="butt" d="M80.5 176.5L581.5 176.5" fill-rule="nonzero"/><path stroke="#cccccc" stroke-width="1.0" stroke-linecap="butt" d="M80.5 114.5L581.5 114.5" fill-rule="nonzero"/><path stroke="#cccccc" stroke-width="1.0" stroke-linecap="butt" d="M80.5 51.5L581.5 51.5" fill-rule="nonzero"/><clipPath id="id_0"><path d="M80.55 51.916668L581.45 51.916668L581.45 300.45L80.55 300.45L80.55 51.916668Z" clip-rule="nonzero"/></clipPath><path stroke="#000000" stroke-width="2.0" stroke-linecap="butt" stroke-opacity="0.0" clip-path="url(#id_0)" d="M145.0 300.0L122.0 300.0L122.0 210.0C122.0 208.89543 122.89543 208.0 124.0 208.0L143.0 208.0C144.10457 208.0 145.0 208.89543 145.0 210.0Z" fill-rule="nonzero"/><path fill="#4285f4" clip-path="url(#id_0)" d="M145.0 300.0L122.0 300.0L122.0 210.0C122.0 208.89543 122.89543 208.0 124.0 208.0L143.0 208.0C144.10457 208.0 145.0 208.89543 145.0 210.0Z" fill-rule="nonzero"/><path stroke="#000000" stroke-width="2.0" stroke-linecap="butt" stroke-opacity="0.0" clip-path="url(#id_0)" d="M260.0 300.0L237.0 300.0L237.0 208.0C237.0 206.89543 237.89543 206.0 239.0 206.0L258.0 206.0C259.10458 206.0 260.0 206.89543 260.0 208.0Z" fill-rule="nonzero"/><path fill="#4285f4" clip-path="url(#id_0)" d="M260.0 300.0L237.0 300.0L237.0 208.0C237.0 206.89543 237.89543 206.0 239.0 206.0L258.0 206.0C259.10458 206.0 260.0 206.89543 260.0 208.0Z" fill-rule="nonzero"/><path stroke="#000000" stroke-width="2.0" stroke-linecap="butt" stroke-opacity="0.0" clip-path="url(#id_0)" d="M376.0 300.0L353.0 300.0L353.0 216.0C353.0 214.89543 353.89542 214.0 355.0 214.0L374.0 214.0C375.10458 214.0 376.0 214.89543 376.0 216.0Z" fill-rule="nonzero"/><path fill="#4285f4" clip-path="url(#id_0)" d="M376.0 300.0L353.0 300.0L353.0 216.0C353.0 214.89543 353.89542 214.0 355.0 214.0L374.0 214.0C375.10458 214.0 376.0 214.89543 376.0 216.0Z" fill-rule="nonzero"/><path stroke="#000000" stroke-width="2.0" stroke-linecap="butt" stroke-opacity="0.0" clip-path="url(#id_0)" d="M491.0 300.0L468.0 300.0L468.0 216.0C468.0 214.89543 468.89542 214.0 470.0 214.0L489.0 214.0C490.10458 214.0 491.0 214.89543 491.0 216.0Z" fill-rule="nonzero"/><path fill="#4285f4" clip-path="url(#id_0)" d="M491.0 300.0L468.0 300.0L468.0 216.0C468.0 214.89543 468.89542 214.0 470.0 214.0L489.0 214.0C490.10458 214.0 491.0 214.89543 491.0 216.0Z" fill-rule="nonzero"/><path stroke="#000000" stroke-width="2.0" stroke-linecap="butt" stroke-opacity="0.0" clip-path="url(#id_0)" d="M170.0 300.0L147.0 300.0L147.0 108.0C147.0 106.89543 147.89543 106.0 149.0 106.0L168.0 106.0C169.10457 106.0 170.0 106.89543 170.0 108.0Z" fill-rule="nonzero"/><path fill="#ea4335" clip-path="url(#id_0)" d="M170.0 300.0L147.0 300.0L147.0 108.0C147.0 106.89543 147.89543 106.0 149.0 106.0L168.0 106.0C169.10457 106.0 170.0 106.89543 170.0 108.0Z" fill-rule="nonzero"/><path stroke="#000000" stroke-width="2.0" stroke-linecap="butt" stroke-opacity="0.0" clip-path="url(#id_0)" d="M285.0 300.0L262.0 300.0L262.0 94.0C262.0 92.89543 262.89542 92.0 264.0 92.0L283.0 92.0C284.10458 92.0 285.0 92.89543 285.0 94.0Z" fill-rule="nonzero"/><path fill="#ea4335" clip-path="url(#id_0)" d="M285.0 300.0L262.0 300.0L262.0 94.0C262.0 92.89543 262.89542 92.0 264.0 92.0L283.0 92.0C284.10458 92.0 285.0 92.89543 285.0 94.0Z" fill-rule="nonzero"/><path stroke="#000000" stroke-width="2.0" stroke-linecap="butt" stroke-opacity="0.0" clip-path="url(#id_0)" d="M401.0 300.0L378.0 300.0L378.0 100.0C378.0 98.89543 378.89542 98.0 380.0 98.0L399.0 98.0C400.10458 98.0 401.0 98.89543 401.0 100.0Z" fill-rule="nonzero"/><path fill="#ea4335" clip-path="url(#id_0)" d="M401.0 300.0L378.0 300.0L378.0 100.0C378.0 98.89543 378.89542 98.0 380.0 98.0L399.0 98.0C400.10458 98.0 401.0 98.89543 401.0 100.0Z" fill-rule="nonzero"/><path stroke="#000000" stroke-width="2.0" stroke-linecap="butt" stroke-opacity="0.0" clip-path="url(#id_0)" d="M516.0 300.0L493.0 300.0L493.0 116.0C493.0 114.89543 493.89542 114.0 495.0 114.0L514.0 114.0C515.10455 114.0 516.0 114.89543 516.0 116.0Z" fill-rule="nonzero"/><path fill="#ea4335" clip-path="url(#id_0)" d="M516.0 300.0L493.0 300.0L493.0 116.0C493.0 114.89543 493.89542 114.0 495.0 114.0L514.0 114.0C515.10455 114.0 516.0 114.89543 516.0 116.0Z" fill-rule="nonzero"/><path stroke="#000000" stroke-width="2.0" stroke-linecap="butt" stroke-opacity="0.0" clip-path="url(#id_0)" d="M195.0 300.0L172.0 300.0L172.0 124.0C172.0 122.89543 172.89543 122.0 174.0 122.0L193.0 122.0C194.10457 122.0 195.0 122.89543 195.0 124.0Z" fill-rule="nonzero"/><path fill="#fbbc04" clip-path="url(#id_0)" d="M195.0 300.0L172.0 300.0L172.0 124.0C172.0 122.89543 172.89543 122.0 174.0 122.0L193.0 122.0C194.10457 122.0 195.0 122.89543 195.0 124.0Z" fill-rule="nonzero"/><path stroke="#000000" stroke-width="2.0" stroke-linecap="butt" stroke-opacity="0.0" clip-path="url(#id_0)" d="M310.0 300.0L287.0 300.0L287.0 116.0C287.0 114.89543 287.89542 114.0 289.0 114.0L308.0 114.0C309.10458 114.0 310.0 114.89543 310.0 116.0Z" fill-rule="nonzero"/><path fill="#fbbc04" clip-path="url(#id_0)" d="M310.0 300.0L287.0 300.0L287.0 116.0C287.0 114.89543 287.89542 114.0 289.0 114.0L308.0 114.0C309.10458 114.0 310.0 114.89543 310.0 116.0Z" fill-rule="nonzero"/><path stroke="#000000" stroke-width="2.0" stroke-linecap="butt" stroke-opacity="0.0" clip-path="url(#id_0)" d="M426.0 300.0L403.0 300.0L403.0 111.0C403.0 109.89543 403.89542 109.0 405.0 109.0L424.0 109.0C425.10458 109.0 426.0 109.89543 426.0 111.0Z" fill-rule="nonzero"/><path fill="#fbbc04" clip-path="url(#id_0)" d="M426.0 300.0L403.0 300.0L403.0 111.0C403.0 109.89543 403.89542 109.0 405.0 109.0L424.0 109.0C425.10458 109.0 426.0 109.89543 426.0 111.0Z" fill-rule="nonzero"/><path stroke="#000000" stroke-width="2.0" stroke-linecap="butt" stroke-opacity="0.0" clip-path="url(#id_0)" d="M541.0 300.0L518.0 300.0L518.0 116.0C518.0 114.89543 518.89545 114.0 520.0 114.0L539.0 114.0C540.10455 114.0 541.0 114.89543 541.0 116.0Z" fill-rule="nonzero"/><path fill="#fbbc04" clip-path="url(#id_0)" d="M541.0 300.0L518.0 300.0L518.0 116.0C518.0 114.89543 518.89545 114.0 520.0 114.0L539.0 114.0C540.10455 114.0 541.0 114.89543 541.0 116.0Z" fill-rule="nonzero"/><path fill="#000000" d="M307.42188 349.45L305.14062 340.85626L306.3125 340.85626L307.625 346.4969Q307.82812 347.3719 307.98438 348.2469Q308.3125 346.8719 308.375 346.65314L310.0 340.85626L311.375 340.85626L312.60938 345.2Q313.0625 346.825 313.28125 348.2469Q313.4375 347.4344 313.70312 346.3719L315.04688 340.85626L316.1875 340.85626L313.84375 349.45L312.73438 349.45L310.9375 342.90314Q310.70312 342.09064 310.65625 341.90314Q310.53125 342.48126 310.40625 342.90314L308.59375 349.45L307.42188 349.45ZM316.40625 346.34064Q316.40625 344.60626 317.35938 343.77814Q318.15625 343.09064 319.3125 343.09064Q320.59375 343.09064 321.40625 343.9344Q322.23438 344.7625 322.23438 346.2469Q322.23438 347.45 321.875 348.1375Q321.51562 348.825 320.8125 349.21564Q320.125 349.59064 319.3125 349.59064Q318.01562 349.59064 317.20312 348.7625Q316.40625 347.91876 316.40625 346.34064ZM317.48438 346.34064Q317.48438 347.52814 318.0 348.1219Q318.53125 348.71564 319.3125 348.71564Q320.10938 348.71564 320.625 348.1219Q321.14062 347.52814 321.14062 346.3094Q321.14062 345.15314 320.60938 344.5594Q320.09375 343.96564 319.3125 343.96564Q318.53125 343.96564 318.0 344.5594Q317.48438 345.1375 317.48438 346.34064ZM323.78125 349.45L323.78125 343.23126L324.73438 343.23126L324.73438 344.16876Q325.09375 343.5125 325.39062 343.3094Q325.70312 343.09064 326.07812 343.09064Q326.60938 343.09064 327.15625 343.41876L326.79688 344.40314Q326.40625 344.16876 326.03125 344.16876Q325.67188 344.16876 325.39062 344.3875Q325.125 344.59064 325.01562 344.96564Q324.82812 345.52814 324.82812 346.1844L324.82812 349.45L323.78125 349.45ZM327.79688 349.45L327.79688 340.85626L328.85938 340.85626L328.85938 345.7625L331.34375 343.23126L332.71875 343.23126L330.32812 345.52814L332.95312 349.45L331.65625 349.45L329.59375 346.2625L328.85938 346.98126L328.85938 349.45L327.79688 349.45ZM333.76562 349.45L333.76562 340.85626L334.82812 340.85626L334.82812 349.45L333.76562 349.45ZM336.40625 346.34064Q336.40625 344.60626 337.35938 343.77814Q338.15625 343.09064 339.3125 343.09064Q340.59375 343.09064 341.40625 343.9344Q342.23438 344.7625 342.23438 346.2469Q342.23438 347.45 341.875 348.1375Q341.51562 348.825 340.8125 349.21564Q340.125 349.59064 339.3125 349.59064Q338.01562 349.59064 337.20312 348.7625Q336.40625 347.91876 336.40625 346.34064ZM337.48438 346.34064Q337.48438 347.52814 338.0 348.1219Q338.53125 348.71564 339.3125 348.71564Q340.10938 348.71564 340.625 348.1219Q341.14062 347.52814 341.14062 346.3094Q341.14062 345.15314 340.60938 344.5594Q340.09375 343.96564 339.3125 343.96564Q338.53125 343.96564 338.0 344.5594Q337.48438 345.1375 337.48438 346.34064ZM347.85938 348.6844Q347.26562 349.1844 346.71875 349.3875Q346.1875 349.59064 345.5625 349.59064Q344.53125 349.59064 343.98438 349.09064Q343.4375 348.59064 343.4375 347.8094Q343.4375 347.35626 343.64062 346.98126Q343.84375 346.59064 344.1875 346.3719Q344.53125 346.1375 344.95312 346.02814Q345.25 345.9344 345.89062 345.85626Q347.15625 345.71564 347.76562 345.4969Q347.76562 345.27814 347.76562 345.23126Q347.76562 344.575 347.46875 344.3094Q347.0625 343.96564 346.26562 343.96564Q345.53125 343.96564 345.17188 344.23126Q344.8125 344.48126 344.64062 345.1375L343.60938 344.9969Q343.75 344.34064 344.07812 343.9344Q344.40625 343.52814 345.01562 343.3094Q345.625 343.09064 346.42188 343.09064Q347.21875 343.09064 347.71875 343.27814Q348.21875 343.46564 348.45312 343.7469Q348.6875 344.02814 348.78125 344.46564Q348.82812 344.73126 348.82812 345.4344L348.82812 346.84064Q348.82812 348.3094 348.89062 348.7Q348.96875 349.09064 349.17188 349.45L348.0625 349.45Q347.90625 349.1219 347.85938 348.6844ZM347.76562 346.325Q347.1875 346.5594 346.04688 346.73126Q345.39062 346.825 345.125 346.95Q344.85938 347.0594 344.70312 347.27814Q344.5625 347.4969 344.5625 347.77814Q344.5625 348.2 344.875 348.48126Q345.20312 348.7625 345.8125 348.7625Q346.42188 348.7625 346.89062 348.4969Q347.375 348.23126 347.59375 347.7625Q347.76562 347.40314 347.76562 346.71564L347.76562 346.325ZM354.82812 349.45L354.82812 348.66876Q354.23438 349.59064 353.09375 349.59064Q352.34375 349.59064 351.71875 349.1844Q351.09375 348.7625 350.75 348.02814Q350.40625 347.29376 350.40625 346.34064Q350.40625 345.41876 350.71875 344.65314Q351.03125 343.8875 351.65625 343.4969Q352.28125 343.09064 353.04688 343.09064Q353.60938 343.09064 354.04688 343.325Q354.48438 343.5594 354.76562 343.9344L354.76562 340.85626L355.8125 340.85626L355.8125 349.45L354.82812 349.45ZM351.5 346.34064Q351.5 347.54376 352.0 348.1375Q352.5 348.71564 353.1875 348.71564Q353.875 348.71564 354.35938 348.15314Q354.84375 347.59064 354.84375 346.4344Q354.84375 345.15314 354.34375 344.5594Q353.85938 343.96564 353.14062 343.96564Q352.4375 343.96564 351.96875 344.54376Q351.5 345.10626 351.5 346.34064Z" fill-rule="nonzero"/><path fill="#000000" d="M29.550013 232.07396L21.971888 232.07396L21.971888 234.90208L20.956263 234.90208L20.956263 228.08958L21.971888 228.08958L21.971888 230.93333L29.550013 230.93333L29.550013 232.07396ZM29.550013 227.38646L20.956263 227.38646L20.956263 226.33958L24.034388 226.33958Q23.190638 225.60521 23.190638 224.48021Q23.190638 223.77708 23.471888 223.27708Q23.737513 222.76146 24.221888 222.54271Q24.690638 222.32396 25.612513 222.32396L29.550013 222.32396L29.550013 223.37083L25.612513 223.37083Q24.815638 223.37083 24.456263 223.71458Q24.096888 224.05833 24.096888 224.68333Q24.096888 225.15208 24.346888 225.57396Q24.581263 225.98021 25.003138 226.16771Q25.409388 226.33958 26.143763 226.33958L29.550013 226.33958L29.550013 227.38646ZM29.550013 220.40208L23.331263 220.40208L23.331263 219.44896L24.268763 219.44896Q23.612513 219.08958 23.409388 218.79271Q23.190638 218.48021 23.190638 218.10521Q23.190638 217.57396 23.518763 217.02708L24.503138 217.38646Q24.268763 217.77708 24.268763 218.15208Q24.268763 218.51146 24.487513 218.79271Q24.690638 219.05833 25.065638 219.16771Q25.628138 219.35521 26.284388 219.35521L29.550013 219.35521L29.550013 220.40208ZM26.440638 216.77708Q24.706263 216.77708 23.878138 215.82396Q23.190638 215.02708 23.190638 213.87083Q23.190638 212.58958 24.034388 211.77708Q24.862513 210.94896 26.346888 210.94896Q27.550013 210.94896 28.237513 211.30833Q28.925013 211.66771 29.315638 212.37083Q29.690638 213.05833 29.690638 213.87083Q29.690638 215.16771 28.862513 215.98021Q28.018763 216.77708 26.440638 216.77708ZM26.440638 215.69896Q27.628138 215.69896 28.221888 215.18333Q28.815638 214.65208 28.815638 213.87083Q28.815638 213.07396 28.221888 212.55833Q27.628138 212.04271 26.409388 212.04271Q25.253138 212.04271 24.659388 212.57396Q24.065638 213.08958 24.065638 213.87083Q24.065638 214.65208 24.659388 215.18333Q25.237513 215.69896 26.440638 215.69896ZM29.550013 205.30833L28.628138 205.30833Q29.690638 206.04271 29.690638 207.29271Q29.690638 207.83958 29.487513 208.32396Q29.268763 208.79271 28.956263 209.02708Q28.628138 209.26146 28.159388 209.35521Q27.862513 209.41771 27.175013 209.41771L23.331263 209.41771L23.331263 208.35521L26.784388 208.35521Q27.596888 208.35521 27.893763 208.29271Q28.300013 208.19896 28.550013 207.88646Q28.784388 207.55833 28.784388 207.07396Q28.784388 206.60521 28.550013 206.19896Q28.300013 205.77708 27.878138 205.60521Q27.456263 205.41771 26.659388 205.41771L23.331263 205.41771L23.331263 204.37083L29.550013 204.37083L29.550013 205.30833ZM30.065638 202.58958L30.221888 201.55833Q30.690638 201.49583 30.909388 201.19896Q31.206263 200.80833 31.206263 200.13646Q31.206263 199.40208 30.909388 199.01146Q30.612513 198.60521 30.096888 198.46458Q29.768763 198.37083 28.737513 198.38646Q29.550013 199.07396 29.550013 200.10521Q29.550013 201.38646 28.628138 202.08958Q27.690638 202.79271 26.409388 202.79271Q25.518763 202.79271 24.768763 202.48021Q24.003138 202.15208 23.596888 201.54271Q23.190638 200.93333 23.190638 200.10521Q23.190638 198.99583 24.081263 198.27708L23.331263 198.27708L23.331263 197.30833L28.706263 197.30833Q30.159388 197.30833 30.768763 197.60521Q31.378138 197.90208 31.721888 198.54271Q32.08126 199.18333 32.08126 200.12083Q32.08126 201.23021 31.581263 201.91771Q31.081263 202.60521 30.065638 202.58958ZM26.331263 201.71458Q27.550013 201.71458 28.112513 201.23021Q28.675013 200.74583 28.675013 200.01146Q28.675013 199.27708 28.112513 198.79271Q27.550013 198.29271 26.362513 198.29271Q25.221888 198.29271 24.643763 198.80833Q24.065638 199.30833 24.065638 200.02708Q24.065638 200.73021 24.643763 201.23021Q25.206263 201.71458 26.331263 201.71458ZM29.550013 195.38646L20.956263 195.38646L20.956263 194.33958L24.034388 194.33958Q23.190638 193.60521 23.190638 192.48021Q23.190638 191.77708 23.471888 191.27708Q23.737513 190.76146 24.221888 190.54271Q24.690638 190.32396 25.612513 190.32396L29.550013 190.32396L29.550013 191.37083L25.612513 191.37083Q24.815638 191.37083 24.456263 191.71458Q24.096888 192.05833 24.096888 192.68333Q24.096888 193.15208 24.346888 193.57396Q24.581263 193.98021 25.003138 194.16771Q25.409388 194.33958 26.143763 194.33958L29.550013 194.33958L29.550013 195.38646ZM31.940638 188.38646L23.331263 188.38646L23.331263 187.43333L24.128138 187.43333Q23.659388 187.08958 23.425013 186.66771Q23.190638 186.23021 23.190638 185.62083Q23.190638 184.82396 23.596888 184.21458Q24.003138 183.60521 24.753138 183.30833Q25.503138 182.99583 26.393763 182.99583Q27.346888 182.99583 28.112513 183.33958Q28.878138 183.66771 29.284388 184.32396Q29.690638 184.98021 29.690638 185.69896Q29.690638 186.23021 29.471888 186.65208Q29.237513 187.07396 28.909388 187.33958L31.940638 187.33958L31.940638 188.38646ZM26.471888 187.43333Q27.675013 187.43333 28.253138 186.94896Q28.815638 186.46458 28.815638 185.77708Q28.815638 185.07396 28.221888 184.57396Q27.628138 184.07396 26.378138 184.07396Q25.190638 184.07396 24.612513 184.55833Q24.018763 185.04271 24.018763 185.73021Q24.018763 186.40208 24.643763 186.91771Q25.268763 187.43333 26.471888 187.43333ZM29.550013 177.30833L28.628138 177.30833Q29.690638 178.04271 29.690638 179.29271Q29.690638 179.83958 29.487513 180.32396Q29.268763 180.79271 28.956263 181.02708Q28.628138 181.26146 28.159388 181.35521Q27.862513 181.41771 27.175013 181.41771L23.331263 181.41771L23.331263 180.35521L26.784388 180.35521Q27.596888 180.35521 27.893763 180.29271Q28.300013 180.19896 28.550013 179.88646Q28.784388 179.55833 28.784388 179.07396Q28.784388 178.60521 28.550013 178.19896Q28.300013 177.77708 27.878138 177.60521Q27.456263 177.41771 26.659388 177.41771L23.331263 177.41771L23.331263 176.37083L29.550013 176.37083L29.550013 177.30833ZM28.612513 172.08958L29.534388 171.93333Q29.628138 172.38646 29.628138 172.73021Q29.628138 173.30833 29.456263 173.62083Q29.268763 173.93333 28.971888 174.07396Q28.675013 174.19896 27.721888 174.19896L24.143763 174.19896L24.143763 174.96458L23.331263 174.96458L23.331263 174.19896L21.784388 174.19896L21.159388 173.15208L23.331263 173.15208L23.331263 172.08958L24.143763 172.08958L24.143763 173.15208L27.784388 173.15208Q28.237513 173.15208 28.362513 173.10521Q28.487513 173.04271 28.565638 172.91771Q28.643763 172.79271 28.643763 172.55833Q28.643763 172.37083 28.612513 172.08958ZM32.08126 166.37083Q30.971888 167.24583 29.503138 167.85521Q28.018763 168.44896 26.440638 168.44896Q25.050013 168.44896 23.768763 168.01146Q22.284388 167.48021 20.815638 166.37083L20.815638 165.62083Q22.034388 166.32396 22.550013 166.55833Q23.362513 166.91771 24.237513 167.12083Q25.331263 167.37083 26.440638 167.37083Q29.268763 167.37083 32.08126 165.62083L32.08126 166.37083ZM29.550013 164.30833L20.956263 164.30833L20.956263 163.16771L25.221888 163.16771L20.956263 158.90208L20.956263 157.35521L24.440638 160.96458L29.550013 157.19896L29.550013 158.69896L25.206263 161.76146L26.565638 163.16771L29.550013 163.16771L29.550013 164.30833ZM25.362513 156.60521Q23.221888 156.60521 22.018763 155.46458Q20.800013 154.30833 20.800013 152.49583Q20.800013 151.29271 21.378138 150.33958Q21.940638 149.38646 22.956263 148.88646Q23.971888 148.38646 25.268763 148.38646Q26.565638 148.38646 27.596888 148.91771Q28.628138 149.44896 29.159388 150.41771Q29.690638 151.37083 29.690638 152.49583Q29.690638 153.71458 29.112513 154.66771Q28.518763 155.62083 27.518763 156.12083Q26.503138 156.60521 25.362513 156.60521ZM25.378138 155.43333Q26.940638 155.43333 27.831263 154.60521Q28.721888 153.76146 28.721888 152.49583Q28.721888 151.21458 27.831263 150.38646Q26.925013 149.55833 25.253138 149.55833Q24.206263 149.55833 23.425013 149.91771Q22.643763 150.26146 22.221888 150.94896Q21.784388 151.63646 21.784388 152.48021Q21.784388 153.68333 22.612513 154.55833Q23.440638 155.43333 25.378138 155.43333ZM31.940638 147.38646L23.331263 147.38646L23.331263 146.43333L24.128138 146.43333Q23.659388 146.08958 23.425013 145.66771Q23.190638 145.23021 23.190638 144.62083Q23.190638 143.82396 23.596888 143.21458Q24.003138 142.60521 24.753138 142.30833Q25.503138 141.99583 26.393763 141.99583Q27.346888 141.99583 28.112513 142.33958Q28.878138 142.66771 29.284388 143.32396Q29.690638 143.98021 29.690638 144.69896Q29.690638 145.23021 29.471888 145.65208Q29.237513 146.07396 28.909388 146.33958L31.940638 146.33958L31.940638 147.38646ZM26.471888 146.43333Q27.675013 146.43333 28.253138 145.94896Q28.815638 145.46458 28.815638 144.77708Q28.815638 144.07396 28.221888 143.57396Q27.628138 143.07396 26.378138 143.07396Q25.190638 143.07396 24.612513 143.55833Q24.018763 144.04271 24.018763 144.73021Q24.018763 145.40208 24.643763 145.91771Q25.268763 146.43333 26.471888 146.43333ZM27.690638 140.80833L27.534388 139.77708Q28.159388 139.68333 28.487513 139.29271Q28.815638 138.88646 28.815638 138.15208Q28.815638 137.43333 28.534388 137.08958Q28.237513 136.73021 27.831263 136.73021Q27.471888 136.73021 27.268763 137.04271Q27.128138 137.26146 26.909388 138.12083Q26.612513 139.27708 26.409388 139.73021Q26.190638 140.16771 25.815638 140.40208Q25.440638 140.63646 24.971888 140.63646Q24.565638 140.63646 24.206263 140.44896Q23.846888 140.26146 23.612513 139.93333Q23.440638 139.68333 23.315638 139.26146Q23.190638 138.83958 23.190638 138.33958Q23.190638 137.62083 23.409388 137.07396Q23.612513 136.51146 23.971888 136.24583Q24.331263 135.98021 24.925013 135.88646L25.065638 136.91771Q24.596888 136.98021 24.331263 137.32396Q24.050013 137.65208 24.050013 138.27708Q24.050013 138.99583 24.300013 139.30833Q24.534388 139.62083 24.862513 139.62083Q25.065638 139.62083 25.221888 139.49583Q25.393763 139.35521 25.503138 139.08958Q25.565638 138.93333 25.768763 138.15208Q26.081263 137.02708 26.268763 136.58958Q26.456263 136.15208 26.815638 135.90208Q27.175013 135.65208 27.721888 135.65208Q28.253138 135.65208 28.721888 135.96458Q29.175013 136.26146 29.440638 136.83958Q29.690638 137.41771 29.690638 138.15208Q29.690638 139.37083 29.190638 140.01146Q28.675013 140.63646 27.690638 140.80833ZM32.08126 132.69896L32.08126 133.44896Q29.268763 131.69896 26.440638 131.69896Q25.346888 131.69896 24.253138 131.94896Q23.378138 132.15208 22.565638 132.51146Q22.050013 132.74583 20.815638 133.44896L20.815638 132.69896Q22.284388 131.60521 23.768763 131.07396Q25.050013 130.62083 26.440638 130.62083Q28.018763 130.62083 29.503138 131.23021Q30.971888 131.83958 32.08126 132.69896Z" fill-rule="nonzero"/><path fill="#000000" d="M58.05 300.21564Q58.05 298.6844 58.3625 297.7625Q58.675 296.825 59.284374 296.325Q59.909374 295.825 60.846874 295.825Q61.534374 295.825 62.05 296.10626Q62.58125 296.3875 62.925 296.91876Q63.26875 297.4344 63.45625 298.1844Q63.64375 298.9344 63.64375 300.21564Q63.64375 301.73126 63.33125 302.65314Q63.034374 303.575 62.409374 304.09064Q61.8 304.59064 60.846874 304.59064Q59.6125 304.59064 58.89375 303.7Q58.05 302.6375 58.05 300.21564ZM59.128124 300.21564Q59.128124 302.325 59.628124 303.02814Q60.128124 303.73126 60.846874 303.73126Q61.58125 303.73126 62.065624 303.02814Q62.565624 302.325 62.565624 300.21564Q62.565624 298.09064 62.065624 297.40314Q61.58125 296.7 60.83125 296.7Q60.1125 296.7 59.675 297.3094Q59.128124 298.09064 59.128124 300.21564ZM65.64375 304.45L65.64375 303.2469L66.84688 303.2469L66.84688 304.45L65.64375 304.45ZM68.05 300.21564Q68.05 298.6844 68.3625 297.7625Q68.675 296.825 69.28438 296.325Q69.90938 295.825 70.84688 295.825Q71.53438 295.825 72.05 296.10626Q72.58125 296.3875 72.925 296.91876Q73.26875 297.4344 73.45625 298.1844Q73.64375 298.9344 73.64375 300.21564Q73.64375 301.73126 73.33125 302.65314Q73.03438 303.575 72.40938 304.09064Q71.8 304.59064 70.84688 304.59064Q69.6125 304.59064 68.89375 303.7Q68.05 302.6375 68.05 300.21564ZM69.12813 300.21564Q69.12813 302.325 69.62813 303.02814Q70.12813 303.73126 70.84688 303.73126Q71.58125 303.73126 72.06563 303.02814Q72.56563 302.325 72.56563 300.21564Q72.56563 298.09064 72.06563 297.40314Q71.58125 296.7 70.83125 296.7Q70.1125 296.7 69.675 297.3094Q69.12813 298.09064 69.12813 300.21564Z" fill-rule="nonzero"/><path fill="#000000" d="M63.596874 241.30104L63.596874 242.31667L57.909374 242.31667Q57.909374 241.94167 58.034374 241.58229Q58.253124 241.00417 58.721874 240.44167Q59.20625 239.87917 60.1125 239.14479Q61.51875 237.98854 62.003124 237.31667Q62.503124 236.64479 62.503124 236.05104Q62.503124 235.42604 62.05 235.00417Q61.596874 234.56667 60.878124 234.56667Q60.1125 234.56667 59.659374 235.01979Q59.20625 235.47292 59.190624 236.28542L58.1125 236.17604Q58.221874 234.95729 58.940624 234.33229Q59.675 233.69167 60.909374 233.69167Q62.14375 233.69167 62.8625 234.37917Q63.58125 235.06667 63.58125 236.08229Q63.58125 236.59792 63.3625 237.09792Q63.159374 237.58229 62.659374 238.14479Q62.175 238.69167 61.05 239.64479Q60.096874 240.44167 59.815624 240.73854Q59.55 241.01979 59.378124 241.30104L63.596874 241.30104ZM65.64375 242.31667L65.64375 241.11354L66.84688 241.11354L66.84688 242.31667L65.64375 242.31667ZM68.05 240.06667L69.15938 239.97292Q69.28438 240.78542 69.72188 241.19167Q70.175 241.59792 70.81563 241.59792Q71.56563 241.59792 72.09688 241.01979Q72.62813 240.44167 72.62813 239.50417Q72.62813 238.59792 72.1125 238.08229Q71.6125 237.55104 70.78438 237.55104Q70.28438 237.55104 69.8625 237.78542Q69.45625 238.01979 69.22188 238.37917L68.2375 238.25417L69.06563 233.84792L73.34688 233.84792L73.34688 234.84792L69.90938 234.84792L69.45625 237.16042Q70.22188 236.61354 71.06563 236.61354Q72.19063 236.61354 72.95625 237.39479Q73.7375 238.17604 73.7375 239.41042Q73.7375 240.56667 73.06563 241.42604Q72.2375 242.45729 70.81563 242.45729Q69.64375 242.45729 68.89375 241.80104Q68.15938 241.14479 68.05 240.06667Z" fill-rule="nonzero"/><path fill="#000000" d="M58.05 177.93333L59.159374 177.83958Q59.284374 178.65208 59.721874 179.05833Q60.175 179.46458 60.815624 179.46458Q61.565624 179.46458 62.096874 178.88646Q62.628124 178.30833 62.628124 177.37083Q62.628124 176.46458 62.1125 175.94896Q61.6125 175.41771 60.784374 175.41771Q60.284374 175.41771 59.8625 175.65208Q59.45625 175.88646 59.221874 176.24583L58.2375 176.12083L59.065624 171.71458L63.346874 171.71458L63.346874 172.71458L59.909374 172.71458L59.45625 175.02708Q60.221874 174.48021 61.065624 174.48021Q62.190624 174.48021 62.95625 175.26146Q63.7375 176.04271 63.7375 177.27708Q63.7375 178.43333 63.065624 179.29271Q62.2375 180.32396 60.815624 180.32396Q59.64375 180.32396 58.89375 179.66771Q58.159374 179.01146 58.05 177.93333ZM65.64375 180.18333L65.64375 178.98021L66.84688 178.98021L66.84688 180.18333L65.64375 180.18333ZM68.05 175.94896Q68.05 174.41771 68.3625 173.49583Q68.675 172.55833 69.28438 172.05833Q69.90938 171.55833 70.84688 171.55833Q71.53438 171.55833 72.05 171.83958Q72.58125 172.12083 72.925 172.65208Q73.26875 173.16771 73.45625 173.91771Q73.64375 174.66771 73.64375 175.94896Q73.64375 177.46458 73.33125 178.38646Q73.03438 179.30833 72.40938 179.82396Q71.8 180.32396 70.84688 180.32396Q69.6125 180.32396 68.89375 179.43333Q68.05 178.37083 68.05 175.94896ZM69.12813 175.94896Q69.12813 178.05833 69.62813 178.76146Q70.12813 179.46458 70.84688 179.46458Q71.58125 179.46458 72.06563 178.76146Q72.56563 178.05833 72.56563 175.94896Q72.56563 173.82396 72.06563 173.13646Q71.58125 172.43333 70.83125 172.43333Q70.1125 172.43333 69.675 173.04271Q69.12813 173.82396 69.12813 175.94896Z" fill-rule="nonzero"/><path fill="#000000" d="M58.1125 110.58125L58.1125 109.56563L63.675 109.56563L63.675 110.39375Q62.8625 111.26875 62.05 112.72188Q61.253124 114.15938 60.815624 115.69063Q60.4875 116.76875 60.409374 118.05L59.315624 118.05Q59.33125 117.03438 59.70625 115.59688Q60.096874 114.15938 60.8 112.83125Q61.51875 111.50313 62.33125 110.58125L58.1125 110.58125ZM65.64375 118.05L65.64375 116.84688L66.84688 116.84688L66.84688 118.05L65.64375 118.05ZM68.05 115.8L69.15938 115.70625Q69.28438 116.51875 69.72188 116.925Q70.175 117.33125 70.81563 117.33125Q71.56563 117.33125 72.09688 116.75313Q72.62813 116.175 72.62813 115.2375Q72.62813 114.33125 72.1125 113.81563Q71.6125 113.28438 70.78438 113.28438Q70.28438 113.28438 69.8625 113.51875Q69.45625 113.75313 69.22188 114.1125L68.2375 113.9875L69.06563 109.58125L73.34688 109.58125L73.34688 110.58125L69.90938 110.58125L69.45625 112.89375Q70.22188 112.34688 71.06563 112.34688Q72.19063 112.34688 72.95625 113.12813Q73.7375 113.90938 73.7375 115.14375Q73.7375 116.3 73.06563 117.15938Q72.2375 118.19063 70.81563 118.19063Q69.64375 118.19063 68.89375 117.53438Q68.15938 116.87813 68.05 115.8Z" fill-rule="nonzero"/><path fill="#000000" d="M55.01875 55.916668L53.971874 55.916668L53.971874 49.197918Q53.58125 49.557293 52.95625 49.932293Q52.346874 50.291668 51.8625 50.463543L51.8625 49.447918Q52.7375 49.026043 53.39375 48.447918Q54.065624 47.854168 54.346874 47.291668L55.01875 47.291668L55.01875 55.916668ZM58.05 51.682293Q58.05 50.151043 58.3625 49.229168Q58.675 48.291668 59.284374 47.791668Q59.909374 47.291668 60.846874 47.291668Q61.534374 47.291668 62.05 47.572918Q62.58125 47.854168 62.925 48.385418Q63.26875 48.901043 63.45625 49.651043Q63.64375 50.401043 63.64375 51.682293Q63.64375 53.197918 63.33125 54.119793Q63.034374 55.041668 62.409374 55.557293Q61.8 56.057293 60.846874 56.057293Q59.6125 56.057293 58.89375 55.166668Q58.05 54.104168 58.05 51.682293ZM59.128124 51.682293Q59.128124 53.791668 59.628124 54.494793Q60.128124 55.197918 60.846874 55.197918Q61.58125 55.197918 62.065624 54.494793Q62.565624 53.791668 62.565624 51.682293Q62.565624 49.557293 62.065624 48.869793Q61.58125 48.166668 60.83125 48.166668Q60.1125 48.166668 59.675 48.776043Q59.128124 49.557293 59.128124 51.682293ZM65.64375 55.916668L65.64375 54.713543L66.84688 54.713543L66.84688 55.916668L65.64375 55.916668ZM68.05 51.682293Q68.05 50.151043 68.3625 49.229168Q68.675 48.291668 69.28438 47.791668Q69.90938 47.291668 70.84688 47.291668Q71.53438 47.291668 72.05 47.572918Q72.58125 47.854168 72.925 48.385418Q73.26875 48.901043 73.45625 49.651043Q73.64375 50.401043 73.64375 51.682293Q73.64375 53.197918 73.33125 54.119793Q73.03438 55.041668 72.40938 55.557293Q71.8 56.057293 70.84688 56.057293Q69.6125 56.057293 68.89375 55.166668Q68.05 54.104168 68.05 51.682293ZM69.12813 51.682293Q69.12813 53.791668 69.62813 54.494793Q70.12813 55.197918 70.84688 55.197918Q71.58125 55.197918 72.06563 54.494793Q72.56563 53.791668 72.56563 51.682293Q72.56563 49.557293 72.06563 48.869793Q71.58125 48.166668 70.83125 48.166668Q70.1125 48.166668 69.675 48.776043Q69.12813 49.557293 69.12813 51.682293Z" fill-rule="nonzero"/><path fill="#000000" d="M143.76024 317.45L147.05711 308.85626L148.27586 308.85626L151.79149 317.45L150.51024 317.45L149.49461 314.84064L145.91649 314.84064L144.96336 317.45L143.76024 317.45ZM146.24461 313.91876L149.15086 313.91876L148.26024 311.54376Q147.83836 310.46564 147.65086 309.7625Q147.47899 310.59064 147.18211 311.40314L146.24461 313.91876ZM151.15086 314.8719L151.15086 313.8094L154.40086 313.8094L154.40086 314.8719L151.15086 314.8719ZM155.55711 317.45L155.55711 311.23126L156.51024 311.23126L156.51024 312.16876Q156.86961 311.5125 157.16649 311.3094Q157.47899 311.09064 157.85399 311.09064Q158.38524 311.09064 158.93211 311.41876L158.57274 312.40314Q158.18211 312.16876 157.80711 312.16876Q157.44774 312.16876 157.16649 312.3875Q156.90086 312.59064 156.79149 312.96564Q156.60399 313.52814 156.60399 314.1844L156.60399 317.45L155.55711 317.45ZM163.65086 317.45L163.65086 316.52814Q162.91649 317.59064 161.66649 317.59064Q161.11961 317.59064 160.63524 317.3875Q160.16649 317.16876 159.93211 316.85626Q159.69774 316.52814 159.60399 316.0594Q159.54149 315.7625 159.54149 315.075L159.54149 311.23126L160.60399 311.23126L160.60399 314.6844Q160.60399 315.4969 160.66649 315.79376Q160.76024 316.2 161.07274 316.45Q161.40086 316.6844 161.88524 316.6844Q162.35399 316.6844 162.76024 316.45Q163.18211 316.2 163.35399 315.77814Q163.54149 315.35626 163.54149 314.5594L163.54149 311.23126L164.58836 311.23126L164.58836 317.45L163.65086 317.45ZM166.57274 317.45L166.57274 311.23126L167.51024 311.23126L167.51024 312.10626Q168.19774 311.09064 169.49461 311.09064Q170.05711 311.09064 170.52586 311.29376Q171.01024 311.4969 171.24461 311.825Q171.47899 312.15314 171.57274 312.59064Q171.61961 312.8875 171.61961 313.6219L171.61961 317.45L170.57274 317.45L170.57274 313.66876Q170.57274 313.0125 170.44774 312.7Q170.32274 312.3875 170.01024 312.2Q169.69774 311.9969 169.27586 311.9969Q168.60399 311.9969 168.10399 312.4344Q167.61961 312.85626 167.61961 314.04376L167.61961 317.45L166.57274 317.45Z" fill-rule="nonzero"/><path fill="#000000" d="M259.3003 317.45L259.3003 308.85626L262.53467 308.85626Q263.51904 308.85626 264.1128 309.1219Q264.70654 309.3875 265.03467 309.9344Q265.37842 310.46564 265.37842 311.0594Q265.37842 311.60626 265.08154 312.09064Q264.78467 312.575 264.1753 312.8719Q264.95654 313.10626 265.3628 313.66876Q265.78467 314.21564 265.78467 314.96564Q265.78467 315.5594 265.53467 316.09064Q265.28467 316.60626 264.90967 316.8875Q264.53467 317.16876 263.95654 317.3094Q263.39404 317.45 262.58154 317.45L259.3003 317.45ZM260.44092 312.46564L262.3003 312.46564Q263.0503 312.46564 263.37842 312.3719Q263.81592 312.2469 264.03467 311.95Q264.25342 311.6375 264.25342 311.1844Q264.25342 310.7625 264.0503 310.4344Q263.84717 310.10626 263.45654 309.9969Q263.08154 309.8719 262.15967 309.8719L260.44092 309.8719L260.44092 312.46564ZM260.44092 316.4344L262.58154 316.4344Q263.12842 316.4344 263.34717 316.3875Q263.75342 316.325 264.00342 316.16876Q264.26904 315.9969 264.44092 315.6844Q264.6128 315.3719 264.6128 314.96564Q264.6128 314.48126 264.3628 314.1219Q264.12842 313.7625 263.69092 313.6219Q263.25342 313.48126 262.4253 313.48126L260.44092 313.48126L260.44092 316.4344ZM266.8003 314.8719L266.8003 313.8094L270.0503 313.8094L270.0503 314.8719L266.8003 314.8719ZM271.20654 317.45L271.20654 311.23126L272.15967 311.23126L272.15967 312.16876Q272.51904 311.5125 272.81592 311.3094Q273.12842 311.09064 273.50342 311.09064Q274.03467 311.09064 274.58154 311.41876L274.22217 312.40314Q273.83154 312.16876 273.45654 312.16876Q273.09717 312.16876 272.81592 312.3875Q272.5503 312.59064 272.44092 312.96564Q272.25342 313.52814 272.25342 314.1844L272.25342 317.45L271.20654 317.45ZM279.3003 317.45L279.3003 316.52814Q278.56592 317.59064 277.31592 317.59064Q276.76904 317.59064 276.28467 317.3875Q275.81592 317.16876 275.58154 316.85626Q275.34717 316.52814 275.25342 316.0594Q275.19092 315.7625 275.19092 315.075L275.19092 311.23126L276.25342 311.23126L276.25342 314.6844Q276.25342 315.4969 276.31592 315.79376Q276.40967 316.2 276.72217 316.45Q277.0503 316.6844 277.53467 316.6844Q278.00342 316.6844 278.40967 316.45Q278.83154 316.2 279.00342 315.77814Q279.19092 315.35626 279.19092 314.5594L279.19092 311.23126L280.2378 311.23126L280.2378 317.45L279.3003 317.45ZM282.22217 317.45L282.22217 311.23126L283.15967 311.23126L283.15967 312.10626Q283.84717 311.09064 285.14404 311.09064Q285.70654 311.09064 286.1753 311.29376Q286.65967 311.4969 286.89404 311.825Q287.12842 312.15314 287.22217 312.59064Q287.26904 312.8875 287.26904 313.6219L287.26904 317.45L286.22217 317.45L286.22217 313.66876Q286.22217 313.0125 286.09717 312.7Q285.97217 312.3875 285.65967 312.2Q285.34717 311.9969 284.9253 311.9969Q284.25342 311.9969 283.75342 312.4344Q283.26904 312.85626 283.26904 314.04376L283.26904 317.45L282.22217 317.45Z" fill-rule="nonzero"/><path fill="#000000" d="M380.1372 314.4344L381.2622 314.73126Q380.90283 316.1219 379.98096 316.85626Q379.05908 317.59064 377.71533 317.59064Q376.3247 317.59064 375.4497 317.02814Q374.5747 316.46564 374.12158 315.40314Q373.66846 314.325 373.66846 313.09064Q373.66846 311.7469 374.18408 310.7469Q374.6997 309.7469 375.6372 309.23126Q376.59033 308.71564 377.73096 308.71564Q379.0122 308.71564 379.8872 309.3719Q380.77783 310.02814 381.12158 311.21564L379.99658 311.48126Q379.6997 310.54376 379.12158 310.1219Q378.55908 309.6844 377.6997 309.6844Q376.71533 309.6844 376.04346 310.16876Q375.3872 310.6375 375.10596 311.4344Q374.84033 312.23126 374.84033 313.09064Q374.84033 314.1844 375.15283 314.9969Q375.48096 315.8094 376.15283 316.21564Q376.8247 316.6219 377.62158 316.6219Q378.5747 316.6219 379.23096 316.075Q379.90283 315.52814 380.1372 314.4344ZM382.4497 314.8719L382.4497 313.8094L385.6997 313.8094L385.6997 314.8719L382.4497 314.8719ZM386.85596 317.45L386.85596 311.23126L387.80908 311.23126L387.80908 312.16876Q388.16846 311.5125 388.46533 311.3094Q388.77783 311.09064 389.15283 311.09064Q389.68408 311.09064 390.23096 311.41876L389.87158 312.40314Q389.48096 312.16876 389.10596 312.16876Q388.74658 312.16876 388.46533 312.3875Q388.1997 312.59064 388.09033 312.96564Q387.90283 313.52814 387.90283 314.1844L387.90283 317.45L386.85596 317.45ZM394.9497 317.45L394.9497 316.52814Q394.21533 317.59064 392.96533 317.59064Q392.41846 317.59064 391.93408 317.3875Q391.46533 317.16876 391.23096 316.85626Q390.99658 316.52814 390.90283 316.0594Q390.84033 315.7625 390.84033 315.075L390.84033 311.23126L391.90283 311.23126L391.90283 314.6844Q391.90283 315.4969 391.96533 315.79376Q392.05908 316.2 392.37158 316.45Q392.6997 316.6844 393.18408 316.6844Q393.65283 316.6844 394.05908 316.45Q394.48096 316.2 394.65283 315.77814Q394.84033 315.35626 394.84033 314.5594L394.84033 311.23126L395.8872 311.23126L395.8872 317.45L394.9497 317.45ZM397.87158 317.45L397.87158 311.23126L398.80908 311.23126L398.80908 312.10626Q399.49658 311.09064 400.79346 311.09064Q401.35596 311.09064 401.8247 311.29376Q402.30908 311.4969 402.54346 311.825Q402.77783 312.15314 402.87158 312.59064Q402.91846 312.8875 402.91846 313.6219L402.91846 317.45L401.87158 317.45L401.87158 313.66876Q401.87158 313.0125 401.74658 312.7Q401.62158 312.3875 401.30908 312.2Q400.99658 311.9969 400.5747 311.9969Q399.90283 311.9969 399.40283 312.4344Q398.91846 312.85626 398.91846 314.04376L398.91846 317.45L397.87158 317.45Z" fill-rule="nonzero"/><path fill="#000000" d="M489.14603 317.45L489.14603 308.85626L492.11478 308.85626Q493.11478 308.85626 493.64603 308.98126Q494.3804 309.15314 494.89603 309.59064Q495.58353 310.16876 495.91165 311.075Q496.2554 311.96564 496.2554 313.10626Q496.2554 314.09064 496.02103 314.84064Q495.80228 315.59064 495.4429 316.09064Q495.08353 316.59064 494.64603 316.8719Q494.22415 317.15314 493.6304 317.3094Q493.03665 317.45 492.2554 317.45L489.14603 317.45ZM490.28665 316.4344L492.11478 316.4344Q492.97415 316.4344 493.45853 316.27814Q493.9429 316.1219 494.22415 315.825Q494.6304 315.4344 494.84915 314.7469Q495.08353 314.0594 495.08353 313.09064Q495.08353 311.7469 494.6304 311.02814Q494.1929 310.29376 493.5679 310.04376Q493.09915 309.8719 492.09915 309.8719L490.28665 309.8719L490.28665 316.4344ZM497.59915 314.8719L497.59915 313.8094L500.84915 313.8094L500.84915 314.8719L497.59915 314.8719ZM502.0054 317.45L502.0054 311.23126L502.95853 311.23126L502.95853 312.16876Q503.3179 311.5125 503.61478 311.3094Q503.92728 311.09064 504.30228 311.09064Q504.83353 311.09064 505.3804 311.41876L505.02103 312.40314Q504.6304 312.16876 504.2554 312.16876Q503.89603 312.16876 503.61478 312.3875Q503.34915 312.59064 503.23978 312.96564Q503.05228 313.52814 503.05228 314.1844L503.05228 317.45L502.0054 317.45ZM510.09915 317.45L510.09915 316.52814Q509.36478 317.59064 508.11478 317.59064Q507.5679 317.59064 507.08353 317.3875Q506.61478 317.16876 506.3804 316.85626Q506.14603 316.52814 506.05228 316.0594Q505.98978 315.7625 505.98978 315.075L505.98978 311.23126L507.05228 311.23126L507.05228 314.6844Q507.05228 315.4969 507.11478 315.79376Q507.20853 316.2 507.52103 316.45Q507.84915 316.6844 508.33353 316.6844Q508.80228 316.6844 509.20853 316.45Q509.6304 316.2 509.80228 315.77814Q509.98978 315.35626 509.98978 314.5594L509.98978 311.23126L511.03665 311.23126L511.03665 317.45L510.09915 317.45ZM513.021 317.45L513.021 311.23126L513.9585 311.23126L513.9585 312.10626Q514.646 311.09064 515.9429 311.09064Q516.5054 311.09064 516.9741 311.29376Q517.4585 311.4969 517.6929 311.825Q517.92725 312.15314 518.021 312.59064Q518.0679 312.8875 518.0679 313.6219L518.0679 317.45L517.021 317.45L517.021 313.66876Q517.021 313.0125 516.896 312.7Q516.771 312.3875 516.4585 312.2Q516.146 311.9969 515.7241 311.9969Q515.05225 311.9969 514.55225 312.4344Q514.0679 312.85626 514.0679 314.04376L514.0679 317.45L513.021 317.45Z" fill-rule="nonzero"/><path fill="#4285f4" d="M160.5 20.55C160.5 19.997715 160.94771 19.55 161.5 19.55L171.5 19.55C172.05229 19.55 172.5 19.997715 172.5 20.55L172.5 30.55C172.5 31.102285 172.05229 31.55 171.5 31.55L161.5 31.55C160.94771 31.55 160.5 31.102285 160.5 30.55Z" fill-rule="nonzero"/><path fill="#1a1a1a" d="M181.39062 29.55L181.39062 20.95625L183.10938 20.95625L185.14062 27.034374Q185.42188 27.89375 185.54688 28.315624Q185.6875 27.846874 186.0 26.940624L188.0625 20.95625L189.59375 20.95625L189.59375 29.55L188.5 29.55L188.5 22.3625L186.0 29.55L184.96875 29.55L182.48438 22.2375L182.48438 29.55L181.39062 29.55ZM194.54688 27.55L195.64062 27.675Q195.39062 28.628124 194.6875 29.159374Q193.98438 29.690624 192.90625 29.690624Q191.54688 29.690624 190.73438 28.846874Q189.9375 28.003124 189.9375 26.4875Q189.9375 24.925 190.75 24.065624Q191.5625 23.190624 192.84375 23.190624Q194.09375 23.190624 194.875 24.034374Q195.67188 24.878124 195.67188 26.425Q195.67188 26.51875 195.67188 26.70625L191.03125 26.70625Q191.09375 27.7375 191.60938 28.284374Q192.125 28.815624 192.90625 28.815624Q193.48438 28.815624 193.89062 28.51875Q194.3125 28.20625 194.54688 27.55ZM191.09375 25.846874L194.5625 25.846874Q194.5 25.05 194.17188 24.659374Q193.65625 24.05 192.85938 24.05Q192.125 24.05 191.625 24.534374Q191.14062 25.01875 191.09375 25.846874ZM197.29688 29.55L197.29688 23.33125L198.23438 23.33125L198.23438 24.20625Q198.53125 23.7375 199.01562 23.471874Q199.5 23.190624 200.125 23.190624Q200.8125 23.190624 201.25 23.471874Q201.70312 23.753124 201.875 24.26875Q202.625 23.190624 203.79688 23.190624Q204.73438 23.190624 205.21875 23.70625Q205.71875 24.20625 205.71875 25.284374L205.71875 29.55L204.67188 29.55L204.67188 25.628124Q204.67188 25.003124 204.5625 24.721874Q204.46875 24.440624 204.20312 24.26875Q203.9375 24.096874 203.5625 24.096874Q202.90625 24.096874 202.46875 24.534374Q202.04688 24.971874 202.04688 25.940624L202.04688 29.55L200.98438 29.55L200.98438 25.503124Q200.98438 24.8 200.71875 24.45625Q200.46875 24.096874 199.89062 24.096874Q199.4375 24.096874 199.0625 24.33125Q198.6875 24.565624 198.51562 25.01875Q198.34375 25.471874 198.34375 26.315624L198.34375 29.55L197.29688 29.55ZM212.35938 27.26875L213.39062 27.409374Q213.21875 28.471874 212.51562 29.08125Q211.8125 29.690624 210.79688 29.690624Q209.51562 29.690624 208.73438 28.8625Q207.96875 28.01875 207.96875 26.45625Q207.96875 25.45625 208.29688 24.70625Q208.64062 23.940624 209.3125 23.565624Q210.0 23.190624 210.8125 23.190624Q211.8125 23.190624 212.45312 23.70625Q213.10938 24.20625 213.29688 25.159374L212.26562 25.315624Q212.125 24.690624 211.75 24.378124Q211.375 24.05 210.84375 24.05Q210.04688 24.05 209.54688 24.628124Q209.04688 25.190624 209.04688 26.425Q209.04688 27.690624 209.53125 28.253124Q210.01562 28.815624 210.78125 28.815624Q211.40625 28.815624 211.8125 28.440624Q212.23438 28.065624 212.35938 27.26875ZM218.35938 28.784374Q217.76562 29.284374 217.21875 29.4875Q216.6875 29.690624 216.0625 29.690624Q215.03125 29.690624 214.48438 29.190624Q213.9375 28.690624 213.9375 27.909374Q213.9375 27.45625 214.14062 27.08125Q214.34375 26.690624 214.6875 26.471874Q215.03125 26.2375 215.45312 26.128124Q215.75 26.034374 216.39062 25.95625Q217.65625 25.815624 218.26562 25.596874Q218.26562 25.378124 218.26562 25.33125Q218.26562 24.675 217.96875 24.409374Q217.5625 24.065624 216.76562 24.065624Q216.03125 24.065624 215.67188 24.33125Q215.3125 24.58125 215.14062 25.2375L214.10938 25.096874Q214.25 24.440624 214.57812 24.034374Q214.90625 23.628124 215.51562 23.409374Q216.125 23.190624 216.92188 23.190624Q217.71875 23.190624 218.21875 23.378124Q218.71875 23.565624 218.95312 23.846874Q219.1875 24.128124 219.28125 24.565624Q219.32812 24.83125 219.32812 25.534374L219.32812 26.940624Q219.32812 28.409374 219.39062 28.8Q219.46875 29.190624 219.67188 29.55L218.5625 29.55Q218.40625 29.221874 218.35938 28.784374ZM218.26562 26.425Q217.6875 26.659374 216.54688 26.83125Q215.89062 26.925 215.625 27.05Q215.35938 27.159374 215.20312 27.378124Q215.0625 27.596874 215.0625 27.878124Q215.0625 28.3 215.375 28.58125Q215.70312 28.8625 216.3125 28.8625Q216.92188 28.8625 217.39062 28.596874Q217.875 28.33125 218.09375 27.8625Q218.26562 27.503124 218.26562 26.815624L218.26562 26.425ZM225.35938 27.26875L226.39062 27.409374Q226.21875 28.471874 225.51562 29.08125Q224.8125 29.690624 223.79688 29.690624Q222.51562 29.690624 221.73438 28.8625Q220.96875 28.01875 220.96875 26.45625Q220.96875 25.45625 221.29688 24.70625Q221.64062 23.940624 222.3125 23.565624Q223.0 23.190624 223.8125 23.190624Q224.8125 23.190624 225.45312 23.70625Q226.10938 24.20625 226.29688 25.159374L225.26562 25.315624Q225.125 24.690624 224.75 24.378124Q224.375 24.05 223.84375 24.05Q223.04688 24.05 222.54688 24.628124Q222.04688 25.190624 222.04688 26.425Q222.04688 27.690624 222.53125 28.253124Q223.01562 28.815624 223.78125 28.815624Q224.40625 28.815624 224.8125 28.440624Q225.23438 28.065624 225.35938 27.26875ZM227.29688 29.55L227.29688 20.95625L228.34375 20.95625L228.34375 24.034374Q229.07812 23.190624 230.20312 23.190624Q230.90625 23.190624 231.40625 23.471874Q231.92188 23.7375 232.14062 24.221874Q232.35938 24.690624 232.35938 25.6125L232.35938 29.55L231.3125 29.55L231.3125 25.6125Q231.3125 24.815624 230.96875 24.45625Q230.625 24.096874 230.0 24.096874Q229.53125 24.096874 229.10938 24.346874Q228.70312 24.58125 228.51562 25.003124Q228.34375 25.409374 228.34375 26.14375L228.34375 29.55L227.29688 29.55ZM238.54688 27.55L239.64062 27.675Q239.39062 28.628124 238.6875 29.159374Q237.98438 29.690624 236.90625 29.690624Q235.54688 29.690624 234.73438 28.846874Q233.9375 28.003124 233.9375 26.4875Q233.9375 24.925 234.75 24.065624Q235.5625 23.190624 236.84375 23.190624Q238.09375 23.190624 238.875 24.034374Q239.67188 24.878124 239.67188 26.425Q239.67188 26.51875 239.67188 26.70625L235.03125 26.70625Q235.09375 27.7375 235.60938 28.284374Q236.125 28.815624 236.90625 28.815624Q237.48438 28.815624 237.89062 28.51875Q238.3125 28.20625 238.54688 27.55ZM235.09375 25.846874L238.5625 25.846874Q238.5 25.05 238.17188 24.659374Q237.65625 24.05 236.85938 24.05Q236.125 24.05 235.625 24.534374Q235.14062 25.01875 235.09375 25.846874ZM245.32812 29.55L245.32812 28.76875Q244.73438 29.690624 243.59375 29.690624Q242.84375 29.690624 242.21875 29.284374Q241.59375 28.8625 241.25 28.128124Q240.90625 27.39375 240.90625 26.440624Q240.90625 25.51875 241.21875 24.753124Q241.53125 23.9875 242.15625 23.596874Q242.78125 23.190624 243.54688 23.190624Q244.10938 23.190624 244.54688 23.425Q244.98438 23.659374 245.26562 24.034374L245.26562 20.95625L246.3125 20.95625L246.3125 29.55L245.32812 29.55ZM242.0 26.440624Q242.0 27.64375 242.5 28.2375Q243.0 28.815624 243.6875 28.815624Q244.375 28.815624 244.85938 28.253124Q245.34375 27.690624 245.34375 26.534374Q245.34375 25.253124 244.84375 24.659374Q244.35938 24.065624 243.64062 24.065624Q242.9375 24.065624 242.46875 24.64375Q242.0 25.20625 242.0 26.440624Z" fill-rule="nonzero"/><path fill="#ea4335" d="M263.5 20.55C263.5 19.997715 263.94772 19.55 264.5 19.55L274.5 19.55C275.05228 19.55 275.5 19.997715 275.5 20.55L275.5 30.55C275.5 31.102285 275.05228 31.55 274.5 31.55L264.5 31.55C263.94772 31.55 263.5 31.102285 263.5 30.55Z" fill-rule="nonzero"/><path fill="#1a1a1a" d="M284.4375 29.55L284.4375 20.95625L288.25 20.95625Q289.40625 20.95625 290.0 21.190624Q290.59375 21.425 290.95312 22.01875Q291.3125 22.596874 291.3125 23.3Q291.3125 24.221874 290.71875 24.846874Q290.125 25.471874 288.89062 25.64375Q289.34375 25.8625 289.57812 26.065624Q290.07812 26.51875 290.51562 27.20625L292.01562 29.55L290.57812 29.55L289.45312 27.76875Q288.95312 26.9875 288.625 26.58125Q288.3125 26.175 288.04688 26.01875Q287.79688 25.846874 287.53125 25.76875Q287.34375 25.7375 286.90625 25.7375L285.57812 25.7375L285.57812 29.55L284.4375 29.55ZM285.57812 24.753124L288.03125 24.753124Q288.79688 24.753124 289.23438 24.596874Q289.6875 24.425 289.90625 24.08125Q290.14062 23.721874 290.14062 23.3Q290.14062 22.690624 289.6875 22.3Q289.25 21.909374 288.29688 21.909374L285.57812 21.909374L285.57812 24.753124ZM292.90625 26.440624Q292.90625 24.70625 293.85938 23.878124Q294.65625 23.190624 295.8125 23.190624Q297.09375 23.190624 297.90625 24.034374Q298.73438 24.8625 298.73438 26.346874Q298.73438 27.55 298.375 28.2375Q298.01562 28.925 297.3125 29.315624Q296.625 29.690624 295.8125 29.690624Q294.51562 29.690624 293.70312 28.8625Q292.90625 28.01875 292.90625 26.440624ZM293.98438 26.440624Q293.98438 27.628124 294.5 28.221874Q295.03125 28.815624 295.8125 28.815624Q296.60938 28.815624 297.125 28.221874Q297.64062 27.628124 297.64062 26.409374Q297.64062 25.253124 297.10938 24.659374Q296.59375 24.065624 295.8125 24.065624Q295.03125 24.065624 294.5 24.659374Q293.98438 25.2375 293.98438 26.440624ZM304.35938 27.26875L305.39062 27.409374Q305.21875 28.471874 304.51562 29.08125Q303.8125 29.690624 302.79688 29.690624Q301.51562 29.690624 300.73438 28.8625Q299.96875 28.01875 299.96875 26.45625Q299.96875 25.45625 300.29688 24.70625Q300.64062 23.940624 301.3125 23.565624Q302.0 23.190624 302.8125 23.190624Q303.8125 23.190624 304.45312 23.70625Q305.10938 24.20625 305.29688 25.159374L304.26562 25.315624Q304.125 24.690624 303.75 24.378124Q303.375 24.05 302.84375 24.05Q302.04688 24.05 301.54688 24.628124Q301.04688 25.190624 301.04688 26.425Q301.04688 27.690624 301.53125 28.253124Q302.01562 28.815624 302.78125 28.815624Q303.40625 28.815624 303.8125 28.440624Q304.23438 28.065624 304.35938 27.26875ZM306.29688 29.55L306.29688 20.95625L307.35938 20.95625L307.35938 25.8625L309.84375 23.33125L311.21875 23.33125L308.82812 25.628124L311.45312 29.55L310.15625 29.55L308.09375 26.3625L307.35938 27.08125L307.35938 29.55L306.29688 29.55ZM311.875 27.690624L312.90625 27.534374Q313.0 28.159374 313.39062 28.4875Q313.79688 28.815624 314.53125 28.815624Q315.25 28.815624 315.59375 28.534374Q315.95312 28.2375 315.95312 27.83125Q315.95312 27.471874 315.64062 27.26875Q315.42188 27.128124 314.5625 26.909374Q313.40625 26.6125 312.95312 26.409374Q312.51562 26.190624 312.28125 25.815624Q312.04688 25.440624 312.04688 24.971874Q312.04688 24.565624 312.23438 24.20625Q312.42188 23.846874 312.75 23.6125Q313.0 23.440624 313.42188 23.315624Q313.84375 23.190624 314.34375 23.190624Q315.0625 23.190624 315.60938 23.409374Q316.17188 23.6125 316.4375 23.971874Q316.70312 24.33125 316.79688 24.925L315.76562 25.065624Q315.70312 24.596874 315.35938 24.33125Q315.03125 24.05 314.40625 24.05Q313.6875 24.05 313.375 24.3Q313.0625 24.534374 313.0625 24.8625Q313.0625 25.065624 313.1875 25.221874Q313.32812 25.39375 313.59375 25.503124Q313.75 25.565624 314.53125 25.76875Q315.65625 26.08125 316.09375 26.26875Q316.53125 26.45625 316.78125 26.815624Q317.03125 27.175 317.03125 27.721874Q317.03125 28.253124 316.71875 28.721874Q316.42188 29.175 315.84375 29.440624Q315.26562 29.690624 314.53125 29.690624Q313.3125 29.690624 312.67188 29.190624Q312.04688 28.675 311.875 27.690624ZM319.42188 29.55L319.42188 20.95625L322.39062 20.95625Q323.39062 20.95625 323.92188 21.08125Q324.65625 21.253124 325.17188 21.690624Q325.85938 22.26875 326.1875 23.175Q326.53125 24.065624 326.53125 25.20625Q326.53125 26.190624 326.29688 26.940624Q326.07812 27.690624 325.71875 28.190624Q325.35938 28.690624 324.92188 28.971874Q324.5 29.253124 323.90625 29.409374Q323.3125 29.55 322.53125 29.55L319.42188 29.55ZM320.5625 28.534374L322.39062 28.534374Q323.25 28.534374 323.73438 28.378124Q324.21875 28.221874 324.5 27.925Q324.90625 27.534374 325.125 26.846874Q325.35938 26.159374 325.35938 25.190624Q325.35938 23.846874 324.90625 23.128124Q324.46875 22.39375 323.84375 22.14375Q323.375 21.971874 322.375 21.971874L320.5625 21.971874L320.5625 28.534374ZM328.375 29.55L328.375 20.95625L331.60938 20.95625Q332.59375 20.95625 333.1875 21.221874Q333.78125 21.4875 334.10938 22.034374Q334.45312 22.565624 334.45312 23.159374Q334.45312 23.70625 334.15625 24.190624Q333.85938 24.675 333.25 24.971874Q334.03125 25.20625 334.4375 25.76875Q334.85938 26.315624 334.85938 27.065624Q334.85938 27.659374 334.60938 28.190624Q334.35938 28.70625 333.98438 28.9875Q333.60938 29.26875 333.03125 29.409374Q332.46875 29.55 331.65625 29.55L328.375 29.55ZM329.51562 24.565624L331.375 24.565624Q332.125 24.565624 332.45312 24.471874Q332.89062 24.346874 333.10938 24.05Q333.32812 23.7375 333.32812 23.284374Q333.32812 22.8625 333.125 22.534374Q332.92188 22.20625 332.53125 22.096874Q332.15625 21.971874 331.23438 21.971874L329.51562 21.971874L329.51562 24.565624ZM329.51562 28.534374L331.65625 28.534374Q332.20312 28.534374 332.42188 28.4875Q332.82812 28.425 333.07812 28.26875Q333.34375 28.096874 333.51562 27.784374Q333.6875 27.471874 333.6875 27.065624Q333.6875 26.58125 333.4375 26.221874Q333.20312 25.8625 332.76562 25.721874Q332.32812 25.58125 331.5 25.58125L329.51562 25.58125L329.51562 28.534374Z" fill-rule="nonzero"/><path fill="#fbbc04" d="M351.5 20.55C351.5 19.997715 351.94772 19.55 352.5 19.55L362.5 19.55C363.05228 19.55 363.5 19.997715 363.5 20.55L363.5 30.55C363.5 31.102285 363.05228 31.55 362.5 31.55L352.5 31.55C351.94772 31.55 351.5 31.102285 351.5 30.55Z" fill-rule="nonzero"/><path fill="#1a1a1a" d="M372.46875 29.55L372.46875 20.95625L373.59375 20.95625L373.59375 24.4875L378.0625 24.4875L378.0625 20.95625L379.20312 20.95625L379.20312 29.55L378.0625 29.55L378.0625 25.503124L373.59375 25.503124L373.59375 29.55L372.46875 29.55ZM385.54688 27.55L386.64062 27.675Q386.39062 28.628124 385.6875 29.159374Q384.98438 29.690624 383.90625 29.690624Q382.54688 29.690624 381.73438 28.846874Q380.9375 28.003124 380.9375 26.4875Q380.9375 24.925 381.75 24.065624Q382.5625 23.190624 383.84375 23.190624Q385.09375 23.190624 385.875 24.034374Q386.67188 24.878124 386.67188 26.425Q386.67188 26.51875 386.67188 26.70625L382.03125 26.70625Q382.09375 27.7375 382.60938 28.284374Q383.125 28.815624 383.90625 28.815624Q384.48438 28.815624 384.89062 28.51875Q385.3125 28.20625 385.54688 27.55ZM382.09375 25.846874L385.5625 25.846874Q385.5 25.05 385.17188 24.659374Q384.65625 24.05 383.85938 24.05Q383.125 24.05 382.625 24.534374Q382.14062 25.01875 382.09375 25.846874ZM388.28125 29.55L388.28125 23.33125L389.23438 23.33125L389.23438 24.26875Q389.59375 23.6125 389.89062 23.409374Q390.20312 23.190624 390.57812 23.190624Q391.10938 23.190624 391.65625 23.51875L391.29688 24.503124Q390.90625 24.26875 390.53125 24.26875Q390.17188 24.26875 389.89062 24.4875Q389.625 24.690624 389.51562 25.065624Q389.32812 25.628124 389.32812 26.284374L389.32812 29.55L388.28125 29.55ZM392.29688 29.55L392.29688 23.33125L393.23438 23.33125L393.23438 24.20625Q393.53125 23.7375 394.01562 23.471874Q394.5 23.190624 395.125 23.190624Q395.8125 23.190624 396.25 23.471874Q396.70312 23.753124 396.875 24.26875Q397.625 23.190624 398.79688 23.190624Q399.73438 23.190624 400.21875 23.70625Q400.71875 24.20625 400.71875 25.284374L400.71875 29.55L399.67188 29.55L399.67188 25.628124Q399.67188 25.003124 399.5625 24.721874Q399.46875 24.440624 399.20312 24.26875Q398.9375 24.096874 398.5625 24.096874Q397.90625 24.096874 397.46875 24.534374Q397.04688 24.971874 397.04688 25.940624L397.04688 29.55L395.98438 29.55L395.98438 25.503124Q395.98438 24.8 395.71875 24.45625Q395.46875 24.096874 394.89062 24.096874Q394.4375 24.096874 394.0625 24.33125Q393.6875 24.565624 393.51562 25.01875Q393.34375 25.471874 393.34375 26.315624L393.34375 29.55L392.29688 29.55ZM407.54688 27.55L408.64062 27.675Q408.39062 28.628124 407.6875 29.159374Q406.98438 29.690624 405.90625 29.690624Q404.54688 29.690624 403.73438 28.846874Q402.9375 28.003124 402.9375 26.4875Q402.9375 24.925 403.75 24.065624Q404.5625 23.190624 405.84375 23.190624Q407.09375 23.190624 407.875 24.034374Q408.67188 24.878124 408.67188 26.425Q408.67188 26.51875 408.67188 26.70625L404.03125 26.70625Q404.09375 27.7375 404.60938 28.284374Q405.125 28.815624 405.90625 28.815624Q406.48438 28.815624 406.89062 28.51875Q407.3125 28.20625 407.54688 27.55ZM404.09375 25.846874L407.5625 25.846874Q407.5 25.05 407.17188 24.659374Q406.65625 24.05 405.85938 24.05Q405.125 24.05 404.625 24.534374Q404.14062 25.01875 404.09375 25.846874ZM409.875 27.690624L410.90625 27.534374Q411.0 28.159374 411.39062 28.4875Q411.79688 28.815624 412.53125 28.815624Q413.25 28.815624 413.59375 28.534374Q413.95312 28.2375 413.95312 27.83125Q413.95312 27.471874 413.64062 27.26875Q413.42188 27.128124 412.5625 26.909374Q411.40625 26.6125 410.95312 26.409374Q410.51562 26.190624 410.28125 25.815624Q410.04688 25.440624 410.04688 24.971874Q410.04688 24.565624 410.23438 24.20625Q410.42188 23.846874 410.75 23.6125Q411.0 23.440624 411.42188 23.315624Q411.84375 23.190624 412.34375 23.190624Q413.0625 23.190624 413.60938 23.409374Q414.17188 23.6125 414.4375 23.971874Q414.70312 24.33125 414.79688 24.925L413.76562 25.065624Q413.70312 24.596874 413.35938 24.33125Q413.03125 24.05 412.40625 24.05Q411.6875 24.05 411.375 24.3Q411.0625 24.534374 411.0625 24.8625Q411.0625 25.065624 411.1875 25.221874Q411.32812 25.39375 411.59375 25.503124Q411.75 25.565624 412.53125 25.76875Q413.65625 26.08125 414.09375 26.26875Q414.53125 26.45625 414.78125 26.815624Q415.03125 27.175 415.03125 27.721874Q415.03125 28.253124 414.71875 28.721874Q414.42188 29.175 413.84375 29.440624Q413.26562 29.690624 412.53125 29.690624Q411.3125 29.690624 410.67188 29.190624Q410.04688 28.675 409.875 27.690624ZM417.375 29.55L417.375 20.95625L418.51562 20.95625L418.51562 25.221874L422.78125 20.95625L424.32812 20.95625L420.71875 24.440624L424.48438 29.55L422.98438 29.55L419.92188 25.20625L418.51562 26.565624L418.51562 29.55L417.375 29.55ZM427.875 29.55L424.54688 20.95625L425.78125 20.95625L428.01562 27.20625Q428.28125 27.95625 428.46875 28.6125Q428.67188 27.909374 428.9375 27.20625L431.25 20.95625L432.40625 20.95625L429.04688 29.55L427.875 29.55ZM432.04688 26.784374L433.10938 26.690624Q433.1875 27.346874 433.46875 27.753124Q433.75 28.159374 434.32812 28.425Q434.92188 28.675 435.65625 28.675Q436.29688 28.675 436.79688 28.4875Q437.29688 28.284374 437.53125 27.95625Q437.78125 27.6125 437.78125 27.221874Q437.78125 26.815624 437.54688 26.51875Q437.3125 26.20625 436.78125 26.003124Q436.42188 25.8625 435.23438 25.58125Q434.0625 25.3 433.59375 25.05Q432.96875 24.721874 432.67188 24.253124Q432.375 23.76875 432.375 23.175Q432.375 22.534374 432.73438 21.971874Q433.10938 21.39375 433.8125 21.1125Q434.53125 20.815624 435.39062 20.815624Q436.34375 20.815624 437.07812 21.128124Q437.8125 21.425 438.20312 22.034374Q438.59375 22.628124 438.625 23.378124L437.53125 23.45625Q437.4375 22.64375 436.92188 22.2375Q436.42188 21.815624 435.4375 21.815624Q434.40625 21.815624 433.9375 22.190624Q433.46875 22.565624 433.46875 23.096874Q433.46875 23.565624 433.79688 23.8625Q434.125 24.159374 435.5 24.471874Q436.89062 24.784374 437.40625 25.01875Q438.15625 25.378124 438.51562 25.909374Q438.875 26.425 438.875 27.128124Q438.875 27.815624 438.48438 28.425Q438.09375 29.01875 437.35938 29.3625Q436.625 29.690624 435.70312 29.690624Q434.53125 29.690624 433.73438 29.3625Q432.95312 29.01875 432.5 28.33125Q432.0625 27.64375 432.04688 26.784374Z" fill-rule="nonzero"/></svg>