<svg version="1.1" viewBox="0.0 0.0 449.59580052493436 376.24146981627297" fill="none" stroke="none" stroke-linecap="square" stroke-miterlimit="10" xmlns:xlink="http://www.w3.org/1999/xlink" xmlns="http://www.w3.org/2000/svg"><clipPath id="p.0"><path d="m0 0l449.5958 0l0 376.24146l-449.5958 0l0 -376.24146z" clip-rule="nonzero"/></clipPath><g clip-path="url(#p.0)"><path fill="#000000" fill-opacity="0.0" d="m0 0l449.5958 0l0 376.24146l-449.5958 0z" fill-rule="evenodd"/><path fill="#538e1c" d="m0.9765349 173.85579l0 0c0 -3.6078186 2.9247258 -6.532547 6.532558 -6.532547l19.438822 0l0 0c1.732542 0 3.394123 0.6882477 4.619215 1.9133453c1.2250919 1.2250824 1.9133434 2.886673 1.9133434 4.6192017l0 1.6435547l0 0c0 3.6078339 -2.9247265 6.5325623 -6.5325584 6.5325623l-19.438822 0c-3.6078322 0 -6.532558 -2.9247284 -6.532558 -6.5325623z" fill-rule="evenodd"/><path fill="#538e1c" d="m0.9765349 214.52246l0 0c0 -3.6078339 2.9247258 -6.5325623 6.532558 -6.5325623l57.895515 0c1.7325363 0 3.3941193 0.68826294 4.619217 1.9133453c1.22509 1.2250977 1.9133377 2.886673 1.9133377 4.619217l0 1.6435547l0 0c0 3.6078186 -2.9247284 6.532547 -6.5325546 6.532547l-57.895515 0c-3.6078322 0 -6.532558 -2.9247284 -6.532558 -6.532547z" fill-rule="evenodd"/><path fill="#538e1c" d="m63.249905 222.87134l0 0c-3.831871 0 -6.938221 -3.1063385 -6.938221 -6.938217l0 -44.170807c0 -1.8401184 0.73099136 -3.604889 2.032158 -4.9060516c1.3011703 -1.301178 3.0659332 -2.0321655 4.906063 -2.0321655l1.7456093 0c3.831871 0 6.938217 3.1063538 6.938217 6.938217l0 44.170807c0 3.8318787 -3.1063461 6.938217 -6.938217 6.938217z" fill-rule="evenodd"/><path fill="#538e1c" d="m56.312492 134.4098l0 0c0 -2.7469025 2.2268028 -4.973709 4.9737015 -4.973709l18.115593 0l0 0c1.319107 0 2.5841827 0.52401733 3.5169373 1.4567719c0.9327469 0.93273926 1.4567642 2.1978302 1.4567642 3.5169373l0 9.485672c0 2.7468872 -2.2268066 4.973694 -4.9737015 4.973694l-18.115593 0c-2.7468987 0 -4.9737015 -2.2268066 -4.9737015 -4.973694z" fill-rule="evenodd"/><path fill="#538e1c" d="m56.312492 235.28119l0 0c0 -2.7469025 2.2268028 -4.973694 4.9737015 -4.973694l18.115593 0l0 0c1.319107 0 2.5841827 0.5240021 3.5169373 1.4567566c0.9327469 0.9327545 1.4567642 2.1978302 1.4567642 3.5169373l0 9.485672c0 2.7469025 -2.2268066 4.973694 -4.9737015 4.973694l-18.115593 0c-2.7468987 0 -4.9737015 -2.2267914 -4.9737015 -4.973694z" fill-rule="evenodd"/><path fill="#538e1c" d="m89.177444 130.41002l0 0c30.262207 0.077941895 54.738205 26.763412 54.672974 59.608368c-0.06523132 32.84494 -24.647003 59.41565 -54.909233 59.35199l0.034988403 -19.595383c19.441536 0.044555664 35.23513 -17.770859 35.278877 -39.79509c0.04373932 -22.024231 -15.678932 -39.919968 -35.120445 -39.974518z" fill-rule="evenodd"/><path fill="#538e1c" d="m59.068398 55.947937l0 0c0 -2.1236305 1.7215424 -3.845169 3.845173 -3.845169l14.860836 0l0 0c1.0198059 0 1.9978409 0.40511322 2.7189484 1.1262245c0.7211075 0.7211075 1.1262283 1.6991425 1.1262283 2.7189445l0 13.695488c0 2.1236267 -1.7215424 3.845169 -3.8451767 3.845169l-14.860836 0c-2.1236305 0 -3.845173 -1.7215424 -3.845173 -3.845169z" fill-rule="evenodd"/><path fill="#538e1c" d="m252.05133 55.947937l0 0c0 -2.1236305 1.7215424 -3.845169 3.8451843 -3.845169l14.86084 0l0 0c1.0198059 0 1.9978333 0.40511322 2.718933 1.1262245c0.7211304 0.7211075 1.1262207 1.6991425 1.1262207 2.7189445l0 13.695488c0 2.1236267 -1.7215271 3.845169 -3.8451538 3.845169l-14.86084 0c-2.123642 0 -3.8451843 -1.7215424 -3.8451843 -3.845169z" fill-rule="evenodd"/><path fill="#538e1c" d="m357.75082 55.947937l0 0c0 -2.1236305 1.7215271 -3.845169 3.8451538 -3.845169l14.86084 0l0 0c1.0198059 0 1.9978333 0.40511322 2.7189636 1.1262245c0.72109985 0.7211075 1.1262207 1.6991425 1.1262207 2.7189445l0 13.695488c0 2.1236267 -1.7215576 3.845169 -3.8451843 3.845169l-14.86084 0c-2.1236267 0 -3.8451538 -1.7215424 -3.8451538 -3.845169z" fill-rule="evenodd"/><path fill="#538e1c" d="m242.55673 46.30749l0 0c-3.9863892 0 -7.217987 -3.2316017 -7.217987 -7.217987l0 -29.941978l0 0c0 -1.914329 0.7604523 -3.7502522 2.11409 -5.1038876c1.3536377 -1.3536348 3.18956 -2.1140993 5.103897 -2.1140993l1.8159943 0l0 0c3.986374 0 7.217987 3.231603 7.217987 7.217987l0 29.941978c0 3.9863853 -3.2316132 7.217987 -7.217987 7.217987z" fill-rule="evenodd"/><path fill="#538e1c" d="m281.3651 46.30749l0 0c-3.9863586 0 -7.217987 -3.2316017 -7.217987 -7.217987l0 -29.941978l0 0c0 -1.914329 0.7604675 -3.7502522 2.1141052 -5.1038876c1.3536377 -1.3536348 3.1895752 -2.1140993 5.103882 -2.1140993l1.8160095 0l0 0c3.9863892 0 7.217987 3.231603 7.217987 7.217987l0 29.941978c0 3.9863853 -3.231598 7.217987 -7.217987 7.217987z" fill-rule="evenodd"/><path fill="#538e1c" d="m242.55936 375.3836l0 0c-3.9863892 0 -7.217987 -3.231598 -7.217987 -7.217987l0 -29.941986l0 0c0 -1.9143066 0.7604523 -3.7502441 2.11409 -5.103882c1.3536377 -1.3536377 3.18956 -2.1141052 5.103897 -2.1141052l1.8159943 0l0 0c3.986374 0 7.217987 3.231598 7.217987 7.217987l0 29.941986c0 3.9863892 -3.2316132 7.217987 -7.217987 7.217987z" fill-rule="evenodd"/><path fill="#538e1c" d="m281.36774 375.3836l0 0c-3.9863586 0 -7.217987 -3.231598 -7.217987 -7.217987l0 -29.941986l0 0c0 -1.9143066 0.7604675 -3.7502441 2.1141052 -5.103882c1.3536377 -1.3536377 3.1895752 -2.1141052 5.103882 -2.1141052l1.8160095 0l0 0c3.9863892 0 7.217987 3.231598 7.217987 7.217987l0 29.941986c0 3.9863892 -3.231598 7.217987 -7.217987 7.217987z" fill-rule="evenodd"/><path fill="#538e1c" d="m59.068398 308.6146l0 0c0 -2.1236267 1.7215424 -3.8451538 3.845173 -3.8451538l14.860836 0l0 0c1.0198059 0 1.9978409 0.40512085 2.7189484 1.1262207c0.7211075 0.72109985 1.1262283 1.6991272 1.1262283 2.718933l0 13.695496c0 2.1236267 -1.7215424 3.8451843 -3.8451767 3.8451843l-14.860836 0c-2.1236305 0 -3.845173 -1.7215576 -3.845173 -3.8451843z" fill-rule="evenodd"/><path fill="#538e1c" d="m252.05133 308.6146l0 0c0 -2.1236267 1.7215424 -3.8451538 3.8451843 -3.8451538l14.86084 0l0 0c1.0198059 0 1.9978333 0.40512085 2.718933 1.1262207c0.7211304 0.72109985 1.1262207 1.6991272 1.1262207 2.718933l0 13.695496c0 2.1236267 -1.7215271 3.8451843 -3.8451538 3.8451843l-14.86084 0c-2.123642 0 -3.8451843 -1.7215576 -3.8451843 -3.8451843z" fill-rule="evenodd"/><path fill="#538e1c" d="m357.75082 308.6146l0 0c0 -2.1236267 1.7215271 -3.8451538 3.8451538 -3.8451538l14.86084 0l0 0c1.0198059 0 1.9978333 0.40512085 2.7189636 1.1262207c0.72109985 0.72109985 1.1262207 1.6991272 1.1262207 2.718933l0 13.695496c0 2.1236267 -1.7215576 3.8451843 -3.8451843 3.8451843l-14.86084 0c-2.1236267 0 -3.8451538 -1.7215576 -3.8451538 -3.8451843z" fill-rule="evenodd"/><path fill="#538e1c" d="m179.59596 148.69627l0 0c0 -2.0266724 1.6429443 -3.6696167 3.6696167 -3.6696167l13.070206 0l0 0c0.97325134 0 1.9066315 0.38661194 2.594818 1.0747986c0.68818665 0.68818665 1.0747986 1.6215668 1.0747986 2.594818l0 97.00722c0 2.0266724 -1.6429443 3.6696167 -3.6696167 3.6696167l-13.070206 0c-2.0266724 0 -3.6696167 -1.6429443 -3.6696167 -3.6696167z" fill-rule="evenodd"/><path fill="#538e1c" d="m172.95587 149.35736l0 0c-2.0266876 0 -3.669632 -1.6429443 -3.669632 -3.6696167l0 -13.070221l0 0c0 -0.9732361 0.3866272 -1.9066162 1.0748138 -2.5948029c0.68818665 -0.68818665 1.6215668 -1.0748138 2.594818 -1.0748138l55.999344 0c2.0266724 0 3.6696167 1.6429443 3.6696167 3.6696167l0 13.070221c0 2.0266724 -1.6429443 3.6696167 -3.6696167 3.6696167z" fill-rule="evenodd"/><path fill="#538e1c" d="m385.4253 221.9493l0 0c-13.313232 22.95198 -39.24588 33.22296 -63.050323 24.971924c-23.804443 -8.251038 -39.451843 -32.934402 -38.04364 -60.01288c1.4082031 -27.078476 19.51535 -49.694046 44.02408 -54.985413c24.508698 -5.291382 49.21176 8.081543 60.06079 32.513718l-17.338715 9.069458c-6.7941284 -16.660904 -22.73523 -25.938309 -38.651215 -22.494232c-15.915985 3.4440613 -27.714294 18.72403 -28.606506 37.048203c-0.8922119 18.324158 9.351074 34.98076 24.836182 40.386017c15.485107 5.405258 32.230255 -1.8306885 40.60074 -17.54448z" fill-rule="evenodd"/><path fill="#538e1c" d="m385.749 213.0168l0 0c0 -4.272232 3.4633179 -7.73555 7.735565 -7.73555l47.33203 0c2.0516052 0 4.019165 0.8149872 5.4698486 2.265686c1.4507141 1.4506989 2.2657166 3.418274 2.2657166 5.469864l0 1.9462128c0 4.272232 -3.4633484 7.73555 -7.735565 7.73555l-47.33203 0c-4.2722473 0 -7.735565 -3.4633179 -7.735565 -7.73555z" fill-rule="evenodd"/><path fill="#538e1c" d="m385.749 172.35013l0 0c0 -4.272232 3.4633179 -7.73555 7.735565 -7.73555l47.33203 0c2.0516052 0 4.019165 0.8149872 5.4698486 2.265686c1.4507141 1.4506989 2.2657166 3.418274 2.2657166 5.469864l0 1.9462128c0 4.272232 -3.4633484 7.735565 -7.735565 7.735565l-47.33203 0c-4.2722473 0 -7.735565 -3.4633331 -7.735565 -7.735565z" fill-rule="evenodd"/><path fill="#538e1c" d="m46.41403 11.023569l0 0c0 -2.7468987 2.2268028 -4.9737005 4.9737015 -4.9737005l172.5093 0c1.319107 0 2.5841827 0.5240135 3.5169373 1.4567633c0.9327545 0.93274975 1.4567719 2.1978302 1.4567719 3.5169373l0 9.48567c0 2.7468987 -2.2268066 4.9736996 -4.973709 4.9736996l-172.5093 0c-2.7468987 0 -4.9737015 -2.226801 -4.9737015 -4.9736996z" fill-rule="evenodd"/><path fill="#538e1c" d="m16.629217 139.17845l0 0c-2.7468987 0 -4.9737005 -2.2268066 -4.9737005 -4.973694l0 -89.89513c0 -1.3191109 0.5240135 -2.5841904 1.4567633 -3.5169373c0.93274975 -0.9327507 2.1978302 -1.4567642 3.5169373 -1.4567642l9.48567 0c2.7468987 0 4.9737015 2.2268028 4.9737015 4.9737015l0 89.89513l0 0c0 2.7468872 -2.2268028 4.973694 -4.9737015 4.973694z" fill-rule="evenodd"/><path fill="#538e1c" d="m14.08066 30.909056l0 0c5.7225704 -9.606783 13.959833 -17.62191 23.752172 -23.11164l9.6642 18.83854l0 0c-5.94804 3.4884472 -11.02499 8.3922825 -14.689751 14.1888485z" fill-rule="evenodd"/><path fill="#538e1c" d="m17.007236 334.46194l0 0c-2.7933216 0 -5.0577564 -2.2644348 -5.0577564 -5.05777l0 -76.949844c0 -1.3414001 0.53286934 -2.6278534 1.4813824 -3.5763702c0.94851303 -0.94851685 2.234973 -1.4813843 3.576374 -1.4813843l9.645977 0c2.7933216 0 5.0577564 2.2644348 5.0577564 5.0577545l0 76.949844c0 2.793335 -2.2644348 5.05777 -5.0577564 5.05777z" fill-rule="evenodd"/><path fill="#538e1c" d="m228.87592 366.77505l0 0c0 2.9801025 -2.4158478 5.3959656 -5.3959656 5.3959656l-172.28209 0c-1.4310989 0 -2.803585 -0.56851196 -3.815525 -1.5804443c-1.01194 -1.0119629 -1.5804443 -2.38443 -1.5804443 -3.8155212l0 -10.291016c0 -2.9801025 2.4158592 -5.3959656 5.3959694 -5.3959656l172.28209 0c2.9801178 0 5.3959656 2.415863 5.3959656 5.3959656z" fill-rule="evenodd"/><path fill="#538e1c" d="m37.114628 369.46786l0 0c-9.690046 -6.1874084 -17.779545 -15.061737 -23.338669 -25.602966l19.133217 -10.517578c3.5406914 6.397644 8.488701 11.868774 14.327618 15.842346z" fill-rule="evenodd"/><path fill="#538e1c" d="m421.99472 41.979237l0 0c2.8128052 0 5.093048 2.280243 5.093048 5.093067l0 90.41491c0 1.350769 -0.5365906 2.6462097 -1.4916992 3.6013489c-0.95513916 0.9551239 -2.2505798 1.4917145 -3.6013489 1.4917145l-9.713348 0c-2.8128052 0 -5.093048 -2.280243 -5.093048 -5.0930634l0 -90.41491c0 -2.8128242 2.280243 -5.093067 5.093048 -5.093067z" fill-rule="evenodd"/><path fill="#538e1c" d="m296.64185 11.573859l0 0c0 -2.8040342 2.2731018 -5.0771527 5.0771484 -5.0771527l86.21457 0c1.3465576 0 2.6379395 0.5349126 3.590088 1.4870634c0.95214844 0.9521508 1.4870605 2.243545 1.4870605 3.5900893l0 9.682973c0 2.8040333 -2.2731018 5.0771523 -5.0771484 5.0771523l-86.21457 0c-2.8040466 0 -5.0771484 -2.273119 -5.0771484 -5.0771523z" fill-rule="evenodd"/><path fill="#538e1c" d="m401.6266 8.968132l0 0c9.841248 5.842552 18.051727 14.253998 23.674347 24.253788l-19.29184 9.863712c-3.5724792 -6.074291 -8.595917 -11.258528 -14.534332 -14.999607z" fill-rule="evenodd"/><path fill="#538e1c" d="m392.19177 366.51752l0 0c0 2.7468872 -2.2268066 4.973694 -4.9737244 4.973694l-86.084076 0c-1.3191223 0 -2.584198 -0.52401733 -3.5169373 -1.4567566c-0.9327698 -0.93273926 -1.4567566 -2.197815 -1.4567566 -3.5169373l0 -9.485657c0 -2.7469177 2.2267761 -4.9737244 4.973694 -4.9737244l86.084076 0c2.7469177 0 4.9737244 2.2268066 4.9737244 4.9737244z" fill-rule="evenodd"/><path fill="#538e1c" d="m421.97595 244.10211l0 0c2.7468872 0 4.973694 2.2268066 4.973694 4.973709l0 84.16283c0 1.3191223 -0.52401733 2.584198 -1.4567566 3.5169373c-0.93273926 0.93273926 -2.1978455 1.4567566 -3.5169373 1.4567566l-9.485687 0c-2.7468872 0 -4.973694 -2.2267761 -4.973694 -4.973694l0 -84.16283c0 -2.7469025 2.2268066 -4.973709 4.973694 -4.973709z" fill-rule="evenodd"/><path fill="#538e1c" d="m424.52533 346.63177l0 0c-5.722595 9.606781 -13.959839 17.621918 -23.752197 23.111664l-9.664185 -18.838562l0 0c5.9480286 -3.4884338 11.024994 -8.392273 14.689758 -14.188843z" fill-rule="evenodd"/><path fill="#538e1c" d="m253.57759 146.25008l0 0c0 -2.0266724 1.6429443 -3.6696167 3.6696014 -3.6696167l13.070221 0l0 0c0.9732361 0 1.9066162 0.38661194 2.594818 1.0747986c0.6881714 0.68818665 1.0747986 1.6215668 1.0747986 2.594818l0 97.00722c0 2.0266724 -1.6429443 3.6696167 -3.6696167 3.6696167l-13.070221 0c-2.026657 0 -3.6696014 -1.6429443 -3.6696014 -3.6696167z" fill-rule="evenodd"/><path fill="#538e1c" d="m252.05133 116.000435l0 0c0 -2.1236343 1.7215424 -3.8451767 3.8451843 -3.8451767l14.86084 0l0 0c1.0198059 0 1.9978333 0.40511322 2.718933 1.1262283c0.7211304 0.7211075 1.1262207 1.6991425 1.1262207 2.7189484l0 13.695473c0 2.123642 -1.7215271 3.8451843 -3.8451538 3.8451843l-14.86084 0c-2.123642 0 -3.8451843 -1.7215424 -3.8451843 -3.8451843z" fill-rule="evenodd"/><path fill="#538e1c" d="m252.05133 259.81146l0 0c0 -2.1236267 1.7215424 -3.8451843 3.8451843 -3.8451843l14.86084 0l0 0c1.0198059 0 1.9978333 0.40512085 2.718933 1.1262207c0.7211304 0.7211304 1.1262207 1.6991577 1.1262207 2.7189636l0 13.695465c0 2.1236267 -1.7215271 3.8451843 -3.8451538 3.8451843l-14.86084 0c-2.123642 0 -3.8451843 -1.7215576 -3.8451843 -3.8451843z" fill-rule="evenodd"/><path fill="#538e1c" d="m143.62592 55.947937l0 0c0 -2.1236305 1.7215424 -3.845169 3.8451843 -3.845169l14.860825 0l0 0c1.0198059 0 1.9978485 0.40511322 2.7189484 1.1262245c0.7211151 0.7211075 1.126236 1.6991425 1.126236 2.7189445l0 13.695488c0 2.1236267 -1.7215424 3.845169 -3.8451843 3.845169l-14.860825 0c-2.123642 0 -3.8451843 -1.7215424 -3.8451843 -3.845169z" fill-rule="evenodd"/><path fill="#538e1c" d="m143.62592 308.6146l0 0c0 -2.1236267 1.7215424 -3.8451538 3.8451843 -3.8451538l14.860825 0l0 0c1.0198059 0 1.9978485 0.40512085 2.7189484 1.1262207c0.7211151 0.72109985 1.126236 1.6991272 1.126236 2.718933l0 13.695496c0 2.1236267 -1.7215424 3.8451843 -3.8451843 3.8451843l-14.860825 0c-2.123642 0 -3.8451843 -1.7215576 -3.8451843 -3.8451843z" fill-rule="evenodd"/><path fill="#538e1c" d="m143.62592 132.30489l0 0c0 -2.1236267 1.7215424 -3.845169 3.8451843 -3.845169l14.860825 0l0 0c1.0198059 0 1.9978485 0.40512085 2.7189484 1.126236c0.7211151 0.72109985 1.126236 1.6991425 1.126236 2.718933l0 13.695496c0 2.1236267 -1.7215424 3.845169 -3.8451843 3.845169l-14.860825 0c-2.123642 0 -3.8451843 -1.7215424 -3.8451843 -3.845169z" fill-rule="evenodd"/></g></svg>