<svg version="1.1" viewBox="0.0 0.0 946.4671916010499 173.23359580052494" fill="none" stroke="none" stroke-linecap="square" stroke-miterlimit="10" xmlns:xlink="http://www.w3.org/1999/xlink" xmlns="http://www.w3.org/2000/svg"><clipPath id="p.0"><path d="m0 0l946.46716 0l0 173.2336l-946.46716 0l0 -173.2336z" clip-rule="nonzero"/></clipPath><g clip-path="url(#p.0)"><path fill="#000000" fill-opacity="0.0" d="m0 0l946.46716 0l0 173.2336l-946.46716 0z" fill-rule="evenodd"/><path fill="#d9d2e9" d="m680.11743 36.519047l39.568115 -32.12021l158.27246 0l0 160.60106l-197.84058 0z" fill-rule="evenodd"/><path stroke="#000000" stroke-width="1.0" stroke-linejoin="round" stroke-linecap="butt" d="m680.11743 36.519047l39.568115 -32.12021l158.27246 0l0 160.60106l-197.84058 0z" fill-rule="evenodd"/><path fill="#000000" d="m742.4109 110.359474l-5.3125 -19.390625l2.390625 0l4.046875 15.796875l0.1875 0l4.140625 -15.796875l2.640625 0l4.125 15.796875l0.1875 0l4.0625 -15.796875l2.375 0l-5.296875 19.390625l-2.421875 0l-4.28125 -15.453125l-0.140625 0l-4.28125 15.453125l-2.421875 0zm20.555786 0l0 -14.546875l2.15625 0l0 2.203125l0.15625 0q0.390625 -1.078125 1.421875 -1.75q1.046875 -0.671875 2.359375 -0.671875q0.25 0 0.609375 0.015625q0.375 0 0.5625 0.015625l0 2.28125q-0.109375 -0.03125 -0.515625 -0.09375q-0.40625 -0.0625 -0.84375 -0.0625q-1.0625 0 -1.890625 0.4375q-0.828125 0.4375 -1.3125 1.21875q-0.46875 0.765625 -0.46875 1.75l0 9.203125l-2.234375 0zm9.920288 0l0 -14.546875l2.234375 0l0 14.546875l-2.234375 0zm1.140625 -16.96875q-0.65625 0 -1.125 -0.4375q-0.46875 -0.453125 -0.46875 -1.078125q0 -0.625 0.46875 -1.0625q0.46875 -0.4375 1.125 -0.4375q0.640625 0 1.109375 0.4375q0.46875 0.4375 0.46875 1.0625q0 0.625 -0.46875 1.078125q-0.46875 0.4375 -1.109375 0.4375zm11.510742 2.421875l0 1.90625l-7.546875 0l0 -1.90625l7.546875 0zm-5.34375 -3.46875l2.234375 0l0 13.84375q0 0.953125 0.28125 1.421875q0.28125 0.46875 0.71875 0.625q0.4375 0.15625 0.921875 0.15625q0.375 0 0.609375 -0.03125q0.234375 -0.046875 0.375 -0.078125l0.46875 2.0q-0.234375 0.09375 -0.640625 0.171875q-0.40625 0.09375 -1.03125 0.09375q-0.953125 0 -1.859375 -0.40625q-0.890625 -0.40625 -1.484375 -1.234375q-0.59375 -0.84375 -0.59375 -2.109375l0 -14.453125zm14.65094 18.3125q-2.09375 0 -3.625 -0.921875q-1.515625 -0.9375 -2.34375 -2.609375q-0.8125 -1.6875 -0.8125 -3.921875q0 -2.234375 0.8125 -3.9375q0.828125 -1.71875 2.296875 -2.671875q1.46875 -0.96875 3.4375 -0.96875q1.140625 0 2.25 0.390625q1.109375 0.375 2.015625 1.21875q0.90625 0.84375 1.4375 2.234375q0.546875 1.390625 0.546875 3.4375l0 0.9375l-11.203125 0l0 -1.921875l8.9375 0q0 -1.234375 -0.484375 -2.203125q-0.484375 -0.96875 -1.390625 -1.515625q-0.890625 -0.5625 -2.109375 -0.5625q-1.328125 0 -2.296875 0.65625q-0.96875 0.65625 -1.5 1.703125q-0.515625 1.046875 -0.515625 2.25l0 1.296875q0 1.640625 0.578125 2.78125q0.578125 1.140625 1.59375 1.734375q1.015625 0.59375 2.375 0.59375q0.875 0 1.59375 -0.25q0.71875 -0.25 1.234375 -0.75q0.515625 -0.515625 0.8125 -1.265625l2.15625 0.59375q-0.34375 1.109375 -1.15625 1.9375q-0.796875 0.828125 -1.984375 1.28125q-1.171875 0.453125 -2.65625 0.453125zm10.227295 -8.46875q0 -3.578125 0.921875 -6.578125q0.9375 -3.015625 2.671875 -5.546875l1.96875 0q-0.6875 0.9375 -1.28125 2.3125q-0.578125 1.359375 -1.03125 3.0q-0.4375 1.625 -0.6875 3.375q-0.25 1.734375 -0.25 3.4375q0 2.25 0.421875 4.578125q0.4375 2.3125 1.171875 4.296875q0.75 1.984375 1.65625 3.234375l-1.96875 0q-1.734375 -2.53125 -2.671875 -5.53125q-0.921875 -3.0 -0.921875 -6.578125zm13.623962 0q0 3.578125 -0.9375 6.578125q-0.921875 3.0 -2.65625 5.53125l-1.96875 0q0.6875 -0.9375 1.265625 -2.3125q0.59375 -1.359375 1.03125 -2.984375q0.453125 -1.640625 0.703125 -3.390625q0.25 -1.75 0.25 -3.421875q0 -2.265625 -0.4375 -4.578125q-0.421875 -2.3125 -1.171875 -4.296875q-0.734375 -2.0 -1.640625 -3.25l1.96875 0q1.734375 2.53125 2.65625 5.546875q0.9375 3.0 0.9375 6.578125z" fill-rule="nonzero"/><path fill="#000000" fill-opacity="0.0" d="m680.2021 65.25191l98.36224 0.9133835" fill-rule="evenodd"/><path stroke="#000000" stroke-width="1.0" stroke-linejoin="round" stroke-linecap="butt" d="m680.2021 65.25191l98.36224 0.9133835" fill-rule="evenodd"/><path fill="#000000" fill-opacity="0.0" d="m4.5114555 64.48095l932.9764 1.5118103" fill-rule="evenodd"/><path stroke="#000000" stroke-width="1.0" stroke-linejoin="round" stroke-linecap="butt" d="m4.5114555 64.48094l926.9764 1.5020905" fill-rule="evenodd"/><path fill="#000000" stroke="#000000" stroke-width="1.0" stroke-linecap="butt" d="m931.48517 67.634766l4.5407715 -1.6443787l-4.5354004 -1.6590805z" fill-rule="evenodd"/><path fill="#d9d2e9" d="m56.0 37.051968l39.568108 -32.12021l158.27246 0l0 160.60104l-197.84056 0z" fill-rule="evenodd"/><path stroke="#000000" stroke-width="1.0" stroke-linejoin="round" stroke-linecap="butt" d="m56.0 37.051968l39.568108 -32.12021l158.27246 0l0 160.60104l-197.84056 0z" fill-rule="evenodd"/><path fill="#000000" d="m118.29345 110.892395l-5.3125 -19.390625l2.390625 0l4.046875 15.796875l0.1875 0l4.140625 -15.796875l2.640625 0l4.1250076 15.796875l0.1875 0l4.0625 -15.796875l2.375 0l-5.296875 19.390625l-2.421875 0l-4.2812576 -15.453125l-0.140625 0l-4.28125 15.453125l-2.421875 0zm20.555763 0l0 -14.546875l2.15625 0l0 2.203125l0.15625 0q0.390625 -1.078125 1.421875 -1.75q1.046875 -0.671875 2.359375 -0.671875q0.25 0 0.609375 0.015625q0.375 0 0.5625 0.015625l0 2.28125q-0.109375 -0.03125 -0.515625 -0.09375q-0.40625 -0.0625 -0.84375 -0.0625q-1.0625 0 -1.890625 0.4375q-0.828125 0.4375 -1.3125 1.21875q-0.46875 0.765625 -0.46875 1.75l0 9.203125l-2.234375 0zm9.920288 0l0 -14.546875l2.234375 0l0 14.546875l-2.234375 0zm1.140625 -16.96875q-0.65625 0 -1.125 -0.4375q-0.46875 -0.453125 -0.46875 -1.078125q0 -0.625 0.46875 -1.0625q0.46875 -0.4375 1.125 -0.4375q0.640625 0 1.109375 0.4375q0.46875 0.4375 0.46875 1.0625q0 0.625 -0.46875 1.078125q-0.46875 0.4375 -1.109375 0.4375zm11.510742 2.421875l0 1.90625l-7.546875 0l0 -1.90625l7.546875 0zm-5.34375 -3.46875l2.234375 0l0 13.84375q0 0.953125 0.28125 1.421875q0.28125 0.46875 0.71875 0.625q0.4375 0.15625 0.921875 0.15625q0.375 0 0.609375 -0.03125q0.234375 -0.046875 0.375 -0.078125l0.46875 2.0q-0.234375 0.09375 -0.640625 0.171875q-0.40625 0.09375 -1.03125 0.09375q-0.953125 0 -1.859375 -0.40625q-0.890625 -0.40625 -1.484375 -1.234375q-0.59375 -0.84375 -0.59375 -2.109375l0 -14.453125zm14.65097 18.3125q-2.09375 0 -3.625 -0.921875q-1.515625 -0.9375 -2.34375 -2.609375q-0.8125 -1.6875 -0.8125 -3.921875q0 -2.234375 0.8125 -3.9375q0.828125 -1.71875 2.296875 -2.671875q1.46875 -0.96875 3.4375 -0.96875q1.140625 0 2.25 0.390625q1.109375 0.375 2.015625 1.21875q0.90625 0.84375 1.4375 2.234375q0.546875 1.390625 0.546875 3.4375l0 0.9375l-11.203125 0l0 -1.921875l8.9375 0q0 -1.234375 -0.484375 -2.203125q-0.484375 -0.96875 -1.390625 -1.515625q-0.890625 -0.5625 -2.109375 -0.5625q-1.328125 0 -2.296875 0.65625q-0.96875 0.65625 -1.5 1.703125q-0.515625 1.046875 -0.515625 2.25l0 1.296875q0 1.640625 0.578125 2.78125q0.578125 1.140625 1.59375 1.734375q1.015625 0.59375 2.375 0.59375q0.875 0 1.59375 -0.25q0.71875 -0.25 1.234375 -0.75q0.515625 -0.515625 0.8125 -1.265625l2.15625 0.59375q-0.34375 1.109375 -1.15625 1.9375q-0.796875 0.828125 -1.984375 1.28125q-1.171875 0.453125 -2.65625 0.453125zm10.227264 -8.46875q0 -3.578125 0.921875 -6.578125q0.9375 -3.015625 2.671875 -5.546875l1.96875 0q-0.6875 0.9375 -1.28125 2.3125q-0.578125 1.359375 -1.03125 3.0q-0.4375 1.625 -0.6875 3.375q-0.25 1.734375 -0.25 3.4375q0 2.25 0.421875 4.578125q0.4375 2.3125 1.171875 4.296875q0.75 1.984375 1.65625 3.234375l-1.96875 0q-1.734375 -2.53125 -2.671875 -5.53125q-0.921875 -3.0 -0.921875 -6.578125zm13.623993 0q0 3.578125 -0.9375 6.578125q-0.921875 3.0 -2.65625 5.53125l-1.96875 0q0.6875 -0.9375 1.265625 -2.3125q0.59375 -1.359375 1.03125 -2.984375q0.453125 -1.640625 0.703125 -3.390625q0.25 -1.75 0.25 -3.421875q0 -2.265625 -0.4375 -4.578125q-0.421875 -2.3125 -1.171875 -4.296875q-0.734375 -2.0 -1.640625 -3.25l1.96875 0q1.734375 2.53125 2.65625 5.546875q0.9375 3.0 0.9375 6.578125z" fill-rule="nonzero"/><path fill="#ffffff" d="m63.94376 32.383064l1.4498024 0l0 23.196854l-1.4498024 0zm2.8996086 0l2.8996048 0l0 23.196854l-2.8996048 0zm4.3494034 0l693.2707 0l0 -11.598423l23.196838 23.19685l-23.196838 23.196854l0 -11.598427l-693.2707 0z" fill-rule="evenodd"/><path stroke="#000000" stroke-width="1.0" stroke-linejoin="round" stroke-linecap="butt" d="m63.94376 32.383064l1.4498024 0l0 23.196854l-1.4498024 0zm2.8996086 0l2.8996048 0l0 23.196854l-2.8996048 0zm4.3494034 0l693.2707 0l0 -11.598423l23.196838 23.19685l-23.196838 23.196854l0 -11.598427l-693.2707 0z" fill-rule="evenodd"/><path fill="#000000" d="m81.8334 50.90149l0 -13.5625l4.59375 0q1.578125 0 2.59375 0.546875q1.03125 0.53125 1.515625 1.46875q0.5 0.9375 0.5 2.140625q0 1.203125 -0.5 2.125q-0.484375 0.921875 -1.5 1.453125q-1.015625 0.53125 -2.59375 0.53125l-3.703125 0l0 -1.484375l3.65625 0q1.078125 0 1.75 -0.3125q0.671875 -0.328125 0.96875 -0.90625q0.296875 -0.59375 0.296875 -1.40625q0 -0.8125 -0.3125 -1.421875q-0.296875 -0.609375 -0.96875 -0.9375q-0.65625 -0.34375 -1.765625 -0.34375l-2.890625 0l0 12.109375l-1.640625 0zm6.390625 -6.09375l3.34375 6.09375l-1.921875 0l-3.28125 -6.09375l1.859375 0zm9.491135 6.3125q-1.46875 0 -2.546875 -0.65625q-1.0625 -0.65625 -1.640625 -1.828125q-0.5625 -1.171875 -0.5625 -2.75q0 -1.5625 0.5625 -2.75q0.578125 -1.203125 1.609375 -1.875q1.03125 -0.671875 2.40625 -0.671875q0.796875 0 1.578125 0.265625q0.78125 0.265625 1.40625 0.859375q0.640625 0.59375 1.015625 1.578125q0.375 0.96875 0.375 2.390625l0 0.65625l-7.84375 0l0 -1.34375l6.265625 0q0 -0.859375 -0.34375 -1.53125q-0.34375 -0.6875 -0.96875 -1.078125q-0.625 -0.390625 -1.484375 -0.390625q-0.921875 0 -1.609375 0.46875q-0.671875 0.453125 -1.046875 1.1875q-0.359375 0.734375 -0.359375 1.578125l0 0.90625q0 1.140625 0.390625 1.953125q0.40625 0.796875 1.125 1.21875q0.71875 0.40625 1.671875 0.40625q0.609375 0 1.109375 -0.171875q0.5 -0.1875 0.859375 -0.53125q0.375 -0.359375 0.5625 -0.890625l1.515625 0.421875q-0.234375 0.765625 -0.796875 1.34375q-0.5625 0.578125 -1.390625 0.90625q-0.828125 0.328125 -1.859375 0.328125zm6.5996704 3.59375l0 -13.984375l1.5 0l0 1.609375l0.1875 0q0.171875 -0.265625 0.484375 -0.671875q0.3125 -0.421875 0.890625 -0.75q0.578125 -0.328125 1.5625 -0.328125q1.296875 0 2.265625 0.640625q0.984375 0.640625 1.53125 1.828125q0.5625 1.171875 0.5625 2.78125q0 1.625 -0.5625 2.8125q-0.546875 1.171875 -1.515625 1.828125q-0.96875 0.640625 -2.25 0.640625q-0.984375 0 -1.578125 -0.328125q-0.578125 -0.328125 -0.90625 -0.75q-0.3125 -0.421875 -0.484375 -0.703125l-0.125 0l0 5.375l-1.5625 0zm1.53125 -8.90625q0 1.15625 0.328125 2.046875q0.34375 0.875 0.984375 1.375q0.65625 0.484375 1.609375 0.484375q0.96875 0 1.625 -0.515625q0.671875 -0.53125 1.0 -1.40625q0.328125 -0.890625 0.328125 -1.984375q0 -1.0625 -0.328125 -1.921875q-0.3125 -0.875 -0.984375 -1.375q-0.65625 -0.515625 -1.640625 -0.515625q-0.96875 0 -1.625 0.484375q-0.640625 0.484375 -0.96875 1.34375q-0.328125 0.84375 -0.328125 1.984375zm11.400055 -8.46875l0 13.5625l-1.5625 0l0 -13.5625l1.5625 0zm5.8474884 13.796875q-0.96875 0 -1.765625 -0.359375q-0.78125 -0.375 -1.25 -1.0625q-0.453125 -0.703125 -0.453125 -1.703125q0 -0.875 0.34375 -1.421875q0.34375 -0.546875 0.921875 -0.859375q0.578125 -0.3125 1.265625 -0.46875q0.703125 -0.15625 1.421875 -0.25q0.921875 -0.109375 1.5 -0.171875q0.578125 -0.0625 0.84375 -0.21875q0.28125 -0.15625 0.28125 -0.53125l0 -0.046875q0 -0.984375 -0.546875 -1.53125q-0.53125 -0.546875 -1.609375 -0.546875q-1.109375 0 -1.75 0.5q-0.640625 0.484375 -0.890625 1.046875l-1.484375 -0.53125q0.390625 -0.921875 1.046875 -1.4375q0.671875 -0.53125 1.46875 -0.734375q0.796875 -0.21875 1.5625 -0.21875q0.484375 0 1.125 0.125q0.640625 0.109375 1.234375 0.46875q0.609375 0.359375 1.0 1.078125q0.40625 0.71875 0.40625 1.9375l0 6.703125l-1.5625 0l0 -1.375l-0.078125 0q-0.171875 0.328125 -0.546875 0.703125q-0.359375 0.375 -0.984375 0.640625q-0.609375 0.265625 -1.5 0.265625zm0.25 -1.40625q0.921875 0 1.5625 -0.359375q0.640625 -0.359375 0.96875 -0.9375q0.328125 -0.578125 0.328125 -1.21875l0 -1.421875q-0.109375 0.109375 -0.453125 0.21875q-0.328125 0.09375 -0.765625 0.15625q-0.421875 0.0625 -0.828125 0.125q-0.40625 0.046875 -0.65625 0.078125q-0.609375 0.078125 -1.140625 0.265625q-0.53125 0.171875 -0.859375 0.515625q-0.3125 0.34375 -0.3125 0.9375q0 0.8125 0.609375 1.234375q0.609375 0.40625 1.546875 0.40625zm7.9151993 4.984375q-0.390625 0 -0.703125 -0.0625q-0.3125 -0.0625 -0.4375 -0.125l0.40625 -1.375q0.5625 0.140625 1.0 0.09375q0.4375 -0.03125 0.78125 -0.375q0.34375 -0.34375 0.625 -1.125l0.296875 -0.796875l-3.765625 -10.21875l1.6875 0l2.8125 8.109375l0.109375 0l2.8125 -8.109375l1.6875 0l-4.3125 11.65625q-0.296875 0.78125 -0.734375 1.296875q-0.421875 0.53125 -1.0 0.78125q-0.5625 0.25 -1.265625 0.25zm15.182297 -9.53125q0 -2.515625 0.65625 -4.609375q0.65625 -2.109375 1.859375 -3.875l1.390625 0q-0.484375 0.65625 -0.90625 1.609375q-0.40625 0.953125 -0.71875 2.109375q-0.3125 1.140625 -0.484375 2.359375q-0.171875 1.21875 -0.171875 2.40625q0 1.578125 0.296875 3.203125q0.3125 1.609375 0.828125 3.0q0.515625 1.390625 1.15625 2.265625l-1.390625 0q-1.203125 -1.765625 -1.859375 -3.859375q-0.65625 -2.109375 -0.65625 -4.609375zm8.507675 5.71875l-3.09375 -10.171875l1.640625 0l2.203125 7.78125l0.09375 0l2.171875 -7.78125l1.671875 0l2.15625 7.765625l0.109375 0l2.1875 -7.765625l1.640625 0l-3.09375 10.171875l-1.53125 0l-2.234375 -7.8125l-0.15625 0l-2.21875 7.8125l-1.546875 0zm12.8615265 0l0 -10.171875l1.5 0l0 1.53125l0.109375 0q0.28125 -0.75 1.0 -1.21875q0.734375 -0.46875 1.65625 -0.46875q0.171875 0 0.421875 0q0.265625 0 0.390625 0.015625l0 1.59375q-0.078125 -0.015625 -0.359375 -0.0625q-0.28125 -0.046875 -0.59375 -0.046875q-0.734375 0 -1.328125 0.3125q-0.578125 0.3125 -0.90625 0.859375q-0.328125 0.53125 -0.328125 1.21875l0 6.4375l-1.5625 0zm6.9431915 0l0 -10.171875l1.5625 0l0 10.171875l-1.5625 0zm0.78125 -11.875q-0.453125 0 -0.78125 -0.3125q-0.328125 -0.3125 -0.328125 -0.75q0 -0.4375 0.328125 -0.75q0.328125 -0.3125 0.78125 -0.3125q0.46875 0 0.796875 0.3125q0.328125 0.3125 0.328125 0.75q0 0.4375 -0.328125 0.75q-0.328125 0.3125 -0.796875 0.3125zm8.066238 1.703125l0 1.328125l-5.28125 0l0 -1.328125l5.28125 0zm-3.734375 -2.4375l1.5625 0l0 9.6875q0 0.671875 0.1875 1.0q0.203125 0.328125 0.5 0.4375q0.3125 0.109375 0.65625 0.109375q0.265625 0 0.421875 -0.03125q0.171875 -0.03125 0.265625 -0.046875l0.328125 1.40625q-0.15625 0.046875 -0.453125 0.109375q-0.28125 0.0625 -0.71875 0.0625q-0.65625 0 -1.296875 -0.28125q-0.625 -0.28125 -1.046875 -0.859375q-0.40625 -0.59375 -0.40625 -1.46875l0 -10.125zm10.256241 12.828125q-1.46875 0 -2.546875 -0.65625q-1.0625 -0.65625 -1.640625 -1.828125q-0.5625 -1.171875 -0.5625 -2.75q0 -1.5625 0.5625 -2.75q0.578125 -1.203125 1.609375 -1.875q1.03125 -0.671875 2.40625 -0.671875q0.796875 0 1.578125 0.265625q0.78125 0.265625 1.40625 0.859375q0.640625 0.59375 1.015625 1.578125q0.375 0.96875 0.375 2.390625l0 0.65625l-7.84375 0l0 -1.34375l6.265625 0q0 -0.859375 -0.34375 -1.53125q-0.34375 -0.6875 -0.96875 -1.078125q-0.625 -0.390625 -1.484375 -0.390625q-0.921875 0 -1.609375 0.46875q-0.671875 0.453125 -1.046875 1.1875q-0.359375 0.734375 -0.359375 1.578125l0 0.90625q0 1.140625 0.390625 1.953125q0.40625 0.796875 1.125 1.21875q0.71875 0.40625 1.671875 0.40625q0.609375 0 1.109375 -0.171875q0.5 -0.1875 0.859375 -0.53125q0.375 -0.359375 0.5625 -0.890625l1.515625 0.421875q-0.234375 0.765625 -0.796875 1.34375q-0.5625 0.578125 -1.390625 0.90625q-0.828125 0.328125 -1.859375 0.328125zm13.299942 -3.921875l-0.03125 -1.9375l0.328125 0l4.4375 -4.53125l1.9375 0l-4.734375 4.796875l-0.140625 0l-1.796875 1.671875zm-1.453125 3.703125l0 -13.5625l1.5625 0l0 13.5625l-1.5625 0zm6.453125 0l-3.96875 -5.03125l1.109375 -1.09375l4.859375 6.125l-2.0 0zm7.538025 0.21875q-1.46875 0 -2.546875 -0.65625q-1.0625 -0.65625 -1.640625 -1.828125q-0.5625 -1.171875 -0.5625 -2.75q0 -1.5625 0.5625 -2.75q0.578125 -1.203125 1.609375 -1.875q1.03125 -0.671875 2.40625 -0.671875q0.796875 0 1.578125 0.265625q0.78125 0.265625 1.40625 0.859375q0.640625 0.59375 1.015625 1.578125q0.375 0.96875 0.375 2.390625l0 0.65625l-7.84375 0l0 -1.34375l6.265625 0q0 -0.859375 -0.34375 -1.53125q-0.34375 -0.6875 -0.96875 -1.078125q-0.625 -0.390625 -1.484375 -0.390625q-0.921875 0 -1.609375 0.46875q-0.671875 0.453125 -1.046875 1.1875q-0.359375 0.734375 -0.359375 1.578125l0 0.90625q0 1.140625 0.390625 1.953125q0.40625 0.796875 1.125 1.21875q0.71875 0.40625 1.671875 0.40625q0.609375 0 1.109375 -0.171875q0.5 -0.1875 0.859375 -0.53125q0.375 -0.359375 0.5625 -0.890625l1.515625 0.421875q-0.234375 0.765625 -0.796875 1.34375q-0.5625 0.578125 -1.390625 0.90625q-0.828125 0.328125 -1.859375 0.328125zm6.5996704 -0.21875l0 -10.171875l1.5 0l0 1.53125l0.109375 0q0.28125 -0.75 1.0 -1.21875q0.734375 -0.46875 1.65625 -0.46875q0.171875 0 0.421875 0q0.265625 0 0.390625 0.015625l0 1.59375q-0.078125 -0.015625 -0.359375 -0.0625q-0.28125 -0.046875 -0.59375 -0.046875q-0.734375 0 -1.328125 0.3125q-0.578125 0.3125 -0.90625 0.859375q-0.328125 0.53125 -0.328125 1.21875l0 6.4375l-1.5625 0zm8.505692 -6.125l0 6.125l-1.5625 0l0 -10.171875l1.5 0l0 1.578125l0.140625 0q0.359375 -0.765625 1.078125 -1.234375q0.734375 -0.484375 1.890625 -0.484375q1.03125 0 1.796875 0.421875q0.78125 0.421875 1.203125 1.28125q0.4375 0.84375 0.4375 2.140625l0 6.46875l-1.5625 0l0 -6.359375q0 -1.203125 -0.625 -1.875q-0.625 -0.671875 -1.703125 -0.671875q-0.75 0 -1.34375 0.328125q-0.578125 0.328125 -0.921875 0.953125q-0.328125 0.609375 -0.328125 1.5zm13.621414 6.34375q-1.46875 0 -2.546875 -0.65625q-1.0625 -0.65625 -1.640625 -1.828125q-0.5625 -1.171875 -0.5625 -2.75q0 -1.5625 0.5625 -2.75q0.578125 -1.203125 1.609375 -1.875q1.03125 -0.671875 2.40625 -0.671875q0.796875 0 1.578125 0.265625q0.78125 0.265625 1.40625 0.859375q0.640625 0.59375 1.015625 1.578125q0.375 0.96875 0.375 2.390625l0 0.65625l-7.84375 0l0 -1.34375l6.265625 0q0 -0.859375 -0.34375 -1.53125q-0.34375 -0.6875 -0.96875 -1.078125q-0.625 -0.390625 -1.484375 -0.390625q-0.921875 0 -1.609375 0.46875q-0.671875 0.453125 -1.046875 1.1875q-0.359375 0.734375 -0.359375 1.578125l0 0.90625q0 1.140625 0.390625 1.953125q0.40625 0.796875 1.125 1.21875q0.71875 0.40625 1.671875 0.40625q0.609375 0 1.109375 -0.171875q0.5 -0.1875 0.859375 -0.53125q0.375 -0.359375 0.5625 -0.890625l1.515625 0.421875q-0.234375 0.765625 -0.796875 1.34375q-0.5625 0.578125 -1.390625 0.90625q-0.828125 0.328125 -1.859375 0.328125zm8.16217 -13.78125l0 13.5625l-1.5625 0l0 -13.5625l1.5625 0zm6.1912384 7.84375q0 2.5 -0.65625 4.609375q-0.640625 2.09375 -1.859375 3.859375l-1.375 0q0.46875 -0.65625 0.875 -1.609375q0.421875 -0.953125 0.734375 -2.09375q0.3125 -1.140625 0.484375 -2.359375q0.1875 -1.234375 0.1875 -2.40625q0 -1.578125 -0.3125 -3.203125q-0.296875 -1.625 -0.8125 -3.015625q-0.515625 -1.390625 -1.15625 -2.265625l1.375 0q1.21875 1.765625 1.859375 3.875q0.65625 2.09375 0.65625 4.609375z" fill-rule="nonzero"/><path fill="#d9ead3" d="m264.03915 37.051968l39.568115 -32.12021l158.27243 0l0 160.60104l-197.84055 0z" fill-rule="evenodd"/><path stroke="#000000" stroke-width="1.0" stroke-linejoin="round" stroke-linecap="butt" d="m264.03915 37.051968l39.568115 -32.12021l158.27243 0l0 160.60104l-197.84055 0z" fill-rule="evenodd"/><path fill="#000000" d="m323.6531 110.892395l0 -19.390625l6.546875 0q2.28125 0 3.734375 0.78125q1.453125 0.765625 2.15625 2.109375q0.703125 1.34375 0.703125 3.0625q0 1.703125 -0.703125 3.03125q-0.703125 1.328125 -2.15625 2.078125q-1.4375 0.75 -3.6875 0.75l-5.296875 0l0 -2.109375l5.21875 0q1.546875 0 2.5 -0.453125q0.953125 -0.46875 1.375 -1.296875q0.4375 -0.84375 0.4375 -2.0q0 -1.171875 -0.4375 -2.03125q-0.421875 -0.875 -1.390625 -1.34375q-0.953125 -0.484375 -2.515625 -0.484375l-4.140625 0l0 17.296875l-2.34375 0zm9.125 -8.703125l4.78125 8.703125l-2.734375 0l-4.6875 -8.703125l2.640625 0zm13.559021 9.0q-2.09375 0 -3.625 -0.921875q-1.515625 -0.9375 -2.34375 -2.609375q-0.8125 -1.6875 -0.8125 -3.921875q0 -2.234375 0.8125 -3.9375q0.828125 -1.71875 2.296875 -2.671875q1.46875 -0.96875 3.4375 -0.96875q1.140625 0 2.25 0.390625q1.109375 0.375 2.015625 1.21875q0.90625 0.84375 1.4375 2.234375q0.546875 1.390625 0.546875 3.4375l0 0.9375l-11.203125 0l0 -1.921875l8.9375 0q0 -1.234375 -0.484375 -2.203125q-0.484375 -0.96875 -1.390625 -1.515625q-0.890625 -0.5625 -2.109375 -0.5625q-1.328125 0 -2.296875 0.65625q-0.96875 0.65625 -1.5 1.703125q-0.515625 1.046875 -0.515625 2.25l0 1.296875q0 1.640625 0.578125 2.78125q0.578125 1.140625 1.59375 1.734375q1.015625 0.59375 2.375 0.59375q0.875 0 1.59375 -0.25q0.71875 -0.25 1.234375 -0.75q0.515625 -0.515625 0.8125 -1.265625l2.15625 0.59375q-0.34375 1.109375 -1.15625 1.9375q-0.796875 0.828125 -1.984375 1.28125q-1.171875 0.453125 -2.65625 0.453125zm13.711639 0.046875q-1.390625 0 -2.515625 -0.515625q-1.125 -0.53125 -1.796875 -1.53125q-0.65625 -1.0 -0.65625 -2.421875q0 -1.25 0.484375 -2.03125q0.5 -0.78125 1.328125 -1.21875q0.828125 -0.453125 1.8125 -0.671875q1.0 -0.21875 2.015625 -0.359375q1.328125 -0.171875 2.15625 -0.25q0.828125 -0.09375 1.203125 -0.3125q0.390625 -0.21875 0.390625 -0.765625l0 -0.078125q0 -1.390625 -0.765625 -2.171875q-0.75 -0.78125 -2.296875 -0.78125q-1.59375 0 -2.515625 0.703125q-0.90625 0.703125 -1.265625 1.5l-2.125 -0.765625q0.5625 -1.3125 1.515625 -2.046875q0.953125 -0.75 2.078125 -1.046875q1.140625 -0.3125 2.234375 -0.3125q0.703125 0 1.609375 0.171875q0.921875 0.171875 1.765625 0.6875q0.859375 0.5 1.421875 1.53125q0.578125 1.03125 0.578125 2.765625l0 9.578125l-2.234375 0l0 -1.96875l-0.109375 0q-0.234375 0.46875 -0.765625 1.015625q-0.515625 0.53125 -1.40625 0.921875q-0.875 0.375 -2.140625 0.375zm0.328125 -2.015625q1.328125 0 2.234375 -0.515625q0.921875 -0.515625 1.390625 -1.34375q0.46875 -0.828125 0.46875 -1.734375l0 -2.046875q-0.140625 0.171875 -0.625 0.3125q-0.46875 0.140625 -1.09375 0.25q-0.609375 0.09375 -1.203125 0.171875q-0.578125 0.0625 -0.9375 0.109375q-0.875 0.109375 -1.625 0.359375q-0.75 0.25 -1.21875 0.75q-0.453125 0.5 -0.453125 1.34375q0 1.171875 0.859375 1.765625q0.875 0.578125 2.203125 0.578125zm15.906891 1.96875q-1.8125 0 -3.203125 -0.921875q-1.390625 -0.921875 -2.1875 -2.609375q-0.78125 -1.6875 -0.78125 -4.0q0 -2.28125 0.78125 -3.96875q0.796875 -1.6875 2.1875 -2.609375q1.40625 -0.921875 3.25 -0.921875q1.421875 0 2.25 0.46875q0.828125 0.46875 1.265625 1.0625q0.4375 0.59375 0.6875 0.96875l0.1875 0l0 -7.15625l2.234375 0l0 19.390625l-2.15625 0l0 -2.234375l-0.265625 0q-0.25 0.390625 -0.703125 1.0q-0.453125 0.59375 -1.296875 1.0625q-0.84375 0.46875 -2.25 0.46875zm0.3125 -2.0q1.34375 0 2.265625 -0.703125q0.921875 -0.703125 1.40625 -1.953125q0.484375 -1.265625 0.484375 -2.90625q0 -1.625 -0.46875 -2.84375q-0.46875 -1.234375 -1.40625 -1.921875q-0.921875 -0.6875 -2.28125 -0.6875q-1.421875 0 -2.375 0.71875q-0.9375 0.71875 -1.40625 1.96875q-0.46875 1.234375 -0.46875 2.765625q0 1.546875 0.46875 2.8125q0.484375 1.265625 1.421875 2.015625q0.953125 0.734375 2.359375 0.734375zm11.546448 -6.46875q0 -3.578125 0.921875 -6.578125q0.9375 -3.015625 2.671875 -5.546875l1.96875 0q-0.6875 0.9375 -1.28125 2.3125q-0.578125 1.359375 -1.03125 3.0q-0.4375 1.625 -0.6875 3.375q-0.25 1.734375 -0.25 3.4375q0 2.25 0.421875 4.578125q0.4375 2.3125 1.171875 4.296875q0.75 1.984375 1.65625 3.234375l-1.96875 0q-1.734375 -2.53125 -2.671875 -5.53125q-0.921875 -3.0 -0.921875 -6.578125zm13.624023 0q0 3.578125 -0.9375 6.578125q-0.921875 3.0 -2.65625 5.53125l-1.96875 0q0.6875 -0.9375 1.265625 -2.3125q0.59375 -1.359375 1.03125 -2.984375q0.453125 -1.640625 0.703125 -3.390625q0.25 -1.75 0.25 -3.421875q0 -2.265625 -0.4375 -4.578125q-0.421875 -2.3125 -1.171875 -4.296875q-0.734375 -2.0 -1.640625 -3.25l1.96875 0q1.734375 2.53125 2.65625 5.546875q0.9375 3.0 0.9375 6.578125z" fill-rule="nonzero"/><path fill="#d9ead3" d="m472.0783 37.051968l39.568115 -32.12021l158.27246 0l0 160.60104l-197.84058 0z" fill-rule="evenodd"/><path stroke="#000000" stroke-width="1.0" stroke-linejoin="round" stroke-linecap="butt" d="m472.0783 37.051968l39.568115 -32.12021l158.27246 0l0 160.60104l-197.84058 0z" fill-rule="evenodd"/><path fill="#000000" d="m531.69226 110.892395l0 -19.390625l6.546875 0q2.28125 0 3.734375 0.78125q1.453125 0.765625 2.15625 2.109375q0.703125 1.34375 0.703125 3.0625q0 1.703125 -0.703125 3.03125q-0.703125 1.328125 -2.15625 2.078125q-1.4375 0.75 -3.6875 0.75l-5.296875 0l0 -2.109375l5.21875 0q1.546875 0 2.5 -0.453125q0.953125 -0.46875 1.375 -1.296875q0.4375 -0.84375 0.4375 -2.0q0 -1.171875 -0.4375 -2.03125q-0.421875 -0.875 -1.390625 -1.34375q-0.953125 -0.484375 -2.515625 -0.484375l-4.140625 0l0 17.296875l-2.34375 0zm9.125 -8.703125l4.78125 8.703125l-2.734375 0l-4.6875 -8.703125l2.640625 0zm13.559021 9.0q-2.09375 0 -3.625 -0.921875q-1.515625 -0.9375 -2.34375 -2.609375q-0.8125 -1.6875 -0.8125 -3.921875q0 -2.234375 0.8125 -3.9375q0.828125 -1.71875 2.296875 -2.671875q1.46875 -0.96875 3.4375 -0.96875q1.140625 0 2.25 0.390625q1.109375 0.375 2.015625 1.21875q0.90625 0.84375 1.4375 2.234375q0.546875 1.390625 0.546875 3.4375l0 0.9375l-11.203125 0l0 -1.921875l8.9375 0q0 -1.234375 -0.484375 -2.203125q-0.484375 -0.96875 -1.390625 -1.515625q-0.890625 -0.5625 -2.109375 -0.5625q-1.328125 0 -2.296875 0.65625q-0.96875 0.65625 -1.5 1.703125q-0.515625 1.046875 -0.515625 2.25l0 1.296875q0 1.640625 0.578125 2.78125q0.578125 1.140625 1.59375 1.734375q1.015625 0.59375 2.375 0.59375q0.875 0 1.59375 -0.25q0.71875 -0.25 1.234375 -0.75q0.515625 -0.515625 0.8125 -1.265625l2.15625 0.59375q-0.34375 1.109375 -1.15625 1.9375q-0.796875 0.828125 -1.984375 1.28125q-1.171875 0.453125 -2.65625 0.453125zm13.711609 0.046875q-1.390625 0 -2.515625 -0.515625q-1.125 -0.53125 -1.796875 -1.53125q-0.65625 -1.0 -0.65625 -2.421875q0 -1.25 0.484375 -2.03125q0.5 -0.78125 1.328125 -1.21875q0.828125 -0.453125 1.8125 -0.671875q1.0 -0.21875 2.015625 -0.359375q1.328125 -0.171875 2.15625 -0.25q0.828125 -0.09375 1.203125 -0.3125q0.390625 -0.21875 0.390625 -0.765625l0 -0.078125q0 -1.390625 -0.765625 -2.171875q-0.75 -0.78125 -2.296875 -0.78125q-1.59375 0 -2.515625 0.703125q-0.90625 0.703125 -1.265625 1.5l-2.125 -0.765625q0.5625 -1.3125 1.515625 -2.046875q0.953125 -0.75 2.078125 -1.046875q1.140625 -0.3125 2.234375 -0.3125q0.703125 0 1.609375 0.171875q0.921875 0.171875 1.765625 0.6875q0.859375 0.5 1.421875 1.53125q0.578125 1.03125 0.578125 2.765625l0 9.578125l-2.234375 0l0 -1.96875l-0.109375 0q-0.234375 0.46875 -0.765625 1.015625q-0.515625 0.53125 -1.40625 0.921875q-0.875 0.375 -2.140625 0.375zm0.328125 -2.015625q1.328125 0 2.234375 -0.515625q0.921875 -0.515625 1.390625 -1.34375q0.46875 -0.828125 0.46875 -1.734375l0 -2.046875q-0.140625 0.171875 -0.625 0.3125q-0.46875 0.140625 -1.09375 0.25q-0.609375 0.09375 -1.203125 0.171875q-0.578125 0.0625 -0.9375 0.109375q-0.875 0.109375 -1.625 0.359375q-0.75 0.25 -1.21875 0.75q-0.453125 0.5 -0.453125 1.34375q0 1.171875 0.859375 1.765625q0.875 0.578125 2.203125 0.578125zm15.906921 1.96875q-1.8125 0 -3.203125 -0.921875q-1.390625 -0.921875 -2.1875 -2.609375q-0.78125 -1.6875 -0.78125 -4.0q0 -2.28125 0.78125 -3.96875q0.796875 -1.6875 2.1875 -2.609375q1.40625 -0.921875 3.25 -0.921875q1.421875 0 2.25 0.46875q0.828125 0.46875 1.265625 1.0625q0.4375 0.59375 0.6875 0.96875l0.1875 0l0 -7.15625l2.234375 0l0 19.390625l-2.15625 0l0 -2.234375l-0.265625 0q-0.25 0.390625 -0.703125 1.0q-0.453125 0.59375 -1.296875 1.0625q-0.84375 0.46875 -2.25 0.46875zm0.3125 -2.0q1.34375 0 2.265625 -0.703125q0.921875 -0.703125 1.40625 -1.953125q0.484375 -1.265625 0.484375 -2.90625q0 -1.625 -0.46875 -2.84375q-0.46875 -1.234375 -1.40625 -1.921875q-0.921875 -0.6875 -2.28125 -0.6875q-1.421875 0 -2.375 0.71875q-0.9375 0.71875 -1.40625 1.96875q-0.46875 1.234375 -0.46875 2.765625q0 1.546875 0.46875 2.8125q0.484375 1.265625 1.421875 2.015625q0.953125 0.734375 2.359375 0.734375zm11.546448 -6.46875q0 -3.578125 0.921875 -6.578125q0.9375 -3.015625 2.671875 -5.546875l1.96875 0q-0.6875 0.9375 -1.28125 2.3125q-0.578125 1.359375 -1.03125 3.0q-0.4375 1.625 -0.6875 3.375q-0.25 1.734375 -0.25 3.4375q0 2.25 0.421875 4.578125q0.4375 2.3125 1.171875 4.296875q0.75 1.984375 1.65625 3.234375l-1.96875 0q-1.734375 -2.53125 -2.671875 -5.53125q-0.921875 -3.0 -0.921875 -6.578125zm13.624023 0q0 3.578125 -0.9375 6.578125q-0.921875 3.0 -2.65625 5.53125l-1.96875 0q0.6875 -0.9375 1.265625 -2.3125q0.59375 -1.359375 1.03125 -2.984375q0.453125 -1.640625 0.703125 -3.390625q0.25 -1.75 0.25 -3.421875q0 -2.265625 -0.4375 -4.578125q-0.421875 -2.3125 -1.171875 -4.296875q-0.734375 -2.0 -1.640625 -3.25l1.96875 0q1.734375 2.53125 2.65625 5.546875q0.9375 3.0 0.9375 6.578125z" fill-rule="nonzero"/><path fill="#000000" fill-opacity="0.0" d="m472.7021 65.38257l98.36224 0.9133911" fill-rule="evenodd"/><path stroke="#000000" stroke-width="1.0" stroke-linejoin="round" stroke-linecap="butt" d="m472.7021 65.38257l98.36224 0.9133911" fill-rule="evenodd"/><path fill="#000000" fill-opacity="0.0" d="m264.7021 64.88257l98.36221 0.9133911" fill-rule="evenodd"/><path stroke="#000000" stroke-width="1.0" stroke-linejoin="round" stroke-linecap="butt" d="m264.7021 64.88257l98.36221 0.9133911" fill-rule="evenodd"/><path fill="#000000" fill-opacity="0.0" d="m56.7021 64.38257l98.3622 0.9133911" fill-rule="evenodd"/><path stroke="#000000" stroke-width="1.0" stroke-linejoin="round" stroke-linecap="butt" d="m56.7021 64.38257l98.3622 0.9133911" fill-rule="evenodd"/><path fill="#ffffff" d="m295.2388 125.18635l1.4497986 0l0 23.196861l-1.4497986 0zm2.8995972 0l2.8996277 0l0 23.196861l-2.8996277 0zm4.3494263 0l307.44388 0l0 -11.598419l23.196838 23.196846l-23.196838 23.196854l0 -11.598419l-307.44388 0z" fill-rule="evenodd"/><path stroke="#000000" stroke-width="1.0" stroke-linejoin="round" stroke-linecap="butt" d="m295.2388 125.18635l1.4497986 0l0 23.196861l-1.4497986 0zm2.8995972 0l2.8996277 0l0 23.196861l-2.8996277 0zm4.3494263 0l307.44388 0l0 -11.598419l23.196838 23.196846l-23.196838 23.196854l0 -11.598419l-307.44388 0z" fill-rule="evenodd"/><path fill="#000000" d="m364.03384 143.70477l0 -13.5625l4.59375 0q1.578125 0 2.59375 0.546875q1.03125 0.53125 1.515625 1.46875q0.5 0.9375 0.5 2.140625q0 1.203125 -0.5 2.125q-0.484375 0.921875 -1.5 1.453125q-1.015625 0.53125 -2.59375 0.53125l-3.703125 0l0 -1.484375l3.65625 0q1.078125 0 1.75 -0.3125q0.671875 -0.328125 0.96875 -0.90625q0.296875 -0.59375 0.296875 -1.40625q0 -0.8125 -0.3125 -1.421875q-0.296875 -0.609375 -0.96875 -0.9375q-0.65625 -0.34375 -1.765625 -0.34375l-2.890625 0l0 12.109375l-1.640625 0zm6.390625 -6.09375l3.34375 6.09375l-1.921875 0l-3.28125 -6.09375l1.859375 0zm9.49115 6.3125q-1.46875 0 -2.546875 -0.65625q-1.0625 -0.65625 -1.640625 -1.828125q-0.5625 -1.171875 -0.5625 -2.75q0 -1.5625 0.5625 -2.75q0.578125 -1.203125 1.609375 -1.875q1.03125 -0.671875 2.40625 -0.671875q0.796875 0 1.578125 0.265625q0.78125 0.265625 1.40625 0.859375q0.640625 0.59375 1.015625 1.578125q0.375 0.96875 0.375 2.390625l0 0.65625l-7.84375 0l0 -1.34375l6.265625 0q0 -0.859375 -0.34375 -1.53125q-0.34375 -0.6875 -0.96875 -1.078125q-0.625 -0.390625 -1.484375 -0.390625q-0.921875 0 -1.609375 0.46875q-0.671875 0.453125 -1.046875 1.1875q-0.359375 0.734375 -0.359375 1.578125l0 0.90625q0 1.140625 0.390625 1.953125q0.40625 0.796875 1.125 1.21875q0.71875 0.40625 1.671875 0.40625q0.609375 0 1.109375 -0.171875q0.5 -0.1875 0.859375 -0.53125q0.375 -0.359375 0.5625 -0.890625l1.515625 0.421875q-0.234375 0.765625 -0.796875 1.34375q-0.5625 0.578125 -1.390625 0.90625q-0.828125 0.328125 -1.859375 0.328125zm6.5996704 3.59375l0 -13.984375l1.5 0l0 1.609375l0.1875 0q0.171875 -0.265625 0.484375 -0.671875q0.3125 -0.421875 0.890625 -0.75q0.578125 -0.328125 1.5625 -0.328125q1.296875 0 2.265625 0.640625q0.984375 0.640625 1.53125 1.828125q0.5625 1.171875 0.5625 2.78125q0 1.625 -0.5625 2.8125q-0.546875 1.171875 -1.515625 1.828125q-0.96875 0.640625 -2.25 0.640625q-0.984375 0 -1.578125 -0.328125q-0.578125 -0.328125 -0.90625 -0.75q-0.3125 -0.421875 -0.484375 -0.703125l-0.125 0l0 5.375l-1.5625 0zm1.53125 -8.90625q0 1.15625 0.328125 2.046875q0.34375 0.875 0.984375 1.375q0.65625 0.484375 1.609375 0.484375q0.96875 0 1.625 -0.515625q0.671875 -0.53125 1.0 -1.40625q0.328125 -0.890625 0.328125 -1.984375q0 -1.0625 -0.328125 -1.921875q-0.3125 -0.875 -0.984375 -1.375q-0.65625 -0.515625 -1.640625 -0.515625q-0.96875 0 -1.625 0.484375q-0.640625 0.484375 -0.96875 1.34375q-0.328125 0.84375 -0.328125 1.984375zm11.400055 -8.46875l0 13.5625l-1.5625 0l0 -13.5625l1.5625 0zm5.847473 13.796875q-0.96875 0 -1.765625 -0.359375q-0.78125 -0.375 -1.25 -1.0625q-0.453125 -0.703125 -0.453125 -1.703125q0 -0.875 0.34375 -1.421875q0.34375 -0.546875 0.921875 -0.859375q0.578125 -0.3125 1.265625 -0.46875q0.703125 -0.15625 1.421875 -0.25q0.921875 -0.109375 1.5 -0.171875q0.578125 -0.0625 0.84375 -0.21875q0.28125 -0.15625 0.28125 -0.53125l0 -0.046875q0 -0.984375 -0.546875 -1.53125q-0.53125 -0.546875 -1.609375 -0.546875q-1.109375 0 -1.75 0.5q-0.640625 0.484375 -0.890625 1.046875l-1.484375 -0.53125q0.390625 -0.921875 1.046875 -1.4375q0.671875 -0.53125 1.46875 -0.734375q0.796875 -0.21875 1.5625 -0.21875q0.484375 0 1.125 0.125q0.640625 0.109375 1.234375 0.46875q0.609375 0.359375 1.0 1.078125q0.40625 0.71875 0.40625 1.9375l0 6.703125l-1.5625 0l0 -1.375l-0.078125 0q-0.171875 0.328125 -0.546875 0.703125q-0.359375 0.375 -0.984375 0.640625q-0.609375 0.265625 -1.5 0.265625zm0.25 -1.40625q0.921875 0 1.5625 -0.359375q0.640625 -0.359375 0.96875 -0.9375q0.328125 -0.578125 0.328125 -1.21875l0 -1.421875q-0.109375 0.109375 -0.453125 0.21875q-0.328125 0.09375 -0.765625 0.15625q-0.421875 0.0625 -0.828125 0.125q-0.40625 0.046875 -0.65625 0.078125q-0.609375 0.078125 -1.140625 0.265625q-0.53125 0.171875 -0.859375 0.515625q-0.3125 0.34375 -0.3125 0.9375q0 0.8125 0.609375 1.234375q0.609375 0.40625 1.546875 0.40625zm7.9151917 4.984375q-0.390625 0 -0.703125 -0.0625q-0.3125 -0.0625 -0.4375 -0.125l0.40625 -1.375q0.5625 0.140625 1.0 0.09375q0.4375 -0.03125 0.78125 -0.375q0.34375 -0.34375 0.625 -1.125l0.296875 -0.796875l-3.765625 -10.21875l1.6875 0l2.8125 8.109375l0.109375 0l2.8125 -8.109375l1.6875 0l-4.3125 11.65625q-0.296875 0.78125 -0.734375 1.296875q-0.421875 0.53125 -1.0 0.78125q-0.5625 0.25 -1.265625 0.25zm15.182312 -9.53125q0 -2.515625 0.65625 -4.609375q0.65625 -2.109375 1.859375 -3.875l1.390625 0q-0.484375 0.65625 -0.90625 1.609375q-0.40625 0.953125 -0.71875 2.109375q-0.3125 1.140625 -0.484375 2.359375q-0.171875 1.21875 -0.171875 2.40625q0 1.578125 0.296875 3.203125q0.3125 1.609375 0.828125 3.0q0.515625 1.390625 1.15625 2.265625l-1.390625 0q-1.203125 -1.765625 -1.859375 -3.859375q-0.65625 -2.109375 -0.65625 -4.609375zm10.742035 -4.453125l0 1.328125l-5.484375 0l0 -1.328125l5.484375 0zm-3.84375 10.171875l0 -11.578125q0 -0.875 0.40625 -1.453125q0.40625 -0.59375 1.0625 -0.875q0.65625 -0.296875 1.390625 -0.296875q0.578125 0 0.9375 0.09375q0.359375 0.09375 0.546875 0.171875l-0.453125 1.34375q-0.125 -0.03125 -0.328125 -0.09375q-0.203125 -0.0625 -0.546875 -0.0625q-0.78125 0 -1.125 0.390625q-0.328125 0.390625 -0.328125 1.15625l0 11.203125l-1.5625 0zm8.736389 0.234375q-0.96875 0 -1.765625 -0.359375q-0.78125 -0.375 -1.25 -1.0625q-0.453125 -0.703125 -0.453125 -1.703125q0 -0.875 0.34375 -1.421875q0.34375 -0.546875 0.921875 -0.859375q0.578125 -0.3125 1.265625 -0.46875q0.703125 -0.15625 1.421875 -0.25q0.921875 -0.109375 1.5 -0.171875q0.578125 -0.0625 0.84375 -0.21875q0.28125 -0.15625 0.28125 -0.53125l0 -0.046875q0 -0.984375 -0.546875 -1.53125q-0.53125 -0.546875 -1.609375 -0.546875q-1.109375 0 -1.75 0.5q-0.640625 0.484375 -0.890625 1.046875l-1.484375 -0.53125q0.390625 -0.921875 1.046875 -1.4375q0.671875 -0.53125 1.46875 -0.734375q0.796875 -0.21875 1.5625 -0.21875q0.484375 0 1.125 0.125q0.640625 0.109375 1.234375 0.46875q0.609375 0.359375 1.0 1.078125q0.40625 0.71875 0.40625 1.9375l0 6.703125l-1.5625 0l0 -1.375l-0.078125 0q-0.171875 0.328125 -0.546875 0.703125q-0.359375 0.375 -0.984375 0.640625q-0.609375 0.265625 -1.5 0.265625zm0.25 -1.40625q0.921875 0 1.5625 -0.359375q0.640625 -0.359375 0.96875 -0.9375q0.328125 -0.578125 0.328125 -1.21875l0 -1.421875q-0.109375 0.109375 -0.453125 0.21875q-0.328125 0.09375 -0.765625 0.15625q-0.421875 0.0625 -0.828125 0.125q-0.40625 0.046875 -0.65625 0.078125q-0.609375 0.078125 -1.140625 0.265625q-0.53125 0.171875 -0.859375 0.515625q-0.3125 0.34375 -0.3125 0.9375q0 0.8125 0.609375 1.234375q0.609375 0.40625 1.546875 0.40625zm13.692657 -2.984375l0 -6.015625l1.5625 0l0 10.171875l-1.5625 0l0 -1.71875l-0.109375 0q-0.359375 0.765625 -1.109375 1.3125q-0.75 0.53125 -1.90625 0.53125q-0.953125 0 -1.703125 -0.40625q-0.734375 -0.421875 -1.15625 -1.265625q-0.421875 -0.859375 -0.421875 -2.15625l0 -6.46875l1.5625 0l0 6.359375q0 1.109375 0.625 1.78125q0.625 0.65625 1.59375 0.65625q0.578125 0 1.1875 -0.296875q0.609375 -0.296875 1.015625 -0.90625q0.421875 -0.625 0.421875 -1.578125zm5.995056 -9.40625l0 13.5625l-1.5625 0l0 -13.5625l1.5625 0zm7.284973 3.390625l0 1.328125l-5.28125 0l0 -1.328125l5.28125 0zm-3.734375 -2.4375l1.5625 0l0 9.6875q0 0.671875 0.1875 1.0q0.203125 0.328125 0.5 0.4375q0.3125 0.109375 0.65625 0.109375q0.265625 0 0.421875 -0.03125q0.171875 -0.03125 0.265625 -0.046875l0.328125 1.40625q-0.15625 0.046875 -0.453125 0.109375q-0.28125 0.0625 -0.71875 0.0625q-0.65625 0 -1.296875 -0.28125q-0.625 -0.28125 -1.046875 -0.859375q-0.40625 -0.59375 -0.40625 -1.46875l0 -10.125zm11.343842 12.609375l0 -10.171875l1.5 0l0 1.53125l0.109375 0q0.28125 -0.75 1.0 -1.21875q0.734375 -0.46875 1.65625 -0.46875q0.171875 0 0.421875 0q0.265625 0 0.390625 0.015625l0 1.59375q-0.078125 -0.015625 -0.359375 -0.0625q-0.28125 -0.046875 -0.59375 -0.046875q-0.734375 0 -1.328125 0.3125q-0.578125 0.3125 -0.90625 0.859375q-0.328125 0.53125 -0.328125 1.21875l0 6.4375l-1.5625 0zm10.890625 0.21875q-1.46875 0 -2.546875 -0.65625q-1.0625 -0.65625 -1.640625 -1.828125q-0.5625 -1.171875 -0.5625 -2.75q0 -1.5625 0.5625 -2.75q0.578125 -1.203125 1.609375 -1.875q1.03125 -0.671875 2.40625 -0.671875q0.796875 0 1.578125 0.265625q0.78125 0.265625 1.40625 0.859375q0.640625 0.59375 1.015625 1.578125q0.375 0.96875 0.375 2.390625l0 0.65625l-7.84375 0l0 -1.34375l6.265625 0q0 -0.859375 -0.34375 -1.53125q-0.34375 -0.6875 -0.96875 -1.078125q-0.625 -0.390625 -1.484375 -0.390625q-0.921875 0 -1.609375 0.46875q-0.671875 0.453125 -1.046875 1.1875q-0.359375 0.734375 -0.359375 1.578125l0 0.90625q0 1.140625 0.390625 1.953125q0.40625 0.796875 1.125 1.21875q0.71875 0.40625 1.671875 0.40625q0.609375 0 1.109375 -0.171875q0.5 -0.1875 0.859375 -0.53125q0.375 -0.359375 0.5625 -0.890625l1.515625 0.421875q-0.234375 0.765625 -0.796875 1.34375q-0.5625 0.578125 -1.390625 0.90625q-0.828125 0.328125 -1.859375 0.328125zm10.72467 0q-1.421875 0 -2.46875 -0.671875q-1.03125 -0.6875 -1.59375 -1.875q-0.546875 -1.1875 -0.546875 -2.703125q0 -1.546875 0.5625 -2.734375q0.578125 -1.203125 1.609375 -1.875q1.03125 -0.671875 2.40625 -0.671875q1.078125 0 1.9375 0.40625q0.859375 0.390625 1.40625 1.109375q0.5625 0.71875 0.6875 1.671875l-1.5625 0q-0.171875 -0.703125 -0.796875 -1.234375q-0.609375 -0.546875 -1.640625 -0.546875q-0.90625 0 -1.59375 0.484375q-0.6875 0.46875 -1.078125 1.328125q-0.375 0.859375 -0.375 2.0q0 1.1875 0.375 2.0625q0.375 0.875 1.0625 1.359375q0.6875 0.484375 1.609375 0.484375q0.609375 0 1.109375 -0.203125q0.5 -0.21875 0.84375 -0.609375q0.34375 -0.40625 0.484375 -0.96875l1.5625 0q-0.125 0.90625 -0.65625 1.625q-0.515625 0.71875 -1.375 1.140625q-0.84375 0.421875 -1.96875 0.421875zm10.414795 0q-1.375 0 -2.421875 -0.65625q-1.03125 -0.65625 -1.609375 -1.828125q-0.578125 -1.1875 -0.578125 -2.765625q0 -1.59375 0.578125 -2.78125q0.578125 -1.1875 1.609375 -1.84375q1.046875 -0.65625 2.421875 -0.65625q1.375 0 2.40625 0.65625q1.046875 0.65625 1.625 1.84375q0.578125 1.1875 0.578125 2.78125q0 1.578125 -0.578125 2.765625q-0.578125 1.171875 -1.625 1.828125q-1.03125 0.65625 -2.40625 0.65625zm0 -1.40625q1.046875 0 1.71875 -0.53125q0.6875 -0.546875 1.0 -1.421875q0.328125 -0.875 0.328125 -1.890625q0 -1.03125 -0.328125 -1.90625q-0.3125 -0.875 -1.0 -1.421875q-0.671875 -0.546875 -1.71875 -0.546875q-1.046875 0 -1.71875 0.546875q-0.671875 0.546875 -1.0 1.421875q-0.328125 0.875 -0.328125 1.90625q0 1.015625 0.328125 1.890625q0.328125 0.875 1.0 1.421875q0.671875 0.53125 1.71875 0.53125zm14.946594 -8.984375l-3.765625 10.171875l-1.578125 0l-3.765625 -10.171875l1.6875 0l2.8125 8.109375l0.109375 0l2.8125 -8.109375l1.6875 0zm5.970154 10.390625q-1.46875 0 -2.546875 -0.65625q-1.0625 -0.65625 -1.640625 -1.828125q-0.5625 -1.171875 -0.5625 -2.75q0 -1.5625 0.5625 -2.75q0.578125 -1.203125 1.609375 -1.875q1.03125 -0.671875 2.40625 -0.671875q0.796875 0 1.578125 0.265625q0.78125 0.265625 1.40625 0.859375q0.640625 0.59375 1.015625 1.578125q0.375 0.96875 0.375 2.390625l0 0.65625l-7.84375 0l0 -1.34375l6.265625 0q0 -0.859375 -0.34375 -1.53125q-0.34375 -0.6875 -0.96875 -1.078125q-0.625 -0.390625 -1.484375 -0.390625q-0.921875 0 -1.609375 0.46875q-0.671875 0.453125 -1.046875 1.1875q-0.359375 0.734375 -0.359375 1.578125l0 0.90625q0 1.140625 0.390625 1.953125q0.40625 0.796875 1.125 1.21875q0.71875 0.40625 1.671875 0.40625q0.609375 0 1.109375 -0.171875q0.5 -0.1875 0.859375 -0.53125q0.375 -0.359375 0.5625 -0.890625l1.515625 0.421875q-0.234375 0.765625 -0.796875 1.34375q-0.5625 0.578125 -1.390625 0.90625q-0.828125 0.328125 -1.859375 0.328125zm6.5996704 -0.21875l0 -10.171875l1.5 0l0 1.53125l0.109375 0q0.28125 -0.75 1.0 -1.21875q0.734375 -0.46875 1.65625 -0.46875q0.171875 0 0.421875 0q0.265625 0 0.390625 0.015625l0 1.59375q-0.078125 -0.015625 -0.359375 -0.0625q-0.28125 -0.046875 -0.59375 -0.046875q-0.734375 0 -1.328125 0.3125q-0.578125 0.3125 -0.90625 0.859375q-0.328125 0.53125 -0.328125 1.21875l0 6.4375l-1.5625 0zm8.261353 3.8125q-0.390625 0 -0.703125 -0.0625q-0.3125 -0.0625 -0.4375 -0.125l0.40625 -1.375q0.5625 0.140625 1.0 0.09375q0.4375 -0.03125 0.78125 -0.375q0.34375 -0.34375 0.625 -1.125l0.296875 -0.796875l-3.765625 -10.21875l1.6875 0l2.8125 8.109375l0.109375 0l2.8125 -8.109375l1.6875 0l-4.3125 11.65625q-0.296875 0.78125 -0.734375 1.296875q-0.421875 0.53125 -1.0 0.78125q-0.5625 0.25 -1.265625 0.25zm12.716431 -9.53125q0 2.5 -0.65625 4.609375q-0.640625 2.09375 -1.859375 3.859375l-1.375 0q0.46875 -0.65625 0.875 -1.609375q0.421875 -0.953125 0.734375 -2.09375q0.3125 -1.140625 0.484375 -2.359375q0.1875 -1.234375 0.1875 -2.40625q0 -1.578125 -0.3125 -3.203125q-0.296875 -1.625 -0.8125 -3.015625q-0.515625 -1.390625 -1.15625 -2.265625l1.375 0q1.21875 1.765625 1.859375 3.875q0.65625 2.09375 0.65625 4.609375z" fill-rule="nonzero"/></g></svg>